<svg width="244" height="244" viewBox="0 0 244 244" fill="none" xmlns="http://www.w3.org/2000/svg">
<path d="M102 75H59C53.4772 75 49 79.4772 49 85V166.5C49 172.023 53.4772 176.5 59 176.5H184C189.523 176.5 194 172.023 194 166.5V125M62.5 135.5H72.6716C73.202 135.5 73.7107 135.289 74.0858 134.914L86.0858 122.914C86.8668 122.133 88.1332 122.133 88.9142 122.914L117.586 151.586C118.367 152.367 119.633 152.367 120.414 151.586L132.5 139.5M87.5 87.5H81M73.5 87.5H64.5C63.3954 87.5 62.5 88.3954 62.5 89.5V98.5M103.5 178V193C103.5 194.105 104.395 195 105.5 195M105.5 195H142M105.5 195H91M142 195H154M142 195V178M154.74 78.6264C152.152 78.3708 149.548 78.9214 147.285 80.2029C145.021 81.4843 143.21 83.434 142.097 85.7849C140.985 88.1358 140.627 90.7731 141.071 93.3356C141.515 95.8981 142.741 98.2606 144.58 100.1C146.419 101.939 148.782 103.164 151.344 103.609C153.907 104.053 156.544 103.695 158.895 102.583C161.246 101.47 163.195 99.6585 164.477 97.3953C165.758 95.1322 166.309 92.5282 166.053 89.94C165.762 87.0386 164.476 84.3272 162.414 82.2653C160.353 80.2034 157.641 78.9178 154.74 78.6264ZM185.113 91.1798C185.105 92.551 185.004 93.92 184.812 95.2776L193.723 102.267C194.111 102.588 194.372 103.037 194.46 103.533C194.549 104.03 194.459 104.541 194.205 104.977L185.775 119.562C185.519 119.994 185.119 120.322 184.645 120.487C184.172 120.653 183.655 120.646 183.186 120.467L174.336 116.904C173.848 116.709 173.319 116.639 172.797 116.699C172.275 116.759 171.777 116.948 171.346 117.249C169.995 118.179 168.576 119.005 167.1 119.72C166.636 119.946 166.235 120.282 165.932 120.699C165.628 121.117 165.433 121.602 165.362 122.113L164.035 131.552C163.948 132.051 163.69 132.503 163.306 132.833C162.923 133.163 162.436 133.349 161.93 133.36H145.07C144.572 133.351 144.093 133.173 143.71 132.855C143.327 132.538 143.063 132.099 142.963 131.611L141.638 122.186C141.564 121.669 141.363 121.179 141.054 120.759C140.744 120.339 140.336 120.002 139.864 119.777C138.391 119.066 136.976 118.237 135.635 117.3C135.205 117.001 134.708 116.814 134.188 116.755C133.668 116.696 133.142 116.767 132.656 116.963L123.809 120.524C123.34 120.703 122.823 120.71 122.349 120.545C121.875 120.38 121.475 120.053 121.219 119.622L112.789 105.036C112.535 104.6 112.445 104.089 112.533 103.592C112.621 103.096 112.883 102.647 113.271 102.326L120.803 96.4129C121.215 96.0853 121.54 95.6599 121.746 95.1753C121.953 94.6907 122.035 94.1621 121.985 93.6377C121.914 92.8158 121.871 91.9958 121.871 91.1739C121.871 90.352 121.912 89.5439 121.985 88.7397C122.029 88.2184 121.943 87.6943 121.734 87.2147C121.526 86.7351 121.201 86.3149 120.789 85.9921L113.262 80.079C112.88 79.756 112.623 79.3088 112.538 78.8158C112.453 78.3228 112.543 77.8154 112.795 77.3827L121.225 62.7971C121.481 62.3655 121.881 62.038 122.355 61.8725C122.828 61.707 123.345 61.7141 123.814 61.8924L132.664 65.456C133.152 65.6504 133.681 65.7206 134.203 65.6604C134.725 65.6002 135.223 65.4114 135.654 65.1111C137.005 64.181 138.424 63.3548 139.9 62.6395C140.364 62.414 140.765 62.0777 141.068 61.6604C141.372 61.2431 141.567 60.7575 141.638 60.2466L142.965 50.8074C143.052 50.3089 143.31 49.8561 143.694 49.5265C144.077 49.1968 144.564 49.0107 145.07 49H161.93C162.428 49.0086 162.907 49.1865 163.29 49.5043C163.673 49.822 163.937 50.2608 164.037 50.7483L165.362 60.1737C165.436 60.6902 165.637 61.1804 165.946 61.6006C166.256 62.0208 166.664 62.358 167.136 62.5823C168.609 63.2937 170.024 64.1223 171.365 65.0599C171.795 65.3587 172.292 65.546 172.812 65.6048C173.332 65.6636 173.858 65.5922 174.344 65.3969L183.191 61.8353C183.66 61.6567 184.177 61.6494 184.651 61.8145C185.125 61.9796 185.525 62.3067 185.781 62.738L194.211 77.3235C194.465 77.7593 194.555 78.2709 194.467 78.7672C194.379 79.2635 194.117 79.7123 193.729 80.0337L186.197 85.9468C185.783 86.2732 185.457 86.6981 185.248 87.1828C185.04 87.6675 184.956 88.1966 185.005 88.722C185.07 89.538 185.113 90.3579 185.113 91.1798Z" stroke="url(#paint0_linear_5940_276518)" stroke-width="4" stroke-linecap="round" stroke-linejoin="round"/>
<defs>
<linearGradient id="paint0_linear_5940_276518" x1="121.75" y1="49" x2="121.75" y2="195" gradientUnits="userSpaceOnUse">
<stop stop-color="#FF8860"/>
<stop offset="1" stop-color="#FFF281"/>
</linearGradient>
</defs>
</svg>
