<svg width="244" height="244" viewBox="0 0 244 244" fill="none" xmlns="http://www.w3.org/2000/svg">
<path d="M161.842 51.6994H72.269M72.269 51.6994V160.943C72.269 161.719 72.8981 162.348 73.6741 162.348H170.623C171.399 162.348 172.028 161.719 172.028 160.943V52.4385C172.028 51.9758 172.256 51.5428 172.638 51.2806L177.04 48.2542C177.421 47.992 177.649 47.559 177.649 47.0963V39.4051C177.649 38.6291 177.02 38 176.244 38H68.4051C67.6291 38 67 38.6291 67 39.4051V47.1234C67 47.571 67.2132 47.9918 67.5742 48.2565L72.269 51.6994ZM85.6179 177.452V204.851C85.6179 205.627 86.2469 206.256 87.0229 206.256H98.2634C99.0394 206.256 99.6685 205.627 99.6685 204.851V186.585M145.333 177.452V204.851C145.333 205.627 145.962 206.256 146.738 206.256H157.979C158.755 206.256 159.384 205.627 159.384 204.851V186.585M72.9545 162.965L67.5824 166.845C67.2167 167.109 67 167.533 67 167.984V174.642C67 176.194 68.2581 177.453 69.8101 177.453H175.19C176.742 177.453 178 176.194 178 174.642V167.907C178 167.5 177.823 167.113 177.515 166.846L173.127 163.043C172.872 162.821 172.545 162.699 172.207 162.699H73.7771C73.4818 162.699 73.1939 162.792 72.9545 162.965Z" stroke="url(#paint0_linear_5940_276507)" stroke-width="4" stroke-linecap="round"/>
<path d="M115.123 78.0434H145.683M115.123 87.1764H155.167M89.1289 82.9612L91.6503 85.7347C92.19 86.3283 93.1163 86.3504 93.6835 85.7831L103.18 76.2871M115.123 101.578H145.683M115.123 110.711H155.167M89.1289 112.116L94.3979 106.847M97.9106 103.686L100.018 101.578M89.1289 101.578L99.6669 112.116M115.123 126.167H145.683M115.123 135.3H155.167M89.1289 136.705L94.3979 131.436M97.9106 128.274L100.018 126.167M89.1289 126.167L99.6669 136.705" stroke="url(#paint1_linear_5940_276507)" stroke-width="4" stroke-linecap="round"/>
<defs>
<linearGradient id="paint0_linear_5940_276507" x1="391" y1="-164" x2="134" y2="109" gradientUnits="userSpaceOnUse">
<stop stop-color="#6015E2"/>
<stop offset="1" stop-color="#FB4794"/>
</linearGradient>
<linearGradient id="paint1_linear_5940_276507" x1="216.5" y1="-11.2441" x2="137.204" y2="141.311" gradientUnits="userSpaceOnUse">
<stop offset="0.289508" stop-color="#6015E2"/>
<stop offset="1" stop-color="#FB4794"/>
</linearGradient>
</defs>
</svg>
