<svg width="244" height="244" viewBox="0 0 244 244" fill="none" xmlns="http://www.w3.org/2000/svg">
<path d="M178.899 154.41H71.8303V178.849C71.8303 184.924 76.7552 189.849 82.8303 189.849H178C184.075 189.849 189 184.924 189 178.849V65C189 58.9249 184.075 54 178 54H79.4718C75.2515 54 71.8303 57.4212 71.8303 61.6415M71.8303 146.219V115.479H180.51M129.566 172.019H86.6887M129.566 134.66H86.6887M65.0377 82.8676L67.6247 87.1792C68.2669 88.2497 69.7221 88.4766 70.6599 87.6525L82.8679 76.9243M180.509 172.868C180.509 177.088 177.088 180.509 172.868 180.509C168.648 180.509 165.226 177.088 165.226 172.868C165.226 168.647 168.648 165.226 172.868 165.226C177.088 165.226 180.509 168.647 180.509 172.868ZM180.509 134.66C180.509 138.88 177.088 142.302 172.868 142.302C168.648 142.302 165.226 138.88 165.226 134.66C165.226 130.44 168.648 127.019 172.868 127.019C177.088 127.019 180.509 130.44 180.509 134.66ZM155.038 172.868C155.038 177.088 151.617 180.509 147.396 180.509C143.176 180.509 139.755 177.088 139.755 172.868C139.755 168.647 143.176 165.226 147.396 165.226C151.617 165.226 155.038 168.647 155.038 172.868ZM155.038 134.66C155.038 138.88 151.617 142.302 147.396 142.302C143.176 142.302 139.755 138.88 139.755 134.66C139.755 130.44 143.176 127.019 147.396 127.019C151.617 127.019 155.038 130.44 155.038 134.66ZM93.9057 82.4431C93.9057 93.4628 84.9725 102.396 73.9528 102.396C62.9332 102.396 54 93.4628 54 82.4431C54 71.4235 62.9332 62.4903 73.9528 62.4903C84.9725 62.4903 93.9057 71.4235 93.9057 82.4431Z" stroke="url(#paint0_linear_5940_276509)" stroke-width="4" stroke-linecap="round"/>
<defs>
<linearGradient id="paint0_linear_5940_276509" x1="235" y1="-19" x2="82" y2="171.5" gradientUnits="userSpaceOnUse">
<stop stop-color="#6015E2"/>
<stop offset="1" stop-color="#FB4794"/>
</linearGradient>
</defs>
</svg>
