<svg width="244" height="244" viewBox="0 0 244 244" fill="none" xmlns="http://www.w3.org/2000/svg">
<path d="M172.69 125.858L152.908 144.785L143.034 135.321M55.1034 87.2759H189.241M55.1034 107.621H117.862M55.1034 128.31H103.379M55.1034 149H90.9655M128.207 129.474V109.635C128.207 108.918 128.491 108.23 128.997 107.723C129.502 107.216 130.188 106.931 130.903 106.931H184.821C185.536 106.931 186.222 107.216 186.728 107.723C187.233 108.23 187.517 108.918 187.517 109.635V129.474C187.517 157.864 163.49 167.26 158.705 168.849C158.161 169.05 157.563 169.05 157.02 168.849C152.234 167.26 128.207 157.864 128.207 129.474ZM42 69.3448V174.517C42 180.231 46.6315 184.862 52.3448 184.862H191.655C197.368 184.862 202 180.231 202 174.517V69.3448C202 63.6315 197.368 59 191.655 59H52.3448C46.6315 59 42 63.6315 42 69.3448ZM64.7586 73.8276C64.7586 76.4938 62.5972 78.6552 59.931 78.6552C57.2648 78.6552 55.1034 76.4938 55.1034 73.8276C55.1034 71.1614 57.2648 69 59.931 69C62.5972 69 64.7586 71.1614 64.7586 73.8276ZM81.3103 73.8276C81.3103 76.4938 79.149 78.6552 76.4828 78.6552C73.8166 78.6552 71.6552 76.4938 71.6552 73.8276C71.6552 71.1614 73.8166 69 76.4828 69C79.149 69 81.3103 71.1614 81.3103 73.8276ZM97.8621 73.8276C97.8621 76.4938 95.7007 78.6552 93.0345 78.6552C90.3683 78.6552 88.2069 76.4938 88.2069 73.8276C88.2069 71.1614 90.3683 69 93.0345 69C95.7007 69 97.8621 71.1614 97.8621 73.8276Z" stroke="url(#paint0_linear_5940_276510)" stroke-width="4" stroke-linecap="round"/>
<defs>
<linearGradient id="paint0_linear_5940_276510" x1="-35.9282" y1="313.481" x2="-86.3573" y2="242.905" gradientUnits="userSpaceOnUse">
<stop offset="0.466412" stop-color="#FF8860"/>
<stop offset="1" stop-color="#FFF281"/>
</linearGradient>
</defs>
</svg>
