<svg width="244" height="244" viewBox="0 0 244 244" fill="none" xmlns="http://www.w3.org/2000/svg">
<path d="M70.2729 192.973C77.0453 192.966 83.3705 189.668 87.1508 184.173C90.931 178.678 91.6707 171.705 89.1255 165.568C86.5803 159.431 81.0822 154.933 74.4562 153.565V137.722C74.4562 135.691 75.2813 133.742 76.7501 132.305C78.2199 130.868 80.2122 130.061 82.2897 130.061H116.961V153.78C110.456 155.402 105.185 160.056 102.871 166.22C100.559 172.385 101.501 179.268 105.392 184.62C109.281 189.973 115.618 193.106 122.332 192.997C129.045 192.887 135.272 189.549 138.978 184.073C142.683 178.597 143.39 171.687 140.869 165.6C138.347 159.515 132.92 155.036 126.362 153.627V130.061H161.66C163.738 130.061 165.73 130.868 167.2 132.305C168.669 133.742 169.494 135.691 169.494 137.722V153.565C162.919 154.9 157.441 159.317 154.847 165.374C152.253 171.43 152.878 178.347 156.518 183.865C160.158 189.384 166.344 192.793 173.056 192.979C179.768 193.165 186.141 190.104 190.095 184.797C194.049 179.489 195.073 172.617 192.834 166.426C190.596 160.236 185.38 155.522 178.895 153.826V137.722C178.895 133.253 177.078 128.966 173.847 125.805C170.615 122.644 166.231 120.868 161.66 120.868H126.362V91.3732C132.92 89.9635 138.347 85.4844 140.869 79.3986C143.39 73.3128 142.683 66.4024 138.978 60.9259C135.272 55.4505 129.045 52.1117 122.332 52.0028C115.618 51.8927 109.281 55.0264 105.392 60.3787C101.501 65.7309 100.559 72.6151 102.871 78.7786C105.185 84.9432 110.456 89.5978 116.961 91.2192V120.867H82.2897C77.7195 120.867 73.3349 122.643 70.1033 125.804C66.8717 128.965 65.0555 133.252 65.0555 137.722V153.825C58.6558 155.515 53.4985 160.146 51.2299 166.238C48.9612 172.329 49.866 179.12 53.656 184.439C57.4449 189.759 63.6435 192.941 70.2728 192.973L70.2729 192.973ZM132.941 173.055C132.941 175.899 131.786 178.627 129.729 180.639C127.672 182.65 124.884 183.78 121.974 183.78C119.065 183.78 116.276 182.65 114.219 180.639C112.163 178.627 111.008 175.899 111.008 173.055C111.008 170.21 112.163 167.482 114.219 165.471C116.276 163.459 119.065 162.33 121.974 162.33C124.884 162.33 127.672 163.459 129.729 165.471C131.786 167.482 132.941 170.21 132.941 173.055ZM184.642 173.055C184.642 175.899 183.487 178.627 181.43 180.639C179.374 182.65 176.584 183.78 173.675 183.78C170.766 183.78 167.977 182.65 165.921 180.639C163.864 178.627 162.709 175.899 162.709 173.055C162.709 170.21 163.864 167.482 165.921 165.471C167.977 163.459 170.766 162.33 173.675 162.33C176.584 162.33 179.373 163.459 181.43 165.471C183.487 167.482 184.642 170.21 184.642 173.055ZM111.007 71.9303C111.007 69.0862 112.162 66.3578 114.219 64.3462C116.276 62.3348 119.064 61.2052 121.974 61.2052C124.883 61.2052 127.672 62.3349 129.729 64.3462C131.785 66.3577 132.94 69.0862 132.94 71.9303C132.94 74.7752 131.785 77.5028 129.729 79.5143C127.672 81.5258 124.883 82.6553 121.974 82.6553C119.064 82.6553 116.276 81.5256 114.219 79.5143C112.162 77.5029 111.007 74.7755 111.007 71.9303ZM70.2729 162.329C73.182 162.329 75.971 163.459 78.0278 165.47C80.0846 167.482 81.2395 170.209 81.2395 173.054C81.2395 175.899 80.0844 178.627 78.0278 180.639C75.9711 182.65 73.1822 183.78 70.2729 183.78C67.3647 183.78 64.5749 182.65 62.518 180.639C60.4613 178.627 59.3063 175.899 59.3063 173.054C59.3063 170.21 60.4614 167.482 62.518 165.47C64.5748 163.459 67.3647 162.329 70.2729 162.329Z" stroke="url(#paint0_linear_5939_279850)" stroke-width="4" stroke-linecap="round"/>
<defs>
<linearGradient id="paint0_linear_5939_279850" x1="122" y1="52" x2="122" y2="193" gradientUnits="userSpaceOnUse">
<stop stop-color="#29D5A6"/>
<stop offset="1" stop-color="#29B8EF"/>
</linearGradient>
</defs>
</svg>
