<svg width="90" height="90" viewBox="0 0 90 90" fill="none" xmlns="http://www.w3.org/2000/svg">
<path d="M61.3158 75.6334H67.1053V35.0121H74.7368M61.3158 36.0687V52.1583H58.1579M33.1579 75.8976H12.1053M33.1579 52.4226H12.1053M55.5263 67.9826V84.0723H5V67.9826H55.5263ZM55.5263 60.0697V43.98H5V60.0697H55.5263ZM34.4737 35.0141V35.0097C30.3807 34.8706 27.1053 31.5012 27.1053 27.3649C27.1053 23.1404 30.522 19.7158 34.7368 19.7158C36.2392 19.7158 37.6402 20.1509 38.8212 20.9023C38.7313 20.4327 38.6842 19.9479 38.6842 19.452C38.6842 15.2275 42.101 11.8028 46.3158 11.8028C47.0482 11.8028 47.7565 11.9062 48.4269 12.0993C49.9503 8.51375 53.498 6 57.6316 6C62.6177 6 66.7515 9.65766 67.5079 14.4421C70.6531 14.5133 73.206 16.9894 73.4082 20.1078C74.5111 19.5208 75.7694 19.1882 77.1053 19.1882C81.4654 19.1882 85 22.731 85 27.1012C85 31.2941 81.7463 34.7254 77.6316 34.9968V35.0141H34.4737ZM49.2105 52.1588C49.2105 54.0526 47.6789 55.5878 45.7895 55.5878C43.9001 55.5878 42.3684 54.0526 42.3684 52.1588C42.3684 50.2651 43.9001 48.7299 45.7895 48.7299C47.6789 48.7299 49.2105 50.2651 49.2105 52.1588ZM49.2105 75.8976C49.2105 77.7914 47.6789 79.3266 45.7895 79.3266C43.9001 79.3266 42.3684 77.7914 42.3684 75.8976C42.3684 74.0039 43.9001 72.4687 45.7895 72.4687C47.6789 72.4687 49.2105 74.0039 49.2105 75.8976Z" stroke="url(#paint0_linear_5783_37180)" stroke-width="3.85542" stroke-linecap="round"/>
<defs>
<linearGradient id="paint0_linear_5783_37180" x1="45" y1="6" x2="45" y2="84.0723" gradientUnits="userSpaceOnUse">
<stop stop-color="#FF8860"/>
<stop offset="1" stop-color="#FFF281"/>
</linearGradient>
</defs>
</svg>
