<svg width="244" height="244" viewBox="0 0 244 244" fill="none" xmlns="http://www.w3.org/2000/svg">
<path d="M105.301 133.65L73.4562 155.009M137.534 72.291L127.437 101.806M124.719 141.42L128.383 178.028M142.583 129.767L168.213 141.42M70.3496 88.2135L104.579 109.223" stroke="url(#paint0_linear_5940_276520)" stroke-width="4"/>
<path d="M143.301 121.223C143.301 132.559 134.112 141.748 122.777 141.748C111.441 141.748 102.252 132.559 102.252 121.223C102.252 109.888 111.441 100.699 122.777 100.699C134.112 100.699 143.301 109.888 143.301 121.223ZM157.282 58.3107C157.282 66.2142 150.874 72.6214 142.971 72.6214C135.067 72.6214 128.66 66.2142 128.66 58.3107C128.66 50.4071 135.067 44 142.971 44C150.874 44 157.282 50.4071 157.282 58.3107ZM200 149.961C200 159.152 192.55 166.602 183.359 166.602C174.169 166.602 166.718 159.152 166.718 149.961C166.718 140.771 174.169 133.32 183.359 133.32C192.55 133.32 200 140.771 200 149.961ZM77.2816 166.272C77.2816 175.462 69.8312 182.913 60.6408 182.913C51.4503 182.913 44 175.462 44 166.272C44 157.081 51.4503 149.631 60.6408 149.631C69.8312 149.631 77.2816 157.081 77.2816 166.272ZM71.8447 83.165C71.8447 89.3528 66.8285 94.3689 60.6408 94.3689C54.453 94.3689 49.4369 89.3528 49.4369 83.165C49.4369 76.9773 54.453 71.9612 60.6408 71.9612C66.8285 71.9612 71.8447 76.9773 71.8447 83.165ZM140.971 188.796C140.971 194.984 135.955 200 129.767 200C123.579 200 118.563 194.984 118.563 188.796C118.563 182.608 123.579 177.592 129.767 177.592C135.955 177.592 140.971 182.608 140.971 188.796Z" stroke="url(#paint1_linear_5940_276520)" stroke-width="4"/>
<defs>
<linearGradient id="paint0_linear_5940_276520" x1="154.5" y1="58.5" x2="91" y2="139" gradientUnits="userSpaceOnUse">
<stop stop-color="#6015E2"/>
<stop offset="1" stop-color="#FB4794"/>
</linearGradient>
<linearGradient id="paint1_linear_5940_276520" x1="287.5" y1="-86" x2="122" y2="202" gradientUnits="userSpaceOnUse">
<stop stop-color="#6015E2"/>
<stop offset="0.948015" stop-color="#FB4794"/>
</linearGradient>
</defs>
</svg>
