<svg width="244" height="244" viewBox="0 0 244 244" fill="none" xmlns="http://www.w3.org/2000/svg">
<path d="M179 179L199 199M153.5 160C150.462 160 148 157.538 148 154.5C148 151.462 150.462 149 153.5 149C156.538 149 159 151.462 159 154.5C159 157.538 156.538 160 153.5 160ZM137.5 160C134.462 160 132 157.538 132 154.5C132 151.462 134.462 149 137.5 149C140.538 149 143 151.462 143 154.5C143 157.538 140.538 160 137.5 160ZM170.5 160C167.462 160 165 157.538 165 154.5C165 151.462 167.462 149 170.5 149C173.538 149 176 151.462 176 154.5C176 157.538 173.538 160 170.5 160Z" stroke="url(#paint0_linear_5940_276524)" stroke-width="4" stroke-linecap="round"/>
<path d="M117.5 151H110.5C108.291 151 106.5 149.209 106.5 147V112C106.5 109.791 108.291 108 110.5 108H143.5C145.709 108 147.5 109.791 147.5 112V118" stroke="url(#paint1_linear_5940_276524)" stroke-width="4" stroke-linecap="round"/>
<path d="M49 48H90C91.1046 48 92 48.8954 92 50V91C92 92.1046 91.1046 93 90 93H49C47.8954 93 47 92.1046 47 91V50C47 48.8954 47.8954 48 49 48ZM127.5 94C114.521 94 104 83.4787 104 70.5C104 57.5213 114.521 47 127.5 47C140.479 47 151 57.5213 151 70.5C151 83.4787 140.479 94 127.5 94ZM49 106H90C91.1046 106 92 106.895 92 108V149C92 150.105 91.1046 151 90 151H49C47.8954 151 47 150.105 47 149V108C47 106.895 47.8954 106 49 106ZM153 190C133.67 190 118 174.33 118 155C118 135.67 133.67 120 153 120C172.33 120 188 135.67 188 155C188 174.33 172.33 190 153 190Z" stroke="url(#paint2_linear_5940_276524)" stroke-width="4"/>
<defs>
<linearGradient id="paint0_linear_5940_276524" x1="181.708" y1="177.586" x2="197.893" y2="201.488" gradientUnits="userSpaceOnUse">
<stop stop-color="#29D5A6"/>
<stop offset="1" stop-color="#29B8EF"/>
</linearGradient>
<linearGradient id="paint1_linear_5940_276524" x1="112.052" y1="104.96" x2="147.434" y2="154.783" gradientUnits="userSpaceOnUse">
<stop stop-color="#29D5A6"/>
<stop offset="1" stop-color="#29B8EF"/>
</linearGradient>
<linearGradient id="paint2_linear_5940_276524" x1="117.5" y1="45" x2="117.5" y2="192" gradientUnits="userSpaceOnUse">
<stop stop-color="#29D5A6"/>
<stop offset="1" stop-color="#29B8EF"/>
</linearGradient>
</defs>
</svg>
