<svg width="90" height="90" viewBox="0 0 90 90" fill="none" xmlns="http://www.w3.org/2000/svg">
<path d="M27.0988 20.1506L27.3003 18.1607L27.2969 18.1604L27.0988 20.1506ZM30.9442 24.0268L32.9347 23.8318L32.9343 23.8285L30.9442 24.0268ZM37.4224 24.4516L39.4224 24.4633V24.4516H37.4224ZM37.3199 25.8556L35.3395 25.5766C35.2403 26.2803 35.5221 26.9837 36.0795 27.4245L37.3199 25.8556ZM40.3487 28.2502L41.6311 26.7155C41.6172 26.7039 41.6032 26.6925 41.5891 26.6813L40.3487 28.2502ZM40.5128 29.1788L38.7797 28.1806L38.7778 28.184L40.5128 29.1788ZM37.6475 34.1761L39.3713 35.1902C39.3751 35.1838 39.3788 35.1773 39.3825 35.1709L37.6475 34.1761ZM36.7672 34.486L36.015 36.3392C36.0271 36.3441 36.0392 36.3489 36.0514 36.3535L36.7672 34.486ZM33.7592 33.2651L34.5115 31.4119L34.5042 31.409L33.7592 33.2651ZM32.743 33.3832L33.8834 35.0262L33.8926 35.0198L32.743 33.3832ZM31.2999 34.2301L30.4219 32.4331L30.42 32.4341L31.2999 34.2301ZM30.709 35.0499L32.6899 35.3261L32.6903 35.3233L30.709 35.0499ZM30.2582 38.284L32.2288 38.6256C32.2326 38.6038 32.236 38.582 32.239 38.5601L30.2582 38.284ZM29.5427 38.9032V40.9032C29.5569 40.9032 29.5712 40.9031 29.5854 40.9028L29.5427 38.9032ZM23.8121 38.9032L23.7773 40.9029C23.7889 40.9031 23.8005 40.9032 23.8121 40.9032V38.9032ZM23.096 38.3042L21.1151 38.5804C21.1209 38.6218 21.128 38.6631 21.1364 38.7041L23.096 38.3042ZM22.6458 35.0749L24.6266 34.7988L24.6257 34.7921L22.6458 35.0749ZM22.0428 34.2497L21.1678 36.0481L21.1778 36.0529L22.0428 34.2497ZM20.6052 33.4008L21.7571 31.7659L21.7536 31.7634L20.6052 33.4008ZM19.5929 33.2853L18.8413 31.4319L18.8409 31.4321L19.5929 33.2853ZM16.5856 34.5056L17.3023 36.3728C17.3141 36.3682 17.3259 36.3636 17.3376 36.3589L16.5856 34.5056ZM15.7053 34.1963L13.9703 35.1911C13.9743 35.1981 13.9783 35.2051 13.9824 35.212L15.7053 34.1963ZM12.84 29.199L14.5751 28.2042L14.5724 28.1995L12.84 29.199ZM13.0042 28.2705L11.763 26.7022C11.7495 26.7129 11.7362 26.7237 11.723 26.7347L13.0042 28.2705ZM15.564 26.2446L16.8052 27.8128L16.8135 27.8062L15.564 26.2446ZM15.9659 25.2937L13.9732 25.4644C13.9737 25.4697 13.9741 25.475 13.9746 25.4803L15.9659 25.2937ZM15.9659 23.6156L17.9579 23.7948L17.9589 23.7829L15.9659 23.6156ZM15.5593 22.6742L14.3177 24.2421L14.319 24.2432L15.5593 22.6742ZM13.0008 20.6483L11.7034 22.1704C11.7217 22.186 11.7403 22.2013 11.7592 22.2162L13.0008 20.6483ZM12.842 19.7244L14.5754 20.7222L14.5771 20.7193L12.842 19.7244ZM15.7073 14.7272L13.9835 13.713C13.9797 13.7194 13.976 13.7259 13.9723 13.7323L15.7073 14.7272ZM16.5876 14.4172L17.3398 12.564C17.3277 12.5591 17.3156 12.5544 17.3034 12.5497L16.5876 14.4172ZM19.5956 15.6382L18.8434 17.4913L18.8506 17.4942L19.5956 15.6382ZM20.6119 15.52L19.4714 13.877L19.4622 13.8834L20.6119 15.52ZM22.0549 14.6731L22.933 16.4701L22.9348 16.4692L22.0549 14.6731ZM22.6458 13.8533L20.6649 13.5772L20.6646 13.5799L22.6458 13.8533ZM23.0966 10.6193L21.126 10.2776C21.1223 10.2994 21.1189 10.3212 21.1158 10.3431L23.0966 10.6193ZM23.8121 10V8C23.7979 8 23.7837 8.00015 23.7694 8.00046L23.8121 10ZM29.5427 10L29.5776 8.0003C29.566 8.0001 29.5543 8 29.5427 8L29.5427 10ZM30.2589 10.599L32.2397 10.3229C32.2339 10.2814 32.2268 10.2401 32.2185 10.1991L30.2589 10.599ZM30.709 13.8283L28.7282 14.1045L28.7291 14.1112L30.709 13.8283ZM31.312 14.6536L32.1871 12.8551L32.1771 12.8503L31.312 14.6536ZM32.7497 15.5024L31.5977 17.1374L31.6012 17.1398L32.7497 15.5024ZM33.7619 15.6179L34.5136 17.4713L34.5139 17.4711L33.7619 15.6179ZM36.7692 14.3976L36.0525 12.5305C36.0407 12.535 36.0289 12.5396 36.0172 12.5444L36.7692 14.3976ZM37.6495 14.7069L39.3846 13.7121C39.3806 13.7051 39.3765 13.6982 39.3724 13.6912L37.6495 14.7069ZM40.5148 19.7042L38.7798 20.699L38.7825 20.7037L40.5148 19.7042ZM40.3507 20.6327L41.5919 22.201C41.6053 22.1903 41.6187 22.1795 41.6319 22.1685L40.3507 20.6327ZM37.7909 22.6587L36.5497 21.0904L36.5471 21.0925L37.7909 22.6587ZM37.3856 23.6095L39.3793 23.4518C39.3787 23.4437 39.378 23.4356 39.3773 23.4275L37.3856 23.6095ZM57.1278 34.5632L57.8848 32.712L57.8817 32.7107L57.1278 34.5632ZM53.88 41.8112L52.9915 43.603L53.88 41.8112ZM59.5092 38.9836L61.4734 39.3605L61.474 39.3572L59.5092 38.9836ZM65.1117 41.046L67.0265 41.6238L67.0298 41.6126L65.1117 41.046ZM64.6556 42.2574L62.8353 41.4288C62.5409 42.0756 62.6118 42.83 63.0215 43.4106L64.6556 42.2574ZM66.7028 45.1584L68.3674 44.0498C68.3574 44.0348 68.3472 44.0199 68.3368 44.0052L66.7028 45.1584ZM66.6056 46.02L65.2263 44.5717L65.2235 44.5744L66.6056 46.02ZM62.7767 49.6807L64.1426 51.1417C64.148 51.1366 64.1535 51.1314 64.1588 51.1263L62.7767 49.6807ZM61.9197 49.7247L60.6732 51.2888C60.6834 51.2969 60.6937 51.305 60.7041 51.3129L61.9197 49.7247ZM59.585 47.8643L60.8314 46.3001L60.8253 46.2953L59.585 47.8643ZM58.6579 47.7037L59.2862 49.6025L59.2968 49.5989L58.6579 47.7037ZM57.1647 48.0746L56.8317 46.1025L56.8296 46.1028L57.1647 48.0746ZM56.43 48.6437L58.2514 49.4697L58.2526 49.4672L56.43 48.6437ZM55.1898 51.3783L56.9829 52.2643C56.9927 52.2445 57.0021 52.2245 57.0113 52.2044L55.1898 51.3783ZM54.3975 51.7381L53.8309 53.6561C53.8445 53.6601 53.8582 53.664 53.8719 53.6678L54.3975 51.7381ZM49.3436 50.2451L48.7437 52.153C48.7547 52.1564 48.7659 52.1598 48.777 52.1631L49.3436 50.2451ZM48.8681 49.5302L46.8902 49.2339C46.884 49.2753 46.8791 49.3168 46.8755 49.3585L48.8681 49.5302ZM49.3124 46.565L51.2904 46.8613L51.2913 46.8547L49.3124 46.565ZM48.9957 45.6801L47.6469 47.1569L47.6552 47.1644L48.9957 45.6801ZM47.9489 44.5569L49.5169 43.3153L49.5142 43.312L47.9489 44.5569ZM47.0863 44.1914L46.8906 42.201L46.8902 42.201L47.0863 44.1914ZM44.1162 44.4841L44.2746 46.4778C44.2872 46.4768 44.2998 46.4757 44.3124 46.4744L44.1162 44.4841ZM43.4205 43.982L41.4747 44.4445C41.4765 44.4523 41.4784 44.4601 41.4804 44.4679L43.4205 43.982ZM42.1955 38.8283L44.1413 38.3658L44.14 38.3605L42.1955 38.8283ZM42.5821 38.0522L41.8361 36.1965C41.8202 36.2029 41.8043 36.2096 41.7885 36.2164L42.5821 38.0522ZM45.3675 36.9324L46.1135 38.7881L46.1234 38.784L45.3675 36.9324ZM45.9697 36.1986L44.0103 35.7977C44.0092 35.8029 44.0082 35.8081 44.0071 35.8134L45.9697 36.1986ZM46.4069 34.7186L48.2665 35.4548L48.2708 35.4437L46.4069 34.7186ZM46.2935 33.7824L44.6586 34.9344L44.6596 34.9358L46.2935 33.7824ZM44.565 31.3292L42.8895 32.4214C42.9027 32.4415 42.9162 32.4615 42.9301 32.4812L44.565 31.3292ZM44.6657 30.4731L46.0453 31.9211L46.0478 31.9187L44.6657 30.4731ZM48.4945 26.8125L47.1287 25.3515C47.1232 25.3566 47.1178 25.3617 47.1124 25.3669L48.4945 26.8125ZM49.3516 26.7684L50.598 25.2043C50.5878 25.1962 50.5775 25.1882 50.5672 25.1803L49.3516 26.7684ZM51.6863 28.6289L50.4399 30.193L50.446 30.1979L51.6863 28.6289ZM52.6133 28.7894L51.9851 26.8906L51.9745 26.8942L52.6133 28.7894ZM54.1066 28.4185L54.4396 30.3906L54.4416 30.3903L54.1066 28.4185ZM54.8413 27.8495L53.0198 27.0234L53.0187 27.026L54.8413 27.8495ZM56.0815 25.1148L54.2884 24.2289C54.2786 24.2487 54.2691 24.2686 54.26 24.2888L56.0815 25.1148ZM56.8738 24.7551L57.4404 22.837C57.4268 22.833 57.4131 22.8291 57.3993 22.8254L56.8738 24.7551ZM61.9276 26.2481L62.5276 24.3402C62.5165 24.3367 62.5054 24.3333 62.4942 24.33L61.9276 26.2481ZM62.4031 26.9629L64.3811 27.2593C64.3873 27.2179 64.3922 27.1763 64.3958 27.1346L62.4031 26.9629ZM61.9588 29.9282L59.9809 29.6318L59.9799 29.6385L61.9588 29.9282ZM62.2756 30.813L63.6243 29.3362L63.6161 29.3288L62.2756 30.813ZM63.3223 31.9362L61.7544 33.1778L61.7571 33.1812L63.3223 31.9362ZM64.185 32.3018L64.3807 34.2922L64.3811 34.2921L64.185 32.3018ZM67.1551 32.0091L66.9967 30.0154C66.9841 30.0164 66.9715 30.0175 66.9589 30.0187L67.1551 32.0091ZM67.8508 32.5112L69.7966 32.0487C69.7947 32.0409 69.7928 32.033 69.7909 32.0252L67.8508 32.5112ZM69.0758 37.6648L67.13 38.1273L67.1313 38.1326L69.0758 37.6648ZM69.0235 38.1237L67.2334 37.2318L69.0235 38.1237ZM68.6891 38.441L69.4352 40.2966C69.4511 40.2902 69.467 40.2836 69.4827 40.2768L68.6891 38.441ZM65.9038 39.5607L65.1578 37.7051L65.1547 37.7063L65.9038 39.5607ZM65.2986 40.2937L67.2554 40.7074C67.2571 40.6994 67.2587 40.6914 67.2603 40.6834L65.2986 40.2937ZM14.5254 65.3793C13.837 66.2432 13.9793 67.5015 14.8431 68.1899C15.7069 68.8783 16.9652 68.7361 17.6536 67.8723L14.5254 65.3793ZM25.1447 58.4723C25.8331 57.6084 25.6909 56.3501 24.8271 55.6617C23.9633 54.9733 22.705 55.1155 22.0166 55.9793L25.1447 58.4723ZM60.12 62.6701C59.3688 63.4799 59.4162 64.7454 60.226 65.4966C61.0358 66.2478 62.3012 66.2004 63.0525 65.3906L60.12 62.6701ZM75.111 52.3926C75.8623 51.5828 75.8148 50.3174 75.005 49.5661C74.1953 48.8149 72.9298 48.8624 72.1786 49.6721L75.111 52.3926ZM49.4628 67.384C50.3684 68.0163 51.6152 67.7948 52.2476 66.8892C52.88 65.9836 52.6585 64.7368 51.7529 64.1044L49.4628 67.384ZM36.5966 53.5211C35.691 52.8888 34.4442 53.1103 33.8118 54.0159C33.1794 54.9215 33.4009 56.1683 34.3066 56.8007L36.5966 53.5211ZM27.2969 18.1604C26.0032 18.0316 24.7025 18.3093 23.5734 18.9537L25.5563 22.4277C25.9656 22.194 26.435 22.0944 26.9007 22.1407L27.2969 18.1604ZM23.5734 18.9537C22.4445 19.5981 21.5435 20.5768 20.9913 21.7534L24.6122 23.453C24.8161 23.0187 25.1467 22.6614 25.5563 22.4277L23.5734 18.9537ZM20.9913 21.7534C20.4391 22.9299 20.2615 24.2485 20.4819 25.5294L24.424 24.8511C24.3422 24.376 24.4083 23.8874 24.6122 23.453L20.9913 21.7534ZM20.4819 25.5294C20.7023 26.8103 21.3104 27.9936 22.2258 28.9163L25.0655 26.0992C24.7307 25.7617 24.5057 25.3261 24.424 24.8511L20.4819 25.5294ZM22.2258 28.9163C23.1414 29.8392 24.3196 30.4562 25.6002 30.6801L26.2891 26.7399C25.8278 26.6592 25.4001 26.4364 25.0655 26.0992L22.2258 28.9163ZM25.6002 30.6801C26.8809 30.9041 28.1986 30.7233 29.372 30.1636L27.6501 26.5532C27.2255 26.7557 26.7504 26.8206 26.2891 26.7399L25.6002 30.6801ZM29.372 30.1636C30.5453 29.604 31.5155 28.694 32.1521 27.5606L28.6646 25.6017C28.4301 26.0192 28.075 26.3506 27.6501 26.5532L29.372 30.1636ZM32.1521 27.5606C32.7886 26.4275 33.0614 25.1253 32.9347 23.8318L28.9537 24.2219C29.0008 24.7019 28.8993 25.184 28.6646 25.6017L32.1521 27.5606ZM32.9343 23.8285C32.79 22.3795 32.1528 21.0226 31.1272 19.9888L28.2875 22.8059C28.6636 23.185 28.9003 23.686 28.9541 24.2251L32.9343 23.8285ZM31.1272 19.9888C30.1013 18.9546 28.7496 18.3075 27.3003 18.1607L26.8973 22.1404C27.4203 22.1933 27.9118 22.4271 28.2875 22.8059L31.1272 19.9888ZM35.4224 24.44C35.4202 24.8203 35.3925 25.2001 35.3395 25.5766L39.3004 26.1345C39.3784 25.5808 39.4191 25.0225 39.4224 24.4633L35.4224 24.44ZM36.0795 27.4245L39.1082 29.8191L41.5891 26.6813L38.5603 24.2867L36.0795 27.4245ZM39.0663 29.785C38.8347 29.5915 38.6816 29.3242 38.63 29.0323L42.5689 28.3361C42.4572 27.7042 42.1264 27.1294 41.6311 26.7155L39.0663 29.785ZM38.63 29.0323C38.5784 28.7407 38.6308 28.4392 38.7797 28.1806L42.2459 30.1769C42.5668 29.6197 42.6806 28.9677 42.5689 28.3361L38.63 29.0323ZM38.7778 28.184L35.9125 33.1812L39.3825 35.1709L42.2478 30.1736L38.7778 28.184ZM35.9237 33.1619C36.0746 32.9054 36.3127 32.7073 36.5992 32.6064L37.9277 36.3793C38.5362 36.1651 39.0464 35.7425 39.3713 35.1902L35.9237 33.1619ZM36.5992 32.6064C36.8859 32.5054 37.1993 32.5098 37.4831 32.6185L36.0514 36.3535C36.654 36.5845 37.3189 36.5937 37.9277 36.3793L36.5992 32.6064ZM37.5194 32.6329L34.5114 31.4119L33.007 35.1182L36.015 36.3392L37.5194 32.6329ZM34.5042 31.409C34.0293 31.2184 33.5142 31.1493 33.0053 31.2085L33.4673 35.1817C33.3132 35.1996 33.1574 35.1786 33.0143 35.1212L34.5042 31.409ZM33.0053 31.2085C32.4965 31.2676 32.0114 31.453 31.5933 31.7467L33.8926 35.0198C33.7675 35.1077 33.6214 35.1638 33.4673 35.1817L33.0053 31.2085ZM31.6025 31.7403C31.2268 32.0011 30.8321 32.2327 30.4219 32.4331L32.178 36.027C32.7709 35.7373 33.341 35.4027 33.8834 35.0262L31.6025 31.7403ZM30.42 32.4341C29.9659 32.6565 29.5748 32.9875 29.2803 33.3961L32.5253 35.7349C32.4369 35.8576 32.3186 35.9581 32.1799 36.0261L30.42 32.4341ZM29.2803 33.3961C28.9858 33.8047 28.7965 34.2788 28.7278 34.7765L32.6903 35.3233C32.6699 35.4709 32.6137 35.6123 32.5253 35.7349L29.2803 33.3961ZM28.7282 34.7738L28.2773 38.0078L32.239 38.5601L32.6899 35.3261L28.7282 34.7738ZM28.2876 37.9423C28.3365 37.6604 28.4814 37.4012 28.7017 37.2106L31.3194 40.2351C31.8006 39.8186 32.1207 39.2491 32.2288 38.6256L28.2876 37.9423ZM28.7017 37.2106C28.9222 37.0197 29.2043 36.91 29.5 36.9037L29.5854 40.9028C30.2251 40.8891 30.8378 40.6519 31.3194 40.2351L28.7017 37.2106ZM29.5427 36.9032H23.8121V40.9032H29.5427V36.9032ZM23.847 36.9035C24.1366 36.9086 24.4137 37.013 24.6329 37.1963L22.0666 40.2646C22.5462 40.6657 23.1494 40.892 23.7773 40.9029L23.847 36.9035ZM24.6329 37.1963C24.8518 37.3794 24.9996 37.6298 25.0556 37.9044L21.1364 38.7041C21.2605 39.3127 21.5873 39.8637 22.0666 40.2646L24.6329 37.1963ZM25.0768 38.0281L24.6266 34.7988L20.6649 35.351L21.1151 38.5804L25.0768 38.0281ZM24.6257 34.7921C24.5542 34.2916 24.361 33.8154 24.0619 33.4061L20.8322 35.7659C20.7435 35.6445 20.6868 35.5042 20.6659 35.3577L24.6257 34.7921ZM24.0619 33.4061C23.7628 32.9967 23.3668 32.6666 22.9079 32.4464L21.1778 36.0529C21.0392 35.9864 20.9209 35.8874 20.8322 35.7659L24.0619 33.4061ZM22.9179 32.4513C22.5136 32.2545 22.1254 32.0253 21.7571 31.7659L19.4532 35.0358C19.9968 35.4188 20.5702 35.7573 21.1678 36.0481L22.9179 32.4513ZM21.7536 31.7634C21.3351 31.4699 20.8494 31.2851 20.3402 31.227L19.8868 35.2012C19.7311 35.1834 19.5833 35.127 19.4568 35.0382L21.7536 31.7634ZM20.3402 31.227C19.831 31.1689 19.3158 31.2395 18.8413 31.4319L20.3446 35.1387C20.2 35.1973 20.0426 35.219 19.8868 35.2012L20.3402 31.227ZM18.8409 31.4321L15.8336 32.6524L17.3376 36.3589L20.3449 35.1386L18.8409 31.4321ZM15.8689 32.6385C16.1525 32.5296 16.4658 32.5251 16.7525 32.6258L15.4266 36.3996C16.0353 36.6135 16.7 36.604 17.3023 36.3728L15.8689 32.6385ZM16.7525 32.6258C17.0389 32.7264 17.2771 32.9244 17.4282 33.1806L13.9824 35.212C14.3077 35.7638 14.8181 36.1859 15.4266 36.3996L16.7525 32.6258ZM17.4403 33.2015L14.5751 28.2042L11.105 30.1938L13.9703 35.1911L17.4403 33.2015ZM14.5724 28.1995C14.7217 28.4584 14.7743 28.7604 14.7226 29.0525L10.7837 28.3563C10.6719 28.9886 10.7861 29.6411 11.1077 30.1985L14.5724 28.1995ZM14.7226 29.0525C14.671 29.3449 14.5175 29.6126 14.2854 29.8062L11.723 26.7347C11.2268 27.1486 10.8955 27.7239 10.7837 28.3563L14.7226 29.0525ZM14.2453 29.8388L16.8051 27.8128L14.3228 24.6763L11.763 26.7022L14.2453 29.8388ZM16.8135 27.8062C17.2143 27.4855 17.5277 27.0703 17.7268 26.5993L14.0425 25.0418C14.1012 24.9029 14.1941 24.7792 14.3144 24.683L16.8135 27.8062ZM17.7268 26.5993C17.9259 26.1284 18.0048 25.6156 17.9572 25.1071L13.9746 25.4803C13.9607 25.3312 13.9838 25.1806 14.0425 25.0418L17.7268 26.5993ZM17.9586 25.1231C17.9382 24.8845 17.9271 24.6619 17.9271 24.4496H13.9271C13.9271 24.8004 13.9454 25.1397 13.9732 25.4644L17.9586 25.1231ZM17.9271 24.4496C17.9271 24.2349 17.9378 24.0182 17.9579 23.7948L13.974 23.4364C13.9445 23.764 13.9271 24.1011 13.9271 24.4496H17.9271ZM17.9589 23.7829C18.0014 23.2766 17.9184 22.7671 17.7166 22.3L14.0446 23.8862C13.9848 23.7478 13.9604 23.5974 13.9729 23.4482L17.9589 23.7829ZM17.7166 22.3C17.5148 21.8328 17.2002 21.4219 16.7995 21.1052L14.319 24.2432C14.1982 24.1477 14.1044 24.0247 14.0446 23.8862L17.7166 22.3ZM16.8009 21.1063L14.2424 19.0803L11.7592 22.2162L14.3177 24.2421L16.8009 21.1063ZM14.2982 19.1262C14.5261 19.3205 14.6761 19.5867 14.726 19.8767L10.7837 20.5542C10.8916 21.182 11.2158 21.7547 11.7034 22.1704L14.2982 19.1262ZM14.726 19.8767C14.7758 20.1665 14.7231 20.4656 14.5754 20.7222L11.1087 18.7267C10.7902 19.2799 10.6759 19.9266 10.7837 20.5542L14.726 19.8767ZM14.5771 20.7193L17.4424 15.722L13.9723 13.7323L11.107 18.7296L14.5771 20.7193ZM17.4311 15.7413C17.2802 15.9978 17.0421 16.196 16.7557 16.2968L15.4271 12.5239C14.8186 12.7382 14.3084 13.1607 13.9835 13.713L17.4311 15.7413ZM16.7557 16.2968C16.4689 16.3978 16.1555 16.3934 15.8718 16.2847L17.3034 12.5497C16.7009 12.3187 16.036 12.3095 15.4271 12.5239L16.7557 16.2968ZM15.8354 16.2704L18.8434 17.4913L20.3478 13.785L17.3398 12.564L15.8354 16.2704ZM18.8506 17.4942C19.3256 17.6849 19.8407 17.7539 20.3495 17.6948L19.8875 13.7215C20.0416 13.7036 20.1974 13.7246 20.3405 13.7821L18.8506 17.4942ZM20.3495 17.6948C20.8583 17.6356 21.3434 17.4502 21.7615 17.1565L19.4622 13.8834C19.5874 13.7955 19.7334 13.7395 19.8875 13.7215L20.3495 17.6948ZM21.7523 17.1629C22.1281 16.9021 22.5227 16.6705 22.933 16.4701L21.1769 12.8762C20.5839 13.1659 20.0138 13.5005 19.4714 13.877L21.7523 17.1629ZM22.9348 16.4692C23.389 16.2467 23.78 15.9158 24.0745 15.5071L20.8295 13.1683C20.918 13.0456 21.0362 12.9451 21.175 12.8771L22.9348 16.4692ZM24.0745 15.5071C24.369 15.0985 24.5583 14.6244 24.627 14.1267L20.6646 13.5799C20.6849 13.4323 20.7411 13.2909 20.8295 13.1683L24.0745 15.5071ZM24.6266 14.1295L25.0775 10.8954L21.1158 10.3431L20.6649 13.5772L24.6266 14.1295ZM25.0672 10.9609C25.0184 11.2428 24.8734 11.502 24.6532 11.6926L22.0354 8.66814C21.5542 9.08465 21.2341 9.65411 21.126 10.2776L25.0672 10.9609ZM24.6532 11.6926C24.4326 11.8835 24.1505 11.9932 23.8548 11.9995L23.7694 8.00046C23.1298 8.01411 22.517 8.25133 22.0354 8.66814L24.6532 11.6926ZM23.8121 12H29.5427V8H23.8121V12ZM29.5078 11.9997C29.2182 11.9946 28.9412 11.8902 28.7219 11.7069L31.2883 8.63865C30.8087 8.23753 30.2054 8.01125 29.5776 8.0003L29.5078 11.9997ZM28.7219 11.7069C28.5031 11.5238 28.3553 11.2735 28.2992 10.9989L32.2185 10.1991C32.0943 9.59047 31.7675 9.0395 31.2883 8.63865L28.7219 11.7069ZM28.278 10.8751L28.7282 14.1045L32.6899 13.5522L32.2397 10.3229L28.278 10.8751ZM28.7291 14.1112C28.8006 14.6117 28.9939 15.0878 29.2929 15.4971L32.5227 13.1373C32.6113 13.2587 32.668 13.3989 32.6889 13.5455L28.7291 14.1112ZM29.2929 15.4971C29.592 15.9065 29.988 16.2366 30.4469 16.4568L32.1771 12.8503C32.3156 12.9168 32.4339 13.0159 32.5227 13.1373L29.2929 15.4971ZM30.4369 16.452C30.8413 16.6487 31.2294 16.8779 31.5977 17.1374L33.9016 13.8675C33.358 13.4845 32.7847 13.1459 32.187 12.8551L30.4369 16.452ZM31.6012 17.1398C32.0197 17.4334 32.5054 17.6181 33.0146 17.6762L33.468 13.702C33.6238 13.7198 33.7715 13.7763 33.8981 13.865L31.6012 17.1398ZM33.0146 17.6762C33.5238 17.7343 34.0391 17.6637 34.5136 17.4713L33.0103 13.7645C33.1548 13.7059 33.3122 13.6842 33.468 13.702L33.0146 17.6762ZM34.5139 17.4711L37.5212 16.2509L36.0172 12.5444L33.0099 13.7647L34.5139 17.4711ZM37.486 16.2648C37.2024 16.3736 36.8891 16.3782 36.6023 16.2774L37.9283 12.5036C37.3195 12.2897 36.6548 12.2993 36.0525 12.5305L37.486 16.2648ZM36.6023 16.2774C36.3159 16.1768 36.0777 15.9789 35.9266 15.7226L39.3724 13.6912C39.0471 13.1394 38.5368 12.7174 37.9283 12.5036L36.6023 16.2774ZM35.9145 15.7017L38.7798 20.699L42.2498 18.7094L39.3846 13.7121L35.9145 15.7017ZM38.7825 20.7037C38.6331 20.4449 38.5806 20.1429 38.6322 19.8507L42.5712 20.5469C42.6829 19.9146 42.5688 19.2621 42.2471 18.7047L38.7825 20.7037ZM38.6322 19.8507C38.6839 19.5583 38.8374 19.2906 39.0695 19.097L41.6319 22.1685C42.128 21.7546 42.4594 21.1794 42.5712 20.5469L38.6322 19.8507ZM39.1095 19.0645L36.5497 21.0904L39.0321 24.2269L41.5919 22.201L39.1095 19.0645ZM36.5471 21.0925C36.1446 21.4121 35.8294 21.8268 35.6285 22.2979L39.3082 23.8664C39.249 24.0054 39.1555 24.1289 39.0347 24.2249L36.5471 21.0925ZM35.6285 22.2979C35.4278 22.7689 35.3473 23.2822 35.3939 23.7915L39.3773 23.4275C39.3909 23.5768 39.3674 23.7276 39.3082 23.8664L35.6285 22.2979ZM35.3918 23.7672C35.4112 24.0128 35.4224 24.2384 35.4224 24.4516H39.4224C39.4224 24.1016 39.4041 23.7653 39.3793 23.4518L35.3918 23.7672ZM57.8817 32.7107C56.7433 32.2475 55.4898 32.1509 54.2937 32.4327L55.2111 36.3261C55.6005 36.2343 56.0063 36.2661 56.374 36.4157L57.8817 32.7107ZM54.2937 32.4327C53.0978 32.7145 52.0192 33.3603 51.2037 34.2788L54.1948 36.9346C54.4658 36.6294 54.8214 36.4179 55.2111 36.3261L54.2937 32.4327ZM51.2037 34.2788C50.3883 35.1972 49.8744 36.3445 49.7312 37.5642L53.704 38.0305C53.7518 37.6229 53.9236 37.24 54.1948 36.9346L51.2037 34.2788ZM49.7312 37.5642C49.5881 38.7839 49.8224 40.0191 50.4049 41.1005L53.9264 39.2033C53.7348 38.8477 53.6561 38.4381 53.704 38.0305L49.7312 37.5642ZM50.4049 41.1005C50.9877 42.1821 51.8905 43.0571 52.9915 43.603L54.7685 40.0194C54.4126 39.8429 54.1179 39.5587 53.9264 39.2033L50.4049 41.1005ZM52.9915 43.603C54.0926 44.149 55.3355 44.338 56.5492 44.1449L55.9207 40.1946C55.5264 40.2573 55.1243 40.1958 54.7685 40.0194L52.9915 43.603ZM56.5492 44.1449C57.7626 43.9518 58.8856 43.3867 59.766 42.53L56.9764 39.6633C56.6845 39.9473 56.3152 40.1318 55.9207 40.1946L56.5492 44.1449ZM59.766 42.53C60.6462 41.6735 61.242 40.5665 61.4734 39.3605L57.545 38.6067C57.4676 39.01 57.2685 39.3791 56.9764 39.6633L59.766 42.53ZM61.474 39.3572C61.7311 38.0056 61.517 36.6054 60.8642 35.3938L57.3428 37.2909C57.5581 37.6906 57.6306 38.1566 57.5444 38.6099L61.474 39.3572ZM60.8642 35.3938C60.2113 34.1818 59.1594 33.2332 57.8848 32.712L56.3709 36.4144C56.7836 36.5832 57.1277 36.8917 57.3428 37.2909L60.8642 35.3938ZM63.197 40.4682C63.098 40.7961 62.9772 41.1171 62.8353 41.4288L66.4758 43.086C66.6918 42.6115 66.8758 42.123 67.0265 41.6238L63.197 40.4682ZM63.0215 43.4106L65.0687 46.3115L68.3368 44.0052L66.2896 41.1042L63.0215 43.4106ZM65.0381 46.2669C64.8631 46.0042 64.7887 45.6906 64.8235 45.3823L68.7983 45.8305C68.8686 45.2067 68.7176 44.5756 68.3674 44.0498L65.0381 46.2669ZM64.8235 45.3823C64.8582 45.0742 65.0002 44.7871 65.2263 44.5717L67.9849 47.4683C68.4406 47.0344 68.728 46.4541 68.7983 45.8305L64.8235 45.3823ZM65.2235 44.5744L61.3946 48.2351L64.1588 51.1263L67.9877 47.4656L65.2235 44.5744ZM61.4109 48.2197C61.6383 48.0071 61.9359 47.8789 62.2529 47.8626L62.4581 51.8574C63.0887 51.825 63.6846 51.5698 64.1426 51.1417L61.4109 48.2197ZM62.2529 47.8626C62.5702 47.8463 62.8831 47.9435 63.1352 48.1365L60.7041 51.3129C61.2056 51.6968 61.8272 51.8898 62.4581 51.8574L62.2529 47.8626ZM63.1661 48.1606L60.8314 46.3001L58.3386 49.4284L60.6732 51.2888L63.1661 48.1606ZM60.8253 46.2953C60.4351 45.9869 59.974 45.7806 59.4833 45.6956L58.8008 49.6369C58.6337 49.608 58.477 49.5378 58.3447 49.4332L60.8253 46.2953ZM59.4833 45.6956C58.9928 45.6107 58.4896 45.6499 58.0191 45.8085L59.2968 49.5989C59.1383 49.6524 58.9678 49.6659 58.8008 49.6369L59.4833 45.6956ZM58.0297 45.8049C57.6381 45.9345 57.2376 46.034 56.8317 46.1025L57.4977 50.0467C58.1041 49.9443 58.702 49.7958 59.2862 49.6025L58.0297 45.8049ZM56.8296 46.1028C56.345 46.1852 55.8894 46.386 55.5023 46.6858L57.9518 49.8481C57.821 49.9494 57.666 50.0181 57.4997 50.0463L56.8296 46.1028ZM55.5023 46.6858C55.1154 46.9855 54.8084 47.3753 54.6074 47.8201L58.2526 49.4672C58.1854 49.6159 58.0825 49.7469 57.9518 49.8481L55.5023 46.6858ZM54.6086 47.8176L53.3684 50.5523L57.0113 52.2044L58.2514 49.4697L54.6086 47.8176ZM53.3967 50.4924C53.5297 50.2234 53.7524 50.0059 54.0303 49.8798L55.6839 53.522C56.2508 53.2646 56.7087 52.8191 56.9829 52.2643L53.3967 50.4924ZM54.0303 49.8798C54.3085 49.7534 54.6243 49.727 54.923 49.8083L53.8719 53.6678C54.4759 53.8323 55.1166 53.7795 55.6839 53.522L54.0303 49.8798ZM54.9641 49.82L49.9103 48.327L48.777 52.1631L53.8309 53.6561L54.9641 49.82ZM49.9436 48.3372C50.2328 48.4281 50.4802 48.6152 50.6461 48.8645L47.3156 51.08C47.6544 51.5892 48.1577 51.9687 48.7437 52.153L49.9436 48.3372ZM50.6461 48.8645C50.8117 49.1135 50.886 49.409 50.8607 49.7019L46.8755 49.3585C46.8233 49.9638 46.9772 50.5711 47.3156 51.08L50.6461 48.8645ZM50.846 49.8266L51.2903 46.8613L47.3345 46.2686L46.8902 49.2339L50.846 49.8266ZM51.2913 46.8547C51.3625 46.3686 51.3135 45.8718 51.1475 45.408L47.3815 46.7561C47.326 46.6011 47.31 46.436 47.3335 46.2753L51.2913 46.8547ZM51.1475 45.408C50.9815 44.9442 50.7033 44.5274 50.3362 44.1959L47.6552 47.1644C47.5305 47.0518 47.437 46.9112 47.3815 46.7561L51.1475 45.408ZM50.3444 44.2033C50.0455 43.9303 49.7687 43.6334 49.5169 43.3153L46.381 45.7985C46.766 46.2847 47.1893 46.739 47.647 47.1569L50.3444 44.2033ZM49.5142 43.312C49.2049 42.9231 48.8031 42.6171 48.3444 42.4227L46.7836 46.1057C46.6261 46.0389 46.4888 45.9341 46.3837 45.8019L49.5142 43.312ZM48.3444 42.4227C47.8856 42.2283 47.3859 42.1523 46.8906 42.201L47.2821 46.1818C47.1126 46.1984 46.9412 46.1724 46.7836 46.1057L48.3444 42.4227ZM46.8902 42.201L43.9201 42.4937L44.3124 46.4744L47.2824 46.1817L46.8902 42.201ZM43.9578 42.4903C44.2744 42.4652 44.5898 42.5535 44.8473 42.7393L42.5065 45.9829C43.0185 46.3524 43.6451 46.5278 44.2746 46.4778L43.9578 42.4903ZM44.8473 42.7393C45.1046 42.925 45.2849 43.194 45.3605 43.496L41.4804 44.4679C41.6327 45.0759 41.9946 45.6135 42.5065 45.9829L44.8473 42.7393ZM45.3663 43.5195L44.1413 38.3658L40.2497 39.2908L41.4747 44.4445L45.3663 43.5195ZM44.14 38.3605C44.2131 38.6646 44.1764 38.9833 44.0379 39.2613L40.4576 37.4776C40.1775 38.0399 40.1037 38.6838 40.251 39.2961L44.14 38.3605ZM44.0379 39.2613C43.8993 39.5395 43.6659 39.7625 43.3757 39.888L41.7885 36.2164C41.2082 36.4673 40.7378 36.9152 40.4576 37.4776L44.0379 39.2613ZM43.3282 39.9078L46.1135 38.7881L44.6214 35.0767L41.8361 36.1965L43.3282 39.9078ZM46.1234 38.784C46.5852 38.5955 46.9916 38.2948 47.3068 37.9108L44.2147 35.3732C44.3195 35.2455 44.4555 35.1444 44.6115 35.0808L46.1234 38.784ZM47.3068 37.9108C47.6219 37.5267 47.8367 37.0707 47.9322 36.5838L44.0071 35.8134C44.0388 35.6522 44.1099 35.501 44.2147 35.3732L47.3068 37.9108ZM47.9291 36.5995C47.9725 36.3871 48.0196 36.1925 48.0734 36.0106L44.2373 34.8774C44.1443 35.1921 44.071 35.5007 44.0103 35.7977L47.9291 36.5995ZM48.0734 36.0106C48.1278 35.8265 48.1921 35.6427 48.2665 35.4548L44.5473 33.9824C44.4344 34.2675 44.3296 34.5648 44.2373 34.8774L48.0734 36.0106ZM48.2708 35.4437C48.4498 34.9836 48.5127 34.486 48.4533 33.9951L44.4823 34.476C44.4624 34.3121 44.4835 34.1464 44.543 33.9935L48.2708 35.4437ZM48.4533 33.9951C48.3938 33.5043 48.2137 33.0346 47.9275 32.6291L44.6596 34.9358C44.5625 34.7982 44.5021 34.6401 44.4823 34.476L48.4533 33.9951ZM47.9284 32.6305L46.1999 30.1773L42.9301 32.4812L44.6586 34.9344L47.9284 32.6305ZM46.2405 30.237C46.4115 30.4994 46.4831 30.8111 46.4472 31.117L42.4745 30.6499C42.4018 31.2688 42.5471 31.8961 42.8895 32.4214L46.2405 30.237ZM46.4472 31.117C46.4112 31.4227 46.2697 31.7073 46.0453 31.9211L43.286 29.0251C42.8338 29.456 42.5473 30.0311 42.4745 30.6499L46.4472 31.117ZM46.0478 31.9187L49.8766 28.2581L47.1124 25.3669L43.2836 29.0275L46.0478 31.9187ZM49.8604 28.2734C49.6329 28.4861 49.3354 28.6142 49.0184 28.6305L48.8132 24.6358C48.1826 24.6682 47.5867 24.9233 47.1287 25.3515L49.8604 28.2734ZM49.0184 28.6305C48.7011 28.6468 48.3882 28.5496 48.136 28.3566L50.5672 25.1803C50.0656 24.7964 49.4441 24.6034 48.8132 24.6358L49.0184 28.6305ZM48.1052 28.3326L50.4399 30.193L52.9327 27.0648L50.598 25.2043L48.1052 28.3326ZM50.446 30.1979C50.8362 30.5063 51.2974 30.7126 51.7879 30.7975L52.4705 26.8562C52.6375 26.8851 52.7942 26.9553 52.9266 27.0599L50.446 30.1979ZM51.7879 30.7975C52.2785 30.8825 52.7817 30.8433 53.2522 30.6847L51.9745 26.8942C52.133 26.8408 52.3035 26.8273 52.4705 26.8562L51.7879 30.7975ZM53.2416 30.6882C53.6332 30.5586 54.0336 30.4592 54.4396 30.3906L53.7736 26.4465C53.1672 26.5489 52.5693 26.6974 51.9851 26.8907L53.2416 30.6882ZM54.4416 30.3903C54.9262 30.3079 55.3819 30.1071 55.7689 29.8073L53.3195 26.645C53.4503 26.5437 53.6053 26.4751 53.7715 26.4468L54.4416 30.3903ZM55.7689 29.8073C56.1559 29.5076 56.4628 29.1179 56.6639 28.673L53.0187 27.026C53.0859 26.8773 53.1888 26.7463 53.3195 26.645L55.7689 29.8073ZM56.6627 28.6755L57.9029 25.9408L54.26 24.2888L53.0198 27.0234L56.6627 28.6755ZM57.8745 26.0008C57.7416 26.2698 57.5188 26.4872 57.241 26.6134L55.5874 22.9712C55.0205 23.2285 54.5625 23.674 54.2884 24.2289L57.8745 26.0008ZM57.241 26.6134C56.9627 26.7397 56.647 26.7662 56.3482 26.6848L57.3993 22.8254C56.7954 22.6609 56.1547 22.7136 55.5874 22.9712L57.241 26.6134ZM56.3072 26.6731L61.361 28.1661L62.4942 24.33L57.4404 22.837L56.3072 26.6731ZM61.3276 28.1559C61.0383 28.065 60.791 27.8779 60.6252 27.6286L63.9556 25.4132C63.6169 24.904 63.1137 24.5245 62.5276 24.3402L61.3276 28.1559ZM60.6252 27.6286C60.4596 27.3797 60.3853 27.0841 60.4105 26.7912L64.3958 27.1346C64.4479 26.5293 64.2941 25.922 63.9556 25.4132L60.6252 27.6286ZM60.4252 26.6665L59.9809 29.6318L63.9368 30.2245L64.3811 27.2593L60.4252 26.6665ZM59.9799 29.6385C59.9088 30.1245 59.9577 30.6213 60.1237 31.0851L63.8897 29.7371C63.9452 29.8921 63.9613 30.0572 63.9378 30.2178L59.9799 29.6385ZM60.1237 31.0851C60.2898 31.549 60.568 31.9657 60.9351 32.2973L63.6161 29.3288C63.7407 29.4413 63.8342 29.582 63.8897 29.7371L60.1237 31.0851ZM60.9269 32.2898C61.2258 32.5628 61.5026 32.8598 61.7544 33.1778L64.8903 30.6946C64.5053 30.2084 64.0819 29.7542 63.6243 29.3362L60.9269 32.2898ZM61.7571 33.1812C62.0663 33.57 62.4682 33.876 62.9269 34.0704L64.4876 30.3875C64.6452 30.4542 64.7824 30.559 64.8876 30.6912L61.7571 33.1812ZM62.9269 34.0704C63.3856 34.2648 63.8854 34.3409 64.3807 34.2922L63.9892 30.3114C64.1586 30.2947 64.3301 30.3207 64.4876 30.3875L62.9269 34.0704ZM64.3811 34.2921L67.3512 33.9994L66.9589 30.0187L63.9888 30.3114L64.3811 34.2921ZM67.3134 34.0028C66.997 34.0279 66.6816 33.9397 66.424 33.7538L68.7648 30.5103C68.2527 30.1407 67.6261 29.9654 66.9967 30.0154L67.3134 34.0028ZM66.424 33.7538C66.1667 33.5682 65.9864 33.2991 65.9107 32.9971L69.7909 32.0252C69.6386 31.4172 69.2766 30.8796 68.7648 30.5103L66.424 33.7538ZM65.905 32.9737L67.13 38.1273L71.0216 37.2023L69.7966 32.0487L65.905 32.9737ZM67.1313 38.1326C67.0581 37.8287 67.0948 37.5099 67.2334 37.2318L70.8137 39.0155C71.0939 38.4531 71.1676 37.8092 71.0203 37.1971L67.1313 38.1326ZM67.2334 37.2318C67.372 36.9537 67.6054 36.7306 67.8955 36.6052L69.4827 40.2768C70.0631 40.0259 70.5335 39.5779 70.8137 39.0155L67.2334 37.2318ZM67.9431 36.5853L65.1578 37.7051L66.6498 41.4164L69.4352 40.2966L67.9431 36.5853ZM65.1547 37.7063C64.6916 37.8934 64.2836 38.1931 63.9668 38.5768L67.0513 41.1236C66.9459 41.2513 66.8093 41.352 66.6529 41.4152L65.1547 37.7063ZM63.9668 38.5768C63.65 38.9605 63.4338 39.4167 63.337 39.904L67.2603 40.6834C67.2283 40.8447 67.1567 40.996 67.0513 41.1236L63.9668 38.5768ZM63.3419 39.88C63.2956 40.0991 63.2477 40.2966 63.1937 40.4793L67.0298 41.6126C67.1225 41.2986 67.195 40.9929 67.2554 40.7074L63.3419 39.88ZM16.4194 72.4516C16.4194 75.0527 14.3108 77.1613 11.7097 77.1613V81.1613C16.5199 81.1613 20.4194 77.2618 20.4194 72.4516H16.4194ZM11.7097 77.1613C9.1086 77.1613 7 75.0527 7 72.4516H3C3 77.2618 6.89945 81.1613 11.7097 81.1613V77.1613ZM7 72.4516C7 69.8505 9.10859 67.7419 11.7097 67.7419V63.7419C6.89946 63.7419 3 67.6414 3 72.4516H7ZM11.7097 67.7419C14.3108 67.7419 16.4194 69.8505 16.4194 72.4516H20.4194C20.4194 67.6414 16.5199 63.7419 11.7097 63.7419V67.7419ZM32.9355 52.3226C32.9355 54.9237 30.8269 57.0323 28.2258 57.0323V61.0323C33.036 61.0323 36.9355 57.1328 36.9355 52.3226H32.9355ZM28.2258 57.0323C25.6247 57.0323 23.5161 54.9237 23.5161 52.3226H19.5161C19.5161 57.1328 23.4156 61.0323 28.2258 61.0323V57.0323ZM23.5161 52.3226C23.5161 49.7215 25.6247 47.6129 28.2258 47.6129V43.6129C23.4156 43.6129 19.5161 47.5124 19.5161 52.3226H23.5161ZM28.2258 47.6129C30.8269 47.6129 32.9355 49.7215 32.9355 52.3226H36.9355C36.9355 47.5124 33.036 43.6129 28.2258 43.6129V47.6129ZM61.8387 68.8387C61.8387 71.4398 59.7301 73.5484 57.129 73.5484V77.5484C61.9392 77.5484 65.8387 73.6489 65.8387 68.8387H61.8387ZM57.129 73.5484C54.5279 73.5484 52.4194 71.4398 52.4194 68.8387H48.4194C48.4194 73.6489 52.3188 77.5484 57.129 77.5484V73.5484ZM52.4194 68.8387C52.4194 66.2376 54.5279 64.129 57.129 64.129V60.129C52.3188 60.129 48.4194 64.0285 48.4194 68.8387H52.4194ZM57.129 64.129C59.7301 64.129 61.8387 66.2376 61.8387 68.8387H65.8387C65.8387 64.0285 61.9393 60.129 57.129 60.129V64.129ZM83 45.6129C83 48.214 80.8914 50.3226 78.2903 50.3226V54.3226C83.1005 54.3226 87 50.4231 87 45.6129H83ZM78.2903 50.3226C75.6892 50.3226 73.5806 48.214 73.5806 45.6129H69.5806C69.5806 50.4231 73.4801 54.3226 78.2903 54.3226V50.3226ZM73.5806 45.6129C73.5806 43.0118 75.6892 40.9032 78.2903 40.9032V36.9032C73.4801 36.9032 69.5806 40.8027 69.5806 45.6129H73.5806ZM78.2903 40.9032C80.8914 40.9032 83 43.0118 83 45.6129H87C87 40.8027 83.1005 36.9032 78.2903 36.9032V40.9032ZM17.6536 67.8723L25.1447 58.4723L22.0166 55.9793L14.5254 65.3793L17.6536 67.8723ZM63.0525 65.3906L75.111 52.3926L72.1786 49.6721L60.12 62.6701L63.0525 65.3906ZM51.7529 64.1044L36.5966 53.5211L34.3066 56.8007L49.4628 67.384L51.7529 64.1044Z" fill="url(#paint0_linear_5783_38989)"/>
<defs>
<linearGradient id="paint0_linear_5783_38989" x1="45" y1="10" x2="45" y2="79.1613" gradientUnits="userSpaceOnUse">
<stop stop-color="#29D5A6"/>
<stop offset="1" stop-color="#29B8EF"/>
</linearGradient>
</defs>
</svg>
