<svg width="570" height="540" viewBox="0 0 570 540" fill="none" xmlns="http://www.w3.org/2000/svg">
<g clip-path="url(#clip0_5729_277589)">
<path d="M117.75 612.75V456C117.75 373.157 184.907 306 267.75 306H552" stroke="url(#paint0_linear_5729_277589)" stroke-width="24.75" stroke-linecap="round"/>
<path d="M290.25 687.75V463.5C290.25 417.937 327.187 381 372.75 381H507.75" stroke="url(#paint1_linear_5729_277589)" stroke-width="24.75" stroke-linecap="round"/>
<path d="M229.5 612.75V246.75C229.5 163.907 296.657 96.75 379.5 96.75H519" stroke="url(#paint2_linear_5729_277589)" stroke-width="24.75" stroke-linecap="round"/>
<path d="M44.25 625.5V368.25C44.25 285.407 111.407 218.25 194.25 218.25H507.75" stroke="url(#paint3_linear_5729_277589)" stroke-width="24.75" stroke-linecap="round"/>
<rect opacity="0.05" x="42.6094" y="537.125" width="3.95617" height="3.95617" transform="rotate(-90 42.6094 537.125)" fill="white"/>
<rect opacity="0.1" x="42.6094" y="529.214" width="3.95617" height="3.95617" transform="rotate(-90 42.6094 529.214)" fill="white"/>
<rect opacity="0.2" x="42.6094" y="521.301" width="3.95617" height="3.95617" transform="rotate(-90 42.6094 521.301)" fill="white"/>
<rect opacity="0.3" x="42.6094" y="513.389" width="3.95617" height="3.95617" transform="rotate(-90 42.6094 513.389)" fill="white"/>
<rect opacity="0.4" x="42.6094" y="505.478" width="3.95617" height="3.95617" transform="rotate(-90 42.6094 505.478)" fill="white"/>
<rect opacity="0.5" x="42.6094" y="497.564" width="3.95617" height="3.95617" transform="rotate(-90 42.6094 497.564)" fill="white"/>
<rect opacity="0.6" x="42.6094" y="489.651" width="3.95617" height="3.95617" transform="rotate(-90 42.6094 489.651)" fill="white"/>
<rect opacity="0.7" x="42.6094" y="481.74" width="3.95617" height="3.95617" transform="rotate(-90 42.6094 481.74)" fill="white"/>
<rect opacity="0.8" x="42.6094" y="473.828" width="3.95617" height="3.95617" transform="rotate(-90 42.6094 473.828)" fill="white"/>
<rect x="42.6094" y="465.915" width="3.95617" height="3.95617" transform="rotate(-90 42.6094 465.915)" fill="white"/>
<rect x="42.6094" y="458.002" width="3.95617" height="3.95617" transform="rotate(-90 42.6094 458.002)" fill="white"/>
<rect x="42.6094" y="450.09" width="3.95617" height="3.95617" transform="rotate(-90 42.6094 450.09)" fill="white"/>
<rect x="42.6094" y="442.177" width="3.95617" height="3.95617" transform="rotate(-90 42.6094 442.177)" fill="white"/>
<rect x="42.6094" y="434.266" width="3.95617" height="3.95617" transform="rotate(-90 42.6094 434.266)" fill="white"/>
<rect x="42.6094" y="426.352" width="3.95617" height="3.95617" transform="rotate(-90 42.6094 426.352)" fill="white"/>
<rect x="42.6094" y="418.44" width="3.95617" height="3.95617" transform="rotate(-90 42.6094 418.44)" fill="white"/>
<rect x="42.6094" y="410.527" width="3.95617" height="3.95617" transform="rotate(-90 42.6094 410.527)" fill="white"/>
<rect x="42.6094" y="402.615" width="3.95617" height="3.95617" transform="rotate(-90 42.6094 402.615)" fill="white"/>
<rect x="42.6094" y="394.702" width="3.95617" height="3.95617" transform="rotate(-90 42.6094 394.702)" fill="white"/>
<rect x="42.6094" y="386.791" width="3.95617" height="3.95617" transform="rotate(-90 42.6094 386.791)" fill="white"/>
<rect x="42.6094" y="378.877" width="3.95617" height="3.95617" transform="rotate(-90 42.6094 378.877)" fill="white"/>
<rect x="42.6094" y="370.966" width="3.95617" height="3.95617" transform="rotate(-90 42.6094 370.966)" fill="white"/>
<rect x="42.6094" y="363.054" width="3.95617" height="3.95617" transform="rotate(-90 42.6094 363.054)" fill="white"/>
<rect x="42.6094" y="355.141" width="3.95617" height="3.95617" transform="rotate(-90 42.6094 355.141)" fill="white"/>
<rect x="42.6094" y="347.228" width="3.95617" height="3.95617" transform="rotate(-90 42.6094 347.228)" fill="white"/>
<rect x="42.6094" y="339.316" width="3.95617" height="3.95617" transform="rotate(-90 42.6094 339.316)" fill="white"/>
<rect opacity="0.01" x="36.6758" y="541.082" width="3.95617" height="3.95617" transform="rotate(-90 36.6758 541.082)" fill="white"/>
<rect opacity="0.01" x="48.5449" y="541.082" width="3.95617" height="3.95617" transform="rotate(-90 48.5449 541.082)" fill="white"/>
<rect opacity="0.05" x="36.6758" y="533.17" width="3.95617" height="3.95617" transform="rotate(-90 36.6758 533.17)" fill="white"/>
<rect opacity="0.05" x="48.5449" y="533.17" width="3.95617" height="3.95617" transform="rotate(-90 48.5449 533.17)" fill="white"/>
<rect opacity="0.1" x="36.6758" y="525.257" width="3.95617" height="3.95617" transform="rotate(-90 36.6758 525.257)" fill="white"/>
<rect opacity="0.1" x="48.5449" y="525.257" width="3.95617" height="3.95617" transform="rotate(-90 48.5449 525.257)" fill="white"/>
<rect opacity="0.2" x="36.6758" y="517.344" width="3.95617" height="3.95617" transform="rotate(-90 36.6758 517.344)" fill="white"/>
<rect opacity="0.2" x="48.5449" y="517.344" width="3.95617" height="3.95617" transform="rotate(-90 48.5449 517.344)" fill="white"/>
<rect opacity="0.3" x="36.6758" y="509.433" width="3.95617" height="3.95617" transform="rotate(-90 36.6758 509.433)" fill="white"/>
<rect opacity="0.3" x="48.543" y="509.433" width="3.95617" height="3.95617" transform="rotate(-90 48.543 509.433)" fill="white"/>
<rect opacity="0.4" x="36.6758" y="501.521" width="3.95617" height="3.95617" transform="rotate(-90 36.6758 501.521)" fill="white"/>
<rect opacity="0.4" x="48.5449" y="501.521" width="3.95617" height="3.95617" transform="rotate(-90 48.5449 501.521)" fill="white"/>
<rect opacity="0.5" x="36.6758" y="493.608" width="3.95617" height="3.95617" transform="rotate(-90 36.6758 493.608)" fill="white"/>
<rect opacity="0.5" x="48.5449" y="493.608" width="3.95617" height="3.95617" transform="rotate(-90 48.5449 493.608)" fill="white"/>
<rect opacity="0.6" x="36.6758" y="485.695" width="3.95617" height="3.95617" transform="rotate(-90 36.6758 485.695)" fill="white"/>
<rect opacity="0.6" x="48.5449" y="485.695" width="3.95617" height="3.95617" transform="rotate(-90 48.5449 485.695)" fill="white"/>
<rect opacity="0.7" x="36.6758" y="477.783" width="3.95617" height="3.95617" transform="rotate(-90 36.6758 477.783)" fill="white"/>
<rect opacity="0.7" x="48.5449" y="477.783" width="3.95617" height="3.95617" transform="rotate(-90 48.5449 477.783)" fill="white"/>
<rect opacity="0.8" x="36.6758" y="469.872" width="3.95617" height="3.95617" transform="rotate(-90 36.6758 469.872)" fill="white"/>
<rect opacity="0.8" x="48.5449" y="469.872" width="3.95617" height="3.95617" transform="rotate(-90 48.5449 469.872)" fill="white"/>
<rect x="36.6758" y="461.958" width="3.95617" height="3.95617" transform="rotate(-90 36.6758 461.958)" fill="white"/>
<rect x="48.5449" y="461.958" width="3.95617" height="3.95617" transform="rotate(-90 48.5449 461.958)" fill="white"/>
<rect x="36.6758" y="454.045" width="3.95617" height="3.95617" transform="rotate(-90 36.6758 454.045)" fill="white"/>
<rect x="48.5449" y="454.045" width="3.95617" height="3.95617" transform="rotate(-90 48.5449 454.045)" fill="white"/>
<rect x="36.6758" y="446.134" width="3.95617" height="3.95617" transform="rotate(-90 36.6758 446.134)" fill="white"/>
<rect x="48.5449" y="446.134" width="3.95617" height="3.95617" transform="rotate(-90 48.5449 446.134)" fill="white"/>
<rect x="36.6758" y="438.222" width="3.95617" height="3.95617" transform="rotate(-90 36.6758 438.222)" fill="white"/>
<rect x="48.5449" y="438.222" width="3.95617" height="3.95617" transform="rotate(-90 48.5449 438.222)" fill="white"/>
<rect x="36.6758" y="430.308" width="3.95617" height="3.95617" transform="rotate(-90 36.6758 430.308)" fill="white"/>
<rect x="48.5449" y="430.308" width="3.95617" height="3.95617" transform="rotate(-90 48.5449 430.308)" fill="white"/>
<rect x="36.6758" y="422.395" width="3.95617" height="3.95617" transform="rotate(-90 36.6758 422.395)" fill="white"/>
<rect x="48.543" y="422.395" width="3.95617" height="3.95617" transform="rotate(-90 48.543 422.395)" fill="white"/>
<rect x="36.6758" y="414.483" width="3.95617" height="3.95617" transform="rotate(-90 36.6758 414.483)" fill="white"/>
<rect x="48.5449" y="414.483" width="3.95617" height="3.95617" transform="rotate(-90 48.5449 414.483)" fill="white"/>
<rect x="36.6758" y="406.572" width="3.95617" height="3.95617" transform="rotate(-90 36.6758 406.572)" fill="white"/>
<rect x="48.5449" y="406.572" width="3.95617" height="3.95617" transform="rotate(-90 48.5449 406.572)" fill="white"/>
<rect x="36.6758" y="398.659" width="3.95617" height="3.95617" transform="rotate(-90 36.6758 398.659)" fill="white"/>
<rect x="48.5449" y="398.659" width="3.95617" height="3.95617" transform="rotate(-90 48.5449 398.659)" fill="white"/>
<rect x="36.6758" y="390.747" width="3.95617" height="3.95617" transform="rotate(-90 36.6758 390.747)" fill="white"/>
<rect x="48.5449" y="390.747" width="3.95617" height="3.95617" transform="rotate(-90 48.5449 390.747)" fill="white"/>
<rect x="36.6758" y="382.834" width="3.95617" height="3.95617" transform="rotate(-90 36.6758 382.834)" fill="white"/>
<rect x="48.5449" y="382.834" width="3.95617" height="3.95617" transform="rotate(-90 48.5449 382.834)" fill="white"/>
<rect x="36.6758" y="374.922" width="3.95617" height="3.95617" transform="rotate(-90 36.6758 374.922)" fill="white"/>
<rect x="48.5449" y="374.922" width="3.95617" height="3.95617" transform="rotate(-90 48.5449 374.922)" fill="white"/>
<rect x="36.6758" y="367.009" width="3.95617" height="3.95617" transform="rotate(-90 36.6758 367.009)" fill="white"/>
<rect x="48.543" y="367.009" width="3.95617" height="3.95617" transform="rotate(-90 48.543 367.009)" fill="white"/>
<rect x="36.6758" y="359.098" width="3.95617" height="3.95617" transform="rotate(-90 36.6758 359.098)" fill="white"/>
<rect x="48.5449" y="359.098" width="3.95617" height="3.95617" transform="rotate(-90 48.5449 359.098)" fill="white"/>
<rect x="36.6758" y="351.185" width="3.95617" height="3.95617" transform="rotate(-90 36.6758 351.185)" fill="white"/>
<rect x="48.5449" y="351.185" width="3.95617" height="3.95617" transform="rotate(-90 48.5449 351.185)" fill="white"/>
<rect x="36.6758" y="343.273" width="3.95617" height="3.95617" transform="rotate(-90 36.6758 343.273)" fill="white"/>
<rect x="48.5449" y="343.273" width="3.95617" height="3.95617" transform="rotate(-90 48.5449 343.273)" fill="white"/>
<rect opacity="0.01" x="227.109" y="542.677" width="3.95617" height="3.95617" transform="rotate(-90 227.109 542.677)" fill="white"/>
<rect opacity="0.05" x="227.109" y="534.764" width="3.95617" height="3.95617" transform="rotate(-90 227.109 534.764)" fill="white"/>
<rect opacity="0.1" x="227.109" y="526.853" width="3.95617" height="3.95617" transform="rotate(-90 227.109 526.853)" fill="white"/>
<rect opacity="0.2" x="227.109" y="518.939" width="3.95617" height="3.95617" transform="rotate(-90 227.109 518.939)" fill="white"/>
<rect opacity="0.3" x="227.109" y="511.028" width="3.95617" height="3.95617" transform="rotate(-90 227.109 511.028)" fill="white"/>
<rect opacity="0.4" x="227.109" y="503.116" width="3.95617" height="3.95617" transform="rotate(-90 227.109 503.116)" fill="white"/>
<rect opacity="0.5" x="227.109" y="495.203" width="3.95617" height="3.95617" transform="rotate(-90 227.109 495.203)" fill="white"/>
<rect opacity="0.6" x="227.109" y="487.29" width="3.95617" height="3.95617" transform="rotate(-90 227.109 487.29)" fill="white"/>
<rect opacity="0.7" x="227.109" y="479.378" width="3.95617" height="3.95617" transform="rotate(-90 227.109 479.378)" fill="white"/>
<rect opacity="0.8" x="227.109" y="471.467" width="3.95617" height="3.95617" transform="rotate(-90 227.109 471.467)" fill="white"/>
<rect x="227.109" y="463.554" width="3.95617" height="3.95617" transform="rotate(-90 227.109 463.554)" fill="white"/>
<rect x="227.109" y="455.641" width="3.95617" height="3.95617" transform="rotate(-90 227.109 455.641)" fill="white"/>
<rect x="227.109" y="447.729" width="3.95617" height="3.95617" transform="rotate(-90 227.109 447.729)" fill="white"/>
<rect x="227.109" y="439.816" width="3.95617" height="3.95617" transform="rotate(-90 227.109 439.816)" fill="white"/>
<rect x="227.109" y="431.904" width="3.95617" height="3.95617" transform="rotate(-90 227.109 431.904)" fill="white"/>
<rect x="227.109" y="423.99" width="3.95617" height="3.95617" transform="rotate(-90 227.109 423.99)" fill="white"/>
<rect x="227.109" y="416.079" width="3.95617" height="3.95617" transform="rotate(-90 227.109 416.079)" fill="white"/>
<rect x="227.109" y="408.166" width="3.95617" height="3.95617" transform="rotate(-90 227.109 408.166)" fill="white"/>
<rect x="227.109" y="400.254" width="3.95617" height="3.95617" transform="rotate(-90 227.109 400.254)" fill="white"/>
<rect x="227.109" y="392.341" width="3.95617" height="3.95617" transform="rotate(-90 227.109 392.341)" fill="white"/>
<rect x="227.109" y="384.429" width="3.95617" height="3.95617" transform="rotate(-90 227.109 384.429)" fill="white"/>
<rect opacity="0.33" x="227.109" y="376.516" width="3.95617" height="3.95617" transform="rotate(-90 227.109 376.516)" fill="white"/>
<rect x="227.109" y="368.604" width="3.95617" height="3.95617" transform="rotate(-90 227.109 368.604)" fill="white"/>
<rect x="227.109" y="360.693" width="3.95617" height="3.95617" transform="rotate(-90 227.109 360.693)" fill="white"/>
<rect x="227.109" y="352.78" width="3.95617" height="3.95617" transform="rotate(-90 227.109 352.78)" fill="white"/>
<rect x="227.109" y="344.867" width="3.95617" height="3.95617" transform="rotate(-90 227.109 344.867)" fill="white"/>
<rect x="227.109" y="336.955" width="3.95617" height="3.95617" transform="rotate(-90 227.109 336.955)" fill="white"/>
<rect opacity="0.01" x="221.176" y="538.721" width="3.95617" height="3.95617" transform="rotate(-90 221.176 538.721)" fill="white"/>
<rect opacity="0.01" x="233.045" y="538.721" width="3.95617" height="3.95617" transform="rotate(-90 233.045 538.721)" fill="white"/>
<rect opacity="0.05" x="221.176" y="530.809" width="3.95617" height="3.95617" transform="rotate(-90 221.176 530.809)" fill="white"/>
<rect opacity="0.05" x="233.045" y="530.809" width="3.95617" height="3.95617" transform="rotate(-90 233.045 530.809)" fill="white"/>
<rect opacity="0.1" x="221.176" y="522.896" width="3.95617" height="3.95617" transform="rotate(-90 221.176 522.896)" fill="white"/>
<rect opacity="0.1" x="233.045" y="522.896" width="3.95617" height="3.95617" transform="rotate(-90 233.045 522.896)" fill="white"/>
<rect opacity="0.2" x="221.176" y="514.983" width="3.95617" height="3.95617" transform="rotate(-90 221.176 514.983)" fill="white"/>
<rect opacity="0.2" x="233.045" y="514.983" width="3.95617" height="3.95617" transform="rotate(-90 233.045 514.983)" fill="white"/>
<rect opacity="0.3" x="221.176" y="507.071" width="3.95617" height="3.95617" transform="rotate(-90 221.176 507.071)" fill="white"/>
<rect opacity="0.3" x="233.043" y="507.071" width="3.95617" height="3.95617" transform="rotate(-90 233.043 507.071)" fill="white"/>
<rect opacity="0.4" x="221.176" y="499.16" width="3.95617" height="3.95617" transform="rotate(-90 221.176 499.16)" fill="white"/>
<rect opacity="0.4" x="233.045" y="499.16" width="3.95617" height="3.95617" transform="rotate(-90 233.045 499.16)" fill="white"/>
<rect opacity="0.5" x="221.176" y="491.247" width="3.95617" height="3.95617" transform="rotate(-90 221.176 491.247)" fill="white"/>
<rect opacity="0.5" x="233.045" y="491.247" width="3.95617" height="3.95617" transform="rotate(-90 233.045 491.247)" fill="white"/>
<rect opacity="0.6" x="221.176" y="483.333" width="3.95617" height="3.95617" transform="rotate(-90 221.176 483.333)" fill="white"/>
<rect opacity="0.6" x="233.045" y="483.333" width="3.95617" height="3.95617" transform="rotate(-90 233.045 483.333)" fill="white"/>
<rect opacity="0.7" x="221.176" y="475.422" width="3.95617" height="3.95617" transform="rotate(-90 221.176 475.422)" fill="white"/>
<rect opacity="0.7" x="233.045" y="475.422" width="3.95617" height="3.95617" transform="rotate(-90 233.045 475.422)" fill="white"/>
<rect opacity="0.8" x="221.176" y="467.51" width="3.95617" height="3.95617" transform="rotate(-90 221.176 467.51)" fill="white"/>
<rect opacity="0.8" x="233.045" y="467.51" width="3.95617" height="3.95617" transform="rotate(-90 233.045 467.51)" fill="white"/>
<rect x="221.176" y="459.597" width="3.95617" height="3.95617" transform="rotate(-90 221.176 459.597)" fill="white"/>
<rect x="233.045" y="459.597" width="3.95617" height="3.95617" transform="rotate(-90 233.045 459.597)" fill="white"/>
<rect x="221.176" y="451.684" width="3.95617" height="3.95617" transform="rotate(-90 221.176 451.684)" fill="white"/>
<rect x="233.045" y="451.684" width="3.95617" height="3.95617" transform="rotate(-90 233.045 451.684)" fill="white"/>
<rect x="221.176" y="443.772" width="3.95617" height="3.95617" transform="rotate(-90 221.176 443.772)" fill="white"/>
<rect x="233.045" y="443.772" width="3.95617" height="3.95617" transform="rotate(-90 233.045 443.772)" fill="white"/>
<rect x="221.176" y="435.861" width="3.95617" height="3.95617" transform="rotate(-90 221.176 435.861)" fill="white"/>
<rect x="233.045" y="435.861" width="3.95617" height="3.95617" transform="rotate(-90 233.045 435.861)" fill="white"/>
<rect x="221.176" y="427.947" width="3.95617" height="3.95617" transform="rotate(-90 221.176 427.947)" fill="white"/>
<rect x="233.045" y="427.947" width="3.95617" height="3.95617" transform="rotate(-90 233.045 427.947)" fill="white"/>
<rect x="221.176" y="420.034" width="3.95617" height="3.95617" transform="rotate(-90 221.176 420.034)" fill="white"/>
<rect x="233.043" y="420.034" width="3.95617" height="3.95617" transform="rotate(-90 233.043 420.034)" fill="white"/>
<rect x="221.176" y="412.122" width="3.95617" height="3.95617" transform="rotate(-90 221.176 412.122)" fill="white"/>
<rect x="233.045" y="412.122" width="3.95617" height="3.95617" transform="rotate(-90 233.045 412.122)" fill="white"/>
<rect x="221.176" y="404.21" width="3.95617" height="3.95617" transform="rotate(-90 221.176 404.21)" fill="white"/>
<rect x="233.045" y="404.21" width="3.95617" height="3.95617" transform="rotate(-90 233.045 404.21)" fill="white"/>
<rect x="221.176" y="396.297" width="3.95617" height="3.95617" transform="rotate(-90 221.176 396.297)" fill="white"/>
<rect x="233.045" y="396.297" width="3.95617" height="3.95617" transform="rotate(-90 233.045 396.297)" fill="white"/>
<rect x="221.176" y="388.386" width="3.95617" height="3.95617" transform="rotate(-90 221.176 388.386)" fill="white"/>
<rect x="233.045" y="388.386" width="3.95617" height="3.95617" transform="rotate(-90 233.045 388.386)" fill="white"/>
<rect x="221.176" y="380.473" width="3.95617" height="3.95617" transform="rotate(-90 221.176 380.473)" fill="white"/>
<rect x="233.045" y="380.473" width="3.95617" height="3.95617" transform="rotate(-90 233.045 380.473)" fill="white"/>
<rect x="221.176" y="372.561" width="3.95617" height="3.95617" transform="rotate(-90 221.176 372.561)" fill="white"/>
<rect x="233.045" y="372.561" width="3.95617" height="3.95617" transform="rotate(-90 233.045 372.561)" fill="white"/>
<rect x="221.176" y="364.648" width="3.95617" height="3.95617" transform="rotate(-90 221.176 364.648)" fill="white"/>
<rect x="233.043" y="364.648" width="3.95617" height="3.95617" transform="rotate(-90 233.043 364.648)" fill="white"/>
<rect x="221.176" y="356.736" width="3.95617" height="3.95617" transform="rotate(-90 221.176 356.736)" fill="white"/>
<rect x="233.045" y="356.736" width="3.95617" height="3.95617" transform="rotate(-90 233.045 356.736)" fill="white"/>
<rect x="221.176" y="348.823" width="3.95617" height="3.95617" transform="rotate(-90 221.176 348.823)" fill="white"/>
<rect x="233.045" y="348.823" width="3.95617" height="3.95617" transform="rotate(-90 233.045 348.823)" fill="white"/>
<rect x="221.176" y="340.912" width="3.95617" height="3.95617" transform="rotate(-90 221.176 340.912)" fill="white"/>
<rect x="233.045" y="340.912" width="3.95617" height="3.95617" transform="rotate(-90 233.045 340.912)" fill="white"/>
<rect opacity="0.05" x="116.109" y="538.626" width="3.95617" height="3.95617" transform="rotate(-90 116.109 538.626)" fill="white"/>
<rect opacity="0.1" x="116.109" y="530.714" width="3.95617" height="3.95617" transform="rotate(-90 116.109 530.714)" fill="white"/>
<rect opacity="0.2" x="116.109" y="522.801" width="3.95617" height="3.95617" transform="rotate(-90 116.109 522.801)" fill="white"/>
<rect opacity="0.3" x="116.109" y="514.888" width="3.95617" height="3.95617" transform="rotate(-90 116.109 514.888)" fill="white"/>
<rect opacity="0.4" x="116.109" y="506.977" width="3.95617" height="3.95617" transform="rotate(-90 116.109 506.977)" fill="white"/>
<rect opacity="0.5" x="116.109" y="499.065" width="3.95617" height="3.95617" transform="rotate(-90 116.109 499.065)" fill="white"/>
<rect opacity="0.6" x="116.109" y="491.152" width="3.95617" height="3.95617" transform="rotate(-90 116.109 491.152)" fill="white"/>
<rect opacity="0.7" x="116.109" y="483.239" width="3.95617" height="3.95617" transform="rotate(-90 116.109 483.239)" fill="white"/>
<rect opacity="0.8" x="116.109" y="475.327" width="3.95617" height="3.95617" transform="rotate(-90 116.109 475.327)" fill="white"/>
<rect x="116.109" y="467.416" width="3.95617" height="3.95617" transform="rotate(-90 116.109 467.416)" fill="white"/>
<rect x="116.109" y="459.502" width="3.95617" height="3.95617" transform="rotate(-90 116.109 459.502)" fill="white"/>
<rect x="116.109" y="451.589" width="3.95617" height="3.95617" transform="rotate(-90 116.109 451.589)" fill="white"/>
<rect x="116.109" y="443.678" width="3.95617" height="3.95617" transform="rotate(-90 116.109 443.678)" fill="white"/>
<rect x="116.514" y="434.823" width="3.95617" height="3.95617" transform="rotate(-84.8618 116.514 434.823)" fill="white"/>
<rect x="117.676" y="424.856" width="3.95617" height="3.95617" transform="rotate(-72.0455 117.676 424.856)" fill="white"/>
<rect x="121.426" y="415.106" width="3.95617" height="3.95617" transform="rotate(-72.0455 121.426 415.106)" fill="white"/>
<rect x="125.176" y="405.356" width="3.95617" height="3.95617" transform="rotate(-72.0455 125.176 405.356)" fill="white"/>
<rect opacity="0.01" x="110.176" y="542.583" width="3.95617" height="3.95617" transform="rotate(-90 110.176 542.583)" fill="white"/>
<rect opacity="0.01" x="122.043" y="542.583" width="3.95617" height="3.95617" transform="rotate(-90 122.043 542.583)" fill="white"/>
<rect opacity="0.05" x="110.176" y="534.671" width="3.95617" height="3.95617" transform="rotate(-90 110.176 534.671)" fill="white"/>
<rect opacity="0.05" x="122.043" y="534.671" width="3.95617" height="3.95617" transform="rotate(-90 122.043 534.671)" fill="white"/>
<rect opacity="0.1" x="110.176" y="526.758" width="3.95617" height="3.95617" transform="rotate(-90 110.176 526.758)" fill="white"/>
<rect opacity="0.1" x="122.043" y="526.758" width="3.95617" height="3.95617" transform="rotate(-90 122.043 526.758)" fill="white"/>
<rect opacity="0.2" x="110.176" y="518.845" width="3.95617" height="3.95617" transform="rotate(-90 110.176 518.845)" fill="white"/>
<rect opacity="0.2" x="122.043" y="518.845" width="3.95617" height="3.95617" transform="rotate(-90 122.043 518.845)" fill="white"/>
<rect opacity="0.3" x="110.176" y="510.933" width="3.95617" height="3.95617" transform="rotate(-90 110.176 510.933)" fill="white"/>
<rect opacity="0.3" x="122.043" y="510.933" width="3.95617" height="3.95617" transform="rotate(-90 122.043 510.933)" fill="white"/>
<rect opacity="0.4" x="110.176" y="503.02" width="3.95617" height="3.95617" transform="rotate(-90 110.176 503.02)" fill="white"/>
<rect opacity="0.4" x="122.043" y="503.02" width="3.95617" height="3.95617" transform="rotate(-90 122.043 503.02)" fill="white"/>
<rect opacity="0.5" x="110.176" y="495.108" width="3.95617" height="3.95617" transform="rotate(-90 110.176 495.108)" fill="white"/>
<rect opacity="0.5" x="122.043" y="495.108" width="3.95617" height="3.95617" transform="rotate(-90 122.043 495.108)" fill="white"/>
<rect opacity="0.6" x="110.176" y="487.195" width="3.95617" height="3.95617" transform="rotate(-90 110.176 487.195)" fill="white"/>
<rect opacity="0.6" x="122.043" y="487.195" width="3.95617" height="3.95617" transform="rotate(-90 122.043 487.195)" fill="white"/>
<rect opacity="0.7" x="110.176" y="479.284" width="3.95617" height="3.95617" transform="rotate(-90 110.176 479.284)" fill="white"/>
<rect opacity="0.7" x="122.043" y="479.284" width="3.95617" height="3.95617" transform="rotate(-90 122.043 479.284)" fill="white"/>
<rect opacity="0.8" x="110.176" y="471.371" width="3.95617" height="3.95617" transform="rotate(-90 110.176 471.371)" fill="white"/>
<rect opacity="0.8" x="122.043" y="471.371" width="3.95617" height="3.95617" transform="rotate(-90 122.043 471.371)" fill="white"/>
<rect x="110.176" y="463.459" width="3.95617" height="3.95617" transform="rotate(-90 110.176 463.459)" fill="white"/>
<rect x="122.043" y="463.459" width="3.95617" height="3.95617" transform="rotate(-90 122.043 463.459)" fill="white"/>
<rect x="110.176" y="455.546" width="3.95617" height="3.95617" transform="rotate(-90 110.176 455.546)" fill="white"/>
<rect x="122.043" y="455.546" width="3.95617" height="3.95617" transform="rotate(-90 122.043 455.546)" fill="white"/>
<rect x="110.176" y="447.634" width="3.95617" height="3.95617" transform="rotate(-90 110.176 447.634)" fill="white"/>
<rect x="122.043" y="447.634" width="3.95617" height="3.95617" transform="rotate(-90 122.043 447.634)" fill="white"/>
<rect x="110.176" y="439.721" width="3.95617" height="3.95617" transform="rotate(-90 110.176 439.721)" fill="white"/>
<rect x="122.043" y="439.721" width="3.95617" height="3.95617" transform="rotate(-90 122.043 439.721)" fill="white"/>
<rect x="110.957" y="430.351" width="3.95617" height="3.95617" transform="rotate(-84.8618 110.957 430.351)" fill="white"/>
<rect x="113.25" y="419.263" width="3.95617" height="3.95617" transform="rotate(-72.0455 113.25 419.263)" fill="white"/>
<rect x="117" y="409.513" width="3.95617" height="3.95617" transform="rotate(-72.0455 117 409.513)" fill="white"/>
<rect x="120.75" y="399.763" width="3.95617" height="3.95617" transform="rotate(-72.0455 120.75 399.763)" fill="white"/>
<rect x="122.777" y="431.414" width="3.95617" height="3.95617" transform="rotate(-84.8618 122.777 431.414)" fill="white"/>
<rect x="124.541" y="422.922" width="3.95617" height="3.95617" transform="rotate(-72.0455 124.541 422.922)" fill="white"/>
<rect x="128.291" y="413.172" width="3.95617" height="3.95617" transform="rotate(-72.0455 128.291 413.172)" fill="white"/>
<rect x="132.041" y="403.422" width="3.95617" height="3.95617" transform="rotate(-72.0455 132.041 403.422)" fill="white"/>
<path fill-rule="evenodd" clip-rule="evenodd" d="M124.5 390.013L125.72 386.25L129.483 387.469L128.264 391.233L124.5 390.013ZM128.926 395.606L130.146 391.842L133.909 393.062L132.69 396.825L128.926 395.606ZM137.011 389.909L135.791 393.672L139.555 394.892L140.774 391.128L137.011 389.909Z" fill="white"/>
<path fill-rule="evenodd" clip-rule="evenodd" d="M130.475 378.673L132.48 375.263L135.89 377.268L133.885 380.678L130.475 378.673ZM133.585 385.092L135.59 381.682L139.001 383.687L136.996 387.097L133.585 385.092ZM142.712 381.279L140.707 384.689L144.117 386.695L146.122 383.284L142.712 381.279Z" fill="white"/>
<path fill-rule="evenodd" clip-rule="evenodd" d="M136.009 368.886L138.159 365.565L141.48 367.715L139.33 371.036L136.009 368.886ZM138.841 375.432L140.991 372.111L144.312 374.261L142.162 377.582L138.841 375.432ZM148.122 372.014L145.972 375.335L149.293 377.485L151.443 374.164L148.122 372.014Z" fill="white"/>
<path fill-rule="evenodd" clip-rule="evenodd" d="M142.759 359.886L144.909 356.565L148.23 358.715L146.08 362.036L142.759 359.886ZM145.591 366.432L147.741 363.111L151.062 365.261L148.912 368.582L145.591 366.432ZM154.872 363.014L152.722 366.335L156.043 368.485L158.193 365.164L154.872 363.014Z" fill="white"/>
<path fill-rule="evenodd" clip-rule="evenodd" d="M150.259 350.886L152.409 347.565L155.73 349.715L153.58 353.036L150.259 350.886ZM153.091 357.432L155.241 354.111L158.562 356.261L156.412 359.582L153.091 357.432ZM162.372 354.014L160.222 357.335L163.543 359.485L165.693 356.164L162.372 354.014Z" fill="white"/>
<path fill-rule="evenodd" clip-rule="evenodd" d="M157.622 342.528L160.075 339.424L163.179 341.878L160.725 344.981L157.622 342.528ZM159.824 349.312L162.277 346.208L165.381 348.661L162.928 351.765L159.824 349.312ZM169.386 346.784L166.933 349.888L170.037 352.341L172.49 349.237L169.386 346.784Z" fill="white"/>
<path fill-rule="evenodd" clip-rule="evenodd" d="M166.548 334.064L169.417 331.34L172.141 334.209L169.272 336.933L166.548 334.064ZM167.764 341.092L170.634 338.368L173.357 341.237L170.488 343.961L167.764 341.092ZM177.589 339.949L174.719 342.673L177.443 345.542L180.312 342.818L177.589 339.949Z" fill="white"/>
<path fill-rule="evenodd" clip-rule="evenodd" d="M175.005 328.056L177.874 325.332L180.598 328.201L177.729 330.925L175.005 328.056ZM176.221 335.084L179.091 332.36L181.814 335.23L178.945 337.953L176.221 335.084ZM186.046 333.941L183.177 336.665L185.9 339.534L188.769 336.81L186.046 333.941Z" fill="white"/>
<path fill-rule="evenodd" clip-rule="evenodd" d="M183.255 322.806L186.124 320.082L188.848 322.951L185.979 325.675L183.255 322.806ZM184.471 329.834L187.341 327.11L190.064 329.98L187.195 332.703L184.471 329.834ZM194.296 328.691L191.427 331.415L194.15 334.284L197.019 331.56L194.296 328.691Z" fill="white"/>
<path fill-rule="evenodd" clip-rule="evenodd" d="M193.981 314.95L197.274 312.757L199.466 316.051L196.173 318.243L193.981 314.95ZM193.976 322.082L197.269 319.89L199.461 323.183L196.168 325.375L193.976 322.082ZM203.851 322.636L200.557 324.829L202.749 328.122L206.043 325.93L203.851 322.636Z" fill="white"/>
<path fill-rule="evenodd" clip-rule="evenodd" d="M203.731 310.45L207.024 308.257L209.216 311.551L205.923 313.743L203.731 310.45ZM203.726 317.582L207.019 315.39L209.211 318.683L205.918 320.875L203.726 317.582ZM213.601 318.136L210.307 320.329L212.499 323.622L215.793 321.43L213.601 318.136Z" fill="white"/>
</g>
<defs>
<linearGradient id="paint0_linear_5729_277589" x1="334.875" y1="306" x2="334.875" y2="612.75" gradientUnits="userSpaceOnUse">
<stop stop-color="#6015E2"/>
<stop offset="1" stop-color="#FB4794"/>
</linearGradient>
<linearGradient id="paint1_linear_5729_277589" x1="399" y1="381" x2="399" y2="687.75" gradientUnits="userSpaceOnUse">
<stop stop-color="#15BDE2"/>
<stop offset="1" stop-color="#AC47FB"/>
</linearGradient>
<linearGradient id="paint2_linear_5729_277589" x1="374.25" y1="96.75" x2="374.25" y2="612.75" gradientUnits="userSpaceOnUse">
<stop stop-color="#FF8860"/>
<stop offset="1" stop-color="#FFF281"/>
</linearGradient>
<linearGradient id="paint3_linear_5729_277589" x1="276" y1="218.25" x2="276" y2="625.5" gradientUnits="userSpaceOnUse">
<stop stop-color="#29D5A6"/>
<stop offset="1" stop-color="#29B8EF"/>
</linearGradient>
<clipPath id="clip0_5729_277589">
<rect width="569.25" height="539.25" fill="white"/>
</clipPath>
</defs>
</svg>
