<svg width="244" height="244" viewBox="0 0 244 244" fill="none" xmlns="http://www.w3.org/2000/svg">
<mask id="path-1-inside-1_5940_276506" fill="white">
<path d="M107.413 138.108C106.969 139.11 105.792 139.567 104.821 139.058C99.1052 136.06 94.4712 131.315 91.6125 125.489C88.4615 119.069 87.668 111.745 89.3709 104.798C91.0737 97.8514 95.1645 91.7245 100.928 87.4889C106.691 83.2533 113.76 81.1785 120.898 81.6275C128.036 82.0765 134.789 85.0206 139.976 89.945C145.163 94.8693 148.454 101.46 149.273 108.566C150.092 115.671 148.387 122.838 144.456 128.813C140.89 134.234 135.698 138.362 129.651 140.62C128.625 141.003 127.515 140.402 127.199 139.353V139.353C126.883 138.303 127.481 137.203 128.504 136.81C133.661 134.827 138.086 131.275 141.14 126.632C144.559 121.434 146.042 115.2 145.33 109.02C144.617 102.84 141.755 97.107 137.243 92.8237C132.731 88.5405 126.857 85.9796 120.649 85.5891C114.44 85.1986 108.291 87.0032 103.278 90.6874C98.2655 94.3716 94.7073 99.7008 93.2262 105.743C91.745 111.785 92.4352 118.156 95.1759 123.741C97.6243 128.73 101.57 132.808 106.437 135.422C107.403 135.94 107.858 137.106 107.413 138.108V138.108Z"/>
</mask>
<path d="M107.413 138.108C106.969 139.11 105.792 139.567 104.821 139.058C99.1052 136.06 94.4712 131.315 91.6125 125.489C88.4615 119.069 87.668 111.745 89.3709 104.798C91.0737 97.8514 95.1645 91.7245 100.928 87.4889C106.691 83.2533 113.76 81.1785 120.898 81.6275C128.036 82.0765 134.789 85.0206 139.976 89.945C145.163 94.8693 148.454 101.46 149.273 108.566C150.092 115.671 148.387 122.838 144.456 128.813C140.89 134.234 135.698 138.362 129.651 140.62C128.625 141.003 127.515 140.402 127.199 139.353V139.353C126.883 138.303 127.481 137.203 128.504 136.81C133.661 134.827 138.086 131.275 141.14 126.632C144.559 121.434 146.042 115.2 145.33 109.02C144.617 102.84 141.755 97.107 137.243 92.8237C132.731 88.5405 126.857 85.9796 120.649 85.5891C114.44 85.1986 108.291 87.0032 103.278 90.6874C98.2655 94.3716 94.7073 99.7008 93.2262 105.743C91.745 111.785 92.4352 118.156 95.1759 123.741C97.6243 128.73 101.57 132.808 106.437 135.422C107.403 135.94 107.858 137.106 107.413 138.108V138.108Z" stroke="url(#paint0_linear_5940_276506)" stroke-width="8" mask="url(#path-1-inside-1_5940_276506)"/>
<path d="M106.587 138.525V196.495C106.587 196.711 106.639 196.925 106.74 197.116L113.124 209.304C113.54 210.098 114.604 210.268 115.246 209.642L125.921 199.248C126.371 198.811 126.456 198.12 126.128 197.586L124.61 195.119C124.264 194.557 124.378 193.828 124.879 193.399L127.818 190.88C128.324 190.446 128.434 189.705 128.076 189.143L124.374 183.325C124.145 182.965 124.101 182.517 124.256 182.12L128.411 171.435C128.589 170.976 128.502 170.457 128.183 170.081L123.889 165.03C123.403 164.458 123.481 163.6 124.061 163.125L126.198 161.376C126.51 161.121 126.69 160.741 126.69 160.339V156.953C126.69 156.213 127.29 155.613 128.03 155.613H130.38C131.238 155.613 131.874 154.819 131.688 153.982L128.7 140.536" stroke="url(#paint1_linear_5940_276506)" stroke-width="4" stroke-linecap="round"/>
<path d="M114.628 207.882V140.201" stroke="url(#paint2_linear_5940_276506)" stroke-width="4" stroke-linecap="round"/>
<path d="M152.825 56.7835C149.494 56.7835 146.794 54.0834 146.794 50.7526C146.794 47.4218 149.494 44.7217 152.825 44.7217C156.156 44.7217 158.856 47.4218 158.856 50.7526C158.856 54.0834 156.156 56.7835 152.825 56.7835ZM152.825 56.7835V67.5052C152.825 68.2454 152.225 68.8454 151.485 68.8454H141.433C140.693 68.8454 140.093 69.4454 140.093 70.1856L140.093 81.5774" stroke="url(#paint3_linear_5940_276506)" stroke-width="4" stroke-linecap="round"/>
<path d="M119.989 46.0619C116.658 46.0619 113.958 43.3617 113.958 40.0309C113.958 36.7001 116.658 34 119.989 34C123.32 34 126.02 36.7001 126.02 40.0309C126.02 43.3617 123.32 46.0619 119.989 46.0619ZM119.989 46.0619V74.8763" stroke="url(#paint4_linear_5940_276506)" stroke-width="4" stroke-linecap="round"/>
<path d="M89.1645 56.7835C92.4953 56.7835 95.1955 54.0834 95.1955 50.7526C95.1955 47.4218 92.4953 44.7217 89.1645 44.7217C85.8337 44.7217 83.1336 47.4218 83.1336 50.7526C83.1336 54.0834 85.8337 56.7835 89.1645 56.7835ZM89.1645 56.7835V67.5052C89.1645 68.2454 89.7646 68.8454 90.5047 68.8454H100.556C101.296 68.8454 101.896 69.4454 101.896 70.1856L101.896 81.5774" stroke="url(#paint5_linear_5940_276506)" stroke-width="4" stroke-linecap="round"/>
<path d="M176.603 82.9071H158.845C158.105 82.9071 157.505 83.5071 157.505 84.2473L157.505 89.6081M176.938 82.237C176.938 78.9062 179.638 76.2061 182.969 76.2061C186.3 76.2061 189 78.9062 189 82.237C189 85.5678 186.3 88.2679 182.969 88.2679C179.638 88.2679 176.938 85.5678 176.938 82.237Z" stroke="url(#paint6_linear_5940_276506)" stroke-width="4" stroke-linecap="round"/>
<path d="M67.3972 82.9071H85.1549C85.8951 82.9071 86.4951 83.5071 86.4951 84.2473L86.4951 89.6081M67.0621 82.237C67.0621 78.9062 64.362 76.2061 61.0312 76.2061C57.7004 76.2061 55.0003 78.9062 55.0003 82.237C55.0003 85.5678 57.7004 88.2679 61.0312 88.2679C64.362 88.2679 67.0621 85.5678 67.0621 82.237Z" stroke="url(#paint7_linear_5940_276506)" stroke-width="4" stroke-linecap="round"/>
<defs>
<linearGradient id="paint0_linear_5940_276506" x1="118.984" y1="81.5674" x2="118.984" y2="142.547" gradientUnits="userSpaceOnUse">
<stop stop-color="#29D5A6"/>
<stop offset="1" stop-color="#29B8EF"/>
</linearGradient>
<linearGradient id="paint1_linear_5940_276506" x1="119.319" y1="138.525" x2="119.319" y2="210.897" gradientUnits="userSpaceOnUse">
<stop stop-color="#29D5A6"/>
<stop offset="1" stop-color="#29B8EF"/>
</linearGradient>
<linearGradient id="paint2_linear_5940_276506" x1="115.128" y1="140.201" x2="115.128" y2="207.882" gradientUnits="userSpaceOnUse">
<stop stop-color="#29D5A6"/>
<stop offset="1" stop-color="#29B8EF"/>
</linearGradient>
<linearGradient id="paint3_linear_5940_276506" x1="149.474" y1="44.7217" x2="149.474" y2="81.5774" gradientUnits="userSpaceOnUse">
<stop stop-color="#29D5A6"/>
<stop offset="1" stop-color="#29B8EF"/>
</linearGradient>
<linearGradient id="paint4_linear_5940_276506" x1="119.989" y1="34" x2="119.989" y2="74.8763" gradientUnits="userSpaceOnUse">
<stop stop-color="#29D5A6"/>
<stop offset="1" stop-color="#29B8EF"/>
</linearGradient>
<linearGradient id="paint5_linear_5940_276506" x1="92.515" y1="44.7217" x2="92.515" y2="81.5774" gradientUnits="userSpaceOnUse">
<stop stop-color="#29D5A6"/>
<stop offset="1" stop-color="#29B8EF"/>
</linearGradient>
<linearGradient id="paint6_linear_5940_276506" x1="173.252" y1="76.2061" x2="173.252" y2="89.6081" gradientUnits="userSpaceOnUse">
<stop stop-color="#29D5A6"/>
<stop offset="1" stop-color="#29B8EF"/>
</linearGradient>
<linearGradient id="paint7_linear_5940_276506" x1="70.7477" y1="76.2061" x2="70.7477" y2="89.6081" gradientUnits="userSpaceOnUse">
<stop stop-color="#29D5A6"/>
<stop offset="1" stop-color="#29B8EF"/>
</linearGradient>
</defs>
</svg>
