<svg width="244" height="244" viewBox="0 0 244 244" fill="none" xmlns="http://www.w3.org/2000/svg">
<path d="M186.359 157.279V191.999" stroke="url(#paint0_linear_5940_276529)" stroke-width="4" stroke-linecap="round"/>
<path d="M90.5996 72.1602L90.5996 96.8002" stroke="url(#paint1_linear_5940_276529)" stroke-width="4" stroke-linecap="round"/>
<path d="M152.201 167.361L152.201 192.001" stroke="url(#paint2_linear_5940_276529)" stroke-width="4" stroke-linecap="round"/>
<path d="M57 63.2012L57 96.8012" stroke="url(#paint3_linear_5940_276529)" stroke-width="4" stroke-linecap="round"/>
<path d="M135.96 189.76H85.9703C82.4992 189.76 79.1892 188.296 76.8542 185.727V185.727C72.5823 181.028 72.5823 173.852 76.8542 169.153V169.153C79.1892 166.584 82.4992 165.12 85.9703 165.12H122.729C126.803 165.12 130.613 163.106 132.908 159.74V159.74C135.763 155.554 135.763 150.046 132.908 145.86V145.86C130.613 142.494 126.803 140.48 122.729 140.48H84.1603C77.8201 140.48 72.6803 135.34 72.6803 129V129V129C72.6803 122.66 77.8201 117.52 84.1603 117.52H168.204C170.893 117.52 173.501 116.598 175.593 114.909V114.909C181.421 110.202 181.421 101.318 175.593 96.6114V96.6114C173.501 94.9217 170.893 94 168.204 94H109.64" stroke="url(#paint4_linear_5940_276529)" stroke-width="4" stroke-linecap="round"/>
<path d="M169 147.201L169 192.001" stroke="url(#paint5_linear_5940_276529)" stroke-width="4" stroke-linecap="round"/>
<path d="M73.7988 52L73.7988 96.8" stroke="url(#paint6_linear_5940_276529)" stroke-width="4" stroke-linecap="round"/>
<defs>
<linearGradient id="paint0_linear_5940_276529" x1="186.859" y1="157.279" x2="186.859" y2="191.999" gradientUnits="userSpaceOnUse">
<stop stop-color="#29D5A6"/>
<stop offset="1" stop-color="#29B8EF"/>
</linearGradient>
<linearGradient id="paint1_linear_5940_276529" x1="91.0996" y1="72.1602" x2="91.0996" y2="96.8002" gradientUnits="userSpaceOnUse">
<stop stop-color="#29D5A6"/>
<stop offset="1" stop-color="#29B8EF"/>
</linearGradient>
<linearGradient id="paint2_linear_5940_276529" x1="152.701" y1="167.361" x2="152.701" y2="192.001" gradientUnits="userSpaceOnUse">
<stop stop-color="#29D5A6"/>
<stop offset="1" stop-color="#29B8EF"/>
</linearGradient>
<linearGradient id="paint3_linear_5940_276529" x1="57.5" y1="63.2012" x2="57.5" y2="96.8012" gradientUnits="userSpaceOnUse">
<stop stop-color="#29D5A6"/>
<stop offset="1" stop-color="#29B8EF"/>
</linearGradient>
<linearGradient id="paint4_linear_5940_276529" x1="128.12" y1="94" x2="128.12" y2="189.76" gradientUnits="userSpaceOnUse">
<stop stop-color="#29D5A6"/>
<stop offset="1" stop-color="#29B8EF"/>
</linearGradient>
<linearGradient id="paint5_linear_5940_276529" x1="169.5" y1="147.201" x2="169.5" y2="192.001" gradientUnits="userSpaceOnUse">
<stop stop-color="#29D5A6"/>
<stop offset="1" stop-color="#29B8EF"/>
</linearGradient>
<linearGradient id="paint6_linear_5940_276529" x1="74.2988" y1="52" x2="74.2988" y2="96.8" gradientUnits="userSpaceOnUse">
<stop stop-color="#29D5A6"/>
<stop offset="1" stop-color="#29B8EF"/>
</linearGradient>
</defs>
</svg>
