<svg width="90" height="90" viewBox="0 0 90 90" fill="none" xmlns="http://www.w3.org/2000/svg">
<path d="M71.2617 54.1034V33.6897M71.2617 33.6897L66.6684 39.2069M71.2617 33.6897L75.8549 38.6552M17.1632 54.1034V33.6897M17.1632 33.6897L12.57 39.2069M17.1632 33.6897L21.7565 38.6552M53.399 16.0345L34.5156 16.0345M34.5156 16.0345L39.6192 21M34.5156 16.0345L39.1088 11.069M53.399 74.5172H34.5156M34.5156 74.5172L39.6192 79.4828M34.5156 74.5172L39.1088 69.5517M8.99744 5H28.9016V26.5172H8.99744V5ZM61.0544 26.7931H78.6619L81.4689 13.2759L70.2409 5L58.5026 13.2759L61.0544 26.7931ZM20.4806 61.8276L33.9612 85H7L20.4806 61.8276ZM83 72.3103C83 79.3186 77.7446 85 71.2617 85C64.7788 85 59.5233 79.3186 59.5233 72.3103C59.5233 65.302 64.7788 59.6207 71.2617 59.6207C77.7446 59.6207 83 65.302 83 72.3103Z" stroke="url(#paint0_linear_5783_37175)" stroke-width="4" stroke-linecap="round"/>
<defs>
<linearGradient id="paint0_linear_5783_37175" x1="45" y1="5" x2="45" y2="85" gradientUnits="userSpaceOnUse">
<stop stop-color="#6015E2"/>
<stop offset="1" stop-color="#FB4794"/>
</linearGradient>
</defs>
</svg>
