<svg width="244" height="244" viewBox="0 0 244 244" fill="none" xmlns="http://www.w3.org/2000/svg">
<path d="M154.766 78.5957V94.766M136.894 112.638H99.4468M99.4468 112.638L90.8167 103.577C86.1688 98.6964 78.4576 98.4694 73.5306 103.068C68.0995 108.137 68.3832 116.837 74.1216 121.555C78.8749 125.464 85.7922 125.269 90.3096 121.09L99.4468 112.638ZM79.8723 77.7447H163.277C173.147 77.7447 181.149 69.743 181.149 59.8723C181.149 50.0017 173.147 42 163.277 42H79.8723C70.0017 42 62 50.0017 62 59.8723C62 69.743 70.0017 77.7447 79.8723 77.7447Z" stroke="url(#paint0_linear_5940_276511)" stroke-width="4" stroke-linecap="round"/>
<path d="M80.7246 124.553V132.106C80.7246 140.39 87.4403 147.106 95.7246 147.106H102.746C111.03 147.106 117.746 153.822 117.746 162.106V164.978" stroke="url(#paint1_linear_5940_276511)" stroke-width="4" stroke-linecap="round"/>
<circle cx="155.19" cy="113.063" r="18.2979" stroke="url(#paint2_linear_5940_276511)" stroke-width="4" stroke-linecap="round"/>
<circle cx="118.597" cy="183.702" r="18.2979" stroke="url(#paint3_linear_5940_276511)" stroke-width="4" stroke-linecap="round"/>
<defs>
<linearGradient id="paint0_linear_5940_276511" x1="121.574" y1="42" x2="121.574" y2="124.36" gradientUnits="userSpaceOnUse">
<stop stop-color="#29D5A6"/>
<stop offset="1" stop-color="#29B8EF"/>
</linearGradient>
<linearGradient id="paint1_linear_5940_276511" x1="99.2352" y1="124.553" x2="99.2352" y2="164.978" gradientUnits="userSpaceOnUse">
<stop stop-color="#29D5A6"/>
<stop offset="1" stop-color="#29B8EF"/>
</linearGradient>
<linearGradient id="paint2_linear_5940_276511" x1="155.19" y1="94.7656" x2="155.19" y2="131.361" gradientUnits="userSpaceOnUse">
<stop stop-color="#29D5A6"/>
<stop offset="1" stop-color="#29B8EF"/>
</linearGradient>
<linearGradient id="paint3_linear_5940_276511" x1="118.597" y1="165.404" x2="118.597" y2="202" gradientUnits="userSpaceOnUse">
<stop stop-color="#29D5A6"/>
<stop offset="1" stop-color="#29B8EF"/>
</linearGradient>
</defs>
</svg>
