<svg width="244" height="244" viewBox="0 0 244 244" fill="none" xmlns="http://www.w3.org/2000/svg">
<path d="M120.925 114.522L121.127 112.533L121.123 112.532L120.925 114.522ZM111.222 120.06L113.033 120.91L113.033 120.91L111.222 120.06ZM108.464 126.24C108.651 127.329 109.685 128.06 110.774 127.872C111.862 127.685 112.593 126.651 112.406 125.562L108.464 126.24ZM118.664 131.878C117.576 131.688 116.539 132.416 116.349 133.504C116.159 134.592 116.887 135.628 117.975 135.819L118.664 131.878ZM124.114 133.054L124.975 134.86L124.975 134.86L124.114 133.054ZM129.608 123.274L131.599 123.079L131.598 123.076L129.608 123.274ZM126.815 117.337L125.396 118.746L125.396 118.746L126.815 117.337ZM144.236 124.234L146.236 124.245V124.234H144.236ZM144.005 127.403L142.024 127.125C141.925 127.828 142.207 128.532 142.764 128.972L144.005 127.403ZM150.843 132.81L152.126 131.275C152.112 131.264 152.098 131.253 152.084 131.241L150.843 132.81ZM151.214 134.907L149.481 133.909L149.479 133.912L151.214 134.907ZM144.744 146.19L146.468 147.204C146.472 147.198 146.476 147.191 146.479 147.185L144.744 146.19ZM142.757 146.89L142.004 148.743C142.016 148.748 142.029 148.753 142.041 148.757L142.757 146.89ZM135.964 144.133L136.717 142.28L136.709 142.277L135.964 144.133ZM133.67 144.4L134.81 146.043L134.819 146.036L133.67 144.4ZM130.411 146.312L129.533 144.515L129.531 144.516L130.411 146.312ZM129.077 148.163L131.058 148.439L131.058 148.436L129.077 148.163ZM128.059 155.465L130.03 155.807C130.033 155.785 130.037 155.763 130.04 155.741L128.059 155.465ZM126.444 156.863V158.863C126.458 158.863 126.472 158.863 126.486 158.863L126.444 156.863ZM113.504 154.863C112.399 154.863 111.504 155.759 111.504 156.863C111.504 157.968 112.399 158.863 113.504 158.863V154.863ZM108.889 100.028C108.737 101.122 109.5 102.132 110.594 102.285C111.688 102.437 112.698 101.674 112.851 100.58L108.889 100.028ZM111.888 93.0021L109.918 92.6604C109.914 92.6822 109.91 92.704 109.907 92.7259L111.888 93.0021ZM113.504 91.6039V89.6039C113.49 89.6039 113.475 89.604 113.461 89.6043L113.504 91.6039ZM126.444 91.6039L126.478 89.6042C126.467 89.604 126.455 89.6039 126.444 89.6039V91.6039ZM128.061 92.9563L130.041 92.6802C130.036 92.6387 130.029 92.5974 130.02 92.5564L128.061 92.9563ZM129.077 100.248L127.096 100.524L127.097 100.531L129.077 100.248ZM130.439 102.111L131.314 100.312L131.304 100.308L130.439 102.111ZM133.685 104.028L132.533 105.663L132.536 105.665L133.685 104.028ZM134.795 104.449L134.568 106.436L134.568 106.436L134.795 104.449ZM135.971 104.288L136.722 106.142L136.722 106.142L135.971 104.288ZM142.761 101.533L142.044 99.6659C142.033 99.6704 142.021 99.675 142.009 99.6798L142.761 101.533ZM144.749 102.231L146.484 101.237C146.48 101.23 146.476 101.223 146.472 101.216L144.749 102.231ZM151.219 113.515L149.484 114.509L149.486 114.514L151.219 113.515ZM150.848 115.611L152.089 117.179C152.103 117.169 152.116 117.158 152.129 117.147L150.848 115.611ZM145.068 120.185L143.827 118.617L143.824 118.619L145.068 120.185ZM144.153 122.332L146.147 122.174C146.146 122.166 146.145 122.158 146.144 122.15L144.153 122.332ZM86.0018 97.4718H97.7439V93.4718H86.0018V97.4718ZM96.7801 96.5163V106.805H100.78V96.5163H96.7801ZM97.7439 105.849H86.0018V109.849H97.7439V105.849ZM86.9656 106.805V96.5163H82.9656V106.805H86.9656ZM86.0018 105.849C86.549 105.849 86.9656 106.292 86.9656 106.805H82.9656C82.9656 108.471 84.31 109.849 86.0018 109.849V105.849ZM96.7801 106.805C96.7801 106.292 97.1967 105.849 97.7439 105.849V109.849C99.4357 109.849 100.78 108.471 100.78 106.805H96.7801ZM97.7439 97.4718C97.1967 97.4718 96.7801 97.029 96.7801 96.5163H100.78C100.78 94.8498 99.4357 93.4718 97.7439 93.4718V97.4718ZM86.0018 93.4718C84.31 93.4718 82.9656 94.8498 82.9656 96.5163H86.9656C86.9656 97.029 86.549 97.4718 86.0018 97.4718V93.4718ZM84.7357 144.314H98.7801V140.314H84.7357V144.314ZM97.8164 143.359V154.42H101.816V143.359H97.8164ZM98.7801 153.465H84.7357V157.465H98.7801V153.465ZM85.6994 154.42V143.359H81.6994V154.42H85.6994ZM84.7357 153.465C85.2829 153.465 85.6994 153.908 85.6994 154.42H81.6994C81.6994 156.087 83.0439 157.465 84.7357 157.465V153.465ZM97.8164 154.42C97.8164 153.908 98.2329 153.465 98.7801 153.465V157.465C100.472 157.465 101.816 156.087 101.816 154.42H97.8164ZM98.7801 144.314C98.2329 144.314 97.8164 143.871 97.8164 143.359H101.816C101.816 141.692 100.472 140.314 98.7801 140.314V144.314ZM84.7357 140.314C83.0439 140.314 81.6994 141.692 81.6994 143.359H85.6994C85.6994 143.871 85.2829 144.314 84.7357 144.314V140.314ZM86.0861 122.675H97.7439V118.675H86.0861V122.675ZM96.7801 121.719V129.814H100.78V121.719H96.7801ZM97.7439 128.858H86.0861V132.858H97.7439V128.858ZM87.0498 129.814V121.719H83.0498V129.814H87.0498ZM86.0861 128.858C86.6333 128.858 87.0498 129.301 87.0498 129.814H83.0498C83.0498 131.48 84.3943 132.858 86.0861 132.858V128.858ZM96.7801 129.814C96.7801 129.301 97.1967 128.858 97.7439 128.858V132.858C99.4357 132.858 100.78 131.48 100.78 129.814H96.7801ZM97.7439 122.675C97.1967 122.675 96.7801 122.232 96.7801 121.719H100.78C100.78 120.053 99.4357 118.675 97.7439 118.675V122.675ZM86.0861 118.675C84.3943 118.675 83.0498 120.053 83.0498 121.719H87.0498C87.0498 122.232 86.6333 122.675 86.0861 122.675V118.675ZM53.4991 103.351H69.846V99.3515H53.4991V103.351ZM68.8823 102.396V114.232H72.8823V102.396H68.8823ZM69.846 113.276H53.4991V117.276H69.846V113.276ZM54.4629 114.232V102.396H50.4629V114.232H54.4629ZM53.4991 113.276C54.0463 113.276 54.4629 113.719 54.4629 114.232H50.4629C50.4629 115.898 51.8073 117.276 53.4991 117.276V113.276ZM68.8823 114.232C68.8823 113.719 69.2988 113.276 69.846 113.276V117.276C71.5378 117.276 72.8823 115.898 72.8823 114.232H68.8823ZM69.846 103.351C69.2988 103.351 68.8823 102.909 68.8823 102.396H72.8823C72.8823 100.73 71.5378 99.3515 69.846 99.3515V103.351ZM53.4991 99.3515C51.8073 99.3515 50.4629 100.73 50.4629 102.396H54.4629C54.4629 102.909 54.0463 103.351 53.4991 103.351V99.3515ZM53.4996 82H67.544V78H53.4996V82ZM66.5803 81.0445V90.5593H70.5803V81.0445H66.5803ZM67.544 89.6038H53.4996V93.6038H67.544V89.6038ZM54.4633 90.5593V81.0445H50.4633V90.5593H54.4633ZM53.4996 89.6038C54.0468 89.6038 54.4633 90.0465 54.4633 90.5593H50.4633C50.4633 92.2257 51.8078 93.6038 53.4996 93.6038V89.6038ZM66.5803 90.5593C66.5803 90.0466 66.9969 89.6038 67.544 89.6038V93.6038C69.2358 93.6038 70.5803 92.2257 70.5803 90.5593H66.5803ZM67.544 82C66.9968 82 66.5803 81.5572 66.5803 81.0445H70.5803C70.5803 79.3781 69.2358 78 67.544 78V82ZM53.4996 78C51.8078 78 50.4633 79.3781 50.4633 81.0445H54.4633C54.4633 81.5572 54.0468 82 53.4996 82V78ZM54.5354 129.997H66.1932V125.997H54.5354V129.997ZM65.2295 129.042V137.137H69.2295V129.042H65.2295ZM66.1932 136.181H54.5354V140.181H66.1932V136.181ZM55.4991 137.137V129.042H51.4991V137.137H55.4991ZM54.5354 136.181C55.0826 136.181 55.4991 136.624 55.4991 137.137H51.4991C51.4991 138.803 52.8436 140.181 54.5354 140.181V136.181ZM65.2295 137.137C65.2295 136.624 65.6461 136.181 66.1932 136.181V140.181C67.885 140.181 69.2295 138.803 69.2295 137.137H65.2295ZM66.1932 129.997C65.6461 129.997 65.2295 129.554 65.2295 129.042H69.2295C69.2295 127.375 67.885 125.997 66.1932 125.997V129.997ZM54.5354 125.997C52.8436 125.997 51.4991 127.375 51.4991 129.042H55.4991C55.4991 129.554 55.0826 129.997 54.5354 129.997V125.997ZM54.5354 152.396H67.8124V148.396H54.5354V152.396ZM66.8486 151.441V160.956H70.8486V151.441H66.8486ZM67.8124 160H54.5354V164H67.8124V160ZM55.4991 160.956V151.441H51.4991V160.956H55.4991ZM54.5354 160C55.0826 160 55.4991 160.443 55.4991 160.956H51.4991C51.4991 162.622 52.8436 164 54.5354 164V160ZM66.8486 160.956C66.8486 160.443 67.2652 160 67.8124 160V164C69.5042 164 70.8486 162.622 70.8486 160.956H66.8486ZM67.8124 152.396C67.2652 152.396 66.8486 151.954 66.8486 151.441H70.8486C70.8486 149.774 69.5042 148.396 67.8124 148.396V152.396ZM54.5354 148.396C52.8436 148.396 51.4991 149.774 51.4991 151.441H55.4991C55.4991 151.954 55.0826 152.396 54.5354 152.396V148.396ZM160.447 112.491H172.105V108.491H160.447V112.491ZM171.141 111.535V119.63H175.141V111.535H171.141ZM172.105 118.675H160.447V122.675H172.105V118.675ZM161.411 119.63V111.535H157.411V119.63H161.411ZM160.447 118.675C160.994 118.675 161.411 119.117 161.411 119.63H157.411C157.411 121.296 158.755 122.675 160.447 122.675V118.675ZM171.141 119.63C171.141 119.117 171.558 118.675 172.105 118.675V122.675C173.797 122.675 175.141 121.296 175.141 119.63H171.141ZM172.105 112.491C171.558 112.491 171.141 112.048 171.141 111.535H175.141C175.141 109.869 173.797 108.491 172.105 108.491V112.491ZM160.447 108.491C158.755 108.491 157.411 109.869 157.411 111.535H161.411C161.411 112.048 160.994 112.491 160.447 112.491V108.491ZM179.805 128.59H191.463V124.59H179.805V128.59ZM190.499 127.635V135.73H194.499V127.635H190.499ZM191.463 134.774H179.805V138.774H191.463V134.774ZM180.769 135.73V127.635H176.769V135.73H180.769ZM179.805 134.774C180.352 134.774 180.769 135.217 180.769 135.73H176.769C176.769 137.396 178.113 138.774 179.805 138.774V134.774ZM190.499 135.73C190.499 135.217 190.916 134.774 191.463 134.774V138.774C193.155 138.774 194.499 137.396 194.499 135.73H190.499ZM191.463 128.59C190.916 128.59 190.499 128.148 190.499 127.635H194.499C194.499 125.969 193.155 124.59 191.463 124.59V128.59ZM179.805 124.59C178.113 124.59 176.769 125.969 176.769 127.635H180.769C180.769 128.148 180.352 128.59 179.805 128.59V124.59ZM160.447 128.59H172.105V124.59H160.447V128.59ZM171.141 127.635V135.73H175.141V127.635H171.141ZM172.105 134.774H160.447V138.774H172.105V134.774ZM161.411 135.73V127.635H157.411V135.73H161.411ZM160.447 134.774C160.994 134.774 161.411 135.217 161.411 135.73H157.411C157.411 137.396 158.755 138.774 160.447 138.774V134.774ZM171.141 135.73C171.141 135.217 171.558 134.774 172.105 134.774V138.774C173.797 138.774 175.141 137.396 175.141 135.73H171.141ZM172.105 128.59C171.558 128.59 171.141 128.148 171.141 127.635H175.141C175.141 125.969 173.797 124.59 172.105 124.59V128.59ZM160.447 124.59C158.755 124.59 157.411 125.969 157.411 127.635H161.411C161.411 128.148 160.994 128.59 160.447 128.59V124.59ZM160.447 144.692H172.105V140.692H160.447V144.692ZM171.141 143.736V151.831H175.141V143.736H171.141ZM172.105 150.876H160.447V154.876H172.105V150.876ZM161.411 151.831V143.736H157.411V151.831H161.411ZM160.447 150.876C160.994 150.876 161.411 151.318 161.411 151.831H157.411C157.411 153.498 158.755 154.876 160.447 154.876V150.876ZM171.141 151.831C171.141 151.318 171.558 150.876 172.105 150.876V154.876C173.797 154.876 175.141 153.498 175.141 151.831H171.141ZM172.105 144.692C171.558 144.692 171.141 144.249 171.141 143.736H175.141C175.141 142.07 173.797 140.692 172.105 140.692V144.692ZM160.447 140.692C158.755 140.692 157.411 142.07 157.411 143.736H161.411C161.411 144.249 160.994 144.692 160.447 144.692V140.692ZM121.123 112.532C118.723 112.293 116.309 112.808 114.212 114.005L116.195 117.479C117.572 116.693 119.155 116.356 120.727 116.513L121.123 112.532ZM114.212 114.005C112.115 115.202 110.44 117.02 109.412 119.21L113.033 120.91C113.712 119.463 114.817 118.265 116.195 117.479L114.212 114.005ZM109.412 119.21C108.384 121.4 108.053 123.855 108.464 126.24L112.406 125.562C112.134 123.983 112.353 122.358 113.033 120.91L109.412 119.21ZM117.975 135.819C120.351 136.234 122.796 135.899 124.975 134.86L123.253 131.249C121.823 131.931 120.221 132.15 118.664 131.878L117.975 135.819ZM124.975 134.86C127.153 133.821 128.957 132.13 130.142 130.021L126.654 128.062C125.872 129.455 124.683 130.567 123.253 131.249L124.975 134.86ZM130.142 130.021C131.326 127.913 131.835 125.488 131.599 123.079L127.618 123.469C127.774 125.065 127.437 126.669 126.654 128.062L130.142 130.021ZM131.598 123.076C131.329 120.377 130.142 117.851 128.235 115.929L125.396 118.746C126.653 120.014 127.44 121.683 127.618 123.473L131.598 123.076ZM128.235 115.929C126.328 114.006 123.817 112.805 121.127 112.533L120.724 116.512C122.487 116.691 124.138 117.479 125.396 118.746L128.235 115.929ZM142.236 124.222C142.23 125.193 142.16 126.163 142.024 127.125L145.985 127.682C146.145 126.544 146.229 125.395 146.236 124.245L142.236 124.222ZM142.764 128.972L149.603 134.379L152.084 131.241L145.245 125.835L142.764 128.972ZM149.561 134.345C149.495 134.29 149.454 134.216 149.44 134.138L153.379 133.442C153.23 132.596 152.787 131.828 152.126 131.275L149.561 134.345ZM149.44 134.138C149.427 134.06 149.44 133.979 149.481 133.909L152.947 135.905C153.376 135.16 153.529 134.287 153.379 133.442L149.44 134.138ZM149.479 133.912L143.009 145.195L146.479 147.185L152.949 135.902L149.479 133.912ZM143.02 145.176C143.062 145.105 143.129 145.048 143.213 145.019L144.541 148.792C145.352 148.506 146.034 147.942 146.468 147.204L143.02 145.176ZM143.213 145.019C143.297 144.989 143.389 144.99 143.472 145.022L142.041 148.757C142.844 149.065 143.73 149.077 144.541 148.792L143.213 145.019ZM143.509 145.037L136.717 142.28L135.212 145.986L142.004 148.743L143.509 145.037ZM136.709 142.277C136.026 142.003 135.285 141.903 134.553 141.988L135.015 145.962C135.084 145.954 135.154 145.963 135.22 145.989L136.709 142.277ZM134.553 141.988C133.821 142.073 133.122 142.34 132.52 142.763L134.819 146.036C134.878 145.995 134.946 145.97 135.015 145.962L134.553 141.988ZM132.529 142.757C131.576 143.419 130.575 144.006 129.533 144.515L131.289 148.109C132.513 147.511 133.69 146.82 134.81 146.043L132.529 142.757ZM129.531 144.516C128.879 144.836 128.316 145.311 127.892 145.9L131.137 148.239C131.178 148.182 131.232 148.137 131.291 148.108L129.531 144.516ZM127.892 145.9C127.468 146.488 127.195 147.172 127.096 147.89L131.058 148.436C131.068 148.364 131.096 148.296 131.137 148.239L127.892 145.9ZM127.096 147.887L126.078 155.189L130.04 155.741L131.058 148.439L127.096 147.887ZM126.088 155.123C126.1 155.056 126.135 154.992 126.191 154.944L128.809 157.968C129.454 157.41 129.884 156.645 130.03 155.807L126.088 155.123ZM126.191 154.944C126.247 154.895 126.321 154.865 126.401 154.864L126.486 158.863C127.342 158.844 128.163 158.527 128.809 157.968L126.191 154.944ZM126.444 154.863H113.504V158.863H126.444V154.863ZM112.851 100.58L113.869 93.2782L109.907 92.7259L108.889 100.028L112.851 100.58ZM113.859 93.3437C113.847 93.4109 113.812 93.4749 113.756 93.5234L111.139 90.4988C110.493 91.0574 110.063 91.822 109.918 92.6604L113.859 93.3437ZM113.756 93.5234C113.7 93.5722 113.626 93.6017 113.546 93.6034L113.461 89.6043C112.605 89.6226 111.784 89.94 111.139 90.4988L113.756 93.5234ZM113.504 93.6039H126.444V89.6039H113.504V93.6039ZM126.409 93.6036C126.332 93.6022 126.26 93.5745 126.205 93.5281L128.771 90.4598C128.127 89.9217 127.319 89.6188 126.478 89.6042L126.409 93.6036ZM126.205 93.5281C126.149 93.482 126.114 93.4208 126.101 93.3562L130.02 92.5564C129.853 91.7377 129.414 90.9976 128.771 90.4598L126.205 93.5281ZM126.08 93.2325L127.096 100.524L131.058 99.9715L130.041 92.6802L126.08 93.2325ZM127.097 100.531C127.201 101.254 127.48 101.941 127.911 102.531L131.141 100.172C131.097 100.112 131.068 100.041 131.057 99.9648L127.097 100.531ZM127.911 102.531C128.342 103.122 128.913 103.597 129.574 103.914L131.304 100.308C131.241 100.277 131.184 100.231 131.141 100.172L127.911 102.531ZM129.564 103.909C130.598 104.413 131.591 104.999 132.533 105.663L134.837 102.393C133.72 101.605 132.541 100.91 131.314 100.312L129.564 103.909ZM132.536 105.665C133.139 106.087 133.837 106.353 134.568 106.436L135.022 102.462C134.955 102.454 134.89 102.43 134.833 102.39L132.536 105.665ZM134.568 106.436C135.3 106.52 136.04 106.418 136.722 106.142L135.219 102.435C135.156 102.46 135.088 102.47 135.022 102.462L134.568 106.436ZM136.722 106.142L143.513 103.386L142.009 99.6798L135.219 102.435L136.722 106.142ZM143.478 103.4C143.395 103.432 143.302 103.433 143.218 103.404L144.544 99.63C143.733 99.345 142.847 99.3577 142.044 99.6659L143.478 103.4ZM143.218 103.404C143.134 103.374 143.067 103.317 143.026 103.247L146.472 101.216C146.037 100.478 145.355 99.915 144.544 99.63L143.218 103.404ZM143.014 103.226L149.484 114.509L152.954 112.52L146.484 101.237L143.014 103.226ZM149.486 114.514C149.445 114.443 149.431 114.362 149.445 114.283L153.384 114.979C153.534 114.133 153.381 113.26 152.951 112.515L149.486 114.514ZM149.445 114.283C149.459 114.205 149.501 114.13 149.567 114.075L152.129 117.147C152.791 116.594 153.235 115.826 153.384 114.979L149.445 114.283ZM149.607 114.043L143.827 118.617L146.309 121.754L152.089 117.179L149.607 114.043ZM143.824 118.619C143.245 119.079 142.79 119.677 142.5 120.357L146.18 121.926C146.209 121.856 146.255 121.796 146.312 121.752L143.824 118.619ZM142.5 120.357C142.21 121.037 142.094 121.778 142.161 122.514L146.144 122.15C146.137 122.073 146.15 121.996 146.18 121.926L142.5 120.357ZM142.159 122.49C142.206 123.087 142.236 123.666 142.236 124.234H146.236C146.236 123.529 146.199 122.84 146.147 122.174L142.159 122.49Z" fill="url(#paint0_linear_5940_276522)"/>
<defs>
<linearGradient id="paint0_linear_5940_276522" x1="122.481" y1="80" x2="122.481" y2="162" gradientUnits="userSpaceOnUse">
<stop stop-color="#FF8860"/>
<stop offset="1" stop-color="#FFF281"/>
</linearGradient>
</defs>
</svg>
