<svg width="34" height="29" viewBox="0 0 34 29" fill="none" xmlns="http://www.w3.org/2000/svg">
<path d="M16.2507 11.6276C16.2507 12.0418 16.5864 12.3776 17.0007 12.3776C17.4149 12.3776 17.7507 12.0418 17.7507 11.6276H16.2507ZM17.7507 6.29427C17.7507 5.88006 17.4149 5.54427 17.0007 5.54427C16.5864 5.54427 16.2507 5.88006 16.2507 6.29427H17.7507ZM21.584 16.9609C21.584 17.3752 21.9198 17.7109 22.334 17.7109C22.7482 17.7109 23.084 17.3752 23.084 16.9609H21.584ZM23.084 6.29427C23.084 5.88006 22.7482 5.54427 22.334 5.54427C21.9198 5.54427 21.584 5.88006 21.584 6.29427H23.084ZM26.9173 16.9609C26.9173 17.3752 27.2531 17.7109 27.6673 17.7109C28.0815 17.7109 28.4173 17.3752 28.4173 16.9609H26.9173ZM28.4173 8.96094C28.4173 8.54672 28.0815 8.21094 27.6673 8.21094C27.2531 8.21094 26.9173 8.54672 26.9173 8.96094H28.4173ZM5.58398 8.96094C5.58398 9.37515 5.91977 9.71094 6.33398 9.71094C6.7482 9.71094 7.08398 9.37515 7.08398 8.96094H5.58398ZM19.6673 21.5443C19.2531 21.5443 18.9173 21.8801 18.9173 22.2943C18.9173 22.7085 19.2531 23.0443 19.6673 23.0443V21.5443ZM14.3818 22.1428L15.068 22.4456L15.0712 22.4382L14.3818 22.1428ZM14.6218 23.4664L14.0856 23.9909L14.0915 23.9967L14.6218 23.4664ZM14.6655 23.51L14.1351 24.0404L14.1354 24.0407L14.6655 23.51ZM14.6655 25.5682L14.1354 25.0376L14.1348 25.0382L14.6655 25.5682ZM12.6073 25.5682L13.1379 25.0382L13.1376 25.0379L12.6073 25.5682ZM12.5636 25.5246L13.094 24.9942L13.0881 24.9884L12.5636 25.5246ZM11.24 25.2846L11.5355 25.974L11.5428 25.9707L11.24 25.2846ZM10.5127 26.3828L9.76273 26.3798V26.3828H10.5127ZM7.60364 26.4409H8.35364C8.35364 26.4351 8.35357 26.4292 8.35343 26.4234L7.60364 26.4409ZM6.81818 25.3428L6.51536 26.0289C6.52981 26.0353 6.54447 26.0412 6.5593 26.0467L6.81818 25.3428ZM5.49455 25.5828L4.97006 25.0466L4.96422 25.0524L5.49455 25.5828ZM5.45091 25.6264L4.92058 25.0961L4.92028 25.0964L5.45091 25.6264ZM3.39273 25.6264L3.92335 25.0964L3.92276 25.0958L3.39273 25.6264ZM2.96613 24.5973H3.71613H2.96613ZM3.39273 23.5682L3.92276 24.0988L3.92306 24.0985L3.39273 23.5682ZM3.43636 23.5246L3.96673 24.0549L3.97251 24.049L3.43636 23.5246ZM3.67636 22.2009L2.98697 22.4964L2.99022 22.5038L3.67636 22.2009ZM2.57818 21.4737L2.58117 20.7237H2.57818V21.4737ZM1 20.0191H0.25H1ZM2.52 18.5646V19.3146C2.52585 19.3146 2.53169 19.3145 2.53754 19.3144L2.52 18.5646ZM3.61818 17.7791L2.93203 17.4763C2.92566 17.4908 2.91973 17.5054 2.91428 17.5202L3.61818 17.7791ZM3.37818 16.4555L3.91436 15.931L3.90851 15.9252L3.37818 16.4555ZM3.33455 16.4118L3.86488 15.8815L3.86458 15.8812L3.33455 16.4118ZM3.33455 14.3537L3.86458 14.8843L3.86517 14.8837L3.33455 14.3537ZM5.39273 14.3537L4.8621 14.8837L4.8624 14.884L5.39273 14.3537ZM5.43636 14.3973L4.906 14.9277L4.91192 14.9334L5.43636 14.3973ZM6.76 14.6373V13.8873C6.65572 13.8873 6.55258 13.909 6.45718 13.9512L6.76 14.6373ZM6.81818 14.6373V15.3873C6.91976 15.3873 7.02027 15.3667 7.11363 15.3267L6.81818 14.6373ZM7.54545 13.5391L8.29545 13.5421V13.5391H7.54545ZM10.4545 13.4809H9.70454L9.70455 13.4839L10.4545 13.4809ZM11.1818 14.5791L11.4847 13.8929L11.4773 13.8898L11.1818 14.5791ZM12.5055 14.3391L13.0299 14.8753L13.0358 14.8694L12.5055 14.3391ZM12.5491 14.2955L13.0794 14.8258L13.0797 14.8255L12.5491 14.2955ZM14.6073 14.2955L14.0766 14.8255L14.0772 14.8261L14.6073 14.2955ZM14.6073 16.3537L14.0772 15.823L14.0769 15.8233L14.6073 16.3537ZM14.5636 16.3973L14.0333 15.8669L14.0275 15.8729L14.5636 16.3973ZM14.3236 17.7209H15.0736C15.0736 17.6167 15.0519 17.5135 15.0098 17.4181L14.3236 17.7209ZM14.3236 17.7791H13.5736C13.5736 17.8807 13.5943 17.9812 13.6343 18.0746L14.3236 17.7791ZM15.4218 18.5064L15.4188 19.2564H15.4218V18.5064ZM15.48 21.4155V20.6655L15.477 20.6655L15.48 21.4155ZM17.7507 11.6276V6.29427H16.2507V11.6276H17.7507ZM23.084 16.9609L23.084 6.29427H21.584L21.584 16.9609H23.084ZM28.4173 16.9609V8.96094H26.9173V16.9609H28.4173ZM9.00065 1.71094H30.334V0.210938H9.00065V1.71094ZM32.2506 3.6276V19.6276H33.7506V3.6276H32.2506ZM32.2506 19.6276C32.2506 20.6861 31.3925 21.5443 30.334 21.5443V23.0443C32.221 23.0443 33.7506 21.5146 33.7506 19.6276H32.2506ZM30.334 1.71094C31.3925 1.71094 32.2506 2.56906 32.2506 3.6276H33.7506C33.7506 1.74063 32.221 0.210938 30.334 0.210938V1.71094ZM9.00065 0.210938C7.11368 0.210938 5.58398 1.74063 5.58398 3.6276H7.08398C7.08398 2.56906 7.9421 1.71094 9.00065 1.71094V0.210938ZM7.08398 8.96094V3.6276H5.58398V8.96094H7.08398ZM30.334 21.5443H19.6673V23.0443H30.334V21.5443ZM10.4318 19.9609C10.4318 20.7517 9.79077 21.3928 9 21.3928V22.8928C10.6192 22.8928 11.9318 21.5801 11.9318 19.9609H10.4318ZM9 21.3928C8.20923 21.3928 7.56818 20.7517 7.56818 19.9609H6.06818C6.06818 21.5801 7.3808 22.8928 9 22.8928V21.3928ZM7.56818 19.9609C7.56818 19.1702 8.20923 18.5291 9 18.5291V17.0291C7.3808 17.0291 6.06818 18.3417 6.06818 19.9609H7.56818ZM9 18.5291C9.79077 18.5291 10.4318 19.1702 10.4318 19.9609H11.9318C11.9318 18.3417 10.6192 17.0291 9 17.0291V18.5291ZM13.6957 21.8399C13.5384 22.1964 13.4914 22.5918 13.5609 22.9752L15.0369 22.7076C15.0208 22.6191 15.0317 22.5278 15.068 22.4456L13.6957 21.8399ZM13.5609 22.9752C13.6305 23.3585 13.8132 23.7123 14.0857 23.9908L15.158 22.9419C15.0951 22.8777 15.0529 22.796 15.0369 22.7076L13.5609 22.9752ZM14.0915 23.9967L14.1351 24.0404L15.1958 22.9797L15.1521 22.9361L14.0915 23.9967ZM14.1354 24.0407C14.2009 24.1061 14.2529 24.1838 14.2883 24.2693L15.674 23.6949C15.5631 23.4273 15.4005 23.1841 15.1955 22.9794L14.1354 24.0407ZM14.2883 24.2693C14.3238 24.3549 14.3421 24.4465 14.3421 24.5391H15.8421C15.8421 24.2494 15.7849 23.9625 15.674 23.6949L14.2883 24.2693ZM14.3421 24.5391C14.3421 24.6317 14.3238 24.7234 14.2883 24.8089L15.674 25.3833C15.7849 25.1157 15.8421 24.8288 15.8421 24.5391H14.3421ZM14.2883 24.8089C14.2529 24.8945 14.2009 24.9722 14.1354 25.0376L15.1955 26.0988C15.4005 25.8941 15.5631 25.651 15.674 25.3833L14.2883 24.8089ZM14.1348 25.0382C14.0694 25.1037 13.9917 25.1556 13.9062 25.1911L14.4806 26.5768C14.7482 26.4658 14.9913 26.3032 15.1961 26.0982L14.1348 25.0382ZM13.9062 25.1911C13.8206 25.2266 13.729 25.2448 13.6364 25.2448V26.7448C13.9261 26.7448 14.2129 26.6877 14.4806 26.5768L13.9062 25.1911ZM13.6364 25.2448C13.5438 25.2448 13.4521 25.2266 13.3666 25.1911L12.7922 26.5768C13.0598 26.6877 13.3467 26.7448 13.6364 26.7448V25.2448ZM13.3666 25.1911C13.281 25.1556 13.2033 25.1037 13.1379 25.0382L12.0766 26.0982C12.2814 26.3032 12.5245 26.4658 12.7922 26.5768L13.3666 25.1911ZM13.1376 25.0379L13.094 24.9942L12.0333 26.0549L12.0769 26.0985L13.1376 25.0379ZM13.0881 24.9884C12.8096 24.716 12.4558 24.5332 12.0724 24.4637L11.8048 25.9396C11.8933 25.9557 11.9749 25.9978 12.0392 26.0607L13.0881 24.9884ZM12.0724 24.4637C11.689 24.3942 11.2936 24.4411 10.9372 24.5984L11.5428 25.9707C11.6251 25.9344 11.7163 25.9236 11.8048 25.9396L12.0724 24.4637ZM10.9446 24.5952C10.595 24.745 10.2969 24.9938 10.0869 25.3109L11.3375 26.1391C11.386 26.0659 11.4548 26.0085 11.5354 25.9739L10.9446 24.5952ZM10.0869 25.3109C9.87694 25.6279 9.76425 25.9995 9.76273 26.3798L11.2627 26.3857C11.2631 26.298 11.2891 26.2122 11.3375 26.1391L10.0869 25.3109ZM9.76273 26.3828V26.5064H11.2627V26.3828H9.76273ZM9.76273 26.5064C9.76273 26.6932 9.6885 26.8725 9.55637 27.0046L10.617 28.0652C11.0305 27.6518 11.2627 27.0911 11.2627 26.5064H9.76273ZM9.55637 27.0046C9.42424 27.1367 9.24504 27.2109 9.05818 27.2109V28.7109C9.64286 28.7109 10.2036 28.4787 10.617 28.0652L9.55637 27.0046ZM9.05818 27.2109C8.87132 27.2109 8.69212 27.1367 8.55999 27.0046L7.49933 28.0652C7.91277 28.4787 8.4735 28.7109 9.05818 28.7109V27.2109ZM8.55999 27.0046C8.42787 26.8725 8.35364 26.6933 8.35364 26.5064H6.85364C6.85364 27.0911 7.0859 27.6518 7.49933 28.0652L8.55999 27.0046ZM8.35364 26.5064V26.4409H6.85364V26.5064H8.35364ZM8.35343 26.4234C8.34428 26.0322 8.21766 25.6528 7.99003 25.3346L6.76998 26.2072C6.82251 26.2807 6.85173 26.3682 6.85384 26.4585L8.35343 26.4234ZM7.99003 25.3346C7.76241 25.0163 7.4443 24.7739 7.07707 24.6389L6.5593 26.0467C6.64404 26.0778 6.71745 26.1338 6.76998 26.2072L7.99003 25.3346ZM7.12101 24.6566C6.76455 24.4993 6.36914 24.4524 5.98576 24.5219L6.25338 25.9978C6.34185 25.9818 6.4331 25.9926 6.51536 26.0289L7.12101 24.6566ZM5.98576 24.5219C5.60239 24.5914 5.24863 24.7742 4.9701 25.0466L6.01899 26.1189C6.08327 26.056 6.16491 26.0139 6.25338 25.9978L5.98576 24.5219ZM4.96422 25.0524L4.92058 25.0961L5.98124 26.1567L6.02488 26.1131L4.96422 25.0524ZM4.92028 25.0964C4.85485 25.1619 4.77715 25.2138 4.69162 25.2493L5.26603 26.6349C5.53366 26.524 5.77679 26.3614 5.98153 26.1564L4.92028 25.0964ZM4.69162 25.2493C4.60609 25.2847 4.51441 25.303 4.42182 25.303V26.803C4.71153 26.803 4.9984 26.7459 5.26603 26.6349L4.69162 25.2493ZM4.42182 25.303C4.32923 25.303 4.23755 25.2847 4.15202 25.2493L3.57761 26.6349C3.84524 26.7459 4.13211 26.803 4.42182 26.803V25.303ZM4.15202 25.2493C4.06649 25.2138 3.98879 25.1619 3.92335 25.0964L2.8621 26.1564C3.06684 26.3614 3.30998 26.524 3.57761 26.6349L4.15202 25.2493ZM3.92276 25.0958C3.85726 25.0303 3.80529 24.9526 3.76983 24.8671L2.38417 25.4415C2.49512 25.7091 2.65772 25.9523 2.86269 26.157L3.92276 25.0958ZM3.76983 24.8671C3.73438 24.7816 3.71613 24.6899 3.71613 24.5973H2.21613C2.21613 24.887 2.27323 25.1739 2.38417 25.4415L3.76983 24.8671ZM3.71613 24.5973C3.71613 24.5047 3.73438 24.413 3.76983 24.3275L2.38417 23.7531C2.27323 24.0207 2.21613 24.3076 2.21613 24.5973H3.71613ZM3.76983 24.3275C3.80529 24.242 3.85726 24.1643 3.92276 24.0988L2.86269 23.0376C2.65772 23.2423 2.49512 23.4855 2.38417 23.7531L3.76983 24.3275ZM3.92306 24.0985L3.96669 24.0549L2.90603 22.9942L2.8624 23.0379L3.92306 24.0985ZM3.97251 24.049C4.24496 23.7705 4.42773 23.4167 4.49724 23.0334L3.02131 22.7657C3.00527 22.8542 2.96309 22.9359 2.90022 23.0001L3.97251 24.049ZM4.49724 23.0334C4.56676 22.65 4.51983 22.2546 4.36251 21.8981L2.99022 22.5038C3.02652 22.586 3.03735 22.6773 3.02131 22.7657L4.49724 23.0334ZM4.36572 21.9055C4.21591 21.5559 3.96716 21.2578 3.65009 21.0479L2.82186 22.2985C2.89503 22.3469 2.95244 22.4157 2.98701 22.4964L4.36572 21.9055ZM3.65009 21.0479C3.33302 20.8379 2.96146 20.7252 2.58117 20.7237L2.57519 22.2237C2.66295 22.224 2.74869 22.25 2.82186 22.2985L3.65009 21.0479ZM2.57818 20.7237H2.45455V22.2237H2.57818V20.7237ZM2.45455 20.7237C2.26769 20.7237 2.08849 20.6494 1.95636 20.5173L0.895696 21.578C1.30913 21.9914 1.86986 22.2237 2.45455 22.2237V20.7237ZM1.95636 20.5173C1.82423 20.3852 1.75 20.206 1.75 20.0191H0.25C0.25 20.6038 0.482264 21.1645 0.895696 21.578L1.95636 20.5173ZM1.75 20.0191C1.75 19.8323 1.82423 19.6531 1.95636 19.5209L0.895696 18.4603C0.482264 18.8737 0.25 19.4344 0.25 20.0191H1.75ZM1.95636 19.5209C2.08848 19.3888 2.26769 19.3146 2.45455 19.3146V17.8146C1.86987 17.8146 1.30913 18.0468 0.895696 18.4603L1.95636 19.5209ZM2.45455 19.3146H2.52V17.8146H2.45455V19.3146ZM2.53754 19.3144C2.92871 19.3052 3.30809 19.1786 3.62635 18.951L2.75373 17.7309C2.68028 17.7834 2.59273 17.8127 2.50246 17.8148L2.53754 19.3144ZM3.62635 18.951C3.9446 18.7233 4.18702 18.4052 4.32208 18.038L2.91428 17.5202C2.88311 17.605 2.82717 17.6784 2.75373 17.7309L3.62635 18.951ZM4.30433 18.0819C4.46165 17.7255 4.50857 17.3301 4.43906 16.9467L2.96313 17.2143C2.97917 17.3028 2.96834 17.394 2.93203 17.4763L4.30433 18.0819ZM4.43906 16.9467C4.36955 16.5633 4.18678 16.2096 3.91433 15.931L2.84204 16.9799C2.90491 17.0442 2.94709 17.1258 2.96313 17.2143L4.43906 16.9467ZM3.90851 15.9252L3.86488 15.8815L2.80422 16.9422L2.84785 16.9858L3.90851 15.9252ZM3.86458 15.8812C3.79907 15.8158 3.74711 15.7381 3.71165 15.6526L2.32599 16.227C2.43694 16.4946 2.59954 16.7377 2.80451 16.9425L3.86458 15.8812ZM3.71165 15.6526C3.6762 15.567 3.65795 15.4753 3.65795 15.3828H2.15795C2.15795 15.6725 2.21505 15.9593 2.32599 16.227L3.71165 15.6526ZM3.65795 15.3828C3.65795 15.2902 3.6762 15.1985 3.71165 15.113L2.32599 14.5385C2.21505 14.8062 2.15795 15.093 2.15795 15.3828H3.65795ZM3.71165 15.113C3.74711 15.0274 3.79907 14.9497 3.86458 14.8843L2.80451 13.823C2.59954 14.0278 2.43693 14.2709 2.32599 14.5385L3.71165 15.113ZM3.86517 14.8837C3.9306 14.8182 4.00831 14.7662 4.09384 14.7308L3.51943 13.3451C3.2518 13.4561 3.00866 13.6187 2.80392 13.8236L3.86517 14.8837ZM4.09384 14.7308C4.17937 14.6953 4.27105 14.6771 4.36364 14.6771V13.1771C4.07393 13.1771 3.78706 13.2342 3.51943 13.3451L4.09384 14.7308ZM4.36364 14.6771C4.45623 14.6771 4.54791 14.6953 4.63344 14.7308L5.20785 13.3451C4.94022 13.2342 4.65335 13.1771 4.36364 13.1771V14.6771ZM4.63344 14.7308C4.71897 14.7662 4.79667 14.8182 4.8621 14.8837L5.92335 13.8236C5.71861 13.6187 5.47547 13.4561 5.20785 13.3451L4.63344 14.7308ZM4.8624 14.884L4.90603 14.9276L5.96669 13.867L5.92306 13.8233L4.8624 14.884ZM4.91192 14.9334C5.19044 15.2059 5.54421 15.3887 5.92758 15.4582L6.1952 13.9822C6.10673 13.9662 6.02509 13.924 5.96081 13.8612L4.91192 14.9334ZM5.92758 15.4582C6.31096 15.5277 6.70637 15.4808 7.06282 15.3234L6.45718 13.9512C6.37492 13.9875 6.28367 13.9983 6.1952 13.9822L5.92758 15.4582ZM6.76 15.3873H6.81818V13.8873H6.76V15.3873ZM7.11363 15.3267C7.46318 15.1768 7.76129 14.9281 7.97127 14.611L6.72065 13.7828C6.67219 13.856 6.6034 13.9134 6.52273 13.9479L7.11363 15.3267ZM7.97127 14.611C8.18125 14.294 8.29393 13.9224 8.29545 13.5421L6.79546 13.5361C6.79511 13.6239 6.76911 13.7096 6.72065 13.7828L7.97127 14.611ZM8.29545 13.5391V13.4155H6.79545V13.5391H8.29545ZM8.29545 13.4155C8.29545 13.2286 8.36968 13.0494 8.50181 12.9173L7.44115 11.8566C7.02772 12.2701 6.79545 12.8308 6.79545 13.4155H8.29545ZM8.50181 12.9173C8.63394 12.7852 8.81314 12.7109 9 12.7109V11.2109C8.41532 11.2109 7.85458 11.4432 7.44115 11.8566L8.50181 12.9173ZM9 12.7109C9.18686 12.7109 9.36606 12.7852 9.49819 12.9173L10.5588 11.8566C10.1454 11.4432 9.58468 11.2109 9 11.2109V12.7109ZM9.49819 12.9173C9.63032 13.0494 9.70455 13.2286 9.70455 13.4155H11.2045C11.2045 12.8308 10.9723 12.2701 10.5588 11.8566L9.49819 12.9173ZM9.70455 13.4155V13.4809H11.2045V13.4155H9.70455ZM9.70455 13.4839C9.70607 13.8642 9.81875 14.2358 10.0287 14.5528L11.2794 13.7246C11.2309 13.6514 11.2049 13.5657 11.2045 13.4779L9.70455 13.4839ZM10.0287 14.5528C10.2387 14.8699 10.5368 15.1187 10.8864 15.2685L11.4773 13.8898C11.3966 13.8552 11.3278 13.7978 11.2794 13.7246L10.0287 14.5528ZM10.879 15.2653C11.2354 15.4226 11.6309 15.4695 12.0142 15.4L11.7466 13.9241C11.6581 13.9401 11.5669 13.9293 11.4846 13.893L10.879 15.2653ZM12.0142 15.4C12.3976 15.3305 12.7514 15.1477 13.0299 14.8753L11.981 13.803C11.9167 13.8658 11.8351 13.908 11.7466 13.9241L12.0142 15.4ZM13.0358 14.8694L13.0794 14.8258L12.0188 13.7652L11.9751 13.8088L13.0358 14.8694ZM13.0797 14.8255C13.1451 14.76 13.2229 14.708 13.3084 14.6726L12.734 13.2869C12.4663 13.3979 12.2232 13.5605 12.0185 13.7654L13.0797 14.8255ZM13.3084 14.6726C13.3939 14.6371 13.4856 14.6189 13.5782 14.6189V13.1189C13.2885 13.1189 13.0016 13.176 12.734 13.2869L13.3084 14.6726ZM13.5782 14.6189C13.6708 14.6189 13.7625 14.6371 13.848 14.6726L14.4224 13.2869C14.1548 13.176 13.8679 13.1189 13.5782 13.1189V14.6189ZM13.848 14.6726C13.9335 14.708 14.0112 14.76 14.0766 14.8255L15.1379 13.7654C14.9332 13.5605 14.69 13.3979 14.4224 13.2869L13.848 14.6726ZM14.0772 14.8261C14.1427 14.8915 14.1947 14.9692 14.2302 15.0548L15.6158 14.4804C15.5049 14.2127 15.3423 13.9696 15.1373 13.7649L14.0772 14.8261ZM14.2302 15.0548C14.2656 15.1403 14.2839 15.232 14.2839 15.3246H15.7839C15.7839 15.0349 15.7268 14.748 15.6158 14.4804L14.2302 15.0548ZM14.2839 15.3246C14.2839 15.4172 14.2656 15.5088 14.2302 15.5944L15.6158 16.1688C15.7268 15.9012 15.7839 15.6143 15.7839 15.3246H14.2839ZM14.2302 15.5944C14.1947 15.6799 14.1427 15.7576 14.0772 15.823L15.1373 16.8843C15.3423 16.6795 15.5049 16.4364 15.6158 16.1688L14.2302 15.5944ZM14.0769 15.8233L14.0333 15.867L15.094 16.9276L15.1376 16.884L14.0769 15.8233ZM14.0275 15.8729C13.755 16.1514 13.5723 16.5051 13.5028 16.8885L14.9787 17.1561C14.9947 17.0677 15.0369 16.986 15.0998 16.9217L14.0275 15.8729ZM13.5028 16.8885C13.4332 17.2719 13.4802 17.6673 13.6375 18.0238L15.0098 17.4181C14.9735 17.3359 14.9627 17.2446 14.9787 17.1561L13.5028 16.8885ZM13.5736 17.7209V17.7791H15.0736V17.7209H13.5736ZM13.6343 18.0746C13.7841 18.4241 14.0328 18.7222 14.3499 18.9322L15.1781 17.6816C15.105 17.6331 15.0476 17.5643 15.013 17.4837L13.6343 18.0746ZM14.3499 18.9322C14.667 19.1422 15.0385 19.2549 15.4188 19.2564L15.4248 17.7564C15.3371 17.7561 15.2513 17.73 15.1781 17.6816L14.3499 18.9322ZM15.4218 19.2564H15.5455V17.7564H15.4218V19.2564ZM15.5455 19.2564C15.7323 19.2564 15.9115 19.3306 16.0436 19.4627L17.1043 18.4021C16.6909 17.9887 16.1301 17.7564 15.5455 17.7564V19.2564ZM16.0436 19.4627C16.1758 19.5949 16.25 19.7741 16.25 19.9609H17.75C17.75 19.3763 17.5177 18.8155 17.1043 18.4021L16.0436 19.4627ZM16.25 19.9609C16.25 20.1478 16.1758 20.327 16.0436 20.4591L17.1043 21.5198C17.5177 21.1064 17.75 20.5456 17.75 19.9609H16.25ZM16.0436 20.4591C15.9115 20.5913 15.7323 20.6655 15.5455 20.6655V22.1655C16.1301 22.1655 16.6909 21.9332 17.1043 21.5198L16.0436 20.4591ZM15.5455 20.6655H15.48V22.1655H15.5455V20.6655ZM15.477 20.6655C15.0967 20.667 14.7252 20.7797 14.4081 20.9897L15.2363 22.2403C15.3095 22.1918 15.3952 22.1658 15.483 22.1655L15.477 20.6655ZM14.4081 20.9897C14.091 21.1996 13.8423 21.4978 13.6925 21.8473L15.0712 22.4382C15.1057 22.3575 15.1631 22.2887 15.2363 22.2403L14.4081 20.9897Z" fill="#E74860"/>
</svg>
