<svg width="32" height="32" viewBox="0 0 32 32" fill="none" xmlns="http://www.w3.org/2000/svg">
<path d="M4.72279 30.2178L4.3823 30.8861L4.72279 30.2178ZM1.74314 27.2381L1.07488 27.5786L1.74314 27.2381ZM30.2569 27.2381L30.9251 27.5786L30.2569 27.2381ZM27.2772 30.2178L27.6177 30.8861L27.2772 30.2178ZM27.2772 1.70407L27.6177 1.03582L27.2772 1.70407ZM30.2569 4.68373L30.9251 4.34324L30.2569 4.68373ZM4.72279 1.70407L4.3823 1.03582L4.72279 1.70407ZM1.74314 4.68373L1.07488 4.34324L1.74314 4.68373ZM20.0909 7.02912C19.6767 7.02912 19.3409 7.36491 19.3409 7.77912C19.3409 8.19333 19.6767 8.52912 20.0909 8.52912V7.02912ZM25.5455 8.52912C25.9597 8.52912 26.2955 8.19333 26.2955 7.77912C26.2955 7.36491 25.9597 7.02912 25.5455 7.02912V8.52912ZM20.0909 12.4837C19.6767 12.4837 19.3409 12.8195 19.3409 13.2337C19.3409 13.6479 19.6767 13.9837 20.0909 13.9837V12.4837ZM25.5455 13.9837C25.9597 13.9837 26.2955 13.6479 26.2955 13.2337C26.2955 12.8195 25.9597 12.4837 25.5455 12.4837V13.9837ZM20.0909 17.9382C19.6767 17.9382 19.3409 18.274 19.3409 18.6882C19.3409 19.1024 19.6767 19.4382 20.0909 19.4382V17.9382ZM25.5455 19.4382C25.9597 19.4382 26.2955 19.1024 26.2955 18.6882C26.2955 18.274 25.9597 17.9382 25.5455 17.9382V19.4382ZM6.45455 23.3928C6.04033 23.3928 5.70455 23.7285 5.70455 24.1428C5.70455 24.557 6.04033 24.8928 6.45455 24.8928V23.3928ZM25.5455 24.8928C25.9597 24.8928 26.2955 24.557 26.2955 24.1428C26.2955 23.7285 25.9597 23.3928 25.5455 23.3928V24.8928ZM7.1991 18.5396L7.5396 17.8713L7.1991 18.5396ZM6.60317 17.9437L7.27143 17.6032L6.60317 17.9437ZM14.4877 17.9437L13.8195 17.6032L14.4877 17.9437ZM13.8918 18.5396L13.5513 17.8713L13.8918 18.5396ZM13.8918 7.92775L13.5513 8.596L13.8918 7.92775ZM14.4877 8.52368L13.8195 8.86417L14.4877 8.52368ZM7.1991 7.92775L7.5396 8.596L7.1991 7.92775ZM6.60317 8.52368L7.27143 8.86417L6.60317 8.52368ZM11.9091 1.71094H20.0909V0.210938H11.9091V1.71094ZM30.25 11.87V20.0518H31.75V11.87H30.25ZM20.0909 30.2109H11.9091V31.7109H20.0909V30.2109ZM1.75 20.0518V11.87H0.25V20.0518H1.75ZM11.9091 30.2109C9.98744 30.2109 8.59132 30.2104 7.492 30.1205C6.40143 30.0314 5.66918 29.8583 5.06328 29.5495L4.3823 30.8861C5.23489 31.3205 6.18652 31.5189 7.36985 31.6156C8.54442 31.7115 10.0122 31.7109 11.9091 31.7109V30.2109ZM0.25 20.0518C0.25 21.9487 0.249417 23.4165 0.345383 24.5911C0.442065 25.7744 0.640463 26.726 1.07488 27.5786L2.41139 26.8977C2.10267 26.2918 1.9295 25.5595 1.8404 24.4689C1.75058 23.3696 1.75 21.9735 1.75 20.0518H0.25ZM5.06328 29.5495C3.92148 28.9678 2.99317 28.0395 2.41139 26.8977L1.07488 27.5786C1.80047 29.0027 2.95825 30.1605 4.3823 30.8861L5.06328 29.5495ZM30.25 20.0518C30.25 21.9735 30.2494 23.3696 30.1596 24.4689C30.0705 25.5595 29.8973 26.2918 29.5886 26.8977L30.9251 27.5786C31.3595 26.726 31.5579 25.7744 31.6546 24.5911C31.7506 23.4165 31.75 21.9487 31.75 20.0518H30.25ZM20.0909 31.7109C21.9878 31.7109 23.4556 31.7115 24.6302 31.6156C25.8135 31.5189 26.7651 31.3205 27.6177 30.8861L26.9367 29.5495C26.3308 29.8583 25.5986 30.0314 24.508 30.1205C23.4087 30.2104 22.0126 30.2109 20.0909 30.2109V31.7109ZM29.5886 26.8977C29.0068 28.0395 28.0785 28.9678 26.9367 29.5495L27.6177 30.8861C29.0417 30.1605 30.1995 29.0027 30.9251 27.5786L29.5886 26.8977ZM20.0909 1.71094C22.0126 1.71094 23.4087 1.71152 24.508 1.80134C25.5986 1.89044 26.3308 2.06361 26.9367 2.37233L27.6177 1.03582C26.7651 0.601401 25.8135 0.403002 24.6302 0.30632C23.4556 0.210354 21.9878 0.210938 20.0909 0.210938V1.71094ZM31.75 11.87C31.75 9.97313 31.7506 8.50536 31.6546 7.33079C31.5579 6.14746 31.3595 5.19583 30.9251 4.34324L29.5886 5.02422C29.8973 5.63012 30.0705 6.36237 30.1596 7.45293C30.2494 8.55225 30.25 9.94838 30.25 11.87H31.75ZM26.9367 2.37233C28.0785 2.95411 29.0068 3.88242 29.5886 5.02422L30.9251 4.34324C30.1995 2.91919 29.0417 1.76141 27.6177 1.03582L26.9367 2.37233ZM11.9091 0.210938C10.0122 0.210938 8.54442 0.210354 7.36985 0.30632C6.18652 0.403002 5.23489 0.601401 4.3823 1.03582L5.06328 2.37233C5.66918 2.06361 6.40143 1.89044 7.492 1.80134C8.59132 1.71152 9.98744 1.71094 11.9091 1.71094V0.210938ZM1.75 11.87C1.75 9.94838 1.75058 8.55225 1.8404 7.45293C1.9295 6.36237 2.10267 5.63012 2.41139 5.02422L1.07488 4.34324C0.640463 5.19583 0.442065 6.14746 0.345383 7.33079C0.249417 8.50536 0.25 9.97313 0.25 11.87H1.75ZM4.3823 1.03582C2.95825 1.76141 1.80047 2.91919 1.07488 4.34324L2.41139 5.02422C2.99317 3.88242 3.92148 2.95411 5.06328 2.37233L4.3823 1.03582ZM20.0909 8.52912L25.5455 8.52912V7.02912L20.0909 7.02912V8.52912ZM20.0909 13.9837L25.5455 13.9837V12.4837L20.0909 12.4837V13.9837ZM20.0909 19.4382H25.5455V17.9382H20.0909V19.4382ZM6.45455 24.8928L25.5455 24.8928V23.3928L6.45455 23.3928V24.8928ZM8.63636 8.52912H12.4545V7.02912H8.63636V8.52912ZM13.8864 9.96094V16.5064H15.3864V9.96094H13.8864ZM12.4545 17.9382H8.63636V19.4382H12.4545V17.9382ZM7.20455 16.5064V9.96094H5.70455V16.5064H7.20455ZM8.63636 17.9382C8.24213 17.9382 7.99157 17.9376 7.8018 17.9221C7.62079 17.9073 7.56209 17.8828 7.5396 17.8713L6.85861 19.2078C7.12781 19.345 7.40589 19.3948 7.67966 19.4171C7.94467 19.4388 8.26689 19.4382 8.63636 19.4382V17.9382ZM5.70455 16.5064C5.70455 16.8759 5.70396 17.1981 5.72562 17.4631C5.74798 17.7369 5.79775 18.0149 5.93492 18.2841L7.27143 17.6032C7.25996 17.5807 7.23542 17.522 7.22063 17.341C7.20513 17.1512 7.20455 16.9006 7.20455 16.5064H5.70455ZM7.5396 17.8713C7.42413 17.8125 7.33026 17.7186 7.27143 17.6032L5.93492 18.2841C6.13756 18.6819 6.46091 19.0052 6.85861 19.2078L7.5396 17.8713ZM13.8864 16.5064C13.8864 16.9006 13.8858 17.1512 13.8703 17.341C13.8555 17.522 13.8309 17.5807 13.8195 17.6032L15.156 18.2841C15.2932 18.0149 15.3429 17.7369 15.3653 17.4631C15.3869 17.1981 15.3864 16.8759 15.3864 16.5064H13.8864ZM12.4545 19.4382C12.824 19.4382 13.1462 19.4388 13.4113 19.4171C13.685 19.3948 13.9631 19.345 14.2323 19.2078L13.5513 17.8713C13.5288 17.8828 13.4701 17.9073 13.2891 17.9221C13.0993 17.9376 12.8488 17.9382 12.4545 17.9382V19.4382ZM13.8195 17.6032C13.7606 17.7186 13.6668 17.8125 13.5513 17.8713L14.2323 19.2078C14.63 19.0052 14.9533 18.6819 15.156 18.2841L13.8195 17.6032ZM12.4545 8.52912C12.8488 8.52912 13.0993 8.5297 13.2891 8.54521C13.4701 8.56 13.5288 8.58454 13.5513 8.596L14.2323 7.25949C13.9631 7.12233 13.685 7.07256 13.4113 7.05019C13.1462 7.02854 12.824 7.02912 12.4545 7.02912V8.52912ZM15.3864 9.96094C15.3864 9.59146 15.3869 9.26924 15.3653 9.00423C15.3429 8.73046 15.2932 8.45238 15.156 8.18319L13.8195 8.86417C13.8309 8.88667 13.8555 8.94537 13.8703 9.12638C13.8858 9.31614 13.8864 9.56671 13.8864 9.96094H15.3864ZM13.5513 8.596C13.6668 8.65483 13.7606 8.74871 13.8195 8.86417L15.156 8.18319C14.9534 7.78548 14.63 7.46213 14.2323 7.25949L13.5513 8.596ZM8.63636 7.02912C8.26689 7.02912 7.94467 7.02854 7.67966 7.05019C7.40589 7.07256 7.12781 7.12233 6.85861 7.25949L7.5396 8.596C7.56209 8.58454 7.6208 8.56 7.8018 8.54521C7.99157 8.5297 8.24213 8.52912 8.63636 8.52912V7.02912ZM7.20455 9.96094C7.20455 9.56671 7.20513 9.31614 7.22063 9.12638C7.23542 8.94537 7.25996 8.88667 7.27143 8.86417L5.93492 8.18319C5.79775 8.45238 5.74798 8.73046 5.72562 9.00423C5.70396 9.26924 5.70455 9.59146 5.70455 9.96094H7.20455ZM6.85861 7.25949C6.4609 7.46213 6.13756 7.78548 5.93492 8.18319L7.27143 8.86417C7.33026 8.74871 7.42413 8.65483 7.5396 8.596L6.85861 7.25949Z" fill="#E74860"/>
</svg>
