<svg width="32" height="30" viewBox="0 0 32 30" fill="none" xmlns="http://www.w3.org/2000/svg">
<mask id="path-1-outside-1_6521_244289" maskUnits="userSpaceOnUse" x="0" y="-0.0390625" width="32" height="30" fill="black">
<rect fill="white" y="-0.0390625" width="32" height="30"/>
<path d="M19.8442 22.2002C18.7853 22.2002 17.7721 22.2414 16.765 22.1874C15.9275 22.1432 15.0656 22.0902 14.2676 21.8644C10.7012 20.8571 8.54385 17.47 9.08191 13.8266C9.58951 10.3875 12.7357 7.75828 16.3833 7.73178C17.5132 7.72392 18.6421 7.73079 19.8086 7.73079V5.93906C18.1569 5.16444 17.5092 4.14241 17.8543 2.84942C18.167 1.67816 19.235 0.911397 20.4837 0.963431C21.6482 1.01154 22.6644 1.86077 22.8695 2.95643C23.1213 4.30342 22.4472 5.31465 20.8502 5.92924C20.8502 6.61059 20.8553 7.31158 20.8492 8.01158C20.8451 8.5329 20.6949 8.6841 20.1538 8.68704C19.0036 8.6949 17.8523 8.71748 16.7041 8.6841C13.025 8.57708 10.0332 11.3967 9.98951 14.8879C9.94484 18.4292 12.826 21.1919 16.6056 21.2439C17.7721 21.2596 18.9396 21.2439 20.1071 21.2488C20.7406 21.2518 20.8472 21.3578 20.8512 21.9665C20.8553 22.4898 20.8705 23.0141 20.8462 23.5364C20.8299 23.8741 20.9233 24.0449 21.2827 24.1726C22.4543 24.5869 23.0847 25.7179 22.8766 26.9274C22.6898 28.0162 21.705 28.8802 20.5781 28.9459C19.2827 29.0215 18.2391 28.3274 17.8878 27.1562C17.5122 25.9044 18.1792 24.6153 19.4797 24.15C19.7731 24.0449 19.8675 23.9124 19.8533 23.6257C19.832 23.1721 19.8472 22.7166 19.8472 22.1982L19.8442 22.2002ZM18.7924 3.43946C18.7914 4.28575 19.5061 4.97888 20.369 4.96612C21.2187 4.95336 21.901 4.28084 21.904 3.45124C21.9081 2.59907 21.2086 1.92459 20.3294 1.93342C19.4766 1.94226 18.7934 2.61085 18.7924 3.43946ZM21.904 26.464C21.8949 25.6069 21.1944 24.9521 20.3081 24.9727C19.4503 24.9923 18.7873 25.658 18.7934 26.4954C18.7995 27.3456 19.5051 28.0054 20.3903 27.9877C21.2451 27.971 21.9132 27.2995 21.904 26.464Z"/>
<path d="M5.50703 20.367C5.20754 19.6287 4.9314 18.911 4.61872 18.208C4.56491 18.0873 4.35984 17.9626 4.21872 17.9557C3.61061 17.9282 3.00149 17.9469 2.39236 17.942C1.56598 17.9351 1.03299 17.4697 1.01675 16.6863C0.994416 15.5415 0.994416 14.3958 1.01675 13.2511C1.03198 12.4676 1.56293 11.9895 2.38322 11.9757C2.97509 11.9659 3.56797 11.963 4.15883 11.9777C4.43496 11.9846 4.56897 11.906 4.66745 11.6341C4.8847 11.0352 5.1781 10.4609 5.40347 9.86395C5.45627 9.72454 5.42378 9.48204 5.32632 9.37699C4.92125 8.93912 4.46948 8.54052 4.04715 8.11639C3.43498 7.50082 3.44209 6.82242 4.06543 6.21077C4.83699 5.45382 5.61261 4.69982 6.39432 3.95269C7.10598 3.27331 7.78922 3.28705 8.50799 3.98018C8.95163 4.40725 9.39528 4.83433 9.83994 5.25943C9.86329 5.28103 9.89781 5.29281 9.91405 5.30165C10.6714 5.01006 11.4247 4.73222 12.1648 4.42296C12.2744 4.37682 12.3759 4.18439 12.381 4.05578C12.4044 3.48439 12.3851 2.91103 12.3932 2.33866C12.4064 1.45113 12.8998 0.973011 13.8054 0.963193C14.3292 0.957303 14.8541 0.965157 15.3789 0.962211C15.7109 0.960248 15.9657 1.08493 15.9759 1.42266C15.986 1.78297 15.7393 1.93515 15.3779 1.9322C14.8876 1.92828 14.3962 1.94889 13.9069 1.92631C13.5221 1.90864 13.3972 2.07162 13.4033 2.41916C13.4145 3.1064 13.3922 3.79365 13.4115 4.4799C13.4236 4.92072 13.25 5.1426 12.7993 5.2938C11.9414 5.58145 11.1008 5.92704 10.2805 6.306C9.88969 6.48665 9.62776 6.45622 9.33945 6.16561C8.82473 5.64625 8.28261 5.15242 7.76892 4.63208C7.51511 4.37486 7.33034 4.42591 7.09583 4.65859C6.36386 5.38412 5.62378 6.10278 4.86846 6.80671C4.58623 7.06982 4.571 7.26912 4.86135 7.53518C5.38926 8.01822 5.88468 8.53463 6.41259 9.01864C6.72629 9.30532 6.71208 9.57236 6.5395 9.93562C6.1527 10.7485 5.79433 11.5771 5.47962 12.4195C5.34155 12.7896 5.15272 12.9536 4.75273 12.9467C4.02583 12.933 3.29793 12.9556 2.57104 12.9389C2.19033 12.93 2.0076 13.0518 2.01267 13.4425C2.02485 14.4567 2.02587 15.4709 2.01267 16.485C2.0076 16.8777 2.18729 16.9936 2.57002 16.9838C3.29691 16.9641 4.02482 16.9877 4.75171 16.9749C5.15373 16.9671 5.3385 17.1399 5.47759 17.5051C5.80245 18.3602 6.16996 19.2026 6.56183 20.0312C6.72934 20.3866 6.69888 20.6379 6.41259 20.904C5.87656 21.4027 5.36693 21.928 4.82988 22.4257C4.57405 22.6633 4.58623 22.8538 4.82887 23.0845C5.60043 23.8189 6.36691 24.5572 7.12629 25.3033C7.35674 25.5301 7.53948 25.5232 7.76384 25.3004C8.28261 24.784 8.82575 24.2911 9.33538 23.7678C9.64502 23.4497 9.92116 23.4537 10.3201 23.6382C11.1242 24.0103 11.9506 24.3451 12.7922 24.6298C13.2338 24.779 13.4277 24.9911 13.4135 25.4388C13.3922 26.1094 13.4216 26.7809 13.4033 27.4505C13.3932 27.8402 13.5211 28.0248 13.9566 27.9983C14.4287 27.9698 14.9038 27.9904 15.3769 27.9934C15.7271 27.9963 15.9921 28.1357 15.981 28.5029C15.9708 28.8416 15.7211 28.9644 15.386 28.9604C14.8277 28.9536 14.2693 28.9683 13.7109 28.9555C12.9201 28.9378 12.4267 28.4666 12.4003 27.69C12.38 27.1019 12.382 26.5119 12.4003 25.9238C12.4094 25.6469 12.3028 25.5262 12.0369 25.4329C11.4348 25.2218 10.8399 24.9852 10.2602 24.7231C10.0227 24.6161 9.87345 24.6171 9.69071 24.8046C9.28361 25.2199 8.86128 25.6214 8.43591 26.02C7.79125 26.6228 7.10497 26.6346 6.47249 26.0367C5.65017 25.2591 4.838 24.4718 4.03599 23.6755C3.44006 23.0845 3.45427 22.4081 4.05528 21.8102C4.52633 21.3409 5.00754 20.8814 5.48266 20.416C5.505 20.3945 5.51413 20.3591 5.51007 20.367H5.50703Z"/>
<path d="M20.3453 14.2284C22.0183 14.2284 23.6924 14.2215 25.3655 14.2343C25.7056 14.2372 25.8995 14.1763 26.0386 13.8239C26.4985 12.6536 27.6842 12.042 28.9268 12.2776C30.1248 12.5054 31.0111 13.5549 30.9999 14.731C30.9887 15.8709 30.1146 16.9214 28.9938 17.1423C27.6944 17.3985 26.4964 16.7869 26.0254 15.5773C25.8954 15.2435 25.7107 15.1895 25.3898 15.1905C22.128 15.1994 18.8651 15.1954 15.6032 15.1954C15.4682 15.1954 15.3322 15.1915 15.1971 15.1954C14.8276 15.2072 14.4794 15.1503 14.4916 14.7006C14.5037 14.2569 14.8611 14.2166 15.2245 14.2264C15.3931 14.2313 15.5626 14.2264 15.7311 14.2264C17.2692 14.2264 18.8072 14.2264 20.3453 14.2264V14.2284ZM28.3949 13.2073C27.534 13.2162 26.8599 13.8769 26.8589 14.7124C26.8578 15.5636 27.5644 16.2391 28.4426 16.2263C29.2903 16.2135 29.9887 15.5341 29.9918 14.7173C29.9948 13.8857 29.2679 13.1985 28.3949 13.2073Z"/>
</mask>
<path d="M19.8442 22.2002C18.7853 22.2002 17.7721 22.2414 16.765 22.1874C15.9275 22.1432 15.0656 22.0902 14.2676 21.8644C10.7012 20.8571 8.54385 17.47 9.08191 13.8266C9.58951 10.3875 12.7357 7.75828 16.3833 7.73178C17.5132 7.72392 18.6421 7.73079 19.8086 7.73079V5.93906C18.1569 5.16444 17.5092 4.14241 17.8543 2.84942C18.167 1.67816 19.235 0.911397 20.4837 0.963431C21.6482 1.01154 22.6644 1.86077 22.8695 2.95643C23.1213 4.30342 22.4472 5.31465 20.8502 5.92924C20.8502 6.61059 20.8553 7.31158 20.8492 8.01158C20.8451 8.5329 20.6949 8.6841 20.1538 8.68704C19.0036 8.6949 17.8523 8.71748 16.7041 8.6841C13.025 8.57708 10.0332 11.3967 9.98951 14.8879C9.94484 18.4292 12.826 21.1919 16.6056 21.2439C17.7721 21.2596 18.9396 21.2439 20.1071 21.2488C20.7406 21.2518 20.8472 21.3578 20.8512 21.9665C20.8553 22.4898 20.8705 23.0141 20.8462 23.5364C20.8299 23.8741 20.9233 24.0449 21.2827 24.1726C22.4543 24.5869 23.0847 25.7179 22.8766 26.9274C22.6898 28.0162 21.705 28.8802 20.5781 28.9459C19.2827 29.0215 18.2391 28.3274 17.8878 27.1562C17.5122 25.9044 18.1792 24.6153 19.4797 24.15C19.7731 24.0449 19.8675 23.9124 19.8533 23.6257C19.832 23.1721 19.8472 22.7166 19.8472 22.1982L19.8442 22.2002ZM18.7924 3.43946C18.7914 4.28575 19.5061 4.97888 20.369 4.96612C21.2187 4.95336 21.901 4.28084 21.904 3.45124C21.9081 2.59907 21.2086 1.92459 20.3294 1.93342C19.4766 1.94226 18.7934 2.61085 18.7924 3.43946ZM21.904 26.464C21.8949 25.6069 21.1944 24.9521 20.3081 24.9727C19.4503 24.9923 18.7873 25.658 18.7934 26.4954C18.7995 27.3456 19.5051 28.0054 20.3903 27.9877C21.2451 27.971 21.9132 27.2995 21.904 26.464Z" fill="#E74860"/>
<path d="M5.50703 20.367C5.20754 19.6287 4.9314 18.911 4.61872 18.208C4.56491 18.0873 4.35984 17.9626 4.21872 17.9557C3.61061 17.9282 3.00149 17.9469 2.39236 17.942C1.56598 17.9351 1.03299 17.4697 1.01675 16.6863C0.994416 15.5415 0.994416 14.3958 1.01675 13.2511C1.03198 12.4676 1.56293 11.9895 2.38322 11.9757C2.97509 11.9659 3.56797 11.963 4.15883 11.9777C4.43496 11.9846 4.56897 11.906 4.66745 11.6341C4.8847 11.0352 5.1781 10.4609 5.40347 9.86395C5.45627 9.72454 5.42378 9.48204 5.32632 9.37699C4.92125 8.93912 4.46948 8.54052 4.04715 8.11639C3.43498 7.50082 3.44209 6.82242 4.06543 6.21077C4.83699 5.45382 5.61261 4.69982 6.39432 3.95269C7.10598 3.27331 7.78922 3.28705 8.50799 3.98018C8.95163 4.40725 9.39528 4.83433 9.83994 5.25943C9.86329 5.28103 9.89781 5.29281 9.91405 5.30165C10.6714 5.01006 11.4247 4.73222 12.1648 4.42296C12.2744 4.37682 12.3759 4.18439 12.381 4.05578C12.4044 3.48439 12.3851 2.91103 12.3932 2.33866C12.4064 1.45113 12.8998 0.973011 13.8054 0.963193C14.3292 0.957303 14.8541 0.965157 15.3789 0.962211C15.7109 0.960248 15.9657 1.08493 15.9759 1.42266C15.986 1.78297 15.7393 1.93515 15.3779 1.9322C14.8876 1.92828 14.3962 1.94889 13.9069 1.92631C13.5221 1.90864 13.3972 2.07162 13.4033 2.41916C13.4145 3.1064 13.3922 3.79365 13.4115 4.4799C13.4236 4.92072 13.25 5.1426 12.7993 5.2938C11.9414 5.58145 11.1008 5.92704 10.2805 6.306C9.88969 6.48665 9.62776 6.45622 9.33945 6.16561C8.82473 5.64625 8.28261 5.15242 7.76892 4.63208C7.51511 4.37486 7.33034 4.42591 7.09583 4.65859C6.36386 5.38412 5.62378 6.10278 4.86846 6.80671C4.58623 7.06982 4.571 7.26912 4.86135 7.53518C5.38926 8.01822 5.88468 8.53463 6.41259 9.01864C6.72629 9.30532 6.71208 9.57236 6.5395 9.93562C6.1527 10.7485 5.79433 11.5771 5.47962 12.4195C5.34155 12.7896 5.15272 12.9536 4.75273 12.9467C4.02583 12.933 3.29793 12.9556 2.57104 12.9389C2.19033 12.93 2.0076 13.0518 2.01267 13.4425C2.02485 14.4567 2.02587 15.4709 2.01267 16.485C2.0076 16.8777 2.18729 16.9936 2.57002 16.9838C3.29691 16.9641 4.02482 16.9877 4.75171 16.9749C5.15373 16.9671 5.3385 17.1399 5.47759 17.5051C5.80245 18.3602 6.16996 19.2026 6.56183 20.0312C6.72934 20.3866 6.69888 20.6379 6.41259 20.904C5.87656 21.4027 5.36693 21.928 4.82988 22.4257C4.57405 22.6633 4.58623 22.8538 4.82887 23.0845C5.60043 23.8189 6.36691 24.5572 7.12629 25.3033C7.35674 25.5301 7.53948 25.5232 7.76384 25.3004C8.28261 24.784 8.82575 24.2911 9.33538 23.7678C9.64502 23.4497 9.92116 23.4537 10.3201 23.6382C11.1242 24.0103 11.9506 24.3451 12.7922 24.6298C13.2338 24.779 13.4277 24.9911 13.4135 25.4388C13.3922 26.1094 13.4216 26.7809 13.4033 27.4505C13.3932 27.8402 13.5211 28.0248 13.9566 27.9983C14.4287 27.9698 14.9038 27.9904 15.3769 27.9934C15.7271 27.9963 15.9921 28.1357 15.981 28.5029C15.9708 28.8416 15.7211 28.9644 15.386 28.9604C14.8277 28.9536 14.2693 28.9683 13.7109 28.9555C12.9201 28.9378 12.4267 28.4666 12.4003 27.69C12.38 27.1019 12.382 26.5119 12.4003 25.9238C12.4094 25.6469 12.3028 25.5262 12.0369 25.4329C11.4348 25.2218 10.8399 24.9852 10.2602 24.7231C10.0227 24.6161 9.87345 24.6171 9.69071 24.8046C9.28361 25.2199 8.86128 25.6214 8.43591 26.02C7.79125 26.6228 7.10497 26.6346 6.47249 26.0367C5.65017 25.2591 4.838 24.4718 4.03599 23.6755C3.44006 23.0845 3.45427 22.4081 4.05528 21.8102C4.52633 21.3409 5.00754 20.8814 5.48266 20.416C5.505 20.3945 5.51413 20.3591 5.51007 20.367H5.50703Z" fill="#E74860"/>
<path d="M20.3453 14.2284C22.0183 14.2284 23.6924 14.2215 25.3655 14.2343C25.7056 14.2372 25.8995 14.1763 26.0386 13.8239C26.4985 12.6536 27.6842 12.042 28.9268 12.2776C30.1248 12.5054 31.0111 13.5549 30.9999 14.731C30.9887 15.8709 30.1146 16.9214 28.9938 17.1423C27.6944 17.3985 26.4964 16.7869 26.0254 15.5773C25.8954 15.2435 25.7107 15.1895 25.3898 15.1905C22.128 15.1994 18.8651 15.1954 15.6032 15.1954C15.4682 15.1954 15.3322 15.1915 15.1971 15.1954C14.8276 15.2072 14.4794 15.1503 14.4916 14.7006C14.5037 14.2569 14.8611 14.2166 15.2245 14.2264C15.3931 14.2313 15.5626 14.2264 15.7311 14.2264C17.2692 14.2264 18.8072 14.2264 20.3453 14.2264V14.2284ZM28.3949 13.2073C27.534 13.2162 26.8599 13.8769 26.8589 14.7124C26.8578 15.5636 27.5644 16.2391 28.4426 16.2263C29.2903 16.2135 29.9887 15.5341 29.9918 14.7173C29.9948 13.8857 29.2679 13.1985 28.3949 13.2073Z" fill="#E74860"/>
<path d="M19.8442 22.2002C18.7853 22.2002 17.7721 22.2414 16.765 22.1874C15.9275 22.1432 15.0656 22.0902 14.2676 21.8644C10.7012 20.8571 8.54385 17.47 9.08191 13.8266C9.58951 10.3875 12.7357 7.75828 16.3833 7.73178C17.5132 7.72392 18.6421 7.73079 19.8086 7.73079V5.93906C18.1569 5.16444 17.5092 4.14241 17.8543 2.84942C18.167 1.67816 19.235 0.911397 20.4837 0.963431C21.6482 1.01154 22.6644 1.86077 22.8695 2.95643C23.1213 4.30342 22.4472 5.31465 20.8502 5.92924C20.8502 6.61059 20.8553 7.31158 20.8492 8.01158C20.8451 8.5329 20.6949 8.6841 20.1538 8.68704C19.0036 8.6949 17.8523 8.71748 16.7041 8.6841C13.025 8.57708 10.0332 11.3967 9.98951 14.8879C9.94484 18.4292 12.826 21.1919 16.6056 21.2439C17.7721 21.2596 18.9396 21.2439 20.1071 21.2488C20.7406 21.2518 20.8472 21.3578 20.8512 21.9665C20.8553 22.4898 20.8705 23.0141 20.8462 23.5364C20.8299 23.8741 20.9233 24.0449 21.2827 24.1726C22.4543 24.5869 23.0847 25.7179 22.8766 26.9274C22.6898 28.0162 21.705 28.8802 20.5781 28.9459C19.2827 29.0215 18.2391 28.3274 17.8878 27.1562C17.5122 25.9044 18.1792 24.6153 19.4797 24.15C19.7731 24.0449 19.8675 23.9124 19.8533 23.6257C19.832 23.1721 19.8472 22.7166 19.8472 22.1982L19.8442 22.2002ZM18.7924 3.43946C18.7914 4.28575 19.5061 4.97888 20.369 4.96612C21.2187 4.95336 21.901 4.28084 21.904 3.45124C21.9081 2.59907 21.2086 1.92459 20.3294 1.93342C19.4766 1.94226 18.7934 2.61085 18.7924 3.43946ZM21.904 26.464C21.8949 25.6069 21.1944 24.9521 20.3081 24.9727C19.4503 24.9923 18.7873 25.658 18.7934 26.4954C18.7995 27.3456 19.5051 28.0054 20.3903 27.9877C21.2451 27.971 21.9132 27.2995 21.904 26.464Z" stroke="#E74860" mask="url(#path-1-outside-1_6521_244289)"/>
<path d="M5.50703 20.367C5.20754 19.6287 4.9314 18.911 4.61872 18.208C4.56491 18.0873 4.35984 17.9626 4.21872 17.9557C3.61061 17.9282 3.00149 17.9469 2.39236 17.942C1.56598 17.9351 1.03299 17.4697 1.01675 16.6863C0.994416 15.5415 0.994416 14.3958 1.01675 13.2511C1.03198 12.4676 1.56293 11.9895 2.38322 11.9757C2.97509 11.9659 3.56797 11.963 4.15883 11.9777C4.43496 11.9846 4.56897 11.906 4.66745 11.6341C4.8847 11.0352 5.1781 10.4609 5.40347 9.86395C5.45627 9.72454 5.42378 9.48204 5.32632 9.37699C4.92125 8.93912 4.46948 8.54052 4.04715 8.11639C3.43498 7.50082 3.44209 6.82242 4.06543 6.21077C4.83699 5.45382 5.61261 4.69982 6.39432 3.95269C7.10598 3.27331 7.78922 3.28705 8.50799 3.98018C8.95163 4.40725 9.39528 4.83433 9.83994 5.25943C9.86329 5.28103 9.89781 5.29281 9.91405 5.30165C10.6714 5.01006 11.4247 4.73222 12.1648 4.42296C12.2744 4.37682 12.3759 4.18439 12.381 4.05578C12.4044 3.48439 12.3851 2.91103 12.3932 2.33866C12.4064 1.45113 12.8998 0.973011 13.8054 0.963193C14.3292 0.957303 14.8541 0.965157 15.3789 0.962211C15.7109 0.960248 15.9657 1.08493 15.9759 1.42266C15.986 1.78297 15.7393 1.93515 15.3779 1.9322C14.8876 1.92828 14.3962 1.94889 13.9069 1.92631C13.5221 1.90864 13.3972 2.07162 13.4033 2.41916C13.4145 3.1064 13.3922 3.79365 13.4115 4.4799C13.4236 4.92072 13.25 5.1426 12.7993 5.2938C11.9414 5.58145 11.1008 5.92704 10.2805 6.306C9.88969 6.48665 9.62776 6.45622 9.33945 6.16561C8.82473 5.64625 8.28261 5.15242 7.76892 4.63208C7.51511 4.37486 7.33034 4.42591 7.09583 4.65859C6.36386 5.38412 5.62378 6.10278 4.86846 6.80671C4.58623 7.06982 4.571 7.26912 4.86135 7.53518C5.38926 8.01822 5.88468 8.53463 6.41259 9.01864C6.72629 9.30532 6.71208 9.57236 6.5395 9.93562C6.1527 10.7485 5.79433 11.5771 5.47962 12.4195C5.34155 12.7896 5.15272 12.9536 4.75273 12.9467C4.02583 12.933 3.29793 12.9556 2.57104 12.9389C2.19033 12.93 2.0076 13.0518 2.01267 13.4425C2.02485 14.4567 2.02587 15.4709 2.01267 16.485C2.0076 16.8777 2.18729 16.9936 2.57002 16.9838C3.29691 16.9641 4.02482 16.9877 4.75171 16.9749C5.15373 16.9671 5.3385 17.1399 5.47759 17.5051C5.80245 18.3602 6.16996 19.2026 6.56183 20.0312C6.72934 20.3866 6.69888 20.6379 6.41259 20.904C5.87656 21.4027 5.36693 21.928 4.82988 22.4257C4.57405 22.6633 4.58623 22.8538 4.82887 23.0845C5.60043 23.8189 6.36691 24.5572 7.12629 25.3033C7.35674 25.5301 7.53948 25.5232 7.76384 25.3004C8.28261 24.784 8.82575 24.2911 9.33538 23.7678C9.64502 23.4497 9.92116 23.4537 10.3201 23.6382C11.1242 24.0103 11.9506 24.3451 12.7922 24.6298C13.2338 24.779 13.4277 24.9911 13.4135 25.4388C13.3922 26.1094 13.4216 26.7809 13.4033 27.4505C13.3932 27.8402 13.5211 28.0248 13.9566 27.9983C14.4287 27.9698 14.9038 27.9904 15.3769 27.9934C15.7271 27.9963 15.9921 28.1357 15.981 28.5029C15.9708 28.8416 15.7211 28.9644 15.386 28.9604C14.8277 28.9536 14.2693 28.9683 13.7109 28.9555C12.9201 28.9378 12.4267 28.4666 12.4003 27.69C12.38 27.1019 12.382 26.5119 12.4003 25.9238C12.4094 25.6469 12.3028 25.5262 12.0369 25.4329C11.4348 25.2218 10.8399 24.9852 10.2602 24.7231C10.0227 24.6161 9.87345 24.6171 9.69071 24.8046C9.28361 25.2199 8.86128 25.6214 8.43591 26.02C7.79125 26.6228 7.10497 26.6346 6.47249 26.0367C5.65017 25.2591 4.838 24.4718 4.03599 23.6755C3.44006 23.0845 3.45427 22.4081 4.05528 21.8102C4.52633 21.3409 5.00754 20.8814 5.48266 20.416C5.505 20.3945 5.51413 20.3591 5.51007 20.367H5.50703Z" stroke="#E74860" mask="url(#path-1-outside-1_6521_244289)"/>
<path d="M20.3453 14.2284C22.0183 14.2284 23.6924 14.2215 25.3655 14.2343C25.7056 14.2372 25.8995 14.1763 26.0386 13.8239C26.4985 12.6536 27.6842 12.042 28.9268 12.2776C30.1248 12.5054 31.0111 13.5549 30.9999 14.731C30.9887 15.8709 30.1146 16.9214 28.9938 17.1423C27.6944 17.3985 26.4964 16.7869 26.0254 15.5773C25.8954 15.2435 25.7107 15.1895 25.3898 15.1905C22.128 15.1994 18.8651 15.1954 15.6032 15.1954C15.4682 15.1954 15.3322 15.1915 15.1971 15.1954C14.8276 15.2072 14.4794 15.1503 14.4916 14.7006C14.5037 14.2569 14.8611 14.2166 15.2245 14.2264C15.3931 14.2313 15.5626 14.2264 15.7311 14.2264C17.2692 14.2264 18.8072 14.2264 20.3453 14.2264V14.2284ZM28.3949 13.2073C27.534 13.2162 26.8599 13.8769 26.8589 14.7124C26.8578 15.5636 27.5644 16.2391 28.4426 16.2263C29.2903 16.2135 29.9887 15.5341 29.9918 14.7173C29.9948 13.8857 29.2679 13.1985 28.3949 13.2073Z" stroke="#E74860" mask="url(#path-1-outside-1_6521_244289)"/>
</svg>
