<svg width="33" height="30" viewBox="0 0 33 30" fill="none" xmlns="http://www.w3.org/2000/svg">
<path d="M26.0079 6.31051C21.23 0.231368 12.4287 -0.823558 6.34957 3.95427C0.27043 8.7321 -0.784495 17.5334 3.99333 23.6126C8.77116 29.6917 17.5725 30.7466 23.6516 25.9688C26.4708 23.7531 28.2094 20.6721 28.787 17.3987M32.2128 19.2402L29.3292 15.5711C28.7983 14.8957 27.8204 14.7785 27.1449 15.3093L23.4758 18.193M14.9998 16.9597C17.7612 16.9597 19.9998 14.7211 19.9998 11.9597C19.9998 9.19824 17.7612 6.95966 14.9998 6.95966C12.2384 6.95966 9.99982 9.19824 9.99982 11.9597C9.99982 14.7211 12.2384 16.9597 14.9998 16.9597ZM14.9998 16.9597C10.5815 16.9597 8 18.6472 8 21.9609" stroke="#E74860" stroke-linecap="round"/>
</svg>
