<svg width="18" height="18" viewBox="0 0 18 18" fill="none" xmlns="http://www.w3.org/2000/svg">
<g id="menu-icons">
<g id="Icon">
<path d="M12 9C12 10.6569 10.6569 12 9 12C7.34315 12 6 10.6569 6 9C6 7.34315 7.34315 6 9 6C10.6569 6 12 7.34315 12 9Z" stroke="white"/>
<path d="M10.5 2.63602C10.5 2.00862 9.99138 1.5 9.36398 1.5H8.636C8.0086 1.5 7.5 2.0086 7.5 2.636C7.5 3.64806 6.27635 4.15488 5.56071 3.43925C5.11707 2.9956 4.39777 2.99559 3.95413 3.43924L3.43942 3.95395C2.99575 4.39761 2.99575 5.11693 3.43942 5.5606C4.15511 6.27629 3.64822 7.5 2.63608 7.5C2.00864 7.5 1.5 8.00864 1.5 8.63608V9.36398C1.5 9.99138 2.00862 10.5 2.63603 10.5C3.64811 10.5 4.15498 11.7237 3.43933 12.4393C2.99569 12.8829 2.99569 13.6022 3.43933 14.0459L3.95406 14.5606C4.39771 15.0043 5.11701 15.0043 5.56066 14.5606C6.27633 13.8449 7.5 14.3518 7.5 15.3639C7.5 15.9914 8.00863 16.5 8.63605 16.5H9.36392C9.99136 16.5 10.5 15.9913 10.5 15.3639C10.5 14.3518 11.7237 13.8449 12.4394 14.5606C12.883 15.0042 13.6024 15.0042 14.046 14.5606L14.5607 14.0458C15.0044 13.6022 15.0044 12.8829 14.5607 12.4393C13.8451 11.7236 14.3519 10.5 15.364 10.5C15.9914 10.5 16.5 9.9914 16.5 9.364V8.63605C16.5 8.00863 15.9914 7.5 15.3639 7.5C14.3518 7.5 13.845 6.2763 14.5606 5.56063C15.0043 5.11697 15.0043 4.39765 14.5606 3.95399L14.0459 3.43929C13.6023 2.99564 12.883 2.99565 12.4393 3.4393C11.7237 4.15495 10.5 3.64811 10.5 2.63602Z" stroke="white"/>
</g>
</g>
</svg>
