<svg width="19" height="18" viewBox="0 0 19 18" fill="none" xmlns="http://www.w3.org/2000/svg">
<g id="layout/box" clip-path="url(#clip0_4356_83814)">
<path id="Icon" d="M3.29754 16.8413L3.52453 16.3958L3.29754 16.8413ZM1.65873 15.2025L2.10423 14.9755L1.65873 15.2025ZM17.3413 15.2025L16.8958 14.9755L17.3413 15.2025ZM15.7025 16.8413L15.4755 16.3958L15.7025 16.8413ZM15.7025 1.15873L15.4755 1.60423L15.7025 1.15873ZM17.3413 2.79754L16.8958 3.02453L17.3413 2.79754ZM3.29754 1.15873L3.52453 1.60423L3.29754 1.15873ZM1.65873 2.79754L2.10423 3.02453L1.65873 2.79754ZM11.75 4C11.4739 4 11.25 4.22386 11.25 4.5C11.25 4.77614 11.4739 5 11.75 5V4ZM14.75 5C15.0261 5 15.25 4.77614 15.25 4.5C15.25 4.22386 15.0261 4 14.75 4V5ZM11.75 7C11.4739 7 11.25 7.22386 11.25 7.5C11.25 7.77614 11.4739 8 11.75 8V7ZM14.75 8C15.0261 8 15.25 7.77614 15.25 7.5C15.25 7.22386 15.0261 7 14.75 7V8ZM11.75 10C11.4739 10 11.25 10.2239 11.25 10.5C11.25 10.7761 11.4739 11 11.75 11V10ZM14.75 11C15.0261 11 15.25 10.7761 15.25 10.5C15.25 10.2239 15.0261 10 14.75 10V11ZM4.25 13C3.97386 13 3.75 13.2239 3.75 13.5C3.75 13.7761 3.97386 14 4.25 14V13ZM14.75 14C15.0261 14 15.25 13.7761 15.25 13.5C15.25 13.2239 15.0261 13 14.75 13V14ZM4.65951 10.4183L4.8865 9.97275L4.65951 10.4183ZM4.33175 10.0905L4.77725 9.8635L4.33175 10.0905ZM8.66825 10.0905L8.22275 9.8635L8.66825 10.0905ZM8.34049 10.4183L8.1135 9.97275L8.34049 10.4183ZM8.34049 4.58175L8.1135 5.02725L8.34049 4.58175ZM8.66825 4.90951L8.22275 5.1365L8.66825 4.90951ZM4.65951 4.58175L4.8865 5.02725L4.65951 4.58175ZM4.33175 4.90951L4.77725 5.1365L4.33175 4.90951ZM7.25 1.25H11.75V0.25H7.25V1.25ZM17.25 6.75V11.25H18.25V6.75H17.25ZM11.75 16.75H7.25V17.75H11.75V16.75ZM1.75 11.25V6.75H0.75V11.25H1.75ZM7.25 16.75C6.19165 16.75 5.42796 16.7496 4.82772 16.7006C4.23332 16.652 3.84338 16.5582 3.52453 16.3958L3.07054 17.2868C3.55386 17.533 4.09005 17.6436 4.74629 17.6972C5.3967 17.7504 6.20815 17.75 7.25 17.75V16.75ZM0.75 11.25C0.75 12.2918 0.749611 13.1033 0.802751 13.7537C0.856368 14.4099 0.966959 14.9461 1.21322 15.4295L2.10423 14.9755C1.94177 14.6566 1.84799 14.2667 1.79943 13.6723C1.75039 13.072 1.75 12.3083 1.75 11.25H0.75ZM3.52453 16.3958C2.913 16.0842 2.41582 15.587 2.10423 14.9755L1.21322 15.4295C1.62068 16.2291 2.27085 16.8793 3.07054 17.2868L3.52453 16.3958ZM17.25 11.25C17.25 12.3083 17.2496 13.072 17.2006 13.6723C17.152 14.2667 17.0582 14.6566 16.8958 14.9755L17.7868 15.4295C18.033 14.9461 18.1436 14.4099 18.1972 13.7537C18.2504 13.1033 18.25 12.2918 18.25 11.25H17.25ZM11.75 17.75C12.7918 17.75 13.6033 17.7504 14.2537 17.6972C14.9099 17.6436 15.4461 17.533 15.9295 17.2868L15.4755 16.3958C15.1566 16.5582 14.7667 16.652 14.1723 16.7006C13.572 16.7496 12.8083 16.75 11.75 16.75V17.75ZM16.8958 14.9755C16.5842 15.587 16.087 16.0842 15.4755 16.3958L15.9295 17.2868C16.7291 16.8793 17.3793 16.2291 17.7868 15.4295L16.8958 14.9755ZM11.75 1.25C12.8083 1.25 13.572 1.25039 14.1723 1.29943C14.7667 1.34799 15.1566 1.44177 15.4755 1.60423L15.9295 0.713222C15.4461 0.466959 14.9099 0.356368 14.2537 0.302751C13.6033 0.249611 12.7918 0.25 11.75 0.25V1.25ZM18.25 6.75C18.25 5.70815 18.2504 4.8967 18.1972 4.24629C18.1436 3.59005 18.033 3.05386 17.7868 2.57054L16.8958 3.02453C17.0582 3.34338 17.152 3.73332 17.2006 4.32772C17.2496 4.92796 17.25 5.69165 17.25 6.75H18.25ZM15.4755 1.60423C16.087 1.91582 16.5842 2.413 16.8958 3.02453L17.7868 2.57054C17.3793 1.77085 16.7291 1.12068 15.9295 0.713222L15.4755 1.60423ZM7.25 0.25C6.20815 0.25 5.3967 0.249611 4.74629 0.302751C4.09005 0.356368 3.55386 0.466959 3.07054 0.713222L3.52453 1.60423C3.84338 1.44177 4.23332 1.34799 4.82772 1.29943C5.42796 1.25039 6.19165 1.25 7.25 1.25V0.25ZM1.75 6.75C1.75 5.69165 1.75039 4.92796 1.79943 4.32772C1.84799 3.73332 1.94177 3.34338 2.10423 3.02453L1.21322 2.57054C0.966959 3.05386 0.856368 3.59005 0.802751 4.24629C0.749611 4.8967 0.75 5.70815 0.75 6.75H1.75ZM3.07054 0.713222C2.27085 1.12068 1.62068 1.77085 1.21322 2.57054L2.10423 3.02453C2.41582 2.413 2.913 1.91582 3.52453 1.60423L3.07054 0.713222ZM11.75 5L14.75 5V4L11.75 4V5ZM11.75 8L14.75 8V7L11.75 7V8ZM11.75 11L14.75 11V10L11.75 10V11ZM4.25 14L14.75 14V13L4.25 13V14ZM5.45 5H7.55V4H5.45V5ZM8.25 5.7V9.3H9.25V5.7H8.25ZM7.55 10H5.45V11H7.55V10ZM4.75 9.3V5.7H3.75V9.3H4.75ZM5.45 10C5.23173 10 5.0981 9.99961 4.99812 9.99144C4.95154 9.98764 4.92336 9.98286 4.90625 9.97883C4.89811 9.97691 4.8931 9.9753 4.89039 9.97434C4.88779 9.97341 4.8867 9.97285 4.8865 9.97275L4.43251 10.8638C4.59496 10.9465 4.7607 10.9754 4.91669 10.9881C5.06683 11.0004 5.24823 11 5.45 11V10ZM3.75 9.3C3.75 9.50177 3.74961 9.68317 3.76188 9.83331C3.77462 9.9893 3.80347 10.155 3.88624 10.3175L4.77725 9.8635C4.77715 9.8633 4.77659 9.86221 4.77566 9.85961C4.7747 9.8569 4.77309 9.85189 4.77117 9.84375C4.76714 9.82664 4.76236 9.79846 4.75856 9.75188C4.75039 9.6519 4.75 9.51827 4.75 9.3H3.75ZM4.8865 9.97275C4.83946 9.94878 4.80122 9.91054 4.77725 9.8635L3.88624 10.3175C4.00608 10.5527 4.19731 10.7439 4.43251 10.8638L4.8865 9.97275ZM8.25 9.3C8.25 9.51827 8.24961 9.6519 8.24144 9.75188C8.23764 9.79846 8.23286 9.82664 8.22883 9.84375C8.22691 9.85189 8.2253 9.8569 8.22434 9.85961C8.22341 9.86221 8.22285 9.8633 8.22275 9.8635L9.11376 10.3175C9.19653 10.155 9.22538 9.9893 9.23812 9.83331C9.25039 9.68317 9.25 9.50177 9.25 9.3H8.25ZM7.55 11C7.75177 11 7.93317 11.0004 8.08331 10.9881C8.2393 10.9754 8.40504 10.9465 8.56749 10.8638L8.1135 9.97275C8.1133 9.97285 8.11221 9.97341 8.10961 9.97434C8.1069 9.9753 8.10189 9.97691 8.09375 9.97883C8.07664 9.98286 8.04846 9.98764 8.00188 9.99144C7.9019 9.99961 7.76827 10 7.55 10V11ZM8.22275 9.8635C8.19878 9.91054 8.16054 9.94878 8.1135 9.97275L8.56749 10.8638C8.80269 10.7439 8.99392 10.5527 9.11376 10.3175L8.22275 9.8635ZM7.55 5C7.76827 5 7.9019 5.00039 8.00188 5.00856C8.04846 5.01236 8.07664 5.01714 8.09375 5.02117C8.10189 5.02309 8.1069 5.0247 8.10961 5.02566C8.11221 5.02659 8.1133 5.02715 8.1135 5.02725L8.56749 4.13624C8.40504 4.05347 8.2393 4.02462 8.08331 4.01188C7.93317 3.99961 7.75177 4 7.55 4V5ZM9.25 5.7C9.25 5.49823 9.25039 5.31683 9.23812 5.16669C9.22538 5.0107 9.19653 4.84496 9.11376 4.68251L8.22275 5.1365C8.22285 5.1367 8.22341 5.13779 8.22434 5.14039C8.2253 5.1431 8.22691 5.14811 8.22883 5.15625C8.23286 5.17336 8.23764 5.20154 8.24144 5.24812C8.24961 5.3481 8.25 5.48173 8.25 5.7H9.25ZM8.1135 5.02725C8.16054 5.05122 8.19878 5.08946 8.22275 5.1365L9.11376 4.68251C8.99392 4.44731 8.80269 4.25608 8.56749 4.13624L8.1135 5.02725ZM5.45 4C5.24823 4 5.06683 3.99961 4.91669 4.01188C4.7607 4.02462 4.59496 4.05347 4.43251 4.13624L4.8865 5.02725C4.8867 5.02715 4.88779 5.02659 4.89039 5.02566C4.8931 5.0247 4.89811 5.02309 4.90625 5.02117C4.92336 5.01714 4.95154 5.01236 4.99812 5.00856C5.0981 5.00039 5.23173 5 5.45 5V4ZM4.75 5.7C4.75 5.48173 4.75039 5.3481 4.75856 5.24812C4.76236 5.20154 4.76714 5.17336 4.77117 5.15625C4.77309 5.14811 4.7747 5.1431 4.77566 5.14039C4.77659 5.13779 4.77715 5.1367 4.77725 5.1365L3.88624 4.68251C3.80347 4.84496 3.77462 5.0107 3.76188 5.16669C3.74961 5.31683 3.75 5.49823 3.75 5.7H4.75ZM4.43251 4.13624C4.19731 4.25608 4.00608 4.44731 3.88624 4.68251L4.77725 5.1365C4.80122 5.08946 4.83946 5.05122 4.8865 5.02725L4.43251 4.13624Z" fill="white"/>
</g>
<defs>
<clipPath id="clip0_4356_83814">
<rect width="18" height="18" fill="white" transform="translate(0.5)"/>
</clipPath>
</defs>
</svg>
