<svg width="19" height="18" viewBox="0 0 19 18" fill="none" xmlns="http://www.w3.org/2000/svg">
<g id="connections" clip-path="url(#clip0_4356_83804)">
<path id="Vector" d="M4.92308 8.92323H7.53846M14.0769 8.92323H11.4615M9.5 3.69246V2.38477M9.5 15.4617V14.154M2.30769 11.5386H3.61538C4.3376 11.5386 4.92308 10.9531 4.92308 10.2309V7.61553C4.92308 6.89332 4.3376 6.30784 3.61538 6.30784H2.30769C1.58547 6.30784 1 6.89332 1 7.61553V10.2309C1 10.9531 1.58547 11.5386 2.30769 11.5386ZM16.6923 11.5386H15.3846C14.6624 11.5386 14.0769 10.9531 14.0769 10.2309V7.61553C14.0769 6.89332 14.6624 6.30784 15.3846 6.30784H16.6923C17.4145 6.30784 18 6.89332 18 7.61553V10.2309C18 10.9531 17.4145 11.5386 16.6923 11.5386ZM8.84615 14.154H10.1538C10.8761 14.154 11.4615 13.5685 11.4615 12.8463V5.00015C11.4615 4.27793 10.8761 3.69246 10.1538 3.69246H8.84615C8.12394 3.69246 7.53846 4.27793 7.53846 5.00015V12.8463C7.53846 13.5685 8.12394 14.154 8.84615 14.154Z" stroke="white" stroke-linecap="round"/>
</g>
<defs>
<clipPath id="clip0_4356_83804">
<rect width="18" height="18" fill="white" transform="translate(0.5)"/>
</clipPath>
</defs>
</svg>
