<svg width="18" height="18" viewBox="0 0 18 18" fill="none" xmlns="http://www.w3.org/2000/svg">
<g id="bento menu 1">
<g id="Icon">
<path d="M2 3.12C2 2.72796 2 2.53194 2.0763 2.38221C2.14341 2.25049 2.25049 2.14341 2.38221 2.0763C2.53194 2 2.72796 2 3.12 2H6.48C6.87204 2 7.06806 2 7.21779 2.0763C7.34951 2.14341 7.45659 2.25049 7.5237 2.38221C7.6 2.53194 7.6 2.72796 7.6 3.12V6.48C7.6 6.87204 7.6 7.06806 7.5237 7.21779C7.45659 7.34951 7.34951 7.45659 7.21779 7.5237C7.06806 7.6 6.87204 7.6 6.48 7.6H3.12C2.72796 7.6 2.53194 7.6 2.38221 7.5237C2.25049 7.45659 2.14341 7.34951 2.0763 7.21779C2 7.06806 2 6.87204 2 6.48V3.12Z" stroke="white"/>
<path d="M2 11.52C2 11.128 2 10.9319 2.0763 10.7822C2.14341 10.6505 2.25049 10.5434 2.38221 10.4763C2.53194 10.4 2.72796 10.4 3.12 10.4H6.48C6.87204 10.4 7.06806 10.4 7.21779 10.4763C7.34951 10.5434 7.45659 10.6505 7.5237 10.7822C7.6 10.9319 7.6 11.128 7.6 11.52V14.88C7.6 15.272 7.6 15.4681 7.5237 15.6178C7.45659 15.7495 7.34951 15.8566 7.21779 15.9237C7.06806 16 6.87204 16 6.48 16H3.12C2.72796 16 2.53194 16 2.38221 15.9237C2.25049 15.8566 2.14341 15.7495 2.0763 15.6178C2 15.4681 2 15.272 2 14.88V11.52Z" stroke="white"/>
<path d="M10.4 3.12C10.4 2.72796 10.4 2.53194 10.4763 2.38221C10.5434 2.25049 10.6505 2.14341 10.7822 2.0763C10.9319 2 11.128 2 11.52 2H14.88C15.272 2 15.4681 2 15.6178 2.0763C15.7495 2.14341 15.8566 2.25049 15.9237 2.38221C16 2.53194 16 2.72796 16 3.12V6.48C16 6.87204 16 7.06806 15.9237 7.21779C15.8566 7.34951 15.7495 7.45659 15.6178 7.5237C15.4681 7.6 15.272 7.6 14.88 7.6H11.52C11.128 7.6 10.9319 7.6 10.7822 7.5237C10.6505 7.45659 10.5434 7.34951 10.4763 7.21779C10.4 7.06806 10.4 6.87204 10.4 6.48V3.12Z" stroke="white"/>
<path d="M10.4 11.52C10.4 11.128 10.4 10.9319 10.4763 10.7822C10.5434 10.6505 10.6505 10.5434 10.7822 10.4763C10.9319 10.4 11.128 10.4 11.52 10.4H14.88C15.272 10.4 15.4681 10.4 15.6178 10.4763C15.7495 10.5434 15.8566 10.6505 15.9237 10.7822C16 10.9319 16 11.128 16 11.52V14.88C16 15.272 16 15.4681 15.9237 15.6178C15.8566 15.7495 15.7495 15.8566 15.6178 15.9237C15.4681 16 15.272 16 14.88 16H11.52C11.128 16 10.9319 16 10.7822 15.9237C10.6505 15.8566 10.5434 15.7495 10.4763 15.6178C10.4 15.4681 10.4 15.272 10.4 14.88V11.52Z" stroke="white"/>
</g>
</g>
</svg>
