<svg width="24" height="24" viewBox="0 0 24 24" fill="none" xmlns="http://www.w3.org/2000/svg">
<path d="M5.48219 22.1642C6.42279 22.1632 7.3013 21.7064 7.82633 20.9455C8.35136 20.1844 8.4541 19.2187 8.10061 18.3688C7.7471 17.5189 6.98348 16.8959 6.0632 16.7065V14.5124C6.0632 14.2311 6.17779 13.9612 6.38179 13.7621C6.58594 13.5632 6.86264 13.4515 7.15119 13.4515H11.9667V16.7362C11.0631 16.9609 10.3311 17.6054 10.0098 18.4591C9.68858 19.3129 9.81942 20.2661 10.3598 21.0074C10.9 21.7486 11.7802 22.1826 12.7126 22.1675C13.645 22.1523 14.5099 21.69 15.0245 20.9316C15.5391 20.1731 15.6373 19.2162 15.2871 18.3733C14.937 17.5305 14.1832 16.9102 13.2723 16.7151V13.4515H18.1749C18.4634 13.4515 18.7401 13.5632 18.9443 13.7621C19.1483 13.9612 19.2629 14.2311 19.2629 14.5124V16.7065C18.3497 16.8913 17.5889 17.5031 17.2285 18.3419C16.8684 19.1807 16.9552 20.1386 17.4606 20.9028C17.9662 21.667 18.8255 22.1392 19.7576 22.165C20.6898 22.1907 21.575 21.7668 22.1242 21.0318C22.6733 20.2968 22.8155 19.345 22.5045 18.4877C22.1937 17.6304 21.4693 16.9775 20.5685 16.7426V14.5124C20.5685 13.8934 20.3163 13.2997 19.8674 12.8619C19.4186 12.4242 18.8096 12.1782 18.1749 12.1782H13.2723V8.09347C14.1832 7.89824 14.937 7.27793 15.2871 6.43509C15.6373 5.59226 15.5391 4.63523 15.0245 3.87678C14.5099 3.11849 13.645 2.65609 12.7126 2.64101C11.7802 2.62577 10.9 3.05976 10.3598 3.801C9.81943 4.54224 9.6886 5.49564 10.0098 6.34923C10.3311 7.20297 11.0631 7.84759 11.9667 8.07214V12.1781H7.15119C6.51643 12.1781 5.90747 12.4241 5.45863 12.8618C5.0098 13.2996 4.75754 13.8933 4.75754 14.5123V16.7425C3.8687 16.9766 3.15241 17.618 2.83732 18.4617C2.52222 19.3052 2.6479 20.2457 3.17429 20.9823C3.70052 21.719 4.56143 22.1598 5.48218 22.1641L5.48219 22.1642ZM14.1861 19.4057C14.1861 19.7995 14.0256 20.1774 13.74 20.456C13.4543 20.7345 13.067 20.891 12.6629 20.891C12.2589 20.891 11.8715 20.7345 11.5859 20.456C11.3002 20.1774 11.1398 19.7995 11.1398 19.4057C11.1398 19.0117 11.3002 18.6339 11.5859 18.3553C11.8715 18.0768 12.2589 17.9203 12.6629 17.9203C13.067 17.9203 13.4543 18.0768 13.74 18.3553C14.0257 18.6339 14.1861 19.0116 14.1861 19.4057ZM21.3668 19.4057C21.3668 19.7995 21.2064 20.1774 20.9207 20.456C20.6351 20.7345 20.2476 20.891 19.8436 20.891C19.4396 20.891 19.0523 20.7345 18.7666 20.456C18.4809 20.1774 18.3205 19.7995 18.3205 19.4057C18.3205 19.0117 18.4809 18.6339 18.7666 18.3553C19.0522 18.0768 19.4396 17.9203 19.8436 17.9203C20.2476 17.9203 20.635 18.0768 20.9207 18.3553C21.2064 18.6339 21.3668 19.0116 21.3668 19.4057ZM11.1397 5.4008C11.1397 5.00691 11.3002 4.62905 11.5858 4.35047C11.8714 4.0719 12.2588 3.91547 12.6629 3.91547C13.0669 3.91547 13.4543 4.07192 13.7399 4.35047C14.0256 4.62904 14.186 5.00691 14.186 5.4008C14.186 5.7948 14.0256 6.17254 13.7399 6.45112C13.4543 6.72969 13.0669 6.88612 12.6629 6.88612C12.2588 6.88612 11.8715 6.72967 11.5858 6.45112C11.3001 6.17256 11.1397 5.79483 11.1397 5.4008ZM5.48219 17.9203C5.88622 17.9203 6.27358 18.0767 6.55926 18.3553C6.84491 18.6339 7.00533 19.0116 7.00533 19.4056C7.00533 19.7995 6.8449 20.1774 6.55926 20.4559C6.2736 20.7345 5.88626 20.8909 5.48219 20.8909C5.07827 20.8909 4.6908 20.7345 4.40512 20.4559C4.11946 20.1774 3.95905 19.7995 3.95905 19.4056C3.95905 19.0116 4.11948 18.6339 4.40512 18.3553C4.69078 18.0767 5.07827 17.9203 5.48219 17.9203Z" fill="white"/>
</svg>
