<svg width="18" height="18" viewBox="0 0 18 18" fill="none" xmlns="http://www.w3.org/2000/svg">
<g id="menu-icons">
<path id="Vector" d="M8.50033 7.33333C8.50033 7.60948 8.72418 7.83333 9.00033 7.83333C9.27647 7.83333 9.50033 7.60948 9.50033 7.33333H8.50033ZM9.50033 4.66667C9.50033 4.39052 9.27647 4.16667 9.00033 4.16667C8.72418 4.16667 8.50033 4.39052 8.50033 4.66667H9.50033ZM11.167 10C11.167 10.2761 11.3909 10.5 11.667 10.5C11.9431 10.5 12.167 10.2761 12.167 10H11.167ZM12.167 4.66667C12.167 4.39052 11.9431 4.16667 11.667 4.16667C11.3909 4.16667 11.167 4.39052 11.167 4.66667H12.167ZM13.8337 10C13.8337 10.2761 14.0575 10.5 14.3337 10.5C14.6098 10.5 14.8337 10.2761 14.8337 10H13.8337ZM14.8337 6C14.8337 5.72386 14.6098 5.5 14.3337 5.5C14.0575 5.5 13.8337 5.72386 13.8337 6H14.8337ZM3.16699 6C3.16699 6.27614 3.39085 6.5 3.66699 6.5C3.94313 6.5 4.16699 6.27614 4.16699 6H3.16699ZM10.3337 12.1667C10.0575 12.1667 9.83366 12.3905 9.83366 12.6667C9.83366 12.9428 10.0575 13.1667 10.3337 13.1667V12.1667ZM7.69091 12.5909L8.14837 12.7928L8.15048 12.7879L7.69091 12.5909ZM7.81091 13.2527L7.45346 13.6024L7.45736 13.6063L7.81091 13.2527ZM7.83273 13.2745L7.47918 13.6281L7.47937 13.6283L7.83273 13.2745ZM7.83273 14.3036L7.47937 13.9499L7.47898 13.9503L7.83273 14.3036ZM6.80364 14.3036L7.15739 13.9503L7.15719 13.9501L6.80364 14.3036ZM6.78182 14.2818L7.1354 13.9282L7.13145 13.9244L6.78182 14.2818ZM6.12 14.1618L6.31698 14.6214L6.32188 14.6192L6.12 14.1618ZM5.75636 14.7109L5.25636 14.7089V14.7109H5.75636ZM4.30182 14.74H4.80196L4.80168 14.7283L4.30182 14.74ZM3.90909 14.1909L3.70721 14.6483C3.71685 14.6526 3.72661 14.6565 3.7365 14.6602L3.90909 14.1909ZM3.24727 14.3109L2.89762 13.9535L2.89372 13.9574L3.24727 14.3109ZM3.22545 14.3327L2.8719 13.9792L2.8717 13.9794L3.22545 14.3327ZM2.19636 14.3327L2.55011 13.9794L2.54972 13.979L2.19636 14.3327ZM1.98306 13.8182H2.48306H1.98306ZM2.19636 13.3036L2.54972 13.6574L2.54992 13.6572L2.19636 13.3036ZM2.21818 13.2818L2.57176 13.6354L2.57561 13.6315L2.21818 13.2818ZM2.33818 12.62L1.87859 12.817L1.88075 12.8219L2.33818 12.62ZM1.78909 12.2564L1.79109 11.7564H1.78909V12.2564ZM1 11.5291H0.5H1ZM1.76 10.8018V11.302L1.77169 11.3017L1.76 10.8018ZM2.30909 10.4091L1.85166 10.2072C1.84741 10.2168 1.84346 10.2266 1.83982 10.2365L2.30909 10.4091ZM2.18909 9.74727L2.54654 9.39762L2.54264 9.39372L2.18909 9.74727ZM2.16727 9.72545L2.52083 9.3719L2.52063 9.3717L2.16727 9.72545ZM2.16727 8.69636L2.52063 9.05011L2.52102 9.04972L2.16727 8.69636ZM3.19636 8.69636L2.84261 9.04972L2.84281 9.04992L3.19636 8.69636ZM3.21818 8.71818L2.86461 9.07176L2.86855 9.07561L3.21818 8.71818ZM3.88 8.83818V8.33818C3.81048 8.33818 3.74172 8.35268 3.67812 8.38075L3.88 8.83818ZM3.90909 8.83818V9.33818C3.97681 9.33818 4.04382 9.32443 4.10606 9.29775L3.90909 8.83818ZM4.27273 8.28909L4.77273 8.29109V8.28909H4.27273ZM5.72727 8.26H5.22727L5.22728 8.26199L5.72727 8.26ZM6.09091 8.80909L6.2928 8.35163L6.28787 8.34952L6.09091 8.80909ZM6.75273 8.68909L7.10238 9.04654L7.10628 9.04264L6.75273 8.68909ZM6.77455 8.66727L7.1281 9.02082L7.1283 9.02063L6.77455 8.66727ZM7.80364 8.66727L7.44989 9.02063L7.45028 9.02102L7.80364 8.66727ZM7.80364 9.69636L7.45028 9.34261L7.45008 9.34281L7.80364 9.69636ZM7.78182 9.71818L7.42824 9.36461L7.42439 9.36855L7.78182 9.71818ZM7.66182 10.38H8.16182C8.16182 10.3105 8.14732 10.2417 8.11925 10.1781L7.66182 10.38ZM7.66182 10.4091H7.16182C7.16182 10.4768 7.17557 10.5438 7.20225 10.6061L7.66182 10.4091ZM8.21091 10.7727L8.20892 11.2727H8.21091V10.7727ZM8.24 12.2273V11.7273L8.23801 11.7273L8.24 12.2273ZM9.50033 7.33333V4.66667H8.50033V7.33333H9.50033ZM12.167 10L12.167 4.66667H11.167L11.167 10H12.167ZM14.8337 10V6H13.8337V10H14.8337ZM5.00033 2.5H15.667V1.5H5.00033V2.5ZM16.5003 3.33333V11.3333H17.5003V3.33333H16.5003ZM16.5003 11.3333C16.5003 11.7936 16.1272 12.1667 15.667 12.1667V13.1667C16.6795 13.1667 17.5003 12.3459 17.5003 11.3333H16.5003ZM15.667 2.5C16.1272 2.5 16.5003 2.8731 16.5003 3.33333H17.5003C17.5003 2.32081 16.6795 1.5 15.667 1.5V2.5ZM5.00033 1.5C3.9878 1.5 3.16699 2.32081 3.16699 3.33333H4.16699C4.16699 2.8731 4.54009 2.5 5.00033 2.5V1.5ZM4.16699 6V3.33333H3.16699V6H4.16699ZM15.667 12.1667H10.3337V13.1667H15.667V12.1667ZM5.59091 11.5C5.59091 11.8264 5.32635 12.0909 5 12.0909V13.0909C5.87863 13.0909 6.59091 12.3786 6.59091 11.5H5.59091ZM5 12.0909C4.67365 12.0909 4.40909 11.8264 4.40909 11.5H3.40909C3.40909 12.3786 4.12137 13.0909 5 13.0909V12.0909ZM4.40909 11.5C4.40909 11.1736 4.67365 10.9091 5 10.9091V9.90909C4.12137 9.90909 3.40909 10.6214 3.40909 11.5H4.40909ZM5 10.9091C5.32635 10.9091 5.59091 11.1736 5.59091 11.5H6.59091C6.59091 10.6214 5.87863 9.90909 5 9.90909V10.9091ZM7.23348 12.389C7.14473 12.5901 7.11826 12.8132 7.15747 13.0294L8.14143 12.851C8.13787 12.8313 8.14027 12.8111 8.14834 12.7928L7.23348 12.389ZM7.15747 13.0294C7.19669 13.2457 7.29979 13.4452 7.45348 13.6024L8.16834 12.9031C8.15437 12.8888 8.145 12.8707 8.14143 12.851L7.15747 13.0294ZM7.45736 13.6063L7.47918 13.6281L8.18628 12.921L8.16446 12.8992L7.45736 13.6063ZM7.47937 13.6283C7.5005 13.6494 7.51726 13.6745 7.5287 13.7021L8.45248 13.3191C8.39072 13.1701 8.30019 13.0348 8.18608 12.9208L7.47937 13.6283ZM7.5287 13.7021C7.54014 13.7297 7.54603 13.7592 7.54603 13.7891H8.54603C8.54603 13.6278 8.51424 13.4681 8.45248 13.3191L7.5287 13.7021ZM7.54603 13.7891C7.54603 13.819 7.54014 13.8485 7.5287 13.8761L8.45248 14.2591C8.51424 14.1101 8.54603 13.9504 8.54603 13.7891H7.54603ZM7.5287 13.8761C7.51726 13.9037 7.5005 13.9288 7.47937 13.9499L8.18608 14.6574C8.30019 14.5434 8.39072 14.408 8.45248 14.2591L7.5287 13.8761ZM7.47898 13.9503C7.45787 13.9714 7.43281 13.9882 7.40521 13.9996L7.78815 14.9234C7.93714 14.8616 8.0725 14.7711 8.18648 14.657L7.47898 13.9503ZM7.40521 13.9996C7.37762 14.011 7.34805 14.0169 7.31818 14.0169V15.0169C7.47947 15.0169 7.63917 14.9851 7.78815 14.9234L7.40521 13.9996ZM7.31818 14.0169C7.28832 14.0169 7.25874 14.011 7.23115 13.9996L6.84821 14.9234C6.9972 14.9851 7.1569 15.0169 7.31818 15.0169V14.0169ZM7.23115 13.9996C7.20356 13.9882 7.17849 13.9714 7.15739 13.9503L6.44989 14.657C6.56387 14.7711 6.69922 14.8616 6.84821 14.9234L7.23115 13.9996ZM7.15719 13.9501L7.13538 13.9283L6.42826 14.6354L6.45008 14.6572L7.15719 13.9501ZM7.13145 13.9244C6.97433 13.7707 6.77477 13.6676 6.55851 13.6284L6.3801 14.6123C6.39976 14.6159 6.4179 14.6253 6.43219 14.6392L7.13145 13.9244ZM6.55851 13.6284C6.34225 13.5892 6.11919 13.6156 5.91812 13.7044L6.32188 14.6192C6.34016 14.6112 6.36044 14.6088 6.3801 14.6123L6.55851 13.6284ZM5.92303 13.7022C5.72585 13.7868 5.55769 13.9271 5.43924 14.1059L6.27298 14.6581C6.28375 14.6418 6.29904 14.6291 6.31697 14.6214L5.92303 13.7022ZM5.43924 14.1059C5.32079 14.2848 5.25722 14.4944 5.25637 14.7089L6.25636 14.7129C6.25644 14.6934 6.26222 14.6743 6.27298 14.6581L5.43924 14.1059ZM5.25636 14.7109V14.7727H6.25636V14.7109H5.25636ZM5.25636 14.7727C5.25636 14.833 5.23242 14.8908 5.1898 14.9334L5.8969 15.6405C6.12706 15.4104 6.25636 15.0982 6.25636 14.7727H5.25636ZM5.1898 14.9334C5.14718 14.9761 5.08937 15 5.02909 15V16C5.35458 16 5.66674 15.8707 5.8969 15.6405L5.1898 14.9334ZM5.02909 15C4.96881 15 4.91101 14.9761 4.86838 14.9334L4.16128 15.6405C4.39144 15.8707 4.7036 16 5.02909 16V15ZM4.86838 14.9334C4.82576 14.8908 4.80182 14.833 4.80182 14.7727H3.80182C3.80182 15.0982 3.93112 15.4104 4.16128 15.6405L4.86838 14.9334ZM4.80182 14.7727V14.74H3.80182V14.7727H4.80182ZM4.80168 14.7283C4.79652 14.5076 4.72509 14.2936 4.59669 14.1141L3.78332 14.6959C3.79499 14.7122 3.80149 14.7316 3.80195 14.7517L4.80168 14.7283ZM4.59669 14.1141C4.46828 13.9346 4.28884 13.7978 4.08168 13.7216L3.7365 14.6602C3.75533 14.6671 3.77165 14.6795 3.78332 14.6959L4.59669 14.1141ZM4.11097 13.7335C3.9099 13.6447 3.68684 13.6183 3.47058 13.6575L3.64899 14.6414C3.66865 14.6379 3.68893 14.6403 3.70721 14.6483L4.11097 13.7335ZM3.47058 13.6575C3.25432 13.6967 3.05476 13.7998 2.89764 13.9535L3.59691 14.6683C3.61119 14.6544 3.62933 14.645 3.64899 14.6414L3.47058 13.6575ZM2.89372 13.9574L2.8719 13.9792L3.57901 14.6863L3.60083 14.6645L2.89372 13.9574ZM2.8717 13.9794C2.8506 14.0005 2.82553 14.0173 2.79794 14.0287L3.18088 14.9525C3.32987 14.8907 3.46522 14.8002 3.5792 14.6861L2.8717 13.9794ZM2.79794 14.0287C2.77035 14.0401 2.74078 14.046 2.71091 14.046V15.046C2.87219 15.046 3.03189 15.0142 3.18088 14.9525L2.79794 14.0287ZM2.71091 14.046C2.68104 14.046 2.65147 14.0401 2.62388 14.0287L2.24094 14.9525C2.38992 15.0142 2.54963 15.046 2.71091 15.046V14.046ZM2.62388 14.0287C2.59629 14.0173 2.57122 14.0005 2.55011 13.9794L1.84261 14.6861C1.95659 14.8002 2.09195 14.8907 2.24094 14.9525L2.62388 14.0287ZM2.54972 13.979C2.52859 13.9579 2.51183 13.9328 2.50039 13.9052L1.57662 14.2882C1.63838 14.4371 1.7289 14.5725 1.84301 14.6865L2.54972 13.979ZM2.50039 13.9052C2.48895 13.8776 2.48306 13.848 2.48306 13.8182H1.48306C1.48306 13.9795 1.51485 14.1392 1.57662 14.2882L2.50039 13.9052ZM2.48306 13.8182C2.48306 13.7883 2.48895 13.7587 2.50039 13.7312L1.57662 13.3482C1.51485 13.4972 1.48306 13.6569 1.48306 13.8182H2.48306ZM2.50039 13.7312C2.51183 13.7036 2.52859 13.6785 2.54972 13.6574L1.84301 12.9499C1.7289 13.0639 1.63838 13.1992 1.57662 13.3482L2.50039 13.7312ZM2.54992 13.6572L2.57174 13.6354L1.86463 12.9283L1.84281 12.9501L2.54992 13.6572ZM2.57561 13.6315C2.7293 13.4743 2.8324 13.2748 2.87162 13.0585L1.88766 12.8801C1.8841 12.8998 1.87472 12.9179 1.86075 12.9322L2.57561 13.6315ZM2.87162 13.0585C2.91083 12.8422 2.88436 12.6192 2.79561 12.4181L1.88075 12.8219C1.88882 12.8402 1.89122 12.8604 1.88766 12.8801L2.87162 13.0585ZM2.79775 12.423C2.71324 12.2259 2.57292 12.0577 2.39406 11.9392L1.84191 12.773C1.85817 12.7838 1.87093 12.799 1.87861 12.817L2.79775 12.423ZM2.39406 11.9392C2.2152 11.8208 2.00561 11.7572 1.79109 11.7564L1.7871 12.7564C1.8066 12.7564 1.82565 12.7622 1.84191 12.773L2.39406 11.9392ZM1.78909 11.7564H1.72727V12.7564H1.78909V11.7564ZM1.72727 11.7564C1.667 11.7564 1.60919 11.7324 1.56657 11.6898L0.85946 12.3969C1.08962 12.6271 1.40178 12.7564 1.72727 12.7564V11.7564ZM1.56657 11.6898C1.52394 11.6472 1.5 11.5894 1.5 11.5291H0.5C0.5 11.8546 0.629302 12.1667 0.85946 12.3969L1.56657 11.6898ZM1.5 11.5291C1.5 11.4688 1.52394 11.411 1.56657 11.3684L0.85946 10.6613C0.629302 10.8914 0.5 11.2036 0.5 11.5291H1.5ZM1.56657 11.3684C1.60919 11.3258 1.667 11.3018 1.72727 11.3018V10.3018C1.40178 10.3018 1.08962 10.4311 0.85946 10.6613L1.56657 11.3684ZM1.72727 11.3018H1.76V10.3018H1.72727V11.3018ZM1.77169 11.3017C1.99236 11.2965 2.20636 11.2251 2.38589 11.0967L1.80414 10.2833C1.78782 10.295 1.76837 10.3015 1.74831 10.302L1.77169 11.3017ZM2.38589 11.0967C2.56542 10.9683 2.70217 10.7888 2.77836 10.5817L1.83982 10.2365C1.8329 10.2553 1.82046 10.2716 1.80414 10.2833L2.38589 11.0967ZM2.76652 10.611C2.85527 10.4099 2.88174 10.1868 2.84253 9.97058L1.85857 10.149C1.86213 10.1687 1.85973 10.1889 1.85166 10.2072L2.76652 10.611ZM2.84253 9.97058C2.80331 9.75432 2.70021 9.55476 2.54652 9.39764L1.83166 10.0969C1.84563 10.1112 1.855 10.1293 1.85857 10.149L2.84253 9.97058ZM2.54264 9.39372L2.52083 9.3719L1.81372 10.079L1.83554 10.1008L2.54264 9.39372ZM2.52063 9.3717C2.4995 9.3506 2.48273 9.32553 2.4713 9.29794L1.54752 9.68088C1.60929 9.82987 1.69981 9.96522 1.81392 10.0792L2.52063 9.3717ZM2.4713 9.29794C2.45986 9.27035 2.45397 9.24078 2.45397 9.21091H1.45397C1.45397 9.37219 1.48576 9.53189 1.54752 9.68088L2.4713 9.29794ZM2.45397 9.21091C2.45397 9.18104 2.45986 9.15147 2.4713 9.12388L1.54752 8.74094C1.48576 8.88993 1.45397 9.04963 1.45397 9.21091H2.45397ZM2.4713 9.12388C2.48273 9.09629 2.4995 9.07122 2.52063 9.05011L1.81392 8.34261C1.69981 8.45659 1.60929 8.59195 1.54752 8.74094L2.4713 9.12388ZM2.52102 9.04972C2.54213 9.02859 2.5672 9.01183 2.59479 9.00039L2.21185 8.07662C2.06286 8.13838 1.9275 8.2289 1.81352 8.34301L2.52102 9.04972ZM2.59479 9.00039C2.62238 8.98895 2.65195 8.98306 2.68182 8.98306V7.98306C2.52054 7.98306 2.36084 8.01485 2.21185 8.07662L2.59479 9.00039ZM2.68182 8.98306C2.71169 8.98306 2.74126 8.98895 2.76885 9.00039L3.15179 8.07662C3.0028 8.01485 2.8431 7.98306 2.68182 7.98306V8.98306ZM2.76885 9.00039C2.79644 9.01183 2.82151 9.02859 2.84261 9.04972L3.55011 8.34301C3.43613 8.2289 3.30078 8.13838 3.15179 8.07662L2.76885 9.00039ZM2.84281 9.04992L2.86463 9.07173L3.57174 8.36463L3.54992 8.34281L2.84281 9.04992ZM2.86855 9.07561C3.02567 9.2293 3.22523 9.3324 3.44149 9.37162L3.6199 8.38766C3.60024 8.3841 3.5821 8.37472 3.56781 8.36075L2.86855 9.07561ZM3.44149 9.37162C3.65775 9.41083 3.88081 9.38436 4.08188 9.29561L3.67812 8.38075C3.65984 8.38882 3.63956 8.39122 3.6199 8.38766L3.44149 9.37162ZM3.88 9.33818H3.90909V8.33818H3.88V9.33818ZM4.10606 9.29775C4.30324 9.21324 4.4714 9.07292 4.58985 8.89406L3.75611 8.34191C3.74534 8.35817 3.73005 8.37093 3.71213 8.37861L4.10606 9.29775ZM4.58985 8.89406C4.7083 8.7152 4.77187 8.50561 4.77272 8.29109L3.77273 8.2871C3.77265 8.3066 3.76688 8.32565 3.75611 8.34191L4.58985 8.89406ZM4.77273 8.28909V8.22727H3.77273V8.28909H4.77273ZM4.77273 8.22727C4.77273 8.167 4.79667 8.10919 4.83929 8.06657L4.13219 7.35946C3.90203 7.58962 3.77273 7.90178 3.77273 8.22727H4.77273ZM4.83929 8.06657C4.88192 8.02394 4.93972 8 5 8V7C4.67451 7 4.36235 7.1293 4.13219 7.35946L4.83929 8.06657ZM5 8C5.06028 8 5.11808 8.02394 5.16071 8.06657L5.86781 7.35946C5.63765 7.1293 5.32549 7 5 7V8ZM5.16071 8.06657C5.20333 8.10919 5.22727 8.167 5.22727 8.22727H6.22727C6.22727 7.90178 6.09797 7.58962 5.86781 7.35946L5.16071 8.06657ZM5.22727 8.22727V8.26H6.22727V8.22727H5.22727ZM5.22728 8.26199C5.22813 8.47652 5.2917 8.68611 5.41015 8.86497L6.24389 8.31282C6.23313 8.29656 6.22735 8.27751 6.22727 8.25801L5.22728 8.26199ZM5.41015 8.86497C5.5286 9.04383 5.69676 9.18415 5.89394 9.26866L6.28787 8.34952C6.26995 8.34184 6.25466 8.32908 6.24389 8.31282L5.41015 8.86497ZM5.88903 9.26652C6.0901 9.35527 6.31316 9.38174 6.52942 9.34253L6.35101 8.35857C6.33135 8.36213 6.31107 8.35973 6.29279 8.35166L5.88903 9.26652ZM6.52942 9.34253C6.74568 9.30331 6.94524 9.20021 7.10236 9.04652L6.4031 8.33166C6.38881 8.34563 6.37067 8.355 6.35101 8.35857L6.52942 9.34253ZM7.10628 9.04264L7.1281 9.02082L6.42099 8.31372L6.39917 8.33554L7.10628 9.04264ZM7.1283 9.02063C7.1494 8.9995 7.17447 8.98274 7.20206 8.9713L6.81912 8.04752C6.67013 8.10929 6.53478 8.19981 6.42079 8.31392L7.1283 9.02063ZM7.20206 8.9713C7.22965 8.95986 7.25922 8.95397 7.28909 8.95397V7.95397C7.12781 7.95397 6.96811 7.98576 6.81912 8.04752L7.20206 8.9713ZM7.28909 8.95397C7.31896 8.95397 7.34853 8.95986 7.37612 8.9713L7.75906 8.04752C7.61007 7.98576 7.45037 7.95397 7.28909 7.95397V8.95397ZM7.37612 8.9713C7.40371 8.98273 7.42878 8.9995 7.44989 9.02063L8.15739 8.31392C8.04341 8.19981 7.90805 8.10929 7.75906 8.04752L7.37612 8.9713ZM7.45028 9.02102C7.47141 9.04213 7.48817 9.0672 7.49961 9.09479L8.42338 8.71185C8.36162 8.56286 8.2711 8.4275 8.15699 8.31352L7.45028 9.02102ZM7.49961 9.09479C7.51105 9.12238 7.51694 9.15195 7.51694 9.18182H8.51694C8.51694 9.02053 8.48515 8.86083 8.42338 8.71185L7.49961 9.09479ZM7.51694 9.18182C7.51694 9.21168 7.51105 9.24126 7.49961 9.26885L8.42338 9.65179C8.48515 9.5028 8.51694 9.3431 8.51694 9.18182H7.51694ZM7.49961 9.26885C7.48818 9.29644 7.47141 9.3215 7.45028 9.34261L8.15699 10.0501C8.2711 9.93613 8.36162 9.80078 8.42338 9.65179L7.49961 9.26885ZM7.45008 9.34281L7.42826 9.36463L8.13538 10.0717L8.15719 10.0499L7.45008 9.34281ZM7.42439 9.36855C7.2707 9.52567 7.1676 9.72523 7.12838 9.94149L8.11234 10.1199C8.11591 10.1002 8.12528 10.0821 8.13925 10.0678L7.42439 9.36855ZM7.12838 9.94149C7.08917 10.1578 7.11564 10.3808 7.20439 10.5819L8.11925 10.1781C8.11118 10.1598 8.10878 10.1396 8.11234 10.1199L7.12838 9.94149ZM7.16182 10.38V10.4091H8.16182V10.38H7.16182ZM7.20225 10.6061C7.28676 10.8032 7.42708 10.9714 7.60594 11.0899L8.15809 10.2561C8.14183 10.2453 8.12907 10.2301 8.12139 10.2121L7.20225 10.6061ZM7.60594 11.0899C7.7848 11.2083 7.99439 11.2719 8.20892 11.2727L8.2129 10.2727C8.1934 10.2727 8.17435 10.2669 8.15809 10.2561L7.60594 11.0899ZM8.21091 11.2727H8.27273V10.2727H8.21091V11.2727ZM8.27273 11.2727C8.333 11.2727 8.39081 11.2967 8.43343 11.3393L9.14054 10.6322C8.91038 10.402 8.59822 10.2727 8.27273 10.2727V11.2727ZM8.43343 11.3393C8.47606 11.3819 8.5 11.4397 8.5 11.5H9.5C9.5 11.1745 9.3707 10.8623 9.14054 10.6322L8.43343 11.3393ZM8.5 11.5C8.5 11.5603 8.47606 11.6181 8.43343 11.6607L9.14054 12.3678C9.3707 12.1377 9.5 11.8255 9.5 11.5H8.5ZM8.43343 11.6607C8.39081 11.7033 8.333 11.7273 8.27273 11.7273V12.7273C8.59822 12.7273 8.91038 12.598 9.14054 12.3678L8.43343 11.6607ZM8.27273 11.7273H8.24V12.7273H8.27273V11.7273ZM8.23801 11.7273C8.02348 11.7281 7.81389 11.7917 7.63503 11.9101L8.18718 12.7439C8.20344 12.7331 8.22249 12.7273 8.24199 12.7273L8.23801 11.7273ZM7.63503 11.9101C7.45617 12.0286 7.31585 12.1968 7.23134 12.3939L8.15048 12.7879C8.15816 12.7699 8.17092 12.7547 8.18718 12.7439L7.63503 11.9101Z" fill="white"/>
</g>
</svg>
