<svg width="18" height="18" viewBox="0 0 18 18" fill="none" xmlns="http://www.w3.org/2000/svg">
<g id="menu-icons">
<path id="Icon" d="M9 12V15.75M9 15.75H13.5M9 15.75H4.5M5.25 6L6.48484 7.23484C6.63128 7.38128 6.63128 7.61872 6.48484 7.76517L5.25 9M8.25 9H9.75M4.65 12H13.35C14.1901 12 14.6101 12 14.931 11.8365C15.2132 11.6927 15.4427 11.4632 15.5865 11.181C15.75 10.8601 15.75 10.4401 15.75 9.6V4.65C15.75 3.80992 15.75 3.38988 15.5865 3.06901C15.4427 2.78677 15.2132 2.5573 14.931 2.41349C14.6101 2.25 14.1901 2.25 13.35 2.25H4.65C3.80992 2.25 3.38988 2.25 3.06901 2.41349C2.78677 2.5573 2.5573 2.78677 2.41349 3.06901C2.25 3.38988 2.25 3.80992 2.25 4.65V9.6C2.25 10.4401 2.25 10.8601 2.41349 11.181C2.5573 11.4632 2.78677 11.6927 3.06901 11.8365C3.38988 12 3.80992 12 4.65 12Z" stroke="white" stroke-opacity="0.85" stroke-linecap="round"/>
</g>
</svg>
