<svg width="24" height="24" viewBox="0 0 24 24" fill="none" xmlns="http://www.w3.org/2000/svg">
<path d="M4.48186 21.5046L4.20672 22.0446L4.48186 21.5046ZM2.49542 19.5181L1.95542 19.7933L2.49542 19.5181ZM21.5046 19.5181L22.0446 19.7933L21.5046 19.5181ZM19.5181 21.5046L19.7933 22.0446L19.5181 21.5046ZM19.5181 2.49542L19.7933 1.95542L19.5181 2.49542ZM21.5046 4.48186L22.0446 4.20672L21.5046 4.48186ZM4.48186 2.49542L4.20672 1.95542L4.48186 2.49542ZM2.49542 4.48186L1.95542 4.20672L2.49542 4.48186ZM14.7273 5.93939C14.3926 5.93939 14.1212 6.21074 14.1212 6.54546C14.1212 6.88017 14.3926 7.15152 14.7273 7.15152L14.7273 5.93939ZM18.3636 7.15152C18.6984 7.15152 18.9697 6.88017 18.9697 6.54546C18.9697 6.21074 18.6984 5.93939 18.3636 5.93939L18.3636 7.15152ZM14.7273 9.57576C14.3926 9.57576 14.1212 9.8471 14.1212 10.1818C14.1212 10.5165 14.3926 10.7879 14.7273 10.7879L14.7273 9.57576ZM18.3636 10.7879C18.6984 10.7879 18.9697 10.5165 18.9697 10.1818C18.9697 9.8471 18.6984 9.57576 18.3636 9.57576L18.3636 10.7879ZM14.7273 13.2121C14.3926 13.2121 14.1212 13.4835 14.1212 13.8182C14.1212 14.1529 14.3926 14.4242 14.7273 14.4242V13.2121ZM18.3636 14.4242C18.6984 14.4242 18.9697 14.1529 18.9697 13.8182C18.9697 13.4835 18.6984 13.2121 18.3636 13.2121V14.4242ZM5.63636 16.8485C5.30165 16.8485 5.0303 17.1198 5.0303 17.4545C5.0303 17.7893 5.30165 18.0606 5.63636 18.0606L5.63636 16.8485ZM18.3636 18.0606C18.6984 18.0606 18.9697 17.7893 18.9697 17.4545C18.9697 17.1198 18.6984 16.8485 18.3636 16.8485L18.3636 18.0606ZM6.13274 13.7191L6.40788 13.1791L6.13274 13.7191ZM5.73545 13.3218L6.27545 13.0467L5.73545 13.3218ZM10.9918 13.3218L10.4518 13.0467L10.9918 13.3218ZM10.5945 13.7191L10.3194 13.1791L10.5945 13.7191ZM10.5945 6.64454L10.3194 7.18454L10.5945 6.64454ZM10.9918 7.04183L10.4518 7.31697L10.9918 7.04183ZM6.13274 6.64454L6.40788 7.18454L6.13274 6.64454ZM5.73545 7.04183L6.27545 7.31697L5.73545 7.04183ZM9.27273 2.60606H14.7273V1.39394H9.27273V2.60606ZM21.3939 9.27273V14.7273H22.6061V9.27273H21.3939ZM14.7273 21.3939H9.27273V22.6061H14.7273V21.3939ZM2.60606 14.7273V9.27273H1.39394V14.7273H2.60606ZM9.27273 21.3939C7.98988 21.3939 7.06419 21.3935 6.33663 21.334C5.61615 21.2752 5.14349 21.1615 4.75701 20.9646L4.20672 22.0446C4.79256 22.3431 5.44249 22.4771 6.23793 22.5421C7.0263 22.6065 8.00988 22.6061 9.27273 22.6061V21.3939ZM1.39394 14.7273C1.39394 15.9901 1.39347 16.9737 1.45788 17.7621C1.52287 18.5575 1.65692 19.2074 1.95542 19.7933L3.03543 19.243C2.8385 18.8565 2.72484 18.3839 2.66598 17.6634C2.60653 16.9358 2.60606 16.0101 2.60606 14.7273H1.39394ZM4.75701 20.9646C4.01576 20.5869 3.41311 19.9842 3.03543 19.243L1.95542 19.7933C2.44931 20.7626 3.2374 21.5507 4.20672 22.0446L4.75701 20.9646ZM21.3939 14.7273C21.3939 16.0101 21.3935 16.9358 21.334 17.6634C21.2752 18.3839 21.1615 18.8565 20.9646 19.243L22.0446 19.7933C22.3431 19.2074 22.4771 18.5575 22.5421 17.7621C22.6065 16.9737 22.6061 15.9901 22.6061 14.7273H21.3939ZM14.7273 22.6061C15.9901 22.6061 16.9737 22.6065 17.7621 22.5421C18.5575 22.4771 19.2074 22.3431 19.7933 22.0446L19.243 20.9646C18.8565 21.1615 18.3839 21.2752 17.6634 21.334C16.9358 21.3935 16.0101 21.3939 14.7273 21.3939V22.6061ZM20.9646 19.243C20.5869 19.9842 19.9842 20.5869 19.243 20.9646L19.7933 22.0446C20.7626 21.5507 21.5507 20.7626 22.0446 19.7933L20.9646 19.243ZM14.7273 2.60606C16.0101 2.60606 16.9358 2.60653 17.6634 2.66598C18.3839 2.72484 18.8565 2.8385 19.243 3.03543L19.7933 1.95542C19.2074 1.65692 18.5575 1.52287 17.7621 1.45788C16.9737 1.39347 15.9901 1.39394 14.7273 1.39394V2.60606ZM22.6061 9.27273C22.6061 8.00988 22.6065 7.0263 22.5421 6.23793C22.4771 5.44249 22.3431 4.79256 22.0446 4.20672L20.9646 4.75701C21.1615 5.14349 21.2752 5.61615 21.334 6.33663C21.3935 7.06419 21.3939 7.98988 21.3939 9.27273H22.6061ZM19.243 3.03543C19.9842 3.41311 20.5869 4.01576 20.9646 4.75701L22.0446 4.20672C21.5507 3.2374 20.7626 2.44931 19.7933 1.95542L19.243 3.03543ZM9.27273 1.39394C8.00988 1.39394 7.0263 1.39347 6.23793 1.45788C5.44249 1.52287 4.79256 1.65692 4.20672 1.95542L4.75701 3.03543C5.14349 2.8385 5.61615 2.72484 6.33663 2.66598C7.06419 2.60653 7.98988 2.60606 9.27273 2.60606V1.39394ZM2.60606 9.27273C2.60606 7.98988 2.60653 7.06419 2.66598 6.33663C2.72484 5.61615 2.8385 5.14349 3.03543 4.75701L1.95542 4.20672C1.65692 4.79256 1.52287 5.44249 1.45788 6.23793C1.39347 7.0263 1.39394 8.00988 1.39394 9.27273H2.60606ZM4.20672 1.95542C3.2374 2.44931 2.44931 3.2374 1.95542 4.20672L3.03543 4.75701C3.41311 4.01576 4.01576 3.41311 4.75701 3.03543L4.20672 1.95542ZM14.7273 7.15152L18.3636 7.15152L18.3636 5.93939L14.7273 5.93939L14.7273 7.15152ZM14.7273 10.7879L18.3636 10.7879L18.3636 9.57576L14.7273 9.57576L14.7273 10.7879ZM14.7273 14.4242H18.3636V13.2121H14.7273V14.4242ZM5.63636 18.0606L18.3636 18.0606L18.3636 16.8485L5.63636 16.8485L5.63636 18.0606ZM7.09091 7.15152H9.63636V5.93939H7.09091V7.15152ZM10.4848 8V12.3636H11.697V8H10.4848ZM9.63636 13.2121H7.09091V14.4242H9.63636V13.2121ZM6.24242 12.3636V8H5.0303V12.3636H6.24242ZM7.09091 13.2121C6.82634 13.2121 6.66436 13.2117 6.54317 13.2017C6.48672 13.1971 6.45256 13.1913 6.43182 13.1865C6.42195 13.1841 6.41588 13.1822 6.4126 13.181C6.40945 13.1799 6.40813 13.1792 6.40788 13.1791L5.85759 14.2591C6.0545 14.3594 6.2554 14.3944 6.44447 14.4098C6.62647 14.4247 6.84634 14.4242 7.09091 14.4242V13.2121ZM5.0303 12.3636C5.0303 12.6082 5.02983 12.8281 5.0447 13.0101C5.06015 13.1992 5.09511 13.4 5.19545 13.597L6.27545 13.0467C6.27533 13.0464 6.27466 13.0451 6.27353 13.0419C6.27236 13.0387 6.27041 13.0326 6.26809 13.0227C6.2632 13.002 6.25741 12.9678 6.2528 12.9114C6.2429 12.7902 6.24242 12.6282 6.24242 12.3636H5.0303ZM6.40788 13.1791C6.35086 13.15 6.30451 13.1037 6.27545 13.0467L5.19545 13.597C5.34071 13.8821 5.5725 14.1138 5.85759 14.2591L6.40788 13.1791ZM10.4848 12.3636C10.4848 12.6282 10.4844 12.7902 10.4745 12.9114C10.4699 12.9678 10.4641 13.002 10.4592 13.0227C10.4569 13.0326 10.4549 13.0387 10.4537 13.0419C10.4526 13.0451 10.4519 13.0464 10.4518 13.0467L11.5318 13.597C11.6322 13.4 11.6671 13.1992 11.6826 13.0101C11.6974 12.8281 11.697 12.6082 11.697 12.3636H10.4848ZM9.63636 14.4242C9.88093 14.4242 10.1008 14.4247 10.2828 14.4098C10.4719 14.3944 10.6728 14.3594 10.8697 14.2591L10.3194 13.1791C10.3191 13.1792 10.3178 13.1799 10.3147 13.181C10.3114 13.1822 10.3053 13.1841 10.2955 13.1865C10.2747 13.1913 10.2406 13.1971 10.1841 13.2017C10.0629 13.2117 9.90093 13.2121 9.63636 13.2121V14.4242ZM10.4518 13.0467C10.4228 13.1037 10.3764 13.15 10.3194 13.1791L10.8697 14.2591C11.1548 14.1138 11.3866 13.8821 11.5318 13.597L10.4518 13.0467ZM9.63636 7.15152C9.90093 7.15152 10.0629 7.15199 10.1841 7.16189C10.2406 7.1665 10.2747 7.17229 10.2955 7.17718C10.3053 7.1795 10.3114 7.18145 10.3147 7.18262C10.3178 7.18375 10.3191 7.18442 10.3194 7.18454L10.8697 6.10454C10.6728 6.00421 10.4719 5.96924 10.2828 5.95379C10.1008 5.93892 9.88093 5.93939 9.63636 5.93939V7.15152ZM11.697 8C11.697 7.75543 11.6974 7.53556 11.6826 7.35356C11.6671 7.16449 11.6322 6.96359 11.5318 6.76668L10.4518 7.31697C10.4519 7.31722 10.4526 7.31854 10.4537 7.32169C10.4549 7.32497 10.4569 7.33104 10.4592 7.34091C10.4641 7.36165 10.4699 7.39581 10.4745 7.45226C10.4844 7.57345 10.4848 7.73543 10.4848 8H11.697ZM10.3194 7.18454C10.3764 7.2136 10.4228 7.25995 10.4518 7.31697L11.5318 6.76668C11.3866 6.48159 11.1548 6.2498 10.8697 6.10454L10.3194 7.18454ZM7.09091 5.93939C6.84634 5.93939 6.62646 5.93892 6.44447 5.95379C6.2554 5.96924 6.0545 6.00421 5.85759 6.10454L6.40788 7.18454C6.40813 7.18442 6.40945 7.18375 6.4126 7.18262C6.41588 7.18145 6.42195 7.1795 6.43182 7.17718C6.45256 7.17229 6.48672 7.1665 6.54317 7.16189C6.66436 7.15199 6.82634 7.15152 7.09091 7.15152V5.93939ZM6.24242 8C6.24242 7.73543 6.2429 7.57345 6.2528 7.45226C6.25741 7.39581 6.2632 7.36165 6.26809 7.34091C6.27041 7.33104 6.27236 7.32497 6.27353 7.32169C6.27466 7.31854 6.27533 7.31722 6.27545 7.31697L5.19545 6.76668C5.09511 6.96359 5.06015 7.16449 5.0447 7.35356C5.02983 7.53556 5.0303 7.75543 5.0303 8H6.24242ZM5.85759 6.10454C5.5725 6.2498 5.34071 6.48159 5.19545 6.76668L6.27545 7.31697C6.30451 7.25995 6.35086 7.2136 6.40788 7.18454L5.85759 6.10454Z" fill="white"/>
</svg>
