<svg width="24" height="24" viewBox="0 0 24 24" fill="none" xmlns="http://www.w3.org/2000/svg">
<mask id="path-1-outside-1_6455_255051" maskUnits="userSpaceOnUse" x="1.6665" y="1.66699" width="22" height="20" fill="black">
<rect fill="white" x="1.6665" y="1.66699" width="22" height="20"/>
<path d="M15.2293 16.8265C14.5234 16.8265 13.8479 16.854 13.1765 16.818C12.6182 16.7885 12.0435 16.7532 11.5116 16.6026C9.13395 15.9311 7.69574 13.673 8.05444 11.2441C8.39285 8.95135 10.4903 7.19856 12.922 7.18088C13.6753 7.17565 14.4279 7.18023 15.2056 7.18023V5.98574C14.1044 5.46933 13.6726 4.78798 13.9027 3.92598C14.1112 3.14514 14.8232 2.63397 15.6557 2.66865C16.432 2.70073 17.1094 3.26688 17.2462 3.99732C17.414 4.89532 16.9646 5.56947 15.9 5.97919C15.9 6.43343 15.9034 6.90075 15.8993 7.36742C15.8966 7.71497 15.7964 7.81577 15.4357 7.81773C14.6689 7.82296 13.9014 7.83802 13.1359 7.81577C10.6832 7.74442 8.68861 9.62419 8.65951 11.9516C8.62973 14.3125 10.5505 16.1543 13.0703 16.189C13.8479 16.1995 14.6262 16.189 15.4046 16.1923C15.8269 16.1942 15.898 16.2649 15.9007 16.6707C15.9034 17.0196 15.9135 17.3691 15.8973 17.7173C15.8865 17.9424 15.9487 18.0563 16.1883 18.1414C16.9693 18.4176 17.3896 19.1716 17.2509 19.978C17.1264 20.7038 16.4699 21.2798 15.7186 21.3237C14.855 21.3741 14.1592 20.9113 13.9251 20.1305C13.6746 19.296 14.1193 18.4366 14.9863 18.1264C15.1819 18.0563 15.2448 17.968 15.2354 17.7768C15.2212 17.4745 15.2313 17.1708 15.2313 16.8252L15.2293 16.8265ZM14.5281 4.31934C14.5274 4.88354 15.0039 5.34562 15.5792 5.33711C16.1457 5.32861 16.6005 4.88026 16.6025 4.3272C16.6052 3.75908 16.1389 3.30943 15.5528 3.31532C14.9843 3.32121 14.5288 3.76693 14.5281 4.31934ZM16.6025 19.669C16.5964 19.0977 16.1294 18.6611 15.5386 18.6748C14.9667 18.6879 14.5247 19.1317 14.5288 19.69C14.5328 20.2568 15.0032 20.6966 15.5934 20.6849C16.1633 20.6737 16.6086 20.226 16.6025 19.669Z"/>
<path d="M5.67119 15.6043C5.47153 15.1121 5.28744 14.6337 5.07898 14.1651C5.04311 14.0846 4.9064 14.0014 4.81232 13.9969C4.40691 13.9785 4.00083 13.991 3.59474 13.9877C3.04382 13.9831 2.6885 13.6729 2.67767 13.1506C2.66278 12.3874 2.66278 11.6236 2.67767 10.8604C2.68782 10.3381 3.04179 10.0194 3.58865 10.0102C3.98323 10.0037 4.37849 10.0017 4.77239 10.0115C4.95648 10.0161 5.04582 9.96373 5.11147 9.78243C5.25631 9.38317 5.4519 9.00028 5.60215 8.60233C5.63735 8.50939 5.61569 8.34773 5.55072 8.27769C5.28067 7.98578 4.97949 7.72005 4.69794 7.4373C4.28983 7.02692 4.29456 6.57465 4.71012 6.16688C5.2245 5.66225 5.74158 5.15958 6.26272 4.6615C6.73716 4.20857 7.19265 4.21773 7.67183 4.67982C7.96759 4.96454 8.26336 5.24925 8.5598 5.53266C8.57537 5.54706 8.59838 5.55491 8.60921 5.5608C9.1141 5.36641 9.6163 5.18118 10.1097 4.97501C10.1828 4.94425 10.2505 4.81596 10.2538 4.73022C10.2694 4.34929 10.2566 3.96705 10.262 3.58547C10.2708 2.99379 10.5997 2.67504 11.2034 2.6685C11.5526 2.66457 11.9025 2.6698 12.2525 2.66784C12.4738 2.66653 12.6437 2.74966 12.6504 2.97481C12.6572 3.21502 12.4927 3.31647 12.2518 3.3145C11.9249 3.31188 11.5973 3.32563 11.2711 3.31058C11.0146 3.29879 10.9313 3.40744 10.9354 3.63914C10.9428 4.0973 10.9279 4.55546 10.9408 5.01297C10.9489 5.30685 10.8332 5.45477 10.5327 5.55556C9.96079 5.74734 9.40039 5.97773 8.85353 6.23037C8.59296 6.3508 8.41835 6.33051 8.22613 6.13677C7.88299 5.79054 7.52158 5.46131 7.17911 5.11442C7.00991 4.94294 6.88673 4.97697 6.73039 5.13209C6.24241 5.61578 5.74902 6.09489 5.24548 6.56417C5.05732 6.73958 5.04717 6.87245 5.24074 7.04982C5.59268 7.37185 5.92296 7.71612 6.2749 8.0388C6.48403 8.22992 6.47456 8.40794 6.3595 8.65011C6.10164 9.19205 5.86272 9.74446 5.65291 10.306C5.56087 10.5528 5.43498 10.6621 5.16832 10.6575C4.68373 10.6484 4.19846 10.6634 3.71386 10.6523C3.46006 10.6464 3.33823 10.7275 3.34162 10.988C3.34974 11.6642 3.35042 12.3403 3.34162 13.0164C3.33823 13.2782 3.45803 13.3554 3.71319 13.3489C4.19778 13.3358 4.68305 13.3515 5.16764 13.343C5.43566 13.3378 5.55884 13.4529 5.65156 13.6964C5.86814 14.2665 6.11314 14.8281 6.37439 15.3805C6.48606 15.6174 6.46576 15.785 6.2749 15.9624C5.91755 16.2949 5.57779 16.645 5.21976 16.9769C5.0492 17.1353 5.05732 17.2622 5.21908 17.416C5.73345 17.9056 6.24444 18.3978 6.7507 18.8952C6.90433 19.0464 7.02616 19.0419 7.17573 18.8933C7.52158 18.549 7.88367 18.2204 8.22343 17.8716C8.42985 17.6595 8.61394 17.6621 8.87993 17.7852C9.41596 18.0333 9.96688 18.2564 10.528 18.4462C10.8224 18.5457 10.9516 18.6871 10.9422 18.9856C10.9279 19.4326 10.9476 19.8803 10.9354 20.3267C10.9286 20.5865 11.0139 20.7096 11.3043 20.6919C11.619 20.6729 11.9357 20.6867 12.2511 20.6886C12.4846 20.6906 12.6612 20.7835 12.6538 21.0283C12.647 21.2541 12.4805 21.3359 12.2572 21.3333C11.885 21.3287 11.5127 21.3386 11.1405 21.33C10.6132 21.3183 10.2843 21.0041 10.2667 20.4864C10.2532 20.0943 10.2545 19.701 10.2667 19.3089C10.2728 19.1243 10.2017 19.0438 10.0244 18.9816C9.62306 18.8409 9.22646 18.6832 8.84 18.5084C8.68163 18.4371 8.58214 18.4377 8.46031 18.5628C8.18891 18.8396 7.90736 19.1073 7.62378 19.373C7.194 19.7749 6.73648 19.7828 6.31483 19.3842C5.76662 18.8658 5.22517 18.3409 4.69049 17.8101C4.29321 17.416 4.30268 16.9651 4.70335 16.5665C5.01739 16.2536 5.3382 15.9473 5.65494 15.6371C5.66983 15.6227 5.67593 15.5991 5.67322 15.6043H5.67119Z"/>
<path d="M15.5633 11.512C16.6787 11.512 17.7948 11.5074 18.9102 11.5159C19.1369 11.5178 19.2662 11.4773 19.3589 11.2423C19.6655 10.4621 20.456 10.0543 21.2844 10.2114C22.083 10.3633 22.6739 11.063 22.6664 11.8471C22.659 12.607 22.0763 13.3073 21.3291 13.4546C20.4628 13.6254 19.6641 13.2176 19.3501 12.4113C19.2635 12.1887 19.1403 12.1527 18.9264 12.1534C16.7518 12.1593 14.5766 12.1567 12.402 12.1567C12.312 12.1567 12.2213 12.154 12.1313 12.1567C11.8849 12.1645 11.6528 12.1265 11.6609 11.8268C11.669 11.5309 11.9072 11.5041 12.1495 11.5106C12.2619 11.5139 12.3749 11.5106 12.4873 11.5106C13.5126 11.5106 14.538 11.5106 15.5633 11.5106V11.512ZM20.9298 10.8313C20.3558 10.8371 19.9064 11.2776 19.9057 11.8346C19.9051 12.4021 20.3761 12.8524 20.9616 12.8439C21.5267 12.8354 21.9923 12.3825 21.9944 11.8379C21.9964 11.2835 21.5118 10.8254 20.9298 10.8313Z"/>
</mask>
<path d="M15.2293 16.8265C14.5234 16.8265 13.8479 16.854 13.1765 16.818C12.6182 16.7885 12.0435 16.7532 11.5116 16.6026C9.13395 15.9311 7.69574 13.673 8.05444 11.2441C8.39285 8.95135 10.4903 7.19856 12.922 7.18088C13.6753 7.17565 14.4279 7.18023 15.2056 7.18023V5.98574C14.1044 5.46933 13.6726 4.78798 13.9027 3.92598C14.1112 3.14514 14.8232 2.63397 15.6557 2.66865C16.432 2.70073 17.1094 3.26688 17.2462 3.99732C17.414 4.89532 16.9646 5.56947 15.9 5.97919C15.9 6.43343 15.9034 6.90075 15.8993 7.36742C15.8966 7.71497 15.7964 7.81577 15.4357 7.81773C14.6689 7.82296 13.9014 7.83802 13.1359 7.81577C10.6832 7.74442 8.68861 9.62419 8.65951 11.9516C8.62973 14.3125 10.5505 16.1543 13.0703 16.189C13.8479 16.1995 14.6262 16.189 15.4046 16.1923C15.8269 16.1942 15.898 16.2649 15.9007 16.6707C15.9034 17.0196 15.9135 17.3691 15.8973 17.7173C15.8865 17.9424 15.9487 18.0563 16.1883 18.1414C16.9693 18.4176 17.3896 19.1716 17.2509 19.978C17.1264 20.7038 16.4699 21.2798 15.7186 21.3237C14.855 21.3741 14.1592 20.9113 13.9251 20.1305C13.6746 19.296 14.1193 18.4366 14.9863 18.1264C15.1819 18.0563 15.2448 17.968 15.2354 17.7768C15.2212 17.4745 15.2313 17.1708 15.2313 16.8252L15.2293 16.8265ZM14.5281 4.31934C14.5274 4.88354 15.0039 5.34562 15.5792 5.33711C16.1457 5.32861 16.6005 4.88026 16.6025 4.3272C16.6052 3.75908 16.1389 3.30943 15.5528 3.31532C14.9843 3.32121 14.5288 3.76693 14.5281 4.31934ZM16.6025 19.669C16.5964 19.0977 16.1294 18.6611 15.5386 18.6748C14.9667 18.6879 14.5247 19.1317 14.5288 19.69C14.5328 20.2568 15.0032 20.6966 15.5934 20.6849C16.1633 20.6737 16.6086 20.226 16.6025 19.669Z" fill="white"/>
<path d="M5.67119 15.6043C5.47153 15.1121 5.28744 14.6337 5.07898 14.1651C5.04311 14.0846 4.9064 14.0014 4.81232 13.9969C4.40691 13.9785 4.00083 13.991 3.59474 13.9877C3.04382 13.9831 2.6885 13.6729 2.67767 13.1506C2.66278 12.3874 2.66278 11.6236 2.67767 10.8604C2.68782 10.3381 3.04179 10.0194 3.58865 10.0102C3.98323 10.0037 4.37849 10.0017 4.77239 10.0115C4.95648 10.0161 5.04582 9.96373 5.11147 9.78243C5.25631 9.38317 5.4519 9.00028 5.60215 8.60233C5.63735 8.50939 5.61569 8.34773 5.55072 8.27769C5.28067 7.98578 4.97949 7.72005 4.69794 7.4373C4.28983 7.02692 4.29456 6.57465 4.71012 6.16688C5.2245 5.66225 5.74158 5.15958 6.26272 4.6615C6.73716 4.20857 7.19265 4.21773 7.67183 4.67982C7.96759 4.96454 8.26336 5.24925 8.5598 5.53266C8.57537 5.54706 8.59838 5.55491 8.60921 5.5608C9.1141 5.36641 9.6163 5.18118 10.1097 4.97501C10.1828 4.94425 10.2505 4.81596 10.2538 4.73022C10.2694 4.34929 10.2566 3.96705 10.262 3.58547C10.2708 2.99379 10.5997 2.67504 11.2034 2.6685C11.5526 2.66457 11.9025 2.6698 12.2525 2.66784C12.4738 2.66653 12.6437 2.74966 12.6504 2.97481C12.6572 3.21502 12.4927 3.31647 12.2518 3.3145C11.9249 3.31188 11.5973 3.32563 11.2711 3.31058C11.0146 3.29879 10.9313 3.40744 10.9354 3.63914C10.9428 4.0973 10.9279 4.55546 10.9408 5.01297C10.9489 5.30685 10.8332 5.45477 10.5327 5.55556C9.96079 5.74734 9.40039 5.97773 8.85353 6.23037C8.59296 6.3508 8.41835 6.33051 8.22613 6.13677C7.88299 5.79054 7.52158 5.46131 7.17911 5.11442C7.00991 4.94294 6.88673 4.97697 6.73039 5.13209C6.24241 5.61578 5.74902 6.09489 5.24548 6.56417C5.05732 6.73958 5.04717 6.87245 5.24074 7.04982C5.59268 7.37185 5.92296 7.71612 6.2749 8.0388C6.48403 8.22992 6.47456 8.40794 6.3595 8.65011C6.10164 9.19205 5.86272 9.74446 5.65291 10.306C5.56087 10.5528 5.43498 10.6621 5.16832 10.6575C4.68373 10.6484 4.19846 10.6634 3.71386 10.6523C3.46006 10.6464 3.33823 10.7275 3.34162 10.988C3.34974 11.6642 3.35042 12.3403 3.34162 13.0164C3.33823 13.2782 3.45803 13.3554 3.71319 13.3489C4.19778 13.3358 4.68305 13.3515 5.16764 13.343C5.43566 13.3378 5.55884 13.4529 5.65156 13.6964C5.86814 14.2665 6.11314 14.8281 6.37439 15.3805C6.48606 15.6174 6.46576 15.785 6.2749 15.9624C5.91755 16.2949 5.57779 16.645 5.21976 16.9769C5.0492 17.1353 5.05732 17.2622 5.21908 17.416C5.73345 17.9056 6.24444 18.3978 6.7507 18.8952C6.90433 19.0464 7.02616 19.0419 7.17573 18.8933C7.52158 18.549 7.88367 18.2204 8.22343 17.8716C8.42985 17.6595 8.61394 17.6621 8.87993 17.7852C9.41596 18.0333 9.96688 18.2564 10.528 18.4462C10.8224 18.5457 10.9516 18.6871 10.9422 18.9856C10.9279 19.4326 10.9476 19.8803 10.9354 20.3267C10.9286 20.5865 11.0139 20.7096 11.3043 20.6919C11.619 20.6729 11.9357 20.6867 12.2511 20.6886C12.4846 20.6906 12.6612 20.7835 12.6538 21.0283C12.647 21.2541 12.4805 21.3359 12.2572 21.3333C11.885 21.3287 11.5127 21.3386 11.1405 21.33C10.6132 21.3183 10.2843 21.0041 10.2667 20.4864C10.2532 20.0943 10.2545 19.701 10.2667 19.3089C10.2728 19.1243 10.2017 19.0438 10.0244 18.9816C9.62306 18.8409 9.22646 18.6832 8.84 18.5084C8.68163 18.4371 8.58214 18.4377 8.46031 18.5628C8.18891 18.8396 7.90736 19.1073 7.62378 19.373C7.194 19.7749 6.73648 19.7828 6.31483 19.3842C5.76662 18.8658 5.22517 18.3409 4.69049 17.8101C4.29321 17.416 4.30268 16.9651 4.70335 16.5665C5.01739 16.2536 5.3382 15.9473 5.65494 15.6371C5.66983 15.6227 5.67593 15.5991 5.67322 15.6043H5.67119Z" fill="white"/>
<path d="M15.5633 11.512C16.6787 11.512 17.7948 11.5074 18.9102 11.5159C19.1369 11.5178 19.2662 11.4773 19.3589 11.2423C19.6655 10.4621 20.456 10.0543 21.2844 10.2114C22.083 10.3633 22.6739 11.063 22.6664 11.8471C22.659 12.607 22.0763 13.3073 21.3291 13.4546C20.4628 13.6254 19.6641 13.2176 19.3501 12.4113C19.2635 12.1887 19.1403 12.1527 18.9264 12.1534C16.7518 12.1593 14.5766 12.1567 12.402 12.1567C12.312 12.1567 12.2213 12.154 12.1313 12.1567C11.8849 12.1645 11.6528 12.1265 11.6609 11.8268C11.669 11.5309 11.9072 11.5041 12.1495 11.5106C12.2619 11.5139 12.3749 11.5106 12.4873 11.5106C13.5126 11.5106 14.538 11.5106 15.5633 11.5106V11.512ZM20.9298 10.8313C20.3558 10.8371 19.9064 11.2776 19.9057 11.8346C19.9051 12.4021 20.3761 12.8524 20.9616 12.8439C21.5267 12.8354 21.9923 12.3825 21.9944 11.8379C21.9964 11.2835 21.5118 10.8254 20.9298 10.8313Z" fill="white"/>
<path d="M15.2293 16.8265C14.5234 16.8265 13.8479 16.854 13.1765 16.818C12.6182 16.7885 12.0435 16.7532 11.5116 16.6026C9.13395 15.9311 7.69574 13.673 8.05444 11.2441C8.39285 8.95135 10.4903 7.19856 12.922 7.18088C13.6753 7.17565 14.4279 7.18023 15.2056 7.18023V5.98574C14.1044 5.46933 13.6726 4.78798 13.9027 3.92598C14.1112 3.14514 14.8232 2.63397 15.6557 2.66865C16.432 2.70073 17.1094 3.26688 17.2462 3.99732C17.414 4.89532 16.9646 5.56947 15.9 5.97919C15.9 6.43343 15.9034 6.90075 15.8993 7.36742C15.8966 7.71497 15.7964 7.81577 15.4357 7.81773C14.6689 7.82296 13.9014 7.83802 13.1359 7.81577C10.6832 7.74442 8.68861 9.62419 8.65951 11.9516C8.62973 14.3125 10.5505 16.1543 13.0703 16.189C13.8479 16.1995 14.6262 16.189 15.4046 16.1923C15.8269 16.1942 15.898 16.2649 15.9007 16.6707C15.9034 17.0196 15.9135 17.3691 15.8973 17.7173C15.8865 17.9424 15.9487 18.0563 16.1883 18.1414C16.9693 18.4176 17.3896 19.1716 17.2509 19.978C17.1264 20.7038 16.4699 21.2798 15.7186 21.3237C14.855 21.3741 14.1592 20.9113 13.9251 20.1305C13.6746 19.296 14.1193 18.4366 14.9863 18.1264C15.1819 18.0563 15.2448 17.968 15.2354 17.7768C15.2212 17.4745 15.2313 17.1708 15.2313 16.8252L15.2293 16.8265ZM14.5281 4.31934C14.5274 4.88354 15.0039 5.34562 15.5792 5.33711C16.1457 5.32861 16.6005 4.88026 16.6025 4.3272C16.6052 3.75908 16.1389 3.30943 15.5528 3.31532C14.9843 3.32121 14.5288 3.76693 14.5281 4.31934ZM16.6025 19.669C16.5964 19.0977 16.1294 18.6611 15.5386 18.6748C14.9667 18.6879 14.5247 19.1317 14.5288 19.69C14.5328 20.2568 15.0032 20.6966 15.5934 20.6849C16.1633 20.6737 16.6086 20.226 16.6025 19.669Z" stroke="white" stroke-width="0.266667" mask="url(#path-1-outside-1_6455_255051)"/>
<path d="M5.67119 15.6043C5.47153 15.1121 5.28744 14.6337 5.07898 14.1651C5.04311 14.0846 4.9064 14.0014 4.81232 13.9969C4.40691 13.9785 4.00083 13.991 3.59474 13.9877C3.04382 13.9831 2.6885 13.6729 2.67767 13.1506C2.66278 12.3874 2.66278 11.6236 2.67767 10.8604C2.68782 10.3381 3.04179 10.0194 3.58865 10.0102C3.98323 10.0037 4.37849 10.0017 4.77239 10.0115C4.95648 10.0161 5.04582 9.96373 5.11147 9.78243C5.25631 9.38317 5.4519 9.00028 5.60215 8.60233C5.63735 8.50939 5.61569 8.34773 5.55072 8.27769C5.28067 7.98578 4.97949 7.72005 4.69794 7.4373C4.28983 7.02692 4.29456 6.57465 4.71012 6.16688C5.2245 5.66225 5.74158 5.15958 6.26272 4.6615C6.73716 4.20857 7.19265 4.21773 7.67183 4.67982C7.96759 4.96454 8.26336 5.24925 8.5598 5.53266C8.57537 5.54706 8.59838 5.55491 8.60921 5.5608C9.1141 5.36641 9.6163 5.18118 10.1097 4.97501C10.1828 4.94425 10.2505 4.81596 10.2538 4.73022C10.2694 4.34929 10.2566 3.96705 10.262 3.58547C10.2708 2.99379 10.5997 2.67504 11.2034 2.6685C11.5526 2.66457 11.9025 2.6698 12.2525 2.66784C12.4738 2.66653 12.6437 2.74966 12.6504 2.97481C12.6572 3.21502 12.4927 3.31647 12.2518 3.3145C11.9249 3.31188 11.5973 3.32563 11.2711 3.31058C11.0146 3.29879 10.9313 3.40744 10.9354 3.63914C10.9428 4.0973 10.9279 4.55546 10.9408 5.01297C10.9489 5.30685 10.8332 5.45477 10.5327 5.55556C9.96079 5.74734 9.40039 5.97773 8.85353 6.23037C8.59296 6.3508 8.41835 6.33051 8.22613 6.13677C7.88299 5.79054 7.52158 5.46131 7.17911 5.11442C7.00991 4.94294 6.88673 4.97697 6.73039 5.13209C6.24241 5.61578 5.74902 6.09489 5.24548 6.56417C5.05732 6.73958 5.04717 6.87245 5.24074 7.04982C5.59268 7.37185 5.92296 7.71612 6.2749 8.0388C6.48403 8.22992 6.47456 8.40794 6.3595 8.65011C6.10164 9.19205 5.86272 9.74446 5.65291 10.306C5.56087 10.5528 5.43498 10.6621 5.16832 10.6575C4.68373 10.6484 4.19846 10.6634 3.71386 10.6523C3.46006 10.6464 3.33823 10.7275 3.34162 10.988C3.34974 11.6642 3.35042 12.3403 3.34162 13.0164C3.33823 13.2782 3.45803 13.3554 3.71319 13.3489C4.19778 13.3358 4.68305 13.3515 5.16764 13.343C5.43566 13.3378 5.55884 13.4529 5.65156 13.6964C5.86814 14.2665 6.11314 14.8281 6.37439 15.3805C6.48606 15.6174 6.46576 15.785 6.2749 15.9624C5.91755 16.2949 5.57779 16.645 5.21976 16.9769C5.0492 17.1353 5.05732 17.2622 5.21908 17.416C5.73345 17.9056 6.24444 18.3978 6.7507 18.8952C6.90433 19.0464 7.02616 19.0419 7.17573 18.8933C7.52158 18.549 7.88367 18.2204 8.22343 17.8716C8.42985 17.6595 8.61394 17.6621 8.87993 17.7852C9.41596 18.0333 9.96688 18.2564 10.528 18.4462C10.8224 18.5457 10.9516 18.6871 10.9422 18.9856C10.9279 19.4326 10.9476 19.8803 10.9354 20.3267C10.9286 20.5865 11.0139 20.7096 11.3043 20.6919C11.619 20.6729 11.9357 20.6867 12.2511 20.6886C12.4846 20.6906 12.6612 20.7835 12.6538 21.0283C12.647 21.2541 12.4805 21.3359 12.2572 21.3333C11.885 21.3287 11.5127 21.3386 11.1405 21.33C10.6132 21.3183 10.2843 21.0041 10.2667 20.4864C10.2532 20.0943 10.2545 19.701 10.2667 19.3089C10.2728 19.1243 10.2017 19.0438 10.0244 18.9816C9.62306 18.8409 9.22646 18.6832 8.84 18.5084C8.68163 18.4371 8.58214 18.4377 8.46031 18.5628C8.18891 18.8396 7.90736 19.1073 7.62378 19.373C7.194 19.7749 6.73648 19.7828 6.31483 19.3842C5.76662 18.8658 5.22517 18.3409 4.69049 17.8101C4.29321 17.416 4.30268 16.9651 4.70335 16.5665C5.01739 16.2536 5.3382 15.9473 5.65494 15.6371C5.66983 15.6227 5.67593 15.5991 5.67322 15.6043H5.67119Z" stroke="white" stroke-width="0.266667" mask="url(#path-1-outside-1_6455_255051)"/>
<path d="M15.5633 11.512C16.6787 11.512 17.7948 11.5074 18.9102 11.5159C19.1369 11.5178 19.2662 11.4773 19.3589 11.2423C19.6655 10.4621 20.456 10.0543 21.2844 10.2114C22.083 10.3633 22.6739 11.063 22.6664 11.8471C22.659 12.607 22.0763 13.3073 21.3291 13.4546C20.4628 13.6254 19.6641 13.2176 19.3501 12.4113C19.2635 12.1887 19.1403 12.1527 18.9264 12.1534C16.7518 12.1593 14.5766 12.1567 12.402 12.1567C12.312 12.1567 12.2213 12.154 12.1313 12.1567C11.8849 12.1645 11.6528 12.1265 11.6609 11.8268C11.669 11.5309 11.9072 11.5041 12.1495 11.5106C12.2619 11.5139 12.3749 11.5106 12.4873 11.5106C13.5126 11.5106 14.538 11.5106 15.5633 11.5106V11.512ZM20.9298 10.8313C20.3558 10.8371 19.9064 11.2776 19.9057 11.8346C19.9051 12.4021 20.3761 12.8524 20.9616 12.8439C21.5267 12.8354 21.9923 12.3825 21.9944 11.8379C21.9964 11.2835 21.5118 10.8254 20.9298 10.8313Z" stroke="white" stroke-width="0.266667" mask="url(#path-1-outside-1_6455_255051)"/>
</svg>
