<svg width="19" height="18" viewBox="0 0 19 18" fill="none" xmlns="http://www.w3.org/2000/svg">
<g id="menu-icons">
<path id="Vector" d="M11.8333 9L8.99721 11.8361C8.84534 11.988 8.59911 11.988 8.44724 11.8361L7.16667 10.5556M2.5 6.66667H16.5M7.16667 3.55556H4.98889C4.1177 3.55556 3.6821 3.55556 3.34935 3.7251C3.05665 3.87424 2.81868 4.11221 2.66955 4.4049C2.5 4.73766 2.5 5.17325 2.5 6.04444V13.5111C2.5 14.3823 2.5 14.8179 2.66955 15.1507C2.81868 15.4433 3.05665 15.6813 3.34935 15.8305C3.6821 16 4.1177 16 4.98889 16H14.0111C14.8823 16 15.3179 16 15.6507 15.8305C15.9433 15.6813 16.1813 15.4433 16.3305 15.1507C16.5 14.8179 16.5 14.3823 16.5 13.5111V6.04444C16.5 5.17325 16.5 4.73766 16.3305 4.4049C16.1813 4.11221 15.9433 3.87424 15.6507 3.7251C15.3179 3.55556 14.8823 3.55556 14.0111 3.55556H11.8333M7.16667 3.55556H11.8333M7.16667 3.55556V3.16667C7.16667 2.52233 6.64433 2 6 2C5.35567 2 4.83333 2.52233 4.83333 3.16667V3.55556M11.8333 3.55556V3.16667C11.8333 2.52233 12.3557 2 13 2C13.6443 2 14.1667 2.52233 14.1667 3.16667V3.55556" stroke="white" stroke-linecap="round"/>
</g>
</svg>
