<svg width="19" height="18" viewBox="0 0 19 18" fill="none" xmlns="http://www.w3.org/2000/svg">
<g id="bank">
<path id="Icon" d="M16.3019 15.1158L16.7862 14.9915V14.9915L16.3019 15.1158ZM16.1073 14.3576L15.623 14.4819V14.4819L16.1073 14.3576ZM1.89272 14.3576L1.40842 14.2333H1.40842L1.89272 14.3576ZM1.69807 15.1158L2.18237 15.2401V15.2401L1.69807 15.1158ZM2.57047 13.283L2.38113 12.8202H2.38113L2.57047 13.283ZM2.16842 13.5887L2.5648 13.8934H2.5648L2.16842 13.5887ZM15.8316 13.5887L15.4352 13.8934V13.8934L15.8316 13.5887ZM15.4295 13.283L15.6189 12.8202H15.6189L15.4295 13.283ZM16.0435 16.8628L15.7894 16.4322V16.4322L16.0435 16.8628ZM16.469 16.3321L16.9455 16.4834V16.4833L16.469 16.3321ZM1.95653 16.8628L2.21062 16.4322L2.21062 16.4322L1.95653 16.8628ZM1.53103 16.3321L2.0076 16.1809H2.0076L1.53103 16.3321ZM8.30363 1.22721L8.08474 0.777673V0.777673L8.30363 1.22721ZM2.60711 4.001L2.82601 4.45054L2.60711 4.001ZM1.91075 6.03548L1.46595 6.26385H1.46595L1.91075 6.03548ZM2.07999 6.36511L2.52479 6.13674L2.52479 6.13674L2.07999 6.36511ZM15.92 6.36511L15.4752 6.13674L15.4752 6.13674L15.92 6.36511ZM16.0893 6.03548L15.6445 5.80711L15.6445 5.80711L16.0893 6.03548ZM15.3929 4.001L15.6118 3.55146L15.3929 4.001ZM9.69637 1.22721L9.91526 0.777673V0.777673L9.69637 1.22721ZM16.4531 5.09582L16.9531 5.09192L16.4531 5.09582ZM16.2629 4.54013L15.8644 4.84217L15.8644 4.84217L16.2629 4.54013ZM1.7371 4.54013L1.33864 4.23809H1.33864L1.7371 4.54013ZM1.54689 5.09582L1.04691 5.09192L1.54689 5.09582ZM15.7414 6.56172L15.5822 6.08775L15.5822 6.08775L15.7414 6.56172ZM15.8323 6.50701L16.1774 6.86882L16.1774 6.86882L15.8323 6.50701ZM2.25862 6.56172L2.41783 6.08775H2.41783L2.25862 6.56172ZM2.16771 6.50701L1.82261 6.86882L1.82261 6.86882L2.16771 6.50701ZM8.82054 1.01625L8.73068 0.524395L8.82054 1.01625ZM9.17946 1.01625L9.26932 0.524395V0.524395L9.17946 1.01625ZM3.63399 12.2612C3.63399 12.5374 3.85784 12.7612 4.13399 12.7612C4.41013 12.7612 4.63399 12.5374 4.63399 12.2612H3.63399ZM4.63399 6.57467C4.63399 6.29853 4.41013 6.07467 4.13399 6.07467C3.85784 6.07467 3.63399 6.29853 3.63399 6.57467H4.63399ZM8.5 12.2612C8.5 12.5374 8.72386 12.7612 9 12.7612C9.27614 12.7612 9.5 12.5374 9.5 12.2612H8.5ZM9.5 7.52243C9.5 7.24629 9.27614 7.02243 9 7.02243C8.72386 7.02243 8.5 7.24629 8.5 7.52243H9.5ZM13.366 12.2612C13.366 12.5374 13.5899 12.7612 13.866 12.7612C14.1422 12.7612 14.366 12.5374 14.366 12.2612H13.366ZM14.366 7.52243C14.366 7.24629 14.1422 7.02243 13.866 7.02243C13.5899 7.02243 13.366 7.24629 13.366 7.52243H14.366ZM3.20871 17.5H14.7913V16.5H3.20871V17.5ZM16.7862 14.9915L16.5916 14.2333L15.623 14.4819L15.8176 15.2401L16.7862 14.9915ZM14.5967 12.709H3.40335V13.709H14.5967V12.709ZM1.40842 14.2333L1.21378 14.9915L2.18237 15.2401L2.37701 14.4819L1.40842 14.2333ZM3.40335 12.709C3.01412 12.709 2.67525 12.6999 2.38113 12.8202L2.75982 13.7457C2.82735 13.7181 2.92318 13.709 3.40335 13.709V12.709ZM2.37701 14.4819C2.49406 14.026 2.52487 13.9454 2.5648 13.8934L1.77204 13.2839C1.57685 13.5378 1.50223 13.8678 1.40842 14.2333L2.37701 14.4819ZM2.38113 12.8202C2.14095 12.9185 1.93034 13.078 1.77204 13.2839L2.5648 13.8934C2.61395 13.8295 2.68091 13.778 2.75982 13.7457L2.38113 12.8202ZM16.5916 14.2333C16.4978 13.8678 16.4231 13.5378 16.228 13.2839L15.4352 13.8934C15.4751 13.9454 15.5059 14.026 15.623 14.4819L16.5916 14.2333ZM14.5967 13.709C15.0768 13.709 15.1726 13.7181 15.2402 13.7457L15.6189 12.8202C15.3248 12.6999 14.9859 12.709 14.5967 12.709V13.709ZM16.228 13.2839C16.0697 13.078 15.8591 12.9185 15.6189 12.8202L15.2402 13.7457C15.3191 13.778 15.3861 13.8295 15.4352 13.8934L16.228 13.2839ZM14.7913 17.5C15.1223 17.5 15.4025 17.5004 15.628 17.481C15.8568 17.4613 16.0869 17.4177 16.2976 17.2935L15.7894 16.4322C15.7675 16.4451 15.7115 16.4701 15.5422 16.4847C15.3697 16.4996 15.1401 16.5 14.7913 16.5V17.5ZM15.8176 15.2401C15.9024 15.5704 15.9571 15.7855 15.9838 15.95C16.0099 16.1107 15.9979 16.1635 15.9924 16.1809L16.9455 16.4833C17.0203 16.2478 17.0072 16.0135 16.9709 15.7899C16.9353 15.5701 16.8663 15.3035 16.7862 14.9915L15.8176 15.2401ZM16.2976 17.2935C16.6053 17.1119 16.8373 16.8246 16.9455 16.4834L15.9924 16.1809C15.96 16.283 15.8891 16.3733 15.7894 16.4322L16.2976 17.2935ZM3.20871 16.5C2.85987 16.5 2.63031 16.4996 2.4578 16.4847C2.28853 16.4701 2.23248 16.4451 2.21062 16.4322L1.70244 17.2935C1.91306 17.4177 2.1432 17.4613 2.37196 17.481C2.59746 17.5004 2.87775 17.5 3.20871 17.5V16.5ZM1.21378 14.9915C1.13368 15.3035 1.06475 15.5701 1.02908 15.7899C0.992782 16.0135 0.979703 16.2478 1.05445 16.4834L2.0076 16.1809C2.00209 16.1635 1.99009 16.1107 2.01617 15.95C2.04287 15.7855 2.09759 15.5704 2.18237 15.2401L1.21378 14.9915ZM2.21062 16.4322C2.11086 16.3733 2.04001 16.283 2.0076 16.1809L1.05445 16.4834C1.16275 16.8246 1.39468 17.1119 1.70244 17.2935L2.21062 16.4322ZM2.42817 7.07467H15.5718V6.07467H2.42817V7.07467ZM8.08474 0.777673L2.38822 3.55146L2.82601 4.45054L8.52253 1.67675L8.08474 0.777673ZM1.46595 6.26385L1.63519 6.59348L2.52479 6.13674L2.35555 5.80711L1.46595 6.26385ZM16.3648 6.59348L16.5341 6.26385L15.6445 5.80711L15.4752 6.13674L16.3648 6.59348ZM15.6118 3.55146L9.91526 0.777673L9.47747 1.67675L15.174 4.45054L15.6118 3.55146ZM16.5341 6.26385C16.6521 6.03396 16.755 5.83448 16.8254 5.66367C16.8982 5.48748 16.9547 5.30045 16.9531 5.09192L15.9531 5.09971C15.9533 5.11871 15.9498 5.16413 15.9011 5.28221C15.8501 5.40566 15.7702 5.56224 15.6445 5.80711L16.5341 6.26385ZM15.174 4.45054C15.4251 4.5728 15.5865 4.65184 15.7044 4.72145C15.8176 4.78834 15.851 4.82438 15.8644 4.84217L16.6614 4.23809C16.5361 4.07282 16.3781 3.95799 16.2129 3.86042C16.0524 3.76557 15.8482 3.66658 15.6118 3.55146L15.174 4.45054ZM16.9531 5.09192C16.9507 4.78295 16.8478 4.48408 16.6614 4.23809L15.8644 4.84217C15.9221 4.91823 15.9524 5.0084 15.9531 5.09971L16.9531 5.09192ZM2.38822 3.55146C2.1518 3.66658 1.94764 3.76557 1.78705 3.86042C1.62186 3.95799 1.46391 4.07282 1.33864 4.23809L2.13556 4.84217C2.14904 4.82438 2.18236 4.78834 2.2956 4.72145C2.41346 4.65184 2.57492 4.5728 2.82601 4.45054L2.38822 3.55146ZM2.35555 5.80711C2.22983 5.56224 2.14989 5.40566 2.09894 5.28221C2.05021 5.16413 2.04673 5.11871 2.04688 5.09971L1.04691 5.09192C1.04528 5.30045 1.10185 5.48748 1.17456 5.66367C1.24504 5.83448 1.34792 6.03396 1.46595 6.26385L2.35555 5.80711ZM1.33864 4.23809C1.15217 4.48407 1.04932 4.78295 1.04691 5.09192L2.04688 5.09971C2.04759 5.0084 2.0779 4.91823 2.13556 4.84217L1.33864 4.23809ZM15.5718 7.07467C15.6237 7.07467 15.766 7.0809 15.9006 7.0357L15.5822 6.08775C15.6003 6.08166 15.6163 6.0781 15.6284 6.07607C15.6396 6.0742 15.646 6.07389 15.6446 6.07398C15.6428 6.07408 15.6371 6.07435 15.6238 6.07451C15.6174 6.07458 15.6101 6.07463 15.6013 6.07465C15.5924 6.07467 15.5829 6.07467 15.5718 6.07467V7.07467ZM15.4752 6.13674C15.4703 6.14639 15.466 6.15467 15.4621 6.16232C15.4581 6.16993 15.4549 6.1762 15.452 6.18159C15.4492 6.18697 15.447 6.1909 15.4454 6.19379C15.4438 6.19668 15.443 6.19799 15.4429 6.19816C15.4426 6.19875 15.4463 6.19241 15.4537 6.18259C15.4617 6.17201 15.4728 6.15891 15.4872 6.1452L16.1774 6.86882C16.2822 6.76889 16.3422 6.63746 16.3648 6.59348L15.4752 6.13674ZM15.9006 7.0357C16.0034 7.00117 16.0981 6.94447 16.1774 6.86882L15.4872 6.1452C15.515 6.1187 15.5476 6.09938 15.5822 6.08775L15.9006 7.0357ZM2.42817 6.07467C2.4171 6.07467 2.40755 6.07467 2.39871 6.07465C2.38991 6.07463 2.38257 6.07458 2.37621 6.07451C2.36291 6.07435 2.35715 6.07408 2.35541 6.07398C2.35398 6.07389 2.36044 6.0742 2.37163 6.07607C2.38373 6.0781 2.39969 6.08166 2.41783 6.08775L2.09941 7.0357C2.23396 7.0809 2.37628 7.07467 2.42817 7.07467V6.07467ZM1.63519 6.59348C1.65776 6.63745 1.71784 6.76889 1.82261 6.86882L2.51281 6.1452C2.52718 6.15891 2.5383 6.17202 2.54629 6.18259C2.55369 6.19241 2.55741 6.19875 2.55706 6.19817C2.55696 6.19799 2.55618 6.19668 2.55458 6.19379C2.55298 6.1909 2.55085 6.18697 2.548 6.18159C2.54515 6.1762 2.54188 6.16993 2.53795 6.16232C2.53399 6.15467 2.52974 6.14639 2.52479 6.13674L1.63519 6.59348ZM2.41783 6.08775C2.45244 6.09938 2.48502 6.1187 2.51281 6.1452L1.82261 6.86882C1.90192 6.94447 1.99661 7.00117 2.09941 7.0357L2.41783 6.08775ZM8.52253 1.67675C8.80317 1.5401 8.85971 1.51737 8.91041 1.50811L8.73068 0.524395C8.51356 0.564064 8.31477 0.665667 8.08474 0.777673L8.52253 1.67675ZM9.91526 0.777673C9.68524 0.665667 9.48644 0.564064 9.26932 0.524395L9.08959 1.50811C9.14029 1.51737 9.19683 1.5401 9.47747 1.67675L9.91526 0.777673ZM8.91041 1.50811C8.96959 1.4973 9.03041 1.4973 9.08959 1.50811L9.26932 0.524395C9.0913 0.491868 8.9087 0.491868 8.73068 0.524395L8.91041 1.50811ZM4.63399 12.2612V6.57467H3.63399V12.2612H4.63399ZM9.5 12.2612V7.52243H8.5V12.2612H9.5ZM14.366 12.2612V7.52243H13.366V12.2612H14.366Z" fill="white"/>
</g>
</svg>
