<svg width="24" height="24" viewBox="0 0 24 24" fill="none" xmlns="http://www.w3.org/2000/svg">
<path d="M18.0054 6.23338C14.8202 2.18061 8.95264 1.47733 4.89988 4.66255C0.847116 7.84777 0.143833 13.7153 3.32905 17.7681C6.51427 21.8208 12.3818 22.5241 16.4346 19.3389C18.314 17.8618 19.4731 15.8078 19.8581 13.6255M22.142 14.8532L20.2196 12.4071C19.8657 11.9568 19.2137 11.8787 18.7634 12.2326L16.3174 14.155M10.6667 13.3328C12.5077 13.3328 14 11.8404 14 9.99948C14 8.15853 12.5077 6.66614 10.6667 6.66614C8.82576 6.66614 7.33338 8.15853 7.33338 9.99948C7.33338 11.8404 8.82576 13.3328 10.6667 13.3328ZM10.6667 13.3328C7.72119 13.3328 6.00016 14.4579 6.00016 16.667" stroke="white" stroke-linecap="round"/>
</svg>
