<svg width="19" height="18" viewBox="0 0 19 18" fill="none" xmlns="http://www.w3.org/2000/svg">
<g id="menu-icons" clip-path="url(#clip0_4356_83798)">
<path id="Vector" d="M1.45312 8.99902H5.79799M13.1083 8.99902H17.4531" stroke="white" stroke-linecap="round" stroke-linejoin="round"/>
<path id="Vector_2" d="M1.45312 4.92104H5.79799M13.1083 4.92104H17.4531M1.45312 12.921H5.79799M13.1083 12.921H17.4531M12.3695 4.92104C12.3695 6.53429 11.0617 7.84208 9.44856 7.84208C7.83538 7.84208 6.52765 6.53429 6.52765 4.92104C6.52765 3.30779 7.83538 2 9.44856 2C11.0617 2 12.3695 3.30779 12.3695 4.92104ZM12.3695 12.921C12.3695 14.5343 11.0617 15.8421 9.44856 15.8421C7.83538 15.8421 6.52765 14.5343 6.52765 12.921C6.52765 11.3078 7.83538 10 9.44856 10C11.0617 10 12.3695 11.3078 12.3695 12.921Z" stroke="white" stroke-linecap="round" stroke-linejoin="round"/>
</g>
<defs>
<clipPath id="clip0_4356_83798">
<rect width="18" height="18" fill="white" transform="translate(0.5)"/>
</clipPath>
</defs>
</svg>
