<svg width="19" height="18" viewBox="0 0 19 18" fill="none" xmlns="http://www.w3.org/2000/svg">
<g id="menu-icons">
<path id="Vector" d="M2.84746 5.74882L2.70622 6.02602L2.84746 5.74882ZM2.56936 5.47072L2.29216 5.61196L2.56936 5.47072ZM6.24882 5.47072L6.52602 5.61196L6.24882 5.47072ZM5.97072 5.74882L6.11196 6.02602L5.97072 5.74882ZM5.97072 2.06936L6.11196 1.79216L5.97072 2.06936ZM6.24882 2.34746L6.52602 2.20622L6.24882 2.34746ZM2.84746 2.06936L2.70622 1.79216L2.84746 2.06936ZM2.56936 2.34746L2.29216 2.20622L2.56936 2.34746ZM2.84746 15.9306L2.70622 16.2078L2.84746 15.9306ZM2.56936 15.6525L2.29216 15.7938L2.56936 15.6525ZM6.24882 15.6525L6.52602 15.7938L6.24882 15.6525ZM5.97072 15.9306L6.11196 16.2078L5.97072 15.9306ZM5.97072 12.2512L6.11196 11.974L5.97072 12.2512ZM6.24882 12.5293L6.52602 12.388L6.24882 12.5293ZM2.84746 12.2512L2.70622 11.974L2.84746 12.2512ZM2.56936 12.5293L2.29216 12.388L2.56936 12.5293ZM13.0293 5.74882L12.888 6.02602L13.0293 5.74882ZM12.7512 5.47072L12.474 5.61196L12.7512 5.47072ZM16.4306 5.47072L16.7078 5.61196L16.4306 5.47072ZM16.1525 5.74882L16.2938 6.02602L16.1525 5.74882ZM16.1525 2.06936L16.2938 1.79216L16.1525 2.06936ZM16.4306 2.34746L16.7078 2.20622L16.4306 2.34746ZM13.0293 2.06936L12.888 1.79216L13.0293 2.06936ZM12.7512 2.34746L12.474 2.20622L12.7512 2.34746ZM13.0293 15.9306L12.888 16.2078L13.0293 15.9306ZM12.7512 15.6525L12.474 15.7938L12.7512 15.6525ZM16.4306 15.6525L16.7078 15.7938L16.4306 15.6525ZM16.1525 15.9306L16.2938 16.2078L16.1525 15.9306ZM16.1525 12.2512L16.2938 11.974L16.1525 12.2512ZM16.4306 12.5293L16.7078 12.388L16.4306 12.5293ZM13.0293 12.2512L12.888 11.974L13.0293 12.2512ZM12.7512 12.5293L12.474 12.388L12.7512 12.5293ZM4.7202 5.81818C4.7202 5.64636 4.58091 5.50707 4.40909 5.50707C4.23727 5.50707 4.09798 5.64636 4.09798 5.81818H4.7202ZM12.6818 4.2202C12.8536 4.2202 12.9929 4.08091 12.9929 3.90909C12.9929 3.73727 12.8536 3.59798 12.6818 3.59798V4.2202ZM14.902 5.81818C14.902 5.64636 14.7627 5.50707 14.5909 5.50707C14.4191 5.50707 14.2798 5.64636 14.2798 5.81818H14.902ZM12.6818 14.402C12.8536 14.402 12.9929 14.2627 12.9929 14.0909C12.9929 13.9191 12.8536 13.7798 12.6818 13.7798V14.402ZM10.9267 7.08223L10.7067 6.86224L10.9267 7.08223ZM11.5931 7.08222L11.3731 7.30221L11.3731 7.30221L11.5931 7.08222ZM11.8066 7.96219L12.0266 8.18217L11.8066 7.96219ZM11.8066 7.29573L12.0266 7.07574L12.0266 7.07574L11.8066 7.29573ZM11.8067 10.8156L12.0267 10.5956L11.8067 10.8156ZM11.8067 11.482L12.0267 11.702L12.0267 11.702L11.8067 11.482ZM10.9267 11.6955L10.7067 11.9155L10.9267 11.6955ZM11.5932 11.6955L11.3732 11.4755L11.3732 11.4755L11.5932 11.6955ZM8.07331 11.6955L7.85332 11.4755L8.07331 11.6955ZM7.40687 11.6955L7.62686 11.4755L7.62686 11.4755L7.40687 11.6955ZM7.19335 10.8156L7.41334 11.0356L7.19335 10.8156ZM7.19335 11.482L6.97336 11.702L6.97336 11.702L7.19335 11.482ZM7.19339 7.96217L6.9734 8.18216L7.19339 7.96217ZM7.19339 7.29571L6.9734 7.07572L6.9734 7.07572L7.19339 7.29571ZM8.07333 7.08221L7.85334 7.30219L8.07333 7.08221ZM7.4069 7.0822L7.62689 7.30219L7.62689 7.30219L7.4069 7.0822ZM3.51818 2.31111H5.3V1.68889H3.51818V2.31111ZM6.00707 3.01818V4.8H6.62929V3.01818H6.00707ZM5.3 5.50707H3.51818V6.12929H5.3V5.50707ZM2.81111 4.8V3.01818H2.18889V4.8H2.81111ZM3.51818 5.50707C3.33485 5.50707 3.21606 5.50683 3.12555 5.49943C3.03868 5.49234 3.0056 5.48023 2.9887 5.47162L2.70622 6.02602C2.82545 6.08678 2.94953 6.10935 3.07488 6.11959C3.19661 6.12954 3.34512 6.12929 3.51818 6.12929V5.50707ZM2.18889 4.8C2.18889 4.97307 2.18865 5.12157 2.19859 5.2433C2.20883 5.36865 2.23141 5.49273 2.29216 5.61196L2.84656 5.32948C2.83795 5.31258 2.82585 5.2795 2.81875 5.19263C2.81135 5.10212 2.81111 4.98333 2.81111 4.8H2.18889ZM2.9887 5.47162C2.9275 5.44044 2.87774 5.39068 2.84656 5.32948L2.29216 5.61196C2.38299 5.79024 2.52794 5.93519 2.70622 6.02602L2.9887 5.47162ZM6.00707 4.8C6.00707 4.98333 6.00683 5.10212 5.99943 5.19263C5.99234 5.2795 5.98023 5.31258 5.97162 5.32948L6.52602 5.61196C6.58678 5.49273 6.60935 5.36865 6.61959 5.2433C6.62954 5.12157 6.62929 4.97307 6.62929 4.8H6.00707ZM5.3 6.12929C5.47307 6.12929 5.62157 6.12954 5.7433 6.11959C5.86865 6.10935 5.99273 6.08678 6.11196 6.02602L5.82948 5.47162C5.81258 5.48023 5.7795 5.49234 5.69263 5.49943C5.60212 5.50683 5.48333 5.50707 5.3 5.50707V6.12929ZM5.97162 5.32948C5.94044 5.39068 5.89068 5.44044 5.82948 5.47162L6.11196 6.02602C6.29024 5.93519 6.43519 5.79024 6.52602 5.61196L5.97162 5.32948ZM5.3 2.31111C5.48333 2.31111 5.60212 2.31135 5.69263 2.31875C5.7795 2.32585 5.81258 2.33795 5.82948 2.34656L6.11196 1.79216C5.99273 1.73141 5.86865 1.70883 5.7433 1.69859C5.62157 1.68865 5.47307 1.68889 5.3 1.68889V2.31111ZM6.62929 3.01818C6.62929 2.84512 6.62954 2.69661 6.61959 2.57489C6.60935 2.44953 6.58678 2.32545 6.52602 2.20622L5.97162 2.4887C5.98023 2.5056 5.99234 2.53868 5.99943 2.62555C6.00683 2.71606 6.00707 2.83485 6.00707 3.01818H6.62929ZM5.82948 2.34656C5.89068 2.37774 5.94044 2.4275 5.97162 2.4887L6.52602 2.20622C6.43519 2.02794 6.29024 1.88299 6.11196 1.79216L5.82948 2.34656ZM3.51818 1.68889C3.34512 1.68889 3.19661 1.68865 3.07489 1.69859C2.94953 1.70883 2.82545 1.73141 2.70622 1.79216L2.9887 2.34656C3.0056 2.33795 3.03868 2.32585 3.12555 2.31875C3.21606 2.31135 3.33485 2.31111 3.51818 2.31111V1.68889ZM2.81111 3.01818C2.81111 2.83485 2.81135 2.71606 2.81875 2.62555C2.82585 2.53868 2.83795 2.5056 2.84656 2.4887L2.29216 2.20622C2.23141 2.32545 2.20883 2.44953 2.19859 2.57489C2.18865 2.69661 2.18889 2.84512 2.18889 3.01818H2.81111ZM2.70622 1.79216C2.52794 1.883 2.383 2.02794 2.29216 2.20622L2.84656 2.4887C2.87774 2.4275 2.9275 2.37774 2.9887 2.34656L2.70622 1.79216ZM3.51818 12.4929H5.3V11.8707H3.51818V12.4929ZM6.00707 13.2V14.9818H6.62929V13.2H6.00707ZM5.3 15.6889H3.51818V16.3111H5.3V15.6889ZM2.81111 14.9818V13.2H2.18889V14.9818H2.81111ZM3.51818 15.6889C3.33485 15.6889 3.21606 15.6886 3.12555 15.6813C3.03868 15.6742 3.0056 15.662 2.9887 15.6534L2.70622 16.2078C2.82545 16.2686 2.94953 16.2912 3.07489 16.3014C3.19661 16.3114 3.34512 16.3111 3.51818 16.3111V15.6889ZM2.18889 14.9818C2.18889 15.1549 2.18865 15.3034 2.19859 15.4251C2.20883 15.5505 2.23141 15.6746 2.29216 15.7938L2.84656 15.5113C2.83795 15.4944 2.82585 15.4613 2.81875 15.3744C2.81135 15.2839 2.81111 15.1651 2.81111 14.9818H2.18889ZM2.9887 15.6534C2.9275 15.6223 2.87774 15.5725 2.84656 15.5113L2.29216 15.7938C2.38299 15.9721 2.52794 16.117 2.70622 16.2078L2.9887 15.6534ZM6.00707 14.9818C6.00707 15.1651 6.00683 15.2839 5.99943 15.3744C5.99234 15.4613 5.98023 15.4944 5.97162 15.5113L6.52602 15.7938C6.58678 15.6746 6.60935 15.5505 6.61959 15.4251C6.62954 15.3034 6.62929 15.1549 6.62929 14.9818H6.00707ZM5.3 16.3111C5.47306 16.3111 5.62157 16.3114 5.7433 16.3014C5.86865 16.2912 5.99273 16.2686 6.11196 16.2078L5.82948 15.6534C5.81258 15.662 5.7795 15.6742 5.69263 15.6813C5.60212 15.6886 5.48333 15.6889 5.3 15.6889V16.3111ZM5.97162 15.5113C5.94044 15.5725 5.89068 15.6223 5.82948 15.6534L6.11196 16.2078C6.29024 16.117 6.43519 15.9721 6.52602 15.7938L5.97162 15.5113ZM5.3 12.4929C5.48333 12.4929 5.60212 12.4932 5.69263 12.5006C5.7795 12.5077 5.81258 12.5198 5.82948 12.5284L6.11196 11.974C5.99273 11.9132 5.86865 11.8907 5.7433 11.8804C5.62157 11.8705 5.47306 11.8707 5.3 11.8707V12.4929ZM6.62929 13.2C6.62929 13.0269 6.62954 12.8784 6.61959 12.7567C6.60935 12.6313 6.58678 12.5073 6.52602 12.388L5.97162 12.6705C5.98023 12.6874 5.99234 12.7205 5.99943 12.8074C6.00683 12.8979 6.00707 13.0167 6.00707 13.2H6.62929ZM5.82948 12.5284C5.89068 12.5596 5.94044 12.6093 5.97162 12.6705L6.52602 12.388C6.43519 12.2098 6.29024 12.0648 6.11196 11.974L5.82948 12.5284ZM3.51818 11.8707C3.34512 11.8707 3.19661 11.8705 3.07489 11.8804C2.94953 11.8907 2.82545 11.9132 2.70622 11.974L2.9887 12.5284C3.0056 12.5198 3.03868 12.5077 3.12555 12.5006C3.21606 12.4932 3.33485 12.4929 3.51818 12.4929V11.8707ZM2.81111 13.2C2.81111 13.0167 2.81135 12.8979 2.81875 12.8074C2.82585 12.7205 2.83795 12.6874 2.84656 12.6705L2.29216 12.388C2.23141 12.5073 2.20883 12.6313 2.19859 12.7567C2.18865 12.8784 2.18889 13.0269 2.18889 13.2H2.81111ZM2.70622 11.974C2.52794 12.0648 2.383 12.2098 2.29216 12.388L2.84656 12.6705C2.87774 12.6093 2.9275 12.5596 2.9887 12.5284L2.70622 11.974ZM13.7 2.31111H15.4818V1.68889H13.7V2.31111ZM16.1889 3.01818V4.8H16.8111V3.01818H16.1889ZM15.4818 5.50707H13.7V6.12929H15.4818V5.50707ZM12.9929 4.8V3.01818H12.3707V4.8H12.9929ZM13.7 5.50707C13.5167 5.50707 13.3979 5.50683 13.3074 5.49943C13.2205 5.49234 13.1874 5.48023 13.1705 5.47162L12.888 6.02602C13.0073 6.08678 13.1313 6.10935 13.2567 6.11959C13.3784 6.12954 13.5269 6.12929 13.7 6.12929V5.50707ZM12.3707 4.8C12.3707 4.97306 12.3705 5.12157 12.3804 5.2433C12.3907 5.36865 12.4132 5.49273 12.474 5.61196L13.0284 5.32948C13.0198 5.31258 13.0077 5.2795 13.0006 5.19263C12.9932 5.10212 12.9929 4.98333 12.9929 4.8H12.3707ZM13.1705 5.47162C13.1093 5.44044 13.0596 5.39068 13.0284 5.32948L12.474 5.61196C12.5648 5.79024 12.7098 5.93519 12.888 6.02602L13.1705 5.47162ZM16.1889 4.8C16.1889 4.98333 16.1886 5.10212 16.1813 5.19263C16.1742 5.2795 16.162 5.31258 16.1534 5.32948L16.7078 5.61196C16.7686 5.49273 16.7912 5.36865 16.8014 5.2433C16.8114 5.12157 16.8111 4.97306 16.8111 4.8H16.1889ZM15.4818 6.12929C15.6549 6.12929 15.8034 6.12954 15.9251 6.11959C16.0505 6.10935 16.1746 6.08678 16.2938 6.02602L16.0113 5.47162C15.9944 5.48023 15.9613 5.49234 15.8744 5.49943C15.7839 5.50683 15.6651 5.50707 15.4818 5.50707V6.12929ZM16.1534 5.32948C16.1223 5.39068 16.0725 5.44044 16.0113 5.47162L16.2938 6.02602C16.4721 5.93519 16.617 5.79024 16.7078 5.61196L16.1534 5.32948ZM15.4818 2.31111C15.6651 2.31111 15.7839 2.31135 15.8744 2.31875C15.9613 2.32585 15.9944 2.33795 16.0113 2.34656L16.2938 1.79216C16.1746 1.73141 16.0505 1.70883 15.9251 1.69859C15.8034 1.68865 15.6549 1.68889 15.4818 1.68889V2.31111ZM16.8111 3.01818C16.8111 2.84512 16.8114 2.69661 16.8014 2.57489C16.7912 2.44953 16.7686 2.32545 16.7078 2.20622L16.1534 2.4887C16.162 2.5056 16.1742 2.53868 16.1813 2.62555C16.1886 2.71606 16.1889 2.83485 16.1889 3.01818H16.8111ZM16.0113 2.34656C16.0725 2.37774 16.1223 2.4275 16.1534 2.4887L16.7078 2.20622C16.617 2.02794 16.4721 1.88299 16.2938 1.79216L16.0113 2.34656ZM13.7 1.68889C13.5269 1.68889 13.3784 1.68865 13.2567 1.69859C13.1313 1.70883 13.0073 1.73141 12.888 1.79216L13.1705 2.34656C13.1874 2.33795 13.2205 2.32585 13.3074 2.31875C13.3979 2.31135 13.5167 2.31111 13.7 2.31111V1.68889ZM12.9929 3.01818C12.9929 2.83485 12.9932 2.71606 13.0006 2.62555C13.0077 2.53868 13.0198 2.5056 13.0284 2.4887L12.474 2.20622C12.4132 2.32545 12.3907 2.44953 12.3804 2.57489C12.3705 2.69661 12.3707 2.84512 12.3707 3.01818H12.9929ZM12.888 1.79216C12.7098 1.883 12.5648 2.02794 12.474 2.20622L13.0284 2.4887C13.0596 2.4275 13.1093 2.37774 13.1705 2.34656L12.888 1.79216ZM13.7 12.4929H15.4818V11.8707H13.7V12.4929ZM16.1889 13.2V14.9818H16.8111V13.2H16.1889ZM15.4818 15.6889H13.7V16.3111H15.4818V15.6889ZM12.9929 14.9818V13.2H12.3707V14.9818H12.9929ZM13.7 15.6889C13.5167 15.6889 13.3979 15.6886 13.3074 15.6813C13.2205 15.6742 13.1874 15.662 13.1705 15.6534L12.888 16.2078C13.0073 16.2686 13.1313 16.2912 13.2567 16.3014C13.3784 16.3114 13.5269 16.3111 13.7 16.3111V15.6889ZM12.3707 14.9818C12.3707 15.1549 12.3705 15.3034 12.3804 15.4251C12.3907 15.5505 12.4132 15.6746 12.474 15.7938L13.0284 15.5113C13.0198 15.4944 13.0077 15.4613 13.0006 15.3744C12.9932 15.2839 12.9929 15.1651 12.9929 14.9818H12.3707ZM13.1705 15.6534C13.1093 15.6223 13.0596 15.5725 13.0284 15.5113L12.474 15.7938C12.5648 15.9721 12.7098 16.117 12.888 16.2078L13.1705 15.6534ZM16.1889 14.9818C16.1889 15.1651 16.1886 15.2839 16.1813 15.3744C16.1742 15.4613 16.162 15.4944 16.1534 15.5113L16.7078 15.7938C16.7686 15.6746 16.7912 15.5505 16.8014 15.4251C16.8114 15.3034 16.8111 15.1549 16.8111 14.9818H16.1889ZM15.4818 16.3111C15.6549 16.3111 15.8034 16.3114 15.9251 16.3014C16.0505 16.2912 16.1746 16.2686 16.2938 16.2078L16.0113 15.6534C15.9944 15.662 15.9613 15.6742 15.8744 15.6813C15.7839 15.6886 15.6651 15.6889 15.4818 15.6889V16.3111ZM16.1534 15.5113C16.1223 15.5725 16.0725 15.6223 16.0113 15.6534L16.2938 16.2078C16.4721 16.117 16.617 15.9721 16.7078 15.7938L16.1534 15.5113ZM15.4818 12.4929C15.6651 12.4929 15.7839 12.4932 15.8744 12.5006C15.9613 12.5077 15.9944 12.5198 16.0113 12.5284L16.2938 11.974C16.1746 11.9132 16.0505 11.8907 15.9251 11.8804C15.8034 11.8705 15.6549 11.8707 15.4818 11.8707V12.4929ZM16.8111 13.2C16.8111 13.0269 16.8114 12.8784 16.8014 12.7567C16.7912 12.6313 16.7686 12.5073 16.7078 12.388L16.1534 12.6705C16.162 12.6874 16.1742 12.7205 16.1813 12.8074C16.1886 12.8979 16.1889 13.0167 16.1889 13.2H16.8111ZM16.0113 12.5284C16.0725 12.5596 16.1223 12.6093 16.1534 12.6705L16.7078 12.388C16.617 12.2098 16.4721 12.0648 16.2938 11.974L16.0113 12.5284ZM13.7 11.8707C13.5269 11.8707 13.3784 11.8705 13.2567 11.8804C13.1313 11.8907 13.0073 11.9132 12.888 11.974L13.1705 12.5284C13.1874 12.5198 13.2205 12.5077 13.3074 12.5006C13.3979 12.4932 13.5167 12.4929 13.7 12.4929V11.8707ZM12.9929 13.2C12.9929 13.0167 12.9932 12.8979 13.0006 12.8074C13.0077 12.7205 13.0198 12.6874 13.0284 12.6705L12.474 12.388C12.4132 12.5073 12.3907 12.6313 12.3804 12.7567C12.3705 12.8784 12.3707 13.0269 12.3707 13.2H12.9929ZM12.888 11.974C12.7098 12.0648 12.5648 12.2098 12.474 12.388L13.0284 12.6705C13.0596 12.6093 13.1093 12.5596 13.1705 12.5284L12.888 11.974ZM4.09798 5.81818V12.1818H4.7202V5.81818H4.09798ZM12.6818 3.59798H6.31818V4.2202H12.6818V3.59798ZM14.2798 5.81818V12.1818H14.902V5.81818H14.2798ZM12.6818 13.7798H6.31818V14.402H12.6818V13.7798ZM9.34901 6.58889H9.65098V5.96667H9.34901V6.58889ZM7.41338 7.5157L7.62689 7.30219L7.18691 6.86221L6.9734 7.07572L7.41338 7.5157ZM6.7 9.53987V9.23793H6.07778V9.53987H6.7ZM7.62686 11.4755L7.41334 11.262L6.97336 11.702L7.18688 11.9155L7.62686 11.4755ZM9.65096 12.1889H9.34903V12.8111H9.65096V12.1889ZM11.5867 11.262L11.3732 11.4755L11.8131 11.9155L12.0267 11.702L11.5867 11.262ZM12.3 9.23792V9.53988H12.9222V9.23792H12.3ZM11.3731 7.30221L11.5866 7.51572L12.0266 7.07574L11.8131 6.86224L11.3731 7.30221ZM10.7067 6.86224C10.6058 6.96312 10.4333 6.89166 10.4333 6.74902H9.81111C9.81111 7.44603 10.6538 7.79506 11.1467 7.30221L10.7067 6.86224ZM11.8131 6.86224C11.5076 6.5567 11.0122 6.55671 10.7067 6.86224L11.1467 7.30221C11.2092 7.23968 11.3106 7.23968 11.3731 7.30221L11.8131 6.86224ZM12.0266 8.18217C12.3322 7.87664 12.3322 7.38128 12.0266 7.07574L11.5866 7.51572C11.6492 7.57826 11.6492 7.67966 11.5866 7.7422L12.0266 8.18217ZM12.1399 8.45556C11.9972 8.45556 11.9257 8.28306 12.0266 8.18217L11.5866 7.7422C11.0938 8.23505 11.4428 9.07778 12.1399 9.07778V8.45556ZM12.9222 9.23792C12.9222 8.80583 12.5719 8.45556 12.1399 8.45556V9.07778C12.2283 9.07778 12.3 9.14948 12.3 9.23792H12.9222ZM12.1399 10.3222C12.572 10.3222 12.9222 9.97196 12.9222 9.53988H12.3C12.3 9.62831 12.2283 9.7 12.1399 9.7V10.3222ZM12.0267 10.5956C11.9258 10.4947 11.9972 10.3222 12.1399 10.3222V9.7C11.4429 9.7 11.0938 10.5427 11.5867 11.0355L12.0267 10.5956ZM12.0267 11.702C12.3322 11.3964 12.3322 10.9011 12.0267 10.5956L11.5867 11.0355C11.6492 11.0981 11.6492 11.1995 11.5867 11.262L12.0267 11.702ZM10.7067 11.9155C11.0122 12.221 11.5076 12.221 11.8132 11.9155L11.3732 11.4755C11.3106 11.538 11.2092 11.538 11.1467 11.4755L10.7067 11.9155ZM10.4333 12.0287C10.4333 11.886 10.6058 11.8146 10.7067 11.9155L11.1467 11.4755C10.6538 10.9826 9.81111 11.3317 9.81111 12.0287H10.4333ZM9.65096 12.8111C10.0831 12.8111 10.4333 12.4608 10.4333 12.0287H9.81111C9.81111 12.1172 9.7394 12.1889 9.65096 12.1889V12.8111ZM8.56667 12.0287C8.56667 12.4608 8.91694 12.8111 9.34903 12.8111V12.1889C9.26059 12.1889 9.18889 12.1172 9.18889 12.0287H8.56667ZM8.2933 11.9155C8.39417 11.8146 8.56667 11.8861 8.56667 12.0287H9.18889C9.18889 11.3318 8.34619 10.9827 7.85332 11.4755L8.2933 11.9155ZM7.18688 11.9155C7.49241 12.221 7.98777 12.221 8.2933 11.9155L7.85332 11.4755C7.79079 11.5381 7.6894 11.5381 7.62686 11.4755L7.18688 11.9155ZM6.97336 10.5956C6.66784 10.9011 6.66784 11.3965 6.97336 11.702L7.41334 11.262C7.35081 11.1995 7.35081 11.0981 7.41334 11.0356L6.97336 10.5956ZM6.86013 10.3222C7.00279 10.3222 7.07423 10.4947 6.97336 10.5956L7.41334 11.0356C7.90619 10.5427 7.55712 9.7 6.86013 9.7V10.3222ZM6.07778 9.53987C6.07778 9.97196 6.42806 10.3222 6.86013 10.3222V9.7C6.77169 9.7 6.7 9.6283 6.7 9.53987H6.07778ZM6.86015 8.45556C6.42807 8.45556 6.07778 8.80583 6.07778 9.23793H6.7C6.7 9.14948 6.7717 9.07778 6.86015 9.07778V8.45556ZM6.9734 8.18216C7.07428 8.28305 7.00283 8.45556 6.86015 8.45556V9.07778C7.55716 9.07778 7.90624 8.23506 7.41338 7.74219L6.9734 8.18216ZM6.9734 7.07572C6.66787 7.38126 6.66787 7.87663 6.9734 8.18216L7.41338 7.74219C7.35084 7.67964 7.35084 7.57824 7.41338 7.5157L6.9734 7.07572ZM8.29332 6.86222C7.9878 6.55669 7.49244 6.55668 7.18691 6.86221L7.62689 7.30219C7.68941 7.23966 7.79081 7.23966 7.85334 7.30219L8.29332 6.86222ZM8.56667 6.74901C8.56667 6.89164 8.3942 6.9631 8.29332 6.86222L7.85334 7.30219C8.34617 7.79503 9.18889 7.44601 9.18889 6.74901H8.56667ZM9.65098 6.58889C9.73942 6.58889 9.81111 6.66058 9.81111 6.74902H10.4333C10.4333 6.31694 10.0831 5.96667 9.65098 5.96667V6.58889ZM9.34901 5.96667C8.91694 5.96667 8.56667 6.31693 8.56667 6.74901H9.18889C9.18889 6.66058 9.26058 6.58889 9.34901 6.58889V5.96667Z" fill="white"/>
</g>
</svg>
