<svg width="19" height="18" viewBox="0 0 19 18" fill="none" xmlns="http://www.w3.org/2000/svg">
<g id="menu-icons">
<path id="Icon" d="M5.79319 11.2354L5.43964 10.8818L5.79319 11.2354ZM12.6327 11.2354L12.2791 11.5889L12.6327 11.2354ZM10.0741 15.6932L10.317 16.1303H10.317L10.0741 15.6932ZM9.79203 15.8499L9.54921 15.4129L9.54921 15.4129L9.79203 15.8499ZM8.63376 15.8499L8.87659 15.4129L8.87658 15.4129L8.63376 15.8499ZM8.35166 15.6932L8.10883 16.1303H8.10883L8.35166 15.6932ZM6.14674 11.5889C7.84016 9.89553 10.5857 9.89553 12.2791 11.5889L12.9862 10.8818C10.9023 8.7979 7.52358 8.7979 5.43964 10.8818L6.14674 11.5889ZM12.2791 11.5889C12.61 11.9198 12.8757 12.29 13.0768 12.6841L13.9675 12.2295C13.7193 11.7433 13.392 11.2876 12.9862 10.8818L12.2791 11.5889ZM5.34905 12.6842C5.55021 12.29 5.81589 11.9198 6.14674 11.5889L5.43964 10.8818C5.03385 11.2876 4.70654 11.7433 4.45836 12.2295L5.34905 12.6842ZM11.0067 7.24924C11.0067 8.22443 10.2162 9.01498 9.241 9.01498V10.015C10.7685 10.015 12.0067 8.77672 12.0067 7.24924H11.0067ZM9.241 9.01498C8.26581 9.01498 7.47527 8.22443 7.47527 7.24924H6.47527C6.47527 8.77672 7.71353 10.015 9.241 10.015V9.01498ZM7.47527 7.24924C7.47527 6.27406 8.26581 5.48351 9.241 5.48351V4.48351C7.71353 4.48351 6.47527 5.72177 6.47527 7.24924H7.47527ZM9.241 5.48351C10.2162 5.48351 11.0067 6.27406 11.0067 7.24924H12.0067C12.0067 5.72177 10.7685 4.48351 9.241 4.48351V5.48351ZM5.91861 2.5H12.5072V1.5H5.91861V2.5ZM15.1178 5.11057H15.4285V4.11057H15.1178V5.11057ZM15.4258 5.10782V5.74823H16.4258V5.10782H15.4258ZM9.83132 15.2561L9.54921 15.4129L10.0349 16.287L10.317 16.1303L9.83132 15.2561ZM8.87658 15.4129L8.59448 15.2561L8.10883 16.1303L8.39094 16.287L8.87658 15.4129ZM3 5.74823V5.10782H2V5.74823H3ZM2.99725 5.11057H3.30803V4.11057H2.99725V5.11057ZM3.30803 5.11057C4.78566 5.11057 5.98351 3.91272 5.98351 2.4351H4.98351C4.98351 3.36043 4.23337 4.11057 3.30803 4.11057V5.11057ZM3 5.10782C3 5.10728 3.00001 5.10802 2.99958 5.10905C2.99929 5.10974 2.99908 5.10988 2.9992 5.10977C2.99931 5.10965 2.99917 5.10986 2.99848 5.11015C2.99745 5.11058 2.99671 5.11057 2.99725 5.11057V4.11057C2.44648 4.11057 2 4.55706 2 5.10782H3ZM8.59448 15.2561C5.14152 13.3378 3 9.69827 3 5.74823H2C2 10.0614 4.33842 14.0356 8.10883 16.1303L8.59448 15.2561ZM9.54921 15.4129C9.34006 15.529 9.08574 15.529 8.87659 15.4129L8.39094 16.287C8.90212 16.571 9.52368 16.571 10.0349 16.287L9.54921 15.4129ZM15.4258 5.74823C15.4258 9.69827 13.2843 13.3378 9.83132 15.2561L10.317 16.1303C14.0874 14.0356 16.4258 10.0614 16.4258 5.74823H15.4258ZM15.4285 5.11057C15.4291 5.11057 15.4283 5.11058 15.4273 5.11015C15.4266 5.10986 15.4265 5.10965 15.4266 5.10977C15.4267 5.10988 15.4265 5.10974 15.4262 5.10905C15.4258 5.10802 15.4258 5.10728 15.4258 5.10782H16.4258C16.4258 4.55706 15.9793 4.11057 15.4285 4.11057V5.11057ZM12.4423 2.4351C12.4423 3.91272 13.6401 5.11057 15.1178 5.11057V4.11057C14.1924 4.11057 13.4423 3.36044 13.4423 2.4351H12.4423ZM12.5072 2.5C12.4713 2.5 12.4423 2.47094 12.4423 2.4351H13.4423C13.4423 1.91866 13.0236 1.5 12.5072 1.5V2.5ZM5.91861 1.5C5.40217 1.5 4.98351 1.91866 4.98351 2.4351H5.98351C5.98351 2.47094 5.95445 2.5 5.91861 2.5V1.5Z" fill="white"/>
</g>
</svg>
