<svg width="19" height="18" viewBox="0 0 19 18" fill="none" xmlns="http://www.w3.org/2000/svg">
<g id="menu-icons">
<path id="Icon" d="M12.3824 3C12.6585 3 12.8824 2.77614 12.8824 2.5C12.8824 2.22386 12.6585 2 12.3824 2V3ZM3.39931 15.497L3.62631 15.0514H3.6263L3.39931 15.497ZM2.67952 14.7772L2.23402 15.0042H2.23402L2.67952 14.7772ZM15.497 14.7772L15.0514 14.5502L15.497 14.7772ZM14.7772 15.497L14.5502 15.0514L14.7772 15.497ZM3.39931 2.67952L3.6263 3.12502H3.62631L3.39931 2.67952ZM2.67952 3.39931L3.12502 3.62631V3.6263L2.67952 3.39931ZM16.1765 9.91176C16.1765 9.63562 15.9526 9.41176 15.6765 9.41176C15.4003 9.41176 15.1765 9.63562 15.1765 9.91176H16.1765ZM9.72405 10.9704L9.36927 10.6181V10.6181L9.72405 10.9704ZM16.8548 4.49938C17.0494 4.30344 17.0483 3.98686 16.8523 3.79228C16.6564 3.5977 16.3398 3.5988 16.1452 3.79474L16.8548 4.49938ZM8.55536 10.9704L8.91014 10.6181L8.55536 10.9704ZM6.1489 7.83752C5.95432 7.64158 5.63774 7.64048 5.4418 7.83506C5.24586 8.02964 5.24475 8.34622 5.43933 8.54216L6.1489 7.83752ZM5.13529 3H12.3824V2H5.13529V3ZM13.0412 15.1765H5.13529V16.1765H13.0412V15.1765ZM3 13.0412V5.13529H2V13.0412H3ZM5.13529 15.1765C4.66582 15.1765 4.34379 15.1761 4.09423 15.1557C3.85049 15.1358 3.72023 15.0993 3.62631 15.0514L3.17231 15.9425C3.43071 16.0741 3.70722 16.1274 4.01279 16.1524C4.31253 16.1769 4.68232 16.1765 5.13529 16.1765V15.1765ZM2 13.0412C2 13.4941 1.99961 13.8639 2.0241 14.1637C2.04907 14.4692 2.10236 14.7458 2.23402 15.0042L3.12502 14.5502C3.07716 14.4562 3.04069 14.326 3.02078 14.0822C3.00039 13.8327 3 13.5106 3 13.0412H2ZM3.6263 15.0514C3.41047 14.9415 3.23499 14.766 3.12502 14.5502L2.23402 15.0042C2.43986 15.4081 2.76832 15.7366 3.17231 15.9425L3.6263 15.0514ZM15.1765 13.0412C15.1765 13.5106 15.1761 13.8327 15.1557 14.0822C15.1358 14.326 15.0993 14.4562 15.0514 14.5502L15.9425 15.0042C16.0741 14.7458 16.1274 14.4692 16.1524 14.1637C16.1769 13.8639 16.1765 13.4941 16.1765 13.0412H15.1765ZM13.0412 16.1765C13.4941 16.1765 13.8639 16.1769 14.1637 16.1524C14.4692 16.1274 14.7458 16.0741 15.0042 15.9425L14.5502 15.0514C14.4562 15.0993 14.326 15.1358 14.0822 15.1557C13.8327 15.1761 13.5106 15.1765 13.0412 15.1765V16.1765ZM15.0514 14.5502C14.9415 14.766 14.766 14.9415 14.5502 15.0514L15.0042 15.9425C15.4082 15.7366 15.7366 15.4082 15.9425 15.0042L15.0514 14.5502ZM5.13529 2C4.68232 2 4.31253 1.99961 4.01279 2.0241C3.70722 2.04907 3.43071 2.10236 3.17231 2.23402L3.62631 3.12502C3.72023 3.07716 3.85049 3.04069 4.09423 3.02078C4.34379 3.00039 4.66582 3 5.13529 3V2ZM3 5.13529C3 4.66582 3.00039 4.34379 3.02078 4.09423C3.04069 3.85049 3.07716 3.72023 3.12502 3.62631L2.23402 3.17231C2.10236 3.43071 2.04907 3.70722 2.0241 4.01279C1.99961 4.31253 2 4.68232 2 5.13529H3ZM3.17231 2.23402C2.76832 2.43986 2.43986 2.76832 2.23402 3.17231L3.12502 3.6263C3.23499 3.41047 3.41047 3.23499 3.6263 3.12502L3.17231 2.23402ZM16.1765 13.0412V9.91176H15.1765V13.0412H16.1765ZM10.0788 11.3227L16.8548 4.49938L16.1452 3.79474L9.36927 10.6181L10.0788 11.3227ZM8.91014 10.6181L6.1489 7.83752L5.43933 8.54216L8.20057 11.3227L8.91014 10.6181ZM9.36927 10.6181C9.24275 10.7455 9.03667 10.7455 8.91014 10.6181L8.20057 11.3227C8.71818 11.8439 9.56123 11.8439 10.0788 11.3227L9.36927 10.6181Z" fill="white"/>
</g>
</svg>
