<svg width="18" height="18" viewBox="0 0 18 18" fill="none" xmlns="http://www.w3.org/2000/svg">
<g id="menu-icons">
<path id="Vector" d="M13.7091 10.9091L14.1666 11.111L14.1687 11.1061L13.7091 10.9091ZM13.9191 12.0673L13.5616 12.4169L13.5655 12.4208L13.9191 12.0673ZM13.9573 12.1055L13.6037 12.459L13.6039 12.4592L13.9573 12.1055ZM13.9573 13.9064L13.6039 13.5526L13.6035 13.553L13.9573 13.9064ZM12.1564 13.9064L12.5101 13.553L12.5099 13.5528L12.1564 13.9064ZM12.1182 13.8682L12.4718 13.5146L12.4678 13.5107L12.1182 13.8682ZM10.96 13.6582L11.157 14.1178L11.1619 14.1156L10.96 13.6582ZM10.3236 14.6191L9.82364 14.6171V14.6191H10.3236ZM7.77818 14.67H8.27832L8.27805 14.6583L7.77818 14.67ZM7.09091 13.7091L6.88903 14.1665L6.90349 14.1729L6.91832 14.1784L7.09091 13.7091ZM5.93273 13.9191L5.58307 13.5616L5.57917 13.5655L5.93273 13.9191ZM5.89455 13.9573L5.54098 13.6037L5.5408 13.6039L5.89455 13.9573ZM4.09364 13.9573L4.44739 13.6039L4.44699 13.6035L4.09364 13.9573ZM3.72036 13.0568H4.22036H3.72036ZM4.09364 12.1564L4.44699 12.5101L4.4472 12.5099L4.09364 12.1564ZM4.13182 12.1182L4.4854 12.4718L4.48925 12.4678L4.13182 12.1182ZM4.34182 10.96L3.88222 11.157L3.88439 11.1619L4.34182 10.96ZM3.38091 10.3236L3.3829 9.82364H3.38091V10.3236ZM2 9.05091H1.5H2ZM3.27273 7.77818V8.27818V7.77818ZM3.33 7.77818V8.27832L3.34169 8.27805L3.33 7.77818ZM4.29091 7.09091L3.83348 6.88903L3.8271 6.90349L3.82164 6.91832L4.29091 7.09091ZM4.08091 5.93273L4.43836 5.58307L4.43447 5.57918L4.08091 5.93273ZM4.04273 5.89455L4.39628 5.54099L4.39609 5.5408L4.04273 5.89455ZM4.04273 4.09364L4.39609 4.44739L4.39648 4.44699L4.04273 4.09364ZM5.84364 4.09364L5.48989 4.44699L5.49008 4.44719L5.84364 4.09364ZM5.88182 4.13182L5.52824 4.48539L5.53219 4.48925L5.88182 4.13182ZM7.04 4.34182V3.84182H6.93457L6.83812 3.88439L7.04 4.34182ZM7.09091 4.34182V4.84182H7.19354L7.28787 4.80139L7.09091 4.34182ZM7.72727 3.38091L8.22727 3.3829V3.38091H7.72727ZM9 2V1.5V2ZM10.2727 3.33H9.77272L9.77273 3.33199L10.2727 3.33ZM10.9091 4.29091L11.111 3.83345L11.1061 3.83134L10.9091 4.29091ZM12.0673 4.08091L12.4169 4.43836L12.4208 4.43446L12.0673 4.08091ZM12.1055 4.04273L12.459 4.39628L12.4592 4.39608L12.1055 4.04273ZM13.0059 3.66945V4.16945V3.66945ZM13.9064 4.04273L13.5526 4.39608L13.553 4.39648L13.9064 4.04273ZM13.9064 5.84364L13.553 5.48989L13.5528 5.49008L13.9064 5.84364ZM13.8682 5.88182L13.5146 5.52824L13.5108 5.53219L13.8682 5.88182ZM13.6582 7.04H14.1582V6.93457L14.1156 6.83812L13.6582 7.04ZM13.6582 7.09091H13.1582V7.19354L13.1986 7.28787L13.6582 7.09091ZM14.6191 7.72727L14.6171 8.22727H14.6191V7.72727ZM14.67 10.2727V9.77272L14.668 9.77273L14.67 10.2727ZM7.00024 8.5C7.00024 8.22386 6.77639 8 6.50024 8C6.2241 8 6.00024 8.22386 6.00024 8.5H7.00024ZM6.00024 10.5C6.00024 10.7761 6.2241 11 6.50024 11C6.77639 11 7.00024 10.7761 7.00024 10.5H6.00024ZM9.50024 6.5C9.50024 6.22386 9.27639 6 9.00024 6C8.7241 6 8.50024 6.22386 8.50024 6.5H9.50024ZM8.50024 10.5C8.50024 10.7761 8.7241 11 9.00024 11C9.27639 11 9.50024 10.7761 9.50024 10.5H8.50024ZM12.0002 7.5C12.0002 7.22386 11.7764 7 11.5002 7C11.2241 7 11.0002 7.22386 11.0002 7.5H12.0002ZM11.0002 10.5C11.0002 10.7761 11.2241 11 11.5002 11C11.7764 11 12.0002 10.7761 12.0002 10.5H11.0002ZM13.2517 10.7072C13.1266 10.9905 13.0893 11.3048 13.1446 11.6096L14.1285 11.4312C14.1089 11.323 14.1222 11.2115 14.1665 11.111L13.2517 10.7072ZM13.1446 11.6096C13.1998 11.9143 13.3451 12.1955 13.5617 12.4169L14.2765 11.7176C14.1997 11.6391 14.1481 11.5393 14.1285 11.4312L13.1446 11.6096ZM13.5655 12.4208L13.6037 12.459L14.3108 11.7519L14.2726 11.7137L13.5655 12.4208ZM13.6039 12.4592C13.6758 12.531 13.7328 12.6162 13.7716 12.71L14.6954 12.3271C14.6062 12.1119 14.4755 11.9163 14.3106 11.7517L13.6039 12.4592ZM13.7716 12.71C13.8105 12.8038 13.8305 12.9044 13.8305 13.0059H14.8305C14.8305 12.7729 14.7846 12.5423 14.6954 12.3271L13.7716 12.71ZM13.8305 13.0059C13.8305 13.1075 13.8105 13.208 13.7716 13.3018L14.6954 13.6848C14.7846 13.4696 14.8305 13.2389 14.8305 13.0059H13.8305ZM13.7716 13.3018C13.7328 13.3956 13.6758 13.4808 13.6039 13.5526L14.3106 14.2601C14.4755 14.0955 14.6062 13.9 14.6954 13.6848L13.7716 13.3018ZM13.6035 13.553C13.5318 13.6249 13.4465 13.6818 13.3527 13.7207L13.7357 14.6445C13.9509 14.5553 14.1464 14.4245 14.311 14.2597L13.6035 13.553ZM13.3527 13.7207C13.2589 13.7596 13.1584 13.7796 13.0568 13.7796V14.7796C13.2898 14.7796 13.5205 14.7337 13.7357 14.6445L13.3527 13.7207ZM13.0568 13.7796C12.9553 13.7796 12.8547 13.7596 12.7609 13.7207L12.378 14.6445C12.5932 14.7337 12.8239 14.7796 13.0568 14.7796V13.7796ZM12.7609 13.7207C12.6671 13.6818 12.5819 13.6248 12.5101 13.553L11.8026 14.2597C11.9673 14.4245 12.1628 14.5553 12.378 14.6445L12.7609 13.7207ZM12.5099 13.5528L12.4717 13.5146L11.7646 14.2217L11.8028 14.2599L12.5099 13.5528ZM12.4678 13.5107C12.2464 13.2942 11.9652 13.1489 11.6605 13.0937L11.4821 14.0776C11.5902 14.0972 11.69 14.1488 11.7685 14.2256L12.4678 13.5107ZM11.6605 13.0937C11.3558 13.0384 11.0415 13.0757 10.7581 13.2008L11.1619 14.1156C11.2624 14.0712 11.3739 14.058 11.4821 14.0776L11.6605 13.0937ZM10.763 13.1986C10.4852 13.3177 10.2482 13.5154 10.0813 13.7674L10.9151 14.3196C10.9743 14.2302 11.0584 14.16 11.157 14.1178L10.763 13.1986ZM10.0813 13.7674C9.91442 14.0195 9.82485 14.3148 9.82364 14.6171L10.8236 14.6211C10.8241 14.5138 10.8558 14.409 10.9151 14.3196L10.0813 13.7674ZM9.82364 14.6191V14.7273H10.8236V14.6191H9.82364ZM9.82364 14.7273C9.82364 14.9322 9.74222 15.1288 9.59731 15.2737L10.3044 15.9808C10.6369 15.6483 10.8236 15.1974 10.8236 14.7273H9.82364ZM9.59731 15.2737C9.45239 15.4186 9.25585 15.5 9.05091 15.5V16.5C9.52107 16.5 9.97197 16.3132 10.3044 15.9808L9.59731 15.2737ZM9.05091 15.5C8.84597 15.5 8.64942 15.4186 8.50451 15.2737L7.7974 15.9808C8.12985 16.3132 8.58075 16.5 9.05091 16.5V15.5ZM8.50451 15.2737C8.35959 15.1288 8.27818 14.9322 8.27818 14.7273H7.27818C7.27818 15.1974 7.46495 15.6483 7.7974 15.9808L8.50451 15.2737ZM8.27818 14.7273V14.67H7.27818V14.7273H8.27818ZM8.27805 14.6583C8.27077 14.3474 8.17013 14.0458 7.98919 13.7928L7.17582 14.3746C7.24003 14.4644 7.27574 14.5714 7.27832 14.6817L8.27805 14.6583ZM7.98919 13.7928C7.80826 13.5399 7.5554 13.3472 7.2635 13.2398L6.91832 14.1784C7.0219 14.2165 7.11162 14.2848 7.17582 14.3746L7.98919 13.7928ZM7.29279 13.2517C7.00945 13.1266 6.69516 13.0893 6.39042 13.1446L6.56883 14.1285C6.67696 14.1089 6.78849 14.1222 6.88903 14.1665L7.29279 13.2517ZM6.39042 13.1446C6.08569 13.1998 5.80449 13.3451 5.5831 13.5617L6.28236 14.2765C6.36092 14.1997 6.4607 14.1481 6.56883 14.1285L6.39042 13.1446ZM5.57917 13.5655L5.54098 13.6037L6.24811 14.3108L6.28629 14.2726L5.57917 13.5655ZM5.5408 13.6039C5.46903 13.6758 5.38381 13.7328 5.29 13.7716L5.67294 14.6954C5.88814 14.6062 6.08366 14.4755 6.2483 14.3106L5.5408 13.6039ZM5.29 13.7716C5.19619 13.8105 5.09564 13.8305 4.99409 13.8305V14.8305C5.22706 14.8305 5.45774 14.7846 5.67294 14.6954L5.29 13.7716ZM4.99409 13.8305C4.89255 13.8305 4.79199 13.8105 4.69818 13.7716L4.31524 14.6954C4.53045 14.7846 4.76113 14.8305 4.99409 14.8305V13.8305ZM4.69818 13.7716C4.60437 13.7328 4.51915 13.6758 4.44739 13.6039L3.73989 14.3106C3.90453 14.4755 4.10004 14.6062 4.31524 14.6954L4.69818 13.7716ZM4.44699 13.6035C4.37515 13.5318 4.31815 13.4465 4.27927 13.3527L3.35549 13.7357C3.4447 13.9509 3.57546 14.1464 3.74028 14.311L4.44699 13.6035ZM4.27927 13.3527C4.24038 13.2589 4.22036 13.1584 4.22036 13.0568H3.22036C3.22036 13.2898 3.26628 13.5205 3.35549 13.7357L4.27927 13.3527ZM4.22036 13.0568C4.22036 12.9553 4.24038 12.8547 4.27927 12.7609L3.35549 12.378C3.26628 12.5932 3.22036 12.8239 3.22036 13.0568H4.22036ZM4.27927 12.7609C4.31815 12.6671 4.37515 12.5819 4.44699 12.5101L3.74028 11.8026C3.57546 11.9673 3.4447 12.1628 3.35549 12.378L4.27927 12.7609ZM4.4472 12.5099L4.48538 12.4717L3.77826 11.7646L3.74008 11.8028L4.4472 12.5099ZM4.48925 12.4678C4.70582 12.2464 4.85109 11.9652 4.90634 11.6605L3.92239 11.4821C3.90278 11.5902 3.85123 11.69 3.77439 11.7685L4.48925 12.4678ZM4.90634 11.6605C4.9616 11.3558 4.9243 11.0415 4.79925 10.7581L3.88439 11.1619C3.92876 11.2624 3.942 11.3739 3.92239 11.4821L4.90634 11.6605ZM4.80139 10.763C4.68231 10.4852 4.48458 10.2482 4.23255 10.0813L3.6804 10.9151C3.76983 10.9743 3.84 11.0584 3.88225 11.157L4.80139 10.763ZM4.23255 10.0813C3.98052 9.91442 3.68519 9.82485 3.3829 9.82364L3.37892 10.8236C3.48618 10.8241 3.59097 10.8558 3.6804 10.9151L4.23255 10.0813ZM3.38091 9.82364H3.27273V10.8236H3.38091V9.82364ZM3.27273 9.82364C3.06779 9.82364 2.87124 9.74222 2.72633 9.59731L2.01922 10.3044C2.35167 10.6369 2.80257 10.8236 3.27273 10.8236V9.82364ZM2.72633 9.59731C2.58141 9.45239 2.5 9.25585 2.5 9.05091H1.5C1.5 9.52107 1.68677 9.97197 2.01922 10.3044L2.72633 9.59731ZM2.5 9.05091C2.5 8.84597 2.58141 8.64942 2.72633 8.50451L2.01922 7.7974C1.68677 8.12985 1.5 8.58075 1.5 9.05091H2.5ZM2.72633 8.50451C2.87124 8.35959 3.06779 8.27818 3.27273 8.27818V7.27818C2.80257 7.27818 2.35167 7.46495 2.01922 7.7974L2.72633 8.50451ZM3.27273 8.27818H3.33V7.27818H3.27273V8.27818ZM3.34169 8.27805C3.65263 8.27077 3.95418 8.17013 4.20716 7.98919L3.62541 7.17582C3.53564 7.24003 3.42864 7.27574 3.31831 7.27832L3.34169 8.27805ZM4.20716 7.98919C4.46013 7.80826 4.65282 7.5554 4.76018 7.2635L3.82164 6.91832C3.78355 7.0219 3.71517 7.11162 3.62541 7.17582L4.20716 7.98919ZM4.74834 7.29279C4.87339 7.00945 4.91069 6.69516 4.85544 6.39042L3.87148 6.56883C3.89109 6.67696 3.87785 6.78849 3.83348 6.88903L4.74834 7.29279ZM4.85544 6.39042C4.80018 6.08569 4.65491 5.80449 4.43834 5.58309L3.72348 6.28236C3.80032 6.36092 3.85187 6.4607 3.87148 6.56883L4.85544 6.39042ZM4.43447 5.57918L4.39628 5.54099L3.68917 6.2481L3.72735 6.28628L4.43447 5.57918ZM4.39609 5.5408C4.32424 5.46903 4.26724 5.38381 4.22836 5.29L3.30458 5.67294C3.39379 5.88815 3.52455 6.08366 3.68937 6.2483L4.39609 5.5408ZM4.22836 5.29C4.18947 5.19619 4.16945 5.09564 4.16945 4.99409H3.16945C3.16945 5.22705 3.21537 5.45773 3.30458 5.67294L4.22836 5.29ZM4.16945 4.99409C4.16945 4.89254 4.18947 4.79199 4.22836 4.69818L3.30458 4.31524C3.21537 4.53045 3.16945 4.76113 3.16945 4.99409H4.16945ZM4.22836 4.69818C4.26724 4.60438 4.32424 4.51915 4.39609 4.44739L3.68937 3.73989C3.52455 3.90452 3.39379 4.10003 3.30458 4.31524L4.22836 4.69818ZM4.39648 4.44699C4.46824 4.37515 4.55347 4.31815 4.64727 4.27926L4.26433 3.35549C4.04913 3.4447 3.85362 3.57546 3.68898 3.74028L4.39648 4.44699ZM4.64727 4.27926C4.74108 4.24038 4.84163 4.22036 4.94318 4.22036V3.22036C4.71022 3.22036 4.47954 3.26628 4.26433 3.35549L4.64727 4.27926ZM4.94318 4.22036C5.04473 4.22036 5.14528 4.24038 5.23909 4.27926L5.62203 3.35549C5.40683 3.26628 5.17615 3.22036 4.94318 3.22036V4.22036ZM5.23909 4.27926C5.3329 4.31815 5.41812 4.37515 5.48989 4.44699L6.19739 3.74028C6.03275 3.57546 5.83724 3.4447 5.62203 3.35549L5.23909 4.27926ZM5.49008 4.44719L5.52826 4.48537L6.23537 3.77827L6.19719 3.74009L5.49008 4.44719ZM5.53219 4.48925C5.75358 4.70581 6.03478 4.85109 6.33951 4.90634L6.51792 3.92239C6.40979 3.90278 6.31001 3.85123 6.23145 3.77439L5.53219 4.48925ZM6.33951 4.90634C6.64425 4.9616 6.95855 4.9243 7.24188 4.79925L6.83812 3.88439C6.73758 3.92876 6.62605 3.94199 6.51792 3.92239L6.33951 4.90634ZM7.04 4.84182H7.09091V3.84182H7.04V4.84182ZM7.28787 4.80139C7.56572 4.68231 7.80268 4.48458 7.96959 4.23255L7.13584 3.6804C7.07662 3.76983 6.99253 3.83999 6.89394 3.88225L7.28787 4.80139ZM7.96959 4.23255C8.13649 3.98052 8.22606 3.68519 8.22727 3.3829L7.22728 3.37892C7.22685 3.48618 7.19507 3.59097 7.13584 3.6804L7.96959 4.23255ZM8.22727 3.38091V3.27273H7.22727V3.38091H8.22727ZM8.22727 3.27273C8.22727 3.06779 8.30869 2.87124 8.4536 2.72633L7.74649 2.01922C7.41404 2.35167 7.22727 2.80257 7.22727 3.27273H8.22727ZM8.4536 2.72633C8.59851 2.58141 8.79506 2.5 9 2.5V1.5C8.52984 1.5 8.07894 1.68677 7.74649 2.01922L8.4536 2.72633ZM9 2.5C9.20494 2.5 9.40149 2.58141 9.5464 2.72633L10.2535 2.01922C9.92106 1.68677 9.47016 1.5 9 1.5V2.5ZM9.5464 2.72633C9.69132 2.87124 9.77273 3.06779 9.77273 3.27273H10.7727C10.7727 2.80257 10.586 2.35167 10.2535 2.01922L9.5464 2.72633ZM9.77273 3.27273V3.33H10.7727V3.27273H9.77273ZM9.77273 3.33199C9.77394 3.63428 9.86351 3.92961 10.0304 4.18164L10.8642 3.62949C10.8049 3.54006 10.7732 3.43527 10.7727 3.32801L9.77273 3.33199ZM10.0304 4.18164C10.1973 4.43367 10.4343 4.6314 10.7121 4.75048L11.1061 3.83134C11.0075 3.78908 10.9234 3.71892 10.8642 3.62949L10.0304 4.18164ZM10.7072 4.74834C10.9905 4.87339 11.3048 4.91069 11.6096 4.85544L11.4312 3.87148C11.323 3.89109 11.2115 3.87785 11.111 3.83348L10.7072 4.74834ZM11.6096 4.85544C11.9143 4.80018 12.1955 4.65491 12.4169 4.43834L11.7176 3.72348C11.6391 3.80032 11.5393 3.85187 11.4312 3.87148L11.6096 4.85544ZM12.4208 4.43446L12.459 4.39628L11.7519 3.68918L11.7137 3.72736L12.4208 4.43446ZM12.4592 4.39608C12.531 4.32424 12.6162 4.26724 12.71 4.22836L12.3271 3.30458C12.1119 3.39379 11.9163 3.52455 11.7517 3.68937L12.4592 4.39608ZM12.71 4.22836C12.8038 4.18947 12.9044 4.16945 13.0059 4.16945V3.16945C12.7729 3.16945 12.5423 3.21537 12.3271 3.30458L12.71 4.22836ZM13.0059 4.16945C13.1075 4.16945 13.208 4.18947 13.3018 4.22836L13.6848 3.30458C13.4696 3.21537 13.2389 3.16945 13.0059 3.16945V4.16945ZM13.3018 4.22836C13.3956 4.26724 13.4809 4.32424 13.5526 4.39608L14.2601 3.68937C14.0955 3.52455 13.9 3.39379 13.6848 3.30458L13.3018 4.22836ZM13.553 4.39648C13.6249 4.46824 13.6818 4.55346 13.7207 4.64727L14.6445 4.26433C14.5553 4.04913 14.4245 3.85362 14.2597 3.68898L13.553 4.39648ZM13.7207 4.64727C13.7596 4.74108 13.7796 4.84164 13.7796 4.94318H14.7796C14.7796 4.71022 14.7337 4.47954 14.6445 4.26433L13.7207 4.64727ZM13.7796 4.94318C13.7796 5.04473 13.7596 5.14528 13.7207 5.23909L14.6445 5.62203C14.7337 5.40683 14.7796 5.17615 14.7796 4.94318H13.7796ZM13.7207 5.23909C13.6818 5.3329 13.6249 5.41812 13.553 5.48989L14.2597 6.19739C14.4245 6.03275 14.5553 5.83723 14.6445 5.62203L13.7207 5.23909ZM13.5528 5.49008L13.5146 5.52826L14.2217 6.23538L14.2599 6.1972L13.5528 5.49008ZM13.5108 5.53219C13.2942 5.75358 13.1489 6.03478 13.0937 6.33951L14.0776 6.51792C14.0972 6.40979 14.1488 6.31001 14.2256 6.23145L13.5108 5.53219ZM13.0937 6.33951C13.0384 6.64425 13.0757 6.95855 13.2008 7.24188L14.1156 6.83812C14.0712 6.73758 14.058 6.62605 14.0776 6.51792L13.0937 6.33951ZM13.1582 7.04V7.09091H14.1582V7.04H13.1582ZM13.1986 7.28787C13.3177 7.56572 13.5154 7.80268 13.7675 7.96959L14.3196 7.13584C14.2302 7.07661 14.16 6.99253 14.1178 6.89394L13.1986 7.28787ZM13.7675 7.96959C14.0195 8.13649 14.3148 8.22606 14.6171 8.22727L14.6211 7.22728C14.5138 7.22685 14.409 7.19507 14.3196 7.13584L13.7675 7.96959ZM14.6191 8.22727H14.7273V7.22727H14.6191V8.22727ZM14.7273 8.22727C14.9322 8.22727 15.1288 8.30868 15.2737 8.4536L15.9808 7.74649C15.6483 7.41404 15.1974 7.22727 14.7273 7.22727V8.22727ZM15.2737 8.4536C15.4186 8.59851 15.5 8.79506 15.5 9H16.5C16.5 8.52984 16.3132 8.07894 15.9808 7.74649L15.2737 8.4536ZM15.5 9C15.5 9.20494 15.4186 9.40149 15.2737 9.5464L15.9808 10.2535C16.3132 9.92106 16.5 9.47016 16.5 9H15.5ZM15.2737 9.5464C15.1288 9.69132 14.9322 9.77273 14.7273 9.77273V10.7727C15.1974 10.7727 15.6483 10.586 15.9808 10.2535L15.2737 9.5464ZM14.7273 9.77273H14.67V10.7727H14.7273V9.77273ZM14.668 9.77273C14.3657 9.77394 14.0704 9.86351 13.8184 10.0304L14.3705 10.8642C14.4599 10.8049 14.5647 10.7732 14.672 10.7727L14.668 9.77273ZM13.8184 10.0304C13.5663 10.1973 13.3686 10.4343 13.2495 10.7121L14.1687 11.1061C14.2109 11.0075 14.2811 10.9234 14.3705 10.8642L13.8184 10.0304ZM6.00024 8.5V10.5H7.00024V8.5H6.00024ZM8.50024 6.5V10.5H9.50024V6.5H8.50024ZM11.0002 7.5V10.5H12.0002V7.5H11.0002Z" fill="white"/>
</g>
</svg>
