<svg width="19" height="18" viewBox="0 0 19 18" fill="none" xmlns="http://www.w3.org/2000/svg">
<g id="menu-icons">
<path id="Icon" d="M7.625 9.04134C7.625 9.31748 7.84886 9.54134 8.125 9.54134C8.40114 9.54134 8.625 9.31748 8.625 9.04134H7.625ZM8.625 6.37467C8.625 6.09853 8.40114 5.87467 8.125 5.87467C7.84886 5.87467 7.625 6.09853 7.625 6.37467H8.625ZM10.2917 11.708C10.2917 11.9841 10.5155 12.208 10.7917 12.208C11.0678 12.208 11.2917 11.9841 11.2917 11.708H10.2917ZM11.2917 6.37467C11.2917 6.09853 11.0678 5.87467 10.7917 5.87467C10.5155 5.87467 10.2917 6.09853 10.2917 6.37467H11.2917ZM12.9583 11.708C12.9583 11.9841 13.1822 12.208 13.4583 12.208C13.7345 12.208 13.9583 11.9841 13.9583 11.708H12.9583ZM13.9583 7.70801C13.9583 7.43187 13.7345 7.20801 13.4583 7.20801C13.1822 7.20801 12.9583 7.43187 12.9583 7.70801H13.9583ZM2.29167 7.70801C2.29167 7.98415 2.51552 8.20801 2.79167 8.20801C3.06781 8.20801 3.29167 7.98415 3.29167 7.70801H2.29167ZM9.45833 13.8747C9.18219 13.8747 8.95833 14.0985 8.95833 14.3747C8.95833 14.6508 9.18219 14.8747 9.45833 14.8747V13.8747ZM5.625 11.0413C5.625 11.5016 5.2519 11.8747 4.79167 11.8747V12.8747C5.80419 12.8747 6.625 12.0539 6.625 11.0413H5.625ZM4.79167 11.8747C4.33143 11.8747 3.95833 11.5016 3.95833 11.0413H2.95833C2.95833 12.0539 3.77914 12.8747 4.79167 12.8747V11.8747ZM3.95833 11.0413C3.95833 10.5811 4.33143 10.208 4.79167 10.208V9.20801C3.77914 9.20801 2.95833 10.0288 2.95833 11.0413H3.95833ZM4.79167 10.208C5.2519 10.208 5.625 10.5811 5.625 11.0413H6.625C6.625 10.0288 5.80419 9.20801 4.79167 9.20801V10.208ZM7.4549 14.5413H2.12843V15.5413H7.4549V14.5413ZM6.95833 15.0379C6.95833 14.7636 7.18067 14.5413 7.4549 14.5413V15.5413C7.73292 15.5413 7.95833 15.316 7.95833 15.0379H6.95833ZM4.79167 12.8747C5.98723 12.8747 6.95833 13.844 6.95833 15.0379H7.95833C7.95833 13.2901 6.53783 11.8747 4.79167 11.8747V12.8747ZM2.625 15.0379C2.625 13.844 3.59611 12.8747 4.79167 12.8747V11.8747C3.0455 11.8747 1.625 13.2901 1.625 15.0379H2.625ZM1.625 15.0379C1.625 15.3159 1.85039 15.5413 2.12843 15.5413V14.5413C2.40268 14.5413 2.625 14.7637 2.625 15.0379H1.625ZM8.625 9.04134V6.37467H7.625V9.04134H8.625ZM11.2917 11.708L11.2917 6.37467H10.2917L10.2917 11.708H11.2917ZM13.9583 11.708V7.70801H12.9583V11.708H13.9583ZM4.125 4.20801H14.7917V3.20801H4.125V4.20801ZM15.625 5.04134V13.0413H16.625V5.04134H15.625ZM15.625 13.0413C15.625 13.5016 15.2519 13.8747 14.7917 13.8747V14.8747C15.8042 14.8747 16.625 14.0539 16.625 13.0413H15.625ZM14.7917 4.20801C15.2519 4.20801 15.625 4.5811 15.625 5.04134H16.625C16.625 4.02882 15.8042 3.20801 14.7917 3.20801V4.20801ZM4.125 3.20801C3.11248 3.20801 2.29167 4.02882 2.29167 5.04134H3.29167C3.29167 4.5811 3.66476 4.20801 4.125 4.20801V3.20801ZM3.29167 7.70801V5.04134H2.29167V7.70801H3.29167ZM14.7917 13.8747H9.45833V14.8747H14.7917V13.8747Z" fill="white" fill-opacity="0.85"/>
</g>
</svg>
