<svg width="18" height="18" viewBox="0 0 18 18" fill="none" xmlns="http://www.w3.org/2000/svg">
<path d="M9.65908 16.8777C9.69419 17.1776 9.6064 17.4976 9.41324 17.7075C9.06204 18.0975 8.50891 18.0975 8.16649 17.7075L4.64574 13.6981C4.4438 13.4681 4.356 13.1582 4.39112 12.8682V7.74892L0.18554 1.61977C-0.112978 1.18983 -0.0427384 0.559922 0.334798 0.219969C0.501617 0.0799889 0.685995 0 0.879153 0H13.171C13.3642 0 13.5486 0.0799889 13.7154 0.219969C14.0929 0.559922 14.1632 1.18983 13.8647 1.61977L9.65908 7.74892V16.8777ZM2.67026 1.99972L6.14711 7.06902V12.5783L7.90309 14.578V7.04902L11.3799 1.99972H2.67026ZM13.8295 17.9975L11.4151 14.9979L12.4335 13.8381L13.8295 15.4279L16.9815 11.8384L18 13.2482L13.8295 17.9975Z" fill="black"/>
</svg>
