<svg width="24" height="24" viewBox="0 0 24 24" fill="none" xmlns="http://www.w3.org/2000/svg">
<path d="M20.4697 21.5303C20.7626 21.8232 21.2374 21.8232 21.5303 21.5303C21.8232 21.2374 21.8232 20.7626 21.5303 20.4697L20.4697 21.5303ZM17.0735 10.4118C17.0735 14.091 14.091 17.0735 10.4118 17.0735V18.5735C14.9194 18.5735 18.5735 14.9194 18.5735 10.4118H17.0735ZM10.4118 17.0735C6.73257 17.0735 3.75 14.091 3.75 10.4118H2.25C2.25 14.9194 5.90415 18.5735 10.4118 18.5735V17.0735ZM3.75 10.4118C3.75 6.73257 6.73257 3.75 10.4118 3.75V2.25C5.90415 2.25 2.25 5.90415 2.25 10.4118H3.75ZM10.4118 3.75C14.091 3.75 17.0735 6.73257 17.0735 10.4118H18.5735C18.5735 5.90415 14.9194 2.25 10.4118 2.25V3.75ZM15.1756 16.2362L20.4697 21.5303L21.5303 20.4697L16.2362 15.1756L15.1756 16.2362Z" fill="black"/>
</svg>
