<svg width="500" height="500" viewBox="0 0 500 500" fill="none" xmlns="http://www.w3.org/2000/svg">
<path d="M158.373 215.369C158.373 220.581 158.932 224.807 159.91 227.906C161.027 231.006 162.424 234.387 164.38 238.049C165.078 239.176 165.357 240.303 165.357 241.289C165.357 242.698 164.519 244.107 162.703 245.516L153.904 251.432C152.647 252.277 151.39 252.7 150.272 252.7C148.876 252.7 147.479 251.996 146.082 250.728C144.127 248.615 142.451 246.361 141.054 244.107C139.657 241.712 138.26 239.035 136.724 235.795C125.829 248.756 112.141 255.236 95.6595 255.236C83.9269 255.236 74.5687 251.855 67.7246 245.093C60.8805 238.331 57.3887 229.315 57.3887 218.045C57.3887 206.071 61.5789 196.351 70.0991 189.026C78.6192 181.7 89.9329 178.038 104.319 178.038C109.068 178.038 113.957 178.46 119.125 179.165C124.293 179.869 129.601 180.996 135.187 182.264V171.98C135.187 161.274 132.953 153.807 128.623 149.44C124.153 145.073 116.611 142.96 105.856 142.96C100.967 142.96 95.9389 143.524 90.7709 144.792C85.603 146.059 80.5747 147.609 75.6861 149.581C73.4513 150.567 71.7752 151.131 70.7974 151.413C69.8197 151.694 69.1213 151.835 68.5627 151.835C66.6072 151.835 65.6295 150.426 65.6295 147.468V140.565C65.6295 138.311 65.9088 136.621 66.6072 135.635C67.3056 134.649 68.5627 133.663 70.5181 132.677C75.4067 130.141 81.2731 128.028 88.1171 126.337C94.9612 124.506 102.224 123.661 109.906 123.661C126.528 123.661 138.679 127.464 146.501 135.071C154.183 142.678 158.094 154.23 158.094 169.726V215.369H158.373ZM101.666 236.781C106.275 236.781 111.024 235.936 116.052 234.246C121.08 232.555 125.55 229.456 129.321 225.23C131.556 222.553 133.232 219.595 134.07 216.214C134.908 212.833 135.467 208.748 135.467 203.958V198.041C131.416 197.055 127.086 196.21 122.617 195.647C118.147 195.083 113.817 194.801 109.487 194.801C100.129 194.801 93.2851 196.633 88.6758 200.436C84.0665 204.24 81.8318 209.593 81.8318 216.637C81.8318 223.258 83.5078 228.188 86.9997 231.569C90.3519 235.091 95.2405 236.781 101.666 236.781ZM213.824 251.996C211.31 251.996 209.634 251.573 208.517 250.587C207.399 249.742 206.422 247.77 205.584 245.093L172.76 136.198C171.922 133.381 171.503 131.55 171.503 130.563C171.503 128.309 172.62 127.042 174.855 127.042H188.543C191.197 127.042 193.013 127.464 193.991 128.45C195.108 129.296 195.946 131.268 196.784 133.944L220.249 227.202L242.039 133.944C242.737 131.127 243.575 129.296 244.693 128.45C245.81 127.605 247.765 127.042 250.279 127.042H261.453C264.107 127.042 265.923 127.464 267.04 128.45C268.158 129.296 269.136 131.268 269.694 133.944L291.763 228.329L315.927 133.944C316.765 131.127 317.742 129.296 318.72 128.45C319.838 127.605 321.653 127.042 324.167 127.042H337.157C339.392 127.042 340.649 128.169 340.649 130.563C340.649 131.268 340.509 131.972 340.37 132.817C340.23 133.663 339.951 134.79 339.392 136.339L305.73 245.234C304.892 248.051 303.915 249.883 302.797 250.728C301.68 251.573 299.864 252.137 297.49 252.137H285.478C282.824 252.137 281.008 251.714 279.891 250.728C278.773 249.742 277.795 247.91 277.237 245.093L255.587 154.23L234.077 244.952C233.379 247.77 232.541 249.601 231.423 250.587C230.306 251.573 228.351 251.996 225.836 251.996H213.824ZM393.306 255.799C386.043 255.799 378.78 254.954 371.797 253.264C364.813 251.573 359.365 249.742 355.734 247.629C353.499 246.361 351.963 244.952 351.404 243.684C350.845 242.416 350.566 241.008 350.566 239.74V232.555C350.566 229.597 351.683 228.188 353.778 228.188C354.617 228.188 355.455 228.329 356.293 228.611C357.131 228.893 358.388 229.456 359.784 230.02C364.533 232.133 369.701 233.823 375.149 234.95C380.736 236.077 386.183 236.641 391.77 236.641C400.57 236.641 407.414 235.091 412.162 231.992C416.911 228.893 419.426 224.385 419.426 218.609C419.426 214.664 418.169 211.424 415.654 208.748C413.14 206.071 408.391 203.676 401.547 201.422L381.294 195.083C371.098 191.843 363.556 187.053 358.946 180.714C354.337 174.516 351.963 167.613 351.963 160.288C351.963 154.371 353.22 149.159 355.734 144.651C358.248 140.143 361.6 136.198 365.79 133.099C369.981 129.859 374.73 127.464 380.317 125.774C385.904 124.083 391.77 123.379 397.916 123.379C400.989 123.379 404.201 123.52 407.274 123.942C410.486 124.365 413.42 124.929 416.353 125.492C419.146 126.196 421.8 126.901 424.314 127.746C426.828 128.591 428.784 129.436 430.181 130.282C432.136 131.409 433.533 132.536 434.371 133.803C435.209 134.93 435.628 136.48 435.628 138.452V145.073C435.628 148.032 434.51 149.581 432.415 149.581C431.298 149.581 429.482 149.018 427.108 147.891C419.146 144.228 410.207 142.397 400.29 142.397C392.329 142.397 386.043 143.665 381.713 146.341C377.384 149.018 375.149 153.103 375.149 158.879C375.149 162.823 376.545 166.204 379.339 168.881C382.132 171.557 387.3 174.234 394.703 176.629L414.537 182.968C424.594 186.208 431.857 190.716 436.187 196.492C440.516 202.268 442.612 208.889 442.612 216.214C442.612 222.272 441.355 227.766 438.98 232.555C436.466 237.345 433.114 241.571 428.784 244.952C424.454 248.474 419.286 251.01 413.28 252.841C406.995 254.813 400.43 255.799 393.306 255.799Z" fill="#252F3E"/>
<path d="M419.217 323.81C373.32 358.02 306.637 376.181 249.301 376.181C168.947 376.181 96.5439 346.194 41.8582 296.358C37.5336 292.416 41.4397 287.066 46.6014 290.163C105.751 324.796 178.712 345.772 254.184 345.772C305.103 345.772 361.044 335.073 412.521 313.111C420.194 309.591 426.751 318.179 419.217 323.81Z" fill="#FF9900"/>
<path d="M438.799 302.048C432.917 294.501 399.867 298.414 384.883 300.231C380.402 300.79 379.701 296.877 383.763 293.942C410.091 275.494 453.364 280.804 458.405 286.954C463.447 293.243 457.005 336.428 432.357 357.112C428.576 360.326 424.935 358.649 426.616 354.457C432.217 340.621 444.681 309.455 438.799 302.048Z" fill="#FF9900"/>
</svg>
