<svg width="500" height="500" viewBox="0 0 500 500" fill="none" xmlns="http://www.w3.org/2000/svg">
<path fill-rule="evenodd" clip-rule="evenodd" d="M236.83 201.718L278.686 117.318L386 305L173.765 302.776L310.539 287.231L236.83 201.718ZM174.336 164.515L270.432 84L163.723 278.917L103 285.012L174.336 164.515ZM163.376 413.274H178.051L147.535 335H132.899L103 413.287H117.662L124.442 393.293H156.038L163.376 413.274ZM141.378 351.65L152.656 382.737H128.413L139.132 351.65C139.628 350.016 140.003 348.348 140.255 346.659C140.507 348.348 140.882 350.016 141.378 351.65ZM198.982 403.224L229.455 362.715L229.979 362.717V357.202H184.282V367.199H212.483L180.874 408.322V413.221H229.443V403.224H198.982ZM277.333 413.274H290.312L290.821 357.198H277.856V389.357C277.856 393.399 276.473 397.319 273.938 400.465C272.712 401.768 271.221 402.793 269.566 403.469C267.91 404.145 266.128 404.458 264.342 404.386C256.448 404.386 252.501 399.389 252.501 389.397V357.198H239.523V390.526C239.523 406.623 246.3 414.399 259.839 414.399C263.399 414.551 266.931 413.694 270.026 411.925C273.121 410.156 275.654 407.549 277.333 404.402V413.274ZM333.183 367.758C335.567 367.642 337.917 368.218 339.963 369.418L339.315 357.198C337.729 356.443 335.992 356.063 334.236 356.088C330.929 356.02 327.75 357.212 325.306 359.42C322.672 362.046 320.733 365.289 319.667 368.854V357.198H306.688V413.285H319.667V386.628C319.667 380.59 320.77 376.082 323.586 372.75C326.402 369.418 329.263 367.758 333.183 367.758ZM358.582 388.849H397.502L398 383.788C398 374.92 396.318 368.256 391.799 363.264C387.279 358.273 381.574 356.051 373.74 356.051C370.045 355.945 366.37 356.635 362.965 358.073C359.559 359.512 356.502 361.665 354 364.388C348.714 370.116 345.899 377.7 346.166 385.493C346.166 394.927 348.427 402.153 353.503 407.145C356.078 409.741 359.16 411.777 362.557 413.126C365.953 414.475 369.592 415.108 373.244 414.985C381.704 414.985 388.493 413.308 393.611 409.953V399.957C388.749 403.686 382.762 405.645 376.637 405.51C370.996 405.51 366.479 403.838 363.659 401.067C360.279 398.283 358.582 393.841 358.582 388.849ZM381.704 369.418C383.962 371.636 385.086 375.519 385.086 379.961L358.567 379.96C359.166 375.519 360.265 372.187 363.085 369.416C364.311 368.113 365.802 367.089 367.458 366.412C369.113 365.736 370.895 365.423 372.682 365.495C374.39 365.375 376.102 365.669 377.673 366.352C379.243 367.035 380.626 368.086 381.704 369.418Z" fill="#035BDA"/>
</svg>
