<svg width="500" height="500" viewBox="0 0 500 500" fill="none" xmlns="http://www.w3.org/2000/svg">
<path d="M76.0544 25.001C72.5387 24.9556 69.1829 26.4673 66.8871 29.1303C64.5914 31.7934 63.5907 35.3353 64.1536 38.806L114.673 345.492C115.972 353.238 122.646 358.934 130.501 358.999H372.862C378.758 359.075 383.82 354.822 384.763 349.002L435.282 38.8655C435.845 35.3948 434.844 31.8529 432.549 29.1898C430.253 26.5268 426.897 25.0152 423.381 25.0605L76.0544 25.001ZM288.783 246.655H211.427L190.481 137.226H307.526L288.783 246.655Z" fill="#2684FF"/>
<path d="M418.911 137.072H307.311L288.582 246.413H211.288L120.021 354.744C122.914 357.245 126.602 358.636 130.426 358.668H372.654C378.545 358.744 383.603 354.495 384.545 348.679L418.911 137.072Z" fill="url(#paint0_linear_1240_5224)"/>
<path d="M72.6582 462V403.818H93.965C98.0938 403.818 101.512 404.5 104.221 405.863C106.929 407.208 108.956 409.036 110.3 411.346C111.645 413.638 112.317 416.223 112.317 419.102C112.317 421.526 111.872 423.572 110.982 425.238C110.092 426.886 108.899 428.212 107.403 429.216C105.925 430.2 104.296 430.92 102.516 431.375V431.943C104.448 432.038 106.332 432.663 108.17 433.818C110.026 434.954 111.56 436.574 112.772 438.676C113.984 440.778 114.59 443.335 114.59 446.346C114.59 449.32 113.889 451.99 112.488 454.358C111.105 456.706 108.965 458.572 106.067 459.954C103.17 461.318 99.4669 462 94.9593 462H72.6582ZM81.4366 454.471H94.1071C98.3116 454.471 101.323 453.657 103.141 452.028C104.959 450.399 105.868 448.363 105.868 445.92C105.868 444.083 105.404 442.397 104.476 440.863C103.548 439.329 102.223 438.108 100.499 437.199C98.7946 436.289 96.7681 435.835 94.4196 435.835H81.4366V454.471ZM81.4366 428.988H93.198C95.1677 428.988 96.9385 428.609 98.5105 427.852C100.101 427.094 101.361 426.034 102.289 424.67C103.236 423.288 103.709 421.659 103.709 419.784C103.709 417.378 102.867 415.361 101.181 413.733C99.4953 412.104 96.9101 411.289 93.4252 411.289H81.4366V428.988Z" fill="black"/>
<path d="M124.32 462V418.363H132.814V462H124.32ZM128.61 411.63C127.133 411.63 125.864 411.138 124.803 410.153C123.761 409.149 123.241 407.956 123.241 406.574C123.241 405.172 123.761 403.979 124.803 402.994C125.864 401.99 127.133 401.488 128.61 401.488C130.087 401.488 131.347 401.99 132.388 402.994C133.449 403.979 133.979 405.172 133.979 406.574C133.979 407.956 133.449 409.149 132.388 410.153C131.347 411.138 130.087 411.63 128.61 411.63Z" fill="black"/>
<path d="M164.611 418.363V425.181H140.776V418.363H164.611ZM147.168 407.909H155.662V449.187C155.662 450.835 155.909 452.075 156.401 452.909C156.894 453.723 157.528 454.282 158.305 454.585C159.1 454.869 159.962 455.011 160.89 455.011C161.572 455.011 162.168 454.964 162.68 454.869C163.191 454.774 163.589 454.699 163.873 454.642L165.407 461.659C164.914 461.848 164.214 462.038 163.305 462.227C162.395 462.435 161.259 462.549 159.895 462.568C157.661 462.606 155.577 462.208 153.645 461.375C151.714 460.541 150.151 459.253 148.958 457.511C147.765 455.769 147.168 453.581 147.168 450.949V407.909Z" fill="black"/>
<path d="M175.627 462V403.818H184.121V425.437H184.633C185.125 424.528 185.835 423.477 186.763 422.284C187.691 421.091 188.979 420.049 190.627 419.159C192.275 418.25 194.453 417.795 197.161 417.795C200.684 417.795 203.828 418.685 206.593 420.466C209.358 422.246 211.527 424.812 213.099 428.164C214.689 431.517 215.485 435.551 215.485 440.267C215.485 444.983 214.699 449.026 213.127 452.397C211.555 455.75 209.396 458.335 206.65 460.153C203.903 461.952 200.769 462.852 197.246 462.852C194.595 462.852 192.426 462.407 190.741 461.517C189.074 460.627 187.767 459.585 186.82 458.392C185.873 457.199 185.144 456.138 184.633 455.21H183.922V462H175.627ZM183.951 440.181C183.951 443.25 184.396 445.939 185.286 448.25C186.176 450.56 187.464 452.369 189.15 453.676C190.835 454.964 192.9 455.608 195.343 455.608C197.881 455.608 200.002 454.935 201.706 453.591C203.411 452.227 204.699 450.38 205.57 448.051C206.46 445.721 206.905 443.098 206.905 440.181C206.905 437.303 206.47 434.717 205.599 432.426C204.746 430.134 203.458 428.325 201.735 427C200.03 425.674 197.9 425.011 195.343 425.011C192.881 425.011 190.797 425.645 189.093 426.914C187.407 428.183 186.129 429.954 185.258 432.227C184.386 434.5 183.951 437.151 183.951 440.181Z" fill="black"/>
<path d="M252.665 443.903V418.363H261.188V462H252.836V454.443H252.381C251.377 456.772 249.768 458.714 247.552 460.267C245.355 461.801 242.618 462.568 239.341 462.568C236.538 462.568 234.057 461.952 231.898 460.721C229.758 459.471 228.073 457.625 226.841 455.181C225.629 452.738 225.023 449.717 225.023 446.119V418.363H233.518V445.096C233.518 448.07 234.341 450.437 235.989 452.199C237.637 453.96 239.777 454.841 242.41 454.841C244.001 454.841 245.582 454.443 247.154 453.647C248.745 452.852 250.061 451.649 251.103 450.039C252.163 448.43 252.684 446.384 252.665 443.903Z" fill="black"/>
<path d="M290.982 462.88C286.759 462.88 283.122 461.924 280.073 460.011C277.043 458.079 274.713 455.418 273.084 452.028C271.456 448.638 270.641 444.755 270.641 440.38C270.641 435.949 271.474 432.038 273.141 428.647C274.808 425.238 277.156 422.577 280.187 420.664C283.217 418.752 286.787 417.795 290.897 417.795C294.211 417.795 297.166 418.411 299.76 419.642C302.355 420.854 304.448 422.558 306.039 424.755C307.649 426.952 308.605 429.519 308.908 432.454H300.641C300.187 430.409 299.145 428.647 297.516 427.17C295.906 425.693 293.747 424.954 291.039 424.954C288.671 424.954 286.598 425.579 284.817 426.829C283.056 428.06 281.683 429.822 280.698 432.113C279.713 434.386 279.221 437.075 279.221 440.181C279.221 443.363 279.704 446.109 280.67 448.42C281.635 450.731 282.999 452.52 284.76 453.789C286.541 455.058 288.634 455.693 291.039 455.693C292.649 455.693 294.107 455.399 295.414 454.812C296.74 454.206 297.848 453.344 298.738 452.227C299.647 451.109 300.281 449.765 300.641 448.193H308.908C308.605 451.015 307.687 453.534 306.153 455.75C304.618 457.966 302.564 459.708 299.988 460.977C297.431 462.246 294.429 462.88 290.982 462.88Z" fill="black"/>
<path d="M325.805 447.199L325.748 436.829H327.225L344.611 418.363H354.782L334.952 439.386H333.617L325.805 447.199ZM317.992 462V403.818H326.486V462H317.992ZM345.549 462L329.924 441.261L335.776 435.324L355.975 462H345.549Z" fill="black"/>
<path d="M379.533 462.88C375.234 462.88 371.531 461.962 368.425 460.125C365.338 458.269 362.952 455.664 361.266 452.312C359.599 448.941 358.766 444.992 358.766 440.466C358.766 435.996 359.599 432.056 361.266 428.647C362.952 425.238 365.3 422.577 368.312 420.664C371.342 418.752 374.884 417.795 378.937 417.795C381.399 417.795 383.785 418.202 386.096 419.017C388.406 419.831 390.48 421.109 392.317 422.852C394.154 424.594 395.603 426.858 396.664 429.642C397.724 432.407 398.255 435.769 398.255 439.727V442.738H363.567V436.375H389.931C389.931 434.14 389.476 432.161 388.567 430.437C387.658 428.695 386.38 427.322 384.732 426.318C383.103 425.314 381.19 424.812 378.993 424.812C376.607 424.812 374.524 425.399 372.743 426.574C370.982 427.729 369.618 429.244 368.653 431.119C367.706 432.975 367.232 434.992 367.232 437.17V442.142C367.232 445.058 367.743 447.539 368.766 449.585C369.808 451.63 371.257 453.193 373.113 454.272C374.969 455.333 377.137 455.863 379.618 455.863C381.228 455.863 382.696 455.636 384.022 455.181C385.348 454.708 386.493 454.007 387.459 453.079C388.425 452.151 389.164 451.005 389.675 449.642L397.715 451.091C397.071 453.458 395.916 455.532 394.249 457.312C392.601 459.074 390.528 460.447 388.028 461.431C385.546 462.397 382.715 462.88 379.533 462.88Z" fill="black"/>
<path d="M428.049 418.363V425.181H404.214V418.363H428.049ZM410.606 407.909H419.1V449.187C419.1 450.835 419.346 452.075 419.839 452.909C420.331 453.723 420.965 454.282 421.742 454.585C422.537 454.869 423.399 455.011 424.327 455.011C425.009 455.011 425.606 454.964 426.117 454.869C426.628 454.774 427.026 454.699 427.31 454.642L428.844 461.659C428.352 461.848 427.651 462.038 426.742 462.227C425.833 462.435 424.697 462.549 423.333 462.568C421.098 462.606 419.015 462.208 417.083 461.375C415.151 460.541 413.589 459.253 412.395 457.511C411.202 455.769 410.606 453.581 410.606 450.949V407.909Z" fill="black"/>
<defs>
<linearGradient id="paint0_linear_1240_5224" x1="32589.4" y1="3199.1" x2="19697.7" y2="21503.7" gradientUnits="userSpaceOnUse">
<stop offset="0.18" stop-color="#0052CC"/>
<stop offset="1" stop-color="#2684FF"/>
</linearGradient>
</defs>
</svg>
