<svg width="500" height="500" viewBox="0 0 500 500" fill="none" xmlns="http://www.w3.org/2000/svg">
<path d="M162.523 392.48V372.507C162.523 371.983 162.2 371.656 161.682 371.656H155.219V363.863H161.682C162.2 363.863 162.523 363.536 162.523 363.012V350.504H171.701V363.012C171.701 363.536 172.024 363.863 172.542 363.863H181.591V371.656H172.542C172.024 371.656 171.701 371.983 171.701 372.507V390.188C171.701 398.505 174.61 399.225 178.359 399.225C179.716 399.225 181.785 399.028 182.948 398.897V407.017C181.397 407.214 178.876 407.541 175.967 407.541C172.412 407.345 162.523 407.345 162.523 392.48ZM412.347 397.326L419.845 393.331C421.526 397.326 424.758 399.945 428.507 399.945C431.415 399.945 434.647 398.701 434.647 395.099C434.647 392.676 433.096 391.301 429.541 390.057L424.434 388.354C417.26 386.128 413.705 381.937 413.705 376.043C413.705 368.578 419.845 363.012 428.183 363.012C434.841 363.012 440.464 366.679 443.179 372.376L435.681 376.567C434.001 372.9 431.286 370.87 428.054 370.87C424.822 370.87 422.625 372.573 422.625 375.192C422.625 377.419 424.305 379.187 427.731 380.234L432.837 381.937C440.335 384.36 443.89 388.551 443.89 394.248C443.89 403.285 436.263 407.934 428.571 407.934C420.879 407.738 414.739 403.743 412.347 397.326ZM384.1 389.533C383.907 389.73 383.777 389.861 383.777 390.057V406.69H374.405V345.135H383.777V378.794C383.777 379.121 383.971 379.514 384.294 379.514C384.618 379.711 385.005 379.514 385.135 379.318L400.26 363.732H411.636L393.99 381.871C393.667 382.199 393.667 382.592 393.99 382.919L413.187 406.69H401.811L387.009 387.962C386.815 387.765 386.686 387.634 386.492 387.634C386.298 387.634 386.169 387.634 385.975 387.831L384.1 389.533ZM369.816 369.56L363.869 375.258C360.443 372.638 357.082 371.459 353.333 371.459C345.512 371.459 339.694 377.353 339.694 385.342C339.694 393.331 345.512 399.225 353.333 399.225C356.759 399.225 360.314 397.981 364.063 395.427L369.363 401.124C361.736 406.821 357.599 407.869 352.363 407.869C346.094 407.869 340.47 405.642 336.398 401.451C332.455 397.457 330.257 391.563 330.257 385.342C330.257 372.311 339.63 362.816 352.557 362.816C356.694 362.816 363.029 363.47 369.816 369.56ZM325.927 351.028C325.927 354.172 323.406 356.725 320.303 356.725C317.265 356.725 314.68 354.106 314.68 351.028C314.68 347.885 317.201 345.331 320.303 345.331C323.341 345.266 325.927 347.885 325.927 351.028ZM325.022 406.69H315.649V363.863H325.022V406.69ZM295.288 387.962V406.887H285.916V364.06H295.095V369.233C295.095 369.56 295.288 369.953 295.612 370.084C295.935 370.281 296.323 370.084 296.452 369.757C298.843 365.762 303.239 363.143 308.022 363.143C308.733 363.143 309.186 363.143 309.573 363.339V373.031C309.056 372.835 308.216 372.835 307.376 372.835C299.878 372.704 295.288 378.597 295.288 387.962ZM245.065 385.342C245.065 377.55 250.882 371.459 258.316 371.459C265.814 371.459 271.566 377.55 271.566 385.342C271.566 393.135 265.749 399.225 258.316 399.225C250.882 399.225 245.065 393.135 245.065 385.342ZM245.905 401.648C246.099 401.648 246.099 401.648 246.228 401.648C246.422 401.648 246.746 401.844 246.939 401.975C250.171 405.773 254.955 407.869 260.384 407.869C271.954 407.869 280.81 397.981 280.81 385.342C280.81 379.121 278.741 373.555 274.863 369.233C271.114 365.042 265.814 362.816 260.255 362.816C254.955 362.816 250.042 365.042 246.81 369.037C246.616 369.233 246.293 369.364 245.97 369.233C245.647 369.037 245.453 368.906 245.453 368.513V345.266H236.08V406.821H245.453V402.499C245.388 401.975 245.582 401.844 245.905 401.648ZM207.123 399.225C199.819 399.225 193.872 393.135 193.872 385.342C193.872 377.55 199.689 371.459 207.123 371.459C214.621 371.459 220.373 377.55 220.373 385.342C220.373 393.135 214.427 399.225 207.123 399.225ZM229.1 406.69V363.863H219.921V368.185C219.921 368.513 219.727 368.906 219.404 368.906C219.081 369.102 218.693 368.906 218.564 368.709C215.526 364.911 210.742 362.816 205.119 362.816C193.549 362.816 184.693 372.704 184.693 385.342C184.693 397.981 193.743 407.869 205.119 407.869C210.419 407.869 215.332 405.642 218.564 401.648C218.757 401.32 219.081 401.32 219.404 401.451C219.727 401.648 219.921 401.779 219.921 402.172V406.887H229.1V406.69ZM128.329 399.225C121.025 399.225 115.079 393.135 115.079 385.342C115.079 377.55 120.896 371.459 128.329 371.459C135.634 371.459 141.58 377.55 141.58 385.342C141.58 393.135 135.634 399.225 128.329 399.225ZM150.306 406.69V363.863H141.128V368.185C141.128 368.513 140.934 368.906 140.611 368.906C140.287 369.102 139.9 368.906 139.77 368.709C136.732 364.911 131.949 362.816 126.326 362.816C114.756 362.816 105.9 372.704 105.9 385.342C105.9 397.981 114.949 407.869 126.326 407.869C131.626 407.869 136.538 405.642 139.77 401.648C139.964 401.32 140.287 401.32 140.611 401.451C140.934 401.648 141.128 401.779 141.128 402.172V406.887H150.306V406.69ZM78.6232 399.225C71.1252 399.225 65.3725 393.135 65.3725 385.342C65.3725 377.55 71.1898 371.459 78.6232 371.459C85.9272 371.459 91.8739 377.55 91.8739 385.342C91.9385 393.135 85.9272 399.225 78.6232 399.225ZM100.6 406.69V345.266H91.2275V368.316C91.2275 368.644 91.0336 369.037 90.7104 369.037C90.3872 369.233 89.9994 369.037 89.8701 368.84C86.6382 365.042 81.855 362.946 76.4255 362.946C64.8554 362.946 56 372.835 56 385.473C56 391.694 58.0684 397.26 61.9467 401.582C65.6956 405.773 70.9959 408 76.5548 408C81.855 408 86.7675 405.773 89.9994 401.779C90.1933 401.582 90.5165 401.451 90.8397 401.582C91.1629 401.779 91.3568 401.91 91.3568 402.303V406.821H100.535V406.69H100.6Z" fill="black"/>
<path d="M340.31 186.281L245.021 240.363L143.784 182.757L139.05 185.309V227.116L245.142 287.639L340.431 233.557V255.797L245.142 309.879L143.784 252.273L139.05 254.825V261.874L245.142 322.397L351.599 261.874V220.067L346.865 217.515L245.021 275.121L150.096 221.039V199.163L245.021 252.88L351.478 192.358V151.158L346.015 148.242L245.021 205.483L155.194 154.318L245.021 103.518L319.189 145.325L325.865 141.8V136.696L245.021 91L138.928 151.28V157.721L245.021 218.244L340.31 164.162V186.281Z" fill="#FF3621"/>
</svg>
