<svg width="500" height="500" viewBox="0 0 500 500" fill="none" xmlns="http://www.w3.org/2000/svg">
<path d="M249.708 20C153.235 20 75 98.753 75 195.905C75 273.607 125.062 339.525 194.516 362.805C203.252 364.43 206.442 359 206.442 354.334C206.442 350.15 206.292 339.09 206.2 324.415C157.604 335.039 147.341 300.829 147.341 300.829C139.412 280.503 127.943 275.096 127.943 275.096C112.064 264.19 129.124 264.411 129.124 264.411C146.661 265.657 155.878 282.542 155.878 282.542C171.473 309.414 196.789 301.659 206.748 297.15C208.319 285.784 212.839 278.033 217.845 273.631C179.052 269.184 138.251 254.092 138.251 186.707C138.251 167.499 145.069 151.799 156.248 139.489C154.436 135.043 148.452 117.149 157.954 92.948C157.954 92.948 172.633 88.221 206.002 110.973C219.939 107.074 234.879 105.128 249.752 105.062C264.581 105.152 279.539 107.074 293.499 110.997C326.853 88.2415 341.508 92.9722 341.508 92.9722C351.029 117.195 345.046 135.067 343.256 139.51C354.458 151.82 361.209 167.52 361.209 186.73C361.209 254.291 320.366 269.161 281.446 273.517C287.714 278.953 293.303 289.679 293.303 306.084C293.303 329.608 293.086 348.572 293.086 354.334C293.086 359.041 296.229 364.515 305.097 362.785C374.444 339.48 424.461 273.586 424.461 195.905C424.462 98.7523 346.228 20 249.708 20Z" fill="#6879D9"/>
<path d="M165.236 422.199C164.687 420.475 163.948 418.931 163.02 417.568C162.111 416.185 161.022 415.011 159.753 414.045C158.484 413.06 157.036 412.312 155.407 411.801C153.797 411.289 152.026 411.034 150.094 411.034C146.818 411.034 143.863 411.877 141.231 413.562C138.598 415.248 136.515 417.719 134.981 420.977C133.465 424.216 132.708 428.183 132.708 432.88C132.708 437.596 133.475 441.583 135.009 444.841C136.543 448.098 138.645 450.57 141.316 452.255C143.986 453.941 147.026 454.784 150.435 454.784C153.598 454.784 156.354 454.14 158.702 452.852C161.07 451.564 162.897 449.746 164.185 447.397C165.492 445.03 166.145 442.246 166.145 439.045L168.418 439.471H151.77V432.227H174.64V438.846C174.64 443.733 173.598 447.975 171.515 451.574C169.45 455.153 166.59 457.918 162.935 459.869C159.299 461.82 155.132 462.795 150.435 462.795C145.17 462.795 140.549 461.583 136.572 459.159C132.613 456.734 129.526 453.297 127.31 448.846C125.094 444.377 123.986 439.074 123.986 432.937C123.986 428.297 124.63 424.13 125.918 420.437C127.206 416.744 129.015 413.609 131.344 411.034C133.693 408.439 136.448 406.46 139.611 405.096C142.793 403.714 146.269 403.022 150.037 403.022C153.181 403.022 156.108 403.486 158.816 404.414C161.543 405.342 163.967 406.659 166.089 408.363C168.229 410.068 170 412.094 171.401 414.443C172.803 416.772 173.75 419.358 174.242 422.199H165.236Z" fill="black"/>
<path d="M187.836 462V418.363H196.33V462H187.836ZM192.126 411.63C190.648 411.63 189.379 411.138 188.319 410.153C187.277 409.149 186.756 407.956 186.756 406.574C186.756 405.172 187.277 403.979 188.319 402.994C189.379 401.99 190.648 401.488 192.126 401.488C193.603 401.488 194.862 401.99 195.904 402.994C196.965 403.979 197.495 405.172 197.495 406.574C197.495 407.956 196.965 409.149 195.904 410.153C194.862 411.138 193.603 411.63 192.126 411.63Z" fill="black"/>
<path d="M228.127 418.363V425.181H204.292V418.363H228.127ZM210.684 407.909H219.178V449.187C219.178 450.835 219.424 452.075 219.917 452.909C220.409 453.723 221.044 454.282 221.82 454.585C222.616 454.869 223.477 455.011 224.405 455.011C225.087 455.011 225.684 454.964 226.195 454.869C226.707 454.774 227.104 454.699 227.388 454.642L228.922 461.659C228.43 461.848 227.729 462.038 226.82 462.227C225.911 462.435 224.775 462.549 223.411 462.568C221.176 462.606 219.093 462.208 217.161 461.375C215.229 460.541 213.667 459.253 212.474 457.511C211.28 455.769 210.684 453.581 210.684 450.949V407.909Z" fill="black"/>
<path d="M246.955 436.091V462H238.461V403.818H246.841V425.466H247.381C248.404 423.117 249.966 421.252 252.069 419.869C254.171 418.486 256.917 417.795 260.307 417.795C263.3 417.795 265.913 418.411 268.148 419.642C270.402 420.873 272.144 422.71 273.376 425.153C274.626 427.577 275.251 430.608 275.251 434.244V462H266.756V435.267C266.756 432.066 265.932 429.585 264.285 427.824C262.637 426.043 260.345 425.153 257.41 425.153C255.402 425.153 253.603 425.579 252.012 426.431C250.44 427.284 249.199 428.534 248.29 430.181C247.4 431.81 246.955 433.78 246.955 436.091Z" fill="black"/>
<path d="M314.228 443.903V418.363H322.751V462H314.398V454.443H313.944C312.94 456.772 311.33 458.714 309.114 460.267C306.917 461.801 304.18 462.568 300.904 462.568C298.101 462.568 295.62 461.952 293.461 460.721C291.321 459.471 289.635 457.625 288.404 455.181C287.192 452.738 286.586 449.717 286.586 446.119V418.363H295.08V445.096C295.08 448.07 295.904 450.437 297.552 452.199C299.199 453.96 301.34 454.841 303.972 454.841C305.563 454.841 307.144 454.443 308.716 453.647C310.307 452.852 311.624 451.649 312.665 450.039C313.726 448.43 314.247 446.384 314.228 443.903Z" fill="black"/>
<path d="M334.846 462V403.818H343.34V425.437H343.851C344.344 424.528 345.054 423.477 345.982 422.284C346.91 421.091 348.198 420.049 349.846 419.159C351.493 418.25 353.671 417.795 356.38 417.795C359.903 417.795 363.046 418.685 365.812 420.466C368.577 422.246 370.745 424.812 372.317 428.164C373.908 431.517 374.704 435.551 374.704 440.267C374.704 444.983 373.918 449.026 372.346 452.397C370.774 455.75 368.615 458.335 365.868 460.153C363.122 461.952 359.988 462.852 356.465 462.852C353.814 462.852 351.645 462.407 349.959 461.517C348.293 460.627 346.986 459.585 346.039 458.392C345.092 457.199 344.363 456.138 343.851 455.21H343.141V462H334.846ZM343.17 440.181C343.17 443.25 343.615 445.939 344.505 448.25C345.395 450.56 346.683 452.369 348.368 453.676C350.054 454.964 352.118 455.608 354.562 455.608C357.099 455.608 359.221 454.935 360.925 453.591C362.63 452.227 363.918 450.38 364.789 448.051C365.679 445.721 366.124 443.098 366.124 440.181C366.124 437.303 365.689 434.717 364.817 432.426C363.965 430.134 362.677 428.325 360.954 427C359.249 425.674 357.118 425.011 354.562 425.011C352.099 425.011 350.016 425.645 348.312 426.914C346.626 428.183 345.348 429.954 344.476 432.227C343.605 434.5 343.17 437.151 343.17 440.181Z" fill="black"/>
</svg>
