<svg width="500" height="500" viewBox="0 0 500 500" fill="none" xmlns="http://www.w3.org/2000/svg">
<path d="M98.921 155.979L249.461 351.633L84.4583 229.167C79.9313 225.766 77.9975 219.846 79.7312 214.518L98.8988 155.948L98.921 155.979Z" fill="#FCA326"/>
<path d="M186.756 155.949L249.519 351.611L249.46 351.633L98.9199 155.979L98.9644 155.949H186.756Z" fill="#FC6D26"/>
<path d="M312.293 155.949L249.53 351.633L249.523 351.611L186.76 155.949H186.826H312.227H312.293Z" fill="#E24329"/>
<path d="M400.135 155.979L249.527 351.633L312.291 155.949H400.089L400.135 155.979Z" fill="#FC6D26"/>
<path d="M419.324 214.52C420.983 219.847 419.124 225.768 414.53 229.169L249.527 351.635L400.135 155.981L400.156 155.951L419.324 214.52Z" fill="#FCA326"/>
<path d="M362.481 39.5962L400.09 155.95H312.291H312.225L349.9 39.5962C352.026 33.6763 360.414 33.6763 362.481 39.5962Z" fill="#E24329"/>
<path d="M186.823 155.95H186.756H98.9648L136.574 39.5962C138.7 33.6763 147.087 33.6763 149.155 39.5962C149.155 39.5962 186.756 155.95 186.823 155.95Z" fill="#E24329"/>
<path d="M168.236 428.199C167.687 426.475 166.948 424.931 166.02 423.568C165.111 422.185 164.022 421.011 162.753 420.045C161.484 419.06 160.036 418.312 158.407 417.801C156.797 417.289 155.026 417.034 153.094 417.034C149.818 417.034 146.863 417.877 144.231 419.562C141.598 421.248 139.515 423.719 137.981 426.977C136.465 430.216 135.708 434.183 135.708 438.88C135.708 443.596 136.475 447.583 138.009 450.841C139.543 454.098 141.645 456.57 144.316 458.255C146.986 459.941 150.026 460.784 153.435 460.784C156.598 460.784 159.354 460.14 161.702 458.852C164.07 457.564 165.897 455.746 167.185 453.397C168.492 451.03 169.145 448.246 169.145 445.045L171.418 445.471H154.77V438.227H177.64V444.846C177.64 449.733 176.598 453.975 174.515 457.574C172.45 461.153 169.59 463.918 165.935 465.869C162.299 467.82 158.132 468.795 153.435 468.795C148.17 468.795 143.549 467.583 139.572 465.159C135.613 462.734 132.526 459.297 130.31 454.846C128.094 450.377 126.986 445.074 126.986 438.937C126.986 434.297 127.63 430.13 128.918 426.437C130.206 422.744 132.015 419.609 134.344 417.034C136.693 414.439 139.448 412.46 142.611 411.096C145.793 409.714 149.269 409.022 153.037 409.022C156.181 409.022 159.108 409.486 161.816 410.414C164.543 411.342 166.967 412.659 169.089 414.363C171.229 416.068 173 418.094 174.401 420.443C175.803 422.772 176.75 425.358 177.242 428.199H168.236Z" fill="black"/>
<path d="M190.836 468V424.363H199.33V468H190.836ZM195.126 417.63C193.648 417.63 192.379 417.138 191.319 416.153C190.277 415.149 189.756 413.956 189.756 412.574C189.756 411.172 190.277 409.979 191.319 408.994C192.379 407.99 193.648 407.488 195.126 407.488C196.603 407.488 197.862 407.99 198.904 408.994C199.965 409.979 200.495 411.172 200.495 412.574C200.495 413.956 199.965 415.149 198.904 416.153C197.862 417.138 196.603 417.63 195.126 417.63Z" fill="black"/>
<path d="M231.127 424.363V431.181H207.292V424.363H231.127ZM213.684 413.909H222.178V455.187C222.178 456.835 222.424 458.075 222.917 458.909C223.409 459.723 224.044 460.282 224.82 460.585C225.616 460.869 226.477 461.011 227.405 461.011C228.087 461.011 228.684 460.964 229.195 460.869C229.707 460.774 230.104 460.699 230.388 460.642L231.922 467.659C231.43 467.848 230.729 468.038 229.82 468.227C228.911 468.435 227.775 468.549 226.411 468.568C224.176 468.606 222.093 468.208 220.161 467.375C218.229 466.541 216.667 465.253 215.474 463.511C214.28 461.769 213.684 459.581 213.684 456.949V413.909Z" fill="black"/>
<path d="M242.143 468V409.818H250.921V460.443H277.285V468H242.143Z" fill="black"/>
<path d="M299.316 468.966C296.551 468.966 294.051 468.454 291.816 467.431C289.581 466.39 287.81 464.884 286.503 462.914C285.215 460.945 284.572 458.53 284.572 455.67C284.572 453.208 285.045 451.181 285.992 449.591C286.939 448 288.217 446.74 289.827 445.812C291.437 444.884 293.236 444.183 295.225 443.71C297.214 443.236 299.24 442.877 301.305 442.63C303.918 442.327 306.039 442.081 307.668 441.892C309.297 441.683 310.481 441.352 311.219 440.897C311.958 440.443 312.327 439.704 312.327 438.681V438.483C312.327 436.002 311.626 434.079 310.225 432.716C308.842 431.352 306.778 430.67 304.032 430.67C301.172 430.67 298.918 431.305 297.27 432.574C295.642 433.824 294.515 435.216 293.89 436.75L285.907 434.931C286.854 432.28 288.236 430.14 290.055 428.511C291.892 426.863 294.003 425.67 296.39 424.931C298.776 424.174 301.286 423.795 303.918 423.795C305.661 423.795 307.507 424.003 309.458 424.42C311.428 424.818 313.265 425.556 314.969 426.636C316.693 427.716 318.104 429.259 319.202 431.267C320.301 433.255 320.85 435.841 320.85 439.022V468H312.555V462.034H312.214C311.664 463.132 310.84 464.212 309.742 465.272C308.644 466.333 307.233 467.214 305.509 467.914C303.786 468.615 301.721 468.966 299.316 468.966ZM301.162 462.147C303.511 462.147 305.519 461.683 307.185 460.755C308.871 459.827 310.149 458.615 311.02 457.119C311.911 455.604 312.356 453.984 312.356 452.261V446.636C312.053 446.939 311.465 447.223 310.594 447.488C309.742 447.734 308.767 447.952 307.668 448.142C306.57 448.312 305.5 448.473 304.458 448.625C303.416 448.757 302.545 448.871 301.844 448.966C300.197 449.174 298.691 449.524 297.327 450.017C295.983 450.509 294.903 451.219 294.089 452.147C293.293 453.056 292.895 454.269 292.895 455.784C292.895 457.886 293.672 459.477 295.225 460.556C296.778 461.617 298.757 462.147 301.162 462.147Z" fill="black"/>
<path d="M332.846 468V409.818H341.34V431.437H341.851C342.344 430.528 343.054 429.477 343.982 428.284C344.91 427.091 346.198 426.049 347.846 425.159C349.493 424.25 351.671 423.795 354.38 423.795C357.903 423.795 361.046 424.685 363.812 426.466C366.577 428.246 368.745 430.812 370.317 434.164C371.908 437.517 372.704 441.551 372.704 446.267C372.704 450.983 371.918 455.026 370.346 458.397C368.774 461.75 366.615 464.335 363.868 466.153C361.122 467.952 357.988 468.852 354.465 468.852C351.814 468.852 349.645 468.407 347.959 467.517C346.293 466.627 344.986 465.585 344.039 464.392C343.092 463.199 342.363 462.138 341.851 461.21H341.141V468H332.846ZM341.17 446.181C341.17 449.25 341.615 451.939 342.505 454.25C343.395 456.56 344.683 458.369 346.368 459.676C348.054 460.964 350.118 461.608 352.562 461.608C355.099 461.608 357.221 460.935 358.925 459.591C360.63 458.227 361.918 456.38 362.789 454.051C363.679 451.721 364.124 449.098 364.124 446.181C364.124 443.303 363.689 440.717 362.817 438.426C361.965 436.134 360.677 434.325 358.954 433C357.249 431.674 355.118 431.011 352.562 431.011C350.099 431.011 348.016 431.645 346.312 432.914C344.626 434.183 343.348 435.954 342.476 438.227C341.605 440.5 341.17 443.151 341.17 446.181Z" fill="black"/>
</svg>
