<svg width="500" height="500" viewBox="0 0 500 500" fill="none" xmlns="http://www.w3.org/2000/svg">
<path d="M282.748 150.613L290.596 150.75L311.916 129.37L312.945 120.31C296.001 105.197 273.707 96 249.306 96C205.129 96 167.838 126.144 156.794 166.978C159.126 165.347 164.1 166.565 164.1 166.565L206.713 159.535C206.713 159.535 208.908 155.889 210.006 156.116C219.153 146.081 231.774 139.925 245.292 138.902C258.811 137.879 272.203 142.068 282.748 150.613Z" fill="#EA4335"/>
<path d="M341.842 166.843C336.942 148.863 326.89 132.701 312.917 120.336L282.716 150.46C288.914 155.429 293.916 161.721 297.353 168.873C300.791 176.025 302.576 183.855 302.578 191.786V197.104C317.273 197.104 329.197 209.031 329.197 223.655C329.197 238.279 317.239 250.207 302.578 250.207H249.325L243.994 255.545V287.421L249.325 292.711H302.578C320.918 292.662 338.492 285.37 351.456 272.43C364.42 259.49 371.718 241.956 371.754 223.662C371.727 200.149 359.844 179.318 341.773 166.843H341.842Z" fill="#4285F4"/>
<path d="M196.701 292.696H250.077V250.455H196.701C192.91 250.457 189.164 249.652 185.716 248.096L178.012 250.428L156.635 271.562L154.764 278.702C166.792 287.832 181.544 292.759 196.708 292.71L196.701 292.696Z" fill="#34A853"/>
<path d="M197.275 154.812C179.017 154.84 161.516 162.104 148.606 175.011C135.696 187.919 128.43 205.416 128.401 223.669C128.401 234.298 130.866 244.783 135.601 254.299C140.337 263.815 147.214 272.105 155.694 278.516L186.398 247.818C181.747 245.726 177.8 242.335 175.03 238.054C172.261 233.772 170.787 228.782 170.787 223.683C170.787 209.071 182.68 197.215 197.261 197.215C202.359 197.224 207.347 198.701 211.628 201.468C215.909 204.236 219.302 208.178 221.401 212.823L252.106 182.126C239.51 165.549 219.627 154.839 197.247 154.839L197.275 154.812Z" fill="#FBBC05"/>
<path d="M79.6677 387.221C72.1226 387.221 65.6452 384.538 60.1857 379.173C54.7262 373.808 52 367.355 52 359.829C52 352.304 54.7226 345.851 60.1857 340.486C65.6488 335.121 72.1333 332.434 79.6677 332.434C83.124 332.384 86.5558 333.025 89.7631 334.321C92.9704 335.617 95.889 337.541 98.3489 339.982L93.0923 345.265C89.4951 341.769 84.6674 339.846 79.6642 339.917C74.2189 339.917 69.5922 341.849 65.7983 345.737C63.9526 347.579 62.4974 349.777 61.5206 352.2C60.5437 354.623 60.0654 357.219 60.1145 359.833C60.1145 365.363 62.0008 370.052 65.7983 373.926C67.5828 375.808 69.7367 377.296 72.1235 378.298C74.5103 379.3 77.078 379.793 79.6642 379.745C85.2091 379.745 89.7895 377.957 93.4375 374.258C95.5729 372.112 96.9965 368.893 97.4948 364.833H79.6784V357.351H104.748C105.015 358.681 105.104 360.212 105.104 362.001C105.104 369.355 102.958 375.185 98.6514 379.509C93.7685 384.642 87.4406 387.199 79.6286 387.199L79.6677 387.221ZM137.929 382.213C134.512 385.576 130.348 387.221 125.429 387.221C120.511 387.221 116.34 385.54 112.93 382.213C109.521 378.887 107.812 374.655 107.812 369.623C107.812 364.59 109.521 360.395 112.93 357.032C116.34 353.67 120.511 352.025 125.429 352.025C130.348 352.025 134.519 353.706 137.929 357.032C141.338 360.359 143.046 364.601 143.046 369.623C143.046 374.645 141.338 378.851 137.929 382.213ZM118.447 377.277C119.335 378.247 120.415 379.018 121.619 379.542C122.822 380.065 124.122 380.328 125.433 380.314C128.138 380.314 130.465 379.305 132.419 377.274C134.373 375.242 135.345 372.695 135.345 369.619C135.345 366.507 134.384 363.939 132.451 361.929C130.519 359.919 128.188 358.925 125.433 358.925C124.119 358.904 122.816 359.161 121.607 359.679C120.398 360.196 119.31 360.963 118.415 361.929C116.482 363.932 115.521 366.493 115.521 369.619C115.521 372.688 116.493 375.246 118.447 377.274V377.277ZM176.362 382.213C172.946 385.576 168.782 387.221 163.863 387.221C158.945 387.221 154.773 385.54 151.364 382.213C147.954 378.887 146.246 374.655 146.246 369.623C146.246 364.59 147.954 360.395 151.364 357.032C154.773 353.67 158.945 352.025 163.863 352.025C168.782 352.025 172.953 353.706 176.362 357.032C179.772 360.359 181.48 364.601 181.48 369.623C181.48 374.645 179.772 378.851 176.362 382.213ZM156.88 377.277C157.768 378.247 158.849 379.018 160.052 379.542C161.256 380.065 162.555 380.328 163.867 380.314C166.572 380.314 168.899 379.305 170.853 377.274C172.807 375.242 173.779 372.695 173.779 369.619C173.779 366.507 172.818 363.939 170.885 361.929C168.952 359.919 166.621 358.925 163.867 358.925C162.553 358.904 161.249 359.161 160.04 359.679C158.832 360.196 157.744 360.963 156.848 361.929C154.916 363.932 153.955 366.493 153.955 369.619C153.955 372.688 154.926 375.246 156.88 377.274V377.277ZM201.628 403.102C197.731 403.102 194.449 402.051 191.791 399.955C189.132 397.858 187.228 395.433 186.075 392.665L192.794 389.864C193.499 391.56 194.574 393.03 196.115 394.278C197.656 395.526 199.46 396.145 201.638 396.145C204.564 396.145 206.863 395.251 208.518 393.473C210.173 391.696 211.009 389.124 211.009 385.783V383.279H210.742C208.607 385.951 205.486 387.292 201.503 387.292C197.026 387.292 193.104 385.576 189.734 382.149C188.096 380.529 186.804 378.592 185.935 376.454C185.066 374.317 184.639 372.024 184.68 369.716C184.639 367.393 185.065 365.086 185.934 362.932C186.802 360.779 188.095 358.825 189.734 357.186C193.097 353.742 197.029 352.01 201.503 352.01C203.496 352.01 205.304 352.386 206.92 353.148C208.536 353.91 209.813 354.843 210.742 355.949H211.009V353.109H218.327V384.789C218.327 390.941 216.768 395.534 213.636 398.595C210.504 401.636 206.511 403.174 201.631 403.174L201.628 403.102ZM202.162 380.31C203.43 380.333 204.688 380.072 205.845 379.547C207.001 379.022 208.027 378.246 208.849 377.274C210.643 375.246 211.54 372.72 211.54 369.684C211.54 366.615 210.643 364.047 208.849 361.993C208.032 361.014 207.008 360.23 205.851 359.699C204.694 359.168 203.433 358.903 202.162 358.925C199.457 358.925 197.15 359.955 195.25 361.993C193.349 364.032 192.389 366.6 192.389 369.684C192.389 372.71 193.339 375.246 195.25 377.274C197.161 379.302 199.46 380.31 202.162 380.31ZM231.353 334.294V386.159H223.64V334.294H231.353ZM252.493 387.217C247.525 387.217 243.382 385.522 240.058 382.138C236.734 378.755 235.068 374.57 235.068 369.576C235.068 364.411 236.67 360.169 239.887 356.879C241.396 355.282 243.219 354.018 245.239 353.166C247.26 352.314 249.434 351.892 251.625 351.928C253.749 351.928 255.728 352.315 257.543 353.098C259.231 353.793 260.766 354.814 262.063 356.102C263.145 357.184 264.104 358.383 264.925 359.676C265.603 360.781 266.181 361.944 266.654 363.152L267.455 365.155L243.987 374.927C245.767 378.49 248.614 380.275 252.5 380.275C256.045 380.275 258.931 378.654 261.141 375.399L267.121 379.413C265.786 381.416 263.907 383.222 261.469 384.824C259.031 386.427 256.031 387.221 252.486 387.221L252.493 387.217ZM242.72 369.047L258.38 362.501C257.931 361.385 257.12 360.484 255.888 359.797C254.65 359.1 253.25 358.745 251.831 358.767C249.568 358.767 247.453 359.697 245.485 361.568C243.517 363.438 242.567 365.939 242.656 369.051L242.72 369.047ZM307.957 387.217C300.945 387.217 295.073 384.835 290.332 380.064C285.592 375.292 283.214 369.351 283.214 362.222C283.214 355.094 285.585 349.145 290.332 344.381C295.08 339.617 300.949 337.227 307.957 337.227C315.135 337.227 320.968 339.838 325.442 345.043L321.189 349.192C317.986 345.136 313.537 343.111 307.949 343.111C302.753 343.111 298.39 344.871 294.781 348.394C291.172 351.917 289.428 356.521 289.428 362.222C289.428 367.924 291.208 372.538 294.781 376.065C298.354 379.592 302.728 381.348 307.949 381.348C313.665 381.348 318.545 379.03 322.541 374.402L326.794 378.676C324.566 381.348 321.768 383.484 318.609 384.925C315.257 386.474 311.606 387.258 307.917 387.221L307.957 387.217ZM338.407 386.159H332.286V338.311H338.407V386.159ZM348.383 357.329C351.533 354.014 355.501 352.347 360.42 352.347C365.338 352.347 369.307 354.01 372.456 357.329C375.606 360.649 377.179 364.841 377.179 369.795C377.179 374.748 375.613 378.941 372.456 382.26C369.3 385.579 365.338 387.242 360.42 387.242C355.501 387.242 351.533 385.579 348.383 382.26C345.234 378.941 343.661 374.748 343.661 369.795C343.661 364.841 345.226 360.649 348.383 357.329ZM352.939 378.372C355.074 380.529 357.544 381.612 360.413 381.612C363.281 381.612 365.751 380.529 367.887 378.372C370.022 376.215 371.047 373.346 371.047 369.787C371.047 366.228 369.99 363.356 367.887 361.203C365.783 359.05 363.281 357.962 360.413 357.962C357.544 357.962 355.074 359.046 352.939 361.203C350.803 363.36 349.778 366.228 349.778 369.787C349.778 373.346 350.835 376.219 352.939 378.372ZM411.022 386.159H405.167V381.616H404.9C403.975 383.172 402.551 384.503 400.647 385.551C398.743 386.599 396.732 387.196 394.597 387.196C390.515 387.196 387.429 385.951 385.326 383.451C383.222 380.951 382.165 377.61 382.165 373.425V353.373H388.287V372.416C388.287 378.526 390.967 381.573 396.33 381.573C397.531 381.599 398.72 381.333 399.796 380.799C400.873 380.265 401.806 379.477 402.516 378.504C404.098 376.488 404.942 373.986 404.907 371.418V353.373H411.029V386.126L411.022 386.159ZM431.764 387.221C427.553 387.221 423.913 385.547 420.859 382.206C417.805 378.865 416.275 374.723 416.275 369.773C416.275 364.823 417.805 360.681 420.859 357.34C423.913 353.999 427.557 352.325 431.764 352.325C434.241 352.325 436.476 352.862 438.455 353.924C440.433 354.986 441.907 356.328 442.878 357.937H443.145L442.878 353.395V338.3H449V386.159H443.145V381.616H442.878C441.907 383.215 440.433 384.556 438.455 385.629C436.479 386.681 434.244 387.221 431.764 387.221ZM432.76 381.605C434.141 381.624 435.511 381.348 436.778 380.795C438.045 380.242 439.181 379.424 440.11 378.397C442.128 376.261 443.135 373.382 443.135 369.812C443.135 366.243 442.131 363.328 440.11 361.228C439.181 360.201 438.045 359.383 436.778 358.83C435.511 358.277 434.141 358.001 432.76 358.02C429.92 358.02 427.482 359.103 425.443 361.26C423.404 363.417 422.389 366.286 422.389 369.845C422.389 373.404 423.404 376.276 425.443 378.429C426.364 379.46 427.493 380.282 428.755 380.841C430.016 381.4 431.382 381.682 432.76 381.67V381.605Z" fill="#5F6368"/>
</svg>
