<svg width="500" height="500" viewBox="0 0 500 500" fill="none" xmlns="http://www.w3.org/2000/svg">
<path fill-rule="evenodd" clip-rule="evenodd" d="M352.373 146.007L349.351 154.635H398.399V146.007H352.373ZM316.167 154.65L313.186 146L267.646 146.006C267.633 146.006 267.661 154.637 267.661 154.65C267.661 154.66 316.189 154.637 316.167 154.65ZM251.067 154.648C245.509 149.47 238.985 146.742 231.48 146.003L168.521 146.001C168.521 146.001 168.521 154.637 168.521 154.647C168.521 154.656 251.067 154.648 251.067 154.648ZM103.745 154.633H161.089V146.004H103.745V154.633ZM343.73 170.824H398.4V162.237H346.694C346.712 162.241 343.73 170.824 343.73 170.824ZM267.644 170.835H321.801L318.834 162.237H267.644V170.835ZM168.537 170.821H259.871C259.871 167.492 258.583 165.069 257.495 162.233H168.537V170.821ZM103.745 170.821H161.089V162.233H103.745V170.821ZM382.188 178.439L341.139 178.426L338.138 187.052L382.188 187.033V178.439ZM283.791 187.053H327.426L324.435 178.424H283.791V187.053ZM260.595 178.423H234.379V187.053H259.387C260.231 184.464 260.595 181.381 260.595 178.423ZM144.376 178.465H119.728V187.052H144.376V178.465ZM185.128 178.423V187.051H209.734V178.423H185.128ZM382.173 202.912V194.324H335.621C335.616 194.307 332.863 202.337 332.85 202.332L329.981 194.326H283.791V202.912H308.031C308.036 202.9 308.029 196.37 308.029 196.37L310.256 202.9L355.809 202.912L358.039 196.371C358.039 196.371 358.051 202.9 358.052 202.912H382.173ZM255.762 194.32L255.76 194.324H255.762V194.32ZM185.126 202.912C185.126 202.925 248.755 202.912 248.755 202.912C251.413 200.694 254.214 197.201 255.76 194.324H185.127C185.128 194.34 185.126 202.9 185.126 202.912ZM119.728 202.911H144.376V194.322H119.728V202.911ZM382.173 210.515H358.053V219.102H382.173V210.515ZM283.791 210.515V219.102C283.778 219.097 308.036 219.105 308.036 219.102C308.036 219.097 308.064 210.515 308.029 210.515H283.791ZM315.884 219.116L350.242 219.102C350.356 219.097 353.071 210.503 353.181 210.515H312.862C312.864 210.502 315.857 219.103 315.884 219.116ZM256.206 219.101C254.153 216.019 251.533 212.978 248.634 210.512H185.124C185.124 210.521 185.126 219.097 185.126 219.101C185.126 219.104 256.322 219.097 256.206 219.101ZM144.372 210.512H119.769C119.769 210.512 119.774 219.097 119.769 219.097C119.764 219.097 144.361 219.099 144.372 219.099V210.512ZM358.052 235.292H382.171V226.703H358.052V235.292ZM283.789 235.29H308.029V226.703H283.789V235.29ZM321.41 235.293C321.41 235.293 344.595 235.367 344.6 235.332C344.607 235.293 347.576 226.696 347.622 226.704H318.415C318.365 226.699 321.41 235.293 321.41 235.293ZM210.097 235.293C210.119 235.293 210.097 226.702 210.097 226.702H185.127C185.125 226.704 185.127 235.325 185.127 235.291C185.126 235.282 210.073 235.293 210.097 235.293ZM234.821 226.701V235.329H261.279C261.039 232.371 260.918 229.29 259.711 226.701H234.821ZM119.769 235.288H144.372V226.701H119.769V235.288ZM358.052 251.151H398.398V242.56H358.052V251.151ZM267.643 251.151H308.029V242.56H267.643V251.151ZM326.855 251.151H339.173L342.022 242.56H323.899L326.855 251.151ZM161.047 242.566C161.071 242.566 103.675 242.561 103.742 242.561V251.148H161.047C161.071 251.161 161.021 242.566 161.047 242.566ZM168.534 251.147H256.289L257.046 251.151C259.075 248.848 259.628 245.393 260.231 242.56H168.534V251.147ZM332.457 267.359H333.591L336.546 258.751H329.578L332.457 267.359ZM358.051 267.379H398.399V258.751H358.051V267.379ZM168.521 267.359L168.534 267.362L230.15 267.379C238.365 267.258 245.992 264.197 251.55 258.775C251.313 258.775 168.521 258.765 168.521 258.765V267.359ZM267.643 267.379H308.029V258.751H267.643V267.379ZM103.742 258.765C103.758 258.765 103.727 267.359 103.742 267.376C103.759 267.394 161.071 267.36 161.047 267.36C161.021 267.36 161.047 258.79 161.047 258.79C161.021 258.818 103.726 258.765 103.742 258.765Z" fill="#4A80C1"/>
<path d="M67.6743 353.604L58 320.728H64.6136L71.056 344.871H71.3771L77.8409 320.728H84.4545L90.8756 344.764H91.1966L97.5962 320.728H104.21L94.5569 353.604H88.0289L81.3511 329.867H80.8588L74.1809 353.604H67.6743Z" fill="#4A80C1"/>
<path d="M119.85 354.331C117.767 354.331 115.884 353.946 114.2 353.175C112.516 352.391 111.182 351.256 110.197 349.772C109.227 348.288 108.742 346.469 108.742 344.314C108.742 342.46 109.099 340.933 109.812 339.734C110.526 338.536 111.489 337.587 112.702 336.888C113.914 336.188 115.27 335.66 116.768 335.304C118.266 334.947 119.793 334.676 121.349 334.49C123.318 334.262 124.916 334.077 126.143 333.934C127.37 333.777 128.262 333.527 128.818 333.185C129.375 332.842 129.653 332.286 129.653 331.515V331.365C129.653 329.496 129.125 328.048 128.069 327.021C127.028 325.993 125.472 325.48 123.403 325.48C121.249 325.48 119.551 325.958 118.309 326.914C117.082 327.855 116.233 328.904 115.762 330.06L109.748 328.69C110.461 326.692 111.503 325.08 112.873 323.853C114.257 322.611 115.848 321.713 117.646 321.156C119.444 320.585 121.334 320.3 123.318 320.3C124.63 320.3 126.022 320.457 127.491 320.771C128.975 321.07 130.359 321.627 131.644 322.44C132.942 323.254 134.005 324.416 134.833 325.929C135.66 327.427 136.074 329.375 136.074 331.772V353.604H129.824V349.109H129.567C129.154 349.936 128.533 350.75 127.705 351.549C126.878 352.348 125.815 353.011 124.516 353.539C123.218 354.067 121.662 354.331 119.85 354.331ZM121.242 349.194C123.011 349.194 124.523 348.845 125.779 348.146C127.049 347.447 128.012 346.533 128.669 345.406C129.339 344.265 129.674 343.045 129.674 341.746V337.508C129.446 337.737 129.004 337.951 128.347 338.15C127.705 338.336 126.971 338.5 126.143 338.643C125.315 338.771 124.509 338.892 123.724 339.006C122.94 339.106 122.283 339.192 121.755 339.263C120.514 339.42 119.379 339.684 118.352 340.055C117.339 340.426 116.526 340.961 115.912 341.66C115.313 342.345 115.013 343.259 115.013 344.4C115.013 345.984 115.598 347.183 116.768 347.996C117.938 348.795 119.429 349.194 121.242 349.194Z" fill="#4A80C1"/>
<path d="M159.944 320.728V325.865H141.987V320.728H159.944ZM146.803 312.852H153.202V343.951C153.202 345.192 153.388 346.127 153.759 346.754C154.13 347.368 154.608 347.789 155.193 348.017C155.792 348.231 156.441 348.338 157.14 348.338C157.654 348.338 158.103 348.303 158.489 348.231C158.874 348.16 159.174 348.103 159.388 348.06L160.543 353.347C160.172 353.489 159.645 353.632 158.96 353.775C158.275 353.932 157.419 354.017 156.391 354.032C154.707 354.06 153.138 353.761 151.682 353.133C150.227 352.505 149.05 351.535 148.151 350.222C147.252 348.909 146.803 347.261 146.803 345.278V312.852Z" fill="#4A80C1"/>
<path d="M191.129 328.754L185.329 329.782C185.086 329.04 184.701 328.333 184.173 327.663C183.659 326.992 182.96 326.443 182.075 326.015C181.191 325.587 180.085 325.373 178.758 325.373C176.946 325.373 175.433 325.779 174.22 326.592C173.007 327.392 172.401 328.426 172.401 329.696C172.401 330.795 172.808 331.679 173.621 332.35C174.434 333.021 175.747 333.57 177.559 333.998L182.782 335.197C185.807 335.896 188.061 336.973 189.545 338.429C191.029 339.884 191.771 341.775 191.771 344.1C191.771 346.07 191.2 347.825 190.059 349.366C188.931 350.892 187.355 352.091 185.329 352.961C183.317 353.832 180.984 354.267 178.33 354.267C174.648 354.267 171.645 353.482 169.319 351.913C166.993 350.329 165.566 348.081 165.038 345.171L171.224 344.229C171.609 345.841 172.401 347.061 173.6 347.889C174.798 348.702 176.361 349.109 178.287 349.109C180.384 349.109 182.061 348.674 183.317 347.803C184.572 346.919 185.2 345.841 185.2 344.571C185.2 343.544 184.815 342.681 184.044 341.982C183.288 341.282 182.125 340.754 180.556 340.398L174.991 339.178C171.923 338.478 169.654 337.366 168.184 335.839C166.729 334.312 166.001 332.379 166.001 330.038C166.001 328.098 166.544 326.4 167.628 324.944C168.712 323.489 170.211 322.355 172.123 321.541C174.035 320.714 176.225 320.3 178.694 320.3C182.246 320.3 185.043 321.07 187.084 322.611C189.124 324.138 190.472 326.186 191.129 328.754Z" fill="#4A80C1"/>
<path d="M212.655 354.267C209.573 354.267 206.884 353.561 204.586 352.148C202.289 350.736 200.505 348.759 199.235 346.219C197.965 343.68 197.33 340.712 197.33 337.316C197.33 333.905 197.965 330.923 199.235 328.369C200.505 325.815 202.289 323.831 204.586 322.419C206.884 321.006 209.573 320.3 212.655 320.3C215.737 320.3 218.427 321.006 220.724 322.419C223.022 323.831 224.805 325.815 226.075 328.369C227.345 330.923 227.98 333.905 227.98 337.316C227.98 340.712 227.345 343.68 226.075 346.219C224.805 348.759 223.022 350.736 220.724 352.148C218.427 353.561 215.737 354.267 212.655 354.267ZM212.677 348.895C214.674 348.895 216.33 348.367 217.642 347.311C218.955 346.255 219.925 344.85 220.553 343.095C221.195 341.339 221.516 339.406 221.516 337.294C221.516 335.197 221.195 333.27 220.553 331.515C219.925 329.746 218.955 328.326 217.642 327.256C216.33 326.186 214.674 325.651 212.677 325.651C210.665 325.651 208.995 326.186 207.668 327.256C206.356 328.326 205.378 329.746 204.736 331.515C204.108 333.27 203.794 335.197 203.794 337.294C203.794 339.406 204.108 341.339 204.736 343.095C205.378 344.85 206.356 346.255 207.668 347.311C208.995 348.367 210.665 348.895 212.677 348.895Z" fill="#4A80C1"/>
<path d="M241.523 334.084V353.604H235.123V320.728H241.266V326.079H241.673C242.429 324.338 243.613 322.94 245.226 321.884C246.852 320.828 248.9 320.3 251.369 320.3C253.609 320.3 255.571 320.771 257.255 321.713C258.938 322.64 260.244 324.024 261.171 325.865C262.099 327.705 262.563 329.981 262.563 332.692V353.604H256.163V333.463C256.163 331.08 255.542 329.218 254.301 327.877C253.059 326.521 251.354 325.843 249.185 325.843C247.701 325.843 246.382 326.164 245.226 326.807C244.084 327.449 243.178 328.39 242.508 329.632C241.851 330.859 241.523 332.343 241.523 334.084Z" fill="#4A80C1"/>
<path d="M276.196 320.728L283.452 333.527L290.772 320.728H297.771L287.519 337.166L297.857 353.604H290.858L283.452 341.318L276.068 353.604H269.048L279.279 337.166L269.176 320.728H276.196Z" fill="#4A80C1"/>
<path d="M308.558 354.01C307.388 354.01 306.382 353.596 305.54 352.769C304.699 351.927 304.278 350.914 304.278 349.73C304.278 348.559 304.699 347.561 305.54 346.733C306.382 345.891 307.388 345.47 308.558 345.47C309.728 345.47 310.734 345.891 311.576 346.733C312.418 347.561 312.839 348.559 312.839 349.73C312.839 350.514 312.639 351.235 312.24 351.891C311.854 352.533 311.341 353.047 310.699 353.432C310.057 353.818 309.343 354.01 308.558 354.01Z" fill="#4A80C1"/>
<path d="M333.718 354.246C331.064 354.246 328.695 353.568 326.612 352.212C324.543 350.843 322.916 348.895 321.732 346.369C320.562 343.829 319.977 340.783 319.977 337.23C319.977 333.677 320.569 330.638 321.754 328.112C322.952 325.587 324.593 323.653 326.676 322.312C328.76 320.971 331.121 320.3 333.761 320.3C335.801 320.3 337.442 320.642 338.684 321.327C339.939 321.998 340.91 322.783 341.594 323.682C342.294 324.581 342.836 325.372 343.221 326.057H343.606V309.769H350.006V353.604H343.756V348.488H343.221C342.836 349.187 342.279 349.986 341.552 350.885C340.838 351.784 339.854 352.569 338.598 353.24C337.342 353.91 335.716 354.246 333.718 354.246ZM335.131 348.788C336.971 348.788 338.527 348.303 339.797 347.332C341.081 346.348 342.051 344.985 342.707 343.244C343.378 341.504 343.713 339.477 343.713 337.166C343.713 334.883 343.385 332.885 342.729 331.173C342.072 329.461 341.109 328.126 339.839 327.17C338.569 326.214 337 325.736 335.131 325.736C333.204 325.736 331.599 326.236 330.315 327.235C329.031 328.233 328.06 329.596 327.404 331.323C326.762 333.049 326.441 334.997 326.441 337.166C326.441 339.363 326.769 341.339 327.425 343.095C328.082 344.85 329.052 346.241 330.336 347.268C331.635 348.281 333.233 348.788 335.131 348.788Z" fill="#4A80C1"/>
<path d="M368.707 354.331C366.624 354.331 364.74 353.946 363.057 353.175C361.373 352.391 360.039 351.256 359.054 349.772C358.084 348.288 357.599 346.469 357.599 344.314C357.599 342.46 357.955 340.933 358.669 339.734C359.382 338.536 360.346 337.587 361.558 336.888C362.771 336.188 364.127 335.66 365.625 335.304C367.123 334.947 368.65 334.676 370.205 334.49C372.174 334.262 373.773 334.077 375 333.934C376.227 333.777 377.119 333.527 377.675 333.185C378.232 332.842 378.51 332.286 378.51 331.515V331.365C378.51 329.496 377.982 328.048 376.926 327.021C375.884 325.993 374.329 325.48 372.26 325.48C370.105 325.48 368.407 325.958 367.166 326.914C365.939 327.855 365.09 328.904 364.619 330.06L358.605 328.69C359.318 326.692 360.36 325.08 361.73 323.853C363.114 322.611 364.705 321.713 366.503 321.156C368.3 320.585 370.191 320.3 372.174 320.3C373.487 320.3 374.878 320.457 376.348 320.771C377.832 321.07 379.216 321.627 380.5 322.44C381.799 323.254 382.862 324.416 383.689 325.929C384.517 327.427 384.931 329.375 384.931 331.772V353.604H378.681V349.109H378.424C378.01 349.936 377.39 350.75 376.562 351.549C375.735 352.348 374.672 353.011 373.373 353.539C372.075 354.067 370.519 354.331 368.707 354.331ZM370.098 349.194C371.868 349.194 373.38 348.845 374.636 348.146C375.906 347.447 376.869 346.533 377.525 345.406C378.196 344.265 378.531 343.045 378.531 341.746V337.508C378.303 337.737 377.861 337.951 377.204 338.15C376.562 338.336 375.827 338.5 375 338.643C374.172 338.771 373.366 338.892 372.581 339.006C371.796 339.106 371.14 339.192 370.612 339.263C369.371 339.42 368.236 339.684 367.209 340.055C366.196 340.426 365.382 340.961 364.769 341.66C364.17 342.345 363.87 343.259 363.87 344.4C363.87 345.984 364.455 347.183 365.625 347.996C366.795 348.795 368.286 349.194 370.098 349.194Z" fill="#4A80C1"/>
<path d="M408.801 320.728V325.865H390.844V320.728H408.801ZM395.659 312.852H402.059V343.951C402.059 345.192 402.244 346.127 402.615 346.754C402.986 347.368 403.464 347.789 404.049 348.017C404.649 348.231 405.298 348.338 405.997 348.338C406.511 348.338 406.96 348.303 407.346 348.231C407.731 348.16 408.03 348.103 408.244 348.06L409.4 353.347C409.029 353.489 408.501 353.632 407.816 353.775C407.131 353.932 406.275 354.017 405.248 354.032C403.564 354.06 401.995 353.761 400.539 353.133C399.084 352.505 397.907 351.535 397.008 350.222C396.109 348.909 395.659 347.261 395.659 345.278V312.852Z" fill="#4A80C1"/>
<path d="M425.447 354.331C423.364 354.331 421.481 353.946 419.797 353.175C418.113 352.391 416.779 351.256 415.794 349.772C414.824 348.288 414.339 346.469 414.339 344.314C414.339 342.46 414.696 340.933 415.409 339.734C416.123 338.536 417.086 337.587 418.299 336.888C419.512 336.188 420.867 335.66 422.365 335.304C423.864 334.947 425.39 334.676 426.946 334.49C428.915 334.262 430.513 334.077 431.74 333.934C432.967 333.777 433.859 333.527 434.415 333.185C434.972 332.842 435.25 332.286 435.25 331.515V331.365C435.25 329.496 434.722 328.048 433.666 327.021C432.625 325.993 431.069 325.48 429 325.48C426.846 325.48 425.148 325.958 423.906 326.914C422.679 327.855 421.83 328.904 421.359 330.06L415.345 328.69C416.058 326.692 417.1 325.08 418.47 323.853C419.854 322.611 421.445 321.713 423.243 321.156C425.041 320.585 426.931 320.3 428.915 320.3C430.228 320.3 431.619 320.457 433.088 320.771C434.572 321.07 435.956 321.627 437.241 322.44C438.539 323.254 439.602 324.416 440.43 325.929C441.257 327.427 441.671 329.375 441.671 331.772V353.604H435.421V349.109H435.165C434.751 349.936 434.13 350.75 433.302 351.549C432.475 352.348 431.412 353.011 430.113 353.539C428.815 354.067 427.26 354.331 425.447 354.331ZM426.839 349.194C428.608 349.194 430.12 348.845 431.376 348.146C432.646 347.447 433.609 346.533 434.266 345.406C434.936 344.265 435.272 343.045 435.272 341.746V337.508C435.043 337.737 434.601 337.951 433.945 338.15C433.302 338.336 432.568 338.5 431.74 338.643C430.912 338.771 430.106 338.892 429.321 339.006C428.537 339.106 427.88 339.192 427.352 339.263C426.111 339.42 424.977 339.684 423.949 340.055C422.936 340.426 422.123 340.961 421.509 341.66C420.91 342.345 420.61 343.259 420.61 344.4C420.61 345.984 421.195 347.183 422.365 347.996C423.535 348.795 425.026 349.194 426.839 349.194Z" fill="#4A80C1"/>
</svg>
