<svg width="500" height="500" viewBox="0 0 500 500" fill="none" xmlns="http://www.w3.org/2000/svg">
<path d="M268.915 343.508L268.449 342.953V343.508H268.915ZM268.449 337.96L268.915 337.472H268.449V337.96ZM221.022 359.526L220.856 359.942L221.106 360.575L221.366 359.942L221.183 359.499H221.028L221.022 359.526ZM274.064 343.453V342.898L273.598 343.453H274.064ZM274.064 338.015V337.527H273.598L274.064 338.015ZM207.723 379.739L207.862 379.744L207.989 379.428L208.045 379.262L207.806 378.596L207.54 379.262L207.723 379.739ZM234.466 379.739L234.599 379.733L234.632 379.65L234.777 379.239L234.499 378.574L234.266 379.239L234.466 379.739ZM383.632 361.041L383.354 360.691L383.321 361.357L383.632 361.041ZM370.227 374.923V374.662L370.088 375.012L370.227 374.923ZM379.26 364.864L379.226 364.897L379.531 365.274L379.864 364.925L379.837 364.891L379.26 364.864ZM369.755 367.449H369.9L370.233 367.116V366.434L369.761 366.911L369.755 367.449ZM268.915 343.453V342.898H268.449L268.915 343.453Z" fill="#29B5E8"/>
<path d="M234.544 379.905L234.599 379.722L234.466 379.728L234.544 379.905ZM207.912 379.739L207.773 379.733L207.829 379.916L207.912 379.739ZM274.12 338.015L273.654 337.527V338.015H274.12ZM379.31 364.869L379.881 364.897L379.604 364.564L379.31 364.869ZM369.9 367.56L369.756 367.505V367.71L369.9 367.56ZM273.598 343.508L274.064 342.953H273.598V343.508ZM268.916 337.96V337.472L268.45 337.96H268.916Z" fill="#29B5E8"/>
<path d="M411.377 359.372L411.4 359.278C412.148 354.956 414.376 351.028 417.7 348.167C421.025 345.306 425.24 343.689 429.626 343.593C438.592 343.848 446.104 350.428 447.563 359.278L447.585 359.366L447.658 359.766H411.305L411.383 359.378L411.377 359.372ZM411.033 365.009L411.006 364.549H450.398C450.953 364.576 451.608 364.349 452.052 363.927C452.496 363.505 452.745 362.928 452.751 362.307V362.002C452.76 357.817 451.638 353.707 449.505 350.106C447.372 346.505 444.307 343.546 440.632 341.543C436.958 339.539 432.81 338.565 428.628 338.723C424.446 338.88 420.383 340.164 416.87 342.438C413.355 344.708 410.518 347.885 408.658 351.632C406.797 355.38 405.983 359.561 406.301 363.733C406.116 370.084 408.442 376.251 412.776 380.897C417.109 385.543 423.1 388.293 429.448 388.551H431.667C435.685 388.295 439.573 387.024 442.966 384.858C446.359 382.691 449.147 379.699 451.07 376.161C451.386 375.589 451.48 374.92 451.335 374.283C451.189 373.645 450.815 373.084 450.282 372.705C449.76 372.383 449.133 372.288 448.54 372.438C447.946 372.588 447.441 372.982 447.153 373.515C444.101 379.34 438.242 383.185 431.618 383.668H429.354C424.493 383.476 419.886 381.446 416.464 377.987C413.043 374.528 411.062 369.9 410.922 365.037L410.917 365.009M272.088 321.177C269.674 324.534 268.553 328.645 268.925 332.757V338.072H262.583C262.27 338.063 261.958 338.117 261.667 338.232C261.375 338.346 261.109 338.518 260.885 338.738C260.431 339.182 260.175 339.847 260.175 340.419C260.159 341.087 260.4 341.735 260.848 342.231C261.296 342.726 261.917 343.031 262.583 343.082H268.919V386.27C268.887 386.699 268.973 387.129 269.17 387.512C269.366 387.895 269.665 388.216 270.033 388.439C270.4 388.662 270.823 388.78 271.253 388.778C271.683 388.776 272.105 388.655 272.47 388.429C272.838 388.207 273.137 387.888 273.335 387.507C273.532 387.126 273.621 386.698 273.591 386.27V343.082H280.371C281.042 343.046 281.672 342.747 282.124 342.249C282.576 341.752 282.813 341.096 282.785 340.424C282.796 339.786 282.54 339.176 282.086 338.732C281.867 338.516 281.606 338.347 281.32 338.234C281.034 338.122 280.728 338.069 280.421 338.078H273.641V332.762C273.38 329.858 274.067 326.948 275.6 324.467C276.404 323.726 277.362 323.173 278.406 322.848C279.45 322.522 280.553 322.433 281.636 322.587C281.73 322.587 281.825 322.581 281.914 322.564C282.024 322.581 282.124 322.587 282.23 322.587H282.99C283.638 322.565 284.253 322.292 284.704 321.825C285.154 321.357 285.405 320.733 285.403 320.084C285.405 319.435 285.154 318.811 284.704 318.344C284.253 317.877 283.638 317.604 282.99 317.582H282.23C282.128 317.582 282.026 317.588 281.925 317.599C281.825 317.588 281.725 317.582 281.625 317.582C279.874 317.441 278.114 317.691 276.472 318.313C274.829 318.934 273.345 319.913 272.126 321.177M64.9643 360.127C59.305 358.162 53.2019 356.687 53.2019 351.887C53.2019 345.806 60.4147 343.304 64.2763 343.304C73.7528 343.304 75.7945 351.072 78.4466 348.708C81.0987 346.345 71.7221 338.766 64.9643 338.766C60.8031 338.588 56.6419 339.709 53.2019 341.961C51.5298 343.003 50.1669 344.474 49.2547 346.22C48.3425 347.966 47.9142 349.925 48.0143 351.893C47.7368 362.085 59.7877 363.805 64.9643 365.608C70.1408 367.412 76.1552 369.52 76.2107 374.574C76.2772 381.565 67.977 383.729 64.2541 383.729C53.6347 383.729 50.7718 377.498 48.7189 379.457C46.666 381.415 49.2959 383.862 54.1895 386.259C57.3345 387.712 60.7413 388.512 64.2042 388.612C68.4889 388.783 72.7047 387.494 76.1607 384.955C77.7643 383.741 79.0665 382.173 79.9662 380.373C80.8658 378.574 81.3388 376.592 81.3484 374.58C81.3484 365.225 73.259 363.039 64.9254 360.138" fill="#29B5E8"/>
<path d="M331.394 383.669C326.353 383.382 321.629 381.115 318.252 377.362C314.874 373.608 313.117 368.672 313.362 363.629C313.077 361.091 313.33 358.522 314.106 356.089C314.882 353.655 316.162 351.414 317.864 349.51C319.566 347.606 321.651 346.082 323.982 345.039C326.313 343.996 328.838 343.457 331.391 343.457C333.945 343.457 336.47 343.996 338.801 345.039C341.132 346.082 343.217 347.606 344.918 349.51C346.62 351.414 347.901 353.655 348.677 356.089C349.453 358.522 349.706 361.091 349.421 363.629C349.681 368.675 347.929 373.618 344.55 377.375C341.171 381.132 336.44 383.395 331.394 383.669ZM349.426 348.476L349.165 348.11L348.999 347.888C346.988 345.089 344.347 342.801 341.291 341.208C338.234 339.615 334.846 338.762 331.4 338.717C318.261 339.36 308.108 350.49 308.663 363.684C308.108 376.834 318.261 387.958 331.4 388.652C338.402 388.524 344.938 385.09 348.999 379.386L349.176 379.147L349.432 378.792V386.21C349.398 387.07 349.842 387.875 350.58 388.319C350.943 388.537 351.358 388.652 351.781 388.652C352.205 388.652 352.62 388.537 352.983 388.319C353.72 387.875 354.164 387.07 354.131 386.21V341.147C354.164 340.287 353.72 339.482 352.983 339.038C352.62 338.82 352.205 338.705 351.781 338.705C351.358 338.705 350.943 338.82 350.58 339.038C349.842 339.482 349.398 340.287 349.432 341.147L349.426 348.476ZM369.955 367.562L369.811 367.707V319.802C369.824 319.373 369.722 318.949 369.515 318.573C369.307 318.197 369.002 317.884 368.632 317.667C368.262 317.45 367.84 317.337 367.41 317.34C366.981 317.343 366.561 317.461 366.193 317.683C365.444 318.127 364.989 318.931 365.006 319.802V386.116C364.992 386.545 365.094 386.97 365.301 387.346C365.509 387.722 365.814 388.034 366.184 388.251C366.555 388.468 366.977 388.582 367.406 388.579C367.835 388.576 368.256 388.457 368.623 388.235C369.372 387.792 369.827 386.987 369.811 386.116V374.659L379.614 364.489L379.892 364.833L379.919 364.86L398.046 387.575C398.451 388.202 399.166 388.557 399.91 388.491C400.475 388.507 401.028 388.326 401.475 387.98C402.462 387.026 402.545 385.472 401.669 384.418L383.054 360.921L401.569 342.323C401.803 342.1 401.99 341.832 402.117 341.535C402.244 341.238 402.31 340.918 402.31 340.595C402.31 340.272 402.244 339.952 402.117 339.655C401.99 339.357 401.803 339.089 401.569 338.866C401.153 338.384 400.542 338.101 399.904 338.101C399.266 338.101 398.656 338.378 398.24 338.866L370.238 367.207L369.955 367.562ZM296.995 317.35C296.363 317.373 295.764 317.64 295.326 318.096C294.887 318.551 294.642 319.159 294.642 319.791V386.094C294.628 386.523 294.731 386.948 294.938 387.324C295.145 387.699 295.45 388.012 295.821 388.229C296.191 388.446 296.613 388.559 297.042 388.557C297.472 388.554 297.892 388.435 298.26 388.213C299.009 387.769 299.464 386.959 299.447 386.094V319.73C299.442 318.382 298.337 317.289 296.995 317.289M234.632 379.569L234.599 379.652L234.543 379.835L234.477 379.658L234.282 379.169L223.48 352.538C223.274 352.086 222.943 351.702 222.526 351.432C222.109 351.161 221.624 351.016 221.127 351.012C220.145 351.051 219.274 351.639 218.869 352.538L207.8 379.891L207.745 379.708L193.797 340.315C193.692 340.022 193.528 339.755 193.315 339.528C193.103 339.301 192.847 339.121 192.562 338.997C192.277 338.873 191.97 338.809 191.659 338.809C191.349 338.808 191.041 338.871 190.756 338.994C190.205 339.28 189.78 339.762 189.564 340.345C189.349 340.927 189.358 341.569 189.591 342.146L205.659 387.004C205.734 387.248 205.86 387.475 206.028 387.668C206.196 387.861 206.403 388.016 206.635 388.124C206.681 388.185 206.739 388.234 206.806 388.269C206.874 388.304 206.948 388.323 207.024 388.324C207.305 388.439 207.603 388.506 207.906 388.524C208.838 388.468 209.648 387.875 209.959 387.004C209.969 386.927 210.002 386.856 210.053 386.798L221.127 359.334L232.335 386.798C232.491 387.217 232.753 387.588 233.097 387.873C233.441 388.158 233.853 388.348 234.293 388.424H234.588C235.142 388.43 235.586 388.247 235.964 387.914C236.341 387.581 236.668 387.176 236.851 386.693L252.83 342.04C253.313 340.819 252.747 339.432 251.554 338.889C250.35 338.417 249.002 339.011 248.519 340.209L234.843 379.047L234.632 379.569ZM95.6473 341.197C95.7027 340.342 95.27 339.532 94.5376 339.088C93.8052 338.645 92.8898 338.645 92.1518 339.088C91.79 339.303 91.4948 339.614 91.2989 339.986C91.103 340.358 91.0141 340.777 91.0422 341.197V386.66C91.0976 386.715 91.1309 386.782 91.142 386.859C91.1254 386.97 91.1642 387.081 91.2364 387.17C91.3952 387.485 91.6162 387.764 91.8861 387.991C92.156 388.218 92.4691 388.388 92.8065 388.491H93.3891C93.7377 388.497 94.0823 388.416 94.3921 388.257C94.702 388.097 94.9674 387.863 95.1645 387.575C95.4241 387.252 95.5927 386.865 95.6528 386.454V358.99C95.6417 350.684 102.244 343.877 110.544 343.633C114.541 343.71 118.344 345.37 121.118 348.248C123.893 351.126 125.412 354.988 125.342 358.985V386.033C125.308 386.893 125.752 387.697 126.49 388.141C126.853 388.359 127.268 388.475 127.691 388.475C128.115 388.475 128.53 388.359 128.893 388.141C129.631 387.697 130.074 386.893 130.041 386.033V358.985C130.208 348.021 121.497 338.983 110.539 338.744C107.675 338.761 104.851 339.419 102.275 340.669C99.6978 341.919 97.4334 343.73 95.6473 345.968V341.197ZM161.417 383.603C156.383 383.3 151.67 381.029 148.297 377.28C144.924 373.531 143.161 368.605 143.39 363.568C143.105 361.03 143.358 358.46 144.134 356.027C144.91 353.594 146.191 351.353 147.892 349.449C149.594 347.545 151.679 346.021 154.01 344.978C156.341 343.935 158.866 343.396 161.419 343.396C163.973 343.396 166.498 343.935 168.829 344.978C171.16 346.021 173.245 347.545 174.947 349.449C176.648 351.353 177.929 353.594 178.705 356.027C179.481 358.46 179.734 361.03 179.449 363.568C179.678 368.605 177.915 373.531 174.542 377.28C171.169 381.029 166.451 383.3 161.417 383.603ZM161.422 338.65C155.124 338.998 149.214 341.803 144.962 346.462C140.71 351.122 138.456 357.264 138.685 363.568C137.892 372.19 142.048 380.512 149.41 385.067C156.773 389.623 166.077 389.617 173.434 385.067C180.791 380.518 184.947 372.184 184.159 363.568C184.402 357.255 182.154 351.101 177.901 346.43C173.648 341.76 167.729 338.948 161.422 338.6" fill="#29B5E8"/>
<path d="M188.707 154.878L225.104 176.705C229.254 179.201 234.58 178.502 237.948 175.024C239.041 173.969 239.909 172.704 240.5 171.305C241.091 169.907 241.393 168.403 241.388 166.884V123.136C241.464 121.219 241.021 119.317 240.106 117.631C239.19 115.944 237.836 114.537 236.187 113.557C234.538 112.576 232.654 112.06 230.736 112.061C228.817 112.062 226.935 112.582 225.287 113.565C223.639 114.544 222.285 115.95 221.369 117.635C220.453 119.319 220.009 121.22 220.083 123.136V148.031L199.41 135.636C198.192 134.91 196.839 134.439 195.433 134.252C194.028 134.064 192.599 134.163 191.233 134.543C189.867 134.923 188.592 135.576 187.485 136.463C186.379 137.35 185.464 138.452 184.796 139.703C181.838 144.996 183.558 151.676 188.707 154.878ZM276.209 176.649L312.606 154.822C317.766 151.621 319.486 144.935 316.523 139.642C315.854 138.392 314.939 137.292 313.833 136.406C312.727 135.52 311.452 134.868 310.087 134.488C308.722 134.108 307.294 134.01 305.889 134.197C304.484 134.385 303.132 134.856 301.915 135.581L281.513 147.809V123.075C281.589 121.158 281.146 119.256 280.231 117.569C279.315 115.883 277.961 114.476 276.312 113.496C274.663 112.515 272.78 111.999 270.861 112C268.943 112.001 267.06 112.521 265.412 113.504C263.764 114.483 262.41 115.889 261.494 117.574C260.578 119.258 260.134 121.159 260.208 123.075V165.963C259.986 168.26 260.469 170.568 261.595 172.588C262.263 173.838 263.178 174.94 264.285 175.827C265.391 176.714 266.666 177.368 268.032 177.748C269.398 178.128 270.827 178.227 272.233 178.039C273.638 177.851 274.991 177.375 276.209 176.649ZM243.807 201.528C243.842 200.827 244.11 200.157 244.567 199.625L248.823 195.197C249.331 194.735 249.98 194.457 250.665 194.409H250.831C251.517 194.45 252.166 194.728 252.668 195.197L256.923 199.625C257.381 200.157 257.648 200.827 257.684 201.528V201.694C257.651 202.399 257.383 203.073 256.923 203.608L252.668 208.025C252.164 208.487 251.519 208.767 250.837 208.818H250.671C249.982 208.778 249.331 208.497 248.828 208.025L244.573 203.608C244.112 203.07 243.852 202.399 243.813 201.694L243.807 201.528ZM230.924 199.708V203.525C230.972 204.484 231.337 205.399 231.962 206.127L246.404 221.119C247.087 221.763 247.975 222.146 248.912 222.201H252.585C253.522 222.146 254.41 221.763 255.092 221.119L269.535 206.127C270.162 205.406 270.533 204.485 270.572 203.52V199.702C270.526 198.742 270.161 197.825 269.535 197.095L255.092 182.114C254.41 181.47 253.522 181.087 252.585 181.032H248.912C247.975 181.087 247.087 181.47 246.404 182.114L231.962 197.106C231.335 197.827 230.963 198.743 230.924 199.708ZM169.876 189.41L190.488 201.772L169.876 214.128C164.727 217.329 162.996 224.015 165.959 229.308C166.628 230.558 167.543 231.66 168.65 232.546C169.757 233.433 171.032 234.085 172.398 234.465C173.764 234.845 175.192 234.943 176.598 234.755C178.003 234.567 179.355 234.095 180.573 233.37L216.97 211.543C218.611 210.494 219.961 209.049 220.896 207.342C221.831 205.634 222.321 203.719 222.321 201.772C222.321 199.825 221.831 197.91 220.896 196.202C219.961 194.495 218.611 193.05 216.97 192.001L180.573 170.169C179.355 169.443 178.002 168.972 176.597 168.784C175.191 168.596 173.762 168.696 172.396 169.076C171.03 169.456 169.755 170.109 168.649 170.996C167.543 171.883 166.628 172.985 165.959 174.236C163.002 179.529 164.727 186.209 169.876 189.41ZM279 201.761C278.969 203.708 279.446 205.629 280.384 207.336C281.322 209.042 282.689 210.475 284.349 211.493L320.762 233.32C321.98 234.045 323.332 234.515 324.736 234.703C326.141 234.891 327.569 234.792 328.935 234.412C330.3 234.033 331.574 233.38 332.68 232.494C333.787 231.609 334.702 230.508 335.371 229.258C338.333 223.965 336.608 217.274 331.454 214.078L310.842 201.722L331.454 189.36C336.614 186.165 338.333 179.484 335.371 174.186C334.702 172.936 333.787 171.835 332.682 170.948C331.576 170.062 330.301 169.409 328.936 169.029C327.571 168.649 326.142 168.549 324.737 168.737C323.332 168.924 321.98 169.394 320.762 170.119L284.349 191.951C282.676 192.976 281.302 194.422 280.363 196.145C279.425 197.867 278.955 199.805 279 201.766M232.417 225.474C229.903 224.986 227.301 225.452 225.11 226.773L188.713 248.605C183.564 251.807 181.833 258.481 184.796 263.78C185.464 265.03 186.38 266.132 187.487 267.018C188.593 267.904 189.868 268.557 191.234 268.937C192.6 269.316 194.029 269.415 195.434 269.227C196.839 269.038 198.192 268.567 199.41 267.841L220.083 255.446V280.153C220.007 282.07 220.45 283.972 221.365 285.658C222.281 287.344 223.635 288.752 225.284 289.732C226.933 290.712 228.817 291.229 230.735 291.228C232.654 291.226 234.536 290.707 236.184 289.724C237.832 288.745 239.186 287.339 240.102 285.654C241.018 283.97 241.462 282.069 241.388 280.153V236.349C241.429 233.761 240.55 231.243 238.908 229.243C237.267 227.242 234.968 225.889 232.422 225.424M312.623 248.561L276.226 226.734C275.008 226.008 273.655 225.537 272.25 225.349C270.845 225.16 269.416 225.259 268.05 225.639C266.684 226.018 265.409 226.671 264.303 227.557C263.196 228.444 262.281 229.545 261.612 230.795C260.492 232.815 260.01 235.127 260.23 237.426V280.103C260.154 282.02 260.597 283.922 261.513 285.608C262.428 287.294 263.782 288.702 265.431 289.682C267.081 290.663 268.964 291.179 270.882 291.178C272.801 291.176 274.684 290.657 276.331 289.674C277.98 288.695 279.334 287.289 280.249 285.604C281.165 283.92 281.61 282.019 281.536 280.103V255.569L301.931 267.797C303.149 268.523 304.502 268.994 305.908 269.181C307.313 269.369 308.742 269.27 310.108 268.89C311.474 268.51 312.749 267.857 313.856 266.97C314.962 266.083 315.877 264.981 316.545 263.73C319.503 258.437 317.777 251.757 312.628 248.555" fill="#29B5E8"/>
</svg>
