<svg width="24" height="24" viewBox="0 0 24 24" fill="none" xmlns="http://www.w3.org/2000/svg">
<path d="M20.33 5.49275C20.339 5.65553 20.2738 5.77522 20.1732 5.88593C19.7669 6.33058 19.6981 6.86081 20.0009 7.37009C20.3749 7.99726 20.6484 8.66573 20.871 9.35813C21.0727 9.9859 21.4342 10.2672 22.0907 10.3151C22.4294 10.3396 22.6598 10.57 22.6628 10.9063C22.6682 11.5102 22.6682 12.114 22.6628 12.7178C22.6598 13.0787 22.4282 13.3061 22.0661 13.3217C21.5497 13.3432 21.0739 13.7304 20.9578 14.2313C20.7914 14.9488 20.5317 15.6293 20.1715 16.272C19.8638 16.8214 19.9177 17.3199 20.3306 17.7939C20.5718 18.0709 20.57 18.3624 20.3127 18.6227C19.874 19.0656 19.4318 19.5048 18.9871 19.9417C18.7418 20.1823 18.4533 20.1853 18.187 19.9608C17.7118 19.5599 17.2247 19.5072 16.6783 19.8076C15.9656 20.199 15.2169 20.4971 14.4377 20.7292C13.9937 20.8615 13.7459 21.1889 13.6621 21.6401C13.6478 21.7167 13.6466 21.7951 13.6352 21.8723C13.5879 22.1996 13.3898 22.3929 13.0649 22.3971C12.4347 22.4049 11.8051 22.4049 11.175 22.3977C10.8632 22.3941 10.6172 22.1488 10.5831 21.8346C10.5131 21.1936 10.1971 20.8286 9.56396 20.6712C8.86796 20.4988 8.20967 20.2349 7.58429 19.886C7.06962 19.5988 6.49392 19.6664 6.05226 20.0614C5.79134 20.2948 5.48912 20.299 5.23478 20.0584C4.76799 19.6161 4.30539 19.1703 3.84578 18.7203C3.59743 18.4773 3.59503 18.1906 3.82364 17.9243C4.23956 17.4402 4.28804 16.9441 3.96787 16.3863C3.61777 15.7771 3.34009 15.1373 3.13363 14.4665C3.00676 14.0548 2.80448 13.7047 2.38198 13.5311C2.24254 13.4737 2.09652 13.4473 1.94691 13.4378C1.58664 13.4156 1.34008 13.1696 1.33709 12.8124C1.3323 12.202 1.3323 11.5915 1.33709 10.9811C1.34008 10.5975 1.55911 10.3671 1.93972 10.3689C2.46037 10.3713 2.97923 9.9883 3.11687 9.47124C3.30658 8.75789 3.59922 8.07805 3.96248 7.43053C4.24136 6.93262 4.17313 6.39881 3.79551 5.97151C3.53758 5.67947 3.531 5.40837 3.8015 5.13009C4.24016 4.67827 4.6866 4.23362 5.13663 3.79316C5.37601 3.55857 5.63395 3.55917 5.90205 3.77281C6.44185 4.2031 7.03731 4.24619 7.64054 3.91704C8.27969 3.56874 8.95354 3.30243 9.65492 3.10854C10.1295 2.97748 10.4712 2.5807 10.5131 2.09177C10.5203 2.00799 10.5245 1.92301 10.5394 1.84042C10.5915 1.56095 10.8291 1.35568 11.1127 1.35448C11.7429 1.35089 12.3725 1.3503 13.0026 1.35448C13.3288 1.35628 13.5616 1.58549 13.5843 1.91044C13.6256 2.51368 13.9679 2.92721 14.555 3.07024C15.2576 3.24139 15.9255 3.49872 16.555 3.856C16.865 4.03194 17.1984 4.08461 17.5502 4.0092C17.6945 3.97808 17.8142 3.91225 17.9117 3.79855C18.1577 3.51249 18.4689 3.48137 18.7459 3.7399C19.2307 4.19113 19.7023 4.65612 20.178 5.11753C20.2852 5.22166 20.342 5.34973 20.3306 5.49275H20.33ZM19.1948 5.51011C19.1804 5.49036 19.1685 5.46822 19.1505 5.45026C18.9584 5.25697 18.7633 5.06606 18.5742 4.86977C18.5143 4.80753 18.4719 4.84703 18.4228 4.87396C17.6939 5.2809 16.959 5.22884 16.2181 4.90687C15.7968 4.72375 15.3773 4.53464 14.9488 4.37007C14.5927 4.23362 14.2133 4.15582 13.8632 4.00621C13.2223 3.73272 12.798 3.24079 12.5598 2.58729C12.5329 2.51248 12.5275 2.42451 12.403 2.4287C12.1499 2.43768 11.8967 2.43289 11.6436 2.43049C11.564 2.4299 11.537 2.4652 11.5143 2.54001C11.2665 3.3533 10.7226 3.86857 9.91884 4.12949C9.32757 4.32159 8.73391 4.51908 8.21206 4.86797C7.42211 5.39521 6.60762 5.43171 5.75962 5.03554C5.68003 4.99844 5.62497 4.99425 5.55914 5.06427C5.39457 5.23901 5.22401 5.40837 5.05106 5.57474C4.98583 5.63758 4.97266 5.68366 5.01934 5.77103C5.44902 6.57415 5.43825 7.36769 4.96249 8.15286C4.66266 8.64777 4.4173 9.17201 4.27726 9.73336C4.05165 10.6376 3.5286 11.2534 2.62974 11.5311C2.55014 11.5556 2.51663 11.5933 2.51902 11.6819C2.5256 11.9219 2.5286 12.1625 2.51783 12.4024C2.51304 12.5132 2.5645 12.5449 2.65427 12.57C3.50167 12.8022 4.03788 13.3528 4.28444 14.1876C4.47415 14.8315 4.75482 15.433 5.08756 16.0135C5.51007 16.7502 5.52922 17.5018 5.13364 18.2571C5.08936 18.342 5.09415 18.3899 5.16297 18.4545C5.33293 18.6149 5.50049 18.7789 5.65728 18.9513C5.73448 19.0362 5.78954 19.0297 5.88529 18.9818C6.58967 18.6299 7.30601 18.6185 8.02415 18.9387C8.63277 19.2104 9.23182 19.5102 9.88113 19.6754C10.786 19.9052 11.4114 20.4342 11.725 21.3187C11.7507 21.3905 11.78 21.4372 11.8734 21.4342C12.1265 21.427 12.3797 21.4294 12.6328 21.433C12.713 21.4342 12.7447 21.4007 12.7663 21.3271C13.0194 20.457 13.6172 19.9501 14.4688 19.7047C15.0811 19.5282 15.6699 19.293 16.2151 18.9614C16.792 18.6101 17.3988 18.5491 18.0488 18.7035C18.266 18.755 18.4689 18.9848 18.6813 18.8723C18.8842 18.7645 19.0224 18.5401 19.199 18.3773C19.2905 18.293 19.2965 18.2331 19.2385 18.1188C18.8495 17.3558 18.8255 16.5934 19.2744 15.8399C19.5598 15.36 19.7926 14.8549 19.962 14.3217C20.0266 14.1182 20.0625 13.9057 20.1541 13.7112C20.4575 13.0667 20.9578 12.6394 21.6221 12.4024C21.7286 12.3647 21.7621 12.3169 21.7579 12.2091C21.7502 12.0081 21.7466 11.8064 21.7585 11.6059C21.7675 11.4557 21.7292 11.3833 21.5718 11.3312C20.7675 11.0667 20.208 10.5467 19.9841 9.71301C19.8082 9.05711 19.5323 8.44729 19.1924 7.86201C18.7657 7.12712 18.7459 6.37606 19.1313 5.61663C19.1487 5.58192 19.1696 5.54901 19.1924 5.51011H19.1948Z" fill="white"/>
<path d="M17.8998 11.9267C17.8399 13.6101 17.0793 15.1062 15.6077 16.2325C14.7932 16.8555 13.8716 17.2618 12.8524 17.3582C10.415 17.5892 8.46044 16.7137 7.15163 14.6251C5.41733 11.8573 6.4706 8.26536 9.41137 6.72795C12.3498 5.19173 15.9859 6.41855 17.3899 9.41917C17.7071 10.0966 17.8986 10.9757 17.8998 11.9261V11.9267ZM16.7603 11.7447C16.7567 11.6801 16.7507 11.5957 16.7465 11.5113C16.6532 9.54066 15.2528 7.8267 13.2678 7.34555C11.5287 6.92424 9.99186 7.36649 8.72076 8.64598C7.29705 10.0787 7.05229 12.3725 8.13069 14.0787C9.18695 15.7496 11.0816 16.5551 13.0793 16.1667C14.965 15.7998 16.737 14.0972 16.7603 11.7447Z" fill="white"/>
<path d="M8.70997 11.6262C8.70997 11.0158 8.70817 10.406 8.71057 9.79558C8.71236 9.38026 8.90207 9.18756 9.31739 9.18577C10.0445 9.18277 10.7716 9.18277 11.4987 9.18577C11.9123 9.18756 12.1068 9.38146 12.108 9.79558C12.1104 11.0481 12.108 12.3013 12.111 13.5538C12.111 13.6705 12.096 13.7274 11.9571 13.7214C11.6783 13.7094 11.3988 13.7106 11.1199 13.7214C10.993 13.7262 10.9697 13.6807 10.9727 13.5664C10.9805 13.2809 10.9709 12.9949 10.9775 12.7094C10.9799 12.6077 10.9494 12.5772 10.8476 12.5796C10.5556 12.5861 10.2635 12.5861 9.9715 12.5796C9.86857 12.5772 9.83864 12.6065 9.84104 12.7094C9.84762 12.9949 9.83804 13.2809 9.84582 13.5664C9.84882 13.6807 9.82667 13.7268 9.6992 13.722C9.42033 13.7118 9.14085 13.7106 8.86197 13.722C8.72313 13.728 8.70698 13.6711 8.70758 13.5544C8.71236 12.9117 8.70997 12.269 8.70997 11.6268V11.6262ZM10.9649 10.8692C10.9685 10.8692 10.9721 10.8692 10.9751 10.8692C10.9751 10.7202 10.9709 10.5712 10.9769 10.4228C10.9805 10.336 10.9482 10.3132 10.8656 10.3138C10.5616 10.318 10.257 10.318 9.95295 10.3138C9.86976 10.3126 9.83864 10.3372 9.84164 10.4228C9.84762 10.5843 9.84164 10.7465 9.84343 10.9081C9.84523 11.0817 9.78359 11.315 9.87156 11.4138C9.97389 11.5287 10.2115 11.4491 10.3904 11.4485C10.5819 11.4485 10.8387 11.5335 10.9458 11.412C11.0385 11.3073 10.9649 11.0559 10.9649 10.8692Z" fill="white"/>
<path d="M14.3755 13.7178C14.0446 13.7178 13.713 13.7136 13.3821 13.7202C13.2708 13.7226 13.2372 13.6873 13.2396 13.5772C13.2462 13.2852 13.245 12.9931 13.2396 12.7011C13.2378 12.6071 13.2684 12.5688 13.3617 12.5814C13.3809 12.5838 13.4006 12.5814 13.4204 12.5814C13.6837 12.5794 13.8153 12.4497 13.8153 12.1924C13.8153 11.6275 13.8112 11.0625 13.8183 10.4982C13.8201 10.3599 13.7956 10.3073 13.6412 10.3109C13.242 10.3198 13.242 10.3109 13.242 9.90692C13.242 9.71242 13.2456 9.51733 13.2402 9.32283C13.2378 9.22888 13.2546 9.1822 13.3653 9.1828C14.0404 9.18699 14.716 9.18699 15.3911 9.1828C15.5012 9.1822 15.5185 9.22828 15.5173 9.32223C15.5131 9.60769 15.5113 9.89375 15.5179 10.1792C15.5209 10.2947 15.4748 10.3198 15.3695 10.3187C15.2355 10.3169 15.0577 10.257 14.9769 10.3426C14.889 10.4359 14.9506 10.6143 14.9494 10.7549C14.9458 11.3067 14.9518 11.8585 14.9452 12.4102C14.9434 12.5389 14.9656 12.5886 15.1098 12.5862C15.5149 12.579 15.5155 12.5862 15.5155 13.0009C15.5155 13.1828 15.5078 13.3648 15.5179 13.5461C15.5257 13.6783 15.4904 13.7268 15.3486 13.7226C15.0242 13.7119 14.6993 13.719 14.3749 13.719L14.3755 13.7178Z" fill="white"/>
</svg>
