<svg width="24" height="24" viewBox="0 0 24 24" fill="none" xmlns="http://www.w3.org/2000/svg">
<path d="M6.25657 12.2051H9.53863M17.7438 12.2051H14.4617M12.0002 5.64103V4M12.0002 20.4103V18.7692M2.97452 15.4872H4.61555C5.52186 15.4872 6.25657 14.7525 6.25657 13.8462V10.5641C6.25657 9.65779 5.52186 8.92308 4.61555 8.92308H2.97452C2.06821 8.92308 1.3335 9.65779 1.3335 10.5641V13.8462C1.3335 14.7525 2.06821 15.4872 2.97452 15.4872ZM21.0258 15.4872H19.3848C18.4785 15.4872 17.7438 14.7525 17.7438 13.8462V10.5641C17.7438 9.65779 18.4785 8.92308 19.3848 8.92308H21.0258C21.9321 8.92308 22.6668 9.65779 22.6668 10.5641V13.8462C22.6668 14.7525 21.9321 15.4872 21.0258 15.4872ZM11.1797 18.7692H12.8207C13.727 18.7692 14.4617 18.0345 14.4617 17.1282V7.28205C14.4617 6.37574 13.727 5.64103 12.8207 5.64103H11.1797C10.2733 5.64103 9.53863 6.37574 9.53863 7.28205V17.1282C9.53863 18.0345 10.2733 18.7692 11.1797 18.7692Z" stroke="white" stroke-width="1.33333" stroke-linecap="round"/>
</svg>
