<svg width="24" height="24" viewBox="0 0 24 24" fill="none" xmlns="http://www.w3.org/2000/svg">
<path d="M2.6665 4.16033C2.6665 3.63761 2.6665 3.37625 2.76823 3.1766C2.85771 3.00098 3.00049 2.8582 3.17611 2.76872C3.37576 2.66699 3.63712 2.66699 4.15984 2.66699H8.63984C9.16255 2.66699 9.42391 2.66699 9.62356 2.76872C9.79918 2.8582 9.94196 3.00098 10.0314 3.1766C10.1332 3.37625 10.1332 3.63761 10.1332 4.16033V8.64033C10.1332 9.16304 10.1332 9.4244 10.0314 9.62405C9.94196 9.79967 9.79918 9.94245 9.62356 10.0319C9.42391 10.1337 9.16255 10.1337 8.63984 10.1337H4.15984C3.63712 10.1337 3.37576 10.1337 3.17611 10.0319C3.00049 9.94245 2.85771 9.79967 2.76823 9.62405C2.6665 9.4244 2.6665 9.16304 2.6665 8.64033V4.16033Z" stroke="white" stroke-width="1.33333"/>
<path d="M2.6665 15.3603C2.6665 14.8376 2.6665 14.5763 2.76823 14.3766C2.85771 14.201 3.00049 14.0582 3.17611 13.9687C3.37576 13.867 3.63712 13.867 4.15984 13.867H8.63984C9.16255 13.867 9.42391 13.867 9.62356 13.9687C9.79918 14.0582 9.94196 14.201 10.0314 14.3766C10.1332 14.5763 10.1332 14.8376 10.1332 15.3603V19.8403C10.1332 20.363 10.1332 20.6244 10.0314 20.8241C9.94196 20.9997 9.79918 21.1425 9.62356 21.2319C9.42391 21.3337 9.16255 21.3337 8.63984 21.3337H4.15984C3.63712 21.3337 3.37576 21.3337 3.17611 21.2319C3.00049 21.1425 2.85771 20.9997 2.76823 20.8241C2.6665 20.6244 2.6665 20.363 2.6665 19.8403V15.3603Z" stroke="white" stroke-width="1.33333"/>
<path d="M13.8665 4.16033C13.8665 3.63761 13.8665 3.37625 13.9682 3.1766C14.0577 3.00098 14.2005 2.8582 14.3761 2.76872C14.5758 2.66699 14.8371 2.66699 15.3598 2.66699H19.8398C20.3626 2.66699 20.6239 2.66699 20.8236 2.76872C20.9992 2.8582 21.142 3.00098 21.2314 3.1766C21.3332 3.37625 21.3332 3.63761 21.3332 4.16033V8.64033C21.3332 9.16304 21.3332 9.4244 21.2314 9.62405C21.142 9.79967 20.9992 9.94245 20.8236 10.0319C20.6239 10.1337 20.3626 10.1337 19.8398 10.1337H15.3598C14.8371 10.1337 14.5758 10.1337 14.3761 10.0319C14.2005 9.94245 14.0577 9.79967 13.9682 9.62405C13.8665 9.4244 13.8665 9.16304 13.8665 8.64033V4.16033Z" stroke="white" stroke-width="1.33333"/>
<path d="M13.8665 15.3603C13.8665 14.8376 13.8665 14.5763 13.9682 14.3766C14.0577 14.201 14.2005 14.0582 14.3761 13.9687C14.5758 13.867 14.8371 13.867 15.3598 13.867H19.8398C20.3626 13.867 20.6239 13.867 20.8236 13.9687C20.9992 14.0582 21.142 14.201 21.2314 14.3766C21.3332 14.5763 21.3332 14.8376 21.3332 15.3603V19.8403C21.3332 20.363 21.3332 20.6244 21.2314 20.8241C21.142 20.9997 20.9992 21.1425 20.8236 21.2319C20.6239 21.3337 20.3626 21.3337 19.8398 21.3337H15.3598C14.8371 21.3337 14.5758 21.3337 14.3761 21.2319C14.2005 21.1425 14.0577 20.9997 13.9682 20.8241C13.8665 20.6244 13.8665 20.363 13.8665 19.8403V15.3603Z" stroke="white" stroke-width="1.33333"/>
</svg>
