<svg width="24" height="24" viewBox="0 0 24 24" fill="none" xmlns="http://www.w3.org/2000/svg">
<path d="M15.3265 14.3849L15.3265 7.1055M18.9967 14.3849V8.92534M4.31596 8.92534V5.28566C4.31596 4.28059 5.13756 3.46582 6.15105 3.46582H20.8317C21.8452 3.46582 22.6668 4.28059 22.6668 5.28566V16.2047C22.6668 17.2098 21.8452 18.0245 20.8317 18.0245H13.4914M6.1506 20.4822V12.2063M6.1506 20.4822C6.1506 20.5195 6.19141 20.5438 6.2261 20.5271L7.09695 20.1078C8.01743 19.6646 9.10088 19.6646 10.0214 20.1078C10.4561 20.3171 10.9677 20.0127 10.9677 19.5445V12.2063C10.9677 11.9916 10.8627 11.7894 10.6843 11.6605C9.42497 10.7509 7.69333 10.7509 6.43396 11.6605C6.25558 11.7894 6.1506 11.9916 6.1506 12.2063M6.1506 20.4822C6.1506 20.5195 6.10979 20.5438 6.0751 20.5271L5.20425 20.1078C4.28377 19.6646 3.20033 19.6646 2.27985 20.1078C1.84506 20.3171 1.3335 20.0127 1.3335 19.5445V12.2063C1.3335 11.9916 1.43848 11.7894 1.61686 11.6605C2.87623 10.7509 4.60787 10.7509 5.86724 11.6605C6.04562 11.7894 6.1506 11.9916 6.1506 12.2063" stroke="white" stroke-linecap="round"/>
</svg>
