<svg width="24" height="24" viewBox="0 0 24 24" fill="none" xmlns="http://www.w3.org/2000/svg">
<path d="M15.1109 12.0003L11.3294 15.7818C11.127 15.9843 10.7986 15.9843 10.5962 15.7818L8.88873 14.0744M2.6665 8.88921H21.3332M8.88873 4.74107H5.98502C4.82343 4.74107 4.24264 4.74107 3.79897 4.96713C3.40871 5.16598 3.09141 5.48327 2.89256 5.87353C2.6665 6.3172 2.6665 6.89799 2.6665 8.05959V18.0151C2.6665 19.1767 2.6665 19.7575 2.89256 20.2012C3.09141 20.5915 3.40871 20.9088 3.79897 21.1076C4.24264 21.3337 4.82343 21.3337 5.98502 21.3337H18.0147C19.1762 21.3337 19.757 21.3337 20.2007 21.1076C20.591 20.9088 20.9083 20.5915 21.1071 20.2012C21.3332 19.7575 21.3332 19.1767 21.3332 18.0151V8.05959C21.3332 6.89799 21.3332 6.3172 21.1071 5.87353C20.9083 5.48327 20.591 5.16598 20.2007 4.96713C19.757 4.74107 19.1762 4.74107 18.0147 4.74107H15.1109M8.88873 4.74107H15.1109M8.88873 4.74107V4.22255C8.88873 3.36344 8.19228 2.66699 7.33317 2.66699C6.47406 2.66699 5.77762 3.36344 5.77762 4.22255V4.74107M15.1109 4.74107V4.22255C15.1109 3.36344 15.8074 2.66699 16.6665 2.66699C17.5256 2.66699 18.2221 3.36344 18.2221 4.22255V4.74107" stroke="white" stroke-width="1.33333" stroke-linecap="round"/>
</svg>
