<svg width="24" height="24" viewBox="0 0 24 24" fill="none" xmlns="http://www.w3.org/2000/svg">
<path d="M12 16V21M12 21H18M12 21H6M7 8L8.64645 9.64645C8.84171 9.84171 8.84171 10.1583 8.64645 10.3536L7 12M11 12H13M6.2 16H17.8C18.9201 16 19.4802 16 19.908 15.782C20.2843 15.5903 20.5903 15.2843 20.782 14.908C21 14.4802 21 13.9201 21 12.8V6.2C21 5.0799 21 4.51984 20.782 4.09202C20.5903 3.71569 20.2843 3.40973 19.908 3.21799C19.4802 3 18.9201 3 17.8 3H6.2C5.0799 3 4.51984 3 4.09202 3.21799C3.71569 3.40973 3.40973 3.71569 3.21799 4.09202C3 4.51984 3 5.0799 3 6.2V12.8C3 13.9201 3 14.4802 3.21799 14.908C3.40973 15.2843 3.71569 15.5903 4.09202 15.782C4.51984 16 5.0799 16 6.2 16Z" stroke="white" stroke-opacity="0.85" stroke-width="1.33333" stroke-linecap="round"/>
</svg>
