<svg width="24" height="24" viewBox="0 0 24 24" fill="none" xmlns="http://www.w3.org/2000/svg">
<path d="M20.566 19.1354L21.2118 18.9697L21.2118 18.9697L20.566 19.1354ZM20.339 18.2509L19.6932 18.4166L19.6932 18.4166L20.339 18.2509ZM3.7553 18.2509L3.10957 18.0851L3.10957 18.0851L3.7553 18.2509ZM3.52822 19.1354L4.17395 19.3012L4.17395 19.3012L3.52822 19.1354ZM4.54602 16.9971L4.29357 16.3801L4.29357 16.3801L4.54602 16.9971ZM4.07696 17.3538L4.60546 17.7601L4.60546 17.7601L4.07696 17.3538ZM20.0173 17.3538L19.4888 17.7601L19.4888 17.7601L20.0173 17.3538ZM19.5482 16.9971L19.8007 16.3801L19.8007 16.3801L19.5482 16.9971ZM20.2645 21.1736L19.9257 20.5995L19.9257 20.5995L20.2645 21.1736ZM20.7609 20.5544L21.3964 20.7561L21.3964 20.7561L20.7609 20.5544ZM3.82975 21.1736L4.16854 20.5995L4.16854 20.5995L3.82975 21.1736ZM3.33333 20.5544L3.96877 20.3528L3.96877 20.3528L3.33333 20.5544ZM11.2347 2.93207L10.9428 2.33269L10.9428 2.33269L11.2347 2.93207ZM4.58877 6.16816L4.88062 6.76755L4.88062 6.76755L4.58877 6.16816ZM3.77634 8.54172L3.18327 8.84621L3.18327 8.84621L3.77634 8.54172ZM3.97379 8.92629L4.56685 8.62179L4.56685 8.62179L3.97379 8.92629ZM20.1205 8.92629L19.5274 8.62179L19.5274 8.6218L20.1205 8.92629ZM20.3179 8.54172L19.7249 8.23722L19.7249 8.23722L20.3179 8.54172ZM19.5055 6.16816L19.7974 5.56877L19.7974 5.56877L19.5055 6.16816ZM12.8596 2.93207L13.1514 2.33269L13.1514 2.33269L12.8596 2.93207ZM20.7424 7.44544L21.4091 7.44025L21.4091 7.44025L20.7424 7.44544ZM20.5205 6.79714L19.9892 7.19986L19.9892 7.19987L20.5205 6.79714ZM3.57375 6.79714L3.04247 6.39442L3.04247 6.39442L3.57375 6.79714ZM3.35184 7.44544L2.6852 7.44025L2.6852 7.44025L3.35184 7.44544ZM19.9121 9.15567L19.6998 8.5237L19.6998 8.5237L19.9121 9.15567ZM20.0181 9.09184L20.4783 9.57425L20.4783 9.57425L20.0181 9.09184ZM4.18219 9.15567L4.39447 8.5237L4.39447 8.5237L4.18219 9.15567ZM4.07613 9.09184L3.61599 9.57425L3.616 9.57425L4.07613 9.09184ZM11.8378 2.68595L11.7179 2.03014L11.8378 2.68595ZM12.2565 2.68595L12.3763 2.03014L12.3763 2.03014L12.2565 2.68595ZM5.70345 15.8051C5.70345 16.1733 6.00193 16.4717 6.37012 16.4717C6.73831 16.4717 7.03679 16.1733 7.03679 15.8051H5.70345ZM7.03679 9.17078C7.03679 8.80259 6.73831 8.50411 6.37012 8.50411C6.00193 8.50411 5.70345 8.80259 5.70345 9.17078H7.03679ZM11.3805 15.8051C11.3805 16.1733 11.6789 16.4717 12.0471 16.4717C12.4153 16.4717 12.7138 16.1733 12.7138 15.8051H11.3805ZM12.7138 10.2765C12.7138 9.90831 12.4153 9.60983 12.0471 9.60983C11.6789 9.60983 11.3805 9.90831 11.3805 10.2765H12.7138ZM17.0575 15.8051C17.0575 16.1733 17.356 16.4717 17.7242 16.4717C18.0923 16.4717 18.3908 16.1733 18.3908 15.8051H17.0575ZM18.3908 10.2765C18.3908 9.90831 18.0923 9.60983 17.7242 9.60983C17.356 9.60983 17.0575 9.90831 17.0575 10.2765H18.3908ZM5.29063 22.0003H18.8036V20.667H5.29063V22.0003ZM21.2118 18.9697L20.9847 18.0851L19.6932 18.4166L19.9203 19.3012L21.2118 18.9697ZM18.5766 16.2441H5.51771V17.5775H18.5766V16.2441ZM3.10957 18.0851L2.88249 18.9697L4.17395 19.3012L4.40103 18.4166L3.10957 18.0851ZM5.51771 16.2441C5.07118 16.2441 4.65558 16.232 4.29357 16.3801L4.79848 17.6141C4.85839 17.5896 4.94993 17.5775 5.51771 17.5775V16.2441ZM4.40103 18.4166C4.53952 17.8771 4.57181 17.8039 4.60546 17.7601L3.54845 16.9474C3.3078 17.2604 3.21708 17.6663 3.10957 18.0851L4.40103 18.4166ZM4.29357 16.3801C3.99991 16.5002 3.74223 16.6954 3.54845 16.9474L4.60546 17.7601C4.6537 17.6974 4.71986 17.6463 4.79848 17.6141L4.29357 16.3801ZM20.9847 18.0851C20.8772 17.6663 20.7865 17.2604 20.5458 16.9474L19.4888 17.7601C19.5225 17.8039 19.5548 17.8771 19.6932 18.4166L20.9847 18.0851ZM18.5766 17.5775C19.1443 17.5775 19.2359 17.5896 19.2958 17.6141L19.8007 16.3801C19.4387 16.232 19.0231 16.2441 18.5766 16.2441V17.5775ZM20.5458 16.9474C20.352 16.6954 20.0944 16.5002 19.8007 16.3801L19.2958 17.6141C19.3744 17.6463 19.4406 17.6974 19.4888 17.7601L20.5458 16.9474ZM18.8036 22.0003C19.1883 22.0003 19.5195 22.0009 19.787 21.9779C20.0588 21.9544 20.3419 21.9021 20.6033 21.7478L19.9257 20.5995C19.916 20.6052 19.8651 20.6329 19.6726 20.6494C19.4757 20.6664 19.2121 20.667 18.8036 20.667V22.0003ZM19.9203 19.3012C20.0196 19.688 20.0823 19.9347 20.1127 20.1221C20.1423 20.3043 20.1262 20.3507 20.1255 20.3528L21.3964 20.7561C21.4893 20.4631 21.472 20.1747 21.4288 19.9085C21.3864 19.6475 21.3048 19.3322 21.2118 18.9697L19.9203 19.3012ZM20.6033 21.7478C20.9797 21.5257 21.2637 21.1741 21.3964 20.7561L20.1255 20.3528C20.094 20.452 20.0248 20.541 19.9257 20.5995L20.6033 21.7478ZM5.29063 20.667C4.88216 20.667 4.61857 20.6664 4.42172 20.6494C4.22919 20.6329 4.17832 20.6052 4.16854 20.5995L3.49097 21.7478C3.75242 21.9021 4.03543 21.9544 4.30726 21.9779C4.57476 22.0009 4.906 22.0003 5.29063 22.0003V20.667ZM2.88249 18.9697C2.78944 19.3322 2.70783 19.6475 2.66547 19.9085C2.62227 20.1747 2.60492 20.4631 2.6979 20.7561L3.96877 20.3528C3.9681 20.3507 3.95202 20.3043 3.98159 20.1221C4.012 19.9347 4.07465 19.688 4.17395 19.3012L2.88249 18.9697ZM4.16854 20.5995C4.06949 20.541 4.00025 20.452 3.96877 20.3528L2.6979 20.7561C2.83057 21.1741 3.11458 21.5257 3.49097 21.7478L4.16854 20.5995ZM4.38 9.83745H19.7143V8.50411H4.38V9.83745ZM10.9428 2.33269L4.29691 5.56877L4.88062 6.76755L11.5266 3.53146L10.9428 2.33269ZM3.18327 8.84621L3.38072 9.23078L4.56685 8.62179L4.3694 8.23722L3.18327 8.84621ZM20.7136 9.23078L20.911 8.84621L19.7249 8.23722L19.5274 8.62179L20.7136 9.23078ZM19.7974 5.56877L13.1514 2.33269L12.5677 3.53146L19.2136 6.76755L19.7974 5.56877ZM20.911 8.84621C21.0481 8.57926 21.17 8.34295 21.2539 8.13973C21.3407 7.92933 21.4111 7.69933 21.4091 7.44025L20.0758 7.45064C20.0758 7.457 20.0762 7.4982 20.0213 7.63111C19.9635 7.77119 19.8722 7.9503 19.7249 8.23722L20.911 8.84621ZM19.2136 6.76755C19.5078 6.91078 19.6926 7.00133 19.8266 7.08044C19.9543 7.15591 19.9828 7.1914 19.9892 7.19986L21.0518 6.39442C20.8963 6.18932 20.7017 6.04878 20.5046 5.93239C20.3137 5.81963 20.072 5.70248 19.7974 5.56877L19.2136 6.76755ZM21.4091 7.44025C21.4061 7.06165 21.2801 6.69557 21.0518 6.39442L19.9892 7.19987C20.0458 7.27444 20.0751 7.36225 20.0758 7.45064L21.4091 7.44025ZM4.29691 5.56877C4.02231 5.70248 3.78056 5.81963 3.58965 5.93239C3.39259 6.04878 3.19794 6.18932 3.04247 6.39442L4.10503 7.19987C4.11144 7.1914 4.13992 7.15591 4.26771 7.08044C4.40165 7.00133 4.58647 6.91078 4.88062 6.76755L4.29691 5.56877ZM4.3694 8.23722C4.22209 7.9503 4.13074 7.77119 4.07293 7.63111C4.01808 7.4982 4.01844 7.457 4.01849 7.45064L2.6852 7.44025C2.68318 7.69934 2.7536 7.92934 2.84042 8.13973C2.92428 8.34295 3.04621 8.57926 3.18327 8.84621L4.3694 8.23722ZM3.04247 6.39442C2.81419 6.69557 2.68815 7.06164 2.6852 7.44025L4.01849 7.45064C4.01918 7.36225 4.0485 7.27444 4.10503 7.19986L3.04247 6.39442ZM19.7143 9.83745C19.7689 9.83745 19.9514 9.84574 20.1244 9.78764L19.6998 8.5237C19.7256 8.51504 19.7485 8.50989 19.7665 8.50688C19.7832 8.50408 19.7938 8.50347 19.7941 8.50345C19.7944 8.50343 19.7931 8.50351 19.7896 8.50362C19.786 8.50373 19.781 8.50384 19.7739 8.50392C19.7668 8.50401 19.7586 8.50406 19.7484 8.50408C19.7382 8.50411 19.7272 8.50411 19.7143 8.50411V9.83745ZM19.5274 8.6218C19.5155 8.64504 19.5076 8.66046 19.5008 8.67319C19.4941 8.68582 19.4919 8.68956 19.4923 8.68885C19.493 8.68775 19.499 8.67767 19.51 8.66314C19.5217 8.6476 19.5376 8.62886 19.558 8.60943L20.4783 9.57425C20.6131 9.44564 20.69 9.27675 20.7136 9.23078L19.5274 8.6218ZM20.1244 9.78764C20.2558 9.7435 20.3768 9.67102 20.4783 9.57425L19.558 8.60942C19.5993 8.56999 19.648 8.54112 19.6998 8.5237L20.1244 9.78764ZM4.38 8.50411C4.36706 8.50411 4.35604 8.50411 4.34584 8.50408C4.33572 8.50406 4.32744 8.50401 4.32038 8.50392C4.31332 8.50384 4.30829 8.50373 4.30472 8.50362C4.30114 8.50351 4.29982 8.50343 4.30017 8.50345C4.30047 8.50347 4.31106 8.50408 4.3278 8.50689C4.34574 8.50989 4.36868 8.51504 4.39447 8.5237L3.96991 9.78764C4.14289 9.84574 4.32537 9.83745 4.38 9.83745V8.50411ZM3.38072 9.23078C3.40431 9.27673 3.48116 9.44564 3.61599 9.57425L4.53626 8.60942C4.55664 8.62886 4.57258 8.6476 4.58432 8.66315C4.59528 8.67768 4.6013 8.68775 4.60196 8.68885C4.60238 8.68957 4.60014 8.68582 4.59346 8.6732C4.58671 8.66046 4.57879 8.64504 4.56685 8.62179L3.38072 9.23078ZM4.39447 8.5237C4.4463 8.54111 4.49492 8.56999 4.53626 8.60942L3.616 9.57425C3.71746 9.67102 3.83853 9.74351 3.96991 9.78764L4.39447 8.5237ZM11.5266 3.53146C11.8582 3.36998 11.9123 3.35004 11.9576 3.34176L11.7179 2.03014C11.4508 2.07896 11.207 2.20407 10.9428 2.33269L11.5266 3.53146ZM13.1514 2.33269C12.8873 2.20407 12.6435 2.07896 12.3763 2.03014L12.1367 3.34176C12.182 3.35004 12.2361 3.36998 12.5677 3.53146L13.1514 2.33269ZM11.9576 3.34176C12.0167 3.33096 12.0775 3.33096 12.1367 3.34176L12.3763 2.03014C12.1587 1.99039 11.9355 1.99039 11.7179 2.03014L11.9576 3.34176ZM7.03679 15.8051V9.17078H5.70345V15.8051H7.03679ZM12.7138 15.8051V10.2765H11.3805V15.8051H12.7138ZM18.3908 15.8051V10.2765H17.0575V15.8051H18.3908Z" fill="white"/>
</svg>
