<svg width="24" height="24" viewBox="0 0 24 24" fill="none" xmlns="http://www.w3.org/2000/svg">
<path d="M11.5006 9.7781C11.5006 10.0542 11.7245 10.2781 12.0006 10.2781C12.2767 10.2781 12.5006 10.0542 12.5006 9.7781H11.5006ZM12.5006 6.22255C12.5006 5.94641 12.2767 5.72255 12.0006 5.72255C11.7245 5.72255 11.5006 5.94641 11.5006 6.22255H12.5006ZM15.0562 13.3337C15.0562 13.6098 15.28 13.8337 15.5562 13.8337C15.8323 13.8337 16.0562 13.6098 16.0562 13.3337L15.0562 13.3337ZM16.0562 6.22255C16.0562 5.94641 15.8323 5.72255 15.5562 5.72255C15.28 5.72255 15.0562 5.94641 15.0562 6.22255L16.0562 6.22255ZM18.6117 13.3337C18.6117 13.6098 18.8356 13.8337 19.1117 13.8337C19.3879 13.8337 19.6117 13.6098 19.6117 13.3337H18.6117ZM19.6117 8.00033C19.6117 7.72418 19.3879 7.50033 19.1117 7.50033C18.8356 7.50033 18.6117 7.72418 18.6117 8.00033H19.6117ZM4.38949 8.00033C4.38949 8.27647 4.61334 8.50033 4.88949 8.50033C5.16563 8.50033 5.38949 8.27647 5.38949 8.00033H4.38949ZM13.7784 16.3892C13.5022 16.3892 13.2784 16.6131 13.2784 16.8892C13.2784 17.1654 13.5022 17.3892 13.7784 17.3892V16.3892ZM10.2547 16.7882L10.7122 16.9901L10.7143 16.9852L10.2547 16.7882ZM10.4147 17.6706L10.0573 18.0203L10.0612 18.0242L10.4147 17.6706ZM10.4438 17.6997L10.0903 18.0533L10.0904 18.0535L10.4438 17.6997ZM10.4438 19.0718L10.0904 18.7181L10.0901 18.7185L10.4438 19.0718ZM9.07168 19.0718L9.42543 18.7185L9.42524 18.7183L9.07168 19.0718ZM9.04259 19.0428L9.39617 18.6892L9.39222 18.6853L9.04259 19.0428ZM8.16016 18.8828L8.35714 19.3423L8.36205 19.3402L8.16016 18.8828ZM7.67532 19.6149L7.17532 19.6129V19.6149H7.67532ZM5.73592 19.6537L6.23606 19.6537L6.23578 19.642L5.73592 19.6537ZM5.21228 18.9215L5.0104 19.379C5.02004 19.3832 5.02981 19.3872 5.03969 19.3908L5.21228 18.9215ZM4.32986 19.0815L3.98021 18.7241L3.97631 18.728L4.32986 19.0815ZM4.30077 19.1106L3.94722 18.7571L3.94702 18.7573L4.30077 19.1106ZM2.92865 19.1106L3.2824 18.7573L3.282 18.7569L2.92865 19.1106ZM2.64425 18.4246H3.14425H2.64425ZM2.92865 17.7385L3.282 18.0923L3.2822 18.0921L2.92865 17.7385ZM2.95774 17.7094L3.31131 18.063L3.31517 18.0591L2.95774 17.7094ZM3.11774 16.827L2.65814 17.024L2.66031 17.0289L3.11774 16.827ZM2.38562 16.3421L2.38761 15.8421H2.38562V16.3421ZM1.3335 15.3724H0.833496H1.3335ZM2.34683 14.4028L2.34683 14.9029L2.35852 14.9026L2.34683 14.4028ZM3.07895 13.8791L2.62152 13.6772C2.61727 13.6869 2.61332 13.6966 2.60968 13.7065L3.07895 13.8791ZM2.91895 12.9967L3.2764 12.647L3.2725 12.6431L2.91895 12.9967ZM2.88986 12.9676L3.24341 12.614L3.24322 12.6138L2.88986 12.9676ZM2.88986 11.5955L3.24322 11.9492L3.24361 11.9488L2.88986 11.5955ZM4.26198 11.5955L3.90823 11.9488L3.90843 11.949L4.26198 11.5955ZM4.29107 11.6246L3.9375 11.9781L3.94144 11.982L4.29107 11.6246ZM5.1735 11.7846V11.2846C5.10397 11.2846 5.03522 11.2991 4.97161 11.3271L5.1735 11.7846ZM5.21228 11.7846V12.2846C5.28 12.2846 5.34701 12.2708 5.40925 12.2441L5.21228 11.7846ZM5.69713 11.0524L6.19713 11.0544V11.0524H5.69713ZM7.63653 11.0137L7.13652 11.0137L7.13653 11.0157L7.63653 11.0137ZM8.12138 11.7458L8.32327 11.2883L8.31834 11.2862L8.12138 11.7458ZM9.0038 11.5858L9.35345 11.9432L9.35736 11.9393L9.0038 11.5858ZM9.03289 11.5567L9.38645 11.9102L9.38664 11.91L9.03289 11.5567ZM10.405 11.5567L10.0513 11.91L10.0517 11.9104L10.405 11.5567ZM10.405 12.9288L10.0517 12.5751L10.0515 12.5753L10.405 12.9288ZM10.3759 12.9579L10.0223 12.6043L10.0185 12.6083L10.3759 12.9579ZM10.2159 13.8403H10.7159C10.7159 13.7708 10.7014 13.702 10.6734 13.6384L10.2159 13.8403ZM10.2159 13.8791H9.71592C9.71592 13.9468 9.72968 14.0138 9.75635 14.0761L10.2159 13.8791ZM10.948 14.364L10.946 14.864H10.948V14.364ZM10.9868 16.3034L10.9868 15.8034L10.9848 15.8034L10.9868 16.3034ZM12.5006 9.7781V6.22255H11.5006V9.7781H12.5006ZM16.0562 13.3337L16.0562 6.22255L15.0562 6.22255L15.0562 13.3337L16.0562 13.3337ZM19.6117 13.3337V8.00033H18.6117V13.3337H19.6117ZM6.66726 3.16699H20.8895V2.16699H6.66726V3.16699ZM22.1673 4.44477V15.1114H23.1673V4.44477H22.1673ZM22.1673 15.1114C22.1673 15.8171 21.5952 16.3892 20.8895 16.3892V17.3892C22.1475 17.3892 23.1673 16.3694 23.1673 15.1114H22.1673ZM20.8895 3.16699C21.5952 3.16699 22.1673 3.73907 22.1673 4.44477H23.1673C23.1673 3.18679 22.1475 2.16699 20.8895 2.16699V3.16699ZM6.66726 2.16699C5.40928 2.16699 4.38949 3.18679 4.38949 4.44477H5.38949C5.38949 3.73907 5.96157 3.16699 6.66726 3.16699V2.16699ZM5.38949 8.00033V4.44477H4.38949V8.00033H5.38949ZM20.8895 16.3892H13.7784V17.3892H20.8895V16.3892ZM7.62138 15.3337C7.62138 15.8608 7.19401 16.2882 6.66683 16.2882V17.2882C7.7463 17.2882 8.62138 16.4131 8.62138 15.3337H7.62138ZM6.66683 16.2882C6.13965 16.2882 5.71228 15.8608 5.71228 15.3337H4.71228C4.71228 16.4131 5.58736 17.2882 6.66683 17.2882V16.2882ZM5.71228 15.3337C5.71228 14.8065 6.13965 14.3791 6.66683 14.3791V13.3791C5.58736 13.3791 4.71228 14.2542 4.71228 15.3337H5.71228ZM6.66683 14.3791C7.19401 14.3791 7.62138 14.8065 7.62138 15.3337H8.62138C8.62138 14.2542 7.7463 13.3791 6.66683 13.3791V14.3791ZM9.79728 16.5863C9.6924 16.824 9.66111 17.0876 9.70746 17.3432L10.6914 17.1647C10.6807 17.1058 10.6879 17.0449 10.7121 16.9901L9.79728 16.5863ZM9.70746 17.3432C9.7538 17.5987 9.87564 17.8346 10.0573 18.0203L10.7721 17.321C10.7302 17.2781 10.7021 17.2237 10.6914 17.1647L9.70746 17.3432ZM10.0612 18.0242L10.0903 18.0533L10.7974 17.3462L10.7683 17.3171L10.0612 18.0242ZM10.0904 18.0535C10.1341 18.0971 10.1688 18.1489 10.1924 18.2059L11.1162 17.823C11.0422 17.6446 10.9338 17.4825 10.7972 17.346L10.0904 18.0535ZM10.1924 18.2059C10.216 18.2629 10.2282 18.3241 10.2282 18.3858H11.2282C11.2282 18.1926 11.1901 18.0014 11.1162 17.823L10.1924 18.2059ZM10.2282 18.3858C10.2282 18.4475 10.216 18.5086 10.1924 18.5656L11.1162 18.9486C11.1901 18.7702 11.2282 18.5789 11.2282 18.3858H10.2282ZM10.1924 18.5656C10.1688 18.6227 10.1341 18.6745 10.0904 18.7181L10.7972 19.4256C10.9338 19.2891 11.0422 19.127 11.1162 18.9486L10.1924 18.5656ZM10.0901 18.7185C10.0464 18.7622 9.99463 18.7968 9.93761 18.8204L10.3205 19.7442C10.499 19.6703 10.6611 19.5618 10.7976 19.4252L10.0901 18.7185ZM9.93761 18.8204C9.88058 18.8441 9.81946 18.8562 9.75774 18.8562V19.8562C9.95088 19.8562 10.1421 19.8182 10.3205 19.7442L9.93761 18.8204ZM9.75774 18.8562C9.69602 18.8562 9.6349 18.8441 9.57787 18.8204L9.19493 19.7442C9.37335 19.8182 9.5646 19.8562 9.75774 19.8562V18.8562ZM9.57787 18.8204C9.52085 18.7968 9.46905 18.7622 9.42543 18.7185L8.71793 19.4252C8.85442 19.5618 9.01652 19.6703 9.19493 19.7442L9.57787 18.8204ZM9.42524 18.7183L9.39615 18.6892L8.68903 19.3963L8.71812 19.4254L9.42524 18.7183ZM9.39222 18.6853C9.20653 18.5037 8.97069 18.3818 8.71511 18.3355L8.5367 19.3195C8.59568 19.3301 8.65011 19.3583 8.69296 19.4002L9.39222 18.6853ZM8.71511 18.3355C8.45952 18.2892 8.19592 18.3204 7.95828 18.4253L8.36205 19.3402C8.41689 19.316 8.47772 19.3088 8.5367 19.3195L8.71511 18.3355ZM7.9632 18.4232C7.73017 18.5231 7.53143 18.6889 7.39144 18.9003L8.22519 19.4524C8.25749 19.4036 8.30335 19.3654 8.35713 19.3423L7.9632 18.4232ZM7.39144 18.9003C7.25145 19.1116 7.17633 19.3593 7.17532 19.6129L8.17531 19.6169C8.17554 19.5584 8.19288 19.5012 8.22519 19.4524L7.39144 18.9003ZM7.17532 19.6149V19.6973H8.17532V19.6149H7.17532ZM7.17532 19.6973C7.17532 19.8219 7.12583 19.9413 7.03774 20.0294L7.74485 20.7365C8.02047 20.4609 8.17532 20.0871 8.17532 19.6973H7.17532ZM7.03774 20.0294C6.94966 20.1175 6.83019 20.167 6.70562 20.167V21.167C7.0954 21.167 7.46923 21.0122 7.74485 20.7365L7.03774 20.0294ZM6.70562 20.167C6.58105 20.167 6.46158 20.1175 6.37349 20.0294L5.66639 20.7365C5.94201 21.0122 6.31583 21.167 6.70562 21.167V20.167ZM6.37349 20.0294C6.28541 19.9413 6.23592 19.8219 6.23592 19.6973H5.23592C5.23592 20.0871 5.39076 20.4609 5.66639 20.7365L6.37349 20.0294ZM6.23592 19.6973V19.6537H5.23592V19.6973H6.23592ZM6.23578 19.642C6.22968 19.3812 6.14527 19.1283 5.99352 18.9161L5.18015 19.4978C5.21517 19.5468 5.23465 19.6052 5.23606 19.6654L6.23578 19.642ZM5.99352 18.9161C5.84177 18.7039 5.6297 18.5423 5.38488 18.4523L5.03969 19.3908C5.09619 19.4116 5.14513 19.4489 5.18015 19.4978L5.99352 18.9161ZM5.41417 18.4641C5.17653 18.3592 4.91292 18.3279 4.65734 18.3743L4.83575 19.3582C4.89473 19.3475 4.95556 19.3548 5.0104 19.379L5.41417 18.4641ZM4.65734 18.3743C4.40176 18.4206 4.16591 18.5425 3.98023 18.7241L4.67949 19.439C4.72234 19.3971 4.77677 19.3689 4.83575 19.3582L4.65734 18.3743ZM3.97631 18.728L3.94722 18.7571L4.65432 19.4642L4.68341 19.4351L3.97631 18.728ZM3.94702 18.7573C3.9034 18.8009 3.85159 18.8356 3.79457 18.8592L4.17751 19.783C4.35593 19.709 4.51802 19.6006 4.65452 19.464L3.94702 18.7573ZM3.79457 18.8592C3.73755 18.8829 3.67643 18.895 3.61471 18.895V19.895C3.80785 19.895 3.9991 19.857 4.17751 19.783L3.79457 18.8592ZM3.61471 18.895C3.55298 18.895 3.49186 18.8829 3.43484 18.8592L3.0519 19.783C3.23032 19.857 3.42157 19.895 3.61471 19.895V18.895ZM3.43484 18.8592C3.37782 18.8356 3.32602 18.8009 3.2824 18.7573L2.5749 19.464C2.71139 19.6006 2.87348 19.709 3.0519 19.783L3.43484 18.8592ZM3.282 18.7569C3.23833 18.7133 3.20369 18.6615 3.18005 18.6044L2.25628 18.9874C2.33024 19.1658 2.43864 19.3279 2.57529 19.4644L3.282 18.7569ZM3.18005 18.6044C3.15641 18.5474 3.14425 18.4863 3.14425 18.4246H2.14425C2.14425 18.6177 2.18232 18.809 2.25628 18.9874L3.18005 18.6044ZM3.14425 18.4246C3.14425 18.3628 3.15641 18.3017 3.18005 18.2447L2.25628 17.8618C2.18232 18.0402 2.14425 18.2314 2.14425 18.4246H3.14425ZM3.18005 18.2447C3.20369 18.1877 3.23833 18.1359 3.282 18.0923L2.57529 17.3848C2.43864 17.5213 2.33024 17.6833 2.25628 17.8618L3.18005 18.2447ZM3.2822 18.0921L3.31129 18.063L2.60419 17.3559L2.57509 17.385L3.2822 18.0921ZM3.31517 18.0591C3.49681 17.8734 3.61865 17.6375 3.66499 17.3819L2.68104 17.2035C2.67034 17.2625 2.64222 17.3169 2.60031 17.3598L3.31517 18.0591ZM3.66499 17.3819C3.71133 17.1264 3.68005 16.8627 3.57517 16.6251L2.66031 17.0289C2.68451 17.0837 2.69173 17.1445 2.68104 17.2035L3.66499 17.3819ZM3.57731 16.63C3.47744 16.397 3.3116 16.1983 3.10022 16.0583L2.54807 16.892C2.59685 16.9243 2.63512 16.9702 2.65817 17.024L3.57731 16.63ZM3.10022 16.0583C2.88884 15.9183 2.64114 15.8432 2.38761 15.8421L2.38362 16.8421C2.44213 16.8424 2.49929 16.8597 2.54807 16.892L3.10022 16.0583ZM2.38562 15.8421H2.30319V16.8421H2.38562V15.8421ZM2.30319 15.8421C2.17862 15.8421 2.05915 15.7927 1.97107 15.7046L1.26396 16.4117C1.53958 16.6873 1.9134 16.8421 2.30319 16.8421V15.8421ZM1.97107 15.7046C1.88298 15.6165 1.8335 15.497 1.8335 15.3724H0.833496C0.833496 15.7622 0.988339 16.1361 1.26396 16.4117L1.97107 15.7046ZM1.8335 15.3724C1.8335 15.2479 1.88298 15.1284 1.97107 15.0403L1.26396 14.3332C0.988339 14.6088 0.833496 14.9827 0.833496 15.3724H1.8335ZM1.97107 15.0403C2.05915 14.9522 2.17862 14.9028 2.30319 14.9028V13.9028C1.91341 13.9028 1.53958 14.0576 1.26396 14.3332L1.97107 15.0403ZM2.30319 14.9028H2.34683V13.9028H2.30319V14.9028ZM2.35852 14.9026C2.61931 14.8965 2.87222 14.8121 3.08439 14.6604L2.50265 13.847C2.45368 13.882 2.39532 13.9015 2.33514 13.9029L2.35852 14.9026ZM3.08439 14.6604C3.29657 14.5086 3.45818 14.2965 3.54822 14.0517L2.60968 13.7065C2.5889 13.763 2.55161 13.812 2.50265 13.847L3.08439 14.6604ZM3.53638 14.081C3.64126 13.8434 3.67255 13.5798 3.6262 13.3242L2.64225 13.5026C2.65294 13.5616 2.64572 13.6224 2.62152 13.6772L3.53638 14.081ZM3.6262 13.3242C3.57986 13.0686 3.45802 12.8327 3.27638 12.6471L2.56152 13.3463C2.60344 13.3892 2.63155 13.4436 2.64225 13.5026L3.6262 13.3242ZM3.2725 12.6431L3.24341 12.614L2.53631 13.3212L2.5654 13.3502L3.2725 12.6431ZM3.24322 12.6138C3.19955 12.5702 3.1649 12.5184 3.14126 12.4614L2.21749 12.8443C2.29145 13.0228 2.39986 13.1849 2.5365 13.3213L3.24322 12.6138ZM3.14126 12.4614C3.11763 12.4044 3.10546 12.3433 3.10546 12.2815H2.10546C2.10546 12.4747 2.14353 12.6659 2.21749 12.8443L3.14126 12.4614ZM3.10546 12.2815C3.10546 12.2198 3.11763 12.1587 3.14126 12.1017L2.21749 11.7187C2.14353 11.8972 2.10546 12.0884 2.10546 12.2815H3.10546ZM3.14126 12.1017C3.1649 12.0447 3.19955 11.9929 3.24322 11.9492L2.5365 11.2417C2.39986 11.3782 2.29145 11.5403 2.21749 11.7187L3.14126 12.1017ZM3.24361 11.9488C3.28723 11.9052 3.33903 11.8705 3.39605 11.8469L3.01311 10.9231C2.8347 10.9971 2.67261 11.1055 2.53611 11.2421L3.24361 11.9488ZM3.39605 11.8469C3.45307 11.8232 3.51419 11.8111 3.57592 11.8111V10.8111C3.38278 10.8111 3.19153 10.8491 3.01311 10.9231L3.39605 11.8469ZM3.57592 11.8111C3.63765 11.8111 3.69877 11.8232 3.75579 11.8469L4.13873 10.9231C3.96031 10.8491 3.76906 10.8111 3.57592 10.8111V11.8111ZM3.75579 11.8469C3.81281 11.8705 3.86461 11.9052 3.90823 11.9488L4.61573 11.2421C4.47924 11.1055 4.31715 10.9971 4.13873 10.9231L3.75579 11.8469ZM3.90843 11.949L3.93752 11.9781L4.64463 11.271L4.61553 11.2419L3.90843 11.949ZM3.94144 11.982C4.12713 12.1636 4.36297 12.2855 4.61855 12.3318L4.79696 11.3479C4.73798 11.3372 4.68356 11.3091 4.6407 11.2671L3.94144 11.982ZM4.61855 12.3318C4.87414 12.3782 5.13774 12.3469 5.37538 12.242L4.97161 11.3271C4.91677 11.3513 4.85594 11.3586 4.79696 11.3479L4.61855 12.3318ZM5.1735 12.2846H5.21228V11.2846H5.1735V12.2846ZM5.40925 12.2441C5.64228 12.1443 5.84102 11.9784 5.98101 11.7671L5.14726 11.2149C5.11496 11.2637 5.0691 11.302 5.01532 11.325L5.40925 12.2441ZM5.98101 11.7671C6.121 11.5557 6.19612 11.308 6.19713 11.0544L5.19714 11.0505C5.1969 11.109 5.17957 11.1661 5.14726 11.2149L5.98101 11.7671ZM6.19713 11.0524V10.97H5.19713V11.0524H6.19713ZM6.19713 10.97C6.19713 10.8455 6.24662 10.726 6.3347 10.6379L5.6276 9.93079C5.35198 10.2064 5.19713 10.5802 5.19713 10.97H6.19713ZM6.3347 10.6379C6.42279 10.5498 6.54226 10.5003 6.66683 10.5003V9.50033C6.27704 9.50033 5.90322 9.65517 5.6276 9.93079L6.3347 10.6379ZM6.66683 10.5003C6.7914 10.5003 6.91087 10.5498 6.99896 10.6379L7.70606 9.93079C7.43044 9.65517 7.05662 9.50033 6.66683 9.50033V10.5003ZM6.99896 10.6379C7.08704 10.726 7.13653 10.8455 7.13653 10.97H8.13653C8.13653 10.5802 7.98168 10.2064 7.70606 9.93079L6.99896 10.6379ZM7.13653 10.97V11.0137H8.13653V10.97H7.13653ZM7.13653 11.0157C7.13754 11.2692 7.21267 11.5169 7.35265 11.7283L8.1864 11.1761C8.15409 11.1273 8.13676 11.0702 8.13652 11.0117L7.13653 11.0157ZM7.35265 11.7283C7.49264 11.9396 7.69138 12.1055 7.92441 12.2054L8.31834 11.2862C8.26457 11.2632 8.2187 11.2249 8.1864 11.1761L7.35265 11.7283ZM7.91949 12.2032C8.15713 12.3081 8.42074 12.3394 8.67632 12.293L8.49791 11.3091C8.43893 11.3198 8.3781 11.3126 8.32326 11.2884L7.91949 12.2032ZM8.67632 12.293C8.93191 12.2467 9.16775 12.1248 9.35343 11.9432L8.65417 11.2283C8.61132 11.2703 8.55689 11.2984 8.49791 11.3091L8.67632 12.293ZM9.35736 11.9393L9.38645 11.9102L8.67933 11.2031L8.65024 11.2322L9.35736 11.9393ZM9.38664 11.91C9.43026 11.8664 9.48206 11.8317 9.53909 11.8081L9.15615 10.8843C8.97773 10.9583 8.81564 11.0667 8.67914 11.2033L9.38664 11.91ZM9.53909 11.8081C9.59611 11.7845 9.65723 11.7723 9.71895 11.7723V10.7723C9.52581 10.7723 9.33456 10.8104 9.15615 10.8843L9.53909 11.8081ZM9.71895 11.7723C9.78068 11.7723 9.8418 11.7845 9.89882 11.8081L10.2818 10.8843C10.1033 10.8104 9.91209 10.7723 9.71895 10.7723V11.7723ZM9.89882 11.8081C9.95584 11.8317 10.0076 11.8664 10.0513 11.91L10.7588 11.2033C10.6223 11.0667 10.4602 10.9583 10.2818 10.8843L9.89882 11.8081ZM10.0517 11.9104C10.0953 11.9541 10.13 12.0059 10.1536 12.0629L11.0774 11.6799C11.0034 11.5015 10.895 11.3394 10.7584 11.2029L10.0517 11.9104ZM10.1536 12.0629C10.1772 12.1199 10.1894 12.181 10.1894 12.2428H11.1894C11.1894 12.0496 11.1513 11.8584 11.0774 11.6799L10.1536 12.0629ZM10.1894 12.2428C10.1894 12.3045 10.1772 12.3656 10.1536 12.4226L11.0774 12.8056C11.1513 12.6271 11.1894 12.4359 11.1894 12.2428H10.1894ZM10.1536 12.4226C10.13 12.4796 10.0953 12.5314 10.0517 12.5751L10.7584 13.2826C10.895 13.1461 11.0034 12.984 11.0774 12.8056L10.1536 12.4226ZM10.0515 12.5753L10.0224 12.6044L10.7295 13.3115L10.7586 13.2824L10.0515 12.5753ZM10.0185 12.6083C9.83685 12.794 9.71501 13.0298 9.66867 13.2854L10.6526 13.4638C10.6633 13.4048 10.6914 13.3504 10.7334 13.3075L10.0185 12.6083ZM9.66867 13.2854C9.62233 13.541 9.65361 13.8046 9.75849 14.0422L10.6734 13.6384C10.6492 13.5836 10.6419 13.5228 10.6526 13.4638L9.66867 13.2854ZM9.71592 13.8403V13.8791H10.7159V13.8403H9.71592ZM9.75635 14.0761C9.85623 14.3091 10.0221 14.5079 10.2334 14.6478L10.7856 13.8141C10.7368 13.7818 10.6985 13.7359 10.6755 13.6821L9.75635 14.0761ZM10.2334 14.6478C10.4448 14.7878 10.6925 14.8629 10.946 14.864L10.95 13.864C10.8915 13.8637 10.8344 13.8464 10.7856 13.8141L10.2334 14.6478ZM10.948 14.864H11.0305V13.864H10.948V14.864ZM11.0305 14.864C11.155 14.864 11.2745 14.9134 11.3626 15.0015L12.0697 14.2944C11.7941 14.0188 11.4203 13.864 11.0305 13.864V14.864ZM11.3626 15.0015C11.4507 15.0896 11.5002 15.2091 11.5002 15.3337H12.5002C12.5002 14.9439 12.3453 14.57 12.0697 14.2944L11.3626 15.0015ZM11.5002 15.3337C11.5002 15.4582 11.4507 15.5777 11.3626 15.6658L12.0697 16.3729C12.3453 16.0973 12.5002 15.7234 12.5002 15.3337H11.5002ZM11.3626 15.6658C11.2745 15.7539 11.155 15.8034 11.0305 15.8034V16.8034C11.4203 16.8034 11.7941 16.6485 12.0697 16.3729L11.3626 15.6658ZM11.0305 15.8034H10.9868V16.8034H11.0305V15.8034ZM10.9848 15.8034C10.7313 15.8044 10.4836 15.8795 10.2722 16.0195L10.8244 16.8532C10.8732 16.8209 10.9303 16.8036 10.9888 16.8034L10.9848 15.8034ZM10.2722 16.0195C10.0608 16.1595 9.89501 16.3582 9.79514 16.5912L10.7143 16.9852C10.7373 16.9314 10.7756 16.8855 10.8244 16.8532L10.2722 16.0195Z" fill="white"/>
</svg>
