<svg width="24" height="24" viewBox="0 0 24 24" fill="none" xmlns="http://www.w3.org/2000/svg">
<path d="M21.3321 16.5193C21.3321 16.9354 21.3343 17.3511 21.3316 17.7672C21.3281 18.2898 20.9404 18.6544 20.3625 18.6588C19.4231 18.6663 18.4833 18.6663 17.5439 18.6588C16.9699 18.654 16.5787 18.2855 16.5708 17.7664C16.5673 17.5421 16.66 17.2449 16.5367 17.1145C16.4205 16.9917 16.0773 17.0499 15.8352 17.019C13.8803 16.771 11.8341 15.6044 11.4481 13.117C11.3624 12.5658 11.3716 12.0111 11.32 11.4591C11.2195 10.3832 10.8143 9.44448 9.81279 8.78589C9.1431 8.34564 8.37594 8.17049 7.56418 8.11739C7.45446 8.11026 7.42518 8.13919 7.42911 8.23429C7.4361 8.41221 7.43348 8.59093 7.43042 8.76885C7.42212 9.27091 7.01602 9.64776 6.4648 9.65053C5.51797 9.65568 4.57114 9.65608 3.62432 9.65053C3.08402 9.64736 2.67224 9.26933 2.66962 8.78153C2.66525 7.92323 2.66569 7.06492 2.66962 6.20662C2.67181 5.71644 3.08358 5.3388 3.62126 5.33643C4.57551 5.33207 5.52934 5.33167 6.48359 5.33643C7.00859 5.3392 7.41687 5.71406 7.42998 6.19315C7.43479 6.37146 7.4396 6.55018 7.42824 6.7277C7.41949 6.86798 7.44703 6.92583 7.63019 6.93416C8.71996 6.98448 9.73629 7.25117 10.6215 7.84992C11.7816 8.63491 12.4015 9.70284 12.5899 10.9915C12.6808 11.6144 12.652 12.2433 12.7153 12.8682C12.8727 14.4172 14.2798 15.6983 15.9916 15.835C16.1438 15.8473 16.2963 15.8576 16.448 15.8742C16.5424 15.8845 16.5761 15.8576 16.573 15.7684C16.5665 15.5905 16.5687 15.4118 16.5717 15.2339C16.5805 14.7421 16.9538 14.3621 17.4893 14.3534C18.4649 14.3375 19.4415 14.3375 20.4167 14.3534C20.957 14.3621 21.3255 14.7381 21.333 15.2319C21.333 15.245 21.333 15.2584 21.333 15.2715C21.333 15.6876 21.333 16.1033 21.333 16.5193H21.3321ZM5.0415 8.65274C5.42005 8.65274 5.79861 8.64997 6.17673 8.65433C6.28557 8.65552 6.33104 8.63174 6.3306 8.52317C6.32579 7.83724 6.32623 7.15091 6.3306 6.46498C6.33147 6.35958 6.29257 6.33065 6.17979 6.33144C5.42268 6.33501 4.666 6.3358 3.90889 6.33144C3.78562 6.33065 3.76682 6.37701 3.76726 6.47251C3.77032 7.1521 3.77163 7.83169 3.76638 8.51128C3.76551 8.6254 3.80529 8.6579 3.92769 8.65591C4.29881 8.64957 4.66994 8.65354 5.04106 8.65354L5.0415 8.65274ZM18.9471 17.6582C19.3112 17.6582 19.6749 17.6523 20.0386 17.661C20.1833 17.6645 20.2384 17.6396 20.2362 17.493C20.2266 16.8332 20.2283 16.1734 20.2353 15.5136C20.2366 15.3864 20.203 15.3472 20.057 15.3484C19.3217 15.3555 18.5869 15.3539 17.8516 15.3492C17.7266 15.3484 17.6724 15.3654 17.6742 15.4974C17.682 16.1702 17.6803 16.8431 17.675 17.5163C17.6742 17.6285 17.7087 17.663 17.8337 17.6606C18.2048 17.6534 18.576 17.6582 18.9471 17.6582Z" fill="white"/>
<path d="M10.8777 14.1331C11.0411 14.5594 11.2199 14.9478 11.473 15.3024C11.5386 15.3944 11.463 15.4348 11.4131 15.4855C10.6713 16.2475 9.74941 16.7298 8.6544 16.9414C8.30513 17.0091 7.95324 17.063 7.59523 17.0614C7.45884 17.0606 7.42081 17.1003 7.42737 17.2203C7.4383 17.4113 7.43349 17.6031 7.42956 17.7945C7.41907 18.2708 7.0392 18.6481 6.51464 18.6556C5.53896 18.6699 4.56285 18.6699 3.58717 18.656C3.05168 18.6485 2.6705 18.268 2.66919 17.7791C2.66657 16.9275 2.66613 16.0759 2.66919 15.224C2.67094 14.7445 3.04469 14.3641 3.57231 14.3546C4.55498 14.3371 5.53896 14.3371 6.52163 14.3542C7.04838 14.3633 7.42125 14.7429 7.43043 15.2208C7.43349 15.3856 7.43961 15.5513 7.42824 15.7157C7.4195 15.8417 7.45535 15.8841 7.60441 15.8754C8.93985 15.7962 10.0318 15.3266 10.7684 14.2757C10.7955 14.2369 10.8261 14.2004 10.8777 14.1327V14.1331ZM3.76945 16.4872C3.76945 16.8304 3.77426 17.1736 3.76683 17.5167C3.76421 17.6289 3.80093 17.6618 3.92507 17.661C4.67475 17.6562 5.42487 17.6558 6.17455 17.661C6.30307 17.6618 6.33061 17.6213 6.32973 17.5136C6.32493 16.8403 6.32449 16.1675 6.32973 15.4942C6.33061 15.3821 6.2952 15.3488 6.17105 15.3496C5.42137 15.3543 4.67126 15.3547 3.92157 15.3496C3.79175 15.3488 3.76464 15.3896 3.76683 15.4974C3.77382 15.8271 3.76945 16.1572 3.76945 16.4872Z" fill="white"/>
<path d="M13.1241 9.85858C12.9619 9.44448 12.7844 9.04901 12.5261 8.68921C12.4574 8.59371 12.5475 8.55646 12.5938 8.50891C13.4148 7.66249 14.4499 7.17192 15.6725 7.00034C15.9239 6.96507 16.1783 6.94169 16.4318 6.9302C16.552 6.92505 16.5748 6.88661 16.5713 6.79032C16.5647 6.59258 16.5643 6.39406 16.5704 6.19632C16.5857 5.70654 16.9962 5.33841 17.5369 5.33643C18.4833 5.33287 19.4301 5.33247 20.3765 5.33643C20.9177 5.33881 21.3273 5.7113 21.3299 6.20306C21.3343 7.06097 21.3343 7.91927 21.3299 8.77718C21.3273 9.27845 20.9168 9.64895 20.3608 9.65133C19.4214 9.65529 18.482 9.65529 17.543 9.65133C16.9909 9.64895 16.5813 9.27567 16.5695 8.77559C16.5656 8.60401 16.5599 8.43203 16.5717 8.26085C16.5809 8.13325 16.5324 8.10908 16.3991 8.1174C15.0295 8.2022 13.9214 8.69594 13.1879 9.78487C13.173 9.80706 13.1525 9.82569 13.1236 9.85897L13.1241 9.85858ZM18.9689 6.33303C18.5978 6.33303 18.2267 6.33977 17.856 6.32947C17.7078 6.3255 17.6729 6.36909 17.6737 6.4959C17.6798 7.16201 17.679 7.82813 17.6742 8.49425C17.6733 8.60758 17.696 8.65711 17.8398 8.65552C18.5821 8.64879 19.3239 8.64918 20.0661 8.65552C20.2038 8.65671 20.2362 8.61828 20.2349 8.4986C20.2288 7.82575 20.2279 7.15329 20.2353 6.48044C20.2366 6.35126 20.1872 6.32788 20.0596 6.33026C19.6959 6.33699 19.3322 6.33264 18.9681 6.33264L18.9689 6.33303Z" fill="white"/>
</svg>
