<svg width="24" height="24" viewBox="0 0 24 24" fill="none" xmlns="http://www.w3.org/2000/svg">
<path d="M1.271 11.999H7.06415M16.8112 11.999H22.6043" stroke="white" stroke-width="1.33333" stroke-linecap="round" stroke-linejoin="round"/>
<path d="M1.271 6.56171H7.06415M16.8112 6.56171H22.6043M1.271 17.2284H7.06415M16.8112 17.2284H22.6043M15.8261 6.56171C15.8261 8.71271 14.0825 10.4564 11.9316 10.4564C9.78068 10.4564 8.03702 8.71271 8.03702 6.56171C8.03702 4.41072 9.78068 2.66699 11.9316 2.66699C14.0825 2.66699 15.8261 4.41072 15.8261 6.56171ZM15.8261 17.2284C15.8261 19.3794 14.0825 21.1231 11.9316 21.1231C9.78068 21.1231 8.03702 19.3794 8.03702 17.2284C8.03702 15.0774 9.78068 13.3337 11.9316 13.3337C14.0825 13.3337 15.8261 15.0774 15.8261 17.2284Z" stroke="white" stroke-width="1.33333" stroke-linecap="round" stroke-linejoin="round"/>
</svg>
