<svg width="24" height="24" viewBox="0 0 24 24" fill="none" xmlns="http://www.w3.org/2000/svg">
<path d="M3.12978 7.66542L2.94146 8.03503L3.12978 7.66542ZM2.75898 7.29462L2.38938 7.48294L2.75898 7.29462ZM7.66493 7.29462L8.03454 7.48294L7.66493 7.29462ZM7.29413 7.66542L7.48245 8.03503L7.29413 7.66542ZM7.29413 2.75947L7.48245 2.38987L7.29413 2.75947ZM7.66493 3.13027L8.03454 2.94195L7.66493 3.13027ZM3.12978 2.75947L2.94146 2.38987L3.12978 2.75947ZM2.75898 3.13027L2.38938 2.94195L2.75898 3.13027ZM3.12978 21.2412L2.94146 21.6108L3.12978 21.2412ZM2.75898 20.8704L2.38938 21.0587L2.75898 20.8704ZM7.66493 20.8704L8.03454 21.0587L7.66493 20.8704ZM7.29413 21.2412L7.48245 21.6108L7.29413 21.2412ZM7.29413 16.3352L7.48245 15.9656L7.29413 16.3352ZM7.66493 16.706L8.03454 16.5177L7.66493 16.706ZM3.12978 16.3352L2.94146 15.9656L3.12978 16.3352ZM2.75898 16.706L2.38938 16.5177L2.75898 16.706ZM16.7055 7.66542L16.5172 8.03503L16.7055 7.66542ZM16.3347 7.29462L15.9651 7.48294L16.3347 7.29462ZM21.2407 7.29462L21.6103 7.48294L21.2407 7.29462ZM20.8699 7.66542L21.0582 8.03503L20.8699 7.66542ZM20.8699 2.75947L21.0582 2.38987L20.8699 2.75947ZM21.2407 3.13027L21.6103 2.94195L21.2407 3.13027ZM16.7055 2.75947L16.5172 2.38987L16.7055 2.75947ZM16.3347 3.13027L15.9651 2.94195L16.3347 3.13027ZM16.7055 21.2412L16.5172 21.6108L16.7055 21.2412ZM16.3347 20.8704L15.9651 21.0587L16.3347 20.8704ZM21.2407 20.8704L21.6103 21.0587L21.2407 20.8704ZM20.8699 21.2412L21.0582 21.6108L20.8699 21.2412ZM20.8699 16.3352L21.0582 15.9656L20.8699 16.3352ZM21.2407 16.706L21.6103 16.5177L21.2407 16.706ZM16.7055 16.3352L16.5172 15.9656L16.7055 16.3352ZM16.3347 16.706L15.9651 16.5177L16.3347 16.706ZM5.62677 7.7579C5.62677 7.52881 5.44105 7.34309 5.21196 7.34309C4.98286 7.34309 4.79714 7.52881 4.79714 7.7579H5.62677ZM16.2423 5.62726C16.4714 5.62726 16.6571 5.44154 16.6571 5.21245C16.6571 4.98335 16.4714 4.79763 16.2423 4.79763V5.62726ZM19.2025 7.7579C19.2025 7.52881 19.0168 7.34309 18.7877 7.34309C18.5586 7.34309 18.3729 7.52881 18.3729 7.7579H19.2025ZM16.2423 19.203C16.4714 19.203 16.6571 19.0173 16.6571 18.7882C16.6571 18.5591 16.4714 18.3734 16.2423 18.3734V19.203ZM13.9021 9.4433L13.6088 9.14998L13.9021 9.4433ZM14.7907 9.44329L14.4974 9.73661L14.4974 9.73661L14.7907 9.44329ZM15.0754 10.6166L15.3687 10.9099L15.3687 10.9099L15.0754 10.6166ZM15.0754 9.72797L15.3687 9.43465L15.3687 9.43465L15.0754 9.72797ZM15.0754 14.4211L15.3687 14.1277L15.3687 14.1277L15.0754 14.4211ZM15.0754 15.3096L15.3687 15.6029L15.3687 15.6029L15.0754 15.3096ZM13.9021 15.5943L13.6088 15.8876L13.9021 15.5943ZM14.7907 15.5943L14.4974 15.301L14.4974 15.301L14.7907 15.5943ZM10.0976 15.5943L9.80427 15.301L10.0976 15.5943ZM9.209 15.5943L9.50232 15.301L9.50232 15.301L9.209 15.5943ZM8.92431 14.4211L9.21763 14.7144L8.92431 14.4211ZM8.92431 15.3096L8.63099 15.603L8.63099 15.603L8.92431 15.3096ZM8.92436 10.6166L8.63104 10.9099L8.63104 10.9099L8.92436 10.6166ZM8.92436 9.72794L8.63104 9.43462L8.63104 9.43462L8.92436 9.72794ZM10.0976 9.44327L9.80429 9.73658L9.80429 9.73658L10.0976 9.44327ZM9.20903 9.44326L9.50235 9.73658L9.50235 9.73658L9.20903 9.44326ZM4.02408 3.08181H6.39984V2.25218H4.02408V3.08181ZM7.3426 4.02457V6.40033H8.17223V4.02457H7.3426ZM6.39984 7.34309H4.02408V8.17272H6.39984V7.34309ZM3.08132 6.40033V4.02457H2.25169V6.40033H3.08132ZM4.02408 7.34309C3.77964 7.34309 3.62125 7.34276 3.50058 7.3329C3.38474 7.32344 3.34063 7.3073 3.31811 7.29582L2.94146 8.03503C3.10044 8.11603 3.26588 8.14612 3.43302 8.15978C3.59531 8.17304 3.79333 8.17272 4.02408 8.17272V7.34309ZM2.25169 6.40033C2.25169 6.63108 2.25137 6.82909 2.26463 6.99139C2.27828 7.15853 2.30838 7.32397 2.38938 7.48294L3.12859 7.1063C3.11711 7.08377 3.10097 7.03966 3.0915 6.92383C3.08164 6.80315 3.08132 6.64477 3.08132 6.40033H2.25169ZM3.31811 7.29582C3.23651 7.25424 3.17016 7.1879 3.12859 7.1063L2.38938 7.48294C2.5105 7.72065 2.70376 7.91391 2.94146 8.03503L3.31811 7.29582ZM7.3426 6.40033C7.3426 6.64477 7.34228 6.80315 7.33242 6.92383C7.32295 7.03966 7.30681 7.08377 7.29533 7.1063L8.03454 7.48294C8.11554 7.32397 8.14563 7.15853 8.15929 6.99139C8.17255 6.82909 8.17223 6.63108 8.17223 6.40033H7.3426ZM6.39984 8.17272C6.63059 8.17272 6.8286 8.17304 6.9909 8.15978C7.15804 8.14612 7.32348 8.11603 7.48245 8.03503L7.10581 7.29582C7.08328 7.3073 7.03918 7.32344 6.92334 7.3329C6.80266 7.34276 6.64428 7.34309 6.39984 7.34309V8.17272ZM7.29533 7.1063C7.25375 7.1879 7.18741 7.25424 7.10581 7.29582L7.48245 8.03503C7.72016 7.91391 7.91342 7.72065 8.03454 7.48294L7.29533 7.1063ZM6.39984 3.08181C6.64428 3.08181 6.80267 3.08213 6.92334 3.09199C7.03918 3.10145 7.08328 3.1176 7.10581 3.12907L7.48245 2.38987C7.32348 2.30887 7.15804 2.27877 6.9909 2.26511C6.8286 2.25185 6.63059 2.25218 6.39984 2.25218V3.08181ZM8.17223 4.02457C8.17223 3.79381 8.17255 3.5958 8.15929 3.43351C8.14563 3.26637 8.11554 3.10093 8.03454 2.94195L7.29533 3.3186C7.30681 3.34112 7.32295 3.38523 7.33242 3.50106C7.34228 3.62174 7.3426 3.78013 7.3426 4.02457H8.17223ZM7.10581 3.12907C7.18741 3.17065 7.25375 3.23699 7.29533 3.3186L8.03454 2.94195C7.91342 2.70425 7.72016 2.51099 7.48245 2.38987L7.10581 3.12907ZM4.02408 2.25218C3.79333 2.25218 3.59531 2.25185 3.43302 2.26511C3.26588 2.27877 3.10044 2.30887 2.94146 2.38987L3.31811 3.12907C3.34063 3.1176 3.38474 3.10145 3.50058 3.09199C3.62125 3.08213 3.77964 3.08181 4.02408 3.08181V2.25218ZM3.08132 4.02457C3.08132 3.78013 3.08164 3.62174 3.0915 3.50106C3.10097 3.38523 3.11711 3.34112 3.12859 3.3186L2.38938 2.94195C2.30838 3.10093 2.27828 3.26637 2.26463 3.43351C2.25137 3.5958 2.25169 3.79381 2.25169 4.02457H3.08132ZM2.94146 2.38987C2.70376 2.51099 2.5105 2.70425 2.38938 2.94195L3.12859 3.3186C3.17016 3.23699 3.23651 3.17065 3.31811 3.12907L2.94146 2.38987ZM4.02408 16.6576H6.39984V15.8279H4.02408V16.6576ZM7.3426 17.6003V19.9761H8.17223V17.6003H7.3426ZM6.39984 20.9188H4.02408V21.7485H6.39984V20.9188ZM3.08132 19.9761V17.6003H2.25169V19.9761H3.08132ZM4.02408 20.9188C3.77964 20.9188 3.62125 20.9185 3.50058 20.9087C3.38474 20.8992 3.34063 20.8831 3.31811 20.8716L2.94146 21.6108C3.10044 21.6918 3.26588 21.7219 3.43302 21.7355C3.59531 21.7488 3.79333 21.7485 4.02408 21.7485V20.9188ZM2.25169 19.9761C2.25169 20.2068 2.25137 20.4048 2.26463 20.5671C2.27828 20.7343 2.30838 20.8997 2.38938 21.0587L3.12859 20.6821C3.11711 20.6595 3.10097 20.6154 3.0915 20.4996C3.08164 20.3789 3.08132 20.2205 3.08132 19.9761H2.25169ZM3.31811 20.8716C3.23651 20.83 3.17016 20.7637 3.12859 20.6821L2.38938 21.0587C2.5105 21.2964 2.70376 21.4897 2.94146 21.6108L3.31811 20.8716ZM7.3426 19.9761C7.3426 20.2205 7.34228 20.3789 7.33242 20.4996C7.32295 20.6154 7.30681 20.6595 7.29533 20.6821L8.03454 21.0587C8.11554 20.8997 8.14563 20.7343 8.15929 20.5671C8.17255 20.4048 8.17223 20.2068 8.17223 19.9761H7.3426ZM6.39984 21.7485C6.63059 21.7485 6.8286 21.7488 6.9909 21.7355C7.15804 21.7219 7.32348 21.6918 7.48245 21.6108L7.10581 20.8716C7.08328 20.8831 7.03918 20.8992 6.92334 20.9087C6.80267 20.9185 6.64428 20.9188 6.39984 20.9188V21.7485ZM7.29533 20.6821C7.25375 20.7637 7.18741 20.83 7.10581 20.8716L7.48245 21.6108C7.72016 21.4897 7.91342 21.2964 8.03454 21.0587L7.29533 20.6821ZM6.39984 16.6576C6.64428 16.6576 6.80267 16.6579 6.92334 16.6677C7.03918 16.6772 7.08328 16.6934 7.10581 16.7048L7.48245 15.9656C7.32348 15.8846 7.15804 15.8545 6.9909 15.8409C6.8286 15.8276 6.63059 15.8279 6.39984 15.8279V16.6576ZM8.17223 17.6003C8.17223 17.3696 8.17255 17.1716 8.15929 17.0093C8.14563 16.8421 8.11554 16.6767 8.03454 16.5177L7.29533 16.8944C7.30681 16.9169 7.32295 16.961 7.33242 17.0768C7.34228 17.1975 7.3426 17.3559 7.3426 17.6003H8.17223ZM7.10581 16.7048C7.18741 16.7464 7.25375 16.8128 7.29533 16.8944L8.03454 16.5177C7.91342 16.28 7.72016 16.0867 7.48245 15.9656L7.10581 16.7048ZM4.02408 15.8279C3.79333 15.8279 3.59531 15.8276 3.43302 15.8409C3.26588 15.8545 3.10044 15.8846 2.94146 15.9656L3.31811 16.7048C3.34063 16.6934 3.38474 16.6772 3.50058 16.6677C3.62125 16.6579 3.77964 16.6576 4.02408 16.6576V15.8279ZM3.08132 17.6003C3.08132 17.3559 3.08164 17.1975 3.0915 17.0768C3.10097 16.961 3.11711 16.9169 3.12859 16.8944L2.38938 16.5177C2.30838 16.6767 2.27828 16.8421 2.26463 17.0093C2.25137 17.1716 2.25169 17.3696 2.25169 17.6003H3.08132ZM2.94146 15.9656C2.70376 16.0867 2.5105 16.28 2.38938 16.5177L3.12859 16.8944C3.17016 16.8128 3.23651 16.7464 3.31811 16.7048L2.94146 15.9656ZM17.5998 3.08181H19.9756V2.25218H17.5998V3.08181ZM20.9184 4.02457V6.40033H21.748V4.02457H20.9184ZM19.9756 7.34309H17.5998V8.17272H19.9756V7.34309ZM16.6571 6.40033V4.02457H15.8274V6.40033H16.6571ZM17.5998 7.34309C17.3554 7.34309 17.197 7.34276 17.0763 7.3329C16.9605 7.32344 16.9164 7.3073 16.8939 7.29582L16.5172 8.03503C16.6762 8.11603 16.8416 8.14612 17.0088 8.15978C17.1711 8.17304 17.3691 8.17272 17.5998 8.17272V7.34309ZM15.8274 6.40033C15.8274 6.63108 15.8271 6.82909 15.8404 6.99139C15.854 7.15853 15.8841 7.32397 15.9651 7.48294L16.7043 7.1063C16.6929 7.08377 16.6767 7.03966 16.6673 6.92383C16.6574 6.80315 16.6571 6.64477 16.6571 6.40033H15.8274ZM16.8939 7.29582C16.8123 7.25424 16.7459 7.1879 16.7043 7.1063L15.9651 7.48294C16.0863 7.72065 16.2795 7.91391 16.5172 8.03503L16.8939 7.29582ZM20.9184 6.40033C20.9184 6.64477 20.918 6.80315 20.9082 6.92383C20.8987 7.03966 20.8826 7.08377 20.8711 7.1063L21.6103 7.48294C21.6913 7.32397 21.7214 7.15853 21.735 6.99139C21.7483 6.82909 21.748 6.63108 21.748 6.40033H20.9184ZM19.9756 8.17272C20.2063 8.17272 20.4044 8.17304 20.5667 8.15978C20.7338 8.14612 20.8992 8.11603 21.0582 8.03503L20.6816 7.29582C20.659 7.3073 20.6149 7.32344 20.4991 7.3329C20.3784 7.34276 20.22 7.34309 19.9756 7.34309V8.17272ZM20.8711 7.1063C20.8295 7.1879 20.7632 7.25424 20.6816 7.29582L21.0582 8.03503C21.2959 7.91391 21.4892 7.72065 21.6103 7.48294L20.8711 7.1063ZM19.9756 3.08181C20.22 3.08181 20.3784 3.08213 20.4991 3.09199C20.6149 3.10145 20.659 3.1176 20.6816 3.12907L21.0582 2.38987C20.8992 2.30887 20.7338 2.27877 20.5667 2.26511C20.4044 2.25185 20.2063 2.25218 19.9756 2.25218V3.08181ZM21.748 4.02457C21.748 3.79382 21.7483 3.5958 21.735 3.43351C21.7214 3.26637 21.6913 3.10093 21.6103 2.94195L20.8711 3.3186C20.8826 3.34112 20.8987 3.38523 20.9082 3.50106C20.918 3.62174 20.9184 3.78013 20.9184 4.02457H21.748ZM20.6816 3.12907C20.7632 3.17065 20.8295 3.237 20.8711 3.3186L21.6103 2.94195C21.4892 2.70425 21.2959 2.51099 21.0582 2.38987L20.6816 3.12907ZM17.5998 2.25218C17.3691 2.25218 17.1711 2.25185 17.0088 2.26511C16.8416 2.27877 16.6762 2.30887 16.5172 2.38987L16.8939 3.12907C16.9164 3.1176 16.9605 3.10145 17.0763 3.09199C17.197 3.08213 17.3554 3.08181 17.5998 3.08181V2.25218ZM16.6571 4.02457C16.6571 3.78013 16.6574 3.62174 16.6673 3.50106C16.6767 3.38523 16.6929 3.34112 16.7043 3.3186L15.9651 2.94195C15.8841 3.10093 15.854 3.26637 15.8404 3.43351C15.8271 3.5958 15.8274 3.79381 15.8274 4.02457H16.6571ZM16.5172 2.38987C16.2795 2.51099 16.0863 2.70425 15.9651 2.94195L16.7043 3.3186C16.7459 3.23699 16.8123 3.17065 16.8939 3.12907L16.5172 2.38987ZM17.5998 16.6576H19.9756V15.8279H17.5998V16.6576ZM20.9184 17.6003V19.9761H21.748V17.6003H20.9184ZM19.9756 20.9188H17.5998V21.7485H19.9756V20.9188ZM16.6571 19.9761V17.6003H15.8274V19.9761H16.6571ZM17.5998 20.9188C17.3554 20.9188 17.197 20.9185 17.0763 20.9087C16.9605 20.8992 16.9164 20.8831 16.8939 20.8716L16.5172 21.6108C16.6762 21.6918 16.8416 21.7219 17.0088 21.7355C17.1711 21.7488 17.3691 21.7485 17.5998 21.7485V20.9188ZM15.8274 19.9761C15.8274 20.2068 15.8271 20.4048 15.8404 20.5671C15.854 20.7343 15.8841 20.8997 15.9651 21.0587L16.7043 20.6821C16.6929 20.6595 16.6767 20.6154 16.6673 20.4996C16.6574 20.3789 16.6571 20.2205 16.6571 19.9761H15.8274ZM16.8939 20.8716C16.8123 20.83 16.7459 20.7637 16.7043 20.6821L15.9651 21.0587C16.0863 21.2964 16.2795 21.4897 16.5172 21.6108L16.8939 20.8716ZM20.9184 19.9761C20.9184 20.2205 20.918 20.3789 20.9082 20.4996C20.8987 20.6154 20.8826 20.6595 20.8711 20.6821L21.6103 21.0587C21.6913 20.8997 21.7214 20.7343 21.735 20.5671C21.7483 20.4048 21.748 20.2068 21.748 19.9761H20.9184ZM19.9756 21.7485C20.2063 21.7485 20.4044 21.7488 20.5667 21.7355C20.7338 21.7219 20.8992 21.6918 21.0582 21.6108L20.6816 20.8716C20.659 20.8831 20.6149 20.8992 20.4991 20.9087C20.3784 20.9185 20.22 20.9188 19.9756 20.9188V21.7485ZM20.8711 20.6821C20.8295 20.7637 20.7632 20.83 20.6816 20.8716L21.0582 21.6108C21.2959 21.4897 21.4892 21.2964 21.6103 21.0587L20.8711 20.6821ZM19.9756 16.6576C20.22 16.6576 20.3784 16.6579 20.4991 16.6677C20.6149 16.6772 20.659 16.6934 20.6816 16.7048L21.0582 15.9656C20.8992 15.8846 20.7338 15.8545 20.5667 15.8409C20.4044 15.8276 20.2063 15.8279 19.9756 15.8279V16.6576ZM21.748 17.6003C21.748 17.3696 21.7483 17.1716 21.735 17.0093C21.7214 16.8421 21.6913 16.6767 21.6103 16.5177L20.8711 16.8944C20.8826 16.9169 20.8987 16.961 20.9082 17.0768C20.918 17.1975 20.9184 17.3559 20.9184 17.6003H21.748ZM20.6816 16.7048C20.7632 16.7464 20.8295 16.8128 20.8711 16.8944L21.6103 16.5177C21.4892 16.28 21.2959 16.0867 21.0582 15.9656L20.6816 16.7048ZM17.5998 15.8279C17.3691 15.8279 17.1711 15.8276 17.0088 15.8409C16.8416 15.8545 16.6762 15.8846 16.5172 15.9656L16.8939 16.7048C16.9164 16.6934 16.9605 16.6772 17.0763 16.6677C17.197 16.6579 17.3554 16.6576 17.5998 16.6576V15.8279ZM16.6571 17.6003C16.6571 17.3559 16.6574 17.1975 16.6673 17.0768C16.6767 16.961 16.6929 16.9169 16.7043 16.8944L15.9651 16.5177C15.8841 16.6767 15.854 16.8421 15.8404 17.0093C15.8271 17.1716 15.8274 17.3696 15.8274 17.6003H16.6571ZM16.5172 15.9656C16.2795 16.0867 16.0863 16.28 15.9651 16.5177L16.7043 16.8944C16.7459 16.8128 16.8123 16.7464 16.8939 16.7048L16.5172 15.9656ZM4.79714 7.7579V16.2428H5.62677V7.7579H4.79714ZM16.2423 4.79763H7.75741V5.62726H16.2423V4.79763ZM18.3729 7.7579V16.2428H19.2025V7.7579H18.3729ZM16.2423 18.3734H7.75741V19.203H16.2423V18.3734ZM11.7985 8.78551H12.2011V7.95588H11.7985V8.78551ZM9.21767 10.0213L9.50235 9.73658L8.91572 9.14994L8.63104 9.43462L9.21767 10.0213ZM8.2665 12.7202V12.3176H7.43687V12.7202H8.2665ZM9.50232 15.301L9.21762 15.0163L8.63099 15.603L8.91568 15.8877L9.50232 15.301ZM12.2011 16.2522H11.7985V17.0818H12.2011V16.2522ZM14.7821 15.0163L14.4974 15.301L15.084 15.8876L15.3687 15.6029L14.7821 15.0163ZM15.7332 12.3176V12.7202H16.5628V12.3176H15.7332ZM14.4974 9.73661L14.782 10.0213L15.3687 9.43465L15.084 9.14997L14.4974 9.73661ZM13.6088 9.14998C13.4743 9.28449 13.2443 9.18921 13.2443 8.99902H12.4147C12.4147 9.92837 13.5383 10.3937 14.1954 9.73661L13.6088 9.14998ZM15.084 9.14997C14.6766 8.74259 14.0161 8.74261 13.6088 9.14998L14.1954 9.73661C14.2788 9.65323 14.414 9.65323 14.4974 9.73661L15.084 9.14997ZM15.3687 10.9099C15.776 10.5025 15.7761 9.84203 15.3687 9.43465L14.782 10.0213C14.8654 10.1047 14.8654 10.2399 14.782 10.3233L15.3687 10.9099ZM15.5197 11.2744C15.3294 11.2744 15.2342 11.0444 15.3687 10.9099L14.782 10.3233C14.1249 10.9804 14.5903 12.104 15.5197 12.104V11.2744ZM16.5628 12.3176C16.5628 11.7414 16.0958 11.2744 15.5197 11.2744V12.104C15.6376 12.104 15.7332 12.1996 15.7332 12.3176H16.5628ZM15.5197 13.7633C16.0958 13.7633 16.5628 13.2963 16.5628 12.7202H15.7332C15.7332 12.8381 15.6376 12.9337 15.5197 12.9337V13.7633ZM15.3687 14.1277C15.2342 13.9932 15.3295 13.7633 15.5197 13.7633V12.9337C14.5904 12.9337 14.125 14.0573 14.7821 14.7144L15.3687 14.1277ZM15.3687 15.6029C15.7761 15.1956 15.7761 14.5351 15.3687 14.1277L14.7821 14.7144C14.8655 14.7978 14.8655 14.9329 14.7821 15.0163L15.3687 15.6029ZM13.6088 15.8876C14.0162 16.295 14.6767 16.295 15.084 15.8876L14.4974 15.301C14.414 15.3844 14.2788 15.3844 14.1954 15.301L13.6088 15.8876ZM13.2443 16.0386C13.2443 15.8484 13.4743 15.7531 13.6088 15.8876L14.1954 15.301C13.5383 14.6438 12.4147 15.1093 12.4147 16.0386H13.2443ZM12.2011 17.0818C12.7772 17.0818 13.2443 16.6148 13.2443 16.0386H12.4147C12.4147 16.1566 12.319 16.2522 12.2011 16.2522V17.0818ZM10.7554 16.0387C10.7554 16.6148 11.2224 17.0818 11.7985 17.0818V16.2522C11.6806 16.2522 11.585 16.1566 11.585 16.0387H10.7554ZM10.3909 15.8877C10.5254 15.7532 10.7554 15.8484 10.7554 16.0387H11.585C11.585 15.1093 10.4614 14.6439 9.80427 15.301L10.3909 15.8877ZM8.91568 15.8877C9.32305 16.295 9.98354 16.295 10.3909 15.8877L9.80427 15.301C9.72089 15.3844 9.5857 15.3844 9.50232 15.301L8.91568 15.8877ZM8.63099 14.1278C8.22362 14.5351 8.22362 15.1956 8.63099 15.603L9.21763 15.0163C9.13425 14.933 9.13425 14.7978 9.21763 14.7144L8.63099 14.1278ZM8.48001 13.7633C8.67022 13.7633 8.76548 13.9933 8.63099 14.1278L9.21763 14.7144C9.87476 14.0573 9.40933 12.9337 8.48001 12.9337V13.7633ZM7.43687 12.7202C7.43687 13.2963 7.90391 13.7633 8.48001 13.7633V12.9337C8.3621 12.9337 8.2665 12.8381 8.2665 12.7202H7.43687ZM8.48004 11.2744C7.90392 11.2744 7.43687 11.7414 7.43687 12.3176H8.2665C8.2665 12.1996 8.36211 12.104 8.48004 12.104V11.2744ZM8.63104 10.9099C8.76555 11.0444 8.67028 11.2744 8.48004 11.2744V12.104C9.40939 12.104 9.87483 10.9804 9.21768 10.3232L8.63104 10.9099ZM8.63104 9.43462C8.22366 9.842 8.22366 10.5025 8.63104 10.9099L9.21768 10.3232C9.13429 10.2399 9.13429 10.1046 9.21768 10.0213L8.63104 9.43462ZM10.3909 9.14995C9.98357 8.74258 9.32308 8.74257 8.91571 9.14994L9.50235 9.73658C9.58572 9.65321 9.72091 9.6532 9.80429 9.73658L10.3909 9.14995ZM10.7554 8.999C10.7554 9.18918 10.5254 9.28446 10.3909 9.14995L9.80429 9.73658C10.4614 10.3937 11.585 9.92835 11.585 8.999H10.7554ZM12.2011 8.78551C12.3191 8.78551 12.4147 8.8811 12.4147 8.99902H13.2443C13.2443 8.42291 12.7773 7.95588 12.2011 7.95588V8.78551ZM11.7985 7.95588C11.2224 7.95588 10.7554 8.4229 10.7554 8.999H11.585C11.585 8.8811 11.6806 8.78551 11.7985 8.78551V7.95588Z" fill="white"/>
</svg>
