<svg width="24" height="24" viewBox="0 0 24 24" fill="none" xmlns="http://www.w3.org/2000/svg">
<path d="M7.05743 14.9809L6.58602 14.5094L6.58602 14.5094L7.05743 14.9809ZM16.1768 14.9809L15.7054 15.4523L16.1768 14.9809ZM12.7654 20.9246L13.0891 21.5074L13.0891 21.5074L12.7654 20.9246ZM12.3892 21.1336L12.0655 20.5508L12.0655 20.5508L12.3892 21.1336ZM10.8449 21.1336L11.1686 20.5508L11.1686 20.5508L10.8449 21.1336ZM10.4687 20.9246L10.1449 21.5074L10.145 21.5074L10.4687 20.9246ZM7.52883 15.4523C9.78672 13.1944 13.4475 13.1944 15.7054 15.4523L16.6482 14.5094C13.8696 11.7309 9.36461 11.7309 6.58602 14.5094L7.52883 15.4523ZM15.7054 15.4523C16.1465 15.8934 16.5007 16.387 16.7689 16.9125L17.9565 16.3064C17.6256 15.6581 17.1892 15.0505 16.6482 14.5094L15.7054 15.4523ZM6.46524 16.9125C6.73345 16.387 7.08769 15.8934 7.52883 15.4523L6.58602 14.5094C6.04497 15.0505 5.60855 15.6581 5.27765 16.3064L6.46524 16.9125ZM14.0088 9.66598C14.0088 10.9662 12.9548 12.0203 11.6545 12.0203V13.3536C13.6911 13.3536 15.3421 11.7026 15.3421 9.66598H14.0088ZM11.6545 12.0203C10.3543 12.0203 9.30019 10.9662 9.30019 9.66598H7.96686C7.96686 11.7026 9.61787 13.3536 11.6545 13.3536V12.0203ZM9.30019 9.66598C9.30019 8.36573 10.3543 7.31167 11.6545 7.31167V5.97834C9.61787 5.97834 7.96686 7.62935 7.96686 9.66598H9.30019ZM11.6545 7.31167C12.9548 7.31167 14.0088 8.36573 14.0088 9.66598H15.3421C15.3421 7.62935 13.6911 5.97834 11.6545 5.97834V7.31167ZM7.22464 3.33366H16.0094V2.00033H7.22464V3.33366ZM19.4902 6.81442H19.9046V5.48109H19.4902V6.81442ZM19.9009 6.81076V7.66464H21.2342V6.81076H19.9009ZM12.4416 20.3418L12.0655 20.5508L12.713 21.7163L13.0891 21.5074L12.4416 20.3418ZM11.1686 20.5508L10.7925 20.3418L10.145 21.5074L10.5211 21.7163L11.1686 20.5508ZM3.33317 7.66464V6.81076H1.99984V7.66464H3.33317ZM3.32951 6.81442H3.74388V5.48109H3.32951V6.81442ZM3.74388 6.81442C5.71405 6.81442 7.31118 5.21729 7.31118 3.24712H5.97785C5.97785 4.48091 4.97767 5.48109 3.74388 5.48109V6.81442ZM3.33317 6.81076C3.33317 6.81003 3.33319 6.81102 3.33261 6.81239C3.33222 6.81331 3.33194 6.8135 3.3321 6.81335C3.33225 6.81319 3.33206 6.81347 3.33114 6.81386C3.32977 6.81444 3.32878 6.81442 3.32951 6.81442V5.48109C2.59515 5.48109 1.99984 6.0764 1.99984 6.81076H3.33317ZM10.7925 20.3418C6.18854 17.7841 3.33317 12.9314 3.33317 7.66464H1.99984C1.99984 13.4156 5.11772 18.7145 10.1449 21.5074L10.7925 20.3418ZM12.0655 20.5508C11.7866 20.7057 11.4475 20.7057 11.1686 20.5508L10.5211 21.7163C11.2027 22.095 12.0314 22.095 12.713 21.7163L12.0655 20.5508ZM19.9009 7.66464C19.9009 12.9314 17.0455 17.7841 12.4416 20.3418L13.0891 21.5074C18.1163 18.7145 21.2342 13.4156 21.2342 7.66464H19.9009ZM19.9046 6.81442C19.9053 6.81442 19.9043 6.81444 19.9029 6.81386C19.902 6.81347 19.9018 6.81319 19.902 6.81335C19.9021 6.8135 19.9019 6.81331 19.9015 6.81239C19.9009 6.81102 19.9009 6.81003 19.9009 6.81076H21.2342C21.2342 6.0764 20.6389 5.48109 19.9046 5.48109V6.81442ZM15.9229 3.24712C15.9229 5.21729 17.52 6.81442 19.4902 6.81442V5.48109C18.2564 5.48109 17.2562 4.48091 17.2562 3.24712H15.9229ZM16.0094 3.33366C15.9616 3.33366 15.9229 3.29491 15.9229 3.24712H17.2562C17.2562 2.55853 16.698 2.00033 16.0094 2.00033V3.33366ZM7.22464 2.00033C6.53606 2.00033 5.97785 2.55853 5.97785 3.24712H7.31118C7.31118 3.29491 7.27244 3.33366 7.22464 3.33366V2.00033Z" fill="white"/>
</svg>
