<svg width="24" height="24" viewBox="0 0 24 24" fill="none" xmlns="http://www.w3.org/2000/svg">
<path d="M4.21539 14.3082L4.2894 14.1747C4.35819 14.0506 4.42437 13.9292 4.48935 13.81C4.62648 13.5585 4.7582 13.3169 4.89753 13.0809L4.21539 14.3082ZM4.21539 14.3082L4.36362 14.2717M4.21539 14.3082L4.36362 14.2717M4.36362 14.2717C5.14434 14.0798 5.90797 13.8923 6.6686 13.7055C7.04614 13.6128 7.42293 13.5202 7.8007 13.4274M4.36362 14.2717L7.8007 13.4274M7.8007 13.4274C7.79049 13.4822 7.76579 13.5229 7.73763 13.5692C7.72871 13.5839 7.71944 13.5992 7.71017 13.6156L7.71011 13.6157C7.66184 13.7019 7.61405 13.7881 7.56635 13.8741C7.3999 14.1743 7.23439 14.4729 7.05263 14.7618L7.05261 14.7618C6.99167 14.8588 6.94643 14.9519 6.96628 15.0434C6.9866 15.137 7.06843 15.2021 7.1786 15.2629C8.22092 15.838 9.25506 16.4267 10.2824 17.0275L10.2824 17.0275C10.3885 17.0896 10.4859 17.1279 10.5772 17.1011C10.6685 17.0742 10.7285 16.9897 10.7827 16.8844C10.9579 16.5456 11.1453 16.2141 11.3335 15.8813C11.4007 15.7625 11.4679 15.6435 11.5347 15.524C11.7023 16.0654 11.8699 16.6073 12.0386 17.1531C12.2188 17.7357 12.4003 18.3227 12.5846 18.918L12.6195 19.0307L12.698 18.9426C12.7168 18.9215 12.732 18.9058 12.7455 18.8917C12.7504 18.8866 12.7551 18.8818 12.7596 18.877C12.7758 18.8599 12.7922 18.8418 12.805 18.8195C13.035 18.42 13.2646 18.0203 13.4943 17.6207C13.9534 16.8216 14.4124 16.0227 14.8747 15.2254L14.8748 15.2253C14.9166 15.1527 14.9337 15.084 14.9316 15.0142C14.9295 14.9463 14.9093 14.8817 14.8839 14.8177C14.7292 14.4247 14.5762 14.0302 14.4232 13.6355C14.2188 13.1082 14.0142 12.5806 13.805 12.0558M7.8007 13.4274L15.4193 2.61595C15.736 2.49955 16.06 2.44118 16.3945 2.4253C16.4833 2.42097 16.5591 2.43601 16.624 2.47618C16.6882 2.51591 16.7348 2.5759 16.7735 2.6483L16.7736 2.64848C17.0174 3.10786 17.0844 3.6027 17.09 4.09996L17.09 4.09998C17.1043 5.40961 16.7105 6.6191 16.1819 7.78642C15.5668 9.14603 14.7629 10.3909 13.8653 11.5739M13.805 12.0558C13.8051 12.0558 13.8051 12.0558 13.8051 12.0559L13.7431 12.0804L13.805 12.0558ZM13.805 12.0558C13.7662 11.9575 13.7515 11.8796 13.7595 11.8073C13.7675 11.7355 13.7987 11.6619 13.8653 11.5739M13.8653 11.5739C13.8653 11.5739 13.8654 11.5739 13.8654 11.5739L13.8122 11.5336L13.8653 11.5739ZM8.27079 14.5133C8.17692 14.6742 8.18986 14.7495 8.35869 14.8418L8.39058 14.7833C8.95585 15.0912 9.51573 15.4102 10.0696 15.7379L10.0696 15.7379C10.1495 15.7852 10.1863 15.7891 10.207 15.7831C10.2286 15.7769 10.258 15.7531 10.3027 15.6723L10.3028 15.6723C10.6932 14.9689 11.0936 14.2712 11.4938 13.5741C11.5189 13.5304 11.5439 13.4867 11.569 13.443L11.569 13.443C11.5751 13.4323 11.5814 13.4186 11.5885 13.403C11.619 13.3358 11.6658 13.2329 11.7912 13.1818L11.8586 13.1544L11.8801 13.224C12.1558 14.1188 12.4301 15.01 12.7169 15.9416C12.7837 16.1585 12.8512 16.3777 12.9195 16.5996L8.39066 14.7833C8.3079 14.7381 8.28612 14.708 8.28091 14.6871C8.27535 14.6649 8.28164 14.627 8.32837 14.5469M8.27079 14.5133L8.32837 14.5469M8.27079 14.5133L8.32837 14.5469C8.32837 14.5469 8.32837 14.5469 8.32837 14.5469M8.27079 14.5133L8.32837 14.5469M8.32837 14.5469C8.69962 13.9108 9.06202 13.2689 9.42404 12.6277C9.47724 12.5335 9.53043 12.4393 9.58364 12.3451L9.58368 12.3451C9.59166 12.3309 9.60185 12.3154 9.61305 12.2984C9.6579 12.2302 9.71885 12.1375 9.71846 12.0079L9.7182 11.9232L9.63597 11.9433C9.24053 12.0399 8.84636 12.1363 8.45605 12.2316C7.7559 12.4027 7.06823 12.5708 6.40811 12.7319C6.45928 12.6319 6.51073 12.5311 6.56246 12.4298C6.76834 12.0265 6.97861 11.6147 7.19278 11.2049L7.19284 11.2048C7.2057 11.18 7.22667 11.1664 7.26358 11.1571C7.2827 11.1523 7.30388 11.1493 7.32831 11.1463C7.33197 11.1458 7.33574 11.1454 7.3396 11.1449C7.36 11.1425 7.38284 11.1397 7.40435 11.1356C7.59211 11.1005 7.7798 11.0651 7.96746 11.0297C8.75024 10.8821 9.5325 10.7346 10.3172 10.6028L10.3172 10.6028C10.4382 10.5824 10.5357 10.5475 10.614 10.4827C10.6924 10.4178 10.745 10.3286 10.787 10.213L10.787 10.2129C11.4012 8.52189 12.1444 6.90139 13.2793 5.49543L13.2793 5.49542C13.9577 4.65478 14.7281 3.93587 15.7614 3.56601C15.8433 3.53683 15.9004 3.51705 15.943 3.50739C15.9875 3.49731 15.999 3.50265 16.0005 3.50347C16.0008 3.50364 16.0104 3.50875 16.0216 3.54972C16.0326 3.5894 16.041 3.64668 16.0521 3.73053C16.1699 4.62348 15.9772 5.48068 15.6837 6.32401L15.6836 6.32404C15.0751 8.07527 14.0946 9.62415 12.9654 11.0828L12.9654 11.0828C12.8141 11.2783 12.7191 11.4583 12.6912 11.6516C12.6633 11.8455 12.7041 12.0438 12.8073 12.2735C12.8073 12.2735 12.8073 12.2735 12.8073 12.2735L12.8681 12.2462C13.1278 12.8248 13.3509 13.4203 13.5739 14.0158L13.5739 14.0158L13.5739 14.0159L13.5739 14.0159L13.5739 14.0159L13.5739 14.016L13.574 14.016C13.674 14.283 13.774 14.55 13.8773 14.8154L8.32837 14.5469ZM5.61972 17.1491C5.36902 17.6791 5.49587 18.1751 5.661 18.7151L5.70232 18.8503L6.5409 17.5304L6.60562 17.5464C6.60562 17.5464 6.60562 17.5464 6.60562 17.5464C6.63659 17.4211 6.69208 17.3019 6.75754 17.1815C6.78708 17.1271 6.81822 17.0733 6.84986 17.0185C6.85329 17.0126 6.85672 17.0067 6.86015 17.0007C6.89514 16.9402 6.93049 16.8786 6.96348 16.816L6.96354 16.8159C6.98452 16.7759 7.01616 16.7356 7.05417 16.6924C7.0673 16.6774 7.08182 16.6615 7.09674 16.6451C7.12226 16.617 7.14897 16.5876 7.17196 16.5598C7.24519 16.4713 7.31941 16.3548 7.26537 16.2165L7.26534 16.2164C7.22239 16.1068 7.12493 16.0276 7.0316 15.9618C7.00222 15.941 6.97316 15.9216 6.94484 15.9026C6.87722 15.8572 6.81378 15.8146 6.76 15.7648L6.71469 15.8137L6.76006 15.7648C6.69338 15.7029 6.62242 15.6603 6.54391 15.6765C6.47127 15.6915 6.4176 15.7532 6.37157 15.8171C6.06899 16.2355 5.8375 16.6887 5.61972 17.1491ZM5.61972 17.1491L5.67998 17.1776L5.61972 17.1491C5.61972 17.1491 5.61972 17.1491 5.61972 17.1491ZM8.28875 20.0608L8.28834 19.9577C8.28602 19.3711 8.3692 18.8234 8.72997 18.3326C8.89257 18.1112 9.02123 17.8647 9.15205 17.6141C9.18552 17.55 9.21913 17.4856 9.25349 17.4213C9.2535 17.4213 9.25351 17.4212 9.25352 17.4212L9.31232 17.4526C9.38253 17.321 9.43462 17.2756 9.58983 17.3596L8.28875 20.0608ZM8.28875 20.0608L8.38265 20.0181C8.92477 19.771 9.40383 19.4743 9.63138 18.8856L9.63139 18.8855C9.6647 18.7992 9.71179 18.7164 9.76461 18.6319C9.78303 18.6024 9.80255 18.5722 9.82236 18.5414C9.85784 18.4864 9.89426 18.4299 9.92703 18.3739L9.87398 18.3429L9.92703 18.3739L9.92999 18.3688C10.0208 18.2137 10.0916 18.0926 10.1349 17.9951C10.1784 17.8972 10.201 17.8088 10.1765 17.7244C10.1521 17.6402 10.0858 17.577 9.99721 17.5164C9.91172 17.4578 9.79291 17.3936 9.64207 17.3121L9.62158 17.301L8.28875 20.0608ZM10.7235 16.8538C10.6151 17.0641 10.5275 17.0936 10.316 16.97L11.5094 15.4327C11.4322 15.5713 11.3541 15.7093 11.2761 15.8474C11.0877 16.1806 10.8993 16.5139 10.7235 16.8538ZM5.24487 20.4156L5.10654 20.5797L5.31351 20.5229L5.31407 20.5227L5.32706 20.5191L5.33764 20.5108C5.44686 20.4248 5.55658 20.3391 5.66643 20.2533C6.66094 19.4766 7.66599 18.6916 8.40151 17.6195L8.40153 17.6194L8.41279 17.603C8.49825 17.4783 8.56564 17.38 8.6089 17.2996C8.65369 17.2165 8.68073 17.1386 8.66439 17.0601C8.64813 16.982 8.59241 16.9207 8.51859 16.861C8.44906 16.8048 8.35193 16.7412 8.22952 16.6612C8.22072 16.6554 8.21178 16.6496 8.20272 16.6436C8.10822 16.5816 8.01946 16.5405 7.93029 16.5596C7.84171 16.5785 7.77627 16.652 7.71309 16.7465L7.7678 16.7831L7.71308 16.7465C7.44561 17.1467 7.19265 17.5539 6.94021 17.9603C6.41485 18.806 5.89176 19.6481 5.24487 20.4156Z" fill="white" stroke="white" stroke-width="0.133333"/>
<path d="M11.9577 1.29074C6.36277 0.994631 1.58714 5.29018 1.29103 10.8851C1.15372 13.4797 2.00387 15.8981 3.51314 17.7753M10.8854 21.5518C16.4803 21.8479 21.256 17.5523 21.5521 11.9574C21.6894 9.3628 20.8392 6.94438 19.33 5.06721" stroke="white" stroke-width="1.33333" stroke-linecap="round"/>
</svg>
