<svg width="24" height="24" viewBox="0 0 24 24" fill="none" xmlns="http://www.w3.org/2000/svg">
<path d="M15.843 3.99967C16.2112 3.99967 16.5096 3.7012 16.5096 3.33301C16.5096 2.96482 16.2112 2.66634 15.843 2.66634V3.99967ZM3.86558 20.6623L4.16824 20.0683L4.16824 20.0683L3.86558 20.6623ZM2.90586 19.7026L2.31186 20.0052L2.31186 20.0052L2.90586 19.7026ZM19.9958 19.7026L19.4018 19.3999L19.4018 19.3999L19.9958 19.7026ZM19.0361 20.6623L18.7334 20.0683L18.7334 20.0683L19.0361 20.6623ZM3.86558 3.57237L4.16824 4.16637L4.16824 4.16637L3.86558 3.57237ZM2.90586 4.53209L3.49987 4.83475L3.49987 4.83475L2.90586 4.53209ZM20.9018 13.2154C20.9018 12.8472 20.6033 12.5487 20.2351 12.5487C19.8669 12.5487 19.5685 12.8472 19.5685 13.2154H20.9018ZM12.2986 14.6269L11.8255 14.1571L11.8255 14.1571L12.2986 14.6269ZM21.8062 5.99885C22.0657 5.73759 22.0642 5.31548 21.8029 5.05604C21.5417 4.7966 21.1196 4.79807 20.8601 5.05933L21.8062 5.99885ZM10.7403 14.6269L11.2134 14.1571L11.2134 14.1571L10.7403 14.6269ZM7.53171 10.4497C7.27226 10.1884 6.85016 10.187 6.5889 10.4464C6.32765 10.7059 6.32618 11.128 6.58562 11.3892L7.53171 10.4497ZM6.18023 3.99967H15.843V2.66634H6.18023V3.99967ZM16.7214 20.235H6.18023V21.5683H16.7214V20.235ZM3.33317 17.3879V6.84673H1.99984V17.3879H3.33317ZM6.18023 20.235C5.55427 20.235 5.12489 20.2345 4.79214 20.2073C4.46716 20.1807 4.29348 20.1321 4.16824 20.0683L3.56292 21.2563C3.90745 21.4318 4.27613 21.5029 4.68356 21.5362C5.08321 21.5688 5.57627 21.5683 6.18023 21.5683V20.235ZM1.99984 17.3879C1.99984 17.9919 1.99932 18.4849 2.03197 18.8846C2.06526 19.292 2.13631 19.6607 2.31186 20.0052L3.49987 19.3999C3.43605 19.2747 3.38743 19.101 3.36088 18.776C3.33369 18.4432 3.33317 18.0139 3.33317 17.3879H1.99984ZM4.16824 20.0683C3.88047 19.9216 3.6465 19.6877 3.49987 19.3999L2.31186 20.0052C2.58632 20.5439 3.02426 20.9818 3.56292 21.2563L4.16824 20.0683ZM19.5685 17.3879C19.5685 18.0139 19.5679 18.4432 19.5408 18.776C19.5142 19.101 19.4656 19.2747 19.4018 19.3999L20.5898 20.0052C20.7653 19.6607 20.8364 19.292 20.8697 18.8846C20.9023 18.4849 20.9018 17.9919 20.9018 17.3879H19.5685ZM16.7214 21.5683C17.3254 21.5683 17.8184 21.5688 18.2181 21.5362C18.6255 21.5029 18.9942 21.4318 19.3387 21.2563L18.7334 20.0683C18.6082 20.1321 18.4345 20.1807 18.1095 20.2073C17.7767 20.2345 17.3474 20.235 16.7214 20.235V21.5683ZM19.4018 19.3999C19.2551 19.6877 19.0212 19.9216 18.7334 20.0683L19.3387 21.2563C19.8774 20.9818 20.3153 20.5439 20.5898 20.0052L19.4018 19.3999ZM6.18023 2.66634C5.57627 2.66634 5.08321 2.66582 4.68356 2.69847C4.27613 2.73176 3.90745 2.80282 3.56292 2.97836L4.16824 4.16637C4.29348 4.10256 4.46716 4.05393 4.79214 4.02738C5.12489 4.00019 5.55427 3.99967 6.18023 3.99967V2.66634ZM3.33317 6.84673C3.33317 6.22077 3.33369 5.7914 3.36088 5.45864C3.38743 5.13367 3.43605 4.95999 3.49987 4.83475L2.31186 4.22943C2.13631 4.57396 2.06526 4.94264 2.03197 5.35007C1.99932 5.74971 1.99984 6.24277 1.99984 6.84673H3.33317ZM3.56292 2.97836C3.02426 3.25282 2.58632 3.69077 2.31186 4.22943L3.49987 4.83475C3.6465 4.54697 3.88047 4.313 4.16824 4.16637L3.56292 2.97836ZM20.9018 17.3879V13.2154H19.5685V17.3879H20.9018ZM12.7716 15.0966L21.8062 5.99885L20.8601 5.05933L11.8255 14.1571L12.7716 15.0966ZM11.2134 14.1571L7.53171 10.4497L6.58562 11.3892L10.2673 15.0966L11.2134 14.1571ZM11.8255 14.1571C11.6568 14.327 11.3821 14.327 11.2134 14.1571L10.2673 15.0966C10.9574 15.7916 12.0815 15.7916 12.7716 15.0966L11.8255 14.1571Z" fill="white"/>
</svg>
