<svg width="24" height="24" viewBox="0 0 24 24" fill="none" xmlns="http://www.w3.org/2000/svg">
<path d="M18.2786 14.5458L18.8886 14.815L18.8914 14.8084L18.2786 14.5458ZM18.5586 16.09L18.082 16.5562L18.0872 16.5614L18.5586 16.09ZM18.6095 16.1409L18.1381 16.6123L18.1384 16.6126L18.6095 16.1409ZM18.6095 18.5421L18.1384 18.0705L18.1379 18.071L18.6095 18.5421ZM16.2083 18.5421L16.68 18.071L16.6797 18.0707L16.2083 18.5421ZM16.1574 18.4912L16.6289 18.0198L16.6236 18.0147L16.1574 18.4912ZM14.6132 18.2112L14.8758 18.824L14.8823 18.8211L14.6132 18.2112ZM13.7647 19.4924L13.098 19.4898V19.4924H13.7647ZM10.3707 19.5603H11.0374V19.5525L11.0372 19.5447L10.3707 19.5603ZM10.1098 18.7786L10.6521 18.3908L10.1098 18.7786ZM9.45438 18.2791L9.18521 18.889L9.20449 18.8975L9.22426 18.9048L9.45438 18.2791ZM7.91014 18.5591L7.44394 18.0825L7.43873 18.0877L7.91014 18.5591ZM7.85923 18.61L7.38782 18.1386L7.38757 18.1389L7.85923 18.61ZM5.45802 18.61L5.92969 18.1389L5.92916 18.1384L5.45802 18.61ZM4.96032 17.4094L5.62699 17.4094L4.96032 17.4094ZM5.45802 16.2088L5.92916 16.6805L5.92943 16.6802L5.45802 16.2088ZM5.50893 16.1579L5.98037 16.6293L5.9855 16.6241L5.50893 16.1579ZM5.78893 14.6137L5.17613 14.8763L5.17902 14.8828L5.78893 14.6137ZM4.50772 13.7652L4.51038 13.0985H4.50772V13.7652ZM2.6665 12.0682H1.99984H2.6665ZM4.36347 10.3712V11.0379V10.3712ZM4.43984 10.3712V11.0379H4.44763L4.45543 11.0377L4.43984 10.3712ZM5.72105 9.45487L5.11114 9.18569L5.10263 9.20497L5.09536 9.22475L5.72105 9.45487ZM5.44105 7.91063L5.91765 7.44442L5.91246 7.43923L5.44105 7.91063ZM5.39014 7.85972L5.86155 7.38832L5.86128 7.38805L5.39014 7.85972ZM5.39014 5.45851L5.86128 5.93017L5.86181 5.92965L5.39014 5.45851ZM7.79135 5.45851L7.31969 5.92965L7.31995 5.92991L7.79135 5.45851ZM7.84226 5.50942L7.37083 5.98085L7.37609 5.98599L7.84226 5.50942ZM9.3865 5.78942V5.12275H9.24593L9.11733 5.17951L9.3865 5.78942ZM9.45438 5.78942V6.45608H9.59123L9.717 6.40218L9.45438 5.78942ZM10.3029 4.5082L10.9695 4.51086V4.5082H10.3029ZM11.9998 2.66699V2.00033V2.66699ZM13.6968 4.44033L13.0301 4.44033L13.0301 4.44298L13.6968 4.44033ZM14.5453 5.72154L14.8145 5.11159L14.8079 5.10878L14.5453 5.72154ZM16.0895 5.44154L16.5557 5.91814L16.5609 5.91294L16.0895 5.44154ZM16.1404 5.39063L16.6119 5.86203L16.6121 5.86177L16.1404 5.39063ZM17.3411 4.89293V5.5596V4.89293ZM18.5417 5.39063L18.07 5.86177L18.0705 5.8623L18.5417 5.39063ZM18.5417 7.79184L18.0705 7.32017L18.0703 7.32043L18.5417 7.79184ZM18.4907 7.84275L18.0193 7.37131L18.0142 7.37657L18.4907 7.84275ZM18.2108 9.38699H18.8774V9.24642L18.8207 9.11782L18.2108 9.38699ZM18.2108 9.45487H17.5441V9.59171L17.598 9.71749L18.2108 9.45487ZM19.492 10.3034L19.4893 10.97H19.492V10.3034ZM19.5598 13.6973L19.5598 13.0306L19.5572 13.0306L19.5598 13.6973ZM9.3335 11.3337C9.3335 10.9655 9.03502 10.667 8.66683 10.667C8.29864 10.667 8.00016 10.9655 8.00016 11.3337H9.3335ZM8.00016 14.0003C8.00016 14.3685 8.29864 14.667 8.66683 14.667C9.03502 14.667 9.3335 14.3685 9.3335 14.0003H8.00016ZM12.6668 8.66699C12.6668 8.2988 12.3684 8.00033 12.0002 8.00033C11.632 8.00033 11.3335 8.2988 11.3335 8.66699H12.6668ZM11.3335 14.0003C11.3335 14.3685 11.632 14.667 12.0002 14.667C12.3684 14.667 12.6668 14.3685 12.6668 14.0003H11.3335ZM16.0002 10.0003C16.0002 9.63214 15.7017 9.33366 15.3335 9.33366C14.9653 9.33366 14.6668 9.63214 14.6668 10.0003H16.0002ZM14.6668 14.0003C14.6668 14.3685 14.9653 14.667 15.3335 14.667C15.7017 14.667 16.0002 14.3685 16.0002 14.0003H14.6668ZM17.6687 14.2766C17.502 14.6544 17.4523 15.0735 17.5259 15.4798L18.8379 15.2419C18.8117 15.0977 18.8294 14.949 18.8885 14.815L17.6687 14.2766ZM17.5259 15.4798C17.5996 15.8861 17.7933 16.261 18.0821 16.5562L19.0352 15.6238C18.9327 15.5191 18.864 15.3861 18.8379 15.2419L17.5259 15.4798ZM18.0872 16.5614L18.1381 16.6123L19.0809 15.6695L19.03 15.6186L18.0872 16.5614ZM18.1384 16.6126C18.2342 16.7083 18.3102 16.8219 18.362 16.947L19.5937 16.4364C19.4748 16.1495 19.3004 15.8888 19.0807 15.6693L18.1384 16.6126ZM18.362 16.947C18.4139 17.0721 18.4406 17.2061 18.4406 17.3415H19.7739C19.7739 17.0309 19.7127 16.7233 19.5937 16.4364L18.362 16.947ZM18.4406 17.3415C18.4406 17.4769 18.4139 17.611 18.362 17.7361L19.5937 18.2467C19.7127 17.9597 19.7739 17.6522 19.7739 17.3415H18.4406ZM18.362 17.7361C18.3102 17.8612 18.2342 17.9748 18.1384 18.0705L19.0807 19.0138C19.3004 18.7943 19.4748 18.5336 19.5937 18.2467L18.362 17.7361ZM18.1379 18.071C18.0422 18.1668 17.9286 18.2428 17.8035 18.2946L18.3141 19.5263C18.601 19.4074 18.8617 19.233 19.0812 19.0133L18.1379 18.071ZM17.8035 18.2946C17.6784 18.3465 17.5443 18.3732 17.4089 18.3732V19.7065C17.7196 19.7065 18.0271 19.6453 18.3141 19.5263L17.8035 18.2946ZM17.4089 18.3732C17.2735 18.3732 17.1395 18.3465 17.0144 18.2946L16.5038 19.5263C16.7907 19.6453 17.0983 19.7065 17.4089 19.7065V18.3732ZM17.0144 18.2946C16.8893 18.2428 16.7757 18.1668 16.68 18.071L15.7367 19.0133C15.9562 19.2331 16.2169 19.4074 16.5038 19.5263L17.0144 18.2946ZM16.6797 18.0707L16.6288 18.0198L15.686 18.9626L15.7369 19.0135L16.6797 18.0707ZM16.6236 18.0147C16.3284 17.7259 15.9535 17.5322 15.5472 17.4585L15.3093 18.7705C15.4535 18.7966 15.5865 18.8654 15.6912 18.9678L16.6236 18.0147ZM15.5472 17.4585C15.1408 17.3849 14.7218 17.4346 14.344 17.6013L14.8823 18.8211C15.0164 18.762 15.1651 18.7443 15.3093 18.7705L15.5472 17.4585ZM14.3506 17.5985C13.9801 17.7572 13.6641 18.0209 13.4416 18.3569L14.5533 19.0931C14.6322 18.9739 14.7443 18.8803 14.8758 18.824L14.3506 17.5985ZM13.4416 18.3569C13.2191 18.693 13.0996 19.0867 13.098 19.4898L14.4313 19.4951C14.4319 19.3521 14.4743 19.2124 14.5533 19.0931L13.4416 18.3569ZM13.098 19.4924V19.6367H14.4314V19.4924H13.098ZM13.098 19.6367C13.098 19.9099 12.9895 20.172 12.7963 20.3652L13.7391 21.308C14.1823 20.8648 14.4314 20.2636 14.4314 19.6367H13.098ZM12.7963 20.3652C12.603 20.5584 12.341 20.667 12.0677 20.667V22.0003C12.6946 22.0003 13.2958 21.7513 13.7391 21.308L12.7963 20.3652ZM12.0677 20.667C11.7945 20.667 11.5324 20.5584 11.3392 20.3652L10.3964 21.308C10.8396 21.7513 11.4408 22.0003 12.0677 22.0003V20.667ZM11.3392 20.3652C11.146 20.172 11.0374 19.9099 11.0374 19.6367H9.70408C9.70408 20.2636 9.95311 20.8648 10.3964 21.308L11.3392 20.3652ZM11.0374 19.6367V19.5603H9.70408V19.6367H11.0374ZM11.0372 19.5447C11.0275 19.1302 10.8933 18.7281 10.6521 18.3908L9.5676 19.1665C9.65321 19.2861 9.70082 19.4288 9.70426 19.5759L11.0372 19.5447ZM10.6521 18.3908C10.4108 18.0535 10.0737 17.7966 9.6845 17.6534L9.22426 18.9048C9.36237 18.9556 9.482 19.0468 9.5676 19.1665L10.6521 18.3908ZM9.72356 17.6692C9.34578 17.5025 8.92671 17.4527 8.5204 17.5264L8.75828 18.8384C8.90246 18.8122 9.05116 18.8299 9.18521 18.889L9.72356 17.6692ZM8.5204 17.5264C8.11409 17.6001 7.73916 17.7938 7.44396 18.0825L8.37632 19.0357C8.48106 18.9332 8.6141 18.8645 8.75828 18.8384L8.5204 17.5264ZM7.43873 18.0877L7.38782 18.1386L8.33065 19.0814L8.38156 19.0305L7.43873 18.0877ZM7.38757 18.1389C7.29188 18.2347 7.17825 18.3107 7.05317 18.3625L7.56376 19.5942C7.8507 19.4753 8.11138 19.3009 8.3309 19.0812L7.38757 18.1389ZM7.05317 18.3625C6.92809 18.4144 6.79402 18.4411 6.65863 18.4411V19.7744C6.96925 19.7744 7.27682 19.7132 7.56376 19.5942L7.05317 18.3625ZM6.65863 18.4411C6.52323 18.4411 6.38916 18.4144 6.26408 18.3625L5.75349 19.5942C6.04043 19.7132 6.34801 19.7744 6.65863 19.7744V18.4411ZM6.26408 18.3625C6.139 18.3107 6.02537 18.2347 5.92969 18.1389L4.98635 19.0812C5.20587 19.3009 5.46656 19.4753 5.75349 19.5942L6.26408 18.3625ZM5.92916 18.1384C5.83337 18.0427 5.75737 17.929 5.70552 17.804L4.47383 18.3145C4.59278 18.6015 4.76712 18.8622 4.98688 19.0817L5.92916 18.1384ZM5.70552 17.804C5.65368 17.6789 5.62699 17.5448 5.62699 17.4094H4.29365C4.29365 17.72 4.35488 18.0276 4.47383 18.3145L5.70552 17.804ZM5.62699 17.4094C5.62699 17.274 5.65368 17.1399 5.70552 17.0149L4.47383 16.5043C4.35488 16.7912 4.29365 17.0988 4.29365 17.4094L5.62699 17.4094ZM5.70552 17.0149C5.75737 16.8898 5.83337 16.7762 5.92916 16.6805L4.98688 15.7371C4.76712 15.9567 4.59278 16.2173 4.47383 16.5043L5.70552 17.0149ZM5.92943 16.6802L5.98034 16.6293L5.03752 15.6865L4.98661 15.7374L5.92943 16.6802ZM5.9855 16.6241C6.27426 16.3289 6.46796 15.954 6.54163 15.5476L5.22969 15.3098C5.20355 15.4539 5.13481 15.587 5.03235 15.6917L5.9855 16.6241ZM6.54163 15.5476C6.6153 15.1413 6.56557 14.7223 6.39884 14.3445L5.17902 14.8828C5.23818 15.0169 5.25583 15.1656 5.22969 15.3098L6.54163 15.5476ZM6.40169 14.351C6.24292 13.9806 5.97928 13.6646 5.64324 13.4421L4.90704 14.5538C5.02628 14.6327 5.11983 14.7448 5.17617 14.8763L6.40169 14.351ZM5.64324 13.4421C5.3072 13.2195 4.91342 13.1001 4.51038 13.0985L4.50506 14.4318C4.64807 14.4324 4.7878 14.4748 4.90704 14.5538L5.64324 13.4421ZM4.50772 13.0985H4.36347V14.4318H4.50772V13.0985ZM4.36347 13.0985C4.09022 13.0985 3.82816 12.99 3.63494 12.7967L2.69213 13.7395C3.1354 14.1828 3.7366 14.4318 4.36347 14.4318V13.0985ZM3.63494 12.7967C3.44172 12.6035 3.33317 12.3415 3.33317 12.0682H1.99984C1.99984 12.6951 2.24886 13.2963 2.69213 13.7395L3.63494 12.7967ZM3.33317 12.0682C3.33317 11.795 3.44172 11.5329 3.63494 11.3397L2.69213 10.3969C2.24886 10.8401 1.99984 11.4413 1.99984 12.0682H3.33317ZM3.63494 11.3397C3.82816 11.1465 4.09022 11.0379 4.36347 11.0379L4.36347 9.70457C3.7366 9.70457 3.1354 9.95359 2.69213 10.3969L3.63494 11.3397ZM4.36347 11.0379H4.43984V9.70457H4.36347V11.0379ZM4.45543 11.0377C4.87001 11.028 5.27208 10.8938 5.60938 10.6526L4.83371 9.56809C4.71403 9.65369 4.57136 9.70131 4.42425 9.70475L4.45543 11.0377ZM5.60938 10.6526C5.94668 10.4113 6.2036 10.0742 6.34674 9.68499L5.09536 9.22475C5.04457 9.36285 4.9534 9.48248 4.83371 9.56809L5.60938 10.6526ZM6.33096 9.72405C6.49769 9.34627 6.54742 8.9272 6.47375 8.52089L5.16181 8.75877C5.18795 8.90294 5.1703 9.05164 5.11114 9.18569L6.33096 9.72405ZM6.47375 8.52089C6.40008 8.11457 6.20638 7.73965 5.91763 7.44445L4.96448 8.37681C5.06694 8.48155 5.13567 8.61459 5.16181 8.75877L6.47375 8.52089ZM5.91246 7.43923L5.86155 7.38832L4.91873 8.33112L4.96964 8.38203L5.91246 7.43923ZM5.86128 7.38805C5.76549 7.29236 5.68949 7.17873 5.63765 7.05366L4.40595 7.56425C4.5249 7.85119 4.69924 8.11187 4.919 8.33139L5.86128 7.38805ZM5.63765 7.05366C5.5858 6.92858 5.55911 6.79451 5.55911 6.65911H4.22578C4.22578 6.96973 4.287 7.2773 4.40595 7.56425L5.63765 7.05366ZM5.55911 6.65911C5.55911 6.52372 5.5858 6.38965 5.63765 6.26457L4.40595 5.75398C4.287 6.04092 4.22578 6.3485 4.22578 6.65911H5.55911ZM5.63765 6.26457C5.68949 6.13949 5.76549 6.02586 5.86128 5.93017L4.919 4.98684C4.69924 5.20636 4.5249 5.46704 4.40595 5.75398L5.63765 6.26457ZM5.86181 5.92965C5.9575 5.83386 6.07113 5.75786 6.1962 5.70601L5.68562 4.47431C5.39867 4.59326 5.13799 4.7676 4.91848 4.98737L5.86181 5.92965ZM6.1962 5.70601C6.32128 5.65416 6.45535 5.62748 6.59075 5.62748V4.29414C6.28013 4.29414 5.97256 4.35537 5.68562 4.47431L6.1962 5.70601ZM6.59075 5.62748C6.72615 5.62748 6.86022 5.65416 6.98529 5.70601L7.49588 4.47431C7.20894 4.35537 6.90137 4.29414 6.59075 4.29414V5.62748ZM6.98529 5.70601C7.11037 5.75786 7.224 5.83386 7.31969 5.92965L8.26302 4.98737C8.0435 4.7676 7.78282 4.59326 7.49588 4.47431L6.98529 5.70601ZM7.31995 5.92991L7.37086 5.98082L8.31367 5.03802L8.26276 4.98711L7.31995 5.92991ZM7.37609 5.98599C7.67128 6.27475 8.04621 6.46845 8.45252 6.54212L8.6904 5.23018C8.54622 5.20403 8.41319 5.1353 8.30844 5.03284L7.37609 5.98599ZM8.45252 6.54212C8.85883 6.61579 9.2779 6.56605 9.65568 6.39932L9.11733 5.17951C8.98328 5.23867 8.83458 5.25632 8.6904 5.23018L8.45252 6.54212ZM9.3865 6.45608H9.45438V5.12275H9.3865V6.45608ZM9.717 6.40218C10.0875 6.2434 10.4034 5.97977 10.626 5.64373L9.51429 4.90753C9.43533 5.02677 9.32322 5.12032 9.19176 5.17666L9.717 6.40218ZM10.626 5.64373C10.8485 5.30769 10.9679 4.91391 10.9695 4.51086L9.63621 4.50555C9.63564 4.64856 9.59326 4.78829 9.51429 4.90753L10.626 5.64373ZM10.9695 4.5082V4.36396H9.6362V4.5082H10.9695ZM10.9695 4.36396C10.9695 4.09071 11.0781 3.82865 11.2713 3.63543L10.3285 2.69262C9.88523 3.13589 9.6362 3.73709 9.6362 4.36396H10.9695ZM11.2713 3.63543C11.4645 3.44221 11.7266 3.33366 11.9998 3.33366V2.00033C11.373 2.00033 10.7718 2.24935 10.3285 2.69262L11.2713 3.63543ZM11.9998 3.33366C12.2731 3.33366 12.5352 3.44221 12.7284 3.63543L13.6712 2.69262C13.2279 2.24935 12.6267 2.00033 11.9998 2.00033V3.33366ZM12.7284 3.63543C12.9216 3.82865 13.0301 4.09071 13.0301 4.36396H14.3635C14.3635 3.73709 14.1144 3.13589 13.6712 2.69262L12.7284 3.63543ZM13.0301 4.36396V4.44033H14.3635V4.36396H13.0301ZM13.0301 4.44298C13.0318 4.84603 13.1512 5.23981 13.3737 5.57585L14.4854 4.83965C14.4064 4.72041 14.364 4.58068 14.3635 4.43767L13.0301 4.44298ZM13.3737 5.57585C13.5963 5.91189 13.9122 6.17552 14.2827 6.3343L14.8079 5.10878C14.6765 5.05244 14.5644 4.95889 14.4854 4.83965L13.3737 5.57585ZM14.2761 6.33145C14.6539 6.49818 15.073 6.54791 15.4793 6.47424L15.2414 5.1623C15.0972 5.18844 14.9485 5.17079 14.8145 5.11163L14.2761 6.33145ZM15.4793 6.47424C15.8856 6.40057 16.2605 6.20687 16.5557 5.91811L15.6234 4.96496C15.5186 5.06742 15.3856 5.13616 15.2414 5.1623L15.4793 6.47424ZM16.5609 5.91294L16.6119 5.86203L15.669 4.91923L15.6181 4.97014L16.5609 5.91294ZM16.6121 5.86177C16.7078 5.76598 16.8214 5.68998 16.9465 5.63813L16.4359 4.40644C16.149 4.52538 15.8883 4.69972 15.6688 4.91949L16.6121 5.86177ZM16.9465 5.63813C17.0716 5.58628 17.2057 5.5596 17.3411 5.5596V4.22626C17.0304 4.22626 16.7229 4.28749 16.4359 4.40644L16.9465 5.63813ZM17.3411 5.5596C17.4765 5.5596 17.6105 5.58628 17.7356 5.63813L18.2462 4.40644C17.9592 4.28749 17.6517 4.22626 17.3411 4.22626V5.5596ZM17.7356 5.63813C17.8607 5.68998 17.9743 5.76598 18.07 5.86177L19.0133 4.91949C18.7938 4.69972 18.5331 4.52538 18.2462 4.40644L17.7356 5.63813ZM18.0705 5.8623C18.1663 5.95798 18.2423 6.07161 18.2942 6.19669L19.5259 5.6861C19.4069 5.39916 19.2326 5.13848 19.0128 4.91896L18.0705 5.8623ZM18.2942 6.19669C18.346 6.32177 18.3727 6.45584 18.3727 6.59123H19.706C19.706 6.28061 19.6448 5.97304 19.5259 5.6861L18.2942 6.19669ZM18.3727 6.59123C18.3727 6.72663 18.346 6.8607 18.2942 6.98578L19.5259 7.49637C19.6448 7.20943 19.706 6.90186 19.706 6.59123H18.3727ZM18.2942 6.98578C18.2423 7.11086 18.1663 7.22449 18.0705 7.32017L19.0128 8.26351C19.2326 8.04399 19.4069 7.7833 19.5259 7.49637L18.2942 6.98578ZM18.0703 7.32043L18.0194 7.37134L18.9621 8.31416L19.0131 8.26325L18.0703 7.32043ZM18.0142 7.37657C17.7254 7.67177 17.5317 8.0467 17.458 8.45301L18.77 8.69089C18.7961 8.54671 18.8649 8.41367 18.9673 8.30893L18.0142 7.37657ZM17.458 8.45301C17.3844 8.85932 17.4341 9.27839 17.6008 9.65617L18.8207 9.11782C18.7615 8.98376 18.7438 8.83506 18.77 8.69089L17.458 8.45301ZM17.5441 9.38699V9.45487H18.8774V9.38699H17.5441ZM17.598 9.71749C17.7568 10.088 18.0204 10.4039 18.3564 10.6264L19.0926 9.51478C18.9734 9.43581 18.8798 9.3237 18.8235 9.19225L17.598 9.71749ZM18.3564 10.6264C18.6925 10.849 19.0863 10.9684 19.4893 10.97L19.4946 9.63669C19.3516 9.63612 19.2119 9.59375 19.0926 9.51478L18.3564 10.6264ZM19.492 10.97H19.6362V9.63669H19.492V10.97ZM19.6362 10.97C19.9095 10.97 20.1715 11.0786 20.3647 11.2718L21.3076 10.329C20.8643 9.88571 20.2631 9.63669 19.6362 9.63669V10.97ZM20.3647 11.2718C20.558 11.465 20.6665 11.7271 20.6665 12.0003H21.9998C21.9998 11.3735 21.7508 10.7723 21.3076 10.329L20.3647 11.2718ZM20.6665 12.0003C20.6665 12.2736 20.558 12.5356 20.3647 12.7289L21.3076 13.6717C21.7508 13.2284 21.9998 12.6272 21.9998 12.0003H20.6665ZM20.3647 12.7289C20.1715 12.9221 19.9095 13.0306 19.6362 13.0306V14.364C20.2631 14.364 20.8643 14.1149 21.3076 13.6717L20.3647 12.7289ZM19.6362 13.0306H19.5598V14.364H19.6362V13.0306ZM19.5572 13.0306C19.1541 13.0322 18.7604 13.1517 18.4243 13.3742L19.1605 14.4859C19.2798 14.4069 19.4195 14.3645 19.5625 14.364L19.5572 13.0306ZM18.4243 13.3742C18.0883 13.5968 17.8246 13.9127 17.6659 14.2832L18.8914 14.8084C18.9477 14.677 19.0413 14.5648 19.1605 14.4859L18.4243 13.3742ZM8.00016 11.3337V14.0003H9.3335V11.3337H8.00016ZM11.3335 8.66699V14.0003H12.6668V8.66699H11.3335ZM14.6668 10.0003V14.0003H16.0002V10.0003H14.6668Z" fill="white"/>
</svg>
