<svg width="24" height="24" viewBox="0 0 24 24" fill="none" xmlns="http://www.w3.org/2000/svg">
<path d="M9.49984 12.0554C9.49984 12.4236 9.79831 12.7221 10.1665 12.7221C10.5347 12.7221 10.8332 12.4236 10.8332 12.0554H9.49984ZM10.8332 8.49989C10.8332 8.1317 10.5347 7.83323 10.1665 7.83323C9.79831 7.83323 9.49984 8.1317 9.49984 8.49989H10.8332ZM13.0554 15.611C13.0554 15.9792 13.3539 16.2777 13.7221 16.2777C14.0903 16.2777 14.3887 15.9792 14.3887 15.611L13.0554 15.611ZM14.3887 8.49989C14.3887 8.1317 14.0903 7.83322 13.7221 7.83323C13.3539 7.83323 13.0554 8.1317 13.0554 8.49989L14.3887 8.49989ZM16.6109 15.611C16.6109 15.9792 16.9094 16.2777 17.2776 16.2777C17.6458 16.2777 17.9443 15.9792 17.9443 15.611H16.6109ZM17.9443 10.2777C17.9443 9.90948 17.6458 9.611 17.2776 9.611C16.9094 9.611 16.6109 9.90948 16.6109 10.2777H17.9443ZM2.38873 10.2777C2.38873 10.6459 2.6872 10.9443 3.05539 10.9443C3.42358 10.9443 3.72206 10.6459 3.72206 10.2777H2.38873ZM11.9443 18.4999C11.5761 18.4999 11.2776 18.7984 11.2776 19.1666C11.2776 19.5347 11.5761 19.8332 11.9443 19.8332V18.4999ZM6.83317 14.7221C6.83317 15.3358 6.33571 15.8332 5.72206 15.8332V17.1666C7.07209 17.1666 8.1665 16.0721 8.1665 14.7221H6.83317ZM5.72206 15.8332C5.10841 15.8332 4.61095 15.3358 4.61095 14.7221H3.27762C3.27762 16.0721 4.37203 17.1666 5.72206 17.1666V15.8332ZM4.61095 14.7221C4.61095 14.1085 5.10841 13.611 5.72206 13.611V12.2777C4.37203 12.2777 3.27762 13.3721 3.27762 14.7221H4.61095ZM5.72206 13.611C6.33571 13.611 6.83317 14.1085 6.83317 14.7221H8.1665C8.1665 13.3721 7.07209 12.2777 5.72206 12.2777V13.611ZM9.27304 19.3888H2.17108V20.7221H9.27304V19.3888ZM8.61095 20.0509C8.61095 19.6852 8.9074 19.3888 9.27304 19.3888V20.7221C9.64374 20.7221 9.94428 20.4216 9.94428 20.0509H8.61095ZM5.72206 17.1666C7.31614 17.1666 8.61095 18.459 8.61095 20.0509H9.94428C9.94428 17.7204 8.05028 15.8332 5.72206 15.8332V17.1666ZM2.83317 20.0509C2.83317 18.459 4.12798 17.1666 5.72206 17.1666V15.8332C3.39384 15.8332 1.49984 17.7204 1.49984 20.0509H2.83317ZM1.49984 20.0509C1.49984 20.4216 1.80036 20.7221 2.17108 20.7221V19.3888C2.53674 19.3888 2.83317 19.6852 2.83317 20.0509H1.49984ZM10.8332 12.0554V8.49989H9.49984V12.0554H10.8332ZM14.3887 15.611L14.3887 8.49989L13.0554 8.49989L13.0554 15.611L14.3887 15.611ZM17.9443 15.611V10.2777H16.6109V15.611H17.9443ZM4.83317 5.611H19.0554V4.27767H4.83317V5.611ZM20.1665 6.72211V17.3888H21.4998V6.72211H20.1665ZM20.1665 17.3888C20.1665 18.0024 19.669 18.4999 19.0554 18.4999V19.8332C20.4054 19.8332 21.4998 18.7388 21.4998 17.3888H20.1665ZM19.0554 5.611C19.669 5.611 20.1665 6.10846 20.1665 6.72211H21.4998C21.4998 5.37208 20.4054 4.27767 19.0554 4.27767V5.611ZM4.83317 4.27767C3.48314 4.27767 2.38873 5.37208 2.38873 6.72211H3.72206C3.72206 6.10846 4.21952 5.611 4.83317 5.611V4.27767ZM3.72206 10.2777V6.72211H2.38873V10.2777H3.72206ZM19.0554 18.4999H11.9443V19.8332H19.0554V18.4999Z" fill="white" fill-opacity="0.85"/>
</svg>
