<svg width="170" height="32" viewBox="0 0 170 32" fill="none" xmlns="http://www.w3.org/2000/svg">
<path d="M25.4619 31.2509V0H19.3435V20.0966L6.91849 0H0V31.2509H6.07133V10.2601L19.4377 31.2509H25.4619Z" fill="white"/>
<path d="M48.7975 31.2509V8.0951H42.7261V21.4614C42.7261 24.5206 41.0789 26.7327 37.9726 26.7327C35.3841 26.7327 34.0663 25.3207 34.0663 22.4027V8.0951H27.9479V23.344C27.9479 28.427 31.1953 31.8627 35.8077 31.8627C39.008 31.8627 41.4083 30.639 43.0085 28.0034V31.2509H48.7975Z" fill="white"/>
<path d="M62.8698 26.7327C59.1517 26.7327 57.2691 24.3794 57.2691 19.673C57.2691 14.9665 59.1517 12.6604 62.8698 12.6604C66.5879 12.6604 68.4705 14.9665 68.4705 19.673C68.4705 24.3794 66.5879 26.7327 62.8698 26.7327ZM62.8698 31.8627C70.0706 31.8627 74.6359 27.015 74.6359 19.673C74.6359 12.2838 70.1177 7.48326 62.8698 7.48326C55.5277 7.48326 50.9624 12.3309 50.9624 19.673C50.9624 26.8739 55.3865 31.8627 62.8698 31.8627Z" fill="white"/>
<path d="M83.0632 25.9326V5.41242H87.9108C94.1704 5.41242 96.6178 8.23629 96.6178 15.296C96.6178 22.3557 94.1704 25.9326 88.4756 25.9326H83.0632ZM89.7934 31.2509C97.8885 31.2509 103.301 24.803 103.301 15.296C103.301 5.78894 97.2767 0 88.8051 0H76.7095V31.2509H89.7934Z" fill="#E74860"/>
<path d="M118.866 22.4498C118.819 25.1795 116.466 27.4857 113.313 27.4857C111.383 27.4857 110.348 26.6385 110.348 24.8971C110.348 22.9204 111.477 21.9321 114.96 21.2732C117.219 20.8496 118.302 20.5201 118.913 19.9083L118.866 22.4498ZM125.032 31.2509V16.6138C125.032 10.7778 122.49 7.48326 115.148 7.48326C107.712 7.48326 105.077 10.8248 104.982 15.6254H110.677C110.96 13.5546 112.089 12.1897 114.866 12.1897C117.266 12.1897 118.772 13.0839 118.772 14.59C118.772 16.1902 117.925 16.802 114.866 17.2256C108.7 18.0728 104.229 18.8258 104.229 25.509C104.229 29.2741 106.677 31.8627 111.948 31.8627C115.054 31.8627 117.502 30.7802 118.961 29.18C119.008 29.886 119.149 30.6861 119.337 31.2509H125.032Z" fill="#E74860"/>
<path d="M140.861 22.0262C140.861 24.8971 139.731 26.5444 137.284 26.5444C134.79 26.5444 133.754 24.8501 133.754 21.9321V12.425H146.556V8.0951H133.754V1.83552H127.73V22.5439C127.73 27.5328 130.413 31.8627 137.19 31.8627C143.732 31.8627 146.556 27.4857 146.556 22.591V16.0019H140.861V22.0262Z" fill="#E74860"/>
<path d="M163.081 22.4498C163.034 25.1795 160.681 27.4857 157.528 27.4857C155.598 27.4857 154.563 26.6385 154.563 24.8971C154.563 22.9204 155.692 21.9321 159.175 21.2732C161.434 20.8496 162.517 20.5201 163.128 19.9083L163.081 22.4498ZM169.247 31.2509V16.6138C169.247 10.7778 166.705 7.48326 159.363 7.48326C151.927 7.48326 149.291 10.8248 149.197 15.6254H154.892C155.175 13.5546 156.304 12.1897 159.081 12.1897C161.481 12.1897 162.987 13.0839 162.987 14.59C162.987 16.1902 162.14 16.802 159.081 17.2256C152.915 18.0728 148.444 18.8258 148.444 25.509C148.444 29.2741 150.892 31.8627 156.163 31.8627C159.269 31.8627 161.716 30.7802 163.175 29.18C163.223 29.886 163.364 30.6861 163.552 31.2509H169.247Z" fill="#E74860"/>
</svg>
