<svg width="34" height="28" viewBox="0 0 34 28" fill="none" xmlns="http://www.w3.org/2000/svg">
<path d="M21.9895 17.5387L21.9895 6.61968M27.4947 17.5387V9.34944M5.4737 9.34944V3.88992C5.4737 2.38231 6.70609 1.16016 8.22633 1.16016H30.2474C31.7676 1.16016 33 2.38231 33 3.88992V20.2685C33 21.7761 31.7676 22.9982 30.2474 22.9982H19.2369M8.22566 26.6847V14.2709M8.22566 26.6847C8.22566 26.7407 8.28687 26.7772 8.3389 26.7521L9.64519 26.1231C11.0259 25.4583 12.6511 25.4583 14.0318 26.1231C14.684 26.4371 15.4513 25.9804 15.4513 25.2782V14.2709C15.4513 13.9488 15.2938 13.6455 15.0263 13.4522C13.1372 12.0878 10.5398 12.0878 8.65069 13.4522C8.38313 13.6455 8.22566 13.9488 8.22566 14.2709M8.22566 26.6847C8.22566 26.7407 8.16444 26.7772 8.11241 26.7521L6.80612 26.1231C5.42541 25.4583 3.80024 25.4583 2.41953 26.1231C1.76735 26.4371 1 25.9804 1 25.2782V14.2709C1 13.9488 1.15747 13.6455 1.42504 13.4522C3.3141 12.0878 5.91156 12.0878 7.80062 13.4522C8.06819 13.6455 8.22566 13.9488 8.22566 14.2709" stroke="#E74860" stroke-width="2" stroke-linecap="round"/>
</svg>
