<svg width="28" height="30" viewBox="0 0 28 30" fill="none" xmlns="http://www.w3.org/2000/svg">
<path d="M26.8491 25.6636L27.5755 25.4771L26.8491 25.6636ZM26.5084 24.3367L25.782 24.5232V24.5232L26.5084 24.3367ZM1.63295 24.3367L0.906509 24.1502H0.906509L1.63295 24.3367ZM1.29233 25.6636L2.01878 25.8501H2.01878L1.29233 25.6636ZM2.81903 22.4561L2.53502 21.762H2.53502L2.81903 22.4561ZM2.11544 22.9911L2.71 23.4483H2.71L2.11544 22.9911ZM26.026 22.9911L25.4314 23.4483V23.4483L26.026 22.9911ZM25.3224 22.4561L25.6064 21.762L25.3224 22.4561ZM26.3968 28.7209L26.0156 28.0749L26.3968 28.7209ZM27.1414 27.7921L27.8563 28.019H27.8563L27.1414 27.7921ZM1.74463 28.7209L2.12576 28.0749H2.12576L1.74463 28.7209ZM1 27.7921L1.71486 27.5652H1.71486L1 27.7921ZM12.8521 1.35856L12.5237 0.68425L12.8521 1.35856ZM2.88315 6.21269L3.21149 6.887L2.88315 6.21269ZM1.66451 9.77303L0.997308 10.1156H0.997308L1.66451 9.77303ZM1.96068 10.3499L2.62788 10.0073H2.62788L1.96068 10.3499ZM26.1807 10.3499L25.5135 10.0073L25.5135 10.0073L26.1807 10.3499ZM26.4769 9.77303L25.8097 9.43047V9.43047L26.4769 9.77303ZM25.2583 6.21269L25.5866 5.53838L25.2583 6.21269ZM15.2893 1.35856L15.6177 0.68425V0.68425L15.2893 1.35856ZM27.1136 8.12861L27.8636 8.12277V8.12277L27.1136 8.12861ZM26.7808 7.15616L26.1831 7.60922V7.60923L26.7808 7.15616ZM1.36062 7.15616L0.762929 6.7031L0.762929 6.7031L1.36062 7.15616ZM1.02776 8.12861L0.277787 8.12277V8.12277L1.02776 8.12861ZM25.8681 10.694L25.6293 9.98299L25.6293 9.98299L25.8681 10.694ZM26.0272 10.5982L26.5449 11.1409L26.5449 11.1409L26.0272 10.5982ZM2.27328 10.694L2.5121 9.98299H2.5121L2.27328 10.694ZM2.11419 10.5982L1.59654 11.1409L1.59654 11.1409L2.11419 10.5982ZM13.7567 0.989379L13.6219 0.251593L13.7567 0.989379ZM14.3848 0.989379L14.5196 0.251593L14.3848 0.989379ZM4.80518 20.6681C4.80518 21.0823 5.14097 21.4181 5.55518 21.4181C5.96939 21.4181 6.30518 21.0823 6.30518 20.6681H4.80518ZM6.30518 10.7166C6.30518 10.3024 5.96939 9.96662 5.55518 9.96662C5.14097 9.96662 4.80518 10.3024 4.80518 10.7166H6.30518ZM13.3207 20.6681C13.3207 21.0823 13.6565 21.4181 14.0707 21.4181C14.4849 21.4181 14.8207 21.0823 14.8207 20.6681H13.3207ZM14.8207 12.3752C14.8207 11.961 14.4849 11.6252 14.0707 11.6252C13.6565 11.6252 13.3207 11.961 13.3207 12.3752H14.8207ZM21.8362 20.6681C21.8362 21.0823 22.172 21.4181 22.5862 21.4181C23.0004 21.4181 23.3362 21.0823 23.3362 20.6681H21.8362ZM23.3362 12.3752C23.3362 11.961 23.0004 11.6252 22.5862 11.6252C22.172 11.6252 21.8362 11.961 21.8362 12.3752H23.3362ZM3.93594 29.7109H24.2055V28.2109H3.93594V29.7109ZM27.5755 25.4771L27.2349 24.1502L25.782 24.5232L26.1226 25.8501L27.5755 25.4771ZM23.8648 21.5766H4.27656V23.0766H23.8648V21.5766ZM0.906509 24.1502L0.565887 25.4771L2.01878 25.8501L2.3594 24.5232L0.906509 24.1502ZM4.27656 21.5766C3.58404 21.5766 3.0214 21.563 2.53502 21.762L3.10304 23.1503C3.24955 23.0903 3.44764 23.0766 4.27656 23.0766V21.5766ZM2.3594 24.5232C2.56133 23.7366 2.62072 23.5644 2.71 23.4483L1.52087 22.5339C1.1987 22.953 1.07358 23.4994 0.906509 24.1502L2.3594 24.5232ZM2.53502 21.762C2.13486 21.9257 1.78425 22.1914 1.52087 22.5339L2.71 23.4483C2.80966 23.3186 2.9448 23.215 3.10304 23.1503L2.53502 21.762ZM27.2349 24.1503C27.0678 23.4994 26.9427 22.953 26.6205 22.5339L25.4314 23.4483C25.5207 23.5644 25.5801 23.7366 25.782 24.5232L27.2349 24.1503ZM23.8648 23.0766C24.6938 23.0766 24.8918 23.0903 25.0384 23.1503L25.6064 21.762C25.12 21.563 24.5574 21.5766 23.8648 21.5766V23.0766ZM26.6205 22.5339C26.3572 22.1914 26.0065 21.9257 25.6064 21.762L25.0384 23.1503C25.1966 23.215 25.3317 23.3186 25.4314 23.4483L26.6205 22.5339ZM24.2055 29.7109C24.7869 29.7109 25.271 29.7116 25.6591 29.6782C26.0519 29.6443 26.4329 29.5704 26.7779 29.3668L26.0156 28.0749C25.9538 28.1114 25.8339 28.1575 25.5303 28.1837C25.2218 28.2103 24.8137 28.2109 24.2055 28.2109V29.7109ZM26.1226 25.8501C26.2704 26.4257 26.3679 26.8086 26.4158 27.1035C26.4627 27.3926 26.4448 27.5076 26.4265 27.5652L27.8563 28.019C27.9784 27.6341 27.9587 27.2468 27.8964 26.8632C27.8351 26.4855 27.7163 26.0254 27.5755 25.4771L26.1226 25.8501ZM26.7779 29.3668C27.2905 29.0644 27.6762 28.5862 27.8563 28.019L26.4265 27.5652C26.3603 27.7738 26.2162 27.9566 26.0156 28.0749L26.7779 29.3668ZM3.93594 28.2109C3.32771 28.2109 2.91964 28.2103 2.61111 28.1837C2.30746 28.1575 2.18762 28.1114 2.12576 28.0749L1.3635 29.3668C1.70848 29.5704 2.08947 29.6443 2.48235 29.6782C2.87036 29.7116 3.35452 29.7109 3.93594 29.7109V28.2109ZM0.565887 25.4771C0.425134 26.0254 0.306274 26.4855 0.244977 26.8632C0.182735 27.2468 0.16298 27.6341 0.285137 28.019L1.71486 27.5652C1.69656 27.5076 1.6787 27.3926 1.72561 27.1035C1.77346 26.8086 1.871 26.4257 2.01878 25.8501L0.565887 25.4771ZM2.12576 28.0749C1.92519 27.9566 1.78106 27.7738 1.71486 27.5652L0.285137 28.019C0.465164 28.5862 0.850918 29.0644 1.3635 29.3668L2.12576 28.0749ZM2.57 11.4666H25.5714V9.96662H2.57V11.4666ZM12.5237 0.68425L2.55481 5.53838L3.21149 6.887L13.1804 2.03287L12.5237 0.68425ZM0.997308 10.1156L1.29348 10.6924L2.62788 10.0073L2.33171 9.43047L0.997308 10.1156ZM26.8479 10.6924L27.1441 10.1156L25.8097 9.43047L25.5135 10.0073L26.8479 10.6924ZM25.5866 5.53838L15.6177 0.68425L14.961 2.03287L24.9299 6.887L25.5866 5.53838ZM27.1441 10.1156C27.3516 9.7114 27.5288 9.36767 27.6497 9.07468C27.7739 8.77361 27.8663 8.46401 27.8636 8.12277L26.3637 8.13446C26.3641 8.19139 26.3514 8.28859 26.2631 8.50248C26.1715 8.72444 26.0287 9.00383 25.8097 9.43047L27.1441 10.1156ZM24.9299 6.887C25.3675 7.10006 25.6554 7.24088 25.867 7.36585C26.0716 7.48673 26.1455 7.55965 26.1831 7.60922L27.3785 6.7031C27.1732 6.43231 26.9124 6.2412 26.6298 6.07429C26.3541 5.91147 26.0022 5.74073 25.5866 5.53838L24.9299 6.887ZM27.8636 8.12277C27.8596 7.60928 27.6887 7.11234 27.3785 6.7031L26.1831 7.60923C26.3001 7.76357 26.3622 7.94746 26.3637 8.13446L27.8636 8.12277ZM2.55481 5.53838C2.13925 5.74073 1.7873 5.91147 1.51162 6.0743C1.22901 6.24121 0.96819 6.43231 0.762929 6.7031L1.95831 7.60923C1.99588 7.55965 2.06976 7.48673 2.27443 7.36585C2.48602 7.24088 2.77392 7.10006 3.21149 6.887L2.55481 5.53838ZM2.33171 9.43047C2.11266 9.00383 1.9699 8.72444 1.8783 8.50248C1.79003 8.28859 1.7773 8.19139 1.77774 8.13446L0.277787 8.12277C0.275127 8.46401 0.367484 8.77361 0.491723 9.07468C0.612632 9.36767 0.789794 9.7114 0.997308 10.1156L2.33171 9.43047ZM0.762929 6.7031C0.452715 7.11234 0.28179 7.60928 0.277787 8.12277L1.77774 8.13446C1.7792 7.94746 1.84131 7.76357 1.95831 7.60922L0.762929 6.7031ZM25.5714 11.4666C25.6711 11.4666 25.8955 11.476 26.1069 11.4049L25.6293 9.98299C25.6809 9.96566 25.7165 9.96454 25.7063 9.96516C25.7004 9.96552 25.688 9.96603 25.6638 9.96632C25.6395 9.96661 25.6109 9.96662 25.5714 9.96662V11.4666ZM25.5135 10.0073C25.4958 10.0418 25.4832 10.0664 25.4722 10.0872C25.4613 10.1078 25.4557 10.1176 25.4532 10.1217C25.451 10.1254 25.455 10.1183 25.4645 10.1058C25.4748 10.0921 25.4898 10.0743 25.5096 10.0555L26.5449 11.1409C26.7093 10.9841 26.8043 10.7774 26.8479 10.6924L25.5135 10.0073ZM26.1069 11.4049C26.2697 11.3503 26.4195 11.2605 26.5449 11.1409L25.5096 10.0555C25.5448 10.0219 25.5859 9.99757 25.6293 9.98299L26.1069 11.4049ZM2.57 9.96662C2.53051 9.96662 2.50192 9.96661 2.47759 9.96632C2.45338 9.96603 2.44104 9.96552 2.43509 9.96516C2.42491 9.96454 2.4605 9.96566 2.5121 9.98299L2.03446 11.4049C2.24594 11.476 2.47034 11.4666 2.57 11.4666V9.96662ZM1.29348 10.6924C1.33711 10.7774 1.4321 10.9841 1.59654 11.1409L2.63184 10.0555C2.65158 10.0743 2.66659 10.0921 2.67693 10.1058C2.68641 10.1183 2.69038 10.1254 2.68819 10.1217C2.68573 10.1176 2.68014 10.1078 2.66922 10.0872C2.65823 10.0664 2.64558 10.0418 2.62788 10.0073L1.29348 10.6924ZM2.5121 9.98299C2.55549 9.99757 2.5966 10.0219 2.63184 10.0555L1.59654 11.1409C1.72196 11.2605 1.87175 11.3503 2.03446 11.4049L2.5121 9.98299ZM13.1804 2.03287C13.6652 1.79681 13.7819 1.74718 13.8915 1.72717L13.6219 0.251593C13.2627 0.317214 12.9326 0.485159 12.5237 0.68425L13.1804 2.03287ZM15.6177 0.68425C15.2088 0.485159 14.8787 0.317214 14.5196 0.251593L14.25 1.72717C14.3595 1.74718 14.4762 1.79681 14.961 2.03287L15.6177 0.68425ZM13.8915 1.72717C14.0099 1.70553 14.1315 1.70553 14.25 1.72717L14.5196 0.251593C14.2229 0.197386 13.9185 0.197386 13.6219 0.251593L13.8915 1.72717ZM6.30518 20.6681V10.7166H4.80518V20.6681H6.30518ZM14.8207 20.6681V12.3752H13.3207V20.6681H14.8207ZM23.3362 20.6681V12.3752H21.8362V20.6681H23.3362Z" fill="#E74860"/>
</svg>
