<svg width="30" height="31" viewBox="0 0 30 31" fill="none" xmlns="http://www.w3.org/2000/svg">
<path d="M4.24404 29.8201L4.22533 29.82C2.96603 29.8141 1.79226 29.2112 1.07666 28.2094L1.07663 28.2094C0.361425 27.2085 0.191543 25.9328 0.618855 24.7889L0.618865 24.7888C1.04645 23.6439 2.02051 22.7689 3.23517 22.4489L3.52365 22.373V22.0746V18.7294C3.52365 17.9068 3.8588 17.1157 4.4585 16.5307C5.05845 15.9457 5.87449 15.6152 6.72703 15.6152H13.9503H14.3374V15.2281V9.06915V8.76647L14.0436 8.69348C12.8088 8.38661 11.8132 7.50704 11.3772 6.34843C10.9417 5.19088 11.1185 3.89764 11.8527 2.89046L11.8527 2.89043C12.5874 1.88234 13.7876 1.28865 15.0628 1.3095L15.0629 1.3095C16.338 1.33013 17.5169 1.96247 18.2167 2.99344C18.9157 4.02374 19.0485 5.32184 18.5735 6.46506C18.0982 7.60901 17.0727 8.45577 15.8276 8.72265L15.5217 8.78823V9.10115V15.2283V15.6154H15.9088H23.2626C24.1151 15.6154 24.9311 15.9459 25.5311 16.5309C26.1308 17.1159 26.4659 17.907 26.4659 18.7296V22.0748V22.3739L26.7554 22.4494C27.9864 22.7704 28.9713 23.6612 29.3931 24.8244L29.3931 24.8245C29.8149 25.987 29.6226 27.2781 28.8764 28.2769C28.1294 29.2767 26.9223 29.8567 25.6473 29.8215C24.3726 29.7862 23.2014 29.1405 22.514 28.1016C21.8275 27.0636 21.7102 25.7643 22.1987 24.6265C22.6879 23.4878 23.7232 22.6527 24.9714 22.4L25.2817 22.3372V22.0206V18.7296C25.2817 18.2017 25.0666 17.6975 24.687 17.3271L24.6868 17.3269C24.3073 16.9571 23.795 16.751 23.2626 16.751H15.9088H15.5217V17.1381V22.0335V22.3465L15.8277 22.412C17.0728 22.6787 18.0982 23.5255 18.5735 24.6694C19.0485 25.8128 18.9157 27.1107 18.2167 28.141C17.517 29.1721 16.338 29.8043 15.0628 29.8252C13.7876 29.8458 12.5874 29.2521 11.8527 28.244L11.8527 28.244C11.1185 27.2368 10.9416 25.9438 11.3772 24.786C11.8132 23.6274 12.8088 22.748 14.0437 22.4409L14.3374 22.3679V22.0653V17.1381V16.751H13.9503H6.72703C6.19464 16.751 5.68225 16.9571 5.30277 17.3269L5.30257 17.3271C4.92304 17.6975 4.70794 18.2017 4.70794 18.7296V22.0206V22.3362L5.01698 22.3998C6.27502 22.6588 7.31392 23.5092 7.79374 24.6628C8.27321 25.8156 8.13436 27.1254 7.42111 28.1593C6.71109 29.1884 5.52253 29.812 4.24404 29.8201ZM16.8805 27.922L16.8805 27.922C17.3826 27.4323 17.6665 26.7661 17.6665 26.0694C17.6665 25.3725 17.3826 24.7065 16.8805 24.2168L16.8805 24.2168C16.3787 23.7275 15.7003 23.4543 14.9946 23.4543C14.289 23.4543 13.6106 23.7274 13.1088 24.2168L13.1088 24.2168C12.6067 24.7065 12.3228 25.3726 12.3228 26.0694C12.3228 26.766 12.6066 27.4324 13.1088 27.922L13.1088 27.9221C13.6106 28.4114 14.289 28.6845 14.9946 28.6845C15.7003 28.6845 16.3787 28.4114 16.8805 27.922ZM27.6516 27.922L27.6516 27.922C28.1537 27.4323 28.4375 26.7661 28.4375 26.0694C28.4375 25.3725 28.1537 24.7065 27.6516 24.2168L27.6516 24.2168C27.1497 23.7275 26.4711 23.4543 25.7657 23.4543C25.0601 23.4543 24.3817 23.7274 23.8799 24.2168L23.8798 24.2168C23.3778 24.7065 23.0939 25.3726 23.0939 26.0694C23.0939 26.766 23.3777 27.4324 23.8799 27.922L23.8799 27.9221C24.3817 28.4114 25.0601 28.6845 25.7657 28.6845C26.4711 28.6845 27.1497 28.4114 27.6516 27.922ZM13.1087 3.20951L13.1087 3.20952C12.6066 3.69921 12.3227 4.36549 12.3227 5.06213C12.3227 5.75901 12.6065 6.42509 13.1087 6.91476L13.1087 6.91478C13.6105 7.40407 14.2889 7.67722 14.9945 7.67722C15.7002 7.67722 16.3786 7.40411 16.8804 6.91476L16.8804 6.91474C17.3825 6.42506 17.6663 5.75897 17.6663 5.06213C17.6663 4.3655 17.3825 3.69919 16.8804 3.20951L16.8804 3.20949C16.3786 2.7202 15.7002 2.44705 14.9945 2.44705C14.2889 2.44705 13.6105 2.72016 13.1087 3.20951ZM6.10938 24.2167L6.10937 24.2167C5.60755 23.7274 4.92913 23.4543 4.22353 23.4543C3.51813 23.4543 2.83949 23.7274 2.33767 24.2167L2.33765 24.2168C1.83557 24.7064 1.55172 25.3725 1.55172 26.0694C1.55172 26.766 1.83551 27.4323 2.33767 27.922L2.33769 27.922C2.83951 28.4113 3.51812 28.6844 4.22353 28.6844C4.92917 28.6844 5.60758 28.4113 6.10938 27.922L6.1094 27.922C6.6115 27.4323 6.89534 26.766 6.89534 26.0694C6.89534 25.3725 6.61152 24.7064 6.10938 24.2167Z" fill="#E74860" stroke="#E74860" stroke-width="0.774194"/>
</svg>
