<svg width="244" height="244" viewBox="0 0 244 244" fill="none" xmlns="http://www.w3.org/2000/svg">
<path d="M143.79 110.088L186.288 84.5807C188.428 83.3006 188.419 80.1977 186.272 78.9303L124.49 42.4564C123.469 41.8541 122.204 41.8475 121.177 42.4392L54.6451 80.7932C53.6272 81.38 53 82.4655 53 83.6405V160.379C53 161.545 53.6176 162.624 54.6232 163.214L119.948 201.548C120.972 202.149 122.241 202.151 123.267 201.552L188.993 163.212C190.002 162.623 190.623 161.543 190.623 160.374V110.499M146.255 122.001C146.255 135.388 135.403 146.24 122.017 146.24C108.631 146.24 97.7789 135.388 97.7789 122.001C97.7789 108.615 108.631 97.7633 122.017 97.7633C135.403 97.7633 146.255 108.615 146.255 122.001Z" stroke="url(#paint0_linear_5940_276526)" stroke-width="4" stroke-linecap="round"/>
<defs>
<linearGradient id="paint0_linear_5940_276526" x1="121.812" y1="42" x2="121.812" y2="202" gradientUnits="userSpaceOnUse">
<stop stop-color="#FF8860"/>
<stop offset="1" stop-color="#FFF281"/>
</linearGradient>
</defs>
</svg>
