<svg width="244" height="244" viewBox="0 0 244 244" fill="none" xmlns="http://www.w3.org/2000/svg">
<mask id="path-1-inside-1_5940_276527" fill="white">
<path d="M54.0445 120.282C54.0445 107.949 54.0674 95.6158 54.0143 83.283C54.0078 81.8245 54.5537 80.9751 55.766 80.2826C64.8852 75.0725 73.9937 69.8442 83.0914 64.5978L102.87 53.2349C106.763 50.9959 110.636 48.7178 114.564 46.5407C115.207 46.1841 116.335 45.9051 116.8 46.2239C117.369 46.6121 117.723 47.6658 117.739 48.4404C117.817 52.3195 117.747 56.2013 117.747 60.0823C117.747 65.99 117.714 71.8983 117.795 77.805C117.82 79.6134 117.18 80.6868 115.562 81.5988C105.887 87.0524 96.2818 92.6255 86.6388 98.135C85.552 98.7561 85.0563 99.5395 85.0596 100.826C85.0943 113.806 85.0943 126.786 85.0596 139.767C85.0563 141.05 85.5122 141.814 86.6235 142.449C97.8428 148.857 109.046 155.294 120.233 161.759C121.478 162.478 122.5 162.569 123.822 161.797C132.931 156.485 142.069 151.223 151.238 146.011C155.39 143.641 154.177 143.774 157.936 145.912C166.125 150.57 174.253 155.336 182.453 159.975C184.59 161.184 184.045 162.806 182.408 163.739C165.547 173.352 148.708 183.004 131.892 192.695C129.083 194.308 126.256 195.892 123.475 197.552C122.504 198.13 121.687 198.156 120.703 197.587C113.667 193.525 106.607 189.501 99.559 185.457C86.367 177.887 73.1771 170.313 59.9894 162.736C58.5283 161.897 57.0872 161.021 55.6045 160.222C54.4533 159.601 53.9956 158.747 54 157.411C54.0419 145.035 54.0247 132.659 54.0247 120.282L54.0445 120.282Z"/>
<path d="M189.96 116.977V149.831C189.96 150.305 189.976 150.781 189.941 151.254C189.828 152.793 188.678 153.454 187.312 152.694C183.76 150.718 180.222 148.717 176.699 146.69C171.412 143.657 166.159 140.565 160.848 137.576C159.564 136.853 159.024 136.02 159.032 134.511C159.092 123.345 159.045 112.178 159.087 101.011C159.093 99.65 158.686 98.7784 157.468 98.0867C150.287 94.009 143.142 89.869 135.984 85.7518C133.211 84.1572 130.444 82.554 127.657 80.984C126.804 80.5034 126.479 79.8435 126.481 78.8764C126.499 68.6152 126.483 58.3549 126.494 48.0924C126.497 46.136 127.695 45.4675 129.397 46.4457C135.771 50.1065 142.141 53.7734 148.507 57.4466C161.661 65.0151 174.821 72.5724 187.987 80.1183C189.464 80.9599 190.009 81.9298 190 83.6072C189.935 94.7305 189.966 105.854 189.966 116.978L189.96 116.977Z"/>
<path d="M115.13 116.608C115.46 116.324 115.81 116.06 116.115 115.754C120.806 111.066 125.481 106.362 130.198 101.699C130.624 101.309 131.175 101.075 131.757 101.037C133.704 100.959 135.655 101.006 137.962 101.006C136.682 102.316 135.626 103.41 134.555 104.489C130.151 108.929 125.741 113.364 121.326 117.792C120.712 118.405 120.686 118.811 121.292 119.469C126.932 125.601 132.552 131.75 138.152 137.917C138.391 138.178 138.601 138.466 139 138.96C136.656 138.96 134.603 138.999 132.555 138.924C132.186 138.91 131.779 138.475 131.484 138.152C126.345 132.538 121.214 126.918 116.092 121.29C115.795 120.963 115.487 120.646 114.945 120.073C114.85 120.611 114.784 121.154 114.746 121.699C114.738 126.991 114.714 132.284 114.771 137.575C114.783 138.706 114.463 139.144 113.283 139.012C112.443 138.922 111.596 138.922 110.756 139.01C109.603 139.125 109.241 138.738 109.25 137.577C109.304 130.821 109.276 124.065 109.276 117.309C109.276 112.317 109.303 107.325 109.253 102.334C109.242 101.297 109.554 100.904 110.618 100.992C111.497 101.072 112.381 101.072 113.261 100.994C114.412 100.881 114.785 101.266 114.767 102.422C114.7 106.625 114.735 110.829 114.74 115.033C114.74 115.506 114.791 115.977 114.819 116.449L115.13 116.608Z"/>
</mask>
<path d="M54.0445 120.282L54.0967 124.282L58.0445 124.23V120.282H54.0445ZM54.0143 83.283L58.0143 83.2657L58.0143 83.2651L54.0143 83.283ZM55.766 80.2826L57.7501 83.7558L57.7503 83.7557L55.766 80.2826ZM83.0914 64.5978L81.0987 61.1294L81.0931 61.1327L83.0914 64.5978ZM102.87 53.2349L104.862 56.7032L104.863 56.7025L102.87 53.2349ZM114.564 46.5407L116.503 50.0393L116.503 50.0389L114.564 46.5407ZM116.8 46.2239L114.54 49.5242L114.546 49.5278L116.8 46.2239ZM117.739 48.4404L121.738 48.3599L121.738 48.3585L117.739 48.4404ZM117.747 60.0823L113.747 60.0817V60.0823H117.747ZM117.795 77.805L121.795 77.7504L121.795 77.7503L117.795 77.805ZM115.562 81.5988L113.598 78.1142L113.597 78.1143L115.562 81.5988ZM86.6388 98.135L84.6545 94.662L84.6543 94.6621L86.6388 98.135ZM85.0596 100.826L81.0597 100.837L81.0597 100.837L85.0596 100.826ZM85.0596 139.767L81.0597 139.756L81.0597 139.756L85.0596 139.767ZM86.6235 142.449L84.6395 145.922L84.6395 145.922L86.6235 142.449ZM120.233 161.759L118.231 165.222L118.232 165.222L120.233 161.759ZM123.822 161.797L121.807 158.342L121.806 158.343L123.822 161.797ZM151.238 146.011L153.214 149.489L153.221 149.485L151.238 146.011ZM157.936 145.912L155.958 149.389L155.958 149.389L157.936 145.912ZM182.453 159.975L180.484 163.456L180.484 163.456L182.453 159.975ZM182.408 163.739L184.389 167.214L184.389 167.214L182.408 163.739ZM131.892 192.695L133.884 196.164L133.889 196.161L131.892 192.695ZM123.475 197.552L125.524 200.987L125.525 200.986L123.475 197.552ZM120.703 197.587L122.704 194.124L122.704 194.124L120.703 197.587ZM99.559 185.457L97.5681 188.927L97.5683 188.927L99.559 185.457ZM59.9894 162.736L61.9821 159.268L61.9812 159.267L59.9894 162.736ZM55.6045 160.222L53.7051 163.743L53.7067 163.743L55.6045 160.222ZM54 157.411L50.0001 157.398L50.0001 157.398L54 157.411ZM54.0247 120.282L53.9725 116.283L50.0247 116.334V120.282H54.0247ZM189.96 116.977L190.744 113.054L185.96 112.098V116.977H189.96ZM189.941 151.254L193.93 151.547L193.93 151.545L189.941 151.254ZM187.312 152.694L189.257 149.198L189.256 149.198L187.312 152.694ZM176.699 146.69L178.693 143.223L178.689 143.221L176.699 146.69ZM160.848 137.576L162.81 134.09L162.809 134.09L160.848 137.576ZM159.032 134.511L163.032 134.533L163.032 134.533L159.032 134.511ZM159.087 101.011L155.087 100.996L155.087 100.996L159.087 101.011ZM157.468 98.0867L159.444 94.6087L159.444 94.6083L157.468 98.0867ZM135.984 85.7518L133.989 89.2192L133.989 89.2192L135.984 85.7518ZM127.657 80.984L125.693 84.4688L125.694 84.469L127.657 80.984ZM126.481 78.8764L130.481 78.884L130.481 78.8836L126.481 78.8764ZM126.494 48.0924L122.494 48.0876L122.494 48.0878L126.494 48.0924ZM129.397 46.4457L127.405 49.9141L127.405 49.9143L129.397 46.4457ZM148.507 57.4466L146.509 60.9113L146.513 60.9136L148.507 57.4466ZM187.987 80.1183L185.998 83.5888L186.007 83.5935L187.987 80.1183ZM190 83.6072L194 83.6305L194 83.6302L190 83.6072ZM189.966 116.978L189.182 120.9L193.966 121.857V116.978H189.966ZM115.13 116.608L113.318 120.174L115.708 121.388L117.739 119.64L115.13 116.608ZM116.115 115.754L118.943 118.583L118.943 118.583L116.115 115.754ZM130.198 101.699L127.5 98.7455L127.442 98.7988L127.386 98.8544L130.198 101.699ZM131.757 101.037L131.597 97.0401L131.545 97.0422L131.493 97.0456L131.757 101.037ZM137.962 101.006L140.823 103.802L147.467 97.006H137.962V101.006ZM134.555 104.489L137.395 107.306L137.396 107.306L134.555 104.489ZM121.326 117.792L124.152 120.623L124.159 120.616L121.326 117.792ZM121.292 119.469L124.236 116.761L124.235 116.761L121.292 119.469ZM138.152 137.917L135.191 140.606L135.198 140.613L138.152 137.917ZM139 138.96V142.96H147.382L142.11 136.444L139 138.96ZM132.555 138.924L132.701 134.926L132.701 134.926L132.555 138.924ZM131.484 138.152L134.435 135.452L134.434 135.451L131.484 138.152ZM116.092 121.29L119.05 118.597L119.048 118.595L116.092 121.29ZM114.945 120.073L117.854 117.327L112.389 111.537L111.006 119.378L114.945 120.073ZM114.746 121.699L110.756 121.422L110.746 121.558L110.746 121.693L114.746 121.699ZM114.771 137.575L118.771 137.533L118.771 137.532L114.771 137.575ZM113.283 139.012L113.729 135.037L113.717 135.035L113.705 135.034L113.283 139.012ZM110.756 139.01L111.155 142.99L111.164 142.989L111.173 142.988L110.756 139.01ZM109.25 137.577L105.25 137.545L105.25 137.545L109.25 137.577ZM109.276 117.309L105.276 117.309L105.276 117.309L109.276 117.309ZM109.253 102.334L105.253 102.374L105.253 102.374L109.253 102.334ZM110.618 100.992L110.979 97.0086L110.964 97.0073L110.949 97.0061L110.618 100.992ZM113.261 100.994L113.617 104.978L113.634 104.976L113.65 104.975L113.261 100.994ZM114.767 102.422L118.766 102.486L118.766 102.486L114.767 102.422ZM114.74 115.033L118.74 115.033L118.74 115.029L114.74 115.033ZM114.819 116.449L110.826 116.683L110.96 118.975L113.007 120.015L114.819 116.449ZM58.0445 120.282C58.0445 107.959 58.0674 95.61 58.0143 83.2657L50.0144 83.3002C50.0674 95.6215 50.0445 107.939 50.0445 120.282H58.0445ZM58.0143 83.2651C58.0138 83.1483 58.0251 83.1415 58.0095 83.2082C57.9916 83.2846 57.9499 83.4082 57.8679 83.5455C57.7867 83.6815 57.7031 83.769 57.6588 83.809C57.6219 83.8423 57.6363 83.8209 57.7501 83.7558L53.7818 76.8094C52.7951 77.3731 51.7478 78.1899 50.9983 79.4456C50.2407 80.7151 50.0088 82.0608 50.0144 83.3008L58.0143 83.2651ZM57.7503 83.7557C66.8741 78.5429 75.9873 73.312 85.0896 68.0629L81.0931 61.1327C72 66.3764 62.8962 71.602 53.7816 76.8095L57.7503 83.7557ZM85.084 68.0661L104.862 56.7032L100.877 49.7665L81.0987 61.1294L85.084 68.0661ZM104.863 56.7025C108.804 54.4368 112.611 52.1962 116.503 50.0393L112.625 43.0421C108.66 45.2394 104.723 47.5549 100.876 49.7672L104.863 56.7025ZM116.503 50.0389C116.438 50.0754 116.418 50.0793 116.442 50.0707C116.463 50.0633 116.47 50.0635 116.446 50.0677C116.438 50.0692 116.298 50.0958 116.056 50.0783C115.862 50.0643 115.232 49.9979 114.54 49.5242L119.061 42.9236C118.136 42.2905 117.19 42.1395 116.633 42.0992C116.03 42.0555 115.48 42.1143 115.051 42.1903C114.215 42.3384 113.349 42.6402 112.624 43.0424L116.503 50.0389ZM114.546 49.5278C114.168 49.2704 113.966 49.0045 113.886 48.8868C113.797 48.7581 113.764 48.6736 113.757 48.6581C113.752 48.6455 113.75 48.6388 113.75 48.6376C113.75 48.6363 113.75 48.6356 113.749 48.634C113.749 48.6326 113.747 48.6252 113.746 48.6104C113.744 48.5962 113.741 48.5668 113.74 48.5223L121.738 48.3585C121.72 47.4636 121.522 46.5374 121.197 45.7164C120.909 44.9892 120.297 43.7676 119.055 42.92L114.546 49.5278ZM113.74 48.5208C113.817 52.3501 113.747 56.1009 113.747 60.0817L121.747 60.0828C121.747 56.3017 121.818 52.289 121.738 48.3599L113.74 48.5208ZM113.747 60.0823C113.747 65.9605 113.714 71.9167 113.795 77.8598L121.795 77.7503C121.714 71.8799 121.747 66.0196 121.747 60.0823H113.747ZM113.795 77.8597C113.798 78.0752 113.779 78.1635 113.779 78.1671C113.779 78.1672 113.783 78.1482 113.796 78.1156C113.808 78.0824 113.826 78.0441 113.85 78.0046C113.9 77.9187 113.943 77.8824 113.928 77.8957C113.905 77.9165 113.813 77.9927 113.598 78.1142L117.526 85.0834C118.712 84.4146 119.906 83.4816 120.739 82.0716C121.58 80.647 121.814 79.14 121.795 77.7504L113.795 77.8597ZM113.597 78.1143C103.912 83.5738 94.2637 89.1717 84.6545 94.662L88.6232 101.608C98.2999 96.0794 107.862 90.5309 117.526 85.0833L113.597 78.1143ZM84.6543 94.6621C83.7123 95.2004 82.7197 95.9853 82.0061 97.1802C81.2847 98.3883 81.0566 99.6659 81.0597 100.837L89.0596 100.816C89.0595 100.749 89.0662 100.781 89.043 100.878C89.0179 100.984 88.9665 101.128 88.8747 101.282C88.6798 101.608 88.4785 101.691 88.6234 101.608L84.6543 94.6621ZM81.0597 100.837C81.0943 113.81 81.0943 126.783 81.0597 139.756L89.0596 139.777C89.0943 126.79 89.0943 113.803 89.0596 100.816L81.0597 100.837ZM81.0597 139.756C81.0567 140.875 81.2553 142.149 81.9727 143.373C82.6864 144.591 83.6926 145.381 84.6395 145.922L88.6075 138.975C88.443 138.881 88.6656 138.972 88.8745 139.328C89.0869 139.69 89.0592 139.941 89.0596 139.777L81.0597 139.756ZM84.6395 145.922C95.8529 152.327 107.05 158.76 118.231 165.222L122.234 158.296C111.041 151.827 99.8326 145.387 88.6075 138.975L84.6395 145.922ZM118.232 165.222C119.184 165.773 120.411 166.294 121.887 166.336C123.399 166.378 124.718 165.905 125.838 165.252L121.806 158.343C121.695 158.407 121.68 158.401 121.747 158.381C121.825 158.358 121.953 158.334 122.11 158.339C122.433 158.348 122.526 158.464 122.234 158.295L118.232 165.222ZM125.837 165.253C134.933 159.948 144.059 154.693 153.214 149.489L149.261 142.534C140.08 147.753 130.928 153.022 121.807 158.342L125.837 165.253ZM153.221 149.485C153.768 149.173 154.227 148.901 154.595 148.684C154.982 148.456 155.226 148.313 155.418 148.209C155.904 147.945 155.472 148.275 154.71 148.271C153.917 148.266 153.449 147.904 153.892 148.159C154.076 148.265 154.284 148.394 154.659 148.622C155.009 148.835 155.439 149.094 155.958 149.389L159.914 142.436C159.493 142.196 159.138 141.983 158.818 141.788C158.525 141.61 158.178 141.396 157.883 141.226C157.366 140.928 156.237 140.28 154.759 140.271C153.311 140.262 152.169 140.87 151.597 141.181C151.063 141.471 150.071 142.071 149.254 142.538L153.221 149.485ZM155.958 149.389C164.014 153.972 172.351 158.855 180.484 163.456L184.423 156.493C176.156 151.816 168.236 147.169 159.913 142.435L155.958 149.389ZM180.484 163.456C180.647 163.549 180.468 163.489 180.247 163.156C179.989 162.769 179.797 162.184 179.87 161.524C179.936 160.921 180.19 160.541 180.314 160.39C180.436 160.241 180.503 160.221 180.427 160.264L184.389 167.214C185.713 166.46 187.546 164.909 187.822 162.397C188.142 159.478 186.201 157.499 184.423 156.493L180.484 163.456ZM180.427 160.264C163.56 169.881 146.716 179.536 129.895 189.229L133.889 196.161C150.7 186.473 167.533 176.824 184.389 167.214L180.427 160.264ZM129.9 189.226C127.141 190.811 124.244 192.434 121.425 194.117L125.525 200.986C128.267 199.349 131.025 197.805 133.884 196.164L129.9 189.226ZM121.425 194.116C121.34 194.168 121.575 194.008 122.026 194C122.489 193.992 122.751 194.151 122.704 194.124L118.703 201.051C119.64 201.592 120.803 202.022 122.163 201.999C123.51 201.976 124.64 201.514 125.524 200.987L121.425 194.116ZM122.704 194.124C115.662 190.058 108.583 186.023 101.55 181.988L97.5683 188.927C104.631 192.979 111.672 196.992 118.703 201.051L122.704 194.124ZM101.55 181.988C88.3585 174.418 75.1692 166.844 61.9821 159.268L57.9967 166.204C71.185 173.782 84.3755 181.356 97.5681 188.927L101.55 181.988ZM61.9812 159.267C60.6405 158.497 59.0424 157.531 57.5022 156.701L53.7067 163.743C55.1319 164.512 56.416 165.297 57.9976 166.205L61.9812 159.267ZM57.5038 156.702C57.4539 156.675 57.4937 156.69 57.5752 156.765C57.6634 156.846 57.7669 156.967 57.855 157.123C58.0381 157.449 57.9993 157.643 58 157.425L50.0001 157.398C49.9964 158.515 50.1842 159.805 50.8829 161.046C51.5961 162.314 52.6341 163.165 53.7051 163.743L57.5038 156.702ZM58 157.425C58.0419 145.04 58.0247 132.651 58.0247 120.282H50.0247C50.0247 132.666 50.0419 145.031 50.0001 157.398L58 157.425ZM54.077 124.282L54.0967 124.282L53.9923 116.283L53.9725 116.283L54.077 124.282ZM185.96 116.977V149.831H193.96V116.977H185.96ZM185.96 149.831C185.96 150.483 185.972 150.683 185.952 150.962L193.93 151.545C193.979 150.878 193.96 150.126 193.96 149.831H185.96ZM185.952 150.961C185.961 150.836 186.101 149.924 187.153 149.34C188.234 148.739 189.121 149.123 189.257 149.198L185.368 156.189C186.87 157.025 189.014 157.458 191.04 156.332C193.036 155.222 193.808 153.211 193.93 151.547L185.952 150.961ZM189.256 149.198C185.721 147.232 182.2 145.24 178.693 143.223L174.704 150.157C178.244 152.194 181.799 154.205 185.368 156.19L189.256 149.198ZM178.689 143.221C173.461 140.221 168.133 137.086 162.81 134.09L158.886 141.062C164.185 144.044 169.363 147.093 174.708 150.16L178.689 143.221ZM162.809 134.09C162.664 134.008 162.634 133.975 162.663 134.001C162.702 134.035 162.79 134.123 162.879 134.269C162.968 134.417 163.012 134.549 163.029 134.626C163.044 134.691 163.031 134.675 163.032 134.533L155.032 134.489C155.025 135.727 155.244 137.103 156.032 138.407C156.808 139.692 157.896 140.505 158.887 141.062L162.809 134.09ZM163.032 134.533C163.092 123.405 163.046 112.108 163.087 101.026L155.087 100.996C155.045 112.248 155.092 123.284 155.032 134.49L163.032 134.533ZM163.087 101.026C163.091 99.9666 162.941 98.6802 162.266 97.4147C161.569 96.1103 160.531 95.226 159.444 94.6087L155.493 101.565C155.569 101.608 155.543 101.604 155.47 101.534C155.39 101.457 155.291 101.337 155.208 101.181C155.039 100.864 155.089 100.694 155.087 100.996L163.087 101.026ZM159.444 94.6083C152.275 90.5379 145.151 86.4101 137.978 82.2844L133.989 89.2192C141.133 93.3279 148.3 97.4801 155.493 101.565L159.444 94.6083ZM137.978 82.2844C135.22 80.6982 132.428 79.0805 129.62 77.4989L125.694 84.469C128.46 86.0275 131.202 87.6161 133.989 89.2192L137.978 82.2844ZM129.621 77.4992C129.709 77.5489 130.023 77.7609 130.264 78.2054C130.489 78.6199 130.481 78.9274 130.481 78.884L122.481 78.8689C122.479 79.7925 122.632 80.9135 123.232 82.0199C123.849 83.1562 124.752 83.9385 125.693 84.4688L129.621 77.4992ZM130.481 78.8836C130.499 68.6326 130.483 58.3328 130.494 48.0969L122.494 48.0878C122.483 58.3771 122.499 68.5977 122.481 78.8692L130.481 78.8836ZM130.494 48.0971C130.495 47.7341 130.601 48.9034 129.275 49.6518C127.979 50.3835 127.064 49.7181 127.405 49.9141L131.39 42.9773C130.028 42.1952 127.663 41.3748 125.342 42.6853C122.991 44.0125 122.496 46.4942 122.494 48.0876L130.494 48.0971ZM127.405 49.9143C133.776 53.5737 140.144 57.2394 146.509 60.9113L150.506 53.9819C144.138 50.3074 137.765 46.6392 131.39 42.9772L127.405 49.9143ZM146.513 60.9136C159.668 68.4833 172.83 76.0417 185.998 83.5888L189.976 76.6479C176.812 69.1031 163.654 61.547 150.502 53.9796L146.513 60.9136ZM186.007 83.5935C186.05 83.6183 186.087 83.6405 186.118 83.6598C186.148 83.6791 186.172 83.6953 186.19 83.7082C186.227 83.734 186.239 83.7453 186.233 83.7403C186.23 83.7377 186.223 83.7312 186.213 83.7206C186.203 83.7099 186.19 83.6956 186.176 83.6776C186.161 83.6596 186.145 83.6387 186.129 83.6151C186.112 83.5915 186.097 83.5663 186.081 83.5399C186.066 83.5134 186.053 83.4871 186.04 83.4612C186.028 83.4355 186.018 83.4115 186.01 83.39C186.002 83.3686 185.997 83.3506 185.993 83.3369C185.989 83.3232 185.987 83.3144 185.986 83.3111C185.985 83.3049 185.989 83.3214 185.993 83.3667C185.995 83.3892 185.997 83.4184 185.998 83.4547C185.999 83.4911 186 83.5341 186 83.5843L194 83.6302C194.007 82.3636 193.808 80.9319 193.02 79.5588C192.231 78.1832 191.09 77.2826 189.968 76.6432L186.007 83.5935ZM186 83.584C185.935 94.7228 185.966 105.869 185.966 116.978H193.966C193.966 105.839 193.935 94.7383 194 83.6305L186 83.584ZM190.751 113.056L190.744 113.054L189.175 120.899L189.182 120.9L190.751 113.056ZM117.739 119.64C117.8 119.587 118.505 119.021 118.943 118.583L113.288 112.925C113.114 113.099 113.119 113.061 112.522 113.576L117.739 119.64ZM118.943 118.583C123.647 113.882 128.304 109.197 133.01 104.543L127.386 98.8544C122.659 103.528 117.966 108.25 113.288 112.925L118.943 118.583ZM132.896 104.652C132.645 104.881 132.335 105.007 132.021 105.028L131.493 97.0456C130.015 97.1434 128.604 97.7373 127.5 98.7455L132.896 104.652ZM131.918 105.034C133.758 104.96 135.526 105.006 137.962 105.006V97.006C135.784 97.006 133.65 96.9577 131.597 97.0401L131.918 105.034ZM135.102 98.2099C133.798 99.5437 132.773 100.606 131.715 101.673L137.396 107.306C138.479 106.213 139.566 105.088 140.823 103.802L135.102 98.2099ZM131.716 101.672C127.314 106.11 122.906 110.542 118.494 114.968L124.159 120.616C128.576 116.185 132.988 111.749 137.395 107.306L131.716 101.672ZM118.501 114.961C118.058 115.403 116.909 116.611 116.853 118.496C116.797 120.402 117.892 121.682 118.348 122.177L124.235 116.761C124.086 116.598 124.891 117.346 124.85 118.731C124.81 120.096 123.98 120.795 124.152 120.623L118.501 114.961ZM118.348 122.177C123.982 128.302 129.597 134.445 135.191 140.606L141.114 135.227C135.508 129.054 129.882 122.899 124.236 116.761L118.348 122.177ZM135.198 140.613C135.335 140.763 135.327 140.779 135.89 141.476L142.11 136.444C141.875 136.153 141.448 135.594 141.107 135.22L135.198 140.613ZM139 134.96C136.554 134.96 134.652 134.998 132.701 134.926L132.408 142.921C134.554 143 136.758 142.96 139 142.96V134.96ZM132.701 134.926C133.358 134.95 133.837 135.151 134.077 135.273C134.324 135.397 134.476 135.518 134.523 135.556C134.595 135.615 134.603 135.635 134.435 135.452L128.533 140.852C128.661 140.992 129.019 141.39 129.461 141.751C129.782 142.014 130.848 142.864 132.408 142.921L132.701 134.926ZM134.434 135.451C129.298 129.84 124.17 124.222 119.05 118.597L113.134 123.982C118.258 129.613 123.392 135.237 128.534 140.853L134.434 135.451ZM119.048 118.595C118.721 118.236 118.345 117.847 117.854 117.327L112.036 122.818C112.628 123.446 112.868 123.691 113.136 123.984L119.048 118.595ZM111.006 119.378C110.887 120.055 110.803 120.737 110.756 121.422L118.736 121.976C118.765 121.571 118.814 121.168 118.885 120.768L111.006 119.378ZM110.746 121.693C110.738 126.969 110.714 132.295 110.772 137.618L118.771 137.532C118.715 132.272 118.737 127.014 118.746 121.706L110.746 121.693ZM110.772 137.618C110.773 137.746 110.758 137.623 110.817 137.375C110.881 137.103 111.069 136.536 111.596 135.989C112.736 134.807 114.054 135.073 113.729 135.037L112.837 142.987C113.692 143.083 115.76 143.195 117.353 141.545C118.788 140.057 118.778 138.157 118.771 137.533L110.772 137.618ZM113.705 135.034C112.586 134.915 111.458 134.914 110.338 135.032L111.173 142.988C111.733 142.929 112.299 142.93 112.86 142.989L113.705 135.034ZM110.356 135.03C110.271 135.038 110.462 135.006 110.798 135.072C111.186 135.147 111.799 135.362 112.359 135.908C112.906 136.441 113.117 137.012 113.195 137.315C113.264 137.586 113.249 137.727 113.25 137.608L105.25 137.545C105.245 138.238 105.265 140.164 106.775 141.636C108.366 143.187 110.371 143.068 111.155 142.99L110.356 135.03ZM113.25 137.609C113.304 130.832 113.276 124.043 113.276 117.309L105.276 117.309C105.276 124.087 105.304 130.811 105.25 137.545L113.25 137.609ZM113.276 117.309C113.276 112.347 113.304 107.312 113.253 102.293L105.253 102.374C105.303 107.339 105.276 112.288 105.276 117.309H113.276ZM113.253 102.294C113.252 102.203 113.264 102.353 113.197 102.625C113.124 102.925 112.926 103.485 112.409 104.02C111.308 105.16 110.037 104.958 110.286 104.979L110.949 97.0061C110.134 96.9382 108.176 96.8883 106.655 98.4621C105.255 99.9119 105.247 101.74 105.253 102.374L113.253 102.294ZM110.257 104.976C111.375 105.077 112.499 105.078 113.617 104.978L112.904 97.0096C112.263 97.067 111.619 97.0666 110.979 97.0086L110.257 104.976ZM113.65 104.975C113.735 104.966 113.549 104.997 113.219 104.933C112.842 104.859 112.234 104.65 111.675 104.111C111.125 103.581 110.907 103.005 110.826 102.687C110.753 102.404 110.769 102.252 110.767 102.359L118.766 102.486C118.778 101.766 118.76 99.8297 117.229 98.3531C115.643 96.8232 113.653 96.9361 112.871 97.0127L113.65 104.975ZM110.767 102.358C110.699 106.607 110.735 110.873 110.74 115.037L118.74 115.029C118.735 110.786 118.7 106.644 118.766 102.486L110.767 102.358ZM110.74 115.033C110.74 115.652 110.814 116.491 110.826 116.683L118.812 116.216C118.768 115.463 118.74 115.361 118.74 115.033H110.74ZM113.007 120.015L113.318 120.174L116.943 113.042L116.631 112.883L113.007 120.015Z" fill="url(#paint0_linear_5940_276527)" mask="url(#path-1-inside-1_5940_276527)"/>
<defs>
<linearGradient id="paint0_linear_5940_276527" x1="122" y1="46" x2="122" y2="198" gradientUnits="userSpaceOnUse">
<stop stop-color="#FF8860"/>
<stop offset="1" stop-color="#FFF281"/>
</linearGradient>
</defs>
</svg>
