<svg width="244" height="244" viewBox="0 0 244 244" fill="none" xmlns="http://www.w3.org/2000/svg">
<path d="M63 121.334V69.0112C63 58.8115 72.9602 51.5861 82.656 54.7521L175.156 84.9562C181.326 86.9708 185.5 92.7249 185.5 99.2152V162.622C185.5 172.381 176.329 179.541 166.862 177.174L155.5 174.334M157 161.834H164M157 148.834H164M157 135.834H164M157 122.834H164M157 109.834H164M157 96.8338H164M64 161.834C60.6863 161.834 58 159.147 58 155.834V135.834C58 132.52 60.6863 129.834 64 129.834C67.3137 129.834 70 132.52 70 135.834V155.834C70 159.147 67.3137 161.834 64 161.834ZM89 171.834C85.6863 171.834 83 169.147 83 165.834V127.834C83 124.52 85.6863 121.834 89 121.834C92.3137 121.834 95 124.52 95 127.834V165.834C95 169.147 92.3137 171.834 89 171.834ZM114 180.834C110.686 180.834 108 178.147 108 174.834V117.834C108 114.52 110.686 111.834 114 111.834C117.314 111.834 120 114.52 120 117.834V174.834C120 178.147 117.314 180.834 114 180.834ZM139 190.834C135.686 190.834 133 188.147 133 184.834V107.834C133 104.52 135.686 101.834 139 101.834C142.314 101.834 145 104.52 145 107.834V184.834C145 188.147 142.314 190.834 139 190.834Z" stroke="url(#paint0_linear_5940_276528)" stroke-width="4" stroke-linecap="round"/>
<defs>
<linearGradient id="paint0_linear_5940_276528" x1="83.5" y1="19" x2="122" y2="139.5" gradientUnits="userSpaceOnUse">
<stop stop-color="#6015E2"/>
<stop offset="1" stop-color="#FB4794"/>
</linearGradient>
</defs>
</svg>
