<svg width="244" height="244" viewBox="0 0 244 244" fill="none" xmlns="http://www.w3.org/2000/svg">
<path fill-rule="evenodd" clip-rule="evenodd" d="M55.3167 144.667C56.5978 144.667 57.6333 143.631 57.6333 142.35V116.867H180.417C181.698 116.867 182.733 115.831 182.733 114.55C182.733 113.269 181.698 112.233 180.417 112.233H55.3167C54.0356 112.233 53 113.269 53 114.55V142.35C53 143.631 54.0356 144.667 55.3167 144.667ZM78.4833 130.767C77.2022 130.767 76.1667 131.802 76.1667 133.083C76.1667 134.364 77.2022 135.4 78.4833 135.4H120.183C121.464 135.4 122.5 134.364 122.5 133.083C122.5 131.802 121.464 130.767 120.183 130.767H78.4833ZM143.35 130.767C142.071 130.767 141.033 131.805 141.033 133.083C141.033 134.362 142.071 135.4 143.35 135.4C144.629 135.4 145.667 134.362 145.667 133.083C145.667 131.805 144.629 130.767 143.35 130.767ZM143.35 126.133C147.182 126.133 150.3 129.252 150.3 133.083C150.3 136.915 147.182 140.033 143.35 140.033C139.518 140.033 136.4 136.915 136.4 133.083C136.4 129.252 139.518 126.133 143.35 126.133ZM161.883 130.767C160.605 130.767 159.567 131.805 159.567 133.083C159.567 134.362 160.605 135.4 161.883 135.4C163.162 135.4 164.2 134.362 164.2 133.083C164.2 131.805 163.162 130.767 161.883 130.767ZM161.883 126.133C165.715 126.133 168.833 129.252 168.833 133.083C168.833 136.915 165.715 140.033 161.883 140.033C158.052 140.033 154.933 136.915 154.933 133.083C154.933 129.252 158.052 126.133 161.883 126.133ZM78.4833 167.833C77.2022 167.833 76.1667 168.869 76.1667 170.15C76.1667 171.431 77.2022 172.467 78.4833 172.467H120.183C121.464 172.467 122.5 171.431 122.5 170.15C122.5 168.869 121.464 167.833 120.183 167.833H78.4833ZM143.35 167.833C142.071 167.833 141.033 168.871 141.033 170.15C141.033 171.429 142.071 172.467 143.35 172.467C144.629 172.467 145.667 171.429 145.667 170.15C145.667 168.871 144.629 167.833 143.35 167.833ZM143.35 163.2C147.182 163.2 150.3 166.318 150.3 170.15C150.3 173.982 147.182 177.1 143.35 177.1C139.518 177.1 136.4 173.982 136.4 170.15C136.4 166.318 139.518 163.2 143.35 163.2ZM161.883 167.833C160.605 167.833 159.567 168.871 159.567 170.15C159.567 171.429 160.605 172.467 161.883 172.467C163.162 172.467 164.2 171.429 164.2 170.15C164.2 168.871 163.162 167.833 161.883 167.833ZM161.883 163.2C165.715 163.2 168.833 166.318 168.833 170.15C168.833 173.982 165.715 177.1 161.883 177.1C158.052 177.1 154.933 173.982 154.933 170.15C154.933 166.318 158.052 163.2 161.883 163.2ZM192 63.5833V179.417C192 185.37 186.37 191 180.417 191H64.5833C58.6295 191 53 185.37 53 179.417V151.617C53 150.336 54.0356 149.3 55.3167 149.3H180.417C181.698 149.3 182.733 150.336 182.733 151.617C182.733 152.898 181.698 153.933 180.417 153.933H57.6333V179.417C57.6333 182.794 61.2056 186.367 64.5833 186.367H180.417C183.794 186.367 187.367 182.794 187.367 179.417V63.5833C187.367 60.2056 183.794 56.6333 180.417 56.6333H64.5833C61.2056 56.6333 57.6333 60.2056 57.6333 63.5833V105.283C57.6333 106.564 56.5978 107.6 55.3167 107.6C54.0356 107.6 53 106.564 53 105.283V63.5833C53 57.6295 58.6295 52 64.5833 52H180.417C186.37 52 192 57.6295 192 63.5833Z" fill="url(#paint0_linear_5940_276513)"/>
<defs>
<linearGradient id="paint0_linear_5940_276513" x1="215.5" y1="43.5" x2="138.5" y2="141" gradientUnits="userSpaceOnUse">
<stop stop-color="#6015E2"/>
<stop offset="1" stop-color="#FB4794"/>
</linearGradient>
</defs>
</svg>
