<svg width="138" height="137" viewBox="0 0 138 137" fill="none" xmlns="http://www.w3.org/2000/svg">
<path d="M43.1183 32.8916C43.1183 23.771 43.1183 14.6505 43.1183 5.52619C43.1183 1.79521 44.4851 0.42472 48.1792 0.42472C57.9905 0.42472 67.8056 0.439496 77.617 0.40625C78.7141 0.40625 79.5305 0.709161 80.3062 1.4923C84.7428 5.98055 89.2052 10.443 93.6934 14.8832C94.5061 15.6885 94.8792 16.5418 94.8755 17.6907C94.8533 31.9718 94.8644 46.2529 94.857 60.5341C94.857 63.8329 93.3314 65.3179 89.9957 65.3179C75.9916 65.3179 61.9875 65.3179 47.9834 65.3179C44.6033 65.3179 43.122 63.8218 43.122 60.3974C43.1147 51.2288 43.122 42.0639 43.122 32.8953L43.1183 32.8916ZM46.5206 32.8621C46.5206 42.027 46.539 51.1882 46.4984 60.3531C46.491 61.5389 46.7976 61.9489 48.0425 61.9452C62.0392 61.9046 76.0396 61.912 90.0363 61.9378C91.0891 61.9378 91.4881 61.6608 91.4844 60.5378C91.4511 46.9068 91.4511 33.2758 91.4881 19.6485C91.4881 18.5477 91.0965 18.3704 90.1324 18.3888C87.1402 18.4442 84.148 18.4147 81.1522 18.4073C78.2228 18.3962 76.8227 17.0183 76.808 14.1111C76.7895 11.1633 76.7526 8.21545 76.8301 5.2713C76.8597 4.11137 76.6233 3.70872 75.3451 3.7198C66.3206 3.7826 57.2961 3.78629 48.2678 3.7198C46.8493 3.70872 46.4836 4.12984 46.491 5.5151C46.5464 14.632 46.5206 23.7489 46.5206 32.8658V32.8621ZM88.4442 15.079C85.7217 12.3195 82.9438 9.50836 80.14 6.66764C80.14 9.17959 80.14 11.7765 80.14 14.3771C80.14 14.9017 80.4392 15.0827 80.9379 15.0827C83.5385 15.0753 86.1354 15.079 88.4405 15.079H88.4442Z" fill="url(#paint0_linear_0_4)"/>
<path d="M34.3414 104.733C42.5607 106.624 48.3529 111.209 51.5039 118.889C52.7932 122.025 53.5726 125.313 52.675 128.718C51.5002 133.181 47.4479 136.38 42.8451 136.398C32.3023 136.446 21.7596 136.469 11.2168 136.398C4.8113 136.354 0.0275261 130.414 1.16898 124.079C3.0197 113.817 9.07792 107.478 19.1442 104.907C19.2661 104.877 19.3806 104.814 19.7241 104.674C14.1905 101.139 11.3239 96.2552 11.8263 89.7427C12.1477 85.561 14.0723 82.1071 17.2713 79.3957C23.5179 74.1021 33.1187 74.9443 38.5342 81.0543C43.7575 86.95 44.4188 98.4606 34.3451 104.733H34.3414ZM27.1159 133.103C32.0881 133.103 37.0639 133.111 42.0361 133.103C47.1598 133.092 50.3736 129.358 49.6015 124.33C48.4083 116.576 42.4868 110.115 34.8955 108.301C31.0833 107.393 27.1935 107.662 23.3406 107.751C14.2533 107.965 6.75806 114.338 4.64877 123.155C3.09727 129.653 7.70374 133.451 12.6131 133.162C17.4301 132.882 22.2804 133.1 27.1159 133.1V133.103ZM38.9405 91.0836C38.9184 84.4565 33.61 79.1814 26.9718 79.1962C20.3854 79.2109 15.0623 84.5821 15.0844 91.1833C15.1066 97.7846 20.4629 103.082 27.079 103.049C33.7356 103.015 38.9627 97.7402 38.9405 91.0799V91.0836Z" fill="url(#paint1_linear_0_4)"/>
<path d="M118.229 104.763C123.493 105.845 127.76 108.213 131.195 112.018C134.472 115.649 136.36 119.938 136.929 124.77C137.649 130.92 132.832 136.373 126.618 136.406C116.305 136.461 105.995 136.443 95.6809 136.417C88.6659 136.398 83.8267 130.555 85.1603 123.647C87.1403 113.388 93.4903 107.304 103.66 104.67C97.9269 101.002 95.0603 95.9118 95.8361 89.1185C96.283 85.2065 98.1301 81.9632 101.155 79.4401C107.727 73.9693 117.28 74.8928 122.769 81.4349C127.664 87.2678 128.262 98.3979 118.233 104.759L118.229 104.763ZM110.863 133.103C116.068 133.103 121.27 133.137 126.474 133.092C130.734 133.059 133.988 129.494 133.645 125.339C132.972 117.212 126.471 109.901 118.469 108.217C114.956 107.478 111.406 107.729 107.871 107.733C98.1374 107.74 90.0401 114.618 88.4037 124.193C87.5392 129.258 90.7789 133.092 95.9469 133.103C100.919 133.115 105.891 133.103 110.867 133.103H110.863ZM110.996 103.052C117.616 103.038 122.899 97.7219 122.895 91.0911C122.891 84.512 117.524 79.1852 110.911 79.1963C104.306 79.2074 99.0166 84.5453 99.0388 91.1798C99.061 97.8327 104.336 103.067 110.996 103.052Z" fill="url(#paint2_linear_0_4)"/>
<path d="M25.3426 53.7664C25.3426 48.4728 25.3352 43.1792 25.3426 37.8857C25.35 34.3653 27.3817 32.3336 30.9243 32.304C33.1334 32.2855 35.3424 32.2892 37.5514 32.304C38.9921 32.3151 39.8159 32.9246 39.8491 33.9515C39.8861 35.0302 39.029 35.684 37.5108 35.6951C35.3461 35.7099 33.1851 35.6914 31.0204 35.7025C29.1475 35.7136 28.6673 36.1938 28.6673 38.0889C28.6636 48.676 28.6673 59.2631 28.6673 69.8502C28.6673 71.7194 28.1833 72.5284 27.0604 72.5432C25.8709 72.5616 25.3426 71.712 25.3426 69.7837C25.3426 64.4458 25.3426 59.1043 25.3426 53.7664Z" fill="url(#paint3_linear_0_4)"/>
<path d="M112.637 53.8331C112.637 59.2191 112.637 64.605 112.637 69.9909C112.637 70.4933 112.699 71.003 112.481 71.487C112.134 72.2479 111.539 72.6358 110.719 72.5213C109.973 72.4142 109.463 71.9413 109.353 71.1693C109.29 70.7186 109.316 70.2495 109.316 69.7914C109.316 59.2966 109.316 48.8019 109.316 38.3071C109.316 36.1165 108.917 35.7139 106.756 35.7102C104.639 35.7065 102.522 35.7213 100.406 35.7028C98.9686 35.6917 98.1448 35.0637 98.1301 34.0331C98.1116 32.9951 98.9464 32.3265 100.358 32.3154C102.703 32.2969 105.053 32.2674 107.398 32.3228C110.59 32.3966 112.625 34.4912 112.637 37.6828C112.655 43.0687 112.64 48.4546 112.64 53.8405L112.637 53.8331Z" fill="url(#paint4_linear_0_4)"/>
<path d="M85.3117 34.0663C85.2969 43.0281 77.8497 50.4383 68.9213 50.3755C59.9374 50.309 52.6527 42.9394 52.6675 33.9333C52.6823 24.9716 60.111 17.5761 69.0579 17.6242C78.0308 17.6722 85.3302 25.0566 85.3154 34.0663H85.3117ZM76.2022 44.683C77.6392 43.9516 78.6883 42.8434 79.7337 41.2032C78.5922 41.5578 77.5505 40.6824 77.0149 41.8681C76.6233 42.7288 76.3943 43.6671 76.0951 44.5685C75.9695 44.646 75.8845 44.7347 76.0471 44.8529C76.0544 44.8566 76.1468 44.7384 76.2022 44.6793V44.683ZM61.7844 44.6756L61.9358 44.8603C62.0873 44.731 62.0097 44.6497 61.8767 44.5796C61.692 44.0218 61.5184 43.4603 61.3226 42.9062C60.6651 41.0702 60.4508 40.9668 58.4265 41.5689C59.3759 42.8397 60.34 44.007 61.7881 44.6793L61.7844 44.6756ZM68.9323 37.9746C70.4949 37.9746 72.0575 37.9562 73.6164 37.9857C74.237 37.9968 74.4771 37.801 74.5621 37.1435C74.8354 35.0342 74.8243 32.9396 74.5621 30.8303C74.4771 30.1506 74.1963 30.014 73.5979 30.0177C70.5208 30.0361 67.4436 30.0398 64.3665 30.0177C63.7459 30.014 63.5058 30.195 63.4208 30.8525C63.1623 32.9175 63.1586 34.9603 63.4024 37.0289C63.4984 37.8305 63.8013 38.0079 64.5253 37.9894C65.9956 37.9488 67.4658 37.9783 68.936 37.9746H68.9323ZM64.3406 26.7041C67.2848 26.7041 70.0812 26.6967 72.8813 26.7115C73.3984 26.7115 73.6755 26.6339 73.4391 26.0244C72.8332 24.4729 72.1425 22.9694 70.8754 21.8354C69.601 20.6976 68.3413 20.7013 67.0705 21.876C65.689 23.1578 64.9206 24.8017 64.3406 26.7041ZM73.6496 41.2993C70.6907 41.2993 67.8943 41.3066 65.0979 41.2919C64.5586 41.2919 64.3185 41.4138 64.5512 41.9937C65.1977 43.6265 65.9032 45.2223 67.3439 46.3379C68.5223 47.254 69.5862 47.2614 70.7166 46.301C72.2348 45.0155 73.0216 43.2866 73.6533 41.2956L73.6496 41.2993ZM56.0106 34.1217C55.8924 35.0563 56.1251 36.05 56.332 37.0363C56.4095 37.4094 56.4317 37.9303 56.9895 37.9524C57.8613 37.9857 58.7368 37.9709 59.6086 37.9672C60.159 37.9672 60.1479 37.5646 60.0962 37.1915C59.8044 35.0822 59.7896 32.9766 60.0962 30.871C60.1775 30.3243 60.0445 30.0657 59.398 30.0103C56.6275 29.7628 56.1694 30.1285 56.0106 32.9323C55.9884 33.298 56.0106 33.6674 56.0106 34.1254V34.1217ZM81.9501 34.0035C81.9501 34.0035 81.9612 34.0035 81.9686 34.0035C81.9686 33.6341 81.9871 33.2684 81.9686 32.899C81.7987 30.1248 81.4699 29.8625 78.692 30.0066C78.0197 30.0398 77.7832 30.2356 77.883 30.8968C78.1896 32.9544 78.1822 35.0157 77.8978 37.0807C77.8424 37.4722 77.7574 37.8601 78.4002 37.9857C80.8604 38.4733 81.7174 37.8749 81.9464 35.3814C81.9871 34.927 81.9538 34.4616 81.9538 34.0035H81.9501ZM79.5712 26.5157C78.6329 25.0898 77.4988 23.989 75.8328 23.0175C76.1616 23.8486 76.4017 24.4249 76.6196 25.0122C77.0949 26.2879 78.0788 26.7891 79.5712 26.5157ZM62.0097 23.276C60.5616 24.1294 59.1838 25.0085 58.3859 26.8112C59.3833 26.3864 60.4656 27.3727 60.9865 26.0909C61.3633 25.1674 61.6699 24.218 62.0097 23.2797V23.276Z" fill="url(#paint5_linear_0_4)"/>
<path d="M43.1183 32.8916C43.1183 23.771 43.1183 14.6505 43.1183 5.52619C43.1183 1.79521 44.4851 0.42472 48.1792 0.42472C57.9905 0.42472 67.8056 0.439496 77.617 0.40625C78.7141 0.40625 79.5305 0.709161 80.3062 1.4923C84.7428 5.98055 89.2052 10.443 93.6934 14.8832C94.5061 15.6885 94.8792 16.5418 94.8755 17.6907C94.8533 31.9718 94.8644 46.2529 94.857 60.5341C94.857 63.8329 93.3314 65.3179 89.9957 65.3179C75.9916 65.3179 61.9875 65.3179 47.9834 65.3179C44.6033 65.3179 43.122 63.8218 43.122 60.3974C43.1147 51.2288 43.122 42.0639 43.122 32.8953L43.1183 32.8916ZM46.5206 32.8621C46.5206 42.027 46.539 51.1882 46.4984 60.3531C46.491 61.5389 46.7976 61.9489 48.0425 61.9452C62.0392 61.9046 76.0396 61.912 90.0363 61.9378C91.0891 61.9378 91.4881 61.6608 91.4844 60.5378C91.4511 46.9068 91.4511 33.2758 91.4881 19.6485C91.4881 18.5477 91.0965 18.3704 90.1324 18.3888C87.1402 18.4442 84.148 18.4147 81.1522 18.4073C78.2228 18.3962 76.8227 17.0183 76.808 14.1111C76.7895 11.1633 76.7526 8.21545 76.8301 5.2713C76.8597 4.11137 76.6233 3.70872 75.3451 3.7198C66.3206 3.7826 57.2961 3.78629 48.2678 3.7198C46.8493 3.70872 46.4836 4.12984 46.491 5.5151C46.5464 14.632 46.5206 23.7489 46.5206 32.8658V32.8621ZM88.4442 15.079C85.7217 12.3195 82.9438 9.50836 80.14 6.66764C80.14 9.17959 80.14 11.7765 80.14 14.3771C80.14 14.9017 80.4392 15.0827 80.9379 15.0827C83.5385 15.0753 86.1354 15.079 88.4405 15.079H88.4442Z" stroke="url(#paint6_linear_0_4)" stroke-width="0.5"/>
<path d="M34.3414 104.733C42.5607 106.624 48.3529 111.209 51.5039 118.889C52.7932 122.025 53.5726 125.313 52.675 128.718C51.5002 133.181 47.4479 136.38 42.8451 136.398C32.3023 136.446 21.7596 136.469 11.2168 136.398C4.8113 136.354 0.0275261 130.414 1.16898 124.079C3.0197 113.817 9.07792 107.478 19.1442 104.907C19.2661 104.877 19.3806 104.814 19.7241 104.674C14.1905 101.139 11.3239 96.2552 11.8263 89.7427C12.1477 85.561 14.0723 82.1071 17.2713 79.3957C23.5179 74.1021 33.1187 74.9443 38.5342 81.0543C43.7575 86.95 44.4188 98.4606 34.3451 104.733H34.3414ZM27.1159 133.103C32.0881 133.103 37.0639 133.111 42.0361 133.103C47.1598 133.092 50.3736 129.358 49.6015 124.33C48.4083 116.576 42.4868 110.115 34.8955 108.301C31.0833 107.393 27.1935 107.662 23.3406 107.751C14.2533 107.965 6.75806 114.338 4.64877 123.155C3.09727 129.653 7.70374 133.451 12.6131 133.162C17.4301 132.882 22.2804 133.1 27.1159 133.1V133.103ZM38.9405 91.0836C38.9184 84.4565 33.61 79.1814 26.9718 79.1962C20.3854 79.2109 15.0623 84.5821 15.0844 91.1833C15.1066 97.7846 20.4629 103.082 27.079 103.049C33.7356 103.015 38.9627 97.7402 38.9405 91.0799V91.0836Z" stroke="url(#paint7_linear_0_4)" stroke-width="0.5"/>
<path d="M118.229 104.763C123.493 105.845 127.76 108.213 131.195 112.018C134.472 115.649 136.36 119.938 136.929 124.77C137.649 130.92 132.832 136.373 126.618 136.406C116.305 136.461 105.995 136.443 95.6809 136.417C88.6659 136.398 83.8267 130.555 85.1603 123.647C87.1403 113.388 93.4903 107.304 103.66 104.67C97.9269 101.002 95.0603 95.9118 95.8361 89.1185C96.283 85.2065 98.1301 81.9632 101.155 79.4401C107.727 73.9693 117.28 74.8928 122.769 81.4349C127.664 87.2678 128.262 98.3979 118.233 104.759L118.229 104.763ZM110.863 133.103C116.068 133.103 121.27 133.137 126.474 133.092C130.734 133.059 133.988 129.494 133.645 125.339C132.972 117.212 126.471 109.901 118.469 108.217C114.956 107.478 111.406 107.729 107.871 107.733C98.1374 107.74 90.0401 114.618 88.4037 124.193C87.5392 129.258 90.7789 133.092 95.9469 133.103C100.919 133.115 105.891 133.103 110.867 133.103H110.863ZM110.996 103.052C117.616 103.038 122.899 97.7219 122.895 91.0911C122.891 84.512 117.524 79.1852 110.911 79.1963C104.306 79.2074 99.0166 84.5453 99.0388 91.1798C99.061 97.8327 104.336 103.067 110.996 103.052Z" stroke="url(#paint8_linear_0_4)" stroke-width="0.5"/>
<path d="M25.3426 53.7664C25.3426 48.4728 25.3352 43.1792 25.3426 37.8857C25.35 34.3653 27.3817 32.3336 30.9243 32.304C33.1334 32.2855 35.3424 32.2892 37.5514 32.304C38.9921 32.3151 39.8159 32.9246 39.8491 33.9515C39.8861 35.0302 39.029 35.684 37.5108 35.6951C35.3461 35.7099 33.1851 35.6914 31.0204 35.7025C29.1475 35.7136 28.6673 36.1938 28.6673 38.0889C28.6636 48.676 28.6673 59.2631 28.6673 69.8502C28.6673 71.7194 28.1833 72.5284 27.0604 72.5432C25.8709 72.5616 25.3426 71.712 25.3426 69.7837C25.3426 64.4458 25.3426 59.1043 25.3426 53.7664Z" stroke="url(#paint9_linear_0_4)" stroke-width="0.5"/>
<path d="M112.637 53.8331C112.637 59.2191 112.637 64.605 112.637 69.9909C112.637 70.4933 112.699 71.003 112.481 71.487C112.134 72.2479 111.539 72.6358 110.719 72.5213C109.973 72.4142 109.463 71.9413 109.353 71.1693C109.29 70.7186 109.316 70.2495 109.316 69.7914C109.316 59.2966 109.316 48.8019 109.316 38.3071C109.316 36.1165 108.917 35.7139 106.756 35.7102C104.639 35.7065 102.522 35.7213 100.406 35.7028C98.9686 35.6917 98.1448 35.0637 98.1301 34.0331C98.1116 32.9951 98.9464 32.3265 100.358 32.3154C102.703 32.2969 105.053 32.2674 107.398 32.3228C110.59 32.3966 112.625 34.4912 112.637 37.6828C112.655 43.0687 112.64 48.4546 112.64 53.8405L112.637 53.8331Z" stroke="url(#paint10_linear_0_4)" stroke-width="0.5"/>
<path d="M85.3117 34.0663C85.2969 43.0281 77.8497 50.4383 68.9213 50.3755C59.9374 50.309 52.6527 42.9394 52.6675 33.9333C52.6823 24.9716 60.111 17.5761 69.0579 17.6242C78.0308 17.6722 85.3302 25.0566 85.3154 34.0663H85.3117ZM76.2022 44.683C77.6392 43.9516 78.6883 42.8434 79.7337 41.2032C78.5922 41.5578 77.5505 40.6824 77.0149 41.8681C76.6233 42.7288 76.3943 43.6671 76.0951 44.5685C75.9695 44.646 75.8845 44.7347 76.0471 44.8529C76.0544 44.8566 76.1468 44.7384 76.2022 44.6793V44.683ZM61.7844 44.6756L61.9358 44.8603C62.0873 44.731 62.0097 44.6497 61.8767 44.5796C61.692 44.0218 61.5184 43.4603 61.3226 42.9062C60.6651 41.0702 60.4508 40.9668 58.4265 41.5689C59.3759 42.8397 60.34 44.007 61.7881 44.6793L61.7844 44.6756ZM68.9323 37.9746C70.4949 37.9746 72.0575 37.9562 73.6164 37.9857C74.237 37.9968 74.4771 37.801 74.5621 37.1435C74.8354 35.0342 74.8243 32.9396 74.5621 30.8303C74.4771 30.1506 74.1963 30.014 73.5979 30.0177C70.5208 30.0361 67.4436 30.0398 64.3665 30.0177C63.7459 30.014 63.5058 30.195 63.4208 30.8525C63.1623 32.9175 63.1586 34.9603 63.4024 37.0289C63.4984 37.8305 63.8013 38.0079 64.5253 37.9894C65.9956 37.9488 67.4658 37.9783 68.936 37.9746H68.9323ZM64.3406 26.7041C67.2848 26.7041 70.0812 26.6967 72.8813 26.7115C73.3984 26.7115 73.6755 26.6339 73.4391 26.0244C72.8332 24.4729 72.1425 22.9694 70.8754 21.8354C69.601 20.6976 68.3413 20.7013 67.0705 21.876C65.689 23.1578 64.9206 24.8017 64.3406 26.7041ZM73.6496 41.2993C70.6907 41.2993 67.8943 41.3066 65.0979 41.2919C64.5586 41.2919 64.3185 41.4138 64.5512 41.9937C65.1977 43.6265 65.9032 45.2223 67.3439 46.3379C68.5223 47.254 69.5862 47.2614 70.7166 46.301C72.2348 45.0155 73.0216 43.2866 73.6533 41.2956L73.6496 41.2993ZM56.0106 34.1217C55.8924 35.0563 56.1251 36.05 56.332 37.0363C56.4095 37.4094 56.4317 37.9303 56.9895 37.9524C57.8613 37.9857 58.7368 37.9709 59.6086 37.9672C60.159 37.9672 60.1479 37.5646 60.0962 37.1915C59.8044 35.0822 59.7896 32.9766 60.0962 30.871C60.1775 30.3243 60.0445 30.0657 59.398 30.0103C56.6275 29.7628 56.1694 30.1285 56.0106 32.9323C55.9884 33.298 56.0106 33.6674 56.0106 34.1254V34.1217ZM81.9501 34.0035C81.9501 34.0035 81.9612 34.0035 81.9686 34.0035C81.9686 33.6341 81.9871 33.2684 81.9686 32.899C81.7987 30.1248 81.4699 29.8625 78.692 30.0066C78.0197 30.0398 77.7832 30.2356 77.883 30.8968C78.1896 32.9544 78.1822 35.0157 77.8978 37.0807C77.8424 37.4722 77.7574 37.8601 78.4002 37.9857C80.8604 38.4733 81.7174 37.8749 81.9464 35.3814C81.9871 34.927 81.9538 34.4616 81.9538 34.0035H81.9501ZM79.5712 26.5157C78.6329 25.0898 77.4988 23.989 75.8328 23.0175C76.1616 23.8486 76.4017 24.4249 76.6196 25.0122C77.0949 26.2879 78.0788 26.7891 79.5712 26.5157ZM62.0097 23.276C60.5616 24.1294 59.1838 25.0085 58.3859 26.8112C59.3833 26.3864 60.4656 27.3727 60.9865 26.0909C61.3633 25.1674 61.6699 24.218 62.0097 23.2797V23.276Z" stroke="url(#paint11_linear_0_4)" stroke-width="0.5"/>
<defs>
<linearGradient id="paint0_linear_0_4" x1="69" y1="0.40625" x2="69" y2="136.443" gradientUnits="userSpaceOnUse">
<stop stop-color="#29D5A6"/>
<stop offset="1" stop-color="#29B8EF"/>
</linearGradient>
<linearGradient id="paint1_linear_0_4" x1="69" y1="0.40625" x2="69" y2="136.443" gradientUnits="userSpaceOnUse">
<stop stop-color="#29D5A6"/>
<stop offset="1" stop-color="#29B8EF"/>
</linearGradient>
<linearGradient id="paint2_linear_0_4" x1="69" y1="0.40625" x2="69" y2="136.443" gradientUnits="userSpaceOnUse">
<stop stop-color="#29D5A6"/>
<stop offset="1" stop-color="#29B8EF"/>
</linearGradient>
<linearGradient id="paint3_linear_0_4" x1="69" y1="0.40625" x2="69" y2="136.443" gradientUnits="userSpaceOnUse">
<stop stop-color="#29D5A6"/>
<stop offset="1" stop-color="#29B8EF"/>
</linearGradient>
<linearGradient id="paint4_linear_0_4" x1="69" y1="0.40625" x2="69" y2="136.443" gradientUnits="userSpaceOnUse">
<stop stop-color="#29D5A6"/>
<stop offset="1" stop-color="#29B8EF"/>
</linearGradient>
<linearGradient id="paint5_linear_0_4" x1="69" y1="0.40625" x2="69" y2="136.443" gradientUnits="userSpaceOnUse">
<stop stop-color="#29D5A6"/>
<stop offset="1" stop-color="#29B8EF"/>
</linearGradient>
<linearGradient id="paint6_linear_0_4" x1="69" y1="0.40625" x2="69" y2="136.443" gradientUnits="userSpaceOnUse">
<stop stop-color="#29D5A6"/>
<stop offset="1" stop-color="#29B8EF"/>
</linearGradient>
<linearGradient id="paint7_linear_0_4" x1="69" y1="0.40625" x2="69" y2="136.443" gradientUnits="userSpaceOnUse">
<stop stop-color="#29D5A6"/>
<stop offset="1" stop-color="#29B8EF"/>
</linearGradient>
<linearGradient id="paint8_linear_0_4" x1="69" y1="0.40625" x2="69" y2="136.443" gradientUnits="userSpaceOnUse">
<stop stop-color="#29D5A6"/>
<stop offset="1" stop-color="#29B8EF"/>
</linearGradient>
<linearGradient id="paint9_linear_0_4" x1="69" y1="0.40625" x2="69" y2="136.443" gradientUnits="userSpaceOnUse">
<stop stop-color="#29D5A6"/>
<stop offset="1" stop-color="#29B8EF"/>
</linearGradient>
<linearGradient id="paint10_linear_0_4" x1="69" y1="0.40625" x2="69" y2="136.443" gradientUnits="userSpaceOnUse">
<stop stop-color="#29D5A6"/>
<stop offset="1" stop-color="#29B8EF"/>
</linearGradient>
<linearGradient id="paint11_linear_0_4" x1="69" y1="0.40625" x2="69" y2="136.443" gradientUnits="userSpaceOnUse">
<stop stop-color="#29D5A6"/>
<stop offset="1" stop-color="#29B8EF"/>
</linearGradient>
</defs>
</svg>
