<svg width="90" height="90" viewBox="0 0 90 90" fill="none" xmlns="http://www.w3.org/2000/svg">
<g clip-path="url(#clip0_5783_37176)">
<circle cx="64.965" cy="48.051" r="15.2541" stroke="url(#paint0_linear_5783_37176)" stroke-width="4" stroke-linecap="round"/>
<path d="M52.862 8.30609H36.0926C35.1594 8.30609 34.4046 9.0587 34.4046 9.9892C34.4046 10.9197 35.1594 11.6723 36.0926 11.6723H52.8482C53.7814 11.6723 54.5361 10.9197 54.5361 9.9892C54.5361 9.0587 53.7814 8.30609 52.862 8.30609Z" fill="url(#paint1_linear_5783_37176)"/>
<path d="M22.4108 11.8776C23.4567 11.8776 24.3046 11.0321 24.3046 9.9892C24.3046 8.94629 23.4567 8.10083 22.4108 8.10083C21.3649 8.10083 20.5171 8.94629 20.5171 9.9892C20.5171 11.0321 21.3649 11.8776 22.4108 11.8776Z" fill="url(#paint2_linear_5783_37176)"/>
<path d="M54.5361 26.533C54.5361 25.6025 53.7814 24.8499 52.8482 24.8499H36.0926C35.1594 24.8499 34.4046 25.6025 34.4046 26.533C34.4046 27.4635 35.1594 28.2161 36.0926 28.2161H52.8482C53.7814 28.2161 54.5361 27.4635 54.5361 26.533Z" fill="url(#paint3_linear_5783_37176)"/>
<path d="M22.4108 28.4213C23.4567 28.4213 24.3046 27.5759 24.3046 26.533C24.3046 25.49 23.4567 24.6446 22.4108 24.6446C21.3649 24.6446 20.5171 25.49 20.5171 26.533C20.5171 27.5759 21.3649 28.4213 22.4108 28.4213Z" fill="url(#paint4_linear_5783_37176)"/>
<path d="M16.9354 53.0386H43.9832C44.9164 53.0386 45.6712 52.286 45.6712 51.3555C45.6712 50.425 44.9164 49.6723 43.9832 49.6723H16.9354C13.2988 49.6723 10.3484 46.7303 10.3484 43.1041V43.0357C10.3484 39.4095 13.2988 36.4674 16.9354 36.4674H47.016C47.9492 36.4674 48.7039 35.7148 48.7039 34.7843C48.7039 33.8538 47.9492 33.1012 47.016 33.1012H16.9354C13.2988 33.1012 10.3484 30.1592 10.3484 26.533V26.4645C10.3484 22.8383 13.2988 19.8963 16.9354 19.8963H56.4162C60.0528 19.8963 63.0032 22.8383 63.0032 26.4645V26.533C63.0032 27.4635 63.7579 28.2161 64.6911 28.2161C65.6243 28.2161 66.379 27.4635 66.379 26.533V26.4645C66.379 23.112 64.7048 20.1563 62.1386 18.35C64.6911 16.6806 66.379 13.7933 66.379 10.5366V9.35975C66.379 4.20094 62.1661 0 56.9925 0H16.3865C11.2129 0 7 4.20094 7 9.35975V10.5366C7 13.807 8.68792 16.6806 11.2404 18.35C8.68792 20.1426 7 23.112 7 26.4645V26.533C7 29.9676 8.75653 32.9917 11.4188 34.7706C8.75653 36.5495 7 39.5737 7 43.0083V43.0767C7 48.5913 11.4599 53.0386 16.9354 53.0386ZM16.3865 16.5848C13.0655 16.5848 10.3621 13.8891 10.3621 10.5776V9.4008C10.3621 6.08931 13.0655 3.39359 16.3865 3.39359H56.9925C60.3135 3.39359 63.0169 6.08931 63.0169 9.4008V10.5776C63.0169 13.8891 60.3135 16.5848 56.9925 16.5848H16.3865Z" fill="url(#paint5_linear_5783_37176)"/>
<path d="M36.0926 41.4073C35.1594 41.4073 34.4046 42.1599 34.4046 43.0904C34.4046 44.0209 35.1594 44.7735 36.0926 44.7735H43.6813C44.6145 44.7735 45.3692 44.0209 45.3692 43.0904C45.3692 42.1599 44.6145 41.4073 43.6813 41.4073H36.0926Z" fill="url(#paint6_linear_5783_37176)"/>
<path d="M22.4108 44.9788C23.4567 44.9788 24.3046 44.1333 24.3046 43.0904C24.3046 42.0475 23.4567 41.202 22.4108 41.202C21.3649 41.202 20.5171 42.0475 20.5171 43.0904C20.5171 44.1333 21.3649 44.9788 22.4108 44.9788Z" fill="url(#paint7_linear_5783_37176)"/>
<path d="M64.2141 46.5175H61.5201L63.6996 48.101L62.8671 50.6632L65.0466 49.0797L67.2261 50.6632L66.3936 48.101L68.5731 46.5175H65.8791L65.0466 43.9553L64.2141 46.5175Z" stroke="url(#paint8_linear_5783_37176)" stroke-width="2" stroke-linecap="round"/>
<path d="M56.1947 61.0176L48.7966 86.3825C48.5867 87.1022 49.3848 87.695 50.0131 87.2861L65.2843 77.3477C65.5725 77.1601 65.9479 77.1755 66.2198 77.3861L80.698 88.5986C81.3007 89.0654 82.1551 88.5146 81.979 87.773L75.2623 59.4922" stroke="url(#paint9_linear_5783_37176)" stroke-width="4" stroke-linecap="round"/>
</g>
<defs>
<linearGradient id="paint0_linear_5783_37176" x1="52.6722" y1="7.61154" x2="75.699" y2="35.288" gradientUnits="userSpaceOnUse">
<stop stop-color="#29D5A6"/>
<stop offset="1" stop-color="#29B8EF"/>
</linearGradient>
<linearGradient id="paint1_linear_5783_37176" x1="36.6895" y1="0" x2="36.6895" y2="53.0386" gradientUnits="userSpaceOnUse">
<stop stop-color="#29D5A6"/>
<stop offset="1" stop-color="#29B8EF"/>
</linearGradient>
<linearGradient id="paint2_linear_5783_37176" x1="36.6895" y1="0" x2="36.6895" y2="53.0386" gradientUnits="userSpaceOnUse">
<stop stop-color="#29D5A6"/>
<stop offset="1" stop-color="#29B8EF"/>
</linearGradient>
<linearGradient id="paint3_linear_5783_37176" x1="36.6895" y1="0" x2="36.6895" y2="53.0386" gradientUnits="userSpaceOnUse">
<stop stop-color="#29D5A6"/>
<stop offset="1" stop-color="#29B8EF"/>
</linearGradient>
<linearGradient id="paint4_linear_5783_37176" x1="36.6895" y1="0" x2="36.6895" y2="53.0386" gradientUnits="userSpaceOnUse">
<stop stop-color="#29D5A6"/>
<stop offset="1" stop-color="#29B8EF"/>
</linearGradient>
<linearGradient id="paint5_linear_5783_37176" x1="36.6895" y1="0" x2="36.6895" y2="53.0386" gradientUnits="userSpaceOnUse">
<stop stop-color="#29D5A6"/>
<stop offset="1" stop-color="#29B8EF"/>
</linearGradient>
<linearGradient id="paint6_linear_5783_37176" x1="36.6895" y1="0" x2="36.6895" y2="53.0386" gradientUnits="userSpaceOnUse">
<stop stop-color="#29D5A6"/>
<stop offset="1" stop-color="#29B8EF"/>
</linearGradient>
<linearGradient id="paint7_linear_5783_37176" x1="36.6895" y1="0" x2="36.6895" y2="53.0386" gradientUnits="userSpaceOnUse">
<stop stop-color="#29D5A6"/>
<stop offset="1" stop-color="#29B8EF"/>
</linearGradient>
<linearGradient id="paint8_linear_5783_37176" x1="64.6663" y1="46.4122" x2="65.3787" y2="47.2685" gradientUnits="userSpaceOnUse">
<stop stop-color="#29D5A6"/>
<stop offset="1" stop-color="#29B8EF"/>
</linearGradient>
<linearGradient id="paint9_linear_5783_37176" x1="51.9646" y1="-2.87879" x2="90.2891" y2="32.9518" gradientUnits="userSpaceOnUse">
<stop stop-color="#29D5A6"/>
<stop offset="1" stop-color="#29B8EF"/>
</linearGradient>
<clipPath id="clip0_5783_37176">
<rect width="90" height="90" fill="white"/>
</clipPath>
</defs>
</svg>
