<svg width="90" height="90" viewBox="0 0 90 90" fill="none" xmlns="http://www.w3.org/2000/svg">
<path d="M61.6156 36.3463H29.6155M30.8463 28.9415H34.5386M45.6156 28.9415H60.3848M61.6156 59.1767H29.6155M30.8463 51.7719H34.5386M45.6156 51.7719H60.3848M44.5533 84.9063C39.3126 82.6679 2.67694 69.002 5.11647 18.2726C5.14591 17.7051 5.57201 17.2179 6.1297 17.1163C22.4525 14.143 29.6077 11.8268 44.4876 5.1091C44.8098 4.96363 45.1902 4.96363 45.5124 5.1091C60.3923 11.8268 67.5475 14.143 83.8703 17.1163C84.428 17.2179 84.8541 17.7051 84.8835 18.2726C87.3231 69.002 50.6874 82.6679 45.4467 84.9063C45.1541 85.0312 44.8459 85.0312 44.5533 84.9063ZM23.4616 36.3463H67.7695C68.4492 36.3463 69.0003 35.7938 69.0003 35.1123V22.7715C69.0003 22.0899 68.4492 21.5374 67.7695 21.5374H23.4616C22.7819 21.5374 22.2308 22.0899 22.2308 22.7715V35.1123C22.2308 35.7938 22.7819 36.3463 23.4616 36.3463ZM23.4616 59.1767H67.7695C68.4492 59.1767 69.0003 58.6242 69.0003 57.9426V45.6019C69.0003 44.9203 68.4492 44.3678 67.7695 44.3678H23.4616C22.7819 44.3678 22.2308 44.9203 22.2308 45.6019V57.9426C22.2308 58.6242 22.7819 59.1767 23.4616 59.1767Z" stroke="url(#paint0_linear_5783_37177)" stroke-width="3.5" stroke-linecap="round"/>
<defs>
<linearGradient id="paint0_linear_5783_37177" x1="45" y1="5" x2="45" y2="85" gradientUnits="userSpaceOnUse">
<stop stop-color="#29D5A6"/>
<stop offset="1" stop-color="#29B8EF"/>
</linearGradient>
</defs>
</svg>
