<svg width="133" height="126" viewBox="0 0 133 126" fill="none" xmlns="http://www.w3.org/2000/svg">
<path d="M8.29067 70.9265C3.74075 67.8894 0.762027 63.938 0.271029 58.6476C-0.0563039 55.088 -0.02357 51.3979 0.467429 47.871C1.05663 43.593 3.57709 40.1967 7.07954 37.5842C7.43961 37.3229 7.79968 37.0617 8.25794 36.7024C7.79968 36.3432 7.43961 36.082 7.07954 35.8207C2.52962 32.3591 0.107363 27.7872 0.0418961 22.0723C0.00916288 18.4148 -0.252702 14.7573 1.08936 11.1977C3.60982 4.60109 9.76367 0.094488 16.834 0.0618315C35.001 -0.00348148 53.2007 -0.036138 71.3676 0.0618315C80.5657 0.094488 87.9634 7.4422 88.2252 16.6513C88.2907 19.6557 88.3234 22.6928 87.7997 25.6319C86.9814 30.3671 84.1663 33.9266 80.1074 36.6045C81.3185 37.6821 82.5624 38.6618 83.6426 39.7721C84.8865 41.0131 84.9192 42.4173 83.9372 43.4297C82.9225 44.4747 81.4167 44.3767 80.1729 43.1031C77.4887 40.3273 74.2482 39.1517 70.4184 39.1517C52.9061 39.1517 35.3938 39.1517 17.8815 39.1517C10.0583 39.1517 4.95188 44.2461 4.95188 52.0836C4.95188 54.0104 4.82095 55.9698 5.08282 57.8965C5.93388 64.1665 10.9421 68.4772 17.325 68.5099C27.4396 68.5425 37.5542 68.5099 47.6688 68.5099C48.127 68.5099 48.5853 68.5099 49.0436 68.5099C50.3856 68.6731 51.3022 69.7182 51.2367 70.9918C51.1712 72.3633 50.3856 73.1144 49.0436 73.343C48.5853 73.4083 48.127 73.343 47.6688 73.343C37.7506 73.343 27.8652 73.343 17.947 73.343C10.0255 73.343 4.95188 78.4374 4.95188 86.373C4.95188 88.3977 4.82095 90.4877 5.14828 92.4797C6.13028 98.5865 11.0403 102.669 17.2268 102.701C28.7817 102.734 40.3038 102.701 51.8586 102.701C57.8815 102.701 63.9044 102.701 69.9274 102.701C71.4004 102.701 72.8734 102.505 74.3464 102.309C75.8848 102.081 77.0632 102.701 77.456 104.073C77.8161 105.379 77.0305 106.685 75.492 107.012C74.0518 107.338 72.5788 107.6 71.1058 107.6C53.2334 107.632 35.3611 107.632 17.4887 107.6C7.53781 107.6 0.107363 100.121 0.0418961 90.1938C0.0418961 87.7119 0.00916258 85.1973 0.336495 82.7481C0.958427 78.2415 3.34795 74.7146 6.91588 71.9388C7.30868 71.6449 7.73421 71.351 8.29067 70.9265ZM44.0026 34.2858C52.9716 34.2858 61.9732 34.2858 70.9421 34.2858C77.3905 34.2858 82.4315 29.9099 83.2171 23.5419C83.5117 21.0926 83.4789 18.5454 83.2825 16.0635C82.7915 9.85878 77.6851 4.99296 71.5313 4.96031C53.2661 4.89499 35.001 4.89499 16.7031 4.96031C11.1057 4.96031 6.22848 9.10768 5.27921 14.6266C4.88642 16.8473 4.98462 19.1985 4.95188 21.4845C4.95188 29.1588 10.1237 34.2858 17.8488 34.2858C26.5886 34.2858 35.2956 34.2858 44.0354 34.2858H44.0026Z" fill="url(#paint0_linear_1_3)"/>
<path d="M99.3543 88.8859C100.5 90.0289 101.646 91.1719 103.02 92.5434C103.413 92.0209 103.741 91.4984 104.166 91.0739C105.672 89.6043 106.883 89.6043 108.389 91.0739C111.793 94.4375 115.164 97.8338 118.569 101.23C122.922 105.573 127.308 109.949 131.662 114.293C133.462 116.089 133.43 117.134 131.662 118.93C129.698 120.922 127.701 122.914 125.705 124.873C124.166 126.376 123.02 126.376 121.482 124.873C113.626 117.068 105.803 109.264 97.9795 101.426C96.4738 99.9238 96.4738 98.7155 97.9795 97.246C98.405 96.8214 98.9288 96.4949 99.4525 96.103C98.0777 94.7314 96.932 93.5884 95.7864 92.4454C84.1333 101.426 69.0761 98.4869 61.1873 88.7879C53.3641 79.1216 54.0842 64.9487 62.9877 56.0988C71.7602 47.3795 85.9009 46.6284 95.5245 54.3027C105.312 62.0749 108.389 77.1622 99.3216 88.9185L99.3543 88.8859ZM80.2708 53.8455C69.5343 53.8455 60.6963 62.5647 60.6636 73.1781C60.6636 84.1507 69.3707 92.9679 80.2708 92.9679C91.0728 92.9679 99.878 84.216 99.878 73.5047C99.878 62.6627 91.1055 53.8455 80.2708 53.8781V53.8455ZM103.086 99.238C109.96 106.096 116.834 112.954 123.544 119.616C124.592 118.701 125.77 117.689 126.687 116.873C119.747 109.949 112.873 103.091 106.097 96.3316C105.148 97.246 104.068 98.291 103.086 99.238Z" fill="url(#paint1_linear_1_3)"/>
<defs>
<linearGradient id="paint0_linear_1_3" x1="66.5" y1="0" x2="66.5" y2="126" gradientUnits="userSpaceOnUse">
<stop stop-color="#FF8860"/>
<stop offset="1" stop-color="#FFF281"/>
</linearGradient>
<linearGradient id="paint1_linear_1_3" x1="66.5" y1="0" x2="66.5" y2="126" gradientUnits="userSpaceOnUse">
<stop stop-color="#FF8860"/>
<stop offset="1" stop-color="#FFF281"/>
</linearGradient>
</defs>
</svg>
