<svg width="244" height="244" viewBox="0 0 244 244" fill="none" xmlns="http://www.w3.org/2000/svg">
<path d="M59.25 81.75H109.5M45 95L199 95M152 82L163.5 82M171.5 82L183 82M64 159.5L82 141.5M102.5 144.5L120.5 126.5M150.5 147L130 126.5M159 147L179.5 126.5M89.5 141.874C91.0141 140.785 92 139.008 92 137C92 133.686 89.3137 131 86 131C82.6863 131 80 133.686 80 137C80 140.314 82.6863 143 86 143C87.3062 143 88.5149 142.583 89.5 141.874ZM89.5 141.874L93.126 145.5M93.126 145.5C92.4174 146.485 92 147.694 92 149C92 152.314 94.6863 155 98 155C101.314 155 104 152.314 104 149C104 145.686 101.314 143 98 143C95.9925 143 94.2152 143.986 93.126 145.5ZM59 179H185C192.732 179 199 172.732 199 165V78C199 70.268 192.732 64 185 64H59C51.268 64 45 70.268 45 78V165C45 172.732 51.268 179 59 179ZM65.5 163.5C65.5 166.814 62.8137 169.5 59.5 169.5C56.1863 169.5 53.5 166.814 53.5 163.5C53.5 160.186 56.1863 157.5 59.5 157.5C62.8137 157.5 65.5 160.186 65.5 163.5ZM131 122C131 125.314 128.314 128 125 128C121.686 128 119 125.314 119 122C119 118.686 121.686 116 125 116C128.314 116 131 118.686 131 122ZM160.5 151.5C160.5 154.814 157.814 157.5 154.5 157.5C151.186 157.5 148.5 154.814 148.5 151.5C148.5 148.186 151.186 145.5 154.5 145.5C157.814 145.5 160.5 148.186 160.5 151.5ZM190.5 122C190.5 125.314 187.814 128 184.5 128C181.186 128 178.5 125.314 178.5 122C178.5 118.686 181.186 116 184.5 116C187.814 116 190.5 118.686 190.5 122Z" stroke="url(#paint0_linear_5940_276516)" stroke-width="4" stroke-linecap="round"/>
<defs>
<linearGradient id="paint0_linear_5940_276516" x1="211.5" y1="64" x2="130.5" y2="137" gradientUnits="userSpaceOnUse">
<stop stop-color="#6015E2"/>
<stop offset="1" stop-color="#FB4794"/>
</linearGradient>
</defs>
</svg>
