<svg width="90" height="90" viewBox="0 0 90 90" fill="none" xmlns="http://www.w3.org/2000/svg">
<path d="M72.0641 49.0933H71.9813L75.162 13.1208C75.2051 12.6166 75.1476 12.1088 74.9926 11.6267C74.8377 11.1445 74.5884 10.6974 74.2591 10.311C73.9298 9.92463 73.5269 9.60652 73.0735 9.37492C72.6201 9.14331 72.1251 9.00276 71.6169 8.96131L26.1429 5.01552C25.1175 4.92405 24.0973 5.23943 23.3056 5.89265C22.514 6.54586 22.0152 7.48371 21.9186 8.50097L21.5044 13.2852H17.8599C16.8476 13.2851 15.8757 13.6796 15.1537 14.3839C14.4317 15.0881 14.0174 16.0457 14 17.0502V78.5881C14 79.6041 14.4067 80.5784 15.1305 81.2968C15.8544 82.0152 16.8362 82.4188 17.8599 82.4188H24.4863C24.8007 83.1794 25.3351 83.8306 26.0221 84.29C26.7091 84.7494 27.5178 84.9965 28.3462 85H72.0641C73.1656 84.9957 74.2207 84.5595 74.9995 83.7866C75.7784 83.0136 76.2179 81.9665 76.2222 80.8734V53.2199C76.2179 52.1268 75.7784 51.0797 74.9995 50.3067C74.2207 49.5338 73.1656 49.0976 72.0641 49.0933ZM25.2318 8.82979C25.238 8.75843 25.2585 8.689 25.2919 8.62552C25.3253 8.56203 25.371 8.50573 25.4265 8.45988C25.4819 8.41403 25.546 8.37952 25.6149 8.35836C25.6839 8.33719 25.7563 8.32978 25.8282 8.33656L71.3187 12.2824C71.3906 12.2885 71.4605 12.3088 71.5245 12.342C71.5885 12.3751 71.6452 12.4205 71.6914 12.4755C71.7376 12.5306 71.7724 12.5941 71.7937 12.6626C71.815 12.731 71.8225 12.8029 71.8156 12.8742L68.6515 49.0933H67.3925V17.0502C67.3925 16.0342 66.9858 15.0599 66.262 14.3415C65.5381 13.6231 64.5563 13.2195 63.5326 13.2195H24.8674L25.2318 8.82979ZM24.1053 60.7334V79.1306H17.8599C17.7149 79.1306 17.5759 79.0735 17.4733 78.9717C17.3708 78.87 17.3132 78.732 17.3132 78.5881V17.0502C17.3132 16.9063 17.3708 16.7683 17.4733 16.6665C17.5759 16.5648 17.7149 16.5076 17.8599 16.5076H63.5326C63.6776 16.5076 63.8166 16.5648 63.9192 16.6665C64.0217 16.7683 64.0793 16.9063 64.0793 17.0502V49.0933H56.2767C54.7706 49.0945 53.3099 49.6048 52.1351 50.5401L45.4259 55.834C44.8341 56.3052 44.0973 56.5606 43.3385 56.5574H28.2965C27.1937 56.5574 26.1361 56.9922 25.3563 57.7661C24.5765 58.54 24.1384 59.5896 24.1384 60.6841L24.1053 60.7334ZM72.909 80.8734C72.909 81.0957 72.82 81.309 72.6615 81.4663C72.5031 81.6235 72.2882 81.7118 72.0641 81.7118H28.2965C28.0725 81.7118 27.8576 81.6235 27.6991 81.4663C27.5407 81.309 27.4517 81.0957 27.4517 80.8734V60.6841C27.4517 60.4617 27.5407 60.2484 27.6991 60.0912C27.8576 59.9339 28.0725 59.8456 28.2965 59.8456H43.3385C44.8503 59.8482 46.3175 59.3377 47.4966 58.3988L54.1231 53.1049C54.7193 52.6416 55.4532 52.3873 56.2104 52.3815H71.9979C72.2219 52.3815 72.4368 52.4698 72.5953 52.627C72.7537 52.7843 72.8427 52.9976 72.8427 53.2199L72.909 80.8734Z" fill="url(#paint0_linear_5783_37181)"/>
<path d="M67.8216 75H61.2878C60.8281 75 60.3873 75.1756 60.0623 75.4882C59.7373 75.8007 59.5547 76.2246 59.5547 76.6667C59.5547 77.1087 59.7373 77.5326 60.0623 77.8452C60.3873 78.1577 60.8281 78.3333 61.2878 78.3333H67.8216C68.2812 78.3333 68.7221 78.1577 69.0471 77.8452C69.3721 77.5326 69.5547 77.1087 69.5547 76.6667C69.5547 76.2246 69.3721 75.8007 69.0471 75.4882C68.7221 75.1756 68.2812 75 67.8216 75Z" fill="url(#paint1_linear_5783_37181)"/>
<path d="M36.7856 26.1107H45.6593C46.1033 26.1107 46.5292 25.9351 46.8432 25.6225C47.1572 25.31 47.3336 24.886 47.3336 24.444C47.3336 24.002 47.1572 23.5781 46.8432 23.2655C46.5292 22.9529 46.1033 22.7773 45.6593 22.7773H36.7856C36.3416 22.7773 35.9157 22.9529 35.6017 23.2655C35.2877 23.5781 35.1113 24.002 35.1113 24.444C35.1113 24.886 35.2877 25.31 35.6017 25.6225C35.9157 25.9351 36.3416 26.1107 36.7856 26.1107Z" fill="url(#paint2_linear_5783_37181)"/>
<path d="M26.7804 35.0013H54.5534C54.996 35.0013 55.4206 34.8257 55.7336 34.5131C56.0466 34.2006 56.2224 33.7767 56.2224 33.3346C56.2224 32.8926 56.0466 32.4687 55.7336 32.1561C55.4206 31.8436 54.996 31.668 54.5534 31.668H26.7804C26.3377 31.668 25.9132 31.8436 25.6002 32.1561C25.2872 32.4687 25.1113 32.8926 25.1113 33.3346C25.1113 33.7767 25.2872 34.2006 25.6002 34.5131C25.9132 34.8257 26.3377 35.0013 26.7804 35.0013Z" fill="url(#paint3_linear_5783_37181)"/>
<path d="M56.2222 41.112C56.2222 40.67 56.0463 40.246 55.7333 39.9335C55.4203 39.6209 54.9958 39.4453 54.5531 39.4453H26.7801C26.3375 39.4453 25.9129 39.6209 25.5999 39.9335C25.2869 40.246 25.1111 40.67 25.1111 41.112C25.1111 41.554 25.2869 41.9779 25.5999 42.2905C25.9129 42.6031 26.3375 42.7786 26.7801 42.7786H54.5531C54.9958 42.7786 55.4203 42.6031 55.7333 42.2905C56.0463 41.9779 56.2222 41.554 56.2222 41.112Z" fill="url(#paint4_linear_5783_37181)"/>
<defs>
<linearGradient id="paint0_linear_5783_37181" x1="45.1111" y1="5" x2="45.1111" y2="85" gradientUnits="userSpaceOnUse">
<stop stop-color="#FF8860"/>
<stop offset="1" stop-color="#FFF281"/>
</linearGradient>
<linearGradient id="paint1_linear_5783_37181" x1="64.5547" y1="75" x2="64.5547" y2="78.3333" gradientUnits="userSpaceOnUse">
<stop stop-color="#FF8860"/>
<stop offset="1" stop-color="#FFF281"/>
</linearGradient>
<linearGradient id="paint2_linear_5783_37181" x1="41.2224" y1="22.7773" x2="41.2224" y2="26.1107" gradientUnits="userSpaceOnUse">
<stop stop-color="#FF8860"/>
<stop offset="1" stop-color="#FFF281"/>
</linearGradient>
<linearGradient id="paint3_linear_5783_37181" x1="40.6669" y1="31.668" x2="40.6669" y2="35.0013" gradientUnits="userSpaceOnUse">
<stop stop-color="#FF8860"/>
<stop offset="1" stop-color="#FFF281"/>
</linearGradient>
<linearGradient id="paint4_linear_5783_37181" x1="40.6666" y1="39.4453" x2="40.6666" y2="42.7786" gradientUnits="userSpaceOnUse">
<stop stop-color="#FF8860"/>
<stop offset="1" stop-color="#FFF281"/>
</linearGradient>
</defs>
</svg>
