<svg width="90" height="90" viewBox="0 0 90 90" fill="none" xmlns="http://www.w3.org/2000/svg">
<path d="M20.9954 61.1256V33.794M45.0011 61.1256V38.3492M69.0068 61.1256V38.3492M16.4307 83.902H73.5715C76.9251 83.902 78.602 83.902 79.7489 83.2427C80.7541 82.6648 81.501 81.7572 81.848 80.6918C82.244 79.4762 81.8373 77.9327 81.0239 74.8458L80.0637 71.2016C79.5436 69.2277 79.2835 68.2407 78.7036 67.5058C78.1919 66.8574 77.5072 66.3502 76.7201 66.0365C75.828 65.6809 74.7558 65.6809 72.6113 65.6809H17.3909C15.2464 65.6809 14.1742 65.6809 13.2821 66.0365C12.495 66.3502 11.8103 66.8574 11.2986 67.5058C10.7187 68.2407 10.4586 69.2277 9.93849 71.2016L8.97827 74.8458C8.16488 77.9327 7.75819 79.4762 8.15417 80.6918C8.50122 81.7572 9.24811 82.6648 10.2533 83.2427C11.4002 83.902 13.0771 83.902 16.4307 83.902ZM12.5801 33.794H77.4221C77.853 33.794 78.0684 33.794 78.2586 33.7317C78.4268 33.6767 78.58 33.5868 78.7071 33.4687C78.8508 33.3352 78.9471 33.1524 79.1398 32.7867L79.9748 31.2024C81.1773 28.9205 81.7785 27.7796 81.7698 26.686C81.7621 25.7241 81.4336 24.7891 80.8314 24.0152C80.1469 23.1353 78.9443 22.5649 76.5393 21.4239L48.4365 8.09207C47.1769 7.4945 46.547 7.19571 45.8864 7.07812C45.3013 6.97396 44.7009 6.97396 44.1158 7.07812C43.4552 7.19571 42.8253 7.4945 41.5657 8.09207L13.4629 21.4239C11.0578 22.5649 9.85534 23.1353 9.17077 24.0152C8.5686 24.7891 8.24013 25.7241 8.23244 26.686C8.22369 27.7796 8.82494 28.9205 10.0274 31.2024L10.8624 32.7867C11.0551 33.1524 11.1514 33.3352 11.2951 33.4687C11.4222 33.5868 11.5754 33.6767 11.7436 33.7317C11.9338 33.794 12.1492 33.794 12.5801 33.794Z" stroke="url(#paint0_linear_5783_37179)" stroke-width="4" stroke-linecap="round"/>
<defs>
<linearGradient id="paint0_linear_5783_37179" x1="45" y1="7" x2="45" y2="83.902" gradientUnits="userSpaceOnUse">
<stop stop-color="#6015E2"/>
<stop offset="1" stop-color="#FB4794"/>
</linearGradient>
</defs>
</svg>
