<svg width="90" height="90" viewBox="0 0 90 90" fill="none" xmlns="http://www.w3.org/2000/svg">
<g clip-path="url(#clip0_5783_38995)">
<path d="M46.0939 58.5353L46.2447 57.0429L46.2422 57.0427L46.0939 58.5353ZM52.5849 65.0683L54.0777 64.9218L54.0775 64.9194L52.5849 65.0683ZM63.5201 65.7842L65.0201 65.793V65.7842H63.5201ZM63.3471 68.1504L61.8618 67.9409C61.7873 68.4691 61.9989 68.9972 62.4177 69.3278L63.3471 68.1504ZM68.4596 72.1863L69.4205 71.0345C69.4102 71.0258 69.3997 71.0173 69.389 71.0089L68.4596 72.1863ZM68.7367 73.7513L67.4373 73.0018L67.4359 73.0043L68.7367 73.7513ZM63.9001 82.1736L65.1924 82.9351C65.1952 82.9302 65.1981 82.9254 65.2008 82.9206L63.9001 82.1736ZM62.4141 82.696L61.8507 84.0862C61.8598 84.0898 61.8689 84.0934 61.878 84.0969L62.4141 82.696ZM57.3367 80.6382L57.9001 79.248L57.8946 79.2459L57.3367 80.6382ZM55.6212 80.8374L56.4757 82.0702L56.4825 82.0654L55.6212 80.8374ZM53.1854 82.2646L52.5276 80.9165L52.5262 80.9172L53.1854 82.2646ZM52.188 83.6463L53.6735 83.8538L53.6738 83.8517L52.188 83.6463ZM51.4269 89.0969L52.9048 89.3536C52.9076 89.3372 52.9102 89.3208 52.9125 89.3044L51.4269 89.0969ZM50.2192 90.1406V91.6406C50.2298 91.6406 50.2405 91.6405 50.2511 91.6403L50.2192 90.1406ZM40.546 90.1406L40.5198 91.6404C40.5285 91.6405 40.5373 91.6406 40.546 91.6406L40.546 90.1406ZM39.3371 89.1311L37.8515 89.3385C37.8558 89.3696 37.8612 89.4006 37.8675 89.4314L39.3371 89.1311ZM38.5772 83.6885L40.0628 83.481L40.062 83.476L38.5772 83.6885ZM37.5594 82.2976L36.9039 83.6469L36.9114 83.6504L37.5594 82.2976ZM35.1326 80.867L35.9957 79.6401L35.993 79.6383L35.1326 80.867ZM33.4239 80.6723L32.861 79.282L32.8607 79.2821L33.4239 80.6723ZM28.3476 82.729L28.8844 84.1296C28.8932 84.1263 28.9021 84.1228 28.9108 84.1192L28.3476 82.729ZM26.8617 82.2077L25.5609 82.9547C25.5639 82.9599 25.5669 82.9651 25.57 82.9703L26.8617 82.2077ZM22.0251 73.7854L23.3258 73.0384L23.3238 73.0349L22.0251 73.7854ZM22.3021 72.2204L21.3721 71.0435C21.362 71.0515 21.352 71.0597 21.3421 71.0679L22.3021 72.2204ZM26.6231 68.806L27.5531 69.9829L27.5593 69.9779L26.6231 68.806ZM27.3016 67.2035L25.807 67.3317L25.8081 67.3436L27.3016 67.2035ZM27.3016 64.3752L28.7955 64.5098L28.7963 64.5009L27.3016 64.3752ZM26.6151 62.7886L25.6848 63.9653L25.6859 63.9661L26.6151 62.7886ZM22.2965 59.3741L21.3243 60.5165C21.338 60.5282 21.352 60.5396 21.3662 60.5508L22.2965 59.3741ZM22.0285 57.8171L23.3279 58.5664L23.3292 58.5641L22.0285 57.8171ZM26.8651 49.3948L25.5727 48.6333C25.5699 48.6382 25.5671 48.643 25.5643 48.6478L26.8651 49.3948ZM28.351 48.8724L28.9144 47.4823C28.9053 47.4786 28.8962 47.475 28.8871 47.4715L28.351 48.8724ZM33.4284 50.9302L32.865 52.3204L32.8705 52.3226L33.4284 50.9302ZM35.1439 50.731L34.2895 49.4982L34.2826 49.503L35.1439 50.731ZM37.5798 49.3038L38.2375 50.6519L38.2389 50.6512L37.5798 49.3038ZM38.5772 47.9221L37.0916 47.7146L37.0913 47.7167L38.5772 47.9221ZM39.3382 42.4715L37.8603 42.2148C37.8575 42.2312 37.8549 42.2476 37.8526 42.264L39.3382 42.4715ZM40.546 41.4278V39.9278C40.5353 39.9278 40.5246 39.9279 40.514 39.9281L40.546 41.4278ZM50.2192 41.4278L50.2453 39.928C50.2366 39.9279 50.2279 39.9278 50.2192 39.9278L50.2192 41.4278ZM51.428 42.4373L52.9136 42.2299C52.9093 42.1988 52.904 42.1678 52.8977 42.137L51.428 42.4373ZM52.188 47.88L50.7024 48.0874L50.7031 48.0924L52.188 47.88ZM53.2057 49.2708L53.8612 47.9215L53.8537 47.918L53.2057 49.2708ZM55.6325 50.7014L54.7694 51.9283L54.7721 51.9301L55.6325 50.7014ZM57.3412 50.8961L57.9042 52.2864L57.9044 52.2863L57.3412 50.8961ZM62.4175 48.8394L61.8807 47.4388C61.8719 47.4422 61.8631 47.4456 61.8543 47.4492L62.4175 48.8394ZM63.9035 49.3607L65.2042 48.6137C65.2012 48.6085 65.1982 48.6033 65.1951 48.5981L63.9035 49.3607ZM68.7401 57.783L67.4393 58.53L67.4413 58.5335L68.7401 57.783ZM68.463 59.348L69.393 60.5249C69.4031 60.5169 69.4131 60.5088 69.423 60.5005L68.463 59.348ZM64.1421 62.7624L63.2121 61.5855L63.2101 61.587L64.1421 62.7624ZM63.4579 64.3649L64.9532 64.2465C64.9527 64.2404 64.9522 64.2343 64.9517 64.2282L63.4579 64.3649ZM20.712 68.0465H22.212V65.0465H20.712V68.0465ZM3.5 66.5465H2V68.0465H3.5V66.5465ZM86.9783 66.5465V68.0465H88.4783V66.5465H86.9783ZM70.9137 65.0465H69.4137V68.0465H70.9137V65.0465ZM63.1683 30.9774H61.6683V33.9774H63.1683V30.9774ZM77.2248 33.9774H78.7248V30.9774H77.2248V33.9774ZM63.1683 24.9143H61.6683V27.9143H63.1683V24.9143ZM77.2248 27.9143H78.7248V24.9143H77.2248V27.9143ZM77.2248 20.6962H78.7248V17.6962H77.2248V20.6962ZM25.5887 17.6962H24.0887V20.6962H25.5887V17.6962ZM3.5 0.140625V-1.35938H2V0.140625H3.5ZM86.9783 0.140625H88.4783V-1.35938H86.9783V0.140625ZM10.6717 4.70377H9.17167V7.70377H10.6717V4.70377ZM58.8653 7.70377H60.3653V4.70377H58.8653V7.70377ZM11.5323 17.4075H10.0323V20.4075H11.5323V17.4075ZM19.5645 20.4075H21.0645V17.4075H19.5645V20.4075ZM70.0531 4.70377H68.5531V7.70377H70.0531V4.70377ZM70.6268 7.70377H72.1268V4.70377H70.6268V7.70377ZM12.6797 22.6045H11.1797V25.6045H12.6797V22.6045ZM13.2535 25.6045H14.7535V22.6045H13.2535V25.6045ZM12.6797 27.8015H11.1797V30.8015H12.6797V27.8015ZM13.2535 30.8015H14.7535V27.8015H13.2535V30.8015ZM12.6797 32.421H11.1797V35.421H12.6797V32.421ZM13.2535 35.421H14.7535V32.421H13.2535V35.421ZM12.6797 37.618H11.1797V40.618H12.6797V37.618ZM13.2535 40.618H14.7535V37.618H13.2535V40.618ZM12.6797 43.3924H11.1797V46.3924H12.6797V43.3924ZM13.2535 46.3924H14.7535V43.3924H13.2535V46.3924ZM17.8433 22.6045H16.3433V25.6045H17.8433V22.6045ZM18.4171 25.6045H19.9171V22.6045H18.4171V25.6045ZM17.8433 27.8015H16.3433V30.8015H17.8433V27.8015ZM18.4171 30.8015H19.9171V27.8015H18.4171V30.8015ZM17.8433 32.421H16.3433V35.421H17.8433V32.421ZM18.4171 35.421H19.9171V32.421H18.4171V35.421ZM17.8433 37.618H16.3433V40.618H17.8433V37.618ZM18.4171 40.618H19.9171V37.618H18.4171V40.618ZM23.0069 22.6045H21.5069V25.6045H23.0069V22.6045ZM23.5807 25.6045H25.0807V22.6045H23.5807V25.6045ZM23.0069 27.8015H21.5069V30.8015H23.0069V27.8015ZM23.5807 30.8015H25.0807V27.8015H23.5807V30.8015ZM23.0069 32.421H21.5069V35.421H23.0069V32.421ZM23.5807 35.421H25.0807V32.421H23.5807V35.421ZM23.0069 37.618H21.5069V40.618H23.0069V37.618ZM23.5807 40.618H25.0807V37.618H23.5807V40.618ZM28.1706 22.6045H26.6706V25.6045H28.1706V22.6045ZM28.7443 25.6045H30.2443V22.6045H28.7443V25.6045ZM28.1706 27.8015H26.6706V30.8015H28.1706V27.8015ZM28.7443 30.8015H30.2443V27.8015H28.7443V30.8015ZM28.1706 32.421H26.6706V35.421H28.1706V32.421ZM28.7443 35.421H30.2443V32.421H28.7443V35.421ZM33.3342 22.6045H31.8342V25.6045H33.3342V22.6045ZM33.9079 25.6045H35.4079V22.6045H33.9079V25.6045ZM33.3342 27.8015H31.8342V30.8015H33.3342V27.8015ZM33.9079 30.8015H35.4079V27.8015H33.9079V30.8015ZM38.4978 22.6045H36.9978V25.6045H38.4978V22.6045ZM39.0715 25.6045H40.5715V22.6045H39.0715V25.6045ZM75.2167 4.70377H73.7167V7.70377H75.2167V4.70377ZM75.7905 7.70377H77.2905V4.70377H75.7905V7.70377ZM80.3803 4.70377H78.8803V7.70377H80.3803V4.70377ZM80.9541 7.70377H82.4541V4.70377H80.9541V7.70377ZM46.2422 57.0427C44.4473 56.8643 42.642 57.2487 41.0738 58.1424L42.5592 60.7489C43.5879 60.1626 44.7705 59.9112 45.9455 60.028L46.2422 57.0427ZM41.0738 58.1424C39.5057 59.036 38.2521 60.3947 37.483 62.0308L40.1979 63.3071C40.7051 62.2282 41.5304 61.3352 42.5592 60.7489L41.0738 58.1424ZM37.483 62.0308C36.7139 63.6669 36.4663 65.5014 36.7734 67.2838L39.7298 66.7743C39.527 65.5972 39.6907 64.3861 40.1979 63.3071L37.483 62.0308ZM36.7734 67.2838C37.0806 69.0662 37.9279 70.7109 39.2009 71.9921L41.329 69.8777C40.4918 69.0351 39.9327 67.9513 39.7298 66.7743L36.7734 67.2838ZM39.2009 71.9921C40.474 73.2735 42.1108 74.1287 43.8878 74.4389L44.4037 71.4836C43.2402 71.2805 42.1661 70.7202 41.329 69.8777L39.2009 71.9921ZM43.8878 74.4389C45.6647 74.7491 47.4933 74.4988 49.1227 73.7229L47.8329 71.0143C46.7647 71.523 45.5671 71.6867 44.4037 71.4836L43.8878 74.4389ZM49.1227 73.7229C50.7519 72.9471 52.1014 71.6842 52.9877 70.1088L50.3731 68.6378C49.789 69.6761 48.9013 70.5056 47.8329 71.0143L49.1227 73.7229ZM52.9877 70.1088C53.874 68.5335 54.2544 66.7219 54.0777 64.9218L51.0921 65.2148C51.2087 66.4038 50.9573 67.5994 50.3731 68.6378L52.9877 70.1088ZM54.0775 64.9194C53.8762 62.9021 52.988 61.0154 51.5612 59.5794L49.433 61.6938C50.3722 62.6391 50.9592 63.8837 51.0923 65.2173L54.0775 64.9194ZM51.5612 59.5794C50.1342 58.1432 48.2562 57.2463 46.2447 57.0429L45.943 60.0277C47.2608 60.1609 48.494 60.7488 49.433 61.6938L51.5612 59.5794ZM62.0201 65.7754C62.0159 66.5 61.963 67.2235 61.8618 67.9409L64.8324 68.36C64.9524 67.5095 65.0151 66.6519 65.0201 65.793L62.0201 65.7754ZM62.4177 69.3278L67.5302 73.3637L69.389 71.0089L64.2765 66.9731L62.4177 69.3278ZM67.4987 73.3381C67.4486 73.2963 67.4166 73.2396 67.4059 73.1792L70.36 72.6562C70.2478 72.0227 69.9159 71.4478 69.4205 71.0345L67.4987 73.3381ZM67.4059 73.1792C67.3953 73.1189 67.406 73.0562 67.4373 73.0018L70.036 74.5008C70.3578 73.943 70.4721 73.2896 70.36 72.6562L67.4059 73.1792ZM67.4359 73.0043L62.5993 81.4266L65.2008 82.9206L70.0375 74.4982L67.4359 73.0043ZM62.6077 81.4121C62.6396 81.3579 62.6909 81.3147 62.7542 81.2924L63.7493 84.1226C64.3563 83.9092 64.8667 83.4877 65.1924 82.9351L62.6077 81.4121ZM62.7542 81.2924C62.8178 81.2701 62.8875 81.271 62.9503 81.2951L61.878 84.0969C62.4791 84.3269 63.142 84.3361 63.7493 84.1226L62.7542 81.2924ZM62.9775 81.3058L57.9001 79.248L56.7733 82.0284L61.8507 84.0862L62.9775 81.3058ZM57.8946 79.2459C57.3831 79.0409 56.8286 78.9667 56.281 79.0302L56.627 82.0102C56.6782 82.0043 56.7302 82.0111 56.7787 82.0306L57.8946 79.2459ZM56.281 79.0302C55.7334 79.0938 55.2108 79.293 54.7599 79.6093L56.4825 82.0654C56.5261 82.0349 56.5758 82.0162 56.627 82.0102L56.281 79.0302ZM54.7667 79.6045C54.0543 80.0983 53.3058 80.5369 52.5276 80.9165L53.8431 83.6127C54.7582 83.1663 55.6382 82.6506 56.4756 82.0702L54.7667 79.6045ZM52.5262 80.9172C52.0379 81.1561 51.6166 81.5118 51.2988 81.952L53.7312 83.7079C53.7613 83.6662 53.8005 83.6336 53.8445 83.612L52.5262 80.9172ZM51.2988 81.952C50.981 82.3922 50.7764 82.9036 50.7021 83.441L53.6738 83.8517C53.6811 83.799 53.7011 83.7497 53.7312 83.7079L51.2988 81.952ZM50.7024 83.4389L49.9413 88.8895L52.9125 89.3044L53.6735 83.8538L50.7024 83.4389ZM49.949 88.8403C49.9581 88.7881 49.9852 88.7388 50.0281 88.7017L51.9896 90.9716C52.4731 90.5538 52.7957 89.9815 52.9048 89.3536L49.949 88.8403ZM50.0281 88.7017C50.0712 88.6644 50.1274 88.6422 50.1872 88.641L50.2511 91.6403C50.8915 91.6266 51.506 91.3895 51.9896 90.9716L50.0281 88.7017ZM50.2192 88.6406H40.546V91.6406H50.2192V88.6406ZM40.5721 88.6409C40.63 88.6419 40.6845 88.6627 40.7269 88.6981L38.804 91.0008C39.2858 91.4032 39.891 91.6294 40.5198 91.6404L40.5721 88.6409ZM40.7269 88.6981C40.7691 88.7334 40.7964 88.7805 40.8067 88.8307L37.8675 89.4314C37.9928 90.0447 38.3223 90.5985 38.804 91.0008L40.7269 88.6981ZM40.8227 88.9237L40.0628 83.481L37.0916 83.8959L37.8515 89.3385L40.8227 88.9237ZM40.062 83.476C39.9846 82.9347 39.7754 82.4203 39.4522 81.9787L37.0312 83.7503C37.0631 83.7939 37.0844 83.8456 37.0923 83.9009L40.062 83.476ZM39.4522 81.9787C39.129 81.537 38.7016 81.1815 38.2074 80.9448L36.9114 83.6504C36.9579 83.6727 36.9993 83.7067 37.0312 83.7503L39.4522 81.9787ZM38.2149 80.9484C37.4417 80.5728 36.6996 80.1353 35.9957 79.6401L34.2696 82.0938C35.1049 82.6815 35.9859 83.2008 36.9039 83.6468L38.2149 80.9484ZM35.993 79.6383C35.5422 79.3226 35.0197 79.1243 34.4725 79.0619L34.133 82.0427C34.1823 82.0483 34.2302 82.0662 34.2722 82.0957L35.993 79.6383ZM34.4725 79.0619C33.9252 78.9996 33.3713 79.0753 32.861 79.282L33.9869 82.0627C34.0335 82.0438 34.0836 82.037 34.133 82.0427L34.4725 79.0619ZM32.8607 79.2821L27.7843 81.3388L28.9108 84.1192L33.9872 82.0626L32.8607 79.2821ZM27.8108 81.3283C27.8736 81.3043 27.9432 81.3033 28.0068 81.3255L27.0137 84.1564C27.6208 84.3694 28.2836 84.3599 28.8844 84.1296L27.8108 81.3283ZM28.0068 81.3255C28.0701 81.3478 28.1214 81.391 28.1533 81.4451L25.57 82.9703C25.8961 83.5226 26.4067 83.9435 27.0137 84.1564L28.0068 81.3255ZM28.1624 81.4607L23.3258 73.0384L20.7243 74.5324L25.5609 82.9547L28.1624 81.4607ZM23.3238 73.0349C23.3554 73.0896 23.3662 73.1526 23.3555 73.2133L20.4014 72.6903C20.2892 73.3241 20.4039 73.978 20.7263 74.5359L23.3238 73.0349ZM23.3555 73.2133C23.3447 73.274 23.3125 73.331 23.2621 73.373L21.3421 71.0679C20.8461 71.4811 20.5136 72.0564 20.4014 72.6903L23.3555 73.2133ZM23.2321 73.3973L27.5531 69.9829L25.6931 67.6291L21.3721 71.0435L23.2321 73.3973ZM27.5593 69.9779C27.9915 69.6326 28.3302 69.185 28.5456 68.6762L25.783 67.5065C25.7615 67.5575 25.7281 67.6011 25.6868 67.6341L27.5593 69.9779ZM28.5456 68.6762C28.761 68.1675 28.8466 67.6132 28.795 67.0633L25.8081 67.3436C25.8134 67.3995 25.8046 67.4556 25.783 67.5065L28.5456 68.6762ZM28.7961 67.0753C28.7581 66.633 28.736 66.2034 28.736 65.7808H25.736C25.736 66.3074 25.7636 66.8247 25.807 67.3317L28.7961 67.0753ZM28.736 65.7808C28.736 65.3565 28.7572 64.935 28.7955 64.5098L25.8076 64.2406C25.7622 64.744 25.736 65.2559 25.736 65.7808H28.736ZM28.7963 64.5009C28.8423 63.9536 28.7524 63.4032 28.5342 62.899L25.7809 64.0902C25.8024 64.1399 25.8114 64.1947 25.8068 64.2495L28.7963 64.5009ZM28.5342 62.899C28.3161 62.3947 27.9762 61.9519 27.5444 61.6111L25.6859 63.9661C25.7264 63.9981 25.7594 64.0405 25.7809 64.0902L28.5342 62.899ZM27.5454 61.6119L23.2268 58.1975L21.3662 60.5508L25.6848 63.9653L27.5454 61.6119ZM23.2686 58.2318C23.3179 58.2737 23.3492 58.3302 23.3595 58.3902L20.403 58.8991C20.5114 59.5285 20.8366 60.1014 21.3243 60.5165L23.2686 58.2318ZM23.3595 58.3902C23.3699 58.4502 23.3591 58.5124 23.3279 58.5664L20.729 57.0679C20.4097 57.6217 20.2947 58.2698 20.403 58.8991L23.3595 58.3902ZM23.3292 58.5641L28.1658 50.1418L25.5643 48.6478L20.7277 57.0702L23.3292 58.5641ZM28.1574 50.1563C28.1255 50.2105 28.0742 50.2537 28.0109 50.276L27.0159 47.4458C26.4088 47.6592 25.8984 48.0807 25.5727 48.6333L28.1574 50.1563ZM28.0109 50.276C27.9473 50.2984 27.8776 50.2974 27.8148 50.2733L28.8871 47.4715C28.286 47.2415 27.6231 47.2323 27.0159 47.4458L28.0109 50.276ZM27.7876 50.2626L32.865 52.3204L33.9919 49.54L28.9144 47.4823L27.7876 50.2626ZM32.8705 52.3226C33.382 52.5276 33.9366 52.6017 34.4841 52.5382L34.1381 49.5582C34.0869 49.5641 34.0349 49.5573 33.9864 49.5378L32.8705 52.3226ZM34.4841 52.5382C35.0317 52.4746 35.5543 52.2754 36.0053 51.9591L34.2826 49.503C34.239 49.5335 34.1894 49.5522 34.1381 49.5582L34.4841 52.5382ZM35.9984 51.9639C36.7108 51.4701 37.4593 51.0315 38.2375 50.6519L36.9221 47.9557C36.0069 48.4021 35.1269 48.9178 34.2895 49.4982L35.9984 51.9639ZM38.2389 50.6512C38.7272 50.4123 39.1486 50.0566 39.4663 49.6164L37.0339 47.8605C37.0038 47.9022 36.9647 47.9348 36.9206 47.9564L38.2389 50.6512ZM39.4663 49.6164C39.7841 49.1762 39.9888 48.6648 40.063 48.1274L37.0913 47.7167C37.084 47.7694 37.064 47.8187 37.0339 47.8605L39.4663 49.6164ZM40.0628 48.1295L40.8238 42.6789L37.8526 42.264L37.0916 47.7146L40.0628 48.1295ZM40.8161 42.7281C40.807 42.7803 40.7799 42.8297 40.737 42.8667L38.7755 40.5968C38.292 41.0146 37.9694 41.5869 37.8603 42.2148L40.8161 42.7281ZM40.737 42.8667C40.6939 42.904 40.6378 42.9262 40.5779 42.9274L40.514 39.9281C39.8736 39.9418 39.2592 40.1789 38.7755 40.5968L40.737 42.8667ZM40.546 42.9278H50.2192V39.9278H40.546V42.9278ZM50.1931 42.9276C50.1351 42.9265 50.0806 42.9057 50.0382 42.8703L51.9612 40.5676C51.4793 40.1652 50.8742 39.939 50.2453 39.928L50.1931 42.9276ZM50.0382 42.8703C49.996 42.8351 49.9687 42.7879 49.9584 42.7377L52.8977 42.137C52.7723 41.5237 52.4428 40.9699 51.9612 40.5676L50.0382 42.8703ZM49.9424 42.6447L50.7024 48.0874L53.6735 47.6725L52.9136 42.2299L49.9424 42.6447ZM50.7031 48.0924C50.7805 48.6337 50.9897 49.1481 51.3129 49.5897L53.7339 47.8181C53.702 47.7744 53.6807 47.7228 53.6728 47.6675L50.7031 48.0924ZM51.3129 49.5897C51.6361 50.0314 52.0635 50.3869 52.5577 50.6236L53.8537 47.918C53.8072 47.8957 53.7658 47.8617 53.7339 47.8181L51.3129 49.5897ZM52.5502 50.62C53.3234 50.9956 54.0656 51.4331 54.7694 51.9283L56.4956 49.4746C55.6602 48.8869 54.7792 48.3676 53.8612 47.9216L52.5502 50.62ZM54.7721 51.9301C55.2229 52.2458 55.7454 52.4441 56.2927 52.5065L56.6322 49.5257C56.5828 49.5201 56.535 49.5022 56.4929 49.4727L54.7721 51.9301ZM56.2927 52.5065C56.8399 52.5688 57.3938 52.4931 57.9042 52.2864L56.7782 49.5057C56.7316 49.5246 56.6815 49.5314 56.6322 49.5257L56.2927 52.5065ZM57.9044 52.2863L62.9808 50.2297L61.8543 47.4492L56.778 49.5058L57.9044 52.2863ZM62.9544 50.2401C62.8916 50.2641 62.8219 50.2651 62.7584 50.2429L63.7515 47.412C63.1443 47.199 62.4815 47.2085 61.8807 47.4388L62.9544 50.2401ZM62.7584 50.2429C62.695 50.2206 62.6437 50.1774 62.6118 50.1233L65.1951 48.5981C64.8691 48.0458 64.3585 47.6249 63.7515 47.412L62.7584 50.2429ZM62.6027 50.1077L67.4393 58.53L70.0408 57.036L65.2042 48.6137L62.6027 50.1077ZM67.4413 58.5335C67.4097 58.4789 67.3989 58.4158 67.4097 58.3551L70.3637 58.8781C70.476 58.2442 70.3612 57.5904 70.0388 57.0325L67.4413 58.5335ZM67.4097 58.3551C67.4204 58.2944 67.4526 58.2374 67.503 58.1954L69.423 60.5005C69.919 60.0873 70.2515 59.5121 70.3637 58.8781L67.4097 58.3551ZM67.533 58.1711L63.2121 61.5855L65.0721 63.9393L69.393 60.5249L67.533 58.1711ZM63.2101 61.587C62.7761 61.9312 62.4354 62.3784 62.2181 62.8872L64.9772 64.0651C64.999 64.0142 65.0325 63.9707 65.074 63.9378L63.2101 61.587ZM62.2181 62.8872C62.0009 63.396 61.9137 63.9509 61.9642 64.5017L64.9517 64.2282C64.9465 64.1722 64.9555 64.1161 64.9772 64.0651L62.2181 62.8872ZM61.9626 64.4834C61.9979 64.9291 62.0201 65.361 62.0201 65.7842H65.0201C65.0201 65.2582 64.9926 64.7432 64.9532 64.2465L61.9626 64.4834ZM20.712 65.0465H3.5V68.0465H20.712V65.0465ZM86.9783 65.0465H70.9137V68.0465H86.9783V65.0465ZM63.1683 33.9774H77.2248V30.9774H63.1683V33.9774ZM63.1683 27.9143H77.2248V24.9143H63.1683V27.9143ZM77.2248 17.6962H25.5887V20.6962H77.2248V17.6962ZM5 66.5465V11.4008H2V66.5465H5ZM5 11.4008V0.140625H2V11.4008H5ZM85.4783 0.140625V11.4008H88.4783V0.140625H85.4783ZM85.4783 11.4008V66.5465H88.4783V11.4008H85.4783ZM10.6717 7.70377H58.8653V4.70377H10.6717V7.70377ZM3.5 1.64062H65.4632V-1.35938H3.5V1.64062ZM65.4632 1.64062H86.9783V-1.35938H65.4632V1.64062ZM3.5 12.9008H65.4632V9.90076H3.5V12.9008ZM65.4632 12.9008H86.9783V9.90076H65.4632V12.9008ZM63.9632 0.140625V11.4008H66.9632V0.140625H63.9632ZM11.5323 20.4075H19.5645V17.4075H11.5323V20.4075ZM70.0531 7.70377H70.6268V4.70377H70.0531V7.70377ZM12.6797 25.6045H13.2535V22.6045H12.6797V25.6045ZM12.6797 30.8015H13.2535V27.8015H12.6797V30.8015ZM12.6797 35.421H13.2535V32.421H12.6797V35.421ZM12.6797 40.618H13.2535V37.618H12.6797V40.618ZM12.6797 46.3924H13.2535V43.3924H12.6797V46.3924ZM17.8433 25.6045H18.4171V22.6045H17.8433V25.6045ZM17.8433 30.8015H18.4171V27.8015H17.8433V30.8015ZM17.8433 35.421H18.4171V32.421H17.8433V35.421ZM17.8433 40.618H18.4171V37.618H17.8433V40.618ZM23.0069 25.6045H23.5807V22.6045H23.0069V25.6045ZM23.0069 30.8015H23.5807V27.8015H23.0069V30.8015ZM23.0069 35.421H23.5807V32.421H23.0069V35.421ZM23.0069 40.618H23.5807V37.618H23.0069V40.618ZM28.1706 25.6045H28.7443V22.6045H28.1706V25.6045ZM28.1706 30.8015H28.7443V27.8015H28.1706V30.8015ZM28.1706 35.421H28.7443V32.421H28.1706V35.421ZM33.3342 25.6045H33.9079V22.6045H33.3342V25.6045ZM33.3342 30.8015H33.9079V27.8015H33.3342V30.8015ZM38.4978 25.6045H39.0715V22.6045H38.4978V25.6045ZM75.2167 7.70377H75.7905V4.70377H75.2167V7.70377ZM80.3803 7.70377H80.9541V4.70377H80.3803V7.70377Z" fill="url(#paint0_linear_5783_38995)"/>
</g>
<defs>
<linearGradient id="paint0_linear_5783_38995" x1="45.2391" y1="0.140625" x2="45.2391" y2="90.1406" gradientUnits="userSpaceOnUse">
<stop stop-color="#FF8860"/>
<stop offset="1" stop-color="#FFF281"/>
</linearGradient>
<clipPath id="clip0_5783_38995">
<rect width="90" height="90" fill="white"/>
</clipPath>
</defs>
</svg>
