<svg width="244" height="244" viewBox="0 0 244 244" fill="none" xmlns="http://www.w3.org/2000/svg">
<rect x="146.685" y="44" width="42.7782" height="44.9412" rx="6" stroke="url(#paint0_linear_5940_276512)" stroke-width="4"/>
<rect x="146.685" y="100.471" width="42.7782" height="43.0588" rx="6" stroke="url(#paint1_linear_5940_276512)" stroke-width="4"/>
<rect x="146.685" y="155.059" width="42.7782" height="44.9412" rx="6" stroke="url(#paint2_linear_5940_276512)" stroke-width="4"/>
<path d="M157.78 64.4173L164.279 72.2753C165.039 73.195 166.431 73.2482 167.259 72.3894L180.234 58.9414" stroke="url(#paint3_linear_5940_276512)" stroke-width="4" stroke-linecap="round"/>
<path d="M157.78 120.886L164.279 128.744C165.039 129.664 166.431 129.717 167.259 128.858L180.234 115.41" stroke="url(#paint4_linear_5940_276512)" stroke-width="4" stroke-linecap="round"/>
<path d="M157.78 176.674L164.359 183.635C165.107 184.426 166.35 184.474 167.156 183.743L180.234 171.883" stroke="url(#paint5_linear_5940_276512)" stroke-width="4" stroke-linecap="round"/>
<path d="M145.62 66.4688H127.974C126.869 66.4688 125.974 67.3642 125.974 68.4687V177.41C125.974 178.514 126.869 179.41 127.974 179.41H145.62" stroke="url(#paint6_linear_5940_276512)" stroke-width="4"/>
<path d="M104.455 122.941H144.684" stroke="url(#paint7_linear_5940_276512)" stroke-width="4"/>
<mask id="path-9-inside-1_5940_276512" fill="white">
<path d="M108.933 130.596L104.556 126.831C104.763 125.554 104.87 124.249 104.87 122.945C104.87 121.641 104.763 120.337 104.556 119.06L108.933 115.295C109.263 115.01 109.5 114.632 109.611 114.209C109.722 113.786 109.702 113.34 109.555 112.928L109.495 112.754C108.29 109.366 106.485 106.225 104.169 103.483L104.048 103.342C103.767 103.009 103.393 102.77 102.974 102.656C102.555 102.542 102.112 102.559 101.703 102.703L96.2698 104.646C94.265 102.992 92.0264 101.688 89.6073 100.774L88.5581 95.0595C88.4789 94.6295 88.2716 94.234 87.9637 93.9254C87.6557 93.6168 87.2617 93.4097 86.834 93.3318L86.6536 93.2982C83.1719 92.6662 79.5099 92.6662 76.0282 93.2982L75.8478 93.3318C75.4201 93.4097 75.0261 93.6168 74.7181 93.9254C74.4102 94.234 74.2028 94.6295 74.1237 95.0595L73.0678 100.801C70.668 101.715 68.4332 103.019 66.4521 104.66L60.979 102.703C60.5698 102.558 60.1263 102.541 59.7073 102.655C59.2883 102.769 58.9138 103.009 58.6334 103.342L58.5132 103.483C56.1993 106.227 54.3952 109.367 53.1871 112.754L53.127 112.928C52.8263 113.769 53.0735 114.71 53.7485 115.295L58.179 119.1C57.9719 120.364 57.8716 121.654 57.8716 122.939C57.8716 124.229 57.9719 125.52 58.179 126.777L53.7485 130.582C53.4183 130.867 53.182 131.245 53.071 131.668C52.96 132.091 52.9795 132.537 53.127 132.949L53.1871 133.123C54.3967 136.512 56.1876 139.638 58.5132 142.394L58.6334 142.535C58.9145 142.868 59.289 143.107 59.7077 143.221C60.1265 143.335 60.5697 143.318 60.979 143.174L66.4521 141.218C68.4435 142.865 70.6688 144.169 73.0678 145.076L74.1237 150.818C74.2028 151.247 74.4102 151.643 74.7181 151.952C75.0261 152.26 75.4201 152.467 75.8478 152.545L76.0282 152.579C79.5419 153.214 83.1399 153.214 86.6536 152.579L86.834 152.545C87.2617 152.467 87.6557 152.26 87.9637 151.952C88.2716 151.643 88.4789 151.247 88.5581 150.818L89.6073 145.103C92.0254 144.191 94.2767 142.883 96.2698 141.231L101.703 143.174C102.112 143.319 102.556 143.336 102.974 143.222C103.393 143.108 103.768 142.868 104.048 142.535L104.169 142.394C106.494 139.631 108.285 136.512 109.495 133.123L109.555 132.949C109.856 132.122 109.608 131.181 108.933 130.596ZM99.8116 119.853C99.9786 120.868 100.066 121.91 100.066 122.952C100.066 123.994 99.9786 125.036 99.8116 126.051L99.3705 128.747L104.362 133.043C103.606 134.797 102.65 136.457 101.516 137.991L95.3142 135.779L93.2159 137.513C91.6187 138.831 89.8412 139.866 87.9166 140.592L85.3705 141.554L84.1743 148.075C82.287 148.29 80.3815 148.29 78.4941 148.075L77.2979 141.54L74.7719 140.565C72.8674 139.839 71.0965 138.804 69.5127 137.493L67.4144 135.752L61.1728 137.984C60.0368 136.444 59.0879 134.784 58.326 133.036L63.3714 128.7L62.937 126.011C62.7766 125.009 62.6898 123.974 62.6898 122.952C62.6898 121.923 62.77 120.895 62.937 119.893L63.3714 117.204L58.326 112.868C59.0812 111.113 60.0368 109.46 61.1728 107.92L67.4144 110.152L69.5127 108.411C71.0965 107.1 72.8674 106.065 74.7719 105.339L77.3046 104.377L78.5008 97.8427C80.3786 97.6276 82.2965 97.6276 84.181 97.8427L85.3772 104.364L87.9233 105.325C89.8412 106.051 91.6254 107.086 93.2225 108.404L95.3209 110.139L101.522 107.927C102.658 109.466 103.607 111.127 104.369 112.875L99.3772 117.17L99.8116 119.853ZM81.3476 110.448C74.8521 110.448 69.5862 115.745 69.5862 122.28C69.5862 128.814 74.8521 134.112 81.3476 134.112C87.8431 134.112 93.1089 128.814 93.1089 122.28C93.1089 115.745 87.8431 110.448 81.3476 110.448ZM86.6402 127.604C85.946 128.304 85.121 128.86 84.2127 129.238C83.3044 129.617 82.3307 129.811 81.3476 129.809C79.3495 129.809 77.4717 129.023 76.055 127.604C75.3588 126.906 74.8067 126.076 74.4306 125.162C74.0544 124.248 73.8615 123.269 73.8631 122.28C73.8631 120.27 74.6449 118.381 76.055 116.955C77.4717 115.53 79.3495 114.75 81.3476 114.75C83.3457 114.75 85.2235 115.53 86.6402 116.955C87.3364 117.654 87.8884 118.484 88.2646 119.397C88.6407 120.311 88.8336 121.291 88.8321 122.28C88.8321 124.29 88.0502 126.179 86.6402 127.604Z"/>
</mask>
<path d="M108.933 130.596L104.556 126.831C104.763 125.554 104.87 124.249 104.87 122.945C104.87 121.641 104.763 120.337 104.556 119.06L108.933 115.295C109.263 115.01 109.5 114.632 109.611 114.209C109.722 113.786 109.702 113.34 109.555 112.928L109.495 112.754C108.29 109.366 106.485 106.225 104.169 103.483L104.048 103.342C103.767 103.009 103.393 102.77 102.974 102.656C102.555 102.542 102.112 102.559 101.703 102.703L96.2698 104.646C94.265 102.992 92.0264 101.688 89.6073 100.774L88.5581 95.0595C88.4789 94.6295 88.2716 94.234 87.9637 93.9254C87.6557 93.6168 87.2617 93.4097 86.834 93.3318L86.6536 93.2982C83.1719 92.6662 79.5099 92.6662 76.0282 93.2982L75.8478 93.3318C75.4201 93.4097 75.0261 93.6168 74.7181 93.9254C74.4102 94.234 74.2028 94.6295 74.1237 95.0595L73.0678 100.801C70.668 101.715 68.4332 103.019 66.4521 104.66L60.979 102.703C60.5698 102.558 60.1263 102.541 59.7073 102.655C59.2883 102.769 58.9138 103.009 58.6334 103.342L58.5132 103.483C56.1993 106.227 54.3952 109.367 53.1871 112.754L53.127 112.928C52.8263 113.769 53.0735 114.71 53.7485 115.295L58.179 119.1C57.9719 120.364 57.8716 121.654 57.8716 122.939C57.8716 124.229 57.9719 125.52 58.179 126.777L53.7485 130.582C53.4183 130.867 53.182 131.245 53.071 131.668C52.96 132.091 52.9795 132.537 53.127 132.949L53.1871 133.123C54.3967 136.512 56.1876 139.638 58.5132 142.394L58.6334 142.535C58.9145 142.868 59.289 143.107 59.7077 143.221C60.1265 143.335 60.5697 143.318 60.979 143.174L66.4521 141.218C68.4435 142.865 70.6688 144.169 73.0678 145.076L74.1237 150.818C74.2028 151.247 74.4102 151.643 74.7181 151.952C75.0261 152.26 75.4201 152.467 75.8478 152.545L76.0282 152.579C79.5419 153.214 83.1399 153.214 86.6536 152.579L86.834 152.545C87.2617 152.467 87.6557 152.26 87.9637 151.952C88.2716 151.643 88.4789 151.247 88.5581 150.818L89.6073 145.103C92.0254 144.191 94.2767 142.883 96.2698 141.231L101.703 143.174C102.112 143.319 102.556 143.336 102.974 143.222C103.393 143.108 103.768 142.868 104.048 142.535L104.169 142.394C106.494 139.631 108.285 136.512 109.495 133.123L109.555 132.949C109.856 132.122 109.608 131.181 108.933 130.596ZM99.8116 119.853C99.9786 120.868 100.066 121.91 100.066 122.952C100.066 123.994 99.9786 125.036 99.8116 126.051L99.3705 128.747L104.362 133.043C103.606 134.797 102.65 136.457 101.516 137.991L95.3142 135.779L93.2159 137.513C91.6187 138.831 89.8412 139.866 87.9166 140.592L85.3705 141.554L84.1743 148.075C82.287 148.29 80.3815 148.29 78.4941 148.075L77.2979 141.54L74.7719 140.565C72.8674 139.839 71.0965 138.804 69.5127 137.493L67.4144 135.752L61.1728 137.984C60.0368 136.444 59.0879 134.784 58.326 133.036L63.3714 128.7L62.937 126.011C62.7766 125.009 62.6898 123.974 62.6898 122.952C62.6898 121.923 62.77 120.895 62.937 119.893L63.3714 117.204L58.326 112.868C59.0812 111.113 60.0368 109.46 61.1728 107.92L67.4144 110.152L69.5127 108.411C71.0965 107.1 72.8674 106.065 74.7719 105.339L77.3046 104.377L78.5008 97.8427C80.3786 97.6276 82.2965 97.6276 84.181 97.8427L85.3772 104.364L87.9233 105.325C89.8412 106.051 91.6254 107.086 93.2225 108.404L95.3209 110.139L101.522 107.927C102.658 109.466 103.607 111.127 104.369 112.875L99.3772 117.17L99.8116 119.853ZM81.3476 110.448C74.8521 110.448 69.5862 115.745 69.5862 122.28C69.5862 128.814 74.8521 134.112 81.3476 134.112C87.8431 134.112 93.1089 128.814 93.1089 122.28C93.1089 115.745 87.8431 110.448 81.3476 110.448ZM86.6402 127.604C85.946 128.304 85.121 128.86 84.2127 129.238C83.3044 129.617 82.3307 129.811 81.3476 129.809C79.3495 129.809 77.4717 129.023 76.055 127.604C75.3588 126.906 74.8067 126.076 74.4306 125.162C74.0544 124.248 73.8615 123.269 73.8631 122.28C73.8631 120.27 74.6449 118.381 76.055 116.955C77.4717 115.53 79.3495 114.75 81.3476 114.75C83.3457 114.75 85.2235 115.53 86.6402 116.955C87.3364 117.654 87.8884 118.484 88.2646 119.397C88.6407 120.311 88.8336 121.291 88.8321 122.28C88.8321 124.29 88.0502 126.179 86.6402 127.604Z" fill="url(#paint8_linear_5940_276512)" stroke="url(#paint9_linear_5940_276512)" stroke-width="0.142857" mask="url(#path-9-inside-1_5940_276512)"/>
<defs>
<linearGradient id="paint0_linear_5940_276512" x1="168.074" y1="42" x2="168.074" y2="90.9412" gradientUnits="userSpaceOnUse">
<stop stop-color="#FF8860"/>
<stop offset="1" stop-color="#FFF281"/>
</linearGradient>
<linearGradient id="paint1_linear_5940_276512" x1="168.074" y1="98.4707" x2="168.074" y2="145.53" gradientUnits="userSpaceOnUse">
<stop stop-color="#FF8860"/>
<stop offset="1" stop-color="#FFF281"/>
</linearGradient>
<linearGradient id="paint2_linear_5940_276512" x1="168.074" y1="153.059" x2="168.074" y2="202" gradientUnits="userSpaceOnUse">
<stop stop-color="#FF8860"/>
<stop offset="1" stop-color="#FFF281"/>
</linearGradient>
<linearGradient id="paint3_linear_5940_276512" x1="169.007" y1="58.9414" x2="169.007" y2="74.0002" gradientUnits="userSpaceOnUse">
<stop stop-color="#FF8860"/>
<stop offset="1" stop-color="#FFF281"/>
</linearGradient>
<linearGradient id="paint4_linear_5940_276512" x1="169.007" y1="115.41" x2="169.007" y2="130.469" gradientUnits="userSpaceOnUse">
<stop stop-color="#FF8860"/>
<stop offset="1" stop-color="#FFF281"/>
</linearGradient>
<linearGradient id="paint5_linear_5940_276512" x1="169.007" y1="171.883" x2="169.007" y2="185.059" gradientUnits="userSpaceOnUse">
<stop stop-color="#FF8860"/>
<stop offset="1" stop-color="#FFF281"/>
</linearGradient>
<linearGradient id="paint6_linear_5940_276512" x1="135.797" y1="66.4688" x2="135.797" y2="179.41" gradientUnits="userSpaceOnUse">
<stop stop-color="#FF8860"/>
<stop offset="1" stop-color="#FFF281"/>
</linearGradient>
<linearGradient id="paint7_linear_5940_276512" x1="124.57" y1="122.941" x2="124.57" y2="123.941" gradientUnits="userSpaceOnUse">
<stop stop-color="#FF8860"/>
<stop offset="1" stop-color="#FFF281"/>
</linearGradient>
<linearGradient id="paint8_linear_5940_276512" x1="81.3409" y1="92.8242" x2="81.3409" y2="153.055" gradientUnits="userSpaceOnUse">
<stop stop-color="#FF8860"/>
<stop offset="1" stop-color="#FFF281"/>
</linearGradient>
<linearGradient id="paint9_linear_5940_276512" x1="81.3409" y1="92.8242" x2="81.3409" y2="153.055" gradientUnits="userSpaceOnUse">
<stop stop-color="#FF8860"/>
<stop offset="1" stop-color="#FFF281"/>
</linearGradient>
</defs>
</svg>
