<svg width="183" height="48" viewBox="0 0 183 48" fill="none" xmlns="http://www.w3.org/2000/svg">
<g clip-path="url(#clip0_5729_286825)">
<mask id="mask0_5729_286825" style="mask-type:luminance" maskUnits="userSpaceOnUse" x="0" y="0" width="183" height="35">
<path d="M182.597 0H0V34.3712H182.597V0Z" fill="white"/>
</mask>
<g mask="url(#mask0_5729_286825)">
<path d="M27.3487 33.5666V0H20.7769V21.5858L7.43116 0H0V33.5666H6.52122V11.0204L20.8781 33.5666H27.3487Z" fill="white"/>
<path d="M52.4128 33.567V8.69531H45.8915V23.0521C45.8915 26.338 44.1222 28.714 40.7857 28.714C38.0054 28.714 36.59 27.1974 36.59 24.0631V8.69531H30.0182V25.0742C30.0182 30.5338 33.5062 34.2241 38.4604 34.2241C41.8979 34.2241 44.476 32.9098 46.1948 30.0789V33.567H52.4128Z" fill="white"/>
<path d="M67.529 28.7129C63.5354 28.7129 61.5133 26.1853 61.5133 21.1301C61.5133 16.0748 63.5354 13.5979 67.529 13.5979C71.5226 13.5979 73.5447 16.0748 73.5447 21.1301C73.5447 26.1853 71.5226 28.7129 67.529 28.7129ZM67.529 34.2231C75.2634 34.2231 80.167 29.0162 80.167 21.1301C80.167 13.1934 75.314 8.03711 67.529 8.03711C59.6429 8.03711 54.7393 13.2439 54.7393 21.1301C54.7393 28.8646 59.4912 34.2231 67.529 34.2231Z" fill="white"/>
<path d="M89.2177 27.8542V5.81349H94.4245C101.148 5.81349 103.777 8.84661 103.777 16.4295C103.777 24.0123 101.148 27.8542 95.0312 27.8542H89.2177ZM96.4466 33.5666C105.142 33.5666 110.955 26.6409 110.955 16.4295C110.955 6.21791 104.484 0 95.3851 0H82.3932V33.5666H96.4466Z" fill="#E74860"/>
<path d="M127.674 24.1127C127.623 27.0446 125.096 29.5217 121.709 29.5217C119.636 29.5217 118.524 28.6118 118.524 26.7413C118.524 24.6181 119.737 23.5566 123.478 22.8489C125.905 22.3939 127.068 22.04 127.724 21.3828L127.674 24.1127ZM134.297 33.5659V17.8442C134.297 11.5758 131.566 8.03711 123.68 8.03711C115.693 8.03711 112.863 11.6262 112.761 16.7826H118.878C119.182 14.5583 120.394 13.0923 123.377 13.0923C125.955 13.0923 127.573 14.0527 127.573 15.6704C127.573 17.3892 126.663 18.0464 123.377 18.5013C116.754 19.4113 111.952 20.2201 111.952 27.3986C111.952 31.4427 114.581 34.2231 120.243 34.2231C123.579 34.2231 126.209 33.0604 127.776 31.3416C127.826 32.0999 127.978 32.9593 128.18 33.5659H134.297Z" fill="#E74860"/>
<path d="M151.299 23.6595C151.299 26.7432 150.086 28.5125 147.457 28.5125C144.779 28.5125 143.666 26.6927 143.666 23.5585V13.3469H157.416V8.69608H143.666V1.97266H137.195V24.2156C137.195 29.5742 140.077 34.2249 147.356 34.2249C154.383 34.2249 157.416 29.5236 157.416 24.2662V17.1888H151.299V23.6595Z" fill="#E74860"/>
<path d="M175.165 24.1127C175.114 27.0446 172.587 29.5217 169.2 29.5217C167.127 29.5217 166.016 28.6118 166.016 26.7413C166.016 24.6181 167.228 23.5566 170.969 22.8489C173.396 22.3939 174.559 22.04 175.215 21.3828L175.165 24.1127ZM181.788 33.5659V17.8442C181.788 11.5758 179.057 8.03711 171.171 8.03711C163.184 8.03711 160.353 11.6262 160.252 16.7826H166.369C166.673 14.5583 167.886 13.0923 170.868 13.0923C173.446 13.0923 175.064 14.0527 175.064 15.6704C175.064 17.3892 174.154 18.0464 170.868 18.5013C164.246 19.4113 159.443 20.2201 159.443 27.3986C159.443 31.4427 162.073 34.2231 167.734 34.2231C171.07 34.2231 173.699 33.0604 175.266 31.3416C175.317 32.0999 175.469 32.9593 175.671 33.5659H181.788Z" fill="#E74860"/>
</g>
</g>
<path d="M83.117 47.0625V40.4165H83.8344V41.1844H83.9225C83.9771 41.1004 84.0526 40.9935 84.1491 40.8634C84.2477 40.7312 84.3883 40.6137 84.5708 40.5109C84.7554 40.4061 85.005 40.3536 85.3197 40.3536C85.7267 40.3536 86.0854 40.4554 86.3959 40.6588C86.7064 40.8623 86.9487 41.1508 87.1228 41.5242C87.2969 41.8976 87.384 42.3382 87.384 42.8459C87.384 43.3577 87.2969 43.8014 87.1228 44.1769C86.9487 44.5504 86.7074 44.8399 86.3991 45.0455C86.0907 45.249 85.7351 45.3507 85.3323 45.3507C85.0218 45.3507 84.7732 45.2993 84.5865 45.1965C84.3998 45.0916 84.2561 44.9731 84.1554 44.8409C84.0547 44.7067 83.9771 44.5955 83.9225 44.5074H83.8596V47.0625H83.117ZM83.847 42.8333C83.847 43.1983 83.9005 43.5203 84.0075 43.7993C84.1145 44.0763 84.2708 44.2934 84.4764 44.4507C84.682 44.606 84.9337 44.6836 85.2316 44.6836C85.5421 44.6836 85.8012 44.6018 86.0089 44.4381C86.2186 44.2724 86.376 44.05 86.4809 43.771C86.5879 43.4899 86.6414 43.1773 86.6414 42.8333C86.6414 42.4934 86.5889 42.1871 86.484 41.9144C86.3812 41.6396 86.2249 41.4225 86.0151 41.263C85.8075 41.1015 85.5463 41.0207 85.2316 41.0207C84.9295 41.0207 84.6757 41.0973 84.4701 41.2504C84.2645 41.4015 84.1092 41.6134 84.0044 41.8861C83.8995 42.1567 83.847 42.4724 83.847 42.8333ZM90.4804 45.3507C90.0441 45.3507 89.6612 45.2469 89.3319 45.0392C89.0046 44.8315 88.7486 44.5409 88.564 44.1675C88.3815 43.7941 88.2903 43.3577 88.2903 42.8584C88.2903 42.355 88.3815 41.9155 88.564 41.5399C88.7486 41.1644 89.0046 40.8728 89.3319 40.6651C89.6612 40.4575 90.0441 40.3536 90.4804 40.3536C90.9168 40.3536 91.2986 40.4575 91.6259 40.6651C91.9552 40.8728 92.2112 41.1644 92.3937 41.5399C92.5783 41.9155 92.6706 42.355 92.6706 42.8584C92.6706 43.3577 92.5783 43.7941 92.3937 44.1675C92.2112 44.5409 91.9552 44.8315 91.6259 45.0392C91.2986 45.2469 90.9168 45.3507 90.4804 45.3507ZM90.4804 44.6836C90.8119 44.6836 91.0846 44.5986 91.2986 44.4287C91.5126 44.2588 91.671 44.0353 91.7738 43.7584C91.8765 43.4815 91.9279 43.1815 91.9279 42.8584C91.9279 42.5354 91.8765 42.2343 91.7738 41.9553C91.671 41.6763 91.5126 41.4508 91.2986 41.2788C91.0846 41.1067 90.8119 41.0207 90.4804 41.0207C90.149 41.0207 89.8762 41.1067 89.6623 41.2788C89.4483 41.4508 89.2899 41.6763 89.1871 41.9553C89.0843 42.2343 89.0329 42.5354 89.0329 42.8584C89.0329 43.1815 89.0843 43.4815 89.1871 43.7584C89.2899 44.0353 89.4483 44.2588 89.6623 44.4287C89.8762 44.5986 90.149 44.6836 90.4804 44.6836ZM94.7349 45.25L93.2622 40.4165H94.0426L95.0873 44.1172H95.1377L96.1698 40.4165H96.9628L97.9824 44.1046H98.0327L99.0774 40.4165H99.8578L98.3851 45.25H97.6551L96.5978 41.5368H96.5222L95.4649 45.25H94.7349ZM102.702 45.3507C102.236 45.3507 101.834 45.2479 101.497 45.0423C101.161 44.8346 100.902 44.5451 100.719 44.1738C100.539 43.8004 100.449 43.3661 100.449 42.871C100.449 42.3759 100.539 41.9396 100.719 41.562C100.902 41.1823 101.156 40.8865 101.481 40.6746C101.808 40.4606 102.19 40.3536 102.626 40.3536C102.878 40.3536 103.127 40.3956 103.372 40.4795C103.617 40.5634 103.841 40.6998 104.042 40.8886C104.244 41.0753 104.404 41.3228 104.524 41.6312C104.643 41.9396 104.703 42.3193 104.703 42.7703V43.085H100.977V42.4431H103.948C103.948 42.1704 103.893 41.927 103.784 41.713C103.677 41.499 103.524 41.3302 103.325 41.2064C103.128 41.0826 102.895 41.0207 102.626 41.0207C102.33 41.0207 102.074 41.0942 101.858 41.241C101.644 41.3858 101.48 41.5746 101.364 41.8074C101.249 42.0403 101.191 42.2899 101.191 42.5564V42.9843C101.191 43.3493 101.254 43.6588 101.38 43.9126C101.508 44.1644 101.685 44.3563 101.912 44.4885C102.138 44.6185 102.402 44.6836 102.702 44.6836C102.897 44.6836 103.073 44.6563 103.23 44.6018C103.39 44.5451 103.527 44.4612 103.643 44.35C103.758 44.2367 103.847 44.0962 103.91 43.9284L104.628 44.1297C104.552 44.3731 104.425 44.5871 104.247 44.7717C104.068 44.9542 103.848 45.0969 103.586 45.1997C103.324 45.3003 103.029 45.3507 102.702 45.3507ZM105.833 45.25V40.4165H106.55V41.1466H106.601C106.689 40.9074 106.848 40.7134 107.079 40.5644C107.31 40.4155 107.57 40.341 107.859 40.341C107.914 40.341 107.982 40.3421 108.064 40.3442C108.146 40.3463 108.208 40.3494 108.25 40.3536V41.1088C108.224 41.1025 108.167 41.0931 108.076 41.0805C107.988 41.0658 107.895 41.0585 107.796 41.0585C107.561 41.0585 107.352 41.1078 107.167 41.2064C106.985 41.3029 106.84 41.4372 106.733 41.6092C106.628 41.7791 106.575 41.9732 106.575 42.1913V45.25H105.833ZM111.009 45.3507C110.544 45.3507 110.142 45.2479 109.804 45.0423C109.468 44.8346 109.209 44.5451 109.027 44.1738C108.846 43.8004 108.756 43.3661 108.756 42.871C108.756 42.3759 108.846 41.9396 109.027 41.562C109.209 41.1823 109.463 40.8865 109.788 40.6746C110.116 40.4606 110.497 40.3536 110.934 40.3536C111.185 40.3536 111.434 40.3956 111.68 40.4795C111.925 40.5634 112.148 40.6998 112.35 40.8886C112.551 41.0753 112.712 41.3228 112.831 41.6312C112.951 41.9396 113.011 42.3193 113.011 42.7703V43.085H109.285V42.4431H112.255C112.255 42.1704 112.201 41.927 112.092 41.713C111.985 41.499 111.832 41.3302 111.632 41.2064C111.435 41.0826 111.202 41.0207 110.934 41.0207C110.638 41.0207 110.382 41.0942 110.166 41.241C109.952 41.3858 109.787 41.5746 109.672 41.8074C109.556 42.0403 109.499 42.2899 109.499 42.5564V42.9843C109.499 43.3493 109.562 43.6588 109.688 43.9126C109.816 44.1644 109.993 44.3563 110.219 44.4885C110.446 44.6185 110.709 44.6836 111.009 44.6836C111.204 44.6836 111.381 44.6563 111.538 44.6018C111.697 44.5451 111.835 44.4612 111.95 44.35C112.066 44.2367 112.155 44.0962 112.218 43.9284L112.935 44.1297C112.86 44.3731 112.733 44.5871 112.554 44.7717C112.376 44.9542 112.156 45.0969 111.893 45.1997C111.631 45.3003 111.337 45.3507 111.009 45.3507ZM115.965 45.3507C115.563 45.3507 115.207 45.249 114.899 45.0455C114.59 44.8399 114.349 44.5504 114.175 44.1769C114.001 43.8014 113.914 43.3577 113.914 42.8459C113.914 42.3382 114.001 41.8976 114.175 41.5242C114.349 41.1508 114.591 40.8623 114.902 40.6588C115.212 40.4554 115.571 40.3536 115.978 40.3536C116.293 40.3536 116.541 40.4061 116.724 40.5109C116.908 40.6137 117.049 40.7312 117.145 40.8634C117.244 40.9935 117.321 41.1004 117.375 41.1844H117.438V38.8054H118.181V45.25H117.463V44.5074H117.375C117.321 44.5955 117.243 44.7067 117.142 44.8409C117.042 44.9731 116.898 45.0916 116.711 45.1965C116.524 45.2993 116.276 45.3507 115.965 45.3507ZM116.066 44.6836C116.364 44.6836 116.616 44.606 116.821 44.4507C117.027 44.2934 117.183 44.0763 117.29 43.7993C117.397 43.5203 117.451 43.1983 117.451 42.8333C117.451 42.4724 117.398 42.1567 117.293 41.8861C117.188 41.6134 117.033 41.4015 116.828 41.2504C116.622 41.0973 116.368 41.0207 116.066 41.0207C115.751 41.0207 115.489 41.1015 115.279 41.263C115.072 41.4225 114.915 41.6396 114.811 41.9144C114.708 42.1871 114.656 42.4934 114.656 42.8333C114.656 43.1773 114.709 43.4899 114.814 43.771C114.921 44.05 115.078 44.2724 115.286 44.4381C115.495 44.6018 115.756 44.6836 116.066 44.6836ZM122.237 45.25V38.8054H122.98V41.1844H123.043C123.097 41.1004 123.173 40.9935 123.269 40.8634C123.368 40.7312 123.508 40.6137 123.691 40.5109C123.875 40.4061 124.125 40.3536 124.44 40.3536C124.847 40.3536 125.205 40.4554 125.516 40.6588C125.826 40.8623 126.069 41.1508 126.243 41.5242C126.417 41.8976 126.504 42.3382 126.504 42.8459C126.504 43.3577 126.417 43.8014 126.243 44.1769C126.069 44.5504 125.827 44.8399 125.519 45.0455C125.211 45.249 124.855 45.3507 124.452 45.3507C124.142 45.3507 123.893 45.2993 123.706 45.1965C123.52 45.0916 123.376 44.9731 123.275 44.8409C123.175 44.7067 123.097 44.5955 123.043 44.5074H122.954V45.25H122.237ZM122.967 42.8333C122.967 43.1983 123.021 43.5203 123.127 43.7993C123.234 44.0763 123.391 44.2934 123.596 44.4507C123.802 44.606 124.054 44.6836 124.352 44.6836C124.662 44.6836 124.921 44.6018 125.129 44.4381C125.339 44.2724 125.496 44.05 125.601 43.771C125.708 43.4899 125.761 43.1773 125.761 42.8333C125.761 42.4934 125.709 42.1871 125.604 41.9144C125.501 41.6396 125.345 41.4225 125.135 41.263C124.927 41.1015 124.666 41.0207 124.352 41.0207C124.049 41.0207 123.796 41.0973 123.59 41.2504C123.384 41.4015 123.229 41.6134 123.124 41.8861C123.019 42.1567 122.967 42.4724 122.967 42.8333ZM127.945 47.0625C127.819 47.0625 127.707 47.0521 127.609 47.0311C127.51 47.0122 127.442 46.9933 127.404 46.9744L127.593 46.3199C127.773 46.3661 127.933 46.3828 128.071 46.3703C128.21 46.3577 128.332 46.2958 128.439 46.1846C128.548 46.0755 128.648 45.8982 128.738 45.6528L128.877 45.2752L127.089 40.4165H127.895L129.229 44.2682H129.279L130.614 40.4165H131.419L129.368 45.9549C129.275 46.2045 129.161 46.4112 129.025 46.5748C128.888 46.7405 128.73 46.8632 128.549 46.943C128.371 47.0227 128.17 47.0625 127.945 47.0625ZM140.103 38.8054V45.25H139.348L135.836 40.19H135.773V45.25H134.992V38.8054H135.748L139.272 43.878H139.335V38.8054H140.103ZM144.61 43.2738V40.4165H145.352V45.25H144.61V44.4318H144.559C144.446 44.6773 144.27 44.886 144.031 45.058C143.792 45.228 143.49 45.3129 143.124 45.3129C142.822 45.3129 142.554 45.2469 142.319 45.1147C142.084 44.9804 141.899 44.779 141.765 44.5105C141.631 44.2399 141.564 43.899 141.564 43.4878V40.4165H142.306V43.4375C142.306 43.7899 142.405 44.071 142.602 44.2808C142.801 44.4906 143.055 44.5955 143.364 44.5955C143.548 44.5955 143.736 44.5483 143.927 44.4539C144.12 44.3595 144.281 44.2147 144.412 44.0196C144.544 43.8245 144.61 43.5759 144.61 43.2738ZM148.676 45.3507C148.223 45.3507 147.833 45.2437 147.506 45.0297C147.178 44.8157 146.927 44.521 146.75 44.1455C146.574 43.77 146.486 43.341 146.486 42.8584C146.486 42.3675 146.576 41.9343 146.757 41.5588C146.939 41.1812 147.193 40.8865 147.518 40.6746C147.845 40.4606 148.227 40.3536 148.664 40.3536C149.003 40.3536 149.31 40.4165 149.582 40.5424C149.855 40.6683 150.079 40.8445 150.253 41.0711C150.427 41.2976 150.535 41.562 150.577 41.8641H149.834C149.778 41.6438 149.652 41.4487 149.457 41.2788C149.264 41.1067 149.003 41.0207 148.676 41.0207C148.387 41.0207 148.133 41.0962 147.915 41.2473C147.699 41.3962 147.53 41.6071 147.408 41.8798C147.288 42.1504 147.229 42.4682 147.229 42.8333C147.229 43.2067 147.287 43.5319 147.405 43.8088C147.524 44.0857 147.692 44.3007 147.908 44.4539C148.127 44.607 148.383 44.6836 148.676 44.6836C148.869 44.6836 149.044 44.65 149.202 44.5829C149.359 44.5158 149.492 44.4192 149.601 44.2934C149.71 44.1675 149.788 44.0165 149.834 43.8402H150.577C150.535 44.1256 150.431 44.3825 150.265 44.6112C150.102 44.8378 149.885 45.0182 149.614 45.1524C149.345 45.2846 149.033 45.3507 148.676 45.3507ZM152.405 38.8054V45.25H151.663V38.8054H152.405ZM155.792 45.3507C155.326 45.3507 154.924 45.2479 154.587 45.0423C154.251 44.8346 153.992 44.5451 153.809 44.1738C153.629 43.8004 153.539 43.3661 153.539 42.871C153.539 42.3759 153.629 41.9396 153.809 41.562C153.992 41.1823 154.246 40.8865 154.571 40.6746C154.898 40.4606 155.28 40.3536 155.716 40.3536C155.968 40.3536 156.217 40.3956 156.462 40.4795C156.708 40.5634 156.931 40.6998 157.132 40.8886C157.334 41.0753 157.494 41.3228 157.614 41.6312C157.733 41.9396 157.793 42.3193 157.793 42.7703V43.085H154.067V42.4431H157.038C157.038 42.1704 156.983 41.927 156.874 41.713C156.767 41.499 156.614 41.3302 156.415 41.2064C156.218 41.0826 155.985 41.0207 155.716 41.0207C155.421 41.0207 155.165 41.0942 154.949 41.241C154.735 41.3858 154.57 41.5746 154.454 41.8074C154.339 42.0403 154.281 42.2899 154.281 42.5564V42.9843C154.281 43.3493 154.344 43.6588 154.47 43.9126C154.598 44.1644 154.775 44.3563 155.002 44.4885C155.229 44.6185 155.492 44.6836 155.792 44.6836C155.987 44.6836 156.163 44.6563 156.321 44.6018C156.48 44.5451 156.617 44.4612 156.733 44.35C156.848 44.2367 156.937 44.0962 157 43.9284L157.718 44.1297C157.642 44.3731 157.515 44.5871 157.337 44.7717C157.159 44.9542 156.938 45.0969 156.676 45.1997C156.414 45.3003 156.119 45.3507 155.792 45.3507ZM161.969 43.2738V40.4165H162.712V45.25H161.969V44.4318H161.919C161.805 44.6773 161.629 44.886 161.39 45.058C161.151 45.228 160.849 45.3129 160.484 45.3129C160.182 45.3129 159.913 45.2469 159.678 45.1147C159.443 44.9804 159.259 44.779 159.124 44.5105C158.99 44.2399 158.923 43.899 158.923 43.4878V40.4165H159.666V43.4375C159.666 43.7899 159.764 44.071 159.961 44.2808C160.161 44.4906 160.414 44.5955 160.723 44.5955C160.907 44.5955 161.095 44.5483 161.286 44.4539C161.479 44.3595 161.641 44.2147 161.771 44.0196C161.903 43.8245 161.969 43.5759 161.969 43.2738ZM167.496 41.499L166.828 41.6878C166.786 41.5767 166.725 41.4686 166.643 41.3637C166.563 41.2567 166.454 41.1686 166.315 41.0994C166.177 41.0302 166 40.9956 165.784 40.9956C165.488 40.9956 165.241 41.0637 165.044 41.2001C164.849 41.3344 164.752 41.5053 164.752 41.713C164.752 41.8976 164.819 42.0434 164.953 42.1504C165.087 42.2574 165.297 42.3466 165.582 42.4179L166.3 42.5941C166.732 42.699 167.054 42.8595 167.266 43.0756C167.478 43.2896 167.584 43.5654 167.584 43.9032C167.584 44.1801 167.504 44.4276 167.344 44.6458C167.187 44.864 166.967 45.036 166.684 45.1619C166.4 45.2878 166.071 45.3507 165.696 45.3507C165.203 45.3507 164.795 45.2437 164.471 45.0297C164.148 44.8157 163.944 44.5032 163.858 44.092L164.563 43.9158C164.63 44.1759 164.757 44.371 164.943 44.5011C165.132 44.6311 165.379 44.6962 165.683 44.6962C166.029 44.6962 166.304 44.6227 166.507 44.4759C166.713 44.3269 166.816 44.1486 166.816 43.9409C166.816 43.7731 166.757 43.6326 166.64 43.5193C166.522 43.4039 166.342 43.3179 166.098 43.2612L165.293 43.0724C164.85 42.9675 164.525 42.805 164.317 42.5847C164.112 42.3623 164.009 42.0843 164.009 41.7508C164.009 41.4781 164.085 41.2368 164.239 41.027C164.394 40.8172 164.605 40.6526 164.871 40.533C165.14 40.4134 165.444 40.3536 165.784 40.3536C166.262 40.3536 166.638 40.4585 166.91 40.6683C167.185 40.8781 167.38 41.155 167.496 41.499ZM167.792 39.4977V38.8054H172.626V39.4977H170.599V45.25H169.819V39.4977H167.792ZM175.055 45.3507C174.589 45.3507 174.187 45.2479 173.85 45.0423C173.514 44.8346 173.255 44.5451 173.072 44.1738C172.892 43.8004 172.802 43.3661 172.802 42.871C172.802 42.3759 172.892 41.9396 173.072 41.562C173.255 41.1823 173.509 40.8865 173.834 40.6746C174.161 40.4606 174.543 40.3536 174.979 40.3536C175.231 40.3536 175.48 40.3956 175.725 40.4795C175.971 40.5634 176.194 40.6998 176.395 40.8886C176.597 41.0753 176.757 41.3228 176.877 41.6312C176.996 41.9396 177.056 42.3193 177.056 42.7703V43.085H173.33V42.4431H176.301C176.301 42.1704 176.246 41.927 176.137 41.713C176.03 41.499 175.877 41.3302 175.678 41.2064C175.481 41.0826 175.248 41.0207 174.979 41.0207C174.684 41.0207 174.428 41.0942 174.212 41.241C173.998 41.3858 173.833 41.5746 173.717 41.8074C173.602 42.0403 173.544 42.2899 173.544 42.5564V42.9843C173.544 43.3493 173.607 43.6588 173.733 43.9126C173.861 44.1644 174.038 44.3563 174.265 44.4885C174.492 44.6185 174.755 44.6836 175.055 44.6836C175.25 44.6836 175.426 44.6563 175.584 44.6018C175.743 44.5451 175.88 44.4612 175.996 44.35C176.111 44.2367 176.2 44.0962 176.263 43.9284L176.981 44.1297C176.905 44.3731 176.778 44.5871 176.6 44.7717C176.422 44.9542 176.201 45.0969 175.939 45.1997C175.677 45.3003 175.382 45.3507 175.055 45.3507ZM181.484 47.0625V44.5074H181.421C181.366 44.5955 181.289 44.7067 181.188 44.8409C181.087 44.9731 180.944 45.0916 180.757 45.1965C180.57 45.2993 180.322 45.3507 180.011 45.3507C179.608 45.3507 179.253 45.249 178.944 45.0455C178.636 44.8399 178.395 44.5504 178.221 44.1769C178.046 43.8014 177.959 43.3577 177.959 42.8459C177.959 42.3382 178.046 41.8976 178.221 41.5242C178.395 41.1508 178.637 40.8623 178.947 40.6588C179.258 40.4554 179.617 40.3536 180.024 40.3536C180.338 40.3536 180.587 40.4061 180.769 40.5109C180.954 40.6137 181.095 40.7312 181.191 40.8634C181.29 40.9935 181.366 41.1004 181.421 41.1844H181.509V40.4165H182.226V47.0625H181.484ZM180.112 44.6836C180.41 44.6836 180.661 44.606 180.867 44.4507C181.073 44.2934 181.229 44.0763 181.336 43.7993C181.443 43.5203 181.496 43.1983 181.496 42.8333C181.496 42.4724 181.444 42.1567 181.339 41.8861C181.234 41.6134 181.079 41.4015 180.873 41.2504C180.668 41.0973 180.414 41.0207 180.112 41.0207C179.797 41.0207 179.535 41.1015 179.325 41.263C179.117 41.4225 178.961 41.6396 178.856 41.9144C178.753 42.1871 178.702 42.4934 178.702 42.8333C178.702 43.1773 178.754 43.4899 178.859 43.771C178.966 44.05 179.124 44.2724 179.331 44.4381C179.541 44.6018 179.801 44.6836 180.112 44.6836Z" fill="white"/>
<defs>
<clipPath id="clip0_5729_286825">
<rect width="182.597" height="34.3712" fill="white"/>
</clipPath>
</defs>
</svg>
