<svg width="244" height="244" viewBox="0 0 244 244" fill="none" xmlns="http://www.w3.org/2000/svg">
<rect x="146.685" y="44" width="42.7782" height="44.9412" rx="6" stroke="url(#paint0_linear_5940_276503)" stroke-width="4"/>
<rect x="146.685" y="100.471" width="42.7782" height="43.0588" rx="6" stroke="url(#paint1_linear_5940_276503)" stroke-width="4"/>
<rect x="146.685" y="155.06" width="42.7782" height="44.9412" rx="6" stroke="url(#paint2_linear_5940_276503)" stroke-width="4"/>
<path d="M157.78 64.4173L164.279 72.2753C165.039 73.195 166.431 73.2482 167.259 72.3894L180.234 58.9414" stroke="url(#paint3_linear_5940_276503)" stroke-width="4" stroke-linecap="round"/>
<path d="M157.78 120.887L164.279 128.745C165.039 129.665 166.431 129.718 167.259 128.859L180.234 115.411" stroke="url(#paint4_linear_5940_276503)" stroke-width="4" stroke-linecap="round"/>
<path d="M157.78 176.674L164.359 183.635C165.107 184.426 166.35 184.474 167.156 183.742L180.234 171.882" stroke="url(#paint5_linear_5940_276503)" stroke-width="4" stroke-linecap="round"/>
<path d="M145.62 66.4697H127.974C126.869 66.4697 125.974 67.3652 125.974 68.4697V177.411C125.974 178.515 126.869 179.411 127.974 179.411H145.62" stroke="url(#paint6_linear_5940_276503)" stroke-width="4"/>
<path d="M104.455 122.94H144.684" stroke="url(#paint7_linear_5940_276503)" stroke-width="4"/>
<mask id="path-9-inside-1_5940_276503" fill="white">
<path d="M108.933 130.595L104.556 126.83C104.763 125.553 104.87 124.249 104.87 122.944C104.87 121.64 104.763 120.336 104.556 119.059L108.933 115.294C109.263 115.01 109.5 114.631 109.611 114.208C109.722 113.786 109.702 113.339 109.555 112.928L109.495 112.753C108.29 109.365 106.485 106.224 104.169 103.482L104.048 103.341C103.767 103.009 103.393 102.77 102.974 102.656C102.555 102.542 102.112 102.558 101.703 102.702L96.2698 104.645C94.265 102.991 92.0264 101.687 89.6073 100.773L88.5581 95.0587C88.4789 94.6288 88.2716 94.2332 87.9637 93.9246C87.6557 93.616 87.2617 93.4089 86.834 93.331L86.6536 93.2974C83.1719 92.6654 79.5099 92.6654 76.0282 93.2974L75.8478 93.331C75.4201 93.4089 75.0261 93.616 74.7181 93.9246C74.4102 94.2332 74.2028 94.6288 74.1237 95.0587L73.0678 100.8C70.668 101.714 68.4332 103.018 66.4521 104.659L60.979 102.702C60.5698 102.557 60.1263 102.54 59.7073 102.654C59.2883 102.768 58.9138 103.008 58.6334 103.341L58.5132 103.482C56.1993 106.226 54.3952 109.366 53.1871 112.753L53.127 112.928C52.8263 113.768 53.0735 114.709 53.7485 115.294L58.179 119.099C57.9719 120.363 57.8716 121.654 57.8716 122.938C57.8716 124.228 57.9719 125.519 58.179 126.776L53.7485 130.581C53.4183 130.866 53.182 131.244 53.071 131.667C52.96 132.09 52.9795 132.537 53.127 132.948L53.1871 133.123C54.3967 136.511 56.1876 139.637 58.5132 142.393L58.6334 142.534C58.9145 142.867 59.289 143.106 59.7077 143.22C60.1265 143.334 60.5697 143.317 60.979 143.173L66.4521 141.217C68.4435 142.864 70.6688 144.168 73.0678 145.076L74.1237 150.817C74.2028 151.247 74.4102 151.642 74.7181 151.951C75.0261 152.259 75.4201 152.466 75.8478 152.544L76.0282 152.578C79.5419 153.213 83.1399 153.213 86.6536 152.578L86.834 152.544C87.2617 152.466 87.6557 152.259 87.9637 151.951C88.2716 151.642 88.4789 151.247 88.5581 150.817L89.6073 145.102C92.0254 144.191 94.2767 142.882 96.2698 141.23L101.703 143.173C102.112 143.319 102.556 143.335 102.974 143.221C103.393 143.107 103.768 142.868 104.048 142.534L104.169 142.393C106.494 139.63 108.285 136.511 109.495 133.123L109.555 132.948C109.856 132.121 109.608 131.18 108.933 130.595ZM99.8116 119.852C99.9786 120.867 100.066 121.909 100.066 122.951C100.066 123.993 99.9786 125.035 99.8116 126.05L99.3705 128.746L104.362 133.042C103.606 134.796 102.65 136.456 101.516 137.99L95.3142 135.778L93.2159 137.513C91.6187 138.83 89.8412 139.865 87.9166 140.591L85.3705 141.553L84.1743 148.074C82.287 148.289 80.3815 148.289 78.4941 148.074L77.2979 141.539L74.7719 140.565C72.8674 139.839 71.0965 138.803 69.5127 137.492L67.4144 135.751L61.1728 137.983C60.0368 136.444 59.0879 134.783 58.326 133.035L63.3714 128.699L62.937 126.01C62.7766 125.008 62.6898 123.973 62.6898 122.951C62.6898 121.923 62.77 120.894 62.937 119.892L63.3714 117.203L58.326 112.867C59.0812 111.113 60.0368 109.459 61.1728 107.919L67.4144 110.151L69.5127 108.41C71.0965 107.099 72.8674 106.064 74.7719 105.338L77.3046 104.376L78.5008 97.8419C80.3786 97.6268 82.2965 97.6268 84.181 97.8419L85.3772 104.363L87.9233 105.324C89.8412 106.05 91.6254 107.086 93.2225 108.403L95.3209 110.138L101.522 107.926C102.658 109.465 103.607 111.126 104.369 112.874L99.3772 117.17L99.8116 119.852ZM81.3476 110.447C74.8521 110.447 69.5862 115.744 69.5862 122.279C69.5862 128.813 74.8521 134.111 81.3476 134.111C87.8431 134.111 93.1089 128.813 93.1089 122.279C93.1089 115.744 87.8431 110.447 81.3476 110.447ZM86.6402 127.603C85.946 128.304 85.121 128.859 84.2127 129.237C83.3044 129.616 82.3307 129.81 81.3476 129.808C79.3495 129.808 77.4717 129.022 76.055 127.603C75.3588 126.905 74.8067 126.075 74.4306 125.161C74.0544 124.247 73.8615 123.268 73.8631 122.279C73.8631 120.269 74.6449 118.38 76.055 116.955C77.4717 115.529 79.3495 114.749 81.3476 114.749C83.3457 114.749 85.2235 115.529 86.6402 116.955C87.3364 117.653 87.8884 118.483 88.2646 119.397C88.6407 120.31 88.8336 121.29 88.8321 122.279C88.8321 124.289 88.0502 126.178 86.6402 127.603Z"/>
</mask>
<path d="M108.933 130.595L104.556 126.83C104.763 125.553 104.87 124.249 104.87 122.944C104.87 121.64 104.763 120.336 104.556 119.059L108.933 115.294C109.263 115.01 109.5 114.631 109.611 114.208C109.722 113.786 109.702 113.339 109.555 112.928L109.495 112.753C108.29 109.365 106.485 106.224 104.169 103.482L104.048 103.341C103.767 103.009 103.393 102.77 102.974 102.656C102.555 102.542 102.112 102.558 101.703 102.702L96.2698 104.645C94.265 102.991 92.0264 101.687 89.6073 100.773L88.5581 95.0587C88.4789 94.6288 88.2716 94.2332 87.9637 93.9246C87.6557 93.616 87.2617 93.4089 86.834 93.331L86.6536 93.2974C83.1719 92.6654 79.5099 92.6654 76.0282 93.2974L75.8478 93.331C75.4201 93.4089 75.0261 93.616 74.7181 93.9246C74.4102 94.2332 74.2028 94.6288 74.1237 95.0587L73.0678 100.8C70.668 101.714 68.4332 103.018 66.4521 104.659L60.979 102.702C60.5698 102.557 60.1263 102.54 59.7073 102.654C59.2883 102.768 58.9138 103.008 58.6334 103.341L58.5132 103.482C56.1993 106.226 54.3952 109.366 53.1871 112.753L53.127 112.928C52.8263 113.768 53.0735 114.709 53.7485 115.294L58.179 119.099C57.9719 120.363 57.8716 121.654 57.8716 122.938C57.8716 124.228 57.9719 125.519 58.179 126.776L53.7485 130.581C53.4183 130.866 53.182 131.244 53.071 131.667C52.96 132.09 52.9795 132.537 53.127 132.948L53.1871 133.123C54.3967 136.511 56.1876 139.637 58.5132 142.393L58.6334 142.534C58.9145 142.867 59.289 143.106 59.7077 143.22C60.1265 143.334 60.5697 143.317 60.979 143.173L66.4521 141.217C68.4435 142.864 70.6688 144.168 73.0678 145.076L74.1237 150.817C74.2028 151.247 74.4102 151.642 74.7181 151.951C75.0261 152.259 75.4201 152.466 75.8478 152.544L76.0282 152.578C79.5419 153.213 83.1399 153.213 86.6536 152.578L86.834 152.544C87.2617 152.466 87.6557 152.259 87.9637 151.951C88.2716 151.642 88.4789 151.247 88.5581 150.817L89.6073 145.102C92.0254 144.191 94.2767 142.882 96.2698 141.23L101.703 143.173C102.112 143.319 102.556 143.335 102.974 143.221C103.393 143.107 103.768 142.868 104.048 142.534L104.169 142.393C106.494 139.63 108.285 136.511 109.495 133.123L109.555 132.948C109.856 132.121 109.608 131.18 108.933 130.595ZM99.8116 119.852C99.9786 120.867 100.066 121.909 100.066 122.951C100.066 123.993 99.9786 125.035 99.8116 126.05L99.3705 128.746L104.362 133.042C103.606 134.796 102.65 136.456 101.516 137.99L95.3142 135.778L93.2159 137.513C91.6187 138.83 89.8412 139.865 87.9166 140.591L85.3705 141.553L84.1743 148.074C82.287 148.289 80.3815 148.289 78.4941 148.074L77.2979 141.539L74.7719 140.565C72.8674 139.839 71.0965 138.803 69.5127 137.492L67.4144 135.751L61.1728 137.983C60.0368 136.444 59.0879 134.783 58.326 133.035L63.3714 128.699L62.937 126.01C62.7766 125.008 62.6898 123.973 62.6898 122.951C62.6898 121.923 62.77 120.894 62.937 119.892L63.3714 117.203L58.326 112.867C59.0812 111.113 60.0368 109.459 61.1728 107.919L67.4144 110.151L69.5127 108.41C71.0965 107.099 72.8674 106.064 74.7719 105.338L77.3046 104.376L78.5008 97.8419C80.3786 97.6268 82.2965 97.6268 84.181 97.8419L85.3772 104.363L87.9233 105.324C89.8412 106.05 91.6254 107.086 93.2225 108.403L95.3209 110.138L101.522 107.926C102.658 109.465 103.607 111.126 104.369 112.874L99.3772 117.17L99.8116 119.852ZM81.3476 110.447C74.8521 110.447 69.5862 115.744 69.5862 122.279C69.5862 128.813 74.8521 134.111 81.3476 134.111C87.8431 134.111 93.1089 128.813 93.1089 122.279C93.1089 115.744 87.8431 110.447 81.3476 110.447ZM86.6402 127.603C85.946 128.304 85.121 128.859 84.2127 129.237C83.3044 129.616 82.3307 129.81 81.3476 129.808C79.3495 129.808 77.4717 129.022 76.055 127.603C75.3588 126.905 74.8067 126.075 74.4306 125.161C74.0544 124.247 73.8615 123.268 73.8631 122.279C73.8631 120.269 74.6449 118.38 76.055 116.955C77.4717 115.529 79.3495 114.749 81.3476 114.749C83.3457 114.749 85.2235 115.529 86.6402 116.955C87.3364 117.653 87.8884 118.483 88.2646 119.397C88.6407 120.31 88.8336 121.29 88.8321 122.279C88.8321 124.289 88.0502 126.178 86.6402 127.603Z" fill="url(#paint8_linear_5940_276503)" stroke="url(#paint9_linear_5940_276503)" stroke-width="0.142857" mask="url(#path-9-inside-1_5940_276503)"/>
<defs>
<linearGradient id="paint0_linear_5940_276503" x1="168.074" y1="42" x2="168.074" y2="90.9412" gradientUnits="userSpaceOnUse">
<stop stop-color="#FF8860"/>
<stop offset="1" stop-color="#FFF281"/>
</linearGradient>
<linearGradient id="paint1_linear_5940_276503" x1="168.074" y1="98.4707" x2="168.074" y2="145.53" gradientUnits="userSpaceOnUse">
<stop stop-color="#FF8860"/>
<stop offset="1" stop-color="#FFF281"/>
</linearGradient>
<linearGradient id="paint2_linear_5940_276503" x1="168.074" y1="153.06" x2="168.074" y2="202.001" gradientUnits="userSpaceOnUse">
<stop stop-color="#FF8860"/>
<stop offset="1" stop-color="#FFF281"/>
</linearGradient>
<linearGradient id="paint3_linear_5940_276503" x1="169.007" y1="58.9414" x2="169.007" y2="74.0002" gradientUnits="userSpaceOnUse">
<stop stop-color="#FF8860"/>
<stop offset="1" stop-color="#FFF281"/>
</linearGradient>
<linearGradient id="paint4_linear_5940_276503" x1="169.007" y1="115.411" x2="169.007" y2="130.47" gradientUnits="userSpaceOnUse">
<stop stop-color="#FF8860"/>
<stop offset="1" stop-color="#FFF281"/>
</linearGradient>
<linearGradient id="paint5_linear_5940_276503" x1="169.007" y1="171.882" x2="169.007" y2="185.059" gradientUnits="userSpaceOnUse">
<stop stop-color="#FF8860"/>
<stop offset="1" stop-color="#FFF281"/>
</linearGradient>
<linearGradient id="paint6_linear_5940_276503" x1="135.797" y1="66.4697" x2="135.797" y2="179.411" gradientUnits="userSpaceOnUse">
<stop stop-color="#FF8860"/>
<stop offset="1" stop-color="#FFF281"/>
</linearGradient>
<linearGradient id="paint7_linear_5940_276503" x1="124.57" y1="122.94" x2="124.57" y2="123.94" gradientUnits="userSpaceOnUse">
<stop stop-color="#FF8860"/>
<stop offset="1" stop-color="#FFF281"/>
</linearGradient>
<linearGradient id="paint8_linear_5940_276503" x1="81.3409" y1="92.8234" x2="81.3409" y2="153.055" gradientUnits="userSpaceOnUse">
<stop stop-color="#FF8860"/>
<stop offset="1" stop-color="#FFF281"/>
</linearGradient>
<linearGradient id="paint9_linear_5940_276503" x1="81.3409" y1="92.8234" x2="81.3409" y2="153.055" gradientUnits="userSpaceOnUse">
<stop stop-color="#FF8860"/>
<stop offset="1" stop-color="#FFF281"/>
</linearGradient>
</defs>
</svg>
