<svg width="244" height="244" viewBox="0 0 244 244" fill="none" xmlns="http://www.w3.org/2000/svg">
<path d="M131.41 100.536C131.87 99.532 131.429 98.345 130.425 97.8849C129.421 97.4248 128.234 97.8658 127.774 98.87L131.41 100.536ZM106.946 144.326C106.486 145.33 106.927 146.517 107.931 146.977C108.935 147.437 110.122 146.996 110.583 145.992L106.946 144.326ZM104.284 109.287C105.131 108.578 105.242 107.316 104.533 106.469C103.824 105.623 102.562 105.511 101.716 106.221L104.284 109.287ZM85.498 122.418L86.7824 123.951L86.7824 123.951L85.498 122.418ZM85.5653 124.002L86.7152 122.366L86.7152 122.366L85.5653 124.002ZM101.85 137.89C102.754 138.525 104.001 138.308 104.636 137.404C105.271 136.5 105.054 135.253 104.15 134.618L101.85 137.89ZM137.784 107.221C136.938 106.511 135.676 106.623 134.967 107.469C134.258 108.316 134.369 109.578 135.216 110.287L137.784 107.221ZM154.06 123.466L155.344 121.933L155.344 121.933L154.06 123.466ZM154.039 125.016L152.796 123.449L152.796 123.449L154.039 125.016ZM139.257 134.187C138.392 134.873 138.247 136.131 138.933 136.997C139.619 137.862 140.877 138.007 141.743 137.321L139.257 134.187ZM127.774 98.87L106.946 144.326L110.583 145.992L131.41 100.536L127.774 98.87ZM193.5 127.254C193.5 166.742 161.488 198.754 122 198.754V202.754C163.697 202.754 197.5 168.951 197.5 127.254H193.5ZM122 198.754C82.5116 198.754 50.5 166.742 50.5 127.254H46.5C46.5 168.951 80.3025 202.754 122 202.754V198.754ZM50.5 127.254C50.5 87.7655 82.5116 55.7539 122 55.7539V51.7539C80.3025 51.7539 46.5 85.5564 46.5 127.254H50.5ZM122 55.7539C161.488 55.7539 193.5 87.7655 193.5 127.254H197.5C197.5 85.5564 163.697 51.7539 122 51.7539V55.7539ZM70.7049 78.0373L171.468 178.8L174.296 175.972L73.5334 75.2088L70.7049 78.0373ZM101.716 106.221L84.2135 120.885L86.7824 123.951L104.284 109.287L101.716 106.221ZM84.4154 125.639L101.85 137.89L104.15 134.618L86.7152 122.366L84.4154 125.639ZM84.2135 120.885C82.7024 122.151 82.8024 124.505 84.4154 125.639L86.7152 122.366C87.2528 122.744 87.2861 123.529 86.7824 123.951L84.2135 120.885ZM135.216 110.287L152.775 124.999L155.344 121.933L137.784 107.221L135.216 110.287ZM152.796 123.449L139.257 134.187L141.743 137.321L155.282 126.583L152.796 123.449ZM152.775 124.999C152.29 124.592 152.3 123.843 152.796 123.449L155.282 126.583C156.77 125.403 156.8 123.153 155.344 121.933L152.775 124.999Z" fill="url(#paint0_linear_5940_276521)"/>
<defs>
<linearGradient id="paint0_linear_5940_276521" x1="108" y1="7.7539" x2="129" y2="127.754" gradientUnits="userSpaceOnUse">
<stop stop-color="#6015E2"/>
<stop offset="1" stop-color="#FB4794"/>
</linearGradient>
</defs>
</svg>
