<svg width="244" height="244" viewBox="0 0 244 244" fill="none" xmlns="http://www.w3.org/2000/svg">
<path d="M112.5 118H160.5M112.5 129H160.5M112.5 142H160.5M112.5 155H160.5M112.5 167.5H160.5M137.5 75.5H182V96M182 96V178.5L160 200.5H93.5V118.5M182 96H132.5M173 86H164M156 86H147M73 99C84.7968 94.731 91.3477 89.1082 103 76M75.5 69.5C80.0764 61.8256 83.5828 58.8746 91.5 56M132 78.5C132 97.5538 116.554 113 97.5 113C78.4462 113 63 97.5538 63 78.5C63 59.4462 78.4462 44 97.5 44C116.554 44 132 59.4462 132 78.5ZM113.502 61C113.502 61 119.002 74.5 110.502 87C102.002 99.5 85.002 92 85.002 92C81.0692 82.4743 81.5012 78 89.002 71.5C98.5 66 105 71.5 113.502 61Z" stroke="url(#paint0_linear_5940_276523)" stroke-width="4" stroke-linecap="round"/>
<defs>
<linearGradient id="paint0_linear_5940_276523" x1="80.8831" y1="53.2968" x2="111.356" y2="100.091" gradientUnits="userSpaceOnUse">
<stop stop-color="#29D5A6"/>
<stop offset="1" stop-color="#29B8EF"/>
</linearGradient>
</defs>
</svg>
